ISO-10303-21;
HEADER;
FILE_DESCRIPTION (( 'STEP AP214' ),
    '1' );
FILE_NAME ('base_bearing_cover.STEP',
    '2026-05-15T09:00:19',
    ( '' ),
    ( '' ),
    'SwSTEP 2.0',
    'SolidWorks 2024',
    '' );
FILE_SCHEMA (( 'AUTOMOTIVE_DESIGN' ));
ENDSEC;

DATA;
#1 = FACE_BOUND ( 'NONE', #14, .T. ) ;
#2 = AXIS2_PLACEMENT_3D ( 'NONE', #147, #23, #300 ) ;
#3 = FACE_BOUND ( 'NONE', #248, .T. ) ;
#4 = ORIENTED_EDGE ( 'NONE', *, *, #392, .F. ) ;
#5 = FACE_BOUND ( 'NONE', #443, .T. ) ;
#6 = ORIENTED_EDGE ( 'NONE', *, *, #100, .F. ) ;
#7 = DIRECTION ( 'NONE',  ( 0.000000000000000000, 0.000000000000000000, -1.000000000000000000 ) ) ;
#8 = EDGE_LOOP ( 'NONE', ( #279, #183, #118, #265 ) ) ;
#9 = PRODUCT ( 'base_bearing_cover', 'base_bearing_cover', '', ( #335 ) ) ;
#10 = AXIS2_PLACEMENT_3D ( 'NONE', #473, #90, #13 ) ;
#11 = AXIS2_PLACEMENT_3D ( 'NONE', #170, #319, #184 ) ;
#12 = CIRCLE ( 'NONE', #69, 18.00000000000000000 ) ;
#13 = DIRECTION ( 'NONE',  ( 0.000000000000000000, 0.000000000000000000, -1.000000000000000000 ) ) ;
#14 = EDGE_LOOP ( 'NONE', ( #436, #486 ) ) ;
#15 = DIRECTION ( 'NONE',  ( 0.000000000000000000, 1.000000000000000000, 0.000000000000000000 ) ) ;
#16 = ORIENTED_EDGE ( 'NONE', *, *, #54, .T. ) ;
#17 = LINE ( 'NONE', #176, #113 ) ;
#18 = VERTEX_POINT ( 'NONE', #378 ) ;
#19 = CIRCLE ( 'NONE', #367, 1.600000000000000755 ) ;
#20 = DIRECTION ( 'NONE',  ( 0.000000000000000000, 1.000000000000000000, 0.000000000000000000 ) ) ;
#21 = EDGE_LOOP ( 'NONE', ( #56, #44, #472, #86 ) ) ;
#22 = VERTEX_POINT ( 'NONE', #144 ) ;
#23 = DIRECTION ( 'NONE',  ( 0.000000000000000000, 1.000000000000000000, 0.000000000000000000 ) ) ;
#24 = DIRECTION ( 'NONE',  ( 0.000000000000000000, 0.000000000000000000, 1.000000000000000000 ) ) ;
#25 = VECTOR ( 'NONE', #73, 1000.000000000000000 ) ;
#26 = VERTEX_POINT ( 'NONE', #222 ) ;
#27 = CYLINDRICAL_SURFACE ( 'NONE', #125, 1.600000000000000755 ) ;
#28 = CARTESIAN_POINT ( 'NONE',  ( -12.40000000000004121, 3.000000000000000000, 1.599999999999998979 ) ) ;
#29 = EDGE_CURVE ( 'NONE', #211, #84, #455, .T. ) ;
#30 = CARTESIAN_POINT ( 'NONE',  ( 12.40000000000000036, 3.000000000000000000, 4.336808689942017736E-14 ) ) ;
#31 = FACE_OUTER_BOUND ( 'NONE', #460, .T. ) ;
#32 = DIRECTION ( 'NONE',  ( 0.000000000000000000, 0.000000000000000000, -1.000000000000000000 ) ) ;
#33 = FACE_OUTER_BOUND ( 'NONE', #235, .T. ) ;
#34 = DIRECTION ( 'NONE',  ( 0.000000000000000000, 0.000000000000000000, 1.000000000000000000 ) ) ;
#35 = CARTESIAN_POINT ( 'NONE',  ( 12.40000000000000036, 0.000000000000000000, -1.599999999999956790 ) ) ;
#36 = DIRECTION ( 'NONE',  ( 0.000000000000000000, 0.000000000000000000, 1.000000000000000000 ) ) ;
#37 = CIRCLE ( 'NONE', #343, 1.600000000000000755 ) ;
#38 = CARTESIAN_POINT ( 'NONE',  ( 0.000000000000000000, 3.000000000000000000, -12.40000000000000036 ) ) ;
#39 = ORIENTED_EDGE ( 'NONE', *, *, #94, .T. ) ;
#40 = EDGE_CURVE ( 'NONE', #22, #208, #250, .T. ) ;
#41 = DIRECTION ( 'NONE',  ( -0.000000000000000000, -1.000000000000000000, -0.000000000000000000 ) ) ;
#42 = VERTEX_POINT ( 'NONE', #295 ) ;
#43 = CARTESIAN_POINT ( 'NONE',  ( -12.40000000000004121, 0.000000000000000000, -1.600000000000001199 ) ) ;
#44 = ORIENTED_EDGE ( 'NONE', *, *, #337, .T. ) ;
#45 = CIRCLE ( 'NONE', #106, 1.600000000000000755 ) ;
#46 = CARTESIAN_POINT ( 'NONE',  ( 0.000000000000000000, 3.000000000000000000, -14.00000000000000000 ) ) ;
#47 = ORIENTED_EDGE ( 'NONE', *, *, #167, .F. ) ;
#48 = EDGE_CURVE ( 'NONE', #490, #227, #64, .T. ) ;
#49 = DIRECTION ( 'NONE',  ( 0.000000000000000000, 1.000000000000000000, 0.000000000000000000 ) ) ;
#50 = ORIENTED_EDGE ( 'NONE', *, *, #298, .F. ) ;
#51 = CARTESIAN_POINT ( 'NONE',  ( 0.000000000000000000, 0.000000000000000000, 0.000000000000000000 ) ) ;
#52 = ORIENTED_EDGE ( 'NONE', *, *, #142, .T. ) ;
#53 = ORIENTED_EDGE ( 'NONE', *, *, #370, .T. ) ;
#54 = EDGE_CURVE ( 'NONE', #474, #427, #376, .T. ) ;
#55 = CARTESIAN_POINT ( 'NONE',  ( 0.000000000000000000, 0.000000000000000000, 0.000000000000000000 ) ) ;
#56 = ORIENTED_EDGE ( 'NONE', *, *, #54, .F. ) ;
#57 = CARTESIAN_POINT ( 'NONE',  ( 12.40000000000000036, 3.000000000000000000, 1.600000000000043388 ) ) ;
#58 = DIRECTION ( 'NONE',  ( 0.000000000000000000, 0.000000000000000000, 1.000000000000000000 ) ) ;
#59 = CIRCLE ( 'NONE', #258, 1.600000000000000089 ) ;
#60 = CARTESIAN_POINT ( 'NONE',  ( 0.000000000000000000, 3.000000000000000000, 0.000000000000000000 ) ) ;
#61 = CIRCLE ( 'NONE', #166, 1.600000000000000089 ) ;
#62 = FACE_OUTER_BOUND ( 'NONE', #91, .T. ) ;
#63 = MECHANICAL_DESIGN_GEOMETRIC_PRESENTATION_REPRESENTATION (  '', ( #108 ), #97 ) ;
#64 = LINE ( 'NONE', #292, #148 ) ;
#65 = DIRECTION ( 'NONE',  ( -0.000000000000000000, -1.000000000000000000, -0.000000000000000000 ) ) ;
#66 = DIRECTION ( 'NONE',  ( -0.000000000000000000, -1.000000000000000000, -0.000000000000000000 ) ) ;
#67 = DIRECTION ( 'NONE',  ( 0.000000000000000000, 1.000000000000000000, 0.000000000000000000 ) ) ;
#68 = EDGE_CURVE ( 'NONE', #372, #227, #89, .T. ) ;
#69 = AXIS2_PLACEMENT_3D ( 'NONE', #197, #423, #276 ) ;
#70 =( LENGTH_UNIT ( ) NAMED_UNIT ( * ) SI_UNIT ( .MILLI., .METRE. ) );
#71 = CARTESIAN_POINT ( 'NONE',  ( -12.40000000000004121, 3.000000000000000000, -1.067201882419566285E-15 ) ) ;
#72 = ORIENTED_EDGE ( 'NONE', *, *, #136, .F. ) ;
#73 = DIRECTION ( 'NONE',  ( -0.000000000000000000, -1.000000000000000000, -0.000000000000000000 ) ) ;
#74 = FACE_OUTER_BOUND ( 'NONE', #396, .T. ) ;
#75 = EDGE_LOOP ( 'NONE', ( #290, #339, #47, #407 ) ) ;
#76 = APPLICATION_CONTEXT ( 'automotive_design' ) ;
#77 = CARTESIAN_POINT ( 'NONE',  ( 1.212400331155879505E-15, 0.000000000000000000, 9.899999999999998579 ) ) ;
#78 = ORIENTED_EDGE ( 'NONE', *, *, #68, .F. ) ;
#79 = ADVANCED_BREP_SHAPE_REPRESENTATION ( 'base_bearing_cover', ( #410, #316 ), #458 ) ;
#80 = CARTESIAN_POINT ( 'NONE',  ( 0.000000000000000000, 3.000000000000000000, 0.000000000000000000 ) ) ;
#81 = EDGE_CURVE ( 'NONE', #22, #404, #341, .T. ) ;
#82 = EDGE_LOOP ( 'NONE', ( #352, #160 ) ) ;
#83 = CARTESIAN_POINT ( 'NONE',  ( -12.40000000000004121, 3.000000000000000000, -1.067201882419566285E-15 ) ) ;
#84 = VERTEX_POINT ( 'NONE', #150 ) ;
#85 = LINE ( 'NONE', #322, #191 ) ;
#86 = ORIENTED_EDGE ( 'NONE', *, *, #142, .F. ) ;
#87 = AXIS2_PLACEMENT_3D ( 'NONE', #450, #437, #283 ) ;
#88 =( NAMED_UNIT ( * ) SI_UNIT ( $, .STERADIAN. ) SOLID_ANGLE_UNIT ( ) );
#89 = CIRCLE ( 'NONE', #238, 9.899999999999998579 ) ;
#90 = DIRECTION ( 'NONE',  ( -0.000000000000000000, -1.000000000000000000, -0.000000000000000000 ) ) ;
#91 = EDGE_LOOP ( 'NONE', ( #373, #137 ) ) ;
#92 = DIRECTION ( 'NONE',  ( 0.000000000000000000, 1.000000000000000000, 0.000000000000000000 ) ) ;
#93 = EDGE_LOOP ( 'NONE', ( #355, #364, #320, #72 ) ) ;
#94 = EDGE_CURVE ( 'NONE', #18, #205, #37, .T. ) ;
#95 = ORIENTED_EDGE ( 'NONE', *, *, #161, .T. ) ;
#96 = EDGE_LOOP ( 'NONE', ( #269, #107 ) ) ;
#97 =( GEOMETRIC_REPRESENTATION_CONTEXT ( 3 ) GLOBAL_UNCERTAINTY_ASSIGNED_CONTEXT ( ( #369 ) ) GLOBAL_UNIT_ASSIGNED_CONTEXT ( ( #70, #386, #419 ) ) REPRESENTATION_CONTEXT ( 'NONE', 'WORKASPACE' ) );
#98 = PRODUCT_DEFINITION_FORMATION_WITH_SPECIFIED_SOURCE ( 'ANY', '', #9, .NOT_KNOWN. ) ;
#99 = ORIENTED_EDGE ( 'NONE', *, *, #29, .F. ) ;
#100 = EDGE_CURVE ( 'NONE', #328, #211, #225, .T. ) ;
#101 = DIRECTION ( 'NONE',  ( -0.000000000000000000, -1.000000000000000000, -0.000000000000000000 ) ) ;
#102 = DIRECTION ( 'NONE',  ( 0.000000000000000000, 1.000000000000000000, 0.000000000000000000 ) ) ;
#103 = CARTESIAN_POINT ( 'NONE',  ( 0.000000000000000000, 3.000000000000000000, 0.000000000000000000 ) ) ;
#104 = CIRCLE ( 'NONE', #123, 1.600000000000000089 ) ;
#105 = ADVANCED_FACE ( 'NONE', ( #109 ), #411, .T. ) ;
#106 = AXIS2_PLACEMENT_3D ( 'NONE', #452, #442, #210 ) ;
#107 = ORIENTED_EDGE ( 'NONE', *, *, #285, .F. ) ;
#108 = STYLED_ITEM ( 'NONE', ( #459 ), #410 ) ;
#109 = FACE_OUTER_BOUND ( 'NONE', #8, .T. ) ;
#110 = FILL_AREA_STYLE_COLOUR ( '', #417 ) ;
#111 = FACE_BOUND ( 'NONE', #358, .T. ) ;
#112 = CARTESIAN_POINT ( 'NONE',  ( 0.000000000000000000, 0.000000000000000000, -18.00000000000000000 ) ) ;
#113 = VECTOR ( 'NONE', #485, 1000.000000000000000 ) ;
#114 = ORIENTED_EDGE ( 'NONE', *, *, #449, .F. ) ;
#115 = SURFACE_STYLE_FILL_AREA ( #299 ) ;
#116 = AXIS2_PLACEMENT_3D ( 'NONE', #230, #344, #304 ) ;
#117 = DIRECTION ( 'NONE',  ( 0.000000000000000000, 0.000000000000000000, 1.000000000000000000 ) ) ;
#118 = ORIENTED_EDGE ( 'NONE', *, *, #353, .T. ) ;
#119 = PRODUCT_DEFINITION ( 'UNKNOWN', '', #98, #212 ) ;
#120 = CARTESIAN_POINT ( 'NONE',  ( 0.000000000000000000, 3.000000000000000000, -12.40000000000000036 ) ) ;
#121 = ADVANCED_FACE ( 'NONE', ( #31, #200, #302, #5, #345, #3 ), #234, .F. ) ;
#122 = CYLINDRICAL_SURFACE ( 'NONE', #215, 1.600000000000000755 ) ;
#123 = AXIS2_PLACEMENT_3D ( 'NONE', #71, #140, #58 ) ;
#124 = CARTESIAN_POINT ( 'NONE',  ( 12.40000000000000036, 0.000000000000000000, 4.336808689942017736E-14 ) ) ;
#125 = AXIS2_PLACEMENT_3D ( 'NONE', #196, #384, #32 ) ;
#126 = APPLICATION_CONTEXT ( 'automotive_design' ) ;
#127 = CARTESIAN_POINT ( 'NONE',  ( 12.40000000000000036, 3.000000000000000000, 4.336808689942017736E-14 ) ) ;
#128 = EDGE_LOOP ( 'NONE', ( #420, #440 ) ) ;
#129 = ADVANCED_FACE ( 'NONE', ( #236 ), #354, .F. ) ;
#130 = CARTESIAN_POINT ( 'NONE',  ( 0.000000000000000000, 3.000000000000000000, 0.000000000000000000 ) ) ;
#131 = VERTEX_POINT ( 'NONE', #231 ) ;
#132 = AXIS2_PLACEMENT_3D ( 'NONE', #312, #202, #347 ) ;
#133 = LINE ( 'NONE', #241, #390 ) ;
#134 = ORIENTED_EDGE ( 'NONE', *, *, #425, .T. ) ;
#135 = VECTOR ( 'NONE', #297, 1000.000000000000000 ) ;
#136 = EDGE_CURVE ( 'NONE', #404, #249, #61, .T. ) ;
#137 = ORIENTED_EDGE ( 'NONE', *, *, #156, .T. ) ;
#138 = VERTEX_POINT ( 'NONE', #268 ) ;
#139 = CLOSED_SHELL ( 'NONE', ( #179, #129, #275, #233, #456, #105, #399, #121, #244, #270, #188, #413, #441, #214 ) ) ;
#140 = DIRECTION ( 'NONE',  ( 0.000000000000000000, 1.000000000000000000, 0.000000000000000000 ) ) ;
#141 = ORIENTED_EDGE ( 'NONE', *, *, #285, .T. ) ;
#142 = EDGE_CURVE ( 'NONE', #427, #263, #199, .T. ) ;
#143 = CARTESIAN_POINT ( 'NONE',  ( -12.40000000000004121, 0.000000000000000000, -1.067201882419566285E-15 ) ) ;
#144 = CARTESIAN_POINT ( 'NONE',  ( 12.40000000000000036, 3.000000000000000000, 1.600000000000043388 ) ) ;
#145 = CARTESIAN_POINT ( 'NONE',  ( 2.204364238465235428E-15, 3.000000000000000000, 18.00000000000000000 ) ) ;
#146 = CIRCLE ( 'NONE', #87, 1.600000000000000089 ) ;
#147 = CARTESIAN_POINT ( 'NONE',  ( -8.651933336434325383E-14, 0.000000000000000000, 12.40000000000000036 ) ) ;
#148 = VECTOR ( 'NONE', #453, 1000.000000000000000 ) ;
#149 = VECTOR ( 'NONE', #487, 1000.000000000000000 ) ;
#150 = CARTESIAN_POINT ( 'NONE',  ( -8.651933336434325383E-14, 0.000000000000000000, 10.79999999999999893 ) ) ;
#151 = DIRECTION ( 'NONE',  ( 0.000000000000000000, 0.000000000000000000, 1.000000000000000000 ) ) ;
#152 = CARTESIAN_POINT ( 'NONE',  ( -12.40000000000004121, 0.000000000000000000, -1.067201882419566285E-15 ) ) ;
#153 = CARTESIAN_POINT ( 'NONE',  ( 12.40000000000000036, 0.000000000000000000, 1.600000000000043388 ) ) ;
#154 = PRODUCT_DEFINITION_SHAPE ( 'NONE', 'NONE',  #119 ) ;
#155 = CARTESIAN_POINT ( 'NONE',  ( -8.632338987647968012E-14, 0.000000000000000000, 14.00000000000000000 ) ) ;
#156 = EDGE_CURVE ( 'NONE', #313, #361, #12, .T. ) ;
#157 = VECTOR ( 'NONE', #482, 1000.000000000000000 ) ;
#158 = FACE_OUTER_BOUND ( 'NONE', #445, .T. ) ;
#159 = CARTESIAN_POINT ( 'NONE',  ( 12.40000000000000036, 0.000000000000000000, 4.336808689942017736E-14 ) ) ;
#160 = ORIENTED_EDGE ( 'NONE', *, *, #29, .T. ) ;
#161 = EDGE_CURVE ( 'NONE', #26, #490, #359, .T. ) ;
#162 = DIRECTION ( 'NONE',  ( 0.000000000000000000, 0.000000000000000000, -1.000000000000000000 ) ) ;
#163 = DIRECTION ( 'NONE',  ( 0.000000000000000000, 0.000000000000000000, -1.000000000000000000 ) ) ;
#164 = CIRCLE ( 'NONE', #446, 1.600000000000000755 ) ;
#165 = ORIENTED_EDGE ( 'NONE', *, *, #48, .F. ) ;
#166 = AXIS2_PLACEMENT_3D ( 'NONE', #124, #278, #36 ) ;
#167 = EDGE_CURVE ( 'NONE', #249, #404, #206, .T. ) ;
#168 = DIRECTION ( 'NONE',  ( 0.000000000000000000, 0.000000000000000000, 1.000000000000000000 ) ) ;
#169 = ORIENTED_EDGE ( 'NONE', *, *, #136, .T. ) ;
#170 = CARTESIAN_POINT ( 'NONE',  ( 0.000000000000000000, 3.000000000000000000, 0.000000000000000000 ) ) ;
#171 = ORIENTED_EDGE ( 'NONE', *, *, #262, .T. ) ;
#172 = DIRECTION ( 'NONE',  ( 0.000000000000000000, 0.000000000000000000, 1.000000000000000000 ) ) ;
#173 = ORIENTED_EDGE ( 'NONE', *, *, #495, .T. ) ;
#174 = CIRCLE ( 'NONE', #454, 18.00000000000000000 ) ;
#175 = AXIS2_PLACEMENT_3D ( 'NONE', #301, #489, #232 ) ;
#176 = CARTESIAN_POINT ( 'NONE',  ( 12.40000000000000036, 3.000000000000000000, -1.599999999999956790 ) ) ;
#177 = ORIENTED_EDGE ( 'NONE', *, *, #68, .T. ) ;
#178 = UNCERTAINTY_MEASURE_WITH_UNIT (LENGTH_MEASURE( 1.000000000000000082E-05 ), #448, 'distance_accuracy_value', 'NONE');
#179 = ADVANCED_FACE ( 'NONE', ( #74 ), #434, .F. ) ;
#180 = ORIENTED_EDGE ( 'NONE', *, *, #321, .F. ) ;
#181 = DIRECTION ( 'NONE',  ( 0.000000000000000000, 1.000000000000000000, 0.000000000000000000 ) ) ;
#182 = APPLICATION_PROTOCOL_DEFINITION ( 'draft international standard', 'automotive_design', 1998, #76 ) ;
#183 = ORIENTED_EDGE ( 'NONE', *, *, #428, .T. ) ;
#184 = DIRECTION ( 'NONE',  ( 0.000000000000000000, 0.000000000000000000, 1.000000000000000000 ) ) ;
#185 = ORIENTED_EDGE ( 'NONE', *, *, #262, .F. ) ;
#186 = CARTESIAN_POINT ( 'NONE',  ( -8.651933336434325383E-14, 3.000000000000000000, 10.79999999999999893 ) ) ;
#187 = ORIENTED_EDGE ( 'NONE', *, *, #449, .T. ) ;
#188 = ADVANCED_FACE ( 'NONE', ( #348 ), #122, .F. ) ;
#189 = CARTESIAN_POINT ( 'NONE',  ( -8.651933336434325383E-14, 3.000000000000000000, 10.79999999999999893 ) ) ;
#190 = AXIS2_PLACEMENT_3D ( 'NONE', #38, #492, #7 ) ;
#191 = VECTOR ( 'NONE', #101, 1000.000000000000000 ) ;
#192 = DIRECTION ( 'NONE',  ( 0.000000000000000000, 0.000000000000000000, 1.000000000000000000 ) ) ;
#193 = FACE_OUTER_BOUND ( 'NONE', #408, .T. ) ;
#194 = DIRECTION ( 'NONE',  ( 0.000000000000000000, 0.000000000000000000, -1.000000000000000000 ) ) ;
#195 = CARTESIAN_POINT ( 'NONE',  ( 0.000000000000000000, 0.000000000000000000, 0.000000000000000000 ) ) ;
#196 = CARTESIAN_POINT ( 'NONE',  ( -8.651933336434325383E-14, 3.000000000000000000, 12.40000000000000036 ) ) ;
#197 = CARTESIAN_POINT ( 'NONE',  ( 0.000000000000000000, 3.000000000000000000, 0.000000000000000000 ) ) ;
#198 = ORIENTED_EDGE ( 'NONE', *, *, #94, .F. ) ;
#199 = CIRCLE ( 'NONE', #277, 1.600000000000000089 ) ;
#200 = FACE_BOUND ( 'NONE', #479, .T. ) ;
#201 = VERTEX_POINT ( 'NONE', #469 ) ;
#202 = DIRECTION ( 'NONE',  ( 0.000000000000000000, 1.000000000000000000, 0.000000000000000000 ) ) ;
#203 = ORIENTED_EDGE ( 'NONE', *, *, #40, .F. ) ;
#204 = CARTESIAN_POINT ( 'NONE',  ( 0.000000000000000000, 3.000000000000000000, -12.40000000000000036 ) ) ;
#205 = VERTEX_POINT ( 'NONE', #273 ) ;
#206 = CIRCLE ( 'NONE', #415, 1.600000000000000089 ) ;
#207 = DIRECTION ( 'NONE',  ( -0.000000000000000000, -1.000000000000000000, -0.000000000000000000 ) ) ;
#208 = VERTEX_POINT ( 'NONE', #494 ) ;
#209 = DIRECTION ( 'NONE',  ( 0.000000000000000000, 0.000000000000000000, 1.000000000000000000 ) ) ;
#210 = DIRECTION ( 'NONE',  ( 0.000000000000000000, 0.000000000000000000, 1.000000000000000000 ) ) ;
#211 = VERTEX_POINT ( 'NONE', #155 ) ;
#212 = PRODUCT_DEFINITION_CONTEXT ( 'detailed design', #126, 'design' ) ;
#213 = EDGE_LOOP ( 'NONE', ( #134, #281, #288, #114 ) ) ;
#214 = ADVANCED_FACE ( 'NONE', ( #391 ), #385, .F. ) ;
#215 = AXIS2_PLACEMENT_3D ( 'NONE', #120, #432, #395 ) ;
#216 = AXIS2_PLACEMENT_3D ( 'NONE', #484, #181, #333 ) ;
#217 = ORIENTED_EDGE ( 'NONE', *, *, #370, .F. ) ;
#218 = DIRECTION ( 'NONE',  ( 1.000000000000000000, 0.000000000000000000, 0.000000000000000000 ) ) ;
#219 = ORIENTED_EDGE ( 'NONE', *, *, #293, .F. ) ;
#220 = DIRECTION ( 'NONE',  ( -0.000000000000000000, -1.000000000000000000, -0.000000000000000000 ) ) ;
#221 = DIRECTION ( 'NONE',  ( 0.000000000000000000, 1.000000000000000000, 0.000000000000000000 ) ) ;
#222 = CARTESIAN_POINT ( 'NONE',  ( 0.000000000000000000, 3.000000000000000000, -9.899999999999998579 ) ) ;
#223 = AXIS2_PLACEMENT_3D ( 'NONE', #226, #67, #151 ) ;
#224 = CARTESIAN_POINT ( 'NONE',  ( 1.959434878635765477E-16, 3.000000000000000000, -10.79999999999999893 ) ) ;
#225 = LINE ( 'NONE', #457, #324 ) ;
#226 = CARTESIAN_POINT ( 'NONE',  ( -8.651933336434325383E-14, 0.000000000000000000, 12.40000000000000036 ) ) ;
#227 = VERTEX_POINT ( 'NONE', #77 ) ;
#228 = AXIS2_PLACEMENT_3D ( 'NONE', #239, #465, #162 ) ;
#229 = AXIS2_PLACEMENT_3D ( 'NONE', #346, #379, #34 ) ;
#230 = CARTESIAN_POINT ( 'NONE',  ( 0.000000000000000000, 0.000000000000000000, 0.000000000000000000 ) ) ;
#231 = CARTESIAN_POINT ( 'NONE',  ( 1.959434878635764984E-16, 0.000000000000000000, -10.79999999999999893 ) ) ;
#232 = DIRECTION ( 'NONE',  ( 0.000000000000000000, -0.000000000000000000, 1.000000000000000000 ) ) ;
#233 = ADVANCED_FACE ( 'NONE', ( #193 ), #383, .F. ) ;
#234 = PLANE ( 'NONE',  #439 ) ;
#235 = EDGE_LOOP ( 'NONE', ( #388, #180, #173, #336 ) ) ;
#236 = FACE_OUTER_BOUND ( 'NONE', #213, .T. ) ;
#237 = CIRCLE ( 'NONE', #296, 1.600000000000000755 ) ;
#238 = AXIS2_PLACEMENT_3D ( 'NONE', #451, #102, #253 ) ;
#239 = CARTESIAN_POINT ( 'NONE',  ( -8.651933336434325383E-14, 3.000000000000000000, 12.40000000000000036 ) ) ;
#240 = EDGE_LOOP ( 'NONE', ( #6, #470, #187, #99 ) ) ;
#241 = CARTESIAN_POINT ( 'NONE',  ( -12.40000000000004121, 3.000000000000000000, -1.600000000000001199 ) ) ;
#242 = FACE_OUTER_BOUND ( 'NONE', #274, .T. ) ;
#243 = EDGE_LOOP ( 'NONE', ( #331, #430, #171, #50 ) ) ;
#244 = ADVANCED_FACE ( 'NONE', ( #33 ), #351, .T. ) ;
#245 = CARTESIAN_POINT ( 'NONE',  ( -12.40000000000004121, 3.000000000000000000, -1.067201882419566285E-15 ) ) ;
#246 = ORIENTED_EDGE ( 'NONE', *, *, #350, .T. ) ;
#247 = CYLINDRICAL_SURFACE ( 'NONE', #10, 9.899999999999998579 ) ;
#248 = EDGE_LOOP ( 'NONE', ( #53, #52 ) ) ;
#249 = VERTEX_POINT ( 'NONE', #35 ) ;
#250 = CIRCLE ( 'NONE', #216, 1.600000000000000089 ) ;
#251 = VERTEX_POINT ( 'NONE', #112 ) ;
#252 = EDGE_CURVE ( 'NONE', #138, #474, #104, .T. ) ;
#253 = DIRECTION ( 'NONE',  ( 0.000000000000000000, 0.000000000000000000, 1.000000000000000000 ) ) ;
#254 = CARTESIAN_POINT ( 'NONE',  ( 0.000000000000000000, 3.000000000000000000, -18.00000000000000000 ) ) ;
#255 = CARTESIAN_POINT ( 'NONE',  ( 0.000000000000000000, 3.000000000000000000, -12.40000000000000036 ) ) ;
#256 = VECTOR ( 'NONE', #363, 1000.000000000000000 ) ;
#257 = DIRECTION ( 'NONE',  ( 0.000000000000000000, 0.000000000000000000, -1.000000000000000000 ) ) ;
#258 = AXIS2_PLACEMENT_3D ( 'NONE', #143, #49, #294 ) ;
#259 = EDGE_CURVE ( 'NONE', #205, #18, #164, .T. ) ;
#260 = VECTOR ( 'NONE', #66, 1000.000000000000000 ) ;
#261 = DIRECTION ( 'NONE',  ( 0.000000000000000000, 1.000000000000000000, 0.000000000000000000 ) ) ;
#262 = EDGE_CURVE ( 'NONE', #18, #42, #360, .T. ) ;
#263 = VERTEX_POINT ( 'NONE', #43 ) ;
#264 = PLANE ( 'NONE',  #175 ) ;
#265 = ORIENTED_EDGE ( 'NONE', *, *, #495, .F. ) ;
#266 = FACE_BOUND ( 'NONE', #318, .T. ) ;
#267 = AXIS2_PLACEMENT_3D ( 'NONE', #338, #92, #172 ) ;
#268 = CARTESIAN_POINT ( 'NONE',  ( -12.40000000000004121, 3.000000000000000000, -1.600000000000001199 ) ) ;
#269 = ORIENTED_EDGE ( 'NONE', *, *, #161, .F. ) ;
#270 = ADVANCED_FACE ( 'NONE', ( #242 ), #247, .F. ) ;
#271 = LINE ( 'NONE', #145, #149 ) ;
#272 = DIRECTION ( 'NONE',  ( 0.000000000000000000, 1.000000000000000000, 0.000000000000000000 ) ) ;
#273 = CARTESIAN_POINT ( 'NONE',  ( 1.959434878635764984E-16, 3.000000000000000000, -10.79999999999999893 ) ) ;
#274 = EDGE_LOOP ( 'NONE', ( #165, #141, #246, #401 ) ) ;
#275 = ADVANCED_FACE ( 'NONE', ( #400 ), #280, .F. ) ;
#276 = DIRECTION ( 'NONE',  ( 0.000000000000000000, 0.000000000000000000, 1.000000000000000000 ) ) ;
#277 = AXIS2_PLACEMENT_3D ( 'NONE', #152, #305, #117 ) ;
#278 = DIRECTION ( 'NONE',  ( 0.000000000000000000, 1.000000000000000000, 0.000000000000000000 ) ) ;
#279 = ORIENTED_EDGE ( 'NONE', *, *, #156, .F. ) ;
#280 = CYLINDRICAL_SURFACE ( 'NONE', #356, 1.600000000000000089 ) ;
#281 = ORIENTED_EDGE ( 'NONE', *, *, #100, .T. ) ;
#282 = EDGE_CURVE ( 'NONE', #208, #249, #17, .T. ) ;
#283 = DIRECTION ( 'NONE',  ( 0.000000000000000000, 0.000000000000000000, 1.000000000000000000 ) ) ;
#284 = ORIENTED_EDGE ( 'NONE', *, *, #310, .F. ) ;
#285 = EDGE_CURVE ( 'NONE', #490, #26, #421, .T. ) ;
#286 = CARTESIAN_POINT ( 'NONE',  ( -8.632338987647968012E-14, 3.000000000000000000, 14.00000000000000000 ) ) ;
#287 = PRESENTATION_LAYER_ASSIGNMENT (  '', '', ( #108 ) ) ;
#288 = ORIENTED_EDGE ( 'NONE', *, *, #406, .F. ) ;
#289 = ORIENTED_EDGE ( 'NONE', *, *, #382, .F. ) ;
#290 = ORIENTED_EDGE ( 'NONE', *, *, #330, .T. ) ;
#291 = DIRECTION ( 'NONE',  ( 0.000000000000000000, 0.000000000000000000, -1.000000000000000000 ) ) ;
#292 = CARTESIAN_POINT ( 'NONE',  ( 1.212400331155879505E-15, 3.000000000000000000, 9.899999999999998579 ) ) ;
#293 = EDGE_CURVE ( 'NONE', #251, #201, #174, .T. ) ;
#294 = DIRECTION ( 'NONE',  ( 0.000000000000000000, 0.000000000000000000, 1.000000000000000000 ) ) ;
#295 = CARTESIAN_POINT ( 'NONE',  ( 0.000000000000000000, 0.000000000000000000, -14.00000000000000000 ) ) ;
#296 = AXIS2_PLACEMENT_3D ( 'NONE', #375, #317, #24 ) ;
#297 = DIRECTION ( 'NONE',  ( -0.000000000000000000, -1.000000000000000000, -0.000000000000000000 ) ) ;
#298 = EDGE_CURVE ( 'NONE', #131, #42, #237, .T. ) ;
#299 = FILL_AREA_STYLE ('',( #110 ) ) ;
#300 = DIRECTION ( 'NONE',  ( 0.000000000000000000, 0.000000000000000000, 1.000000000000000000 ) ) ;
#301 = CARTESIAN_POINT ( 'NONE',  ( 0.000000000000000000, 3.000000000000000000, 0.000000000000000000 ) ) ;
#302 = FACE_BOUND ( 'NONE', #128, .T. ) ;
#303 = PRODUCT_RELATED_PRODUCT_CATEGORY ( 'part', '', ( #9 ) ) ;
#304 = DIRECTION ( 'NONE',  ( 0.000000000000000000, 0.000000000000000000, 1.000000000000000000 ) ) ;
#305 = DIRECTION ( 'NONE',  ( 0.000000000000000000, 1.000000000000000000, 0.000000000000000000 ) ) ;
#306 = CYLINDRICAL_SURFACE ( 'NONE', #307, 9.899999999999998579 ) ;
#307 = AXIS2_PLACEMENT_3D ( 'NONE', #103, #65, #257 ) ;
#308 = DIRECTION ( 'NONE',  ( 0.000000000000000000, 1.000000000000000000, 0.000000000000000000 ) ) ;
#309 = ORIENTED_EDGE ( 'NONE', *, *, #353, .F. ) ;
#310 = EDGE_CURVE ( 'NONE', #42, #131, #19, .T. ) ;
#311 = DIRECTION ( 'NONE',  ( 0.000000000000000000, -0.000000000000000000, 1.000000000000000000 ) ) ;
#312 = CARTESIAN_POINT ( 'NONE',  ( 0.000000000000000000, 3.000000000000000000, 0.000000000000000000 ) ) ;
#313 = VERTEX_POINT ( 'NONE', #478 ) ;
#314 = AXIS2_PLACEMENT_3D ( 'NONE', #60, #220, #380 ) ;
#315 = CIRCLE ( 'NONE', #116, 9.899999999999998579 ) ;
#316 = AXIS2_PLACEMENT_3D ( 'NONE', #55, #209, #218 ) ;
#317 = DIRECTION ( 'NONE',  ( 0.000000000000000000, 1.000000000000000000, 0.000000000000000000 ) ) ;
#318 = EDGE_LOOP ( 'NONE', ( #198, #409 ) ) ;
#319 = DIRECTION ( 'NONE',  ( 0.000000000000000000, 1.000000000000000000, 0.000000000000000000 ) ) ;
#320 = ORIENTED_EDGE ( 'NONE', *, *, #282, .T. ) ;
#321 = EDGE_CURVE ( 'NONE', #361, #313, #431, .T. ) ;
#322 = CARTESIAN_POINT ( 'NONE',  ( 0.000000000000000000, 3.000000000000000000, -9.899999999999998579 ) ) ;
#323 = ORIENTED_EDGE ( 'NONE', *, *, #167, .T. ) ;
#324 = VECTOR ( 'NONE', #414, 1000.000000000000000 ) ;
#325 = CARTESIAN_POINT ( 'NONE',  ( 0.000000000000000000, 3.000000000000000000, -18.00000000000000000 ) ) ;
#326 = DIRECTION ( 'NONE',  ( 0.000000000000000000, 0.000000000000000000, 1.000000000000000000 ) ) ;
#327 = CIRCLE ( 'NONE', #223, 1.600000000000000755 ) ;
#328 = VERTEX_POINT ( 'NONE', #286 ) ;
#329 = LINE ( 'NONE', #325, #433 ) ;
#330 = EDGE_CURVE ( 'NONE', #208, #22, #146, .T. ) ;
#331 = ORIENTED_EDGE ( 'NONE', *, *, #468, .F. ) ;
#332 =( NAMED_UNIT ( * ) PLANE_ANGLE_UNIT ( ) SI_UNIT ( $, .RADIAN. ) );
#333 = DIRECTION ( 'NONE',  ( 0.000000000000000000, 0.000000000000000000, 1.000000000000000000 ) ) ;
#334 = CARTESIAN_POINT ( 'NONE',  ( 1.212400331155879505E-15, 3.000000000000000000, 9.899999999999998579 ) ) ;
#335 = PRODUCT_CONTEXT ( 'NONE', #76, 'mechanical' ) ;
#336 = ORIENTED_EDGE ( 'NONE', *, *, #293, .T. ) ;
#337 = EDGE_CURVE ( 'NONE', #474, #138, #488, .T. ) ;
#338 = CARTESIAN_POINT ( 'NONE',  ( 0.000000000000000000, 0.000000000000000000, 0.000000000000000000 ) ) ;
#339 = ORIENTED_EDGE ( 'NONE', *, *, #81, .T. ) ;
#340 = SURFACE_SIDE_STYLE ('',( #115 ) ) ;
#341 = LINE ( 'NONE', #57, #260 ) ;
#342 = DIRECTION ( 'NONE',  ( -0.000000000000000000, -1.000000000000000000, -0.000000000000000000 ) ) ;
#343 = AXIS2_PLACEMENT_3D ( 'NONE', #255, #261, #192 ) ;
#344 = DIRECTION ( 'NONE',  ( 0.000000000000000000, 1.000000000000000000, 0.000000000000000000 ) ) ;
#345 = FACE_BOUND ( 'NONE', #82, .T. ) ;
#346 = CARTESIAN_POINT ( 'NONE',  ( -8.651933336434325383E-14, 3.000000000000000000, 12.40000000000000036 ) ) ;
#347 = DIRECTION ( 'NONE',  ( 0.000000000000000000, 0.000000000000000000, 1.000000000000000000 ) ) ;
#348 = FACE_OUTER_BOUND ( 'NONE', #243, .T. ) ;
#349 = ORIENTED_EDGE ( 'NONE', *, *, #330, .F. ) ;
#350 = EDGE_CURVE ( 'NONE', #26, #372, #85, .T. ) ;
#351 = CYLINDRICAL_SURFACE ( 'NONE', #381, 18.00000000000000000 ) ;
#352 = ORIENTED_EDGE ( 'NONE', *, *, #406, .T. ) ;
#353 = EDGE_CURVE ( 'NONE', #201, #251, #438, .T. ) ;
#354 = CYLINDRICAL_SURFACE ( 'NONE', #228, 1.600000000000000755 ) ;
#355 = ORIENTED_EDGE ( 'NONE', *, *, #81, .F. ) ;
#356 = AXIS2_PLACEMENT_3D ( 'NONE', #127, #207, #291 ) ;
#357 = FACE_BOUND ( 'NONE', #398, .T. ) ;
#358 = EDGE_LOOP ( 'NONE', ( #349, #203 ) ) ;
#359 = CIRCLE ( 'NONE', #132, 9.899999999999998579 ) ;
#360 = LINE ( 'NONE', #46, #256 ) ;
#361 = VERTEX_POINT ( 'NONE', #254 ) ;
#362 = SHAPE_DEFINITION_REPRESENTATION ( #154, #79 ) ;
#363 = DIRECTION ( 'NONE',  ( -0.000000000000000000, -1.000000000000000000, -0.000000000000000000 ) ) ;
#364 = ORIENTED_EDGE ( 'NONE', *, *, #40, .T. ) ;
#365 = DIRECTION ( 'NONE',  ( 0.000000000000000000, 0.000000000000000000, 1.000000000000000000 ) ) ;
#366 = AXIS2_PLACEMENT_3D ( 'NONE', #426, #429, #163 ) ;
#367 = AXIS2_PLACEMENT_3D ( 'NONE', #412, #405, #435 ) ;
#368 = ORIENTED_EDGE ( 'NONE', *, *, #48, .T. ) ;
#369 = UNCERTAINTY_MEASURE_WITH_UNIT (LENGTH_MEASURE( 1.000000000000000082E-05 ), #70, 'distance_accuracy_value', 'NONE');
#370 = EDGE_CURVE ( 'NONE', #263, #427, #59, .T. ) ;
#371 = AXIS2_PLACEMENT_3D ( 'NONE', #30, #342, #194 ) ;
#372 = VERTEX_POINT ( 'NONE', #475 ) ;
#373 = ORIENTED_EDGE ( 'NONE', *, *, #321, .T. ) ;
#374 = ORIENTED_EDGE ( 'NONE', *, *, #252, .T. ) ;
#375 = CARTESIAN_POINT ( 'NONE',  ( 0.000000000000000000, 0.000000000000000000, -12.40000000000000036 ) ) ;
#376 = LINE ( 'NONE', #28, #157 ) ;
#377 = CYLINDRICAL_SURFACE ( 'NONE', #371, 1.600000000000000089 ) ;
#378 = CARTESIAN_POINT ( 'NONE',  ( 0.000000000000000000, 3.000000000000000000, -14.00000000000000000 ) ) ;
#379 = DIRECTION ( 'NONE',  ( 0.000000000000000000, 1.000000000000000000, 0.000000000000000000 ) ) ;
#380 = DIRECTION ( 'NONE',  ( 0.000000000000000000, 0.000000000000000000, -1.000000000000000000 ) ) ;
#381 = AXIS2_PLACEMENT_3D ( 'NONE', #80, #41, #462 ) ;
#382 = EDGE_CURVE ( 'NONE', #328, #447, #45, .T. ) ;
#383 = CYLINDRICAL_SURFACE ( 'NONE', #190, 1.600000000000000755 ) ;
#384 = DIRECTION ( 'NONE',  ( -0.000000000000000000, -1.000000000000000000, -0.000000000000000000 ) ) ;
#385 = CYLINDRICAL_SURFACE ( 'NONE', #366, 1.600000000000000089 ) ;
#386 =( NAMED_UNIT ( * ) PLANE_ANGLE_UNIT ( ) SI_UNIT ( $, .RADIAN. ) );
#387 = DIRECTION ( 'NONE',  ( -0.000000000000000000, -1.000000000000000000, -0.000000000000000000 ) ) ;
#388 = ORIENTED_EDGE ( 'NONE', *, *, #428, .F. ) ;
#389 = AXIS2_PLACEMENT_3D ( 'NONE', #130, #15, #326 ) ;
#390 = VECTOR ( 'NONE', #397, 1000.000000000000000 ) ;
#391 = FACE_OUTER_BOUND ( 'NONE', #21, .T. ) ;
#392 = EDGE_CURVE ( 'NONE', #138, #263, #133, .T. ) ;
#393 = CIRCLE ( 'NONE', #229, 1.600000000000000755 ) ;
#394 = CARTESIAN_POINT ( 'NONE',  ( -12.40000000000004121, 3.000000000000000000, 1.599999999999998979 ) ) ;
#395 = DIRECTION ( 'NONE',  ( 0.000000000000000000, 0.000000000000000000, -1.000000000000000000 ) ) ;
#396 = EDGE_LOOP ( 'NONE', ( #374, #16, #217, #4 ) ) ;
#397 = DIRECTION ( 'NONE',  ( -0.000000000000000000, -1.000000000000000000, -0.000000000000000000 ) ) ;
#398 = EDGE_LOOP ( 'NONE', ( #418, #289 ) ) ;
#399 = ADVANCED_FACE ( 'NONE', ( #357, #266, #62, #461, #111, #1 ), #264, .T. ) ;
#400 = FACE_OUTER_BOUND ( 'NONE', #75, .T. ) ;
#401 = ORIENTED_EDGE ( 'NONE', *, *, #444, .F. ) ;
#402 = DIRECTION ( 'NONE',  ( -0.000000000000000000, -1.000000000000000000, -0.000000000000000000 ) ) ;
#403 = DIRECTION ( 'NONE',  ( 0.000000000000000000, 0.000000000000000000, 1.000000000000000000 ) ) ;
#404 = VERTEX_POINT ( 'NONE', #153 ) ;
#405 = DIRECTION ( 'NONE',  ( 0.000000000000000000, 1.000000000000000000, 0.000000000000000000 ) ) ;
#406 = EDGE_CURVE ( 'NONE', #84, #211, #327, .T. ) ;
#407 = ORIENTED_EDGE ( 'NONE', *, *, #282, .F. ) ;
#408 = EDGE_LOOP ( 'NONE', ( #39, #463, #284, #185 ) ) ;
#409 = ORIENTED_EDGE ( 'NONE', *, *, #259, .F. ) ;
#410 = MANIFOLD_SOLID_BREP ( 'Boss-Extrude1', #139 ) ;
#411 = CYLINDRICAL_SURFACE ( 'NONE', #314, 18.00000000000000000 ) ;
#412 = CARTESIAN_POINT ( 'NONE',  ( 0.000000000000000000, 0.000000000000000000, -12.40000000000000036 ) ) ;
#413 = ADVANCED_FACE ( 'NONE', ( #493 ), #377, .F. ) ;
#414 = DIRECTION ( 'NONE',  ( -0.000000000000000000, -1.000000000000000000, -0.000000000000000000 ) ) ;
#415 = AXIS2_PLACEMENT_3D ( 'NONE', #159, #272, #467 ) ;
#416 = LINE ( 'NONE', #224, #135 ) ;
#417 = COLOUR_RGB ( '',0.7921568627450980005, 0.8196078431372548767, 0.9333333333333333481 ) ;
#418 = ORIENTED_EDGE ( 'NONE', *, *, #425, .F. ) ;
#419 =( NAMED_UNIT ( * ) SI_UNIT ( $, .STERADIAN. ) SOLID_ANGLE_UNIT ( ) );
#420 = ORIENTED_EDGE ( 'NONE', *, *, #310, .T. ) ;
#421 = CIRCLE ( 'NONE', #389, 9.899999999999998579 ) ;
#422 = SURFACE_STYLE_USAGE ( .BOTH. , #340 ) ;
#423 = DIRECTION ( 'NONE',  ( 0.000000000000000000, 1.000000000000000000, 0.000000000000000000 ) ) ;
#424 = FACE_OUTER_BOUND ( 'NONE', #240, .T. ) ;
#425 = EDGE_CURVE ( 'NONE', #447, #328, #393, .T. ) ;
#426 = CARTESIAN_POINT ( 'NONE',  ( -12.40000000000004121, 3.000000000000000000, -1.067201882419566285E-15 ) ) ;
#427 = VERTEX_POINT ( 'NONE', #491 ) ;
#428 = EDGE_CURVE ( 'NONE', #313, #201, #271, .T. ) ;
#429 = DIRECTION ( 'NONE',  ( -0.000000000000000000, -1.000000000000000000, -0.000000000000000000 ) ) ;
#430 = ORIENTED_EDGE ( 'NONE', *, *, #259, .T. ) ;
#431 = CIRCLE ( 'NONE', #11, 18.00000000000000000 ) ;
#432 = DIRECTION ( 'NONE',  ( -0.000000000000000000, -1.000000000000000000, -0.000000000000000000 ) ) ;
#433 = VECTOR ( 'NONE', #402, 1000.000000000000000 ) ;
#434 = CYLINDRICAL_SURFACE ( 'NONE', #481, 1.600000000000000089 ) ;
#435 = DIRECTION ( 'NONE',  ( 0.000000000000000000, 0.000000000000000000, 1.000000000000000000 ) ) ;
#436 = ORIENTED_EDGE ( 'NONE', *, *, #252, .F. ) ;
#437 = DIRECTION ( 'NONE',  ( 0.000000000000000000, 1.000000000000000000, 0.000000000000000000 ) ) ;
#438 = CIRCLE ( 'NONE', #267, 18.00000000000000000 ) ;
#439 = AXIS2_PLACEMENT_3D ( 'NONE', #195, #308, #311 ) ;
#440 = ORIENTED_EDGE ( 'NONE', *, *, #298, .T. ) ;
#441 = ADVANCED_FACE ( 'NONE', ( #424 ), #27, .F. ) ;
#442 = DIRECTION ( 'NONE',  ( 0.000000000000000000, 1.000000000000000000, 0.000000000000000000 ) ) ;
#443 = EDGE_LOOP ( 'NONE', ( #323, #169 ) ) ;
#444 = EDGE_CURVE ( 'NONE', #227, #372, #315, .T. ) ;
#445 = EDGE_LOOP ( 'NONE', ( #95, #368, #78, #477 ) ) ;
#446 = AXIS2_PLACEMENT_3D ( 'NONE', #204, #221, #365 ) ;
#447 = VERTEX_POINT ( 'NONE', #186 ) ;
#448 =( LENGTH_UNIT ( ) NAMED_UNIT ( * ) SI_UNIT ( .MILLI., .METRE. ) );
#449 = EDGE_CURVE ( 'NONE', #447, #84, #464, .T. ) ;
#450 = CARTESIAN_POINT ( 'NONE',  ( 12.40000000000000036, 3.000000000000000000, 4.336808689942017736E-14 ) ) ;
#451 = CARTESIAN_POINT ( 'NONE',  ( 0.000000000000000000, 0.000000000000000000, 0.000000000000000000 ) ) ;
#452 = CARTESIAN_POINT ( 'NONE',  ( -8.651933336434325383E-14, 3.000000000000000000, 12.40000000000000036 ) ) ;
#453 = DIRECTION ( 'NONE',  ( -0.000000000000000000, -1.000000000000000000, -0.000000000000000000 ) ) ;
#454 = AXIS2_PLACEMENT_3D ( 'NONE', #51, #20, #168 ) ;
#455 = CIRCLE ( 'NONE', #2, 1.600000000000000755 ) ;
#456 = ADVANCED_FACE ( 'NONE', ( #158 ), #306, .F. ) ;
#457 = CARTESIAN_POINT ( 'NONE',  ( -8.632338987647968012E-14, 3.000000000000000000, 14.00000000000000000 ) ) ;
#458 =( GEOMETRIC_REPRESENTATION_CONTEXT ( 3 ) GLOBAL_UNCERTAINTY_ASSIGNED_CONTEXT ( ( #178 ) ) GLOBAL_UNIT_ASSIGNED_CONTEXT ( ( #448, #332, #88 ) ) REPRESENTATION_CONTEXT ( 'NONE', 'WORKASPACE' ) );
#459 = PRESENTATION_STYLE_ASSIGNMENT (( #422 ) ) ;
#460 = EDGE_LOOP ( 'NONE', ( #219, #309 ) ) ;
#461 = FACE_BOUND ( 'NONE', #96, .T. ) ;
#462 = DIRECTION ( 'NONE',  ( 0.000000000000000000, 0.000000000000000000, -1.000000000000000000 ) ) ;
#463 = ORIENTED_EDGE ( 'NONE', *, *, #468, .T. ) ;
#464 = LINE ( 'NONE', #189, #25 ) ;
#465 = DIRECTION ( 'NONE',  ( -0.000000000000000000, -1.000000000000000000, -0.000000000000000000 ) ) ;
#466 = DIRECTION ( 'NONE',  ( 0.000000000000000000, 0.000000000000000000, -1.000000000000000000 ) ) ;
#467 = DIRECTION ( 'NONE',  ( 0.000000000000000000, 0.000000000000000000, 1.000000000000000000 ) ) ;
#468 = EDGE_CURVE ( 'NONE', #205, #131, #416, .T. ) ;
#469 = CARTESIAN_POINT ( 'NONE',  ( 2.204364238465235428E-15, 0.000000000000000000, 18.00000000000000000 ) ) ;
#470 = ORIENTED_EDGE ( 'NONE', *, *, #382, .T. ) ;
#471 = DIRECTION ( 'NONE',  ( 0.000000000000000000, 1.000000000000000000, 0.000000000000000000 ) ) ;
#472 = ORIENTED_EDGE ( 'NONE', *, *, #392, .T. ) ;
#473 = CARTESIAN_POINT ( 'NONE',  ( 0.000000000000000000, 3.000000000000000000, 0.000000000000000000 ) ) ;
#474 = VERTEX_POINT ( 'NONE', #394 ) ;
#475 = CARTESIAN_POINT ( 'NONE',  ( 0.000000000000000000, 0.000000000000000000, -9.899999999999998579 ) ) ;
#476 = AXIS2_PLACEMENT_3D ( 'NONE', #245, #471, #403 ) ;
#477 = ORIENTED_EDGE ( 'NONE', *, *, #350, .F. ) ;
#478 = CARTESIAN_POINT ( 'NONE',  ( 2.204364238465235428E-15, 3.000000000000000000, 18.00000000000000000 ) ) ;
#479 = EDGE_LOOP ( 'NONE', ( #177, #480 ) ) ;
#480 = ORIENTED_EDGE ( 'NONE', *, *, #444, .T. ) ;
#481 = AXIS2_PLACEMENT_3D ( 'NONE', #83, #387, #466 ) ;
#482 = DIRECTION ( 'NONE',  ( -0.000000000000000000, -1.000000000000000000, -0.000000000000000000 ) ) ;
#483 = APPLICATION_PROTOCOL_DEFINITION ( 'draft international standard', 'automotive_design', 1998, #126 ) ;
#484 = CARTESIAN_POINT ( 'NONE',  ( 12.40000000000000036, 3.000000000000000000, 4.336808689942017736E-14 ) ) ;
#485 = DIRECTION ( 'NONE',  ( -0.000000000000000000, -1.000000000000000000, -0.000000000000000000 ) ) ;
#486 = ORIENTED_EDGE ( 'NONE', *, *, #337, .F. ) ;
#487 = DIRECTION ( 'NONE',  ( -0.000000000000000000, -1.000000000000000000, -0.000000000000000000 ) ) ;
#488 = CIRCLE ( 'NONE', #476, 1.600000000000000089 ) ;
#489 = DIRECTION ( 'NONE',  ( 0.000000000000000000, 1.000000000000000000, 0.000000000000000000 ) ) ;
#490 = VERTEX_POINT ( 'NONE', #334 ) ;
#491 = CARTESIAN_POINT ( 'NONE',  ( -12.40000000000004121, 0.000000000000000000, 1.599999999999998979 ) ) ;
#492 = DIRECTION ( 'NONE',  ( -0.000000000000000000, -1.000000000000000000, -0.000000000000000000 ) ) ;
#493 = FACE_OUTER_BOUND ( 'NONE', #93, .T. ) ;
#494 = CARTESIAN_POINT ( 'NONE',  ( 12.40000000000000036, 3.000000000000000000, -1.599999999999956790 ) ) ;
#495 = EDGE_CURVE ( 'NONE', #361, #251, #329, .T. ) ;
ENDSEC;
END-ISO-10303-21;
