ISO-10303-21;
HEADER;
FILE_DESCRIPTION (( 'STEP AP214' ),
    '1' );
FILE_NAME ('camera_cover.STEP',
    '2026-05-15T08:59:04',
    ( '' ),
    ( '' ),
    'SwSTEP 2.0',
    'SolidWorks 2024',
    '' );
FILE_SCHEMA (( 'AUTOMOTIVE_DESIGN' ));
ENDSEC;

DATA;
#1 = ORIENTED_EDGE ( 'NONE', *, *, #95, .F. ) ;
#2 = DIRECTION ( 'NONE',  ( 1.000000000000000000, 0.000000000000000000, 0.000000000000000000 ) ) ;
#3 = EDGE_LOOP ( 'NONE', ( #304, #573 ) ) ;
#4 = ORIENTED_EDGE ( 'NONE', *, *, #74, .T. ) ;
#5 = CARTESIAN_POINT ( 'NONE',  ( -39.89999999999999147, 10.92893218813452627, 3.000000000000000000 ) ) ;
#6 = ORIENTED_EDGE ( 'NONE', *, *, #109, .T. ) ;
#7 = LINE ( 'NONE', #967, #769 ) ;
#8 = ORIENTED_EDGE ( 'NONE', *, *, #843, .T. ) ;
#9 = LINE ( 'NONE', #540, #129 ) ;
#10 = ADVANCED_FACE ( 'NONE', ( #490 ), #108, .T. ) ;
#11 = PRESENTATION_LAYER_ASSIGNMENT (  '', '', ( #679 ) ) ;
#12 = CARTESIAN_POINT ( 'NONE',  ( -34.89999999999999147, -10.92893218813451384, 3.000000000000000000 ) ) ;
#13 = VECTOR ( 'NONE', #60, 1000.000000000000000 ) ;
#14 = AXIS2_PLACEMENT_3D ( 'NONE', #901, #535, #824 ) ;
#15 = FACE_OUTER_BOUND ( 'NONE', #956, .T. ) ;
#16 = ORIENTED_EDGE ( 'NONE', *, *, #424, .F. ) ;
#17 = PRODUCT_DEFINITION_CONTEXT ( 'detailed design', #347, 'design' ) ;
#18 = DIRECTION ( 'NONE',  ( 0.000000000000000000, 0.000000000000000000, 1.000000000000000000 ) ) ;
#19 = ADVANCED_FACE ( 'NONE', ( #28 ), #859, .T. ) ;
#20 = DIRECTION ( 'NONE',  ( -1.000000000000000000, 0.000000000000000000, 0.000000000000000000 ) ) ;
#21 = ORIENTED_EDGE ( 'NONE', *, *, #792, .F. ) ;
#22 = CARTESIAN_POINT ( 'NONE',  ( -37.82893218813451597, -15.07106781186547018, 3.000000000000000000 ) ) ;
#23 = DIRECTION ( 'NONE',  ( -0.000000000000000000, -1.000000000000000000, -0.000000000000000000 ) ) ;
#24 = ORIENTED_EDGE ( 'NONE', *, *, #470, .T. ) ;
#25 = PLANE ( 'NONE',  #210 ) ;
#26 = DIRECTION ( 'NONE',  ( -0.000000000000000000, -0.000000000000000000, -1.000000000000000000 ) ) ;
#27 = VECTOR ( 'NONE', #49, 1000.000000000000000 ) ;
#28 = FACE_OUTER_BOUND ( 'NONE', #500, .T. ) ;
#29 = VECTOR ( 'NONE', #554, 1000.000000000000000 ) ;
#30 = DIRECTION ( 'NONE',  ( 0.000000000000000000, 0.000000000000000000, 1.000000000000000000 ) ) ;
#31 = EDGE_CURVE ( 'NONE', #813, #852, #627, .T. ) ;
#32 = VERTEX_POINT ( 'NONE', #783 ) ;
#33 = DIRECTION ( 'NONE',  ( -1.000000000000000000, 0.000000000000000000, 0.000000000000000000 ) ) ;
#34 = DIRECTION ( 'NONE',  ( -0.000000000000000000, -0.000000000000000000, -1.000000000000000000 ) ) ;
#35 = LINE ( 'NONE', #851, #695 ) ;
#36 = EDGE_LOOP ( 'NONE', ( #192, #170, #553, #860 ) ) ;
#37 = DIRECTION ( 'NONE',  ( -0.000000000000000000, -0.000000000000000000, 1.000000000000000000 ) ) ;
#38 = ORIENTED_EDGE ( 'NONE', *, *, #685, .T. ) ;
#39 = CARTESIAN_POINT ( 'NONE',  ( -38.43553390593272923, 14.46446609406726225, 3.000000000000000000 ) ) ;
#40 = ORIENTED_EDGE ( 'NONE', *, *, #739, .F. ) ;
#41 = LINE ( 'NONE', #268, #754 ) ;
#42 = CIRCLE ( 'NONE', #662, 1.749999999999980682 ) ;
#43 = VECTOR ( 'NONE', #26, 1000.000000000000000 ) ;
#44 = LINE ( 'NONE', #802, #738 ) ;
#45 = VECTOR ( 'NONE', #819, 1000.000000000000000 ) ;
#46 = APPLICATION_CONTEXT ( 'automotive_design' ) ;
#47 = ORIENTED_EDGE ( 'NONE', *, *, #456, .T. ) ;
#48 = CARTESIAN_POINT ( 'NONE',  ( -32.82893218813451597, 13.00000000000000711, 3.000000000000000000 ) ) ;
#49 = DIRECTION ( 'NONE',  ( 1.000000000000000000, -1.294569758191648388E-16, 0.000000000000000000 ) ) ;
#50 = ORIENTED_EDGE ( 'NONE', *, *, #699, .F. ) ;
#51 = EDGE_CURVE ( 'NONE', #160, #858, #41, .T. ) ;
#52 = EDGE_LOOP ( 'NONE', ( #47, #861, #314, #485 ) ) ;
#53 = DIRECTION ( 'NONE',  ( 1.000000000000000000, 0.000000000000000000, 0.000000000000000000 ) ) ;
#54 = DIRECTION ( 'NONE',  ( -1.000000000000000000, 0.000000000000000000, 0.000000000000000000 ) ) ;
#55 = CARTESIAN_POINT ( 'NONE',  ( -33.00000000000000000, -13.50000000000000178, 0.000000000000000000 ) ) ;
#56 = EDGE_CURVE ( 'NONE', #392, #160, #927, .T. ) ;
#57 = LINE ( 'NONE', #869, #270 ) ;
#58 = VERTEX_POINT ( 'NONE', #197 ) ;
#59 = CARTESIAN_POINT ( 'NONE',  ( -30.75786437626904046, -17.99999999999999289, 3.000000000000000000 ) ) ;
#60 = DIRECTION ( 'NONE',  ( -0.000000000000000000, -0.000000000000000000, -1.000000000000000000 ) ) ;
#61 = CARTESIAN_POINT ( 'NONE',  ( 32.82893218813453018, 13.00000000000000000, 3.000000000000000000 ) ) ;
#62 = AXIS2_PLACEMENT_3D ( 'NONE', #354, #360, #680 ) ;
#63 = CIRCLE ( 'NONE', #551, 4.999999999999997335 ) ;
#64 = ADVANCED_FACE ( 'NONE', ( #119 ), #418, .F. ) ;
#65 = VECTOR ( 'NONE', #432, 1000.000000000000114 ) ;
#66 = DIRECTION ( 'NONE',  ( 1.000000000000000000, 0.000000000000000000, -0.000000000000000000 ) ) ;
#67 = FILL_AREA_STYLE ('',( #801 ) ) ;
#68 = ORIENTED_EDGE ( 'NONE', *, *, #385, .T. ) ;
#69 = DIRECTION ( 'NONE',  ( 0.7071067811865475727, -0.7071067811865475727, 0.000000000000000000 ) ) ;
#70 = LINE ( 'NONE', #673, #115 ) ;
#71 = LINE ( 'NONE', #370, #209 ) ;
#72 = ORIENTED_EDGE ( 'NONE', *, *, #606, .F. ) ;
#73 = CARTESIAN_POINT ( 'NONE',  ( -31.07893218813451242, 13.00000000000000711, 3.000000000000000000 ) ) ;
#74 = EDGE_CURVE ( 'NONE', #280, #127, #580, .T. ) ;
#75 = DIRECTION ( 'NONE',  ( 0.000000000000000000, 0.000000000000000000, 1.000000000000000000 ) ) ;
#76 = AXIS2_PLACEMENT_3D ( 'NONE', #275, #327, #114 ) ;
#77 = EDGE_LOOP ( 'NONE', ( #179, #259, #678, #563, #376, #380, #21, #613, #823, #50, #84, #778, #654, #616, #533, #200 ) ) ;
#78 = CARTESIAN_POINT ( 'NONE',  ( 32.82893218813453728, 18.00000000000000000, 3.000000000000000000 ) ) ;
#79 = CIRCLE ( 'NONE', #267, 1.750000000000001554 ) ;
#80 = AXIS2_PLACEMENT_3D ( 'NONE', #528, #804, #450 ) ;
#81 = ORIENTED_EDGE ( 'NONE', *, *, #575, .T. ) ;
#82 = DIRECTION ( 'NONE',  ( 1.000000000000000000, 0.000000000000000000, 0.000000000000000000 ) ) ;
#83 = EDGE_CURVE ( 'NONE', #255, #702, #537, .T. ) ;
#84 = ORIENTED_EDGE ( 'NONE', *, *, #599, .F. ) ;
#85 = CARTESIAN_POINT ( 'NONE',  ( 10.00000000000000000, 1.224646799147353256E-15, 3.000000000000000000 ) ) ;
#86 = ORIENTED_EDGE ( 'NONE', *, *, #641, .T. ) ;
#87 = LINE ( 'NONE', #544, #870 ) ;
#88 = ADVANCED_FACE ( 'NONE', ( #942 ), #664, .F. ) ;
#89 = ORIENTED_EDGE ( 'NONE', *, *, #242, .F. ) ;
#90 = CARTESIAN_POINT ( 'NONE',  ( 32.82893218813453018, 13.00000000000000000, 3.000000000000000000 ) ) ;
#91 = ORIENTED_EDGE ( 'NONE', *, *, #424, .T. ) ;
#92 = DIRECTION ( 'NONE',  ( -0.000000000000000000, -0.000000000000000000, -1.000000000000000000 ) ) ;
#93 = CARTESIAN_POINT ( 'NONE',  ( 31.07893218813454794, 13.00000000000000000, 3.000000000000000000 ) ) ;
#94 = ORIENTED_EDGE ( 'NONE', *, *, #167, .T. ) ;
#95 = EDGE_CURVE ( 'NONE', #902, #806, #113, .T. ) ;
#96 = AXIS2_PLACEMENT_3D ( 'NONE', #915, #103, #168 ) ;
#97 = VECTOR ( 'NONE', #37, 1000.000000000000000 ) ;
#98 = AXIS2_PLACEMENT_3D ( 'NONE', #954, #445, #54 ) ;
#99 = EDGE_CURVE ( 'NONE', #105, #367, #669, .T. ) ;
#100 = DIRECTION ( 'NONE',  ( -0.000000000000000000, -0.000000000000000000, -1.000000000000000000 ) ) ;
#101 = VERTEX_POINT ( 'NONE', #875 ) ;
#102 = DIRECTION ( 'NONE',  ( 0.000000000000000000, 0.000000000000000000, 1.000000000000000000 ) ) ;
#103 = DIRECTION ( 'NONE',  ( 0.000000000000000000, 0.000000000000000000, 1.000000000000000000 ) ) ;
#104 = DIRECTION ( 'NONE',  ( 0.000000000000000000, 0.000000000000000000, 1.000000000000000000 ) ) ;
#105 = VERTEX_POINT ( 'NONE', #136 ) ;
#106 = CARTESIAN_POINT ( 'NONE',  ( -34.57893218813451597, 13.00000000000000711, 3.000000000000000000 ) ) ;
#107 = CARTESIAN_POINT ( 'NONE',  ( 38.43553390593273633, -14.46446609406725692, 3.000000000000000000 ) ) ;
#108 = CYLINDRICAL_SURFACE ( 'NONE', #341, 4.999999999999997335 ) ;
#109 = EDGE_CURVE ( 'NONE', #744, #604, #436, .T. ) ;
#110 = LINE ( 'NONE', #625, #525 ) ;
#111 = ORIENTED_EDGE ( 'NONE', *, *, #99, .F. ) ;
#112 = CARTESIAN_POINT ( 'NONE',  ( -36.36446609406725372, 16.53553390593274486, 3.000000000000000000 ) ) ;
#113 = CIRCLE ( 'NONE', #472, 1.750000000000005107 ) ;
#114 = DIRECTION ( 'NONE',  ( -1.000000000000000000, 0.000000000000000000, 0.000000000000000000 ) ) ;
#115 = VECTOR ( 'NONE', #903, 1000.000000000000114 ) ;
#116 = DIRECTION ( 'NONE',  ( -0.000000000000000000, -0.000000000000000000, -1.000000000000000000 ) ) ;
#117 = ORIENTED_EDGE ( 'NONE', *, *, #222, .F. ) ;
#118 = DIRECTION ( 'NONE',  ( 1.000000000000000000, 0.000000000000000000, 0.000000000000000000 ) ) ;
#119 = FACE_OUTER_BOUND ( 'NONE', #415, .T. ) ;
#120 = EDGE_CURVE ( 'NONE', #223, #32, #588, .T. ) ;
#121 = LINE ( 'NONE', #846, #647 ) ;
#122 = ORIENTED_EDGE ( 'NONE', *, *, #328, .T. ) ;
#123 = DIRECTION ( 'NONE',  ( 1.000000000000000000, 0.000000000000000000, 0.000000000000000000 ) ) ;
#124 = DIRECTION ( 'NONE',  ( -0.7071067811865474617, -0.7071067811865474617, -0.000000000000000000 ) ) ;
#125 = EDGE_CURVE ( 'NONE', #868, #392, #323, .T. ) ;
#126 = CARTESIAN_POINT ( 'NONE',  ( 10.00000000000000000, 1.224646799147353256E-15, 3.000000000000000000 ) ) ;
#127 = VERTEX_POINT ( 'NONE', #227 ) ;
#128 = AXIS2_PLACEMENT_3D ( 'NONE', #61, #140, #287 ) ;
#129 = VECTOR ( 'NONE', #303, 1000.000000000000000 ) ;
#130 = AXIS2_PLACEMENT_3D ( 'NONE', #178, #334, #637 ) ;
#131 = ORIENTED_EDGE ( 'NONE', *, *, #320, .T. ) ;
#132 = DIRECTION ( 'NONE',  ( -0.000000000000000000, -0.000000000000000000, -1.000000000000000000 ) ) ;
#133 = VERTEX_POINT ( 'NONE', #743 ) ;
#134 = LINE ( 'NONE', #579, #905 ) ;
#135 = DIRECTION ( 'NONE',  ( 1.000000000000000000, 0.000000000000000000, 0.000000000000000000 ) ) ;
#136 = CARTESIAN_POINT ( 'NONE',  ( -10.00000000000000000, 0.000000000000000000, 3.000000000000000000 ) ) ;
#137 = EDGE_CURVE ( 'NONE', #850, #590, #181, .T. ) ;
#138 = ORIENTED_EDGE ( 'NONE', *, *, #909, .F. ) ;
#139 = PLANE ( 'NONE',  #221 ) ;
#140 = DIRECTION ( 'NONE',  ( -0.000000000000000000, -0.000000000000000000, -1.000000000000000000 ) ) ;
#141 = PRODUCT_RELATED_PRODUCT_CATEGORY ( 'part', '', ( #330 ) ) ;
#142 = AXIS2_PLACEMENT_3D ( 'NONE', #633, #483, #923 ) ;
#143 = MECHANICAL_DESIGN_GEOMETRIC_PRESENTATION_REPRESENTATION (  '', ( #679 ), #371 ) ;
#144 = VERTEX_POINT ( 'NONE', #522 ) ;
#145 = VECTOR ( 'NONE', #645, 1000.000000000000000 ) ;
#146 = PRODUCT_DEFINITION_FORMATION_WITH_SPECIFIED_SOURCE ( 'ANY', '', #330, .NOT_KNOWN. ) ;
#147 = FACE_OUTER_BOUND ( 'NONE', #626, .T. ) ;
#148 = EDGE_CURVE ( 'NONE', #439, #642, #42, .T. ) ;
#149 = ORIENTED_EDGE ( 'NONE', *, *, #366, .F. ) ;
#150 = CARTESIAN_POINT ( 'NONE',  ( 39.89999999999999858, -10.92893218813452272, 3.000000000000000000 ) ) ;
#151 = ORIENTED_EDGE ( 'NONE', *, *, #186, .F. ) ;
#152 = EDGE_CURVE ( 'NONE', #716, #144, #614, .T. ) ;
#153 = CARTESIAN_POINT ( 'NONE',  ( 30.75786437626905112, -8.000000000000001776, 3.000000000000000000 ) ) ;
#154 = DIRECTION ( 'NONE',  ( -0.000000000000000000, -0.000000000000000000, -1.000000000000000000 ) ) ;
#155 = ORIENTED_EDGE ( 'NONE', *, *, #56, .T. ) ;
#156 = CARTESIAN_POINT ( 'NONE',  ( 39.90000000000000568, 10.92893218813450673, 0.000000000000000000 ) ) ;
#157 = ORIENTED_EDGE ( 'NONE', *, *, #125, .F. ) ;
#158 = ADVANCED_FACE ( 'NONE', ( #891 ), #518, .F. ) ;
#159 = AXIS2_PLACEMENT_3D ( 'NONE', #422, #719, #649 ) ;
#160 = VERTEX_POINT ( 'NONE', #880 ) ;
#161 = FACE_OUTER_BOUND ( 'NONE', #894, .T. ) ;
#162 = AXIS2_PLACEMENT_3D ( 'NONE', #12, #700, #312 ) ;
#163 = CIRCLE ( 'NONE', #839, 1.750000000000001554 ) ;
#164 = ORIENTED_EDGE ( 'NONE', *, *, #385, .F. ) ;
#165 = FACE_OUTER_BOUND ( 'NONE', #698, .T. ) ;
#166 = AXIS2_PLACEMENT_3D ( 'NONE', #448, #460, #171 ) ;
#167 = EDGE_CURVE ( 'NONE', #243, #604, #217, .T. ) ;
#168 = DIRECTION ( 'NONE',  ( 1.000000000000000000, 0.000000000000000000, 0.000000000000000000 ) ) ;
#169 = MANIFOLD_SOLID_BREP ( 'Fillet1', #389 ) ;
#170 = ORIENTED_EDGE ( 'NONE', *, *, #948, .F. ) ;
#171 = DIRECTION ( 'NONE',  ( 1.000000000000000000, 0.000000000000000000, 0.000000000000000000 ) ) ;
#172 = ORIENTED_EDGE ( 'NONE', *, *, #762, .T. ) ;
#173 = DIRECTION ( 'NONE',  ( -0.000000000000000000, -0.000000000000000000, -1.000000000000000000 ) ) ;
#174 = EDGE_CURVE ( 'NONE', #850, #925, #71, .T. ) ;
#175 = DIRECTION ( 'NONE',  ( -0.000000000000000000, -0.000000000000000000, -1.000000000000000000 ) ) ;
#176 = EDGE_LOOP ( 'NONE', ( #913, #534, #459, #257 ) ) ;
#177 = EDGE_CURVE ( 'NONE', #780, #622, #79, .T. ) ;
#178 = CARTESIAN_POINT ( 'NONE',  ( 30.75786437626905112, -8.000000000000001776, 3.000000000000000000 ) ) ;
#179 = ORIENTED_EDGE ( 'NONE', *, *, #952, .F. ) ;
#180 = CYLINDRICAL_SURFACE ( 'NONE', #568, 4.999999999999997335 ) ;
#181 = CIRCLE ( 'NONE', #933, 1.749999999999991118 ) ;
#182 = CIRCLE ( 'NONE', #80, 4.999999999999997335 ) ;
#183 = AXIS2_PLACEMENT_3D ( 'NONE', #390, #832, #760 ) ;
#184 = DIRECTION ( 'NONE',  ( -0.000000000000000000, -0.000000000000000000, -1.000000000000000000 ) ) ;
#185 = ORIENTED_EDGE ( 'NONE', *, *, #612, .F. ) ;
#186 = EDGE_CURVE ( 'NONE', #243, #671, #521, .T. ) ;
#187 = CARTESIAN_POINT ( 'NONE',  ( -32.82893218813451597, 18.00000000000000711, 3.000000000000000000 ) ) ;
#188 = EDGE_LOOP ( 'NONE', ( #293, #842 ) ) ;
#189 = CARTESIAN_POINT ( 'NONE',  ( -32.82893218813451597, 13.00000000000000711, 3.000000000000000000 ) ) ;
#190 = ORIENTED_EDGE ( 'NONE', *, *, #242, .T. ) ;
#191 = DIRECTION ( 'NONE',  ( -1.000000000000000000, 0.000000000000000000, 0.000000000000000000 ) ) ;
#192 = ORIENTED_EDGE ( 'NONE', *, *, #599, .T. ) ;
#193 = FACE_OUTER_BOUND ( 'NONE', #966, .T. ) ;
#194 = EDGE_LOOP ( 'NONE', ( #68, #4 ) ) ;
#195 = FACE_OUTER_BOUND ( 'NONE', #453, .T. ) ;
#196 = EDGE_CURVE ( 'NONE', #481, #133, #463, .T. ) ;
#197 = CARTESIAN_POINT ( 'NONE',  ( 38.43553390593273633, -14.46446609406725692, 0.000000000000000000 ) ) ;
#198 = AXIS2_PLACEMENT_3D ( 'NONE', #742, #730, #352 ) ;
#199 = CIRCLE ( 'NONE', #569, 4.999999999999997335 ) ;
#200 = ORIENTED_EDGE ( 'NONE', *, *, #414, .F. ) ;
#201 = CARTESIAN_POINT ( 'NONE',  ( 36.36446609406726793, 16.53553390593273775, 3.000000000000000000 ) ) ;
#202 = DIRECTION ( 'NONE',  ( -0.7071067811865480168, 0.7071067811865470176, 0.000000000000000000 ) ) ;
#203 = CARTESIAN_POINT ( 'NONE',  ( -33.00000000000000000, -13.50000000000000178, 3.000000000000000000 ) ) ;
#204 = ORIENTED_EDGE ( 'NONE', *, *, #394, .T. ) ;
#205 = CARTESIAN_POINT ( 'NONE',  ( -38.43553390593272923, -14.46446609406725337, 3.000000000000000000 ) ) ;
#206 = ORIENTED_EDGE ( 'NONE', *, *, #196, .F. ) ;
#207 = DIRECTION ( 'NONE',  ( 1.000000000000000000, 0.000000000000000000, 0.000000000000000000 ) ) ;
#208 = VERTEX_POINT ( 'NONE', #822 ) ;
#209 = VECTOR ( 'NONE', #301, 1000.000000000000000 ) ;
#210 = AXIS2_PLACEMENT_3D ( 'NONE', #781, #844, #256 ) ;
#211 =( NAMED_UNIT ( * ) SI_UNIT ( $, .STERADIAN. ) SOLID_ANGLE_UNIT ( ) );
#212 = VECTOR ( 'NONE', #715, 1000.000000000000000 ) ;
#213 = DIRECTION ( 'NONE',  ( 0.000000000000000000, 0.000000000000000000, -1.000000000000000000 ) ) ;
#214 = CARTESIAN_POINT ( 'NONE',  ( 32.82893218813453018, 13.00000000000000000, 3.000000000000000000 ) ) ;
#215 = DIRECTION ( 'NONE',  ( 0.000000000000000000, 0.000000000000000000, 1.000000000000000000 ) ) ;
#216 = FACE_BOUND ( 'NONE', #3, .T. ) ;
#217 = LINE ( 'NONE', #441, #965 ) ;
#218 = CARTESIAN_POINT ( 'NONE',  ( 30.75786437626905112, -8.000000000000001776, 0.000000000000000000 ) ) ;
#219 = CARTESIAN_POINT ( 'NONE',  ( 30.75786437626901915, -18.00000000000000000, 3.000000000000000000 ) ) ;
#220 = AXIS2_PLACEMENT_3D ( 'NONE', #384, #398, #455 ) ;
#221 = AXIS2_PLACEMENT_3D ( 'NONE', #440, #735, #66 ) ;
#222 = EDGE_CURVE ( 'NONE', #289, #105, #734, .T. ) ;
#223 = VERTEX_POINT ( 'NONE', #388 ) ;
#224 = AXIS2_PLACEMENT_3D ( 'NONE', #775, #104, #771 ) ;
#225 = AXIS2_PLACEMENT_3D ( 'NONE', #306, #617, #313 ) ;
#226 = ORIENTED_EDGE ( 'NONE', *, *, #174, .T. ) ;
#227 = CARTESIAN_POINT ( 'NONE',  ( -34.57893218813451597, 13.00000000000000711, 0.000000000000000000 ) ) ;
#228 = EDGE_LOOP ( 'NONE', ( #790, #117 ) ) ;
#229 = DIRECTION ( 'NONE',  ( -0.000000000000000000, -0.000000000000000000, -1.000000000000000000 ) ) ;
#230 = EDGE_CURVE ( 'NONE', #502, #744, #87, .T. ) ;
#231 = CARTESIAN_POINT ( 'NONE',  ( 36.36446609406726793, 16.53553390593273775, 0.000000000000000000 ) ) ;
#232 = ORIENTED_EDGE ( 'NONE', *, *, #51, .T. ) ;
#233 = LINE ( 'NONE', #767, #375 ) ;
#234 = ADVANCED_FACE ( 'NONE', ( #244 ), #756, .T. ) ;
#235 = EDGE_LOOP ( 'NONE', ( #6, #433, #660, #386 ) ) ;
#236 = CARTESIAN_POINT ( 'NONE',  ( 34.90000000000000568, 10.92893218813451561, 0.000000000000000000 ) ) ;
#237 = ORIENTED_EDGE ( 'NONE', *, *, #222, .T. ) ;
#238 = DIRECTION ( 'NONE',  ( -0.000000000000000000, -0.000000000000000000, -1.000000000000000000 ) ) ;
#239 = VECTOR ( 'NONE', #789, 999.9999999999998863 ) ;
#240 = CIRCLE ( 'NONE', #872, 10.00000000000000000 ) ;
#241 = CYLINDRICAL_SURFACE ( 'NONE', #840, 4.999999999999997335 ) ;
#242 = EDGE_CURVE ( 'NONE', #570, #297, #910, .T. ) ;
#243 = VERTEX_POINT ( 'NONE', #201 ) ;
#244 = FACE_OUTER_BOUND ( 'NONE', #305, .T. ) ;
#245 = CARTESIAN_POINT ( 'NONE',  ( 0.000000000000000000, 0.000000000000000000, 0.000000000000000000 ) ) ;
#246 = ORIENTED_EDGE ( 'NONE', *, *, #137, .F. ) ;
#247 = EDGE_CURVE ( 'NONE', #590, #850, #705, .T. ) ;
#248 = DIRECTION ( 'NONE',  ( -0.000000000000000000, -0.000000000000000000, -1.000000000000000000 ) ) ;
#249 = ORIENTED_EDGE ( 'NONE', *, *, #414, .T. ) ;
#250 = CIRCLE ( 'NONE', #812, 10.00000000000000178 ) ;
#251 = LINE ( 'NONE', #703, #43 ) ;
#252 = ORIENTED_EDGE ( 'NONE', *, *, #495, .F. ) ;
#253 = LINE ( 'NONE', #548, #212 ) ;
#254 = PRODUCT_DEFINITION_SHAPE ( 'NONE', 'NONE',  #930 ) ;
#255 = VERTEX_POINT ( 'NONE', #107 ) ;
#256 = DIRECTION ( 'NONE',  ( 0.000000000000000000, 0.000000000000000000, -1.000000000000000000 ) ) ;
#257 = ORIENTED_EDGE ( 'NONE', *, *, #748, .T. ) ;
#258 = CYLINDRICAL_SURFACE ( 'NONE', #130, 9.999999999999998224 ) ;
#259 = ORIENTED_EDGE ( 'NONE', *, *, #943, .T. ) ;
#260 = DIRECTION ( 'NONE',  ( 0.7071067811865475727, 0.7071067811865475727, -0.000000000000000000 ) ) ;
#261 = EDGE_CURVE ( 'NONE', #502, #243, #478, .T. ) ;
#262 = CARTESIAN_POINT ( 'NONE',  ( -39.89999999999999147, -10.92893218813451561, 3.000000000000000000 ) ) ;
#263 = CARTESIAN_POINT ( 'NONE',  ( 34.90000000000000568, 10.92893218813451561, 3.000000000000000000 ) ) ;
#264 = ORIENTED_EDGE ( 'NONE', *, *, #909, .T. ) ;
#265 = VECTOR ( 'NONE', #855, 1000.000000000000000 ) ;
#266 = LINE ( 'NONE', #325, #372 ) ;
#267 = AXIS2_PLACEMENT_3D ( 'NONE', #609, #378, #624 ) ;
#268 = CARTESIAN_POINT ( 'NONE',  ( -39.89999999999999147, -10.92893218813451561, 3.000000000000000000 ) ) ;
#269 = ADVANCED_FACE ( 'NONE', ( #274 ), #572, .F. ) ;
#270 = VECTOR ( 'NONE', #666, 1000.000000000000000 ) ;
#271 = DIRECTION ( 'NONE',  ( 0.000000000000000000, 0.000000000000000000, 1.000000000000000000 ) ) ;
#272 = ORIENTED_EDGE ( 'NONE', *, *, #290, .T. ) ;
#273 = CARTESIAN_POINT ( 'NONE',  ( 32.82893218813453728, 18.00000000000000000, 0.000000000000000000 ) ) ;
#274 = FACE_OUTER_BOUND ( 'NONE', #36, .T. ) ;
#275 = CARTESIAN_POINT ( 'NONE',  ( -30.75786437626904046, -7.999999999999992895, 3.000000000000000000 ) ) ;
#276 = SHAPE_DEFINITION_REPRESENTATION ( #254, #628 ) ;
#277 = VERTEX_POINT ( 'NONE', #713 ) ;
#278 = DIRECTION ( 'NONE',  ( 0.7071067811865474617, 0.7071067811865474617, 0.000000000000000000 ) ) ;
#279 = DIRECTION ( 'NONE',  ( -1.000000000000000000, 0.000000000000000000, 0.000000000000000000 ) ) ;
#280 = VERTEX_POINT ( 'NONE', #931 ) ;
#281 = DIRECTION ( 'NONE',  ( 1.000000000000000000, 0.000000000000000000, 0.000000000000000000 ) ) ;
#282 = DIRECTION ( 'NONE',  ( 0.000000000000000000, 0.000000000000000000, 1.000000000000000000 ) ) ;
#283 = DIRECTION ( 'NONE',  ( 0.000000000000000000, 0.000000000000000000, -1.000000000000000000 ) ) ;
#284 = DIRECTION ( 'NONE',  ( -1.000000000000000000, 0.000000000000000000, 0.000000000000000000 ) ) ;
#285 = CIRCLE ( 'NONE', #524, 1.749999999999980682 ) ;
#286 = DIRECTION ( 'NONE',  ( 0.000000000000000000, 0.000000000000000000, 1.000000000000000000 ) ) ;
#287 = DIRECTION ( 'NONE',  ( -1.000000000000000000, 0.000000000000000000, 0.000000000000000000 ) ) ;
#288 = DIRECTION ( 'NONE',  ( -0.000000000000000000, -0.000000000000000000, -1.000000000000000000 ) ) ;
#289 = VERTEX_POINT ( 'NONE', #126 ) ;
#290 = EDGE_CURVE ( 'NONE', #208, #255, #403, .T. ) ;
#291 = PRESENTATION_STYLE_ASSIGNMENT (( #674 ) ) ;
#292 = EDGE_CURVE ( 'NONE', #963, #752, #251, .T. ) ;
#293 = ORIENTED_EDGE ( 'NONE', *, *, #177, .F. ) ;
#294 = FACE_OUTER_BOUND ( 'NONE', #557, .T. ) ;
#295 = CARTESIAN_POINT ( 'NONE',  ( -10.00000000000000000, 0.000000000000000000, 3.000000000000000000 ) ) ;
#296 = EDGE_CURVE ( 'NONE', #570, #644, #266, .T. ) ;
#297 = VERTEX_POINT ( 'NONE', #219 ) ;
#298 = DIRECTION ( 'NONE',  ( 3.174552547521865467E-16, 1.000000000000000000, -0.000000000000000000 ) ) ;
#299 = AXIS2_PLACEMENT_3D ( 'NONE', #701, #791, #20 ) ;
#300 = ORIENTED_EDGE ( 'NONE', *, *, #530, .F. ) ;
#301 = DIRECTION ( 'NONE',  ( -0.000000000000000000, -0.000000000000000000, -1.000000000000000000 ) ) ;
#302 = EDGE_LOOP ( 'NONE', ( #531, #373, #138, #704 ) ) ;
#303 = DIRECTION ( 'NONE',  ( -0.000000000000000000, -0.000000000000000000, -1.000000000000000000 ) ) ;
#304 = ORIENTED_EDGE ( 'NONE', *, *, #152, .T. ) ;
#305 = EDGE_LOOP ( 'NONE', ( #711, #555, #449, #232 ) ) ;
#306 = CARTESIAN_POINT ( 'NONE',  ( -33.00000000000000000, -13.50000000000000178, 3.000000000000000000 ) ) ;
#307 = VERTEX_POINT ( 'NONE', #874 ) ;
#308 = ADVANCED_FACE ( 'NONE', ( #663 ), #961, .F. ) ;
#309 = ORIENTED_EDGE ( 'NONE', *, *, #337, .T. ) ;
#310 = CARTESIAN_POINT ( 'NONE',  ( -34.89999999999999147, 10.92893218813452805, 3.000000000000000000 ) ) ;
#311 = CIRCLE ( 'NONE', #342, 1.750000000000005107 ) ;
#312 = DIRECTION ( 'NONE',  ( -1.000000000000000000, 0.000000000000000000, 0.000000000000000000 ) ) ;
#313 = DIRECTION ( 'NONE',  ( -1.000000000000000000, 0.000000000000000000, 0.000000000000000000 ) ) ;
#314 = ORIENTED_EDGE ( 'NONE', *, *, #926, .F. ) ;
#315 = DIRECTION ( 'NONE',  ( 0.000000000000000000, 0.000000000000000000, 1.000000000000000000 ) ) ;
#316 = ADVANCED_FACE ( 'NONE', ( #294 ), #595, .F. ) ;
#317 = FACE_OUTER_BOUND ( 'NONE', #52, .T. ) ;
#318 = ORIENTED_EDGE ( 'NONE', *, *, #137, .T. ) ;
#319 = DIRECTION ( 'NONE',  ( -1.000000000000000000, 1.294569758191646909E-16, 0.000000000000000000 ) ) ;
#320 = EDGE_CURVE ( 'NONE', #277, #570, #250, .T. ) ;
#321 = DIRECTION ( 'NONE',  ( 0.000000000000000000, 0.000000000000000000, 1.000000000000000000 ) ) ;
#322 = ORIENTED_EDGE ( 'NONE', *, *, #606, .T. ) ;
#323 = CIRCLE ( 'NONE', #62, 4.999999999999997335 ) ;
#324 = AXIS2_PLACEMENT_3D ( 'NONE', #393, #18, #603 ) ;
#325 = CARTESIAN_POINT ( 'NONE',  ( -30.75786437626904046, -17.99999999999999645, 3.000000000000000000 ) ) ;
#326 =( GEOMETRIC_REPRESENTATION_CONTEXT ( 3 ) GLOBAL_UNCERTAINTY_ASSIGNED_CONTEXT ( ( #467 ) ) GLOBAL_UNIT_ASSIGNED_CONTEXT ( ( #651, #732, #211 ) ) REPRESENTATION_CONTEXT ( 'NONE', 'WORKASPACE' ) );
#327 = DIRECTION ( 'NONE',  ( 0.000000000000000000, 0.000000000000000000, -1.000000000000000000 ) ) ;
#328 = EDGE_CURVE ( 'NONE', #297, #208, #799, .T. ) ;
#329 = CARTESIAN_POINT ( 'NONE',  ( -31.24999999999999645, -13.50000000000000178, 3.000000000000000000 ) ) ;
#330 = PRODUCT ( 'camera_cover', 'camera_cover', '', ( #795 ) ) ;
#331 = ORIENTED_EDGE ( 'NONE', *, *, #762, .F. ) ;
#332 = CARTESIAN_POINT ( 'NONE',  ( -34.89999999999999147, -17.99999999999999289, 3.000000000000000000 ) ) ;
#333 = ORIENTED_EDGE ( 'NONE', *, *, #99, .T. ) ;
#334 = DIRECTION ( 'NONE',  ( 0.000000000000000000, 0.000000000000000000, -1.000000000000000000 ) ) ;
#335 = ORIENTED_EDGE ( 'NONE', *, *, #709, .F. ) ;
#336 = LINE ( 'NONE', #106, #145 ) ;
#337 = EDGE_CURVE ( 'NONE', #208, #511, #668, .T. ) ;
#338 = CARTESIAN_POINT ( 'NONE',  ( 38.43553390593273633, -14.46446609406725869, 3.000000000000000000 ) ) ;
#339 = CARTESIAN_POINT ( 'NONE',  ( -38.43553390593272923, 14.46446609406726225, 3.000000000000000000 ) ) ;
#340 = ORIENTED_EDGE ( 'NONE', *, *, #911, .F. ) ;
#341 = AXIS2_PLACEMENT_3D ( 'NONE', #932, #797, #405 ) ;
#342 = AXIS2_PLACEMENT_3D ( 'NONE', #877, #215, #358 ) ;
#343 = ORIENTED_EDGE ( 'NONE', *, *, #498, .F. ) ;
#344 = CIRCLE ( 'NONE', #183, 4.999999999999997335 ) ;
#345 = CARTESIAN_POINT ( 'NONE',  ( 34.74999999999997158, -13.50000000000005329, 0.000000000000000000 ) ) ;
#346 = CARTESIAN_POINT ( 'NONE',  ( 38.43553390593273633, -14.46446609406725869, 3.000000000000000000 ) ) ;
#347 = APPLICATION_CONTEXT ( 'automotive_design' ) ;
#348 = EDGE_LOOP ( 'NONE', ( #343, #922 ) ) ;
#349 = ADVANCED_FACE ( 'NONE', ( #506 ), #949, .F. ) ;
#350 = ORIENTED_EDGE ( 'NONE', *, *, #470, .F. ) ;
#351 = DIRECTION ( 'NONE',  ( 0.000000000000000000, 0.000000000000000000, 1.000000000000000000 ) ) ;
#352 = DIRECTION ( 'NONE',  ( -1.000000000000000000, 0.000000000000000000, 0.000000000000000000 ) ) ;
#353 = FACE_OUTER_BOUND ( 'NONE', #77, .T. ) ;
#354 = CARTESIAN_POINT ( 'NONE',  ( -34.89999999999999147, 10.92893218813452805, 3.000000000000000000 ) ) ;
#355 = AXIS2_PLACEMENT_3D ( 'NONE', #652, #429, #594 ) ;
#356 = EDGE_CURVE ( 'NONE', #858, #223, #182, .T. ) ;
#357 = ORIENTED_EDGE ( 'NONE', *, *, #177, .T. ) ;
#358 = DIRECTION ( 'NONE',  ( 1.000000000000000000, 0.000000000000000000, 0.000000000000000000 ) ) ;
#359 = CARTESIAN_POINT ( 'NONE',  ( -39.89999999999999147, 10.92893218813452627, 3.000000000000000000 ) ) ;
#360 = DIRECTION ( 'NONE',  ( 0.000000000000000000, 0.000000000000000000, 1.000000000000000000 ) ) ;
#361 = VERTEX_POINT ( 'NONE', #430 ) ;
#362 = DIRECTION ( 'NONE',  ( -0.000000000000000000, -0.000000000000000000, -1.000000000000000000 ) ) ;
#363 = LINE ( 'NONE', #514, #13 ) ;
#364 = ADVANCED_FACE ( 'NONE', ( #147 ), #747, .F. ) ;
#365 = SURFACE_SIDE_STYLE ('',( #959 ) ) ;
#366 = EDGE_CURVE ( 'NONE', #426, #925, #888, .T. ) ;
#367 = VERTEX_POINT ( 'NONE', #657 ) ;
#368 = LINE ( 'NONE', #85, #920 ) ;
#369 = CARTESIAN_POINT ( 'NONE',  ( -32.82893218813451597, 13.00000000000000711, 0.000000000000000000 ) ) ;
#370 = CARTESIAN_POINT ( 'NONE',  ( 34.74999999999997158, -13.50000000000005329, 3.000000000000000000 ) ) ;
#371 =( GEOMETRIC_REPRESENTATION_CONTEXT ( 3 ) GLOBAL_UNCERTAINTY_ASSIGNED_CONTEXT ( ( #547 ) ) GLOBAL_UNIT_ASSIGNED_CONTEXT ( ( #969, #884, #431 ) ) REPRESENTATION_CONTEXT ( 'NONE', 'WORKASPACE' ) );
#372 = VECTOR ( 'NONE', #283, 1000.000000000000000 ) ;
#373 = ORIENTED_EDGE ( 'NONE', *, *, #379, .F. ) ;
#374 = DIRECTION ( 'NONE',  ( -1.000000000000000000, 0.000000000000000000, 0.000000000000000000 ) ) ;
#375 = VECTOR ( 'NONE', #298, 1000.000000000000000 ) ;
#376 = ORIENTED_EDGE ( 'NONE', *, *, #120, .F. ) ;
#377 = CARTESIAN_POINT ( 'NONE',  ( 31.24999999999998224, -13.50000000000005329, 0.000000000000000000 ) ) ;
#378 = DIRECTION ( 'NONE',  ( 0.000000000000000000, 0.000000000000000000, 1.000000000000000000 ) ) ;
#379 = EDGE_CURVE ( 'NONE', #868, #466, #363, .T. ) ;
#380 = ORIENTED_EDGE ( 'NONE', *, *, #356, .F. ) ;
#381 = DIRECTION ( 'NONE',  ( -3.174552547521865467E-16, -1.000000000000000000, 0.000000000000000000 ) ) ;
#382 = ORIENTED_EDGE ( 'NONE', *, *, #926, .T. ) ;
#383 = CARTESIAN_POINT ( 'NONE',  ( -34.89999999999999147, 10.92893218813452805, 0.000000000000000000 ) ) ;
#384 = CARTESIAN_POINT ( 'NONE',  ( 0.000000000000000000, 0.000000000000000000, 3.000000000000000000 ) ) ;
#385 = EDGE_CURVE ( 'NONE', #127, #280, #163, .T. ) ;
#386 = ORIENTED_EDGE ( 'NONE', *, *, #230, .T. ) ;
#387 = DIRECTION ( 'NONE',  ( -1.000000000000000000, 0.000000000000000000, 0.000000000000000000 ) ) ;
#388 = CARTESIAN_POINT ( 'NONE',  ( -38.43553390593272923, -14.46446609406725337, 0.000000000000000000 ) ) ;
#389 = CLOSED_SHELL ( 'NONE', ( #620, #158, #404, #349, #88, #836, #391, #234, #513, #519, #64, #399, #728, #772, #308, #650, #269, #10, #589, #672, #476, #782, #675, #691, #364, #316, #878, #19 ) ) ;
#390 = CARTESIAN_POINT ( 'NONE',  ( 32.82893218813453018, 13.00000000000000000, 0.000000000000000000 ) ) ;
#391 = ADVANCED_FACE ( 'NONE', ( #353, #586, #879, #945, #216, #808 ), #139, .F. ) ;
#392 = VERTEX_POINT ( 'NONE', #359 ) ;
#393 = CARTESIAN_POINT ( 'NONE',  ( 34.89999999999999858, -10.92893218813452272, 0.000000000000000000 ) ) ;
#394 = EDGE_CURVE ( 'NONE', #946, #277, #70, .T. ) ;
#395 = FACE_OUTER_BOUND ( 'NONE', #396, .T. ) ;
#396 = EDGE_LOOP ( 'NONE', ( #190, #122, #272, #638, #689, #382, #876, #960, #492, #81, #264, #559, #155, #516, #204, #131 ) ) ;
#397 = FACE_OUTER_BOUND ( 'NONE', #600, .T. ) ;
#398 = DIRECTION ( 'NONE',  ( 0.000000000000000000, 0.000000000000000000, 1.000000000000000000 ) ) ;
#399 = ADVANCED_FACE ( 'NONE', ( #165 ), #180, .T. ) ;
#400 = CARTESIAN_POINT ( 'NONE',  ( 31.24999999999998224, -13.50000000000005329, 3.000000000000000000 ) ) ;
#401 = ORIENTED_EDGE ( 'NONE', *, *, #292, .F. ) ;
#402 = FACE_OUTER_BOUND ( 'NONE', #176, .T. ) ;
#403 = LINE ( 'NONE', #346, #904 ) ;
#404 = ADVANCED_FACE ( 'NONE', ( #462 ), #768, .F. ) ;
#405 = DIRECTION ( 'NONE',  ( -1.000000000000000000, 0.000000000000000000, 0.000000000000000000 ) ) ;
#406 = DIRECTION ( 'NONE',  ( -0.000000000000000000, -0.000000000000000000, -1.000000000000000000 ) ) ;
#407 = ORIENTED_EDGE ( 'NONE', *, *, #328, .F. ) ;
#408 = CARTESIAN_POINT ( 'NONE',  ( 38.43553390593274344, 14.46446609406725869, 3.000000000000000000 ) ) ;
#409 = AXIS2_PLACEMENT_3D ( 'NONE', #187, #499, #718 ) ;
#410 = CIRCLE ( 'NONE', #473, 1.750000000000005107 ) ;
#411 = CIRCLE ( 'NONE', #166, 10.00000000000000178 ) ;
#412 = EDGE_LOOP ( 'NONE', ( #765, #610, #157, #803 ) ) ;
#413 = LINE ( 'NONE', #564, #770 ) ;
#414 = EDGE_CURVE ( 'NONE', #58, #307, #487, .T. ) ;
#415 = EDGE_LOOP ( 'NONE', ( #864, #309, #527, #825 ) ) ;
#416 = CARTESIAN_POINT ( 'NONE',  ( 32.82893218813453018, 13.00000000000000000, 0.000000000000000000 ) ) ;
#417 = EDGE_CURVE ( 'NONE', #466, #688, #857, .T. ) ;
#418 = PLANE ( 'NONE',  #457 ) ;
#419 = CARTESIAN_POINT ( 'NONE',  ( 0.000000000000000000, 0.000000000000000000, 3.000000000000000000 ) ) ;
#420 = EDGE_LOOP ( 'NONE', ( #357, #829, #164, #350 ) ) ;
#421 = CARTESIAN_POINT ( 'NONE',  ( 37.82893218813453018, -15.07106781186546840, 0.000000000000000000 ) ) ;
#422 = CARTESIAN_POINT ( 'NONE',  ( 34.89999999999999858, -10.92893218813452272, 3.000000000000000000 ) ) ;
#423 = LINE ( 'NONE', #496, #474 ) ;
#424 = EDGE_CURVE ( 'NONE', #439, #144, #7, .T. ) ;
#425 = AXIS2_PLACEMENT_3D ( 'NONE', #236, #315, #82 ) ;
#426 = VERTEX_POINT ( 'NONE', #377 ) ;
#427 = AXIS2_PLACEMENT_3D ( 'NONE', #245, #751, #2 ) ;
#428 = EDGE_LOOP ( 'NONE', ( #475, #526, #1, #636 ) ) ;
#429 = DIRECTION ( 'NONE',  ( 0.000000000000000000, 0.000000000000000000, 1.000000000000000000 ) ) ;
#430 = CARTESIAN_POINT ( 'NONE',  ( 30.75786437626905112, -18.00000000000000355, 0.000000000000000000 ) ) ;
#431 =( NAMED_UNIT ( * ) SI_UNIT ( $, .STERADIAN. ) SOLID_ANGLE_UNIT ( ) );
#432 = DIRECTION ( 'NONE',  ( -0.7071067811865474617, -0.7071067811865474617, -0.000000000000000000 ) ) ;
#433 = ORIENTED_EDGE ( 'NONE', *, *, #167, .F. ) ;
#434 = CARTESIAN_POINT ( 'NONE',  ( 36.36446609406726793, 16.53553390593273775, 0.000000000000000000 ) ) ;
#435 = DIRECTION ( 'NONE',  ( 0.7071067811865479058, -0.7071067811865472397, 0.000000000000000000 ) ) ;
#436 = LINE ( 'NONE', #231, #838 ) ;
#437 = EDGE_CURVE ( 'NONE', #671, #101, #831, .T. ) ;
#438 = DIRECTION ( 'NONE',  ( 3.174552547521865467E-16, 1.000000000000000000, -0.000000000000000000 ) ) ;
#439 = VERTEX_POINT ( 'NONE', #761 ) ;
#440 = CARTESIAN_POINT ( 'NONE',  ( -34.89999999999999147, -10.92893218813451384, 0.000000000000000000 ) ) ;
#441 = CARTESIAN_POINT ( 'NONE',  ( 36.36446609406726793, 16.53553390593273775, 3.000000000000000000 ) ) ;
#442 = AXIS2_PLACEMENT_3D ( 'NONE', #332, #260, #562 ) ;
#443 = AXIS2_PLACEMENT_3D ( 'NONE', #611, #175, #690 ) ;
#444 = CYLINDRICAL_SURFACE ( 'NONE', #681, 10.00000000000000000 ) ;
#445 = DIRECTION ( 'NONE',  ( -0.000000000000000000, -0.000000000000000000, -1.000000000000000000 ) ) ;
#446 = DIRECTION ( 'NONE',  ( 0.000000000000000000, 0.000000000000000000, 1.000000000000000000 ) ) ;
#447 = ORIENTED_EDGE ( 'NONE', *, *, #849, .F. ) ;
#448 = CARTESIAN_POINT ( 'NONE',  ( -30.75786437626904046, -7.999999999999992895, 0.000000000000000000 ) ) ;
#449 = ORIENTED_EDGE ( 'NONE', *, *, #587, .F. ) ;
#450 = DIRECTION ( 'NONE',  ( 1.000000000000000000, 0.000000000000000000, 0.000000000000000000 ) ) ;
#451 = ORIENTED_EDGE ( 'NONE', *, *, #640, .T. ) ;
#452 = LINE ( 'NONE', #400, #631 ) ;
#453 = EDGE_LOOP ( 'NONE', ( #86, #892, #89, #536 ) ) ;
#454 = DIRECTION ( 'NONE',  ( -1.000000000000000000, 0.000000000000000000, 0.000000000000000000 ) ) ;
#455 = DIRECTION ( 'NONE',  ( 1.000000000000000000, 0.000000000000000000, 0.000000000000000000 ) ) ;
#456 = EDGE_CURVE ( 'NONE', #752, #744, #630, .T. ) ;
#457 = AXIS2_PLACEMENT_3D ( 'NONE', #338, #202, #714 ) ;
#458 = AXIS2_PLACEMENT_3D ( 'NONE', #383, #102, #542 ) ;
#459 = ORIENTED_EDGE ( 'NONE', *, *, #56, .F. ) ;
#460 = DIRECTION ( 'NONE',  ( -0.000000000000000000, -0.000000000000000000, -1.000000000000000000 ) ) ;
#461 = ORIENTED_EDGE ( 'NONE', *, *, #866, .T. ) ;
#462 = FACE_OUTER_BOUND ( 'NONE', #686, .T. ) ;
#463 = LINE ( 'NONE', #766, #755 ) ;
#464 = EDGE_LOOP ( 'NONE', ( #541, #837, #818, #111 ) ) ;
#465 = CYLINDRICAL_SURFACE ( 'NONE', #443, 1.749999999999991118 ) ;
#466 = VERTEX_POINT ( 'NONE', #914 ) ;
#467 = UNCERTAINTY_MEASURE_WITH_UNIT (LENGTH_MEASURE( 1.000000000000000082E-05 ), #651, 'distance_accuracy_value', 'NONE');
#468 = EDGE_CURVE ( 'NONE', #32, #277, #774, .T. ) ;
#469 = LINE ( 'NONE', #893, #724 ) ;
#470 = EDGE_CURVE ( 'NONE', #780, #127, #336, .T. ) ;
#471 = VERTEX_POINT ( 'NONE', #939 ) ;
#472 = AXIS2_PLACEMENT_3D ( 'NONE', #55, #446, #749 ) ;
#473 = AXIS2_PLACEMENT_3D ( 'NONE', #203, #566, #53 ) ;
#474 = VECTOR ( 'NONE', #584, 1000.000000000000000 ) ;
#475 = ORIENTED_EDGE ( 'NONE', *, *, #31, .T. ) ;
#476 = ADVANCED_FACE ( 'NONE', ( #402 ), #25, .F. ) ;
#477 = VERTEX_POINT ( 'NONE', #273 ) ;
#478 = LINE ( 'NONE', #940, #239 ) ;
#479 = ORIENTED_EDGE ( 'NONE', *, *, #862, .T. ) ;
#480 = FACE_OUTER_BOUND ( 'NONE', #847, .T. ) ;
#481 = VERTEX_POINT ( 'NONE', #112 ) ;
#482 = DIRECTION ( 'NONE',  ( 0.7071067811865470176, 0.7071067811865480168, -0.000000000000000000 ) ) ;
#483 = DIRECTION ( 'NONE',  ( 0.000000000000000000, 0.000000000000000000, 1.000000000000000000 ) ) ;
#484 = CYLINDRICAL_SURFACE ( 'NONE', #299, 1.750000000000001554 ) ;
#485 = ORIENTED_EDGE ( 'NONE', *, *, #292, .T. ) ;
#486 = PLANE ( 'NONE',  #828 ) ;
#487 = CIRCLE ( 'NONE', #324, 4.999999999999997335 ) ;
#488 = DIRECTION ( 'NONE',  ( 0.000000000000000000, 0.000000000000000000, 1.000000000000000000 ) ) ;
#489 = AXIS2_PLACEMENT_3D ( 'NONE', #90, #898, #374 ) ;
#490 = FACE_OUTER_BOUND ( 'NONE', #816, .T. ) ;
#491 = CYLINDRICAL_SURFACE ( 'NONE', #786, 5.000000000000000888 ) ;
#492 = ORIENTED_EDGE ( 'NONE', *, *, #437, .T. ) ;
#493 = CARTESIAN_POINT ( 'NONE',  ( 8.099999999999996092, -18.00000000000000000, 3.000000000000000000 ) ) ;
#494 = CARTESIAN_POINT ( 'NONE',  ( -32.82893218813451597, 13.00000000000000711, 0.000000000000000000 ) ) ;
#495 = EDGE_CURVE ( 'NONE', #471, #367, #240, .T. ) ;
#496 = CARTESIAN_POINT ( 'NONE',  ( 38.43553390593273633, -14.46446609406725869, 0.000000000000000000 ) ) ;
#497 = DIRECTION ( 'NONE',  ( 0.000000000000000000, 0.000000000000000000, 1.000000000000000000 ) ) ;
#498 = EDGE_CURVE ( 'NONE', #642, #439, #757, .T. ) ;
#499 = DIRECTION ( 'NONE',  ( -1.056826013124967889E-16, -1.000000000000000000, 0.000000000000000000 ) ) ;
#500 = EDGE_LOOP ( 'NONE', ( #676, #682, #335, #546 ) ) ;
#501 = CARTESIAN_POINT ( 'NONE',  ( 34.90000000000000568, 10.92893218813451561, 3.000000000000000000 ) ) ;
#502 = VERTEX_POINT ( 'NONE', #408 ) ;
#503 = FACE_OUTER_BOUND ( 'NONE', #302, .T. ) ;
#504 = EDGE_CURVE ( 'NONE', #144, #716, #285, .T. ) ;
#505 = COLOUR_RGB ( '',0.7921568627450980005, 0.8196078431372548767, 0.9333333333333333481 ) ;
#506 = FACE_OUTER_BOUND ( 'NONE', #428, .T. ) ;
#507 = AXIS2_PLACEMENT_3D ( 'NONE', #811, #867, #279 ) ;
#508 = ORIENTED_EDGE ( 'NONE', *, *, #943, .F. ) ;
#509 = VECTOR ( 'NONE', #116, 1000.000000000000000 ) ;
#510 = DIRECTION ( 'NONE',  ( 1.000000000000000000, 0.000000000000000000, 0.000000000000000000 ) ) ;
#511 = VERTEX_POINT ( 'NONE', #421 ) ;
#512 = CARTESIAN_POINT ( 'NONE',  ( -32.82893218813451597, 18.00000000000000711, 0.000000000000000000 ) ) ;
#513 = ADVANCED_FACE ( 'NONE', ( #397 ), #853, .F. ) ;
#514 = CARTESIAN_POINT ( 'NONE',  ( -38.43553390593272923, 14.46446609406726225, 3.000000000000000000 ) ) ;
#515 = DIRECTION ( 'NONE',  ( 0.000000000000000000, 0.000000000000000000, 1.000000000000000000 ) ) ;
#516 = ORIENTED_EDGE ( 'NONE', *, *, #587, .T. ) ;
#517 = DIRECTION ( 'NONE',  ( 1.000000000000000000, 0.000000000000000000, 0.000000000000000000 ) ) ;
#518 = CYLINDRICAL_SURFACE ( 'NONE', #128, 1.749999999999980682 ) ;
#519 = ADVANCED_FACE ( 'NONE', ( #195 ), #486, .F. ) ;
#520 = DIRECTION ( 'NONE',  ( -0.7071067811865472397, -0.7071067811865479058, 0.000000000000000000 ) ) ;
#521 = CIRCLE ( 'NONE', #96, 4.999999999999997335 ) ;
#522 = CARTESIAN_POINT ( 'NONE',  ( 34.57893218813450886, 13.00000000000000000, 0.000000000000000000 ) ) ;
#523 = AXIS2_PLACEMENT_3D ( 'NONE', #833, #899, #454 ) ;
#524 = AXIS2_PLACEMENT_3D ( 'NONE', #416, #497, #33 ) ;
#525 = VECTOR ( 'NONE', #23, 1000.000000000000000 ) ;
#526 = ORIENTED_EDGE ( 'NONE', *, *, #598, .T. ) ;
#527 = ORIENTED_EDGE ( 'NONE', *, *, #952, .T. ) ;
#528 = CARTESIAN_POINT ( 'NONE',  ( -34.89999999999999147, -10.92893218813451384, 0.000000000000000000 ) ) ;
#529 = DIRECTION ( 'NONE',  ( 0.000000000000000000, 0.000000000000000000, 1.000000000000000000 ) ) ;
#530 = EDGE_CURVE ( 'NONE', #361, #297, #639, .T. ) ;
#531 = ORIENTED_EDGE ( 'NONE', *, *, #941, .T. ) ;
#532 = FACE_OUTER_BOUND ( 'NONE', #707, .T. ) ;
#533 = ORIENTED_EDGE ( 'NONE', *, *, #685, .F. ) ;
#534 = ORIENTED_EDGE ( 'NONE', *, *, #51, .F. ) ;
#535 = DIRECTION ( 'NONE',  ( 0.000000000000000000, 0.000000000000000000, 1.000000000000000000 ) ) ;
#536 = ORIENTED_EDGE ( 'NONE', *, *, #296, .T. ) ;
#537 = CIRCLE ( 'NONE', #159, 4.999999999999997335 ) ;
#538 = AXIS2_PLACEMENT_3D ( 'NONE', #48, #282, #807 ) ;
#539 = EDGE_LOOP ( 'NONE', ( #938, #246 ) ) ;
#540 = CARTESIAN_POINT ( 'NONE',  ( -38.43553390593272923, -14.46446609406725337, 3.000000000000000000 ) ) ;
#541 = ORIENTED_EDGE ( 'NONE', *, *, #777, .T. ) ;
#542 = DIRECTION ( 'NONE',  ( 1.000000000000000000, 0.000000000000000000, 0.000000000000000000 ) ) ;
#543 = EDGE_CURVE ( 'NONE', #852, #813, #410, .T. ) ;
#544 = CARTESIAN_POINT ( 'NONE',  ( 38.43553390593274344, 14.46446609406725869, 3.000000000000000000 ) ) ;
#545 = CARTESIAN_POINT ( 'NONE',  ( -30.75786437626904046, -17.99999999999999645, 0.000000000000000000 ) ) ;
#546 = ORIENTED_EDGE ( 'NONE', *, *, #296, .F. ) ;
#547 = UNCERTAINTY_MEASURE_WITH_UNIT (LENGTH_MEASURE( 1.000000000000000082E-05 ), #969, 'distance_accuracy_value', 'NONE');
#548 = CARTESIAN_POINT ( 'NONE',  ( 31.07893218813454794, 13.00000000000000000, 3.000000000000000000 ) ) ;
#549 = ORIENTED_EDGE ( 'NONE', *, *, #834, .F. ) ;
#550 = FACE_BOUND ( 'NONE', #708, .T. ) ;
#551 = AXIS2_PLACEMENT_3D ( 'NONE', #944, #351, #733 ) ;
#552 = CIRCLE ( 'NONE', #618, 1.750000000000001554 ) ;
#553 = ORIENTED_EDGE ( 'NONE', *, *, #437, .F. ) ;
#554 = DIRECTION ( 'NONE',  ( -0.000000000000000000, -0.000000000000000000, 1.000000000000000000 ) ) ;
#555 = ORIENTED_EDGE ( 'NONE', *, *, #640, .F. ) ;
#556 = CARTESIAN_POINT ( 'NONE',  ( 34.74999999999997158, -13.50000000000005329, 3.000000000000000000 ) ) ;
#557 = EDGE_LOOP ( 'NONE', ( #40, #237, #333, #252 ) ) ;
#558 = CARTESIAN_POINT ( 'NONE',  ( 0.000000000000000000, 0.000000000000000000, 0.000000000000000000 ) ) ;
#559 = ORIENTED_EDGE ( 'NONE', *, *, #125, .T. ) ;
#560 = CARTESIAN_POINT ( 'NONE',  ( -31.24999999999999645, -13.50000000000000178, 0.000000000000000000 ) ) ;
#561 = EDGE_LOOP ( 'NONE', ( #787, #619 ) ) ;
#562 = DIRECTION ( 'NONE',  ( -0.7071067811865474617, 0.7071067811865474617, 0.000000000000000000 ) ) ;
#563 = ORIENTED_EDGE ( 'NONE', *, *, #709, .T. ) ;
#564 = CARTESIAN_POINT ( 'NONE',  ( 38.43553390593273633, -14.46446609406725692, 3.000000000000000000 ) ) ;
#565 = ORIENTED_EDGE ( 'NONE', *, *, #699, .T. ) ;
#566 = DIRECTION ( 'NONE',  ( 0.000000000000000000, 0.000000000000000000, 1.000000000000000000 ) ) ;
#567 = AXIS2_PLACEMENT_3D ( 'NONE', #583, #658, #962 ) ;
#568 = AXIS2_PLACEMENT_3D ( 'NONE', #608, #623, #821 ) ;
#569 = AXIS2_PLACEMENT_3D ( 'NONE', #501, #574, #947 ) ;
#570 = VERTEX_POINT ( 'NONE', #59 ) ;
#571 = CARTESIAN_POINT ( 'NONE',  ( 32.82893218813453018, 13.00000000000000000, 3.000000000000000000 ) ) ;
#572 = PLANE ( 'NONE',  #409 ) ;
#573 = ORIENTED_EDGE ( 'NONE', *, *, #504, .T. ) ;
#574 = DIRECTION ( 'NONE',  ( 0.000000000000000000, 0.000000000000000000, 1.000000000000000000 ) ) ;
#575 = EDGE_CURVE ( 'NONE', #101, #481, #953, .T. ) ;
#576 = CARTESIAN_POINT ( 'NONE',  ( 31.24999999999998224, -13.50000000000005329, 3.000000000000000000 ) ) ;
#577 = ORIENTED_EDGE ( 'NONE', *, *, #148, .T. ) ;
#578 = EDGE_CURVE ( 'NONE', #925, #426, #785, .T. ) ;
#579 = CARTESIAN_POINT ( 'NONE',  ( -31.24999999999999645, -13.50000000000000178, 3.000000000000000000 ) ) ;
#580 = CIRCLE ( 'NONE', #885, 1.750000000000001554 ) ;
#581 = DIRECTION ( 'NONE',  ( 0.000000000000000000, 0.000000000000000000, 1.000000000000000000 ) ) ;
#582 = AXIS2_PLACEMENT_3D ( 'NONE', #571, #712, #191 ) ;
#583 = CARTESIAN_POINT ( 'NONE',  ( -32.82893218813451597, 13.00000000000000711, 3.000000000000000000 ) ) ;
#584 = DIRECTION ( 'NONE',  ( 0.7071067811865470176, 0.7071067811865480168, -0.000000000000000000 ) ) ;
#585 = ORIENTED_EDGE ( 'NONE', *, *, #495, .T. ) ;
#586 = FACE_BOUND ( 'NONE', #194, .T. ) ;
#587 = EDGE_CURVE ( 'NONE', #160, #946, #63, .T. ) ;
#588 = LINE ( 'NONE', #950, #934 ) ;
#589 = ADVANCED_FACE ( 'NONE', ( #503 ), #887, .F. ) ;
#590 = VERTEX_POINT ( 'NONE', #576 ) ;
#591 = DIRECTION ( 'NONE',  ( -0.000000000000000000, -0.000000000000000000, -1.000000000000000000 ) ) ;
#592 = CARTESIAN_POINT ( 'NONE',  ( -30.75786437626904046, -7.999999999999992895, 3.000000000000000000 ) ) ;
#593 = ORIENTED_EDGE ( 'NONE', *, *, #31, .F. ) ;
#594 = DIRECTION ( 'NONE',  ( -1.000000000000000000, 0.000000000000000000, 0.000000000000000000 ) ) ;
#595 = CYLINDRICAL_SURFACE ( 'NONE', #507, 10.00000000000000000 ) ;
#596 = DIRECTION ( 'NONE',  ( -1.000000000000000000, 0.000000000000000000, 0.000000000000000000 ) ) ;
#597 = AXIS2_PLACEMENT_3D ( 'NONE', #153, #581, #207 ) ;
#598 = EDGE_CURVE ( 'NONE', #852, #806, #134, .T. ) ;
#599 = EDGE_CURVE ( 'NONE', #477, #746, #656, .T. ) ;
#600 = EDGE_LOOP ( 'NONE', ( #696, #759, #929, #451 ) ) ;
#601 = DIRECTION ( 'NONE',  ( -1.000000000000000000, 0.000000000000000000, 0.000000000000000000 ) ) ;
#602 = EDGE_LOOP ( 'NONE', ( #740, #91, #725, #447 ) ) ;
#603 = DIRECTION ( 'NONE',  ( 1.000000000000000000, 0.000000000000000000, 0.000000000000000000 ) ) ;
#604 = VERTEX_POINT ( 'NONE', #434 ) ;
#605 = DIRECTION ( 'NONE',  ( 1.000000000000000000, -1.294569758191646909E-16, 0.000000000000000000 ) ) ;
#606 = EDGE_CURVE ( 'NONE', #806, #902, #311, .T. ) ;
#607 = ORIENTED_EDGE ( 'NONE', *, *, #174, .F. ) ;
#608 = CARTESIAN_POINT ( 'NONE',  ( 34.89999999999999858, -10.92893218813452272, 3.000000000000000000 ) ) ;
#609 = CARTESIAN_POINT ( 'NONE',  ( -32.82893218813451597, 13.00000000000000711, 3.000000000000000000 ) ) ;
#610 = ORIENTED_EDGE ( 'NONE', *, *, #748, .F. ) ;
#611 = CARTESIAN_POINT ( 'NONE',  ( 32.99999999999997158, -13.50000000000005329, 3.000000000000000000 ) ) ;
#612 = EDGE_CURVE ( 'NONE', #622, #280, #667, .T. ) ;
#613 = ORIENTED_EDGE ( 'NONE', *, *, #417, .F. ) ;
#614 = CIRCLE ( 'NONE', #722, 1.749999999999980682 ) ;
#615 = AXIS2_PLACEMENT_3D ( 'NONE', #958, #520, #435 ) ;
#616 = ORIENTED_EDGE ( 'NONE', *, *, #456, .F. ) ;
#617 = DIRECTION ( 'NONE',  ( -0.000000000000000000, -0.000000000000000000, -1.000000000000000000 ) ) ;
#618 = AXIS2_PLACEMENT_3D ( 'NONE', #189, #321, #924 ) ;
#619 = ORIENTED_EDGE ( 'NONE', *, *, #578, .T. ) ;
#620 = ADVANCED_FACE ( 'NONE', ( #810 ), #444, .F. ) ;
#621 = CARTESIAN_POINT ( 'NONE',  ( 39.90000000000000568, 10.92893218813450851, 3.000000000000000000 ) ) ;
#622 = VERTEX_POINT ( 'NONE', #73 ) ;
#623 = DIRECTION ( 'NONE',  ( -0.000000000000000000, -0.000000000000000000, -1.000000000000000000 ) ) ;
#624 = DIRECTION ( 'NONE',  ( 1.000000000000000000, 0.000000000000000000, 0.000000000000000000 ) ) ;
#625 = CARTESIAN_POINT ( 'NONE',  ( -39.89999999999999147, -10.92893218813451561, 0.000000000000000000 ) ) ;
#626 = EDGE_LOOP ( 'NONE', ( #16, #577, #750, #908 ) ) ;
#627 = CIRCLE ( 'NONE', #142, 1.750000000000005107 ) ;
#628 = ADVANCED_BREP_SHAPE_REPRESENTATION ( 'camera_cover', ( #169, #873 ), #326 ) ;
#629 = DIRECTION ( 'NONE',  ( -1.000000000000000000, 0.000000000000000000, 0.000000000000000000 ) ) ;
#630 = CIRCLE ( 'NONE', #425, 4.999999999999997335 ) ;
#631 = VECTOR ( 'NONE', #100, 1000.000000000000000 ) ;
#632 = ORIENTED_EDGE ( 'NONE', *, *, #337, .F. ) ;
#633 = CARTESIAN_POINT ( 'NONE',  ( -33.00000000000000000, -13.50000000000000178, 3.000000000000000000 ) ) ;
#634 = CARTESIAN_POINT ( 'NONE',  ( -39.89999999999999147, -10.92893218813451561, 0.000000000000000000 ) ) ;
#635 = ORIENTED_EDGE ( 'NONE', *, *, #575, .F. ) ;
#636 = ORIENTED_EDGE ( 'NONE', *, *, #815, .F. ) ;
#637 = DIRECTION ( 'NONE',  ( -1.000000000000000000, 0.000000000000000000, 0.000000000000000000 ) ) ;
#638 = ORIENTED_EDGE ( 'NONE', *, *, #83, .T. ) ;
#639 = LINE ( 'NONE', #717, #97 ) ;
#640 = EDGE_CURVE ( 'NONE', #946, #223, #9, .T. ) ;
#641 = EDGE_CURVE ( 'NONE', #644, #361, #469, .T. ) ;
#642 = VERTEX_POINT ( 'NONE', #93 ) ;
#643 = FACE_BOUND ( 'NONE', #348, .T. ) ;
#644 = VERTEX_POINT ( 'NONE', #545 ) ;
#645 = DIRECTION ( 'NONE',  ( -0.000000000000000000, -0.000000000000000000, -1.000000000000000000 ) ) ;
#646 = AXIS2_PLACEMENT_3D ( 'NONE', #889, #132, #727 ) ;
#647 = VECTOR ( 'NONE', #248, 1000.000000000000000 ) ;
#648 = CIRCLE ( 'NONE', #427, 10.00000000000000000 ) ;
#649 = DIRECTION ( 'NONE',  ( 1.000000000000000000, 0.000000000000000000, 0.000000000000000000 ) ) ;
#650 = ADVANCED_FACE ( 'NONE', ( #683 ), #830, .T. ) ;
#651 =( LENGTH_UNIT ( ) NAMED_UNIT ( * ) SI_UNIT ( .MILLI., .METRE. ) );
#652 = CARTESIAN_POINT ( 'NONE',  ( 32.99999999999997158, -13.50000000000005329, 0.000000000000000000 ) ) ;
#653 = DIRECTION ( 'NONE',  ( -1.000000000000000000, 0.000000000000000000, 0.000000000000000000 ) ) ;
#654 = ORIENTED_EDGE ( 'NONE', *, *, #109, .F. ) ;
#655 = ORIENTED_EDGE ( 'NONE', *, *, #578, .F. ) ;
#656 = LINE ( 'NONE', #512, #736 ) ;
#657 = CARTESIAN_POINT ( 'NONE',  ( -10.00000000000000000, 0.000000000000000000, 0.000000000000000000 ) ) ;
#658 = DIRECTION ( 'NONE',  ( -0.000000000000000000, -0.000000000000000000, -1.000000000000000000 ) ) ;
#659 = LINE ( 'NONE', #951, #65 ) ;
#660 = ORIENTED_EDGE ( 'NONE', *, *, #261, .F. ) ;
#661 = EDGE_CURVE ( 'NONE', #367, #471, #648, .T. ) ;
#662 = AXIS2_PLACEMENT_3D ( 'NONE', #214, #529, #817 ) ;
#663 = FACE_OUTER_BOUND ( 'NONE', #235, .T. ) ;
#664 = CYLINDRICAL_SURFACE ( 'NONE', #567, 1.750000000000001554 ) ;
#665 = AXIS2_PLACEMENT_3D ( 'NONE', #419, #30, #710 ) ;
#666 = DIRECTION ( 'NONE',  ( -0.000000000000000000, -0.000000000000000000, -1.000000000000000000 ) ) ;
#667 = LINE ( 'NONE', #957, #723 ) ;
#668 = LINE ( 'NONE', #883, #919 ) ;
#669 = LINE ( 'NONE', #295, #692 ) ;
#670 = CARTESIAN_POINT ( 'NONE',  ( 0.000000000000000000, 0.000000000000000000, 0.000000000000000000 ) ) ;
#671 = VERTEX_POINT ( 'NONE', #78 ) ;
#672 = ADVANCED_FACE ( 'NONE', ( #814 ), #241, .T. ) ;
#673 = CARTESIAN_POINT ( 'NONE',  ( -34.89999999999999147, -17.99999999999999289, 3.000000000000000000 ) ) ;
#674 = SURFACE_STYLE_USAGE ( .BOTH. , #365 ) ;
#675 = ADVANCED_FACE ( 'NONE', ( #161 ), #694, .F. ) ;
#676 = ORIENTED_EDGE ( 'NONE', *, *, #320, .F. ) ;
#677 = CARTESIAN_POINT ( 'NONE',  ( 38.43553390593274344, 14.46446609406725869, 0.000000000000000000 ) ) ;
#678 = ORIENTED_EDGE ( 'NONE', *, *, #641, .F. ) ;
#679 = STYLED_ITEM ( 'NONE', ( #291 ), #169 ) ;
#680 = DIRECTION ( 'NONE',  ( 1.000000000000000000, 0.000000000000000000, 0.000000000000000000 ) ) ;
#681 = AXIS2_PLACEMENT_3D ( 'NONE', #741, #362, #387 ) ;
#682 = ORIENTED_EDGE ( 'NONE', *, *, #468, .F. ) ;
#683 = FACE_OUTER_BOUND ( 'NONE', #793, .T. ) ;
#684 = ORIENTED_EDGE ( 'NONE', *, *, #247, .T. ) ;
#685 = EDGE_CURVE ( 'NONE', #307, #752, #233, .T. ) ;
#686 = EDGE_LOOP ( 'NONE', ( #684, #226, #149, #331 ) ) ;
#687 = LINE ( 'NONE', #5, #45 ) ;
#688 = VERTEX_POINT ( 'NONE', #907 ) ;
#689 = ORIENTED_EDGE ( 'NONE', *, *, #911, .T. ) ;
#690 = DIRECTION ( 'NONE',  ( -1.000000000000000000, 0.000000000000000000, 0.000000000000000000 ) ) ;
#691 = ADVANCED_FACE ( 'NONE', ( #532 ), #465, .F. ) ;
#692 = VECTOR ( 'NONE', #955, 1000.000000000000000 ) ;
#693 = AXIS2_PLACEMENT_3D ( 'NONE', #726, #69, #278 ) ;
#694 = CYLINDRICAL_SURFACE ( 'NONE', #225, 1.750000000000001554 ) ;
#695 = VECTOR ( 'NONE', #184, 1000.000000000000000 ) ;
#696 = ORIENTED_EDGE ( 'NONE', *, *, #120, .T. ) ;
#697 = CARTESIAN_POINT ( 'NONE',  ( -34.75000000000000000, -13.50000000000000178, 3.000000000000000000 ) ) ;
#698 = EDGE_LOOP ( 'NONE', ( #249, #773, #917, #479 ) ) ;
#699 = EDGE_CURVE ( 'NONE', #746, #133, #800, .T. ) ;
#700 = DIRECTION ( 'NONE',  ( -0.000000000000000000, -0.000000000000000000, -1.000000000000000000 ) ) ;
#701 = CARTESIAN_POINT ( 'NONE',  ( -32.82893218813451597, 13.00000000000000711, 3.000000000000000000 ) ) ;
#702 = VERTEX_POINT ( 'NONE', #150 ) ;
#703 = CARTESIAN_POINT ( 'NONE',  ( 39.90000000000000568, 10.92893218813450673, 3.000000000000000000 ) ) ;
#704 = ORIENTED_EDGE ( 'NONE', *, *, #196, .T. ) ;
#705 = CIRCLE ( 'NONE', #827, 1.749999999999991118 ) ;
#706 = CARTESIAN_POINT ( 'NONE',  ( -34.75000000000000000, -13.50000000000000178, 3.000000000000000000 ) ) ;
#707 = EDGE_LOOP ( 'NONE', ( #607, #318, #172, #655 ) ) ;
#708 = EDGE_LOOP ( 'NONE', ( #593, #820 ) ) ;
#709 = EDGE_CURVE ( 'NONE', #644, #32, #411, .T. ) ;
#710 = DIRECTION ( 'NONE',  ( 1.000000000000000000, 0.000000000000000000, 0.000000000000000000 ) ) ;
#711 = ORIENTED_EDGE ( 'NONE', *, *, #356, .T. ) ;
#712 = DIRECTION ( 'NONE',  ( 0.000000000000000000, 0.000000000000000000, 1.000000000000000000 ) ) ;
#713 = CARTESIAN_POINT ( 'NONE',  ( -37.82893218813451597, -15.07106781186547018, 3.000000000000000000 ) ) ;
#714 = DIRECTION ( 'NONE',  ( -0.7071067811865470176, -0.7071067811865480168, 0.000000000000000000 ) ) ;
#715 = DIRECTION ( 'NONE',  ( -0.000000000000000000, -0.000000000000000000, -1.000000000000000000 ) ) ;
#716 = VERTEX_POINT ( 'NONE', #745 ) ;
#717 = CARTESIAN_POINT ( 'NONE',  ( 30.75786437626905112, -18.00000000000000355, 3.000000000000000000 ) ) ;
#718 = DIRECTION ( 'NONE',  ( 1.000000000000000000, -1.056826013124967889E-16, 0.000000000000000000 ) ) ;
#719 = DIRECTION ( 'NONE',  ( 0.000000000000000000, 0.000000000000000000, 1.000000000000000000 ) ) ;
#720 = EDGE_CURVE ( 'NONE', #604, #477, #344, .T. ) ;
#721 = APPLICATION_PROTOCOL_DEFINITION ( 'draft international standard', 'automotive_design', 1998, #46 ) ;
#722 = AXIS2_PLACEMENT_3D ( 'NONE', #805, #731, #596 ) ;
#723 = VECTOR ( 'NONE', #591, 1000.000000000000000 ) ;
#724 = VECTOR ( 'NONE', #605, 1000.000000000000000 ) ;
#725 = ORIENTED_EDGE ( 'NONE', *, *, #152, .F. ) ;
#726 = CARTESIAN_POINT ( 'NONE',  ( -38.43553390593272923, 14.46446609406726225, 3.000000000000000000 ) ) ;
#727 = DIRECTION ( 'NONE',  ( -1.000000000000000000, 0.000000000000000000, 0.000000000000000000 ) ) ;
#728 = ADVANCED_FACE ( 'NONE', ( #15 ), #764, .F. ) ;
#729 = ORIENTED_EDGE ( 'NONE', *, *, #95, .T. ) ;
#730 = DIRECTION ( 'NONE',  ( 0.000000000000000000, 0.000000000000000000, 1.000000000000000000 ) ) ;
#731 = DIRECTION ( 'NONE',  ( 0.000000000000000000, 0.000000000000000000, 1.000000000000000000 ) ) ;
#732 =( NAMED_UNIT ( * ) PLANE_ANGLE_UNIT ( ) SI_UNIT ( $, .RADIAN. ) );
#733 = DIRECTION ( 'NONE',  ( 1.000000000000000000, 0.000000000000000000, 0.000000000000000000 ) ) ;
#734 = CIRCLE ( 'NONE', #220, 10.00000000000000000 ) ;
#735 = DIRECTION ( 'NONE',  ( 0.000000000000000000, 0.000000000000000000, 1.000000000000000000 ) ) ;
#736 = VECTOR ( 'NONE', #882, 1000.000000000000000 ) ;
#737 = DIRECTION ( 'NONE',  ( -0.7071067811865479058, 0.7071067811865472397, -0.000000000000000000 ) ) ;
#738 = VECTOR ( 'NONE', #438, 1000.000000000000000 ) ;
#739 = EDGE_CURVE ( 'NONE', #289, #471, #368, .T. ) ;
#740 = ORIENTED_EDGE ( 'NONE', *, *, #498, .T. ) ;
#741 = CARTESIAN_POINT ( 'NONE',  ( 0.000000000000000000, 0.000000000000000000, 3.000000000000000000 ) ) ;
#742 = CARTESIAN_POINT ( 'NONE',  ( 32.99999999999997158, -13.50000000000005329, 0.000000000000000000 ) ) ;
#743 = CARTESIAN_POINT ( 'NONE',  ( -36.36446609406725372, 16.53553390593274486, 0.000000000000000000 ) ) ;
#744 = VERTEX_POINT ( 'NONE', #677 ) ;
#745 = CARTESIAN_POINT ( 'NONE',  ( 31.07893218813454794, 13.00000000000000000, 0.000000000000000000 ) ) ;
#746 = VERTEX_POINT ( 'NONE', #964 ) ;
#747 = CYLINDRICAL_SURFACE ( 'NONE', #98, 1.749999999999980682 ) ;
#748 = EDGE_CURVE ( 'NONE', #392, #688, #687, .T. ) ;
#749 = DIRECTION ( 'NONE',  ( 1.000000000000000000, 0.000000000000000000, 0.000000000000000000 ) ) ;
#750 = ORIENTED_EDGE ( 'NONE', *, *, #849, .T. ) ;
#751 = DIRECTION ( 'NONE',  ( 0.000000000000000000, 0.000000000000000000, 1.000000000000000000 ) ) ;
#752 = VERTEX_POINT ( 'NONE', #156 ) ;
#753 = CARTESIAN_POINT ( 'NONE',  ( -32.82893218813451597, 18.00000000000000711, 3.000000000000000000 ) ) ;
#754 = VECTOR ( 'NONE', #34, 1000.000000000000000 ) ;
#755 = VECTOR ( 'NONE', #92, 1000.000000000000000 ) ;
#756 = CYLINDRICAL_SURFACE ( 'NONE', #162, 4.999999999999997335 ) ;
#757 = CIRCLE ( 'NONE', #582, 1.749999999999980682 ) ;
#758 = VECTOR ( 'NONE', #124, 1000.000000000000114 ) ;
#759 = ORIENTED_EDGE ( 'NONE', *, *, #468, .T. ) ;
#760 = DIRECTION ( 'NONE',  ( 1.000000000000000000, 0.000000000000000000, 0.000000000000000000 ) ) ;
#761 = CARTESIAN_POINT ( 'NONE',  ( 34.57893218813450886, 13.00000000000000000, 3.000000000000000000 ) ) ;
#762 = EDGE_CURVE ( 'NONE', #590, #426, #452, .T. ) ;
#763 = ORIENTED_EDGE ( 'NONE', *, *, #948, .T. ) ;
#764 = PLANE ( 'NONE',  #906 ) ;
#765 = ORIENTED_EDGE ( 'NONE', *, *, #417, .T. ) ;
#766 = CARTESIAN_POINT ( 'NONE',  ( -36.36446609406725372, 16.53553390593274486, 3.000000000000000000 ) ) ;
#767 = CARTESIAN_POINT ( 'NONE',  ( 39.90000000000000568, 10.92893218813450851, 0.000000000000000000 ) ) ;
#768 = CYLINDRICAL_SURFACE ( 'NONE', #523, 1.749999999999991118 ) ;
#769 = VECTOR ( 'NONE', #895, 1000.000000000000000 ) ;
#770 = VECTOR ( 'NONE', #835, 1000.000000000000000 ) ;
#771 = DIRECTION ( 'NONE',  ( 1.000000000000000000, 0.000000000000000000, -0.000000000000000000 ) ) ;
#772 = ADVANCED_FACE ( 'NONE', ( #317 ), #491, .T. ) ;
#773 = ORIENTED_EDGE ( 'NONE', *, *, #866, .F. ) ;
#774 = LINE ( 'NONE', #22, #29 ) ;
#775 = CARTESIAN_POINT ( 'NONE',  ( -34.89999999999999147, -10.92893218813451384, 3.000000000000000000 ) ) ;
#776 = ORIENTED_EDGE ( 'NONE', *, *, #661, .T. ) ;
#777 = EDGE_CURVE ( 'NONE', #105, #289, #937, .T. ) ;
#778 = ORIENTED_EDGE ( 'NONE', *, *, #720, .F. ) ;
#779 = FACE_BOUND ( 'NONE', #539, .T. ) ;
#780 = VERTEX_POINT ( 'NONE', #921 ) ;
#781 = CARTESIAN_POINT ( 'NONE',  ( -39.89999999999999147, -10.92893218813451561, 3.000000000000000000 ) ) ;
#782 = ADVANCED_FACE ( 'NONE', ( #480 ), #484, .F. ) ;
#783 = CARTESIAN_POINT ( 'NONE',  ( -37.82893218813451597, -15.07106781186547018, 0.000000000000000000 ) ) ;
#784 = FACE_BOUND ( 'NONE', #188, .T. ) ;
#785 = CIRCLE ( 'NONE', #355, 1.749999999999991118 ) ;
#786 = AXIS2_PLACEMENT_3D ( 'NONE', #263, #406, #629 ) ;
#787 = ORIENTED_EDGE ( 'NONE', *, *, #366, .T. ) ;
#788 = DIRECTION ( 'NONE',  ( 1.294569758191646909E-16, 1.000000000000000000, -0.000000000000000000 ) ) ;
#789 = DIRECTION ( 'NONE',  ( -0.7071067811865479058, 0.7071067811865472397, -0.000000000000000000 ) ) ;
#790 = ORIENTED_EDGE ( 'NONE', *, *, #777, .F. ) ;
#791 = DIRECTION ( 'NONE',  ( -0.000000000000000000, -0.000000000000000000, -1.000000000000000000 ) ) ;
#792 = EDGE_CURVE ( 'NONE', #688, #858, #110, .T. ) ;
#793 = EDGE_LOOP ( 'NONE', ( #900, #549, #151, #94 ) ) ;
#794 = DIRECTION ( 'NONE',  ( 0.000000000000000000, 0.000000000000000000, 1.000000000000000000 ) ) ;
#795 = PRODUCT_CONTEXT ( 'NONE', #46, 'mechanical' ) ;
#796 = CARTESIAN_POINT ( 'NONE',  ( -34.89999999999999147, -17.99999999999999289, 3.000000000000000000 ) ) ;
#797 = DIRECTION ( 'NONE',  ( -0.000000000000000000, -0.000000000000000000, -1.000000000000000000 ) ) ;
#798 = ORIENTED_EDGE ( 'NONE', *, *, #74, .F. ) ;
#799 = CIRCLE ( 'NONE', #597, 9.999999999999998224 ) ;
#800 = CIRCLE ( 'NONE', #14, 4.999999999999997335 ) ;
#801 = FILL_AREA_STYLE_COLOUR ( '', #505 ) ;
#802 = CARTESIAN_POINT ( 'NONE',  ( 39.90000000000000568, 10.92893218813450851, 3.000000000000000000 ) ) ;
#803 = ORIENTED_EDGE ( 'NONE', *, *, #379, .T. ) ;
#804 = DIRECTION ( 'NONE',  ( 0.000000000000000000, 0.000000000000000000, 1.000000000000000000 ) ) ;
#805 = CARTESIAN_POINT ( 'NONE',  ( 32.82893218813453018, 13.00000000000000000, 0.000000000000000000 ) ) ;
#806 = VERTEX_POINT ( 'NONE', #560 ) ;
#807 = DIRECTION ( 'NONE',  ( 1.000000000000000000, 0.000000000000000000, 0.000000000000000000 ) ) ;
#808 = FACE_BOUND ( 'NONE', #845, .T. ) ;
#809 = DIRECTION ( 'NONE',  ( 0.7071067811865474617, -0.7071067811865474617, -0.000000000000000000 ) ) ;
#810 = FACE_OUTER_BOUND ( 'NONE', #464, .T. ) ;
#811 = CARTESIAN_POINT ( 'NONE',  ( 0.000000000000000000, 0.000000000000000000, 3.000000000000000000 ) ) ;
#812 = AXIS2_PLACEMENT_3D ( 'NONE', #592, #75, #135 ) ;
#813 = VERTEX_POINT ( 'NONE', #697 ) ;
#814 = FACE_OUTER_BOUND ( 'NONE', #412, .T. ) ;
#815 = EDGE_CURVE ( 'NONE', #813, #902, #916, .T. ) ;
#816 = EDGE_LOOP ( 'NONE', ( #565, #206, #635, #763 ) ) ;
#817 = DIRECTION ( 'NONE',  ( -1.000000000000000000, 0.000000000000000000, 0.000000000000000000 ) ) ;
#818 = ORIENTED_EDGE ( 'NONE', *, *, #661, .F. ) ;
#819 = DIRECTION ( 'NONE',  ( -0.000000000000000000, -0.000000000000000000, -1.000000000000000000 ) ) ;
#820 = ORIENTED_EDGE ( 'NONE', *, *, #543, .F. ) ;
#821 = DIRECTION ( 'NONE',  ( -1.000000000000000000, 0.000000000000000000, 0.000000000000000000 ) ) ;
#822 = CARTESIAN_POINT ( 'NONE',  ( 37.82893218813453018, -15.07106781186546840, 3.000000000000000000 ) ) ;
#823 = ORIENTED_EDGE ( 'NONE', *, *, #941, .F. ) ;
#824 = DIRECTION ( 'NONE',  ( 1.000000000000000000, 0.000000000000000000, 0.000000000000000000 ) ) ;
#825 = ORIENTED_EDGE ( 'NONE', *, *, #862, .F. ) ;
#826 = DIRECTION ( 'NONE',  ( -1.000000000000000000, 1.056826013124967889E-16, -0.000000000000000000 ) ) ;
#827 = AXIS2_PLACEMENT_3D ( 'NONE', #854, #488, #653 ) ;
#828 = AXIS2_PLACEMENT_3D ( 'NONE', #493, #788, #319 ) ;
#829 = ORIENTED_EDGE ( 'NONE', *, *, #612, .T. ) ;
#830 = CYLINDRICAL_SURFACE ( 'NONE', #489, 4.999999999999997335 ) ;
#831 = LINE ( 'NONE', #753, #936 ) ;
#832 = DIRECTION ( 'NONE',  ( 0.000000000000000000, 0.000000000000000000, 1.000000000000000000 ) ) ;
#833 = CARTESIAN_POINT ( 'NONE',  ( 32.99999999999997158, -13.50000000000005329, 3.000000000000000000 ) ) ;
#834 = EDGE_CURVE ( 'NONE', #671, #477, #121, .T. ) ;
#835 = DIRECTION ( 'NONE',  ( -0.000000000000000000, -0.000000000000000000, -1.000000000000000000 ) ) ;
#836 = ADVANCED_FACE ( 'NONE', ( #643, #550, #395, #784, #779, #841 ), #935, .T. ) ;
#837 = ORIENTED_EDGE ( 'NONE', *, *, #739, .T. ) ;
#838 = VECTOR ( 'NONE', #737, 999.9999999999998863 ) ;
#839 = AXIS2_PLACEMENT_3D ( 'NONE', #369, #286, #517 ) ;
#840 = AXIS2_PLACEMENT_3D ( 'NONE', #310, #229, #601 ) ;
#841 = FACE_BOUND ( 'NONE', #228, .T. ) ;
#842 = ORIENTED_EDGE ( 'NONE', *, *, #843, .F. ) ;
#843 = EDGE_CURVE ( 'NONE', #622, #780, #552, .T. ) ;
#844 = DIRECTION ( 'NONE',  ( 1.000000000000000000, 0.000000000000000000, 0.000000000000000000 ) ) ;
#845 = EDGE_LOOP ( 'NONE', ( #776, #585 ) ) ;
#846 = CARTESIAN_POINT ( 'NONE',  ( 32.82893218813453728, 18.00000000000000000, 3.000000000000000000 ) ) ;
#847 = EDGE_LOOP ( 'NONE', ( #185, #8, #24, #798 ) ) ;
#848 = DIRECTION ( 'NONE',  ( 0.000000000000000000, 0.000000000000000000, 1.000000000000000000 ) ) ;
#849 = EDGE_CURVE ( 'NONE', #642, #716, #253, .T. ) ;
#850 = VERTEX_POINT ( 'NONE', #556 ) ;
#851 = CARTESIAN_POINT ( 'NONE',  ( 39.89999999999999858, -10.92893218813452272, 3.000000000000000000 ) ) ;
#852 = VERTEX_POINT ( 'NONE', #329 ) ;
#853 = PLANE ( 'NONE',  #442 ) ;
#854 = CARTESIAN_POINT ( 'NONE',  ( 32.99999999999997158, -13.50000000000005329, 3.000000000000000000 ) ) ;
#855 = DIRECTION ( 'NONE',  ( -0.000000000000000000, -1.000000000000000000, -0.000000000000000000 ) ) ;
#856 = LINE ( 'NONE', #339, #758 ) ;
#857 = CIRCLE ( 'NONE', #458, 4.999999999999997335 ) ;
#858 = VERTEX_POINT ( 'NONE', #634 ) ;
#859 = CYLINDRICAL_SURFACE ( 'NONE', #76, 10.00000000000000178 ) ;
#860 = ORIENTED_EDGE ( 'NONE', *, *, #834, .T. ) ;
#861 = ORIENTED_EDGE ( 'NONE', *, *, #230, .F. ) ;
#862 = EDGE_CURVE ( 'NONE', #255, #58, #413, .T. ) ;
#863 = CARTESIAN_POINT ( 'NONE',  ( 39.90000000000000568, 10.92893218813450673, 3.000000000000000000 ) ) ;
#864 = ORIENTED_EDGE ( 'NONE', *, *, #290, .F. ) ;
#865 = DIRECTION ( 'NONE',  ( -0.000000000000000000, -0.000000000000000000, -1.000000000000000000 ) ) ;
#866 = EDGE_CURVE ( 'NONE', #702, #307, #35, .T. ) ;
#867 = DIRECTION ( 'NONE',  ( -0.000000000000000000, -0.000000000000000000, -1.000000000000000000 ) ) ;
#868 = VERTEX_POINT ( 'NONE', #39 ) ;
#869 = CARTESIAN_POINT ( 'NONE',  ( -32.82893218813451597, 18.00000000000000711, 3.000000000000000000 ) ) ;
#870 = VECTOR ( 'NONE', #173, 1000.000000000000000 ) ;
#871 = ORIENTED_EDGE ( 'NONE', *, *, #598, .F. ) ;
#872 = AXIS2_PLACEMENT_3D ( 'NONE', #558, #848, #118 ) ;
#873 = AXIS2_PLACEMENT_3D ( 'NONE', #670, #271, #510 ) ;
#874 = CARTESIAN_POINT ( 'NONE',  ( 39.89999999999999858, -10.92893218813452272, 0.000000000000000000 ) ) ;
#875 = CARTESIAN_POINT ( 'NONE',  ( -32.82893218813451597, 18.00000000000000711, 3.000000000000000000 ) ) ;
#876 = ORIENTED_EDGE ( 'NONE', *, *, #261, .T. ) ;
#877 = CARTESIAN_POINT ( 'NONE',  ( -33.00000000000000000, -13.50000000000000178, 0.000000000000000000 ) ) ;
#878 = ADVANCED_FACE ( 'NONE', ( #193 ), #258, .T. ) ;
#879 = FACE_BOUND ( 'NONE', #897, .T. ) ;
#880 = CARTESIAN_POINT ( 'NONE',  ( -39.89999999999999147, -10.92893218813451561, 3.000000000000000000 ) ) ;
#881 = APPLICATION_PROTOCOL_DEFINITION ( 'draft international standard', 'automotive_design', 1998, #347 ) ;
#882 = DIRECTION ( 'NONE',  ( -1.000000000000000000, 1.056826013124967889E-16, -0.000000000000000000 ) ) ;
#883 = CARTESIAN_POINT ( 'NONE',  ( 37.82893218813453018, -15.07106781186546840, 3.000000000000000000 ) ) ;
#884 =( NAMED_UNIT ( * ) PLANE_ANGLE_UNIT ( ) SI_UNIT ( $, .RADIAN. ) );
#885 = AXIS2_PLACEMENT_3D ( 'NONE', #494, #794, #123 ) ;
#886 = ORIENTED_EDGE ( 'NONE', *, *, #543, .T. ) ;
#887 = PLANE ( 'NONE',  #693 ) ;
#888 = CIRCLE ( 'NONE', #198, 1.749999999999991118 ) ;
#889 = CARTESIAN_POINT ( 'NONE',  ( -33.00000000000000000, -13.50000000000000178, 3.000000000000000000 ) ) ;
#890 = CIRCLE ( 'NONE', #968, 9.999999999999998224 ) ;
#891 = FACE_OUTER_BOUND ( 'NONE', #602, .T. ) ;
#892 = ORIENTED_EDGE ( 'NONE', *, *, #530, .T. ) ;
#893 = CARTESIAN_POINT ( 'NONE',  ( 8.099999999999996092, -18.00000000000000000, 0.000000000000000000 ) ) ;
#894 = EDGE_LOOP ( 'NONE', ( #871, #886, #918, #72 ) ) ;
#895 = DIRECTION ( 'NONE',  ( -0.000000000000000000, -0.000000000000000000, -1.000000000000000000 ) ) ;
#896 = CARTESIAN_POINT ( 'NONE',  ( 32.99999999999997158, -13.50000000000005329, 3.000000000000000000 ) ) ;
#897 = EDGE_LOOP ( 'NONE', ( #729, #322 ) ) ;
#898 = DIRECTION ( 'NONE',  ( -0.000000000000000000, -0.000000000000000000, -1.000000000000000000 ) ) ;
#899 = DIRECTION ( 'NONE',  ( -0.000000000000000000, -0.000000000000000000, -1.000000000000000000 ) ) ;
#900 = ORIENTED_EDGE ( 'NONE', *, *, #720, .T. ) ;
#901 = CARTESIAN_POINT ( 'NONE',  ( -32.82893218813451597, 13.00000000000000711, 0.000000000000000000 ) ) ;
#902 = VERTEX_POINT ( 'NONE', #928 ) ;
#903 = DIRECTION ( 'NONE',  ( 0.7071067811865474617, -0.7071067811865474617, -0.000000000000000000 ) ) ;
#904 = VECTOR ( 'NONE', #482, 1000.000000000000000 ) ;
#905 = VECTOR ( 'NONE', #865, 1000.000000000000000 ) ;
#906 = AXIS2_PLACEMENT_3D ( 'NONE', #621, #912, #381 ) ;
#907 = CARTESIAN_POINT ( 'NONE',  ( -39.89999999999999147, 10.92893218813452627, 0.000000000000000000 ) ) ;
#908 = ORIENTED_EDGE ( 'NONE', *, *, #504, .F. ) ;
#909 = EDGE_CURVE ( 'NONE', #481, #868, #856, .T. ) ;
#910 = LINE ( 'NONE', #796, #27 ) ;
#911 = EDGE_CURVE ( 'NONE', #702, #963, #44, .T. ) ;
#912 = DIRECTION ( 'NONE',  ( -1.000000000000000000, 3.174552547521865467E-16, 0.000000000000000000 ) ) ;
#913 = ORIENTED_EDGE ( 'NONE', *, *, #792, .T. ) ;
#914 = CARTESIAN_POINT ( 'NONE',  ( -38.43553390593272923, 14.46446609406726225, 0.000000000000000000 ) ) ;
#915 = CARTESIAN_POINT ( 'NONE',  ( 32.82893218813453018, 13.00000000000000000, 3.000000000000000000 ) ) ;
#916 = LINE ( 'NONE', #706, #509 ) ;
#917 = ORIENTED_EDGE ( 'NONE', *, *, #83, .F. ) ;
#918 = ORIENTED_EDGE ( 'NONE', *, *, #815, .T. ) ;
#919 = VECTOR ( 'NONE', #213, 1000.000000000000000 ) ;
#920 = VECTOR ( 'NONE', #238, 1000.000000000000000 ) ;
#921 = CARTESIAN_POINT ( 'NONE',  ( -34.57893218813451597, 13.00000000000000711, 3.000000000000000000 ) ) ;
#922 = ORIENTED_EDGE ( 'NONE', *, *, #148, .F. ) ;
#923 = DIRECTION ( 'NONE',  ( 1.000000000000000000, 0.000000000000000000, 0.000000000000000000 ) ) ;
#924 = DIRECTION ( 'NONE',  ( 1.000000000000000000, 0.000000000000000000, 0.000000000000000000 ) ) ;
#925 = VERTEX_POINT ( 'NONE', #345 ) ;
#926 = EDGE_CURVE ( 'NONE', #963, #502, #199, .T. ) ;
#927 = LINE ( 'NONE', #262, #265 ) ;
#928 = CARTESIAN_POINT ( 'NONE',  ( -34.75000000000000000, -13.50000000000000178, 0.000000000000000000 ) ) ;
#929 = ORIENTED_EDGE ( 'NONE', *, *, #394, .F. ) ;
#930 = PRODUCT_DEFINITION ( 'UNKNOWN', '', #146, #17 ) ;
#931 = CARTESIAN_POINT ( 'NONE',  ( -31.07893218813451242, 13.00000000000000711, 0.000000000000000000 ) ) ;
#932 = CARTESIAN_POINT ( 'NONE',  ( -32.82893218813451597, 13.00000000000000711, 3.000000000000000000 ) ) ;
#933 = AXIS2_PLACEMENT_3D ( 'NONE', #896, #515, #284 ) ;
#934 = VECTOR ( 'NONE', #809, 1000.000000000000114 ) ;
#935 = PLANE ( 'NONE',  #224 ) ;
#936 = VECTOR ( 'NONE', #826, 1000.000000000000000 ) ;
#937 = CIRCLE ( 'NONE', #665, 10.00000000000000000 ) ;
#938 = ORIENTED_EDGE ( 'NONE', *, *, #247, .F. ) ;
#939 = CARTESIAN_POINT ( 'NONE',  ( 10.00000000000000000, 1.224646799147353256E-15, 0.000000000000000000 ) ) ;
#940 = CARTESIAN_POINT ( 'NONE',  ( 36.36446609406726793, 16.53553390593273775, 3.000000000000000000 ) ) ;
#941 = EDGE_CURVE ( 'NONE', #133, #466, #659, .T. ) ;
#942 = FACE_OUTER_BOUND ( 'NONE', #420, .T. ) ;
#943 = EDGE_CURVE ( 'NONE', #511, #361, #890, .T. ) ;
#944 = CARTESIAN_POINT ( 'NONE',  ( -34.89999999999999147, -10.92893218813451384, 3.000000000000000000 ) ) ;
#945 = FACE_BOUND ( 'NONE', #561, .T. ) ;
#946 = VERTEX_POINT ( 'NONE', #205 ) ;
#947 = DIRECTION ( 'NONE',  ( 1.000000000000000000, 0.000000000000000000, 0.000000000000000000 ) ) ;
#948 = EDGE_CURVE ( 'NONE', #101, #746, #57, .T. ) ;
#949 = CYLINDRICAL_SURFACE ( 'NONE', #646, 1.750000000000001554 ) ;
#950 = CARTESIAN_POINT ( 'NONE',  ( -34.89999999999999147, -17.99999999999999289, 0.000000000000000000 ) ) ;
#951 = CARTESIAN_POINT ( 'NONE',  ( -38.43553390593272923, 14.46446609406726225, 0.000000000000000000 ) ) ;
#952 = EDGE_CURVE ( 'NONE', #511, #58, #423, .T. ) ;
#953 = CIRCLE ( 'NONE', #538, 4.999999999999997335 ) ;
#954 = CARTESIAN_POINT ( 'NONE',  ( 32.82893218813453018, 13.00000000000000000, 3.000000000000000000 ) ) ;
#955 = DIRECTION ( 'NONE',  ( -0.000000000000000000, -0.000000000000000000, -1.000000000000000000 ) ) ;
#956 = EDGE_LOOP ( 'NONE', ( #38, #401, #340, #461 ) ) ;
#957 = CARTESIAN_POINT ( 'NONE',  ( -31.07893218813451242, 13.00000000000000711, 3.000000000000000000 ) ) ;
#958 = CARTESIAN_POINT ( 'NONE',  ( 36.36446609406726793, 16.53553390593273775, 3.000000000000000000 ) ) ;
#959 = SURFACE_STYLE_FILL_AREA ( #67 ) ;
#960 = ORIENTED_EDGE ( 'NONE', *, *, #186, .T. ) ;
#961 = PLANE ( 'NONE',  #615 ) ;
#962 = DIRECTION ( 'NONE',  ( -1.000000000000000000, 0.000000000000000000, 0.000000000000000000 ) ) ;
#963 = VERTEX_POINT ( 'NONE', #863 ) ;
#964 = CARTESIAN_POINT ( 'NONE',  ( -32.82893218813451597, 18.00000000000000711, 0.000000000000000000 ) ) ;
#965 = VECTOR ( 'NONE', #154, 1000.000000000000000 ) ;
#966 = EDGE_LOOP ( 'NONE', ( #407, #300, #508, #632 ) ) ;
#967 = CARTESIAN_POINT ( 'NONE',  ( 34.57893218813450886, 13.00000000000000000, 3.000000000000000000 ) ) ;
#968 = AXIS2_PLACEMENT_3D ( 'NONE', #218, #288, #281 ) ;
#969 =( LENGTH_UNIT ( ) NAMED_UNIT ( * ) SI_UNIT ( .MILLI., .METRE. ) );
ENDSEC;
END-ISO-10303-21;
