ISO-10303-21;
HEADER;
FILE_DESCRIPTION (( 'STEP AP214' ),
    '1' );
FILE_NAME ('camera_tracker_bearing_mount.STEP',
    '2026-05-15T08:59:30',
    ( '' ),
    ( '' ),
    'SwSTEP 2.0',
    'SolidWorks 2024',
    '' );
FILE_SCHEMA (( 'AUTOMOTIVE_DESIGN' ));
ENDSEC;

DATA;
#1 = CARTESIAN_POINT ( 'NONE',  ( -110.8910573976186811, 14.84209800257279355, 8.856764412599165581 ) ) ;
#2 = EDGE_CURVE ( 'NONE', #31, #783, #288, .T. ) ;
#3 = CARTESIAN_POINT ( 'NONE',  ( -120.4433819214197854, -13.83593125723306905, 10.68487172042044975 ) ) ;
#4 = VERTEX_POINT ( 'NONE', #539 ) ;
#5 = AXIS2_PLACEMENT_3D ( 'NONE', #1073, #286, #633 ) ;
#6 = AXIS2_PLACEMENT_3D ( 'NONE', #1014, #1020, #668 ) ;
#7 = ORIENTED_EDGE ( 'NONE', *, *, #123, .T. ) ;
#8 = CARTESIAN_POINT ( 'NONE',  ( -123.6000000000000227, 0.000000000000000000, 0.000000000000000000 ) ) ;
#9 = VECTOR ( 'NONE', #293, 1000.000000000000000 ) ;
#10 = DIRECTION ( 'NONE',  ( -0.000000000000000000, -0.000000000000000000, -1.000000000000000000 ) ) ;
#11 = CARTESIAN_POINT ( 'NONE',  ( -115.6612673713332384, -15.13939201416947178, 8.000000000000000000 ) ) ;
#12 = EDGE_CURVE ( 'NONE', #863, #269, #96, .T. ) ;
#13 = DIRECTION ( 'NONE',  ( 1.000000000000000000, 0.000000000000000000, 0.000000000000000000 ) ) ;
#14 = ORIENTED_EDGE ( 'NONE', *, *, #487, .T. ) ;
#15 = FACE_BOUND ( 'NONE', #53, .T. ) ;
#16 = LINE ( 'NONE', #623, #431 ) ;
#17 = EDGE_LOOP ( 'NONE', ( #1088, #864, #65, #570 ) ) ;
#18 = DIRECTION ( 'NONE',  ( 1.000000000000000000, 0.000000000000000000, 0.000000000000000000 ) ) ;
#19 = CARTESIAN_POINT ( 'NONE',  ( -120.6000000000000085, 12.84999999999998721, 11.88748865697795587 ) ) ;
#20 = ORIENTED_EDGE ( 'NONE', *, *, #714, .F. ) ;
#21 = ADVANCED_FACE ( 'NONE', ( #185 ), #786, .F. ) ;
#22 = AXIS2_PLACEMENT_3D ( 'NONE', #867, #602, #857 ) ;
#23 = CYLINDRICAL_SURFACE ( 'NONE', #815, 3.000000000000002665 ) ;
#24 = CARTESIAN_POINT ( 'NONE',  ( -120.5536183436597071, 12.21651764447389432, 12.51045235665722899 ) ) ;
#25 = ORIENTED_EDGE ( 'NONE', *, *, #239, .F. ) ;
#26 = CARTESIAN_POINT ( 'NONE',  ( -117.6000000000000085, -12.85000000000001563, 8.000000000000000000 ) ) ;
#27 = EDGE_CURVE ( 'NONE', #643, #688, #16, .T. ) ;
#28 = ADVANCED_FACE ( 'NONE', ( #353 ), #974, .F. ) ;
#29 = CARTESIAN_POINT ( 'NONE',  ( -114.6000000000000085, -12.85000000000001563, 11.88748865697795409 ) ) ;
#30 = CARTESIAN_POINT ( 'NONE',  ( -111.5999999999999943, -15.60000000000001563, 4.999999999999999112 ) ) ;
#31 = VERTEX_POINT ( 'NONE', #350 ) ;
#32 = CARTESIAN_POINT ( 'NONE',  ( -111.5999999999999943, -15.60000000000001563, 0.000000000000000000 ) ) ;
#33 = CARTESIAN_POINT ( 'NONE',  ( -114.6000000000000085, 12.84999999999998721, 11.88748865697795587 ) ) ;
#34 = ORIENTED_EDGE ( 'NONE', *, *, #472, .T. ) ;
#35 = DIRECTION ( 'NONE',  ( -0.000000000000000000, -0.000000000000000000, -1.000000000000000000 ) ) ;
#36 = CARTESIAN_POINT ( 'NONE',  ( -117.6000000000000085, 12.84999999999998721, 15.00000000000000000 ) ) ;
#37 = VECTOR ( 'NONE', #899, 1000.000000000000000 ) ;
#38 = MECHANICAL_DESIGN_GEOMETRIC_PRESENTATION_REPRESENTATION (  '', ( #392 ), #541 ) ;
#39 = AXIS2_PLACEMENT_3D ( 'NONE', #903, #46, #404 ) ;
#40 = FACE_OUTER_BOUND ( 'NONE', #624, .T. ) ;
#41 = DIRECTION ( 'NONE',  ( -0.000000000000000000, -0.000000000000000000, -1.000000000000000000 ) ) ;
#42 = EDGE_CURVE ( 'NONE', #597, #715, #194, .T. ) ;
#43 = EDGE_CURVE ( 'NONE', #591, #783, #363, .T. ) ;
#44 = ORIENTED_EDGE ( 'NONE', *, *, #457, .F. ) ;
#45 = CARTESIAN_POINT ( 'NONE',  ( -123.6000000000000227, -4.999999999999999112, 0.000000000000000000 ) ) ;
#46 = DIRECTION ( 'NONE',  ( 0.7071067811865432429, -0.7071067811865517916, 0.000000000000000000 ) ) ;
#47 = CARTESIAN_POINT ( 'NONE',  ( -114.6115559419730943, 12.54004607945655536, 12.20307135326852510 ) ) ;
#48 = ORIENTED_EDGE ( 'NONE', *, *, #511, .F. ) ;
#49 = CARTESIAN_POINT ( 'NONE',  ( -120.6000000000000085, -12.85000000000001563, 8.000000000000000000 ) ) ;
#50 = CARTESIAN_POINT ( 'NONE',  ( -110.6000000000000369, 5.599999999999987210, 15.00000000000000000 ) ) ;
#51 = FACE_OUTER_BOUND ( 'NONE', #91, .T. ) ;
#52 = DIRECTION ( 'NONE',  ( 0.7071067811865504593, 0.7071067811865445751, 0.000000000000000000 ) ) ;
#53 = EDGE_LOOP ( 'NONE', ( #321, #231, #662, #761 ) ) ;
#54 = VERTEX_POINT ( 'NONE', #1053 ) ;
#55 = FACE_OUTER_BOUND ( 'NONE', #213, .T. ) ;
#56 = EDGE_CURVE ( 'NONE', #863, #346, #241, .T. ) ;
#57 = VECTOR ( 'NONE', #651, 1000.000000000000000 ) ;
#58 = CARTESIAN_POINT ( 'NONE',  ( -120.3575222799322546, 14.05086837725152549, 10.35960885860093761 ) ) ;
#59 = FACE_OUTER_BOUND ( 'NONE', #636, .T. ) ;
#60 = VERTEX_POINT ( 'NONE', #310 ) ;
#61 = LINE ( 'NONE', #322, #433 ) ;
#62 = EDGE_CURVE ( 'NONE', #826, #60, #1091, .T. ) ;
#63 = CARTESIAN_POINT ( 'NONE',  ( -119.8014033698370611, 14.91695377146090173, 8.707308532046596383 ) ) ;
#64 = CYLINDRICAL_SURFACE ( 'NONE', #924, 1.750000000000001554 ) ;
#65 = ORIENTED_EDGE ( 'NONE', *, *, #111, .T. ) ;
#66 = ORIENTED_EDGE ( 'NONE', *, *, #793, .F. ) ;
#67 = CARTESIAN_POINT ( 'NONE',  ( -111.0358421061011995, -15.02356125178437729, 8.356862482113813329 ) ) ;
#68 = DIRECTION ( 'NONE',  ( -1.000000000000000000, 0.000000000000000000, 0.000000000000000000 ) ) ;
#69 = ORIENTED_EDGE ( 'NONE', *, *, #457, .T. ) ;
#70 = ORIENTED_EDGE ( 'NONE', *, *, #746, .T. ) ;
#71 = DIRECTION ( 'NONE',  ( 0.000000000000000000, 0.000000000000000000, -1.000000000000000000 ) ) ;
#72 =( NAMED_UNIT ( * ) SI_UNIT ( $, .STERADIAN. ) SOLID_ANGLE_UNIT ( ) );
#73 = PLANE ( 'NONE',  #655 ) ;
#74 = DIRECTION ( 'NONE',  ( 1.000000000000000000, -4.336808689942009847E-16, -0.000000000000000000 ) ) ;
#75 = AXIS2_PLACEMENT_3D ( 'NONE', #1017, #766, #166 ) ;
#76 = AXIS2_PLACEMENT_3D ( 'NONE', #781, #349, #202 ) ;
#77 = EDGE_LOOP ( 'NONE', ( #249, #881, #925, #512 ) ) ;
#78 = EDGE_CURVE ( 'NONE', #531, #1031, #540, .T. ) ;
#79 = EDGE_CURVE ( 'NONE', #304, #269, #922, .T. ) ;
#80 = AXIS2_PLACEMENT_3D ( 'NONE', #769, #499, #1040 ) ;
#81 = EDGE_LOOP ( 'NONE', ( #360, #1107, #574, #821 ) ) ;
#82 = DIRECTION ( 'NONE',  ( 0.000000000000000000, 1.000000000000000000, 0.000000000000000000 ) ) ;
#83 = B_SPLINE_CURVE_WITH_KNOTS ( 'NONE', 3,
 ( #850, #988, #551, #3, #1047, #994, #297, #184, #284, #957 ),
 .UNSPECIFIED., .F., .F.,
 ( 4, 2, 2, 2, 4 ),
 ( 0.01523057287062653913, 0.01639491223576037757, 0.01755925160089421774, 0.01872359096602805445, 0.01988793033116189463 ),
 .UNSPECIFIED. ) ;
#84 = CARTESIAN_POINT ( 'NONE',  ( -111.1857864376269447, 15.18578643762692870, 15.00000000000000000 ) ) ;
#85 = CARTESIAN_POINT ( 'NONE',  ( -123.6000000000000227, 0.000000000000000000, 0.000000000000000000 ) ) ;
#86 = ORIENTED_EDGE ( 'NONE', *, *, #860, .F. ) ;
#87 = ORIENTED_EDGE ( 'NONE', *, *, #1000, .T. ) ;
#88 = CARTESIAN_POINT ( 'NONE',  ( -117.6000000000000085, -12.85000000000001563, 15.00000000000000000 ) ) ;
#89 = CARTESIAN_POINT ( 'NONE',  ( -111.6000000000000085, 15.59999999999998543, 0.000000000000000000 ) ) ;
#90 = CARTESIAN_POINT ( 'NONE',  ( -123.9390567389149282, 15.26094326108506749, 7.994221893942939694 ) ) ;
#91 = EDGE_LOOP ( 'NONE', ( #296, #671, #580, #312 ) ) ;
#92 = ORIENTED_EDGE ( 'NONE', *, *, #472, .F. ) ;
#93 = CARTESIAN_POINT ( 'NONE',  ( -123.6000000000000085, -15.60000000000001030, 0.000000000000000000 ) ) ;
#94 = CYLINDRICAL_SURFACE ( 'NONE', #22, 2.000000000000001776 ) ;
#95 = CARTESIAN_POINT ( 'NONE',  ( -114.6000000000000085, -13.12179034786480969, 11.60139308279165959 ) ) ;
#96 = LINE ( 'NONE', #279, #872 ) ;
#97 = AXIS2_PLACEMENT_3D ( 'NONE', #567, #377, #372 ) ;
#98 = VECTOR ( 'NONE', #891, 1000.000000000000000 ) ;
#99 = EDGE_LOOP ( 'NONE', ( #853, #917, #692, #734 ) ) ;
#100 = DIRECTION ( 'NONE',  ( 1.000000000000000000, 0.000000000000000000, 0.000000000000000000 ) ) ;
#101 = CARTESIAN_POINT ( 'NONE',  ( -110.7293084636274472, 14.49069761572508774, 9.585656737219093060 ) ) ;
#102 = LINE ( 'NONE', #546, #98 ) ;
#103 = ORIENTED_EDGE ( 'NONE', *, *, #747, .F. ) ;
#104 = CARTESIAN_POINT ( 'NONE',  ( -118.6824368691789999, -10.04348616591832410, 13.95915697437493819 ) ) ;
#105 = CARTESIAN_POINT ( 'NONE',  ( -116.5175631308210313, 10.04348616591829924, 13.95915697437493819 ) ) ;
#106 = EDGE_CURVE ( 'NONE', #771, #591, #1077, .T. ) ;
#107 = ORIENTED_EDGE ( 'NONE', *, *, #56, .T. ) ;
#108 = CARTESIAN_POINT ( 'NONE',  ( -120.1227018907209469, 11.21551222978235351, 13.27687239439615041 ) ) ;
#109 = EDGE_CURVE ( 'NONE', #444, #771, #549, .T. ) ;
#110 = ORIENTED_EDGE ( 'NONE', *, *, #1100, .F. ) ;
#111 = EDGE_CURVE ( 'NONE', #453, #829, #661, .T. ) ;
#112 = VECTOR ( 'NONE', #329, 1000.000000000000000 ) ;
#113 = LINE ( 'NONE', #1076, #9 ) ;
#114 = AXIS2_PLACEMENT_3D ( 'NONE', #690, #10, #949 ) ;
#115 = CARTESIAN_POINT ( 'NONE',  ( -115.8500000000000085, -12.85000000000001563, 8.000000000000000000 ) ) ;
#116 = ORIENTED_EDGE ( 'NONE', *, *, #524, .F. ) ;
#117 = DIRECTION ( 'NONE',  ( -1.000000000000000000, 0.000000000000000000, 0.000000000000000000 ) ) ;
#118 = FACE_OUTER_BOUND ( 'NONE', #121, .T. ) ;
#119 = CARTESIAN_POINT ( 'NONE',  ( -120.4963522395037359, -12.04839338347417410, 12.64622173751714129 ) ) ;
#120 = FACE_OUTER_BOUND ( 'NONE', #244, .T. ) ;
#121 = EDGE_LOOP ( 'NONE', ( #107, #958, #816, #169 ) ) ;
#122 = DIRECTION ( 'NONE',  ( 1.000000000000000000, 0.000000000000000000, -0.000000000000000000 ) ) ;
#123 = EDGE_CURVE ( 'NONE', #1108, #688, #1094, .T. ) ;
#124 = CARTESIAN_POINT ( 'NONE',  ( -117.6000000000000085, 12.84999999999998721, 8.000000000000000000 ) ) ;
#125 = ORIENTED_EDGE ( 'NONE', *, *, #995, .T. ) ;
#126 = PLANE ( 'NONE',  #6 ) ;
#127 = CIRCLE ( 'NONE', #760, 1.750000000000001554 ) ;
#128 = AXIS2_PLACEMENT_3D ( 'NONE', #887, #18, #977 ) ;
#129 = AXIS2_PLACEMENT_3D ( 'NONE', #253, #172, #514 ) ;
#130 = CARTESIAN_POINT ( 'NONE',  ( -110.6000000000000369, -13.77157287525386486, 15.00000000000000000 ) ) ;
#131 = CARTESIAN_POINT ( 'NONE',  ( -115.8500000000000085, 12.84999999999998721, 15.00000000000000000 ) ) ;
#132 = EDGE_LOOP ( 'NONE', ( #177, #334, #963, #792 ) ) ;
#133 = CARTESIAN_POINT ( 'NONE',  ( -111.1857864376269447, 15.18578643762692870, 0.000000000000000000 ) ) ;
#134 = PRODUCT_DEFINITION_SHAPE ( 'NONE', 'NONE',  #1056 ) ;
#135 = CARTESIAN_POINT ( 'NONE',  ( -110.8355402961735194, -14.72209409623452281, 9.106193591373168417 ) ) ;
#136 = CARTESIAN_POINT ( 'NONE',  ( -110.6000000000000369, -5.600000000000018296, 15.00000000000000000 ) ) ;
#137 = EDGE_LOOP ( 'NONE', ( #905, #448, #428, #289, #980, #693 ) ) ;
#138 = ORIENTED_EDGE ( 'NONE', *, *, #658, .F. ) ;
#139 = FILL_AREA_STYLE ('',( #839 ) ) ;
#140 = CARTESIAN_POINT ( 'NONE',  ( -120.6000000000000085, 12.84999999999998721, 11.88748865697795587 ) ) ;
#141 = CARTESIAN_POINT ( 'NONE',  ( -114.7036477604962954, 12.04839338347414390, 12.64622173751714129 ) ) ;
#142 = VERTEX_POINT ( 'NONE', #560 ) ;
#143 = EDGE_CURVE ( 'NONE', #465, #900, #834, .T. ) ;
#144 = VERTEX_POINT ( 'NONE', #471 ) ;
#145 = CARTESIAN_POINT ( 'NONE',  ( -120.2000000000000313, -10.09999999999999964, 0.000000000000000000 ) ) ;
#146 = VECTOR ( 'NONE', #1089, 1000.000000000000000 ) ;
#147 = DIRECTION ( 'NONE',  ( -0.000000000000000000, -0.000000000000000000, -1.000000000000000000 ) ) ;
#148 = PLANE ( 'NONE',  #964 ) ;
#149 = PRODUCT_DEFINITION_FORMATION_WITH_SPECIFIED_SOURCE ( 'ANY', '', #303, .NOT_KNOWN. ) ;
#150 = LINE ( 'NONE', #210, #374 ) ;
#151 =( LENGTH_UNIT ( ) NAMED_UNIT ( * ) SI_UNIT ( .MILLI., .METRE. ) );
#152 = CARTESIAN_POINT ( 'NONE',  ( -110.6736144076926820, -14.36845904664565232, 9.838164113469133554 ) ) ;
#153 = CARTESIAN_POINT ( 'NONE',  ( -114.6000000000000085, 12.84999999999998721, 11.88748865697795587 ) ) ;
#154 = ORIENTED_EDGE ( 'NONE', *, *, #575, .F. ) ;
#155 = VERTEX_POINT ( 'NONE', #894 ) ;
#156 = FACE_BOUND ( 'NONE', #407, .T. ) ;
#157 = ADVANCED_FACE ( 'NONE', ( #120 ), #1012, .F. ) ;
#158 = CARTESIAN_POINT ( 'NONE',  ( -110.6192341749197254, 14.08326614789505982, 10.30192260499235957 ) ) ;
#159 = EDGE_CURVE ( 'NONE', #205, #222, #409, .T. ) ;
#160 = DIRECTION ( 'NONE',  ( -1.000000000000000000, 0.000000000000000000, 0.000000000000000000 ) ) ;
#161 = ORIENTED_EDGE ( 'NONE', *, *, #27, .T. ) ;
#162 = VERTEX_POINT ( 'NONE', #809 ) ;
#163 = DIRECTION ( 'NONE',  ( 0.000000000000000000, 0.000000000000000000, -1.000000000000000000 ) ) ;
#164 = DIRECTION ( 'NONE',  ( 0.000000000000000000, -0.000000000000000000, -1.000000000000000000 ) ) ;
#165 = DIRECTION ( 'NONE',  ( -1.000000000000000000, 0.000000000000000000, -0.000000000000000000 ) ) ;
#166 = DIRECTION ( 'NONE',  ( 0.000000000000000000, 0.000000000000000000, -1.000000000000000000 ) ) ;
#167 = AXIS2_PLACEMENT_3D ( 'NONE', #220, #820, #813 ) ;
#168 = AXIS2_PLACEMENT_3D ( 'NONE', #607, #630, #785 ) ;
#169 = ORIENTED_EDGE ( 'NONE', *, *, #12, .F. ) ;
#170 = AXIS2_PLACEMENT_3D ( 'NONE', #211, #824, #229 ) ;
#171 = ORIENTED_EDGE ( 'NONE', *, *, #1041, .F. ) ;
#172 = DIRECTION ( 'NONE',  ( -0.000000000000000000, -0.000000000000000000, 1.000000000000000000 ) ) ;
#173 = DIRECTION ( 'NONE',  ( -0.000000000000000000, -0.000000000000000000, 1.000000000000000000 ) ) ;
#174 = CARTESIAN_POINT ( 'NONE',  ( -123.9390567389149425, -15.26094326108510124, 7.994221893942921042 ) ) ;
#175 = VERTEX_POINT ( 'NONE', #30 ) ;
#176 = EDGE_CURVE ( 'NONE', #1037, #162, #1004, .T. ) ;
#177 = ORIENTED_EDGE ( 'NONE', *, *, #176, .F. ) ;
#178 = CARTESIAN_POINT ( 'NONE',  ( -124.5999999999999943, -5.600000000000011191, 4.999999999999999112 ) ) ;
#179 = CARTESIAN_POINT ( 'NONE',  ( -124.5999999999999943, -5.600000000000005862, 15.00000000000000000 ) ) ;
#180 = CARTESIAN_POINT ( 'NONE',  ( -115.3985966301629986, -14.91695377146093016, 8.707308532046594607 ) ) ;
#181 = CARTESIAN_POINT ( 'NONE',  ( -115.0782790666426223, 11.21382214049238435, 13.27805817163302926 ) ) ;
#182 = ORIENTED_EDGE ( 'NONE', *, *, #397, .T. ) ;
#183 = CARTESIAN_POINT ( 'NONE',  ( -123.6000000000000085, 15.59999999999998543, 4.999999999999999112 ) ) ;
#184 = CARTESIAN_POINT ( 'NONE',  ( -119.8006130076825571, -14.89815601557036118, 8.699008298823784457 ) ) ;
#185 = FACE_OUTER_BOUND ( 'NONE', #137, .T. ) ;
#186 = AXIS2_PLACEMENT_3D ( 'NONE', #768, #352, #933 ) ;
#187 = ORIENTED_EDGE ( 'NONE', *, *, #1087, .F. ) ;
#188 = AXIS2_PLACEMENT_3D ( 'NONE', #36, #1070, #1064 ) ;
#189 = EDGE_CURVE ( 'NONE', #54, #1058, #200, .T. ) ;
#190 = CARTESIAN_POINT ( 'NONE',  ( -118.4842667896052149, 9.974679128645840720, 13.99250752291816191 ) ) ;
#191 = EDGE_LOOP ( 'NONE', ( #414, #478 ) ) ;
#192 = EDGE_CURVE ( 'NONE', #162, #715, #581, .T. ) ;
#193 = ADVANCED_FACE ( 'NONE', ( #723, #1081 ), #910, .F. ) ;
#194 = LINE ( 'NONE', #282, #652 ) ;
#195 = ORIENTED_EDGE ( 'NONE', *, *, #986, .T. ) ;
#196 = DIRECTION ( 'NONE',  ( -0.7071067811865517916, -0.7071067811865432429, 0.000000000000000000 ) ) ;
#197 = CARTESIAN_POINT ( 'NONE',  ( -114.8176697716962451, -11.71424967340592893, 12.91594915449618597 ) ) ;
#198 = DIRECTION ( 'NONE',  ( -0.000000000000000000, -0.000000000000000000, -1.000000000000000000 ) ) ;
#199 = ORIENTED_EDGE ( 'NONE', *, *, #807, .F. ) ;
#200 = CIRCLE ( 'NONE', #5, 10.00000000000000000 ) ;
#201 = AXIS2_PLACEMENT_3D ( 'NONE', #88, #599, #1032 ) ;
#202 = DIRECTION ( 'NONE',  ( -1.000000000000000000, 0.000000000000000000, 0.000000000000000000 ) ) ;
#203 = CARTESIAN_POINT ( 'NONE',  ( -114.6463816563403668, -12.21651764447392452, 12.51045235665722899 ) ) ;
#204 = DIRECTION ( 'NONE',  ( -1.000000000000000000, 0.000000000000000000, 0.000000000000000000 ) ) ;
#205 = VERTEX_POINT ( 'NONE', #136 ) ;
#206 = EDGE_CURVE ( 'NONE', #516, #142, #729, .T. ) ;
#207 = CARTESIAN_POINT ( 'NONE',  ( -117.6000000000000085, -12.85000000000001563, 15.00000000000000000 ) ) ;
#208 = CARTESIAN_POINT ( 'NONE',  ( -114.8918827262103264, 11.54529494326203398, 13.04330244089116420 ) ) ;
#209 = ORIENTED_EDGE ( 'NONE', *, *, #890, .T. ) ;
#210 = CARTESIAN_POINT ( 'NONE',  ( -123.6000000000000085, 15.59999999999998543, 15.00000000000000000 ) ) ;
#211 = CARTESIAN_POINT ( 'NONE',  ( -117.6000000000000085, -12.85000000000001563, 0.000000000000000000 ) ) ;
#212 = CARTESIAN_POINT ( 'NONE',  ( -114.6631173704169839, 12.21628891372315273, 12.50154634161530609 ) ) ;
#213 = EDGE_LOOP ( 'NONE', ( #199, #932, #274, #647, #1008, #1092, #550, #680 ) ) ;
#214 = CARTESIAN_POINT ( 'NONE',  ( -120.2000000000000313, -10.09999999999999964, 0.000000000000000000 ) ) ;
#215 = CIRCLE ( 'NONE', #836, 1.750000000000001554 ) ;
#216 = AXIS2_PLACEMENT_3D ( 'NONE', #370, #720, #292 ) ;
#217 = AXIS2_PLACEMENT_3D ( 'NONE', #266, #956, #1046 ) ;
#218 = ADVANCED_FACE ( 'NONE', ( #1042 ), #148, .T. ) ;
#219 = DIRECTION ( 'NONE',  ( -1.000000000000000000, 0.000000000000000000, 0.000000000000000000 ) ) ;
#220 = CARTESIAN_POINT ( 'NONE',  ( -111.5999999999999943, -15.60000000000001563, 15.00000000000000000 ) ) ;
#221 = ORIENTED_EDGE ( 'NONE', *, *, #626, .T. ) ;
#222 = VERTEX_POINT ( 'NONE', #230 ) ;
#223 = DIRECTION ( 'NONE',  ( 1.000000000000000000, -0.000000000000000000, -0.000000000000000000 ) ) ;
#224 = CARTESIAN_POINT ( 'NONE',  ( -115.8500000000000085, 12.84999999999998721, 8.000000000000000000 ) ) ;
#225 = DIRECTION ( 'NONE',  ( 0.000000000000000000, 0.000000000000000000, -1.000000000000000000 ) ) ;
#226 = EDGE_CURVE ( 'NONE', #396, #543, #1127, .T. ) ;
#227 = EDGE_CURVE ( 'NONE', #54, #373, #1035, .T. ) ;
#228 = ORIENTED_EDGE ( 'NONE', *, *, #928, .T. ) ;
#229 = DIRECTION ( 'NONE',  ( -1.000000000000000000, 0.000000000000000000, 0.000000000000000000 ) ) ;
#230 = CARTESIAN_POINT ( 'NONE',  ( -110.6000000000000369, -13.77157287525386486, 10.76414752972332955 ) ) ;
#231 = ORIENTED_EDGE ( 'NONE', *, *, #226, .F. ) ;
#232 = VECTOR ( 'NONE', #299, 1000.000000000000000 ) ;
#233 = COLOUR_RGB ( '',0.7921568627450980005, 0.8196078431372548767, 0.9333333333333333481 ) ;
#234 = PLANE ( 'NONE',  #39 ) ;
#235 = FACE_OUTER_BOUND ( 'NONE', #316, .T. ) ;
#236 = ORIENTED_EDGE ( 'NONE', *, *, #486, .F. ) ;
#237 = ORIENTED_EDGE ( 'NONE', *, *, #1054, .T. ) ;
#238 = CYLINDRICAL_SURFACE ( 'NONE', #965, 5.000000000000000000 ) ;
#239 = EDGE_CURVE ( 'NONE', #31, #1043, #315, .T. ) ;
#240 = FACE_OUTER_BOUND ( 'NONE', #701, .T. ) ;
#241 = B_SPLINE_CURVE_WITH_KNOTS ( 'NONE', 3,
 ( #19, #882, #24, #1067, #619, #108, #608, #435, #1048, #628, #700, #268, #190, #443, #533, #880, #446, #869, #105, #358, #264, #1062, #803, #345, #181, #208, #916, #141, #212, #47, #739, #33 ),
 .UNSPECIFIED., .F., .F.,
 ( 4, 2, 2, 2, 2, 2, 2, 2, 2, 2, 2, 2, 2, 2, 2, 4 ),
 ( 0.004669655889331623955, 0.005989770511993488568, 0.006649827823324421308, 0.007309885134655354048, 0.007969942445986286789, 0.008629999757317218662, 0.009290057068648150534, 0.009950114379979084142, 0.01061017169131001775, 0.01127022900264094962, 0.01193028631397188150, 0.01259034362530281337, 0.01325040093663374524, 0.01391045824796467885, 0.01457051555929561072, 0.01523057287062654433 ),
 .UNSPECIFIED. ) ;
#242 = CARTESIAN_POINT ( 'NONE',  ( -123.6000000000000227, 4.999999999999999112, 0.000000000000000000 ) ) ;
#243 = EDGE_LOOP ( 'NONE', ( #998, #758, #842, #257 ) ) ;
#244 = EDGE_LOOP ( 'NONE', ( #620, #195, #69, #913 ) ) ;
#245 = FACE_OUTER_BOUND ( 'NONE', #99, .T. ) ;
#246 = CARTESIAN_POINT ( 'NONE',  ( -120.2000000000000313, 5.000000000000000000, 0.000000000000000000 ) ) ;
#247 = LINE ( 'NONE', #84, #856 ) ;
#248 = CARTESIAN_POINT ( 'NONE',  ( -110.6000000000000369, 13.77157287525382934, 15.00000000000000000 ) ) ;
#249 = ORIENTED_EDGE ( 'NONE', *, *, #967, .F. ) ;
#250 = ORIENTED_EDGE ( 'NONE', *, *, #109, .F. ) ;
#251 = CARTESIAN_POINT ( 'NONE',  ( -124.5999999999999943, -14.60000000000004050, 0.000000000000000000 ) ) ;
#252 = UNCERTAINTY_MEASURE_WITH_UNIT (LENGTH_MEASURE( 1.000000000000000082E-05 ), #762, 'distance_accuracy_value', 'NONE');
#253 = CARTESIAN_POINT ( 'NONE',  ( -117.6000000000000085, -12.85000000000001563, 8.000000000000000000 ) ) ;
#254 = CARTESIAN_POINT ( 'NONE',  ( -120.2000000000000313, 0.000000000000000000, 0.000000000000000000 ) ) ;
#255 = VECTOR ( 'NONE', #706, 1000.000000000000000 ) ;
#256 = AXIS2_PLACEMENT_3D ( 'NONE', #347, #522, #1027 ) ;
#257 = ORIENTED_EDGE ( 'NONE', *, *, #1065, .T. ) ;
#258 = VECTOR ( 'NONE', #1093, 1000.000000000000000 ) ;
#259 = EDGE_LOOP ( 'NONE', ( #415, #333, #492, #1122 ) ) ;
#260 = CARTESIAN_POINT ( 'NONE',  ( -110.6000000000000369, -13.77157287525386486, 0.000000000000000000 ) ) ;
#261 = CYLINDRICAL_SURFACE ( 'NONE', #114, 1.750000000000001554 ) ;
#262 = CYLINDRICAL_SURFACE ( 'NONE', #168, 5.000000000000000000 ) ;
#263 = CARTESIAN_POINT ( 'NONE',  ( -124.5999999999999943, -14.60000000000003695, 9.358898943540618021 ) ) ;
#264 = CARTESIAN_POINT ( 'NONE',  ( -115.9382312279429925, 10.34339634710056721, 13.80465212213953485 ) ) ;
#265 = EDGE_CURVE ( 'NONE', #846, #826, #127, .T. ) ;
#266 = CARTESIAN_POINT ( 'NONE',  ( -117.6000000000000085, -12.85000000000001563, 8.000000000000000000 ) ) ;
#267 = CARTESIAN_POINT ( 'NONE',  ( -119.5387326286667786, -15.13939201416947178, 8.000000000000000000 ) ) ;
#268 = CARTESIAN_POINT ( 'NONE',  ( -118.6907116672424962, 10.04684351341415294, 13.95748632167673797 ) ) ;
#269 = VERTEX_POINT ( 'NONE', #833 ) ;
#270 = B_SPLINE_CURVE_WITH_KNOTS ( 'NONE', 3,
 ( #559, #1099, #152, #135, #645, #67, #915, #494 ),
 .UNSPECIFIED., .F., .F.,
 ( 4, 2, 2, 4 ),
 ( 0.000000000000000000, 0.001650434506732727496, 0.002475651760099083654, 0.003300869013465440246 ),
 .UNSPECIFIED. ) ;
#271 = DIRECTION ( 'NONE',  ( -0.000000000000000000, -0.000000000000000000, -1.000000000000000000 ) ) ;
#272 = CARTESIAN_POINT ( 'NONE',  ( -110.6000000000000369, 4.999999999999984013, 0.000000000000000000 ) ) ;
#273 = CIRCLE ( 'NONE', #709, 5.000000000000000000 ) ;
#274 = ORIENTED_EDGE ( 'NONE', *, *, #827, .T. ) ;
#275 = VECTOR ( 'NONE', #732, 1000.000000000000000 ) ;
#276 = ADVANCED_FACE ( 'NONE', ( #507 ), #678, .T. ) ;
#277 = DIRECTION ( 'NONE',  ( -0.000000000000000000, -0.000000000000000000, -1.000000000000000000 ) ) ;
#278 = CARTESIAN_POINT ( 'NONE',  ( -117.3727650082167884, -9.850395707337895601, 14.05174770514925875 ) ) ;
#279 = CARTESIAN_POINT ( 'NONE',  ( -120.6000000000000085, 12.84999999999998721, 15.00000000000000000 ) ) ;
#280 = ORIENTED_EDGE ( 'NONE', *, *, #684, .F. ) ;
#281 = CARTESIAN_POINT ( 'NONE',  ( -123.6000000000000085, 15.59999999999998543, 0.000000000000000000 ) ) ;
#282 = CARTESIAN_POINT ( 'NONE',  ( -119.3500000000000085, -12.85000000000001563, 15.00000000000000000 ) ) ;
#283 = ORIENTED_EDGE ( 'NONE', *, *, #544, .T. ) ;
#284 = CARTESIAN_POINT ( 'NONE',  ( -119.6699432990633625, -15.02827849304567032, 8.353318478691532434 ) ) ;
#285 = CARTESIAN_POINT ( 'NONE',  ( -117.8166636503721918, -9.849613605440950437, 14.05211491260923040 ) ) ;
#286 = DIRECTION ( 'NONE',  ( 1.000000000000000000, -0.000000000000000000, -0.000000000000000000 ) ) ;
#287 = ADVANCED_FACE ( 'NONE', ( #596 ), #942, .F. ) ;
#288 = CIRCLE ( 'NONE', #1023, 5.000000000000000000 ) ;
#289 = ORIENTED_EDGE ( 'NONE', *, *, #143, .T. ) ;
#290 = AXIS2_PLACEMENT_3D ( 'NONE', #648, #999, #1097 ) ;
#291 = AXIS2_PLACEMENT_3D ( 'NONE', #1015, #855, #164 ) ;
#292 = DIRECTION ( 'NONE',  ( -1.000000000000000000, 0.000000000000000000, 0.000000000000000000 ) ) ;
#293 = DIRECTION ( 'NONE',  ( -0.000000000000000000, -0.000000000000000000, -1.000000000000000000 ) ) ;
#294 = CARTESIAN_POINT ( 'NONE',  ( -117.6000000000000085, -12.85000000000001563, 8.000000000000000000 ) ) ;
#295 = B_SPLINE_CURVE_WITH_KNOTS ( 'NONE', 3,
 ( #1110, #874, #1, #101, #697, #158, #518, #934 ),
 .UNSPECIFIED., .F., .F.,
 ( 4, 2, 2, 4 ),
 ( 0.000000000000000000, 0.001649346058815073356, 0.002474019088222614154, 0.003298692117630154953 ),
 .UNSPECIFIED. ) ;
#296 = ORIENTED_EDGE ( 'NONE', *, *, #843, .F. ) ;
#297 = CARTESIAN_POINT ( 'NONE',  ( -120.0460904052798981, -14.59765053797843315, 9.379572180141680704 ) ) ;
#298 = CARTESIAN_POINT ( 'NONE',  ( -123.6000000000000227, -4.999999999999999112, 0.000000000000000000 ) ) ;
#299 = DIRECTION ( 'NONE',  ( -0.7071067811865504593, 0.7071067811865445751, 0.000000000000000000 ) ) ;
#300 = ORIENTED_EDGE ( 'NONE', *, *, #384, .T. ) ;
#301 = LINE ( 'NONE', #996, #1115 ) ;
#302 = CARTESIAN_POINT ( 'NONE',  ( -124.5999999999999943, -14.60000000000004050, 15.00000000000000000 ) ) ;
#303 = PRODUCT ( 'camera_tracker_bearing_mount', 'camera_tracker_bearing_mount', '', ( #675 ) ) ;
#304 = VERTEX_POINT ( 'NONE', #490 ) ;
#305 = PLANE ( 'NONE',  #724 ) ;
#306 = ADVANCED_FACE ( 'NONE', ( #59 ), #691, .F. ) ;
#307 = EDGE_CURVE ( 'NONE', #1037, #597, #215, .T. ) ;
#308 = CIRCLE ( 'NONE', #508, 3.000000000000002665 ) ;
#309 = LINE ( 'NONE', #669, #275 ) ;
#310 = CARTESIAN_POINT ( 'NONE',  ( -115.8500000000000085, 12.84999999999998721, 0.000000000000000000 ) ) ;
#311 = ORIENTED_EDGE ( 'NONE', *, *, #807, .T. ) ;
#312 = ORIENTED_EDGE ( 'NONE', *, *, #78, .T. ) ;
#313 = SURFACE_STYLE_USAGE ( .BOTH. , #391 ) ;
#314 = CARTESIAN_POINT ( 'NONE',  ( -120.6000000000000512, 13.12179034786478482, 11.60139308279165782 ) ) ;
#315 = LINE ( 'NONE', #242, #615 ) ;
#316 = EDGE_LOOP ( 'NONE', ( #993, #673, #629 ) ) ;
#317 = CARTESIAN_POINT ( 'NONE',  ( -114.7566180785802175, 13.83593125723304063, 10.68487172042044975 ) ) ;
#318 = DIRECTION ( 'NONE',  ( -1.000000000000000000, -0.000000000000000000, 0.000000000000000000 ) ) ;
#319 = LINE ( 'NONE', #935, #1079 ) ;
#320 = ORIENTED_EDGE ( 'NONE', *, *, #791, .F. ) ;
#321 = ORIENTED_EDGE ( 'NONE', *, *, #397, .F. ) ;
#322 = CARTESIAN_POINT ( 'NONE',  ( -119.3500000000000085, 12.84999999999998721, 15.00000000000000000 ) ) ;
#323 = APPLICATION_PROTOCOL_DEFINITION ( 'draft international standard', 'automotive_design', 1998, #553 ) ;
#324 = AXIS2_PLACEMENT_3D ( 'NONE', #463, #825, #997 ) ;
#325 = FACE_OUTER_BOUND ( 'NONE', #587, .T. ) ;
#326 = CARTESIAN_POINT ( 'NONE',  ( -124.5999999999999943, 14.60000000000001030, 0.000000000000000000 ) ) ;
#327 = ORIENTED_EDGE ( 'NONE', *, *, #1001, .F. ) ;
#328 = ORIENTED_EDGE ( 'NONE', *, *, #725, .T. ) ;
#329 = DIRECTION ( 'NONE',  ( 1.000000000000000000, -0.000000000000000000, -0.000000000000000000 ) ) ;
#330 = DIRECTION ( 'NONE',  ( 1.000000000000000000, 0.000000000000000000, 0.000000000000000000 ) ) ;
#331 = LINE ( 'NONE', #89, #948 ) ;
#332 = LINE ( 'NONE', #1029, #344 ) ;
#333 = ORIENTED_EDGE ( 'NONE', *, *, #1001, .T. ) ;
#334 = ORIENTED_EDGE ( 'NONE', *, *, #307, .T. ) ;
#335 = EDGE_CURVE ( 'NONE', #155, #496, #319, .T. ) ;
#336 = DIRECTION ( 'NONE',  ( -1.000000000000000000, 0.000000000000000000, 0.000000000000000000 ) ) ;
#337 = DIRECTION ( 'NONE',  ( -1.000000000000000000, 0.000000000000000000, 0.000000000000000000 ) ) ;
#338 = ORIENTED_EDGE ( 'NONE', *, *, #159, .F. ) ;
#339 =( NAMED_UNIT ( * ) SI_UNIT ( $, .STERADIAN. ) SOLID_ANGLE_UNIT ( ) );
#340 = UNCERTAINTY_MEASURE_WITH_UNIT (LENGTH_MEASURE( 1.000000000000000082E-05 ), #151, 'distance_accuracy_value', 'NONE');
#341 = ADVANCED_FACE ( 'NONE', ( #841 ), #64, .F. ) ;
#342 = AXIS2_PLACEMENT_3D ( 'NONE', #481, #904, #225 ) ;
#343 = CARTESIAN_POINT ( 'NONE',  ( -114.8424777200678051, -14.05086837725155036, 10.35960885860093761 ) ) ;
#344 = VECTOR ( 'NONE', #500, 1000.000000000000000 ) ;
#345 = CARTESIAN_POINT ( 'NONE',  ( -115.1908820873956927, 11.05098084875884190, 13.38565102923896433 ) ) ;
#346 = VERTEX_POINT ( 'NONE', #153 ) ;
#347 = CARTESIAN_POINT ( 'NONE',  ( -120.2000000000000313, 0.000000000000000000, 0.000000000000000000 ) ) ;
#348 = FACE_OUTER_BOUND ( 'NONE', #17, .T. ) ;
#349 = DIRECTION ( 'NONE',  ( 0.000000000000000000, 0.000000000000000000, -1.000000000000000000 ) ) ;
#350 = CARTESIAN_POINT ( 'NONE',  ( -110.6000000000000369, 5.000000000000000000, 0.000000000000000000 ) ) ;
#351 = ORIENTED_EDGE ( 'NONE', *, *, #143, .F. ) ;
#352 = DIRECTION ( 'NONE',  ( -0.7071067811865445751, -0.7071067811865504593, 0.000000000000000000 ) ) ;
#353 = FACE_OUTER_BOUND ( 'NONE', #1063, .T. ) ;
#354 = ORIENTED_EDGE ( 'NONE', *, *, #658, .T. ) ;
#355 = ADVANCED_FACE ( 'NONE', ( #753 ), #1106, .T. ) ;
#356 = LINE ( 'NONE', #1060, #618 ) ;
#357 = CARTESIAN_POINT ( 'NONE',  ( -116.5092883327574924, -10.04684351341418314, 13.95748632167673797 ) ) ;
#358 = CARTESIAN_POINT ( 'NONE',  ( -116.1205545918732014, 10.23094849973840503, 13.86371135535047294 ) ) ;
#359 = VECTOR ( 'NONE', #318, 1000.000000000000000 ) ;
#360 = ORIENTED_EDGE ( 'NONE', *, *, #62, .F. ) ;
#361 = AXIS2_PLACEMENT_3D ( 'NONE', #884, #469, #823 ) ;
#362 = CARTESIAN_POINT ( 'NONE',  ( -116.7157332103948022, -9.974679128645869142, 13.99250752291816191 ) ) ;
#363 = LINE ( 'NONE', #272, #255 ) ;
#364 = ORIENTED_EDGE ( 'NONE', *, *, #746, .F. ) ;
#365 = CARTESIAN_POINT ( 'NONE',  ( -114.6361958905304448, -13.37292957203148269, 11.30331242362009547 ) ) ;
#366 = ADVANCED_FACE ( 'NONE', ( #235 ), #930, .F. ) ;
#367 = CARTESIAN_POINT ( 'NONE',  ( -117.1491002841736986, -9.875762733958307393, 14.03995918526421249 ) ) ;
#368 = CARTESIAN_POINT ( 'NONE',  ( -115.8500000000000085, -12.85000000000001563, 15.00000000000000000 ) ) ;
#369 = VERTEX_POINT ( 'NONE', #405 ) ;
#370 = CARTESIAN_POINT ( 'NONE',  ( -117.6000000000000085, 12.84999999999998721, 0.000000000000000000 ) ) ;
#371 = CYLINDRICAL_SURFACE ( 'NONE', #188, 3.000000000000002665 ) ;
#372 = DIRECTION ( 'NONE',  ( -1.000000000000000000, 0.000000000000000000, 0.000000000000000000 ) ) ;
#373 = VERTEX_POINT ( 'NONE', #757 ) ;
#374 = VECTOR ( 'NONE', #474, 1000.000000000000000 ) ;
#375 = CARTESIAN_POINT ( 'NONE',  ( -123.6000000000000085, 15.59999999999998543, 0.000000000000000000 ) ) ;
#376 = LINE ( 'NONE', #281, #529 ) ;
#377 = DIRECTION ( 'NONE',  ( 0.000000000000000000, 0.000000000000000000, -1.000000000000000000 ) ) ;
#378 = VERTEX_POINT ( 'NONE', #326 ) ;
#379 = EDGE_CURVE ( 'NONE', #1058, #465, #332, .T. ) ;
#380 = B_SPLINE_CURVE_WITH_KNOTS ( 'NONE', 3,
 ( #565, #1109, #386, #317, #918, #468, #745, #907, #735, #751 ),
 .UNSPECIFIED., .F., .F.,
 ( 4, 2, 2, 2, 4 ),
 ( 0.01523057287062654433, 0.01639491223576038451, 0.01755925160089422121, 0.01872359096602806139, 0.01988793033116190156 ),
 .UNSPECIFIED. ) ;
#381 = DIRECTION ( 'NONE',  ( -0.000000000000000000, -0.000000000000000000, -1.000000000000000000 ) ) ;
#382 = DIRECTION ( 'NONE',  ( 0.000000000000000000, 0.000000000000000000, 1.000000000000000000 ) ) ;
#383 = EDGE_LOOP ( 'NONE', ( #971, #92, #991, #804 ) ) ;
#384 = EDGE_CURVE ( 'NONE', #509, #396, #83, .T. ) ;
#385 = ADVANCED_FACE ( 'NONE', ( #1052 ), #262, .F. ) ;
#386 = CARTESIAN_POINT ( 'NONE',  ( -114.6365563708989299, 13.37429290686237771, 11.30148394823106983 ) ) ;
#387 = APPLICATION_CONTEXT ( 'automotive_design' ) ;
#388 = DIRECTION ( 'NONE',  ( 0.000000000000000000, 1.000000000000000000, 0.000000000000000000 ) ) ;
#389 = CARTESIAN_POINT ( 'NONE',  ( -123.6000000000000227, 4.999999999999999112, 0.000000000000000000 ) ) ;
#390 = EDGE_LOOP ( 'NONE', ( #788, #1036 ) ) ;
#391 = SURFACE_SIDE_STYLE ('',( #479 ) ) ;
#392 = STYLED_ITEM ( 'NONE', ( #663 ), #568 ) ;
#393 = VECTOR ( 'NONE', #381, 1000.000000000000000 ) ;
#394 = CARTESIAN_POINT ( 'NONE',  ( -120.4429854525889425, 13.83743296125933675, 10.68285842250911166 ) ) ;
#395 = CARTESIAN_POINT ( 'NONE',  ( -117.6000000000000085, -12.85000000000001563, 8.000000000000000000 ) ) ;
#396 = VERTEX_POINT ( 'NONE', #267 ) ;
#397 = EDGE_CURVE ( 'NONE', #543, #4, #679, .T. ) ;
#398 = CARTESIAN_POINT ( 'NONE',  ( -110.6000000000000369, -5.000000000000000000, 0.000000000000000000 ) ) ;
#399 = CARTESIAN_POINT ( 'NONE',  ( -112.6000000000000369, -13.77157287525386486, 15.00000000000000000 ) ) ;
#400 = EDGE_LOOP ( 'NONE', ( #1007, #20, #1013, #847 ) ) ;
#401 = ORIENTED_EDGE ( 'NONE', *, *, #416, .F. ) ;
#402 = CARTESIAN_POINT ( 'NONE',  ( -120.2000000000000313, 10.09999999999999964, 0.000000000000000000 ) ) ;
#403 = DIRECTION ( 'NONE',  ( 0.000000000000000000, 1.000000000000000000, 0.000000000000000000 ) ) ;
#404 = DIRECTION ( 'NONE',  ( 0.7071067811865517916, 0.7071067811865432429, 0.000000000000000000 ) ) ;
#405 = CARTESIAN_POINT ( 'NONE',  ( -111.1857864376269447, -15.18578643762697133, 7.848279897097041768 ) ) ;
#406 = ORIENTED_EDGE ( 'NONE', *, *, #1065, .F. ) ;
#407 = EDGE_LOOP ( 'NONE', ( #154, #236 ) ) ;
#408 = CARTESIAN_POINT ( 'NONE',  ( -112.6000000000000369, -13.77157287525386486, 0.000000000000000000 ) ) ;
#409 = CIRCLE ( 'NONE', #795, 10.00000000000000000 ) ;
#410 = CIRCLE ( 'NONE', #982, 3.000000000000002665 ) ;
#411 = DIRECTION ( 'NONE',  ( 0.000000000000000000, 0.000000000000000000, -1.000000000000000000 ) ) ;
#412 = CARTESIAN_POINT ( 'NONE',  ( -117.6000000000000085, 12.84999999999998721, 15.00000000000000000 ) ) ;
#413 = VECTOR ( 'NONE', #572, 1000.000000000000000 ) ;
#414 = ORIENTED_EDGE ( 'NONE', *, *, #265, .F. ) ;
#415 = ORIENTED_EDGE ( 'NONE', *, *, #1033, .F. ) ;
#416 = EDGE_CURVE ( 'NONE', #378, #829, #961, .T. ) ;
#417 = LINE ( 'NONE', #251, #601 ) ;
#418 = CARTESIAN_POINT ( 'NONE',  ( -111.5999999999999943, -15.60000000000001563, 4.999999999999999112 ) ) ;
#419 = DIRECTION ( 'NONE',  ( 1.000000000000000000, 0.000000000000000000, 0.000000000000000000 ) ) ;
#420 = EDGE_LOOP ( 'NONE', ( #66, #283, #987, #562, #800, #502, #250, #103, #726, #401, #187, #1082, #835, #406, #586, #598, #427, #667, #138, #7, #707, #328 ) ) ;
#421 = ORIENTED_EDGE ( 'NONE', *, *, #952, .F. ) ;
#422 = DIRECTION ( 'NONE',  ( -1.000000000000000000, 0.000000000000000000, 0.000000000000000000 ) ) ;
#423 = EDGE_CURVE ( 'NONE', #175, #1049, #515, .T. ) ;
#424 = ADVANCED_FACE ( 'NONE', ( #1069, #862 ), #896, .T. ) ;
#425 = DIRECTION ( 'NONE',  ( 0.000000000000000000, 0.000000000000000000, -1.000000000000000000 ) ) ;
#426 = CARTESIAN_POINT ( 'NONE',  ( -114.6000000000000085, -12.85000000000001563, 11.88748865697795409 ) ) ;
#427 = ORIENTED_EDGE ( 'NONE', *, *, #1125, .T. ) ;
#428 = ORIENTED_EDGE ( 'NONE', *, *, #523, .F. ) ;
#429 = PLANE ( 'NONE',  #186 ) ;
#430 = CARTESIAN_POINT ( 'NONE',  ( -124.5999999999999943, 14.60000000000001030, 15.00000000000000000 ) ) ;
#431 = VECTOR ( 'NONE', #782, 1000.000000000000000 ) ;
#432 = CARTESIAN_POINT ( 'NONE',  ( -124.5999999999999943, 14.60000000000001030, 0.000000000000000000 ) ) ;
#433 = VECTOR ( 'NONE', #1103, 1000.000000000000000 ) ;
#434 = VECTOR ( 'NONE', #819, 1000.000000000000000 ) ;
#435 = CARTESIAN_POINT ( 'NONE',  ( -119.7484021211171950, 10.74629387222798371, 13.57605814623870266 ) ) ;
#436 = VERTEX_POINT ( 'NONE', #1075 ) ;
#437 = FACE_BOUND ( 'NONE', #870, .T. ) ;
#438 = CARTESIAN_POINT ( 'NONE',  ( -124.5999999999999943, 5.599999999999990763, 15.00000000000000000 ) ) ;
#439 = EDGE_CURVE ( 'NONE', #900, #889, #972, .T. ) ;
#440 = EDGE_CURVE ( 'NONE', #269, #719, #1005, .T. ) ;
#441 = VERTEX_POINT ( 'NONE', #375 ) ;
#442 = CARTESIAN_POINT ( 'NONE',  ( -120.5368826295830473, -12.21628891372318293, 12.50154634161530609 ) ) ;
#443 = CARTESIAN_POINT ( 'NONE',  ( -118.0508997158262758, 9.875762733958278972, 14.03995918526421249 ) ) ;
#444 = VERTEX_POINT ( 'NONE', #32 ) ;
#445 = DIRECTION ( 'NONE',  ( 0.000000000000000000, 0.000000000000000000, -1.000000000000000000 ) ) ;
#446 = CARTESIAN_POINT ( 'NONE',  ( -117.1576962864374138, 9.874549434241103540, 14.04052674075823148 ) ) ;
#447 = VECTOR ( 'NONE', #733, 1000.000000000000000 ) ;
#448 = ORIENTED_EDGE ( 'NONE', *, *, #660, .T. ) ;
#449 = VECTOR ( 'NONE', #403, 1000.000000000000000 ) ;
#450 = ADVANCED_FACE ( 'NONE', ( #461 ), #698, .F. ) ;
#451 = CARTESIAN_POINT ( 'NONE',  ( -115.1877721019994141, -11.05490453898581471, 13.38314561590998863 ) ) ;
#452 = DIRECTION ( 'NONE',  ( -1.000000000000000000, 0.000000000000000000, 0.000000000000000000 ) ) ;
#453 = VERTEX_POINT ( 'NONE', #613 ) ;
#454 =( BOUNDED_CURVE ( )  B_SPLINE_CURVE ( 3, ( #774, #532, #1078, #717 ),
 .UNSPECIFIED., .F., .F. ) 
 B_SPLINE_CURVE_WITH_KNOTS ( ( 4, 4 ),
 ( 3.141592653589793116, 3.430419633912789035 ),
 .UNSPECIFIED. ) 
 CURVE ( )  GEOMETRIC_REPRESENTATION_ITEM ( )  RATIONAL_B_SPLINE_CURVE ( ( 1.000000000000000000, 0.9930603212714743666, 0.9930603212714743666, 1.000000000000000000 ) ) 
 REPRESENTATION_ITEM ( '' )  );
#455 = CARTESIAN_POINT ( 'NONE',  ( -119.3500000000000085, 12.84999999999998721, 0.000000000000000000 ) ) ;
#456 = LINE ( 'NONE', #552, #764 ) ;
#457 = EDGE_CURVE ( 'NONE', #175, #444, #102, .T. ) ;
#458 = CARTESIAN_POINT ( 'NONE',  ( -119.5963265698145221, -10.60072955135110995, 13.66108606652925239 ) ) ;
#459 = CARTESIAN_POINT ( 'NONE',  ( -110.6000000000000369, -5.600000000000017408, 4.999999999999999112 ) ) ;
#460 = EDGE_LOOP ( 'NONE', ( #327, #517, #1114, #351, #895, #1026, #421 ) ) ;
#461 = FACE_OUTER_BOUND ( 'NONE', #132, .T. ) ;
#462 = CARTESIAN_POINT ( 'NONE',  ( -119.2617687720570387, -10.34339634710059386, 13.80465212213953308 ) ) ;
#463 = CARTESIAN_POINT ( 'NONE',  ( -112.6000000000000369, -13.77157287525386486, 0.000000000000000000 ) ) ;
#464 = VECTOR ( 'NONE', #74, 1000.000000000000000 ) ;
#465 = VERTEX_POINT ( 'NONE', #438 ) ;
#466 = CIRCLE ( 'NONE', #1113, 10.00000000000000000 ) ;
#467 = AXIS2_PLACEMENT_3D ( 'NONE', #631, #547, #649 ) ;
#468 = CARTESIAN_POINT ( 'NONE',  ( -115.0384921672553844, 14.42631058870111538, 9.715804932919976267 ) ) ;
#469 = DIRECTION ( 'NONE',  ( 0.000000000000000000, 0.000000000000000000, 1.000000000000000000 ) ) ;
#470 = CARTESIAN_POINT ( 'NONE',  ( -119.5387326286667786, 15.13939201416944336, 8.000000000000000000 ) ) ;
#471 = CARTESIAN_POINT ( 'NONE',  ( -120.2000000000000313, -5.000000000000000000, 0.000000000000000000 ) ) ;
#472 = EDGE_CURVE ( 'NONE', #1031, #543, #410, .T. ) ;
#473 = EDGE_LOOP ( 'NONE', ( #1024, #944, #1055, #48 ) ) ;
#474 = DIRECTION ( 'NONE',  ( -0.000000000000000000, -0.000000000000000000, -1.000000000000000000 ) ) ;
#475 = CARTESIAN_POINT ( 'NONE',  ( -119.3500000000000085, -12.85000000000001563, 0.000000000000000000 ) ) ;
#476 = DIRECTION ( 'NONE',  ( 0.000000000000000000, 0.000000000000000000, -1.000000000000000000 ) ) ;
#477 = VERTEX_POINT ( 'NONE', #455 ) ;
#478 = ORIENTED_EDGE ( 'NONE', *, *, #912, .F. ) ;
#479 = SURFACE_STYLE_FILL_AREA ( #139 ) ;
#480 = CARTESIAN_POINT ( 'NONE',  ( -120.0591561456635787, 14.62104686173640289, 9.380758759124997681 ) ) ;
#481 = CARTESIAN_POINT ( 'NONE',  ( -124.5999999999999943, 5.599999999999987210, 4.999999999999999112 ) ) ;
#482 = ORIENTED_EDGE ( 'NONE', *, *, #666, .T. ) ;
#483 = FACE_OUTER_BOUND ( 'NONE', #837, .T. ) ;
#484 = CARTESIAN_POINT ( 'NONE',  ( -115.0000000000000284, -13.77157287525386486, 0.000000000000000000 ) ) ;
#485 = VECTOR ( 'NONE', #558, 1000.000000000000000 ) ;
#486 = EDGE_CURVE ( 'NONE', #60, #477, #742, .T. ) ;
#487 = EDGE_CURVE ( 'NONE', #369, #771, #637, .T. ) ;
#488 = CIRCLE ( 'NONE', #361, 2.000000000000001776 ) ;
#489 = LINE ( 'NONE', #1011, #413 ) ;
#490 = CARTESIAN_POINT ( 'NONE',  ( -114.6000000000000085, 12.84999999999998721, 8.000000000000000000 ) ) ;
#491 = ORIENTED_EDGE ( 'NONE', *, *, #335, .F. ) ;
#492 = ORIENTED_EDGE ( 'NONE', *, *, #978, .T. ) ;
#493 = PLANE ( 'NONE',  #290 ) ;
#494 = CARTESIAN_POINT ( 'NONE',  ( -111.1857864376269447, -15.18578643762697133, 7.848279897097041768 ) ) ;
#495 = CARTESIAN_POINT ( 'NONE',  ( -117.6000000000000085, 12.84999999999998721, 15.00000000000000000 ) ) ;
#496 = VERTEX_POINT ( 'NONE', #402 ) ;
#497 = ORIENTED_EDGE ( 'NONE', *, *, #106, .T. ) ;
#498 = DIRECTION ( 'NONE',  ( 1.000000000000000000, -0.000000000000000000, -0.000000000000000000 ) ) ;
#499 = DIRECTION ( 'NONE',  ( 1.000000000000000000, 0.000000000000000000, 0.000000000000000000 ) ) ;
#500 = DIRECTION ( 'NONE',  ( -1.000000000000000000, 0.000000000000000000, 0.000000000000000000 ) ) ;
#501 = ADVANCED_FACE ( 'NONE', ( #55 ), #493, .F. ) ;
#502 = ORIENTED_EDGE ( 'NONE', *, *, #106, .F. ) ;
#503 = ORIENTED_EDGE ( 'NONE', *, *, #1039, .T. ) ;
#504 = CARTESIAN_POINT ( 'NONE',  ( -115.0000000000000284, -5.000000000000000000, 0.000000000000000000 ) ) ;
#505 = CIRCLE ( 'NONE', #779, 1.750000000000001554 ) ;
#506 = CARTESIAN_POINT ( 'NONE',  ( -111.5999999999999943, -15.60000000000001741, 5.966118216318350598 ) ) ;
#507 = FACE_OUTER_BOUND ( 'NONE', #1128, .T. ) ;
#508 = AXIS2_PLACEMENT_3D ( 'NONE', #1126, #425, #336 ) ;
#509 = VERTEX_POINT ( 'NONE', #582 ) ;
#510 = EDGE_CURVE ( 'NONE', #346, #1121, #380, .T. ) ;
#511 = EDGE_CURVE ( 'NONE', #846, #477, #61, .T. ) ;
#512 = ORIENTED_EDGE ( 'NONE', *, *, #1087, .T. ) ;
#513 = DIRECTION ( 'NONE',  ( 0.000000000000000000, -1.000000000000000000, 0.000000000000000000 ) ) ;
#514 = DIRECTION ( 'NONE',  ( -1.000000000000000000, 0.000000000000000000, 0.000000000000000000 ) ) ;
#515 = LINE ( 'NONE', #519, #583 ) ;
#516 = VERTEX_POINT ( 'NONE', #133 ) ;
#517 = ORIENTED_EDGE ( 'NONE', *, *, #609, .F. ) ;
#518 = CARTESIAN_POINT ( 'NONE',  ( -110.6000000000000512, 13.93233630050887051, 10.53624044747521182 ) ) ;
#519 = CARTESIAN_POINT ( 'NONE',  ( -123.6000000000000085, -15.60000000000001030, 4.999999999999999112 ) ) ;
#520 = DIRECTION ( 'NONE',  ( -0.000000000000000000, -0.000000000000000000, -1.000000000000000000 ) ) ;
#521 = EDGE_LOOP ( 'NONE', ( #605, #237, #354, #741 ) ) ;
#522 = DIRECTION ( 'NONE',  ( 1.000000000000000000, -0.000000000000000000, -0.000000000000000000 ) ) ;
#523 = EDGE_CURVE ( 'NONE', #465, #943, #927, .T. ) ;
#524 = EDGE_CURVE ( 'NONE', #889, #441, #150, .T. ) ;
#525 = DIRECTION ( 'NONE',  ( -0.7071067811865487940, 0.7071067811865463515, 0.000000000000000000 ) ) ;
#526 = AXIS2_PLACEMENT_3D ( 'NONE', #1057, #198, #452 ) ;
#527 = DIRECTION ( 'NONE',  ( -1.000000000000000000, 4.336808689942009847E-16, -0.000000000000000000 ) ) ;
#528 = VECTOR ( 'NONE', #644, 1000.000000000000000 ) ;
#529 = VECTOR ( 'NONE', #196, 1000.000000000000000 ) ;
#530 = DIRECTION ( 'NONE',  ( -0.000000000000000000, 0.000000000000000000, -1.000000000000000000 ) ) ;
#531 = VERTEX_POINT ( 'NONE', #49 ) ;
#532 = CARTESIAN_POINT ( 'NONE',  ( -111.6000000000000085, 15.59999999999998721, 5.966118216318363920 ) ) ;
#533 = CARTESIAN_POINT ( 'NONE',  ( -117.8272349917832571, 9.850395707337867179, 14.05174770514926408 ) ) ;
#534 = EDGE_LOOP ( 'NONE', ( #906, #300, #228 ) ) ;
#535 = ADVANCED_FACE ( 'NONE', ( #902 ), #126, .F. ) ;
#536 = ORIENTED_EDGE ( 'NONE', *, *, #379, .T. ) ;
#537 = DIRECTION ( 'NONE',  ( 0.000000000000000000, 1.000000000000000000, 0.000000000000000000 ) ) ;
#538 = CARTESIAN_POINT ( 'NONE',  ( -115.0772981092790985, -11.21551222978238371, 13.27687239439615041 ) ) ;
#539 = CARTESIAN_POINT ( 'NONE',  ( -114.6000000000000085, -12.85000000000001563, 11.88748865697795409 ) ) ;
#540 = CIRCLE ( 'NONE', #600, 3.000000000000002665 ) ;
#541 =( GEOMETRIC_REPRESENTATION_CONTEXT ( 3 ) GLOBAL_UNCERTAINTY_ASSIGNED_CONTEXT ( ( #252 ) ) GLOBAL_UNIT_ASSIGNED_CONTEXT ( ( #762, #1123, #339 ) ) REPRESENTATION_CONTEXT ( 'NONE', 'WORKASPACE' ) );
#542 = ADVANCED_FACE ( 'NONE', ( #483 ), #305, .T. ) ;
#543 = VERTEX_POINT ( 'NONE', #817 ) ;
#544 = EDGE_CURVE ( 'NONE', #1068, #436, #1009, .T. ) ;
#545 = AXIS2_PLACEMENT_3D ( 'NONE', #941, #411, #165 ) ;
#546 = CARTESIAN_POINT ( 'NONE',  ( -111.5999999999999943, -15.60000000000001563, 15.00000000000000000 ) ) ;
#547 = DIRECTION ( 'NONE',  ( -1.000000000000000000, -0.000000000000000000, -0.000000000000000000 ) ) ;
#548 = CARTESIAN_POINT ( 'NONE',  ( -120.1217209333574090, -11.21382214049241455, 13.27805817163302926 ) ) ;
#549 = LINE ( 'NONE', #718, #885 ) ;
#550 = ORIENTED_EDGE ( 'NONE', *, *, #227, .F. ) ;
#551 = CARTESIAN_POINT ( 'NONE',  ( -120.5634436291011298, -13.37429290686240613, 11.30148394823106628 ) ) ;
#552 = CARTESIAN_POINT ( 'NONE',  ( -110.6000000000000369, 4.999999999999984013, 0.000000000000000000 ) ) ;
#553 = APPLICATION_CONTEXT ( 'automotive_design' ) ;
#554 = CARTESIAN_POINT ( 'NONE',  ( -114.8924477551214238, -11.54434463134765565, 13.04396426768051498 ) ) ;
#555 = DIRECTION ( 'NONE',  ( -1.000000000000000000, 0.000000000000000000, -0.000000000000000000 ) ) ;
#556 = ORIENTED_EDGE ( 'NONE', *, *, #192, .F. ) ;
#557 = DIRECTION ( 'NONE',  ( 1.000000000000000000, -4.336808689942009847E-16, 0.000000000000000000 ) ) ;
#558 = DIRECTION ( 'NONE',  ( 0.000000000000000000, -1.000000000000000000, 0.000000000000000000 ) ) ;
#559 = CARTESIAN_POINT ( 'NONE',  ( -110.6000000000000369, -13.77157287525386486, 10.76414752972332955 ) ) ;
#560 = CARTESIAN_POINT ( 'NONE',  ( -111.6000000000000085, 15.59999999999998543, 0.000000000000000000 ) ) ;
#561 = AXIS2_PLACEMENT_3D ( 'NONE', #399, #1101, #337 ) ;
#562 = ORIENTED_EDGE ( 'NONE', *, *, #1066, .T. ) ;
#563 = AXIS2_PLACEMENT_3D ( 'NONE', #704, #122, #805 ) ;
#564 = AXIS2_PLACEMENT_3D ( 'NONE', #1003, #147, #219 ) ;
#565 = CARTESIAN_POINT ( 'NONE',  ( -114.6000000000000085, 12.84999999999998721, 11.88748865697795587 ) ) ;
#566 = DIRECTION ( 'NONE',  ( 0.000000000000000000, 1.000000000000000000, 0.000000000000000000 ) ) ;
#567 = CARTESIAN_POINT ( 'NONE',  ( -117.6000000000000085, -12.85000000000001563, 0.000000000000000000 ) ) ;
#568 = MANIFOLD_SOLID_BREP ( 'Cut-Extrude4', #740 ) ;
#569 = ORIENTED_EDGE ( 'NONE', *, *, #684, .T. ) ;
#570 = ORIENTED_EDGE ( 'NONE', *, *, #595, .T. ) ;
#571 = CARTESIAN_POINT ( 'NONE',  ( -117.6000000000000085, 12.84999999999998721, 0.000000000000000000 ) ) ;
#572 = DIRECTION ( 'NONE',  ( 0.000000000000000000, 1.000000000000000000, 0.000000000000000000 ) ) ;
#573 = DIRECTION ( 'NONE',  ( 1.000000000000000000, -0.000000000000000000, -0.000000000000000000 ) ) ;
#574 = ORIENTED_EDGE ( 'NONE', *, *, #511, .T. ) ;
#575 = EDGE_CURVE ( 'NONE', #477, #60, #505, .T. ) ;
#576 = ADVANCED_FACE ( 'NONE', ( #848 ), #429, .F. ) ;
#577 = ORIENTED_EDGE ( 'NONE', *, *, #510, .T. ) ;
#578 = LINE ( 'NONE', #130, #393 ) ;
#579 = CARTESIAN_POINT ( 'NONE',  ( -112.6000000000000369, -15.13939201416947355, 8.000000000000000000 ) ) ;
#580 = ORIENTED_EDGE ( 'NONE', *, *, #737, .T. ) ;
#581 = CIRCLE ( 'NONE', #97, 1.750000000000001554 ) ;
#582 = CARTESIAN_POINT ( 'NONE',  ( -120.6000000000000085, -12.85000000000001563, 11.88748865697795232 ) ) ;
#583 = VECTOR ( 'NONE', #527, 1000.000000000000000 ) ;
#584 = CARTESIAN_POINT ( 'NONE',  ( -124.5999999999999943, -14.60000000000004050, 0.000000000000000000 ) ) ;
#585 = CARTESIAN_POINT ( 'NONE',  ( -117.6000000000000085, 12.84999999999998721, 8.000000000000000000 ) ) ;
#586 = ORIENTED_EDGE ( 'NONE', *, *, #1098, .F. ) ;
#587 = EDGE_LOOP ( 'NONE', ( #87, #614, #1074, #730 ) ) ;
#588 = FACE_OUTER_BOUND ( 'NONE', #852, .T. ) ;
#589 = DIRECTION ( 'NONE',  ( -1.000000000000000000, 0.000000000000000000, 0.000000000000000000 ) ) ;
#590 = DIRECTION ( 'NONE',  ( -1.000000000000000000, 0.000000000000000000, 0.000000000000000000 ) ) ;
#591 = VERTEX_POINT ( 'NONE', #260 ) ;
#592 = VERTEX_POINT ( 'NONE', #93 ) ;
#593 = ADVANCED_FACE ( 'NONE', ( #15, #959 ), #1038, .T. ) ;
#594 = PLANE ( 'NONE',  #545 ) ;
#595 = EDGE_CURVE ( 'NONE', #829, #592, #417, .T. ) ;
#596 = FACE_OUTER_BOUND ( 'NONE', #81, .T. ) ;
#597 = VERTEX_POINT ( 'NONE', #865 ) ;
#598 = ORIENTED_EDGE ( 'NONE', *, *, #239, .T. ) ;
#599 = DIRECTION ( 'NONE',  ( -0.000000000000000000, -0.000000000000000000, -1.000000000000000000 ) ) ;
#600 = AXIS2_PLACEMENT_3D ( 'NONE', #639, #985, #204 ) ;
#601 = VECTOR ( 'NONE', #945, 1000.000000000000000 ) ;
#602 = DIRECTION ( 'NONE',  ( -0.000000000000000000, -0.000000000000000000, -1.000000000000000000 ) ) ;
#603 = DIRECTION ( 'NONE',  ( 0.000000000000000000, 0.000000000000000000, -1.000000000000000000 ) ) ;
#604 = CIRCLE ( 'NONE', #80, 10.09999999999999964 ) ;
#605 = ORIENTED_EDGE ( 'NONE', *, *, #793, .T. ) ;
#606 = CYLINDRICAL_SURFACE ( 'NONE', #256, 10.09999999999999964 ) ;
#607 = CARTESIAN_POINT ( 'NONE',  ( -123.6000000000000227, 0.000000000000000000, 0.000000000000000000 ) ) ;
#608 = CARTESIAN_POINT ( 'NONE',  ( -120.0122278980006740, 11.05490453898578984, 13.38314561590998863 ) ) ;
#609 = EDGE_CURVE ( 'NONE', #889, #1102, #682, .T. ) ;
#610 = EDGE_LOOP ( 'NONE', ( #116, #938, #731, #209 ) ) ;
#611 = CARTESIAN_POINT ( 'NONE',  ( -111.6000000000000085, 15.59999999999998543, 4.999999999999999112 ) ) ;
#612 = DIRECTION ( 'NONE',  ( -1.000000000000000000, 0.000000000000000000, 0.000000000000000000 ) ) ;
#613 = CARTESIAN_POINT ( 'NONE',  ( -124.5999999999999943, -14.60000000000003695, 9.358898943540618021 ) ) ;
#614 = ORIENTED_EDGE ( 'NONE', *, *, #176, .T. ) ;
#615 = VECTOR ( 'NONE', #950, 1000.000000000000000 ) ;
#616 = CIRCLE ( 'NONE', #128, 5.000000000000000000 ) ;
#617 = DIRECTION ( 'NONE',  ( -1.000000000000000000, 0.000000000000000000, 0.000000000000000000 ) ) ;
#618 = VECTOR ( 'NONE', #277, 1000.000000000000000 ) ;
#619 = CARTESIAN_POINT ( 'NONE',  ( -120.3075522448786217, 11.54434463134762368, 13.04396426768051498 ) ) ;
#620 = ORIENTED_EDGE ( 'NONE', *, *, #487, .F. ) ;
#621 = ADVANCED_FACE ( 'NONE', ( #588 ), #606, .F. ) ;
#622 = CARTESIAN_POINT ( 'NONE',  ( -118.0423037135626316, -9.874549434241131962, 14.04052674075822971 ) ) ;
#623 = CARTESIAN_POINT ( 'NONE',  ( -123.6000000000000227, -13.77157287525386486, 0.000000000000000000 ) ) ;
#624 = EDGE_LOOP ( 'NONE', ( #182, #810, #34 ) ) ;
#625 = ADVANCED_FACE ( 'NONE', ( #854 ), #871, .F. ) ;
#626 = EDGE_CURVE ( 'NONE', #155, #436, #1059, .T. ) ;
#627 = CARTESIAN_POINT ( 'NONE',  ( -115.4515978788828647, -10.74629387222801213, 13.57605814623870266 ) ) ;
#628 = CARTESIAN_POINT ( 'NONE',  ( -119.2693068263135245, 10.34857798291899122, 13.80184352073669807 ) ) ;
#629 = ORIENTED_EDGE ( 'NONE', *, *, #440, .T. ) ;
#630 = DIRECTION ( 'NONE',  ( 1.000000000000000000, -0.000000000000000000, -0.000000000000000000 ) ) ;
#631 = CARTESIAN_POINT ( 'NONE',  ( -120.2000000000000313, 0.000000000000000000, 0.000000000000000000 ) ) ;
#632 = CARTESIAN_POINT ( 'NONE',  ( -119.0794454081267588, -10.23094849973842813, 13.86371135535047650 ) ) ;
#633 = DIRECTION ( 'NONE',  ( 0.000000000000000000, 3.556183125752454544E-15, 1.000000000000000000 ) ) ;
#634 = VECTOR ( 'NONE', #223, 1000.000000000000000 ) ;
#635 = CIRCLE ( 'NONE', #129, 1.750000000000001554 ) ;
#636 = EDGE_LOOP ( 'NONE', ( #750, #931, #280, #86 ) ) ;
#637 = LINE ( 'NONE', #822, #146 ) ;
#638 = CARTESIAN_POINT ( 'NONE',  ( -115.5999122167829256, -10.60426042308104755, 13.65903111447132012 ) ) ;
#639 = CARTESIAN_POINT ( 'NONE',  ( -117.6000000000000085, -12.85000000000001563, 8.000000000000000000 ) ) ;
#640 = ORIENTED_EDGE ( 'NONE', *, *, #440, .F. ) ;
#641 = ADVANCED_FACE ( 'NONE', ( #156, #437, #778 ), #772, .F. ) ;
#642 = ADVANCED_FACE ( 'NONE', ( #245 ), #238, .F. ) ;
#643 = VERTEX_POINT ( 'NONE', #702 ) ;
#644 = DIRECTION ( 'NONE',  ( 0.000000000000000000, -1.000000000000000000, 0.000000000000000000 ) ) ;
#645 = CARTESIAN_POINT ( 'NONE',  ( -110.8988438511114367, -14.82993603084466727, 8.857500908161998865 ) ) ;
#646 = DIRECTION ( 'NONE',  ( -1.000000000000000000, 0.000000000000000000, 0.000000000000000000 ) ) ;
#647 = ORIENTED_EDGE ( 'NONE', *, *, #43, .T. ) ;
#648 = CARTESIAN_POINT ( 'NONE',  ( -110.6000000000000369, 4.999999999999984013, 15.00000000000000000 ) ) ;
#649 = DIRECTION ( 'NONE',  ( 0.000000000000000000, 0.000000000000000000, -1.000000000000000000 ) ) ;
#650 = CYLINDRICAL_SURFACE ( 'NONE', #564, 3.000000000000002665 ) ;
#651 = DIRECTION ( 'NONE',  ( -1.000000000000000000, 0.000000000000000000, 0.000000000000000000 ) ) ;
#652 = VECTOR ( 'NONE', #520, 1000.000000000000000 ) ;
#653 = VERTEX_POINT ( 'NONE', #504 ) ;
#654 = AXIS2_PLACEMENT_3D ( 'NONE', #939, #100, #71 ) ;
#655 = AXIS2_PLACEMENT_3D ( 'NONE', #960, #703, #525 ) ;
#656 = DIRECTION ( 'NONE',  ( 0.000000000000000000, 0.000000000000000000, 1.000000000000000000 ) ) ;
#657 =( BOUNDED_CURVE ( )  B_SPLINE_CURVE ( 3, ( #801, #851, #174, #263 ),
 .UNSPECIFIED., .F., .F. ) 
 B_SPLINE_CURVE_WITH_KNOTS ( ( 4, 4 ),
 ( 3.141592653589793116, 3.592619465386049260 ),
 .UNSPECIFIED. ) 
 CURVE ( )  GEOMETRIC_REPRESENTATION_ITEM ( )  RATIONAL_B_SPLINE_CURVE ( ( 1.000000000000000000, 0.9831196229872647407, 0.9831196229872647407, 1.000000000000000000 ) ) 
 REPRESENTATION_ITEM ( '' )  );
#658 = EDGE_CURVE ( 'NONE', #1108, #496, #694, .T. ) ;
#659 = CARTESIAN_POINT ( 'NONE',  ( -119.3500000000000085, 12.84999999999998721, 8.000000000000000000 ) ) ;
#660 = EDGE_CURVE ( 'NONE', #453, #943, #466, .T. ) ;
#661 = LINE ( 'NONE', #302, #447 ) ;
#662 = ORIENTED_EDGE ( 'NONE', *, *, #384, .F. ) ;
#663 = PRESENTATION_STYLE_ASSIGNMENT (( #313 ) ) ;
#664 = CARTESIAN_POINT ( 'NONE',  ( -120.6000000000000085, 12.84999999999998721, 11.88748865697795587 ) ) ;
#665 = DIRECTION ( 'NONE',  ( -0.000000000000000000, -0.000000000000000000, -1.000000000000000000 ) ) ;
#666 = EDGE_CURVE ( 'NONE', #688, #643, #616, .T. ) ;
#667 = ORIENTED_EDGE ( 'NONE', *, *, #335, .T. ) ;
#668 = DIRECTION ( 'NONE',  ( -1.000000000000000000, 4.336808689942009847E-16, 0.000000000000000000 ) ) ;
#669 = CARTESIAN_POINT ( 'NONE',  ( -120.6000000000000085, -12.85000000000001563, 15.00000000000000000 ) ) ;
#670 = DIRECTION ( 'NONE',  ( 1.000000000000000000, 0.000000000000000000, 0.000000000000000000 ) ) ;
#671 = ORIENTED_EDGE ( 'NONE', *, *, #683, .T. ) ;
#672 = AXIS2_PLACEMENT_3D ( 'NONE', #124, #476, #646 ) ;
#673 = ORIENTED_EDGE ( 'NONE', *, *, #12, .T. ) ;
#674 = CARTESIAN_POINT ( 'NONE',  ( -124.5999999999999943, 14.60000000000001030, 15.00000000000000000 ) ) ;
#675 = PRODUCT_CONTEXT ( 'NONE', #553, 'mechanical' ) ;
#676 = VECTOR ( 'NONE', #557, 1000.000000000000000 ) ;
#677 = DIRECTION ( 'NONE',  ( -0.000000000000000000, -0.000000000000000000, -1.000000000000000000 ) ) ;
#678 = CYLINDRICAL_SURFACE ( 'NONE', #561, 2.000000000000001776 ) ;
#679 = B_SPLINE_CURVE_WITH_KNOTS ( 'NONE', 3,
 ( #11, #180, #981, #343, #727, #365, #95, #426 ),
 .UNSPECIFIED., .F., .F.,
 ( 4, 2, 2, 4 ),
 ( 1.734723475976806902E-18, 0.002334827944665805038, 0.003502241916998713629, 0.004669655889331622220 ),
 .UNSPECIFIED. ) ;
#680 = ORIENTED_EDGE ( 'NONE', *, *, #189, .T. ) ;
#681 = ORIENTED_EDGE ( 'NONE', *, *, #879, .F. ) ;
#682 = LINE ( 'NONE', #611, #112 ) ;
#683 = EDGE_CURVE ( 'NONE', #4, #509, #878, .T. ) ;
#684 = EDGE_CURVE ( 'NONE', #653, #1043, #273, .T. ) ;
#685 = CARTESIAN_POINT ( 'NONE',  ( -124.5999999999999943, 14.60000000000001030, 9.358898943540639337 ) ) ;
#686 = CARTESIAN_POINT ( 'NONE',  ( -117.6000000000000085, 12.84999999999998721, 15.00000000000000000 ) ) ;
#687 = CARTESIAN_POINT ( 'NONE',  ( -110.6000000000000369, 0.000000000000000000, 0.000000000000000000 ) ) ;
#688 = VERTEX_POINT ( 'NONE', #812 ) ;
#689 = DIRECTION ( 'NONE',  ( -1.000000000000000000, 4.336808689942009847E-16, 0.000000000000000000 ) ) ;
#690 = CARTESIAN_POINT ( 'NONE',  ( -117.6000000000000085, -12.85000000000001563, 15.00000000000000000 ) ) ;
#691 = PLANE ( 'NONE',  #75 ) ;
#692 = ORIENTED_EDGE ( 'NONE', *, *, #666, .F. ) ;
#693 = ORIENTED_EDGE ( 'NONE', *, *, #416, .T. ) ;
#694 = LINE ( 'NONE', #1044, #814 ) ;
#695 = VECTOR ( 'NONE', #41, 1000.000000000000000 ) ;
#696 = PRESENTATION_LAYER_ASSIGNMENT (  '', '', ( #392 ) ) ;
#697 = CARTESIAN_POINT ( 'NONE',  ( -110.6840099225485687, 14.36281561146579477, 9.825893741557377936 ) ) ;
#698 = CYLINDRICAL_SURFACE ( 'NONE', #886, 1.750000000000001554 ) ;
#699 = AXIS2_PLACEMENT_3D ( 'NONE', #763, #1118, #330 ) ;
#700 = CARTESIAN_POINT ( 'NONE',  ( -119.0837654754007957, 10.23355618379527421, 13.86234368141023054 ) ) ;
#701 = EDGE_LOOP ( 'NONE', ( #776, #640, #883, #901 ) ) ;
#702 = CARTESIAN_POINT ( 'NONE',  ( -123.6000000000000227, -4.999999999999999112, 0.000000000000000000 ) ) ;
#703 = DIRECTION ( 'NONE',  ( 0.7071067811865463515, 0.7071067811865487940, -0.000000000000000000 ) ) ;
#704 = CARTESIAN_POINT ( 'NONE',  ( -112.6000000000000369, 5.599999999999987210, 4.999999999999999112 ) ) ;
#705 = ORIENTED_EDGE ( 'NONE', *, *, #523, .T. ) ;
#706 = DIRECTION ( 'NONE',  ( 0.000000000000000000, 1.000000000000000000, 0.000000000000000000 ) ) ;
#707 = ORIENTED_EDGE ( 'NONE', *, *, #27, .F. ) ;
#708 = AXIS2_PLACEMENT_3D ( 'NONE', #412, #665, #590 ) ;
#709 = AXIS2_PLACEMENT_3D ( 'NONE', #1080, #989, #445 ) ;
#710 = CARTESIAN_POINT ( 'NONE',  ( -114.5999999999999943, -12.54265879883410584, 12.21100624363783993 ) ) ;
#711 = CIRCLE ( 'NONE', #798, 1.750000000000001554 ) ;
#712 = ORIENTED_EDGE ( 'NONE', *, *, #986, .F. ) ;
#713 = ADVANCED_FACE ( 'NONE', ( #40 ), #23, .F. ) ;
#714 = EDGE_CURVE ( 'NONE', #1121, #719, #1105, .T. ) ;
#715 = VERTEX_POINT ( 'NONE', #475 ) ;
#716 = DIRECTION ( 'NONE',  ( 0.000000000000000000, 0.000000000000000000, -1.000000000000000000 ) ) ;
#717 = CARTESIAN_POINT ( 'NONE',  ( -111.1857864376269447, 15.18578643762692870, 7.848279897097083513 ) ) ;
#718 = CARTESIAN_POINT ( 'NONE',  ( -111.5999999999999943, -15.60000000000001563, 0.000000000000000000 ) ) ;
#719 = VERTEX_POINT ( 'NONE', #470 ) ;
#720 = DIRECTION ( 'NONE',  ( 0.000000000000000000, 0.000000000000000000, -1.000000000000000000 ) ) ;
#721 = AXIS2_PLACEMENT_3D ( 'NONE', #294, #990, #555 ) ;
#722 = CARTESIAN_POINT ( 'NONE',  ( -120.0091179126042817, -11.05098084875887032, 13.38565102923895900 ) ) ;
#723 = FACE_OUTER_BOUND ( 'NONE', #383, .T. ) ;
#724 = AXIS2_PLACEMENT_3D ( 'NONE', #830, #656, #914 ) ;
#725 = EDGE_CURVE ( 'NONE', #643, #144, #1084, .T. ) ;
#726 = ORIENTED_EDGE ( 'NONE', *, *, #595, .F. ) ;
#727 = CARTESIAN_POINT ( 'NONE',  ( -114.7570145474110745, -13.83743296125935984, 10.68285842250911166 ) ) ;
#728 = CARTESIAN_POINT ( 'NONE',  ( -117.6000000000000085, -12.85000000000001563, 15.00000000000000000 ) ) ;
#729 = LINE ( 'NONE', #1085, #232 ) ;
#730 = ORIENTED_EDGE ( 'NONE', *, *, #42, .F. ) ;
#731 = ORIENTED_EDGE ( 'NONE', *, *, #1033, .T. ) ;
#732 = DIRECTION ( 'NONE',  ( -0.000000000000000000, -0.000000000000000000, -1.000000000000000000 ) ) ;
#733 = DIRECTION ( 'NONE',  ( -0.000000000000000000, -0.000000000000000000, -1.000000000000000000 ) ) ;
#734 = ORIENTED_EDGE ( 'NONE', *, *, #123, .F. ) ;
#735 = CARTESIAN_POINT ( 'NONE',  ( -115.5300567009366830, 15.02827849304564367, 8.353318478691537763 ) ) ;
#736 = FACE_OUTER_BOUND ( 'NONE', #610, .T. ) ;
#737 = EDGE_CURVE ( 'NONE', #509, #531, #309, .T. ) ;
#738 = CARTESIAN_POINT ( 'NONE',  ( -114.6000000000000085, -12.85000000000001563, 15.00000000000000000 ) ) ;
#739 = CARTESIAN_POINT ( 'NONE',  ( -114.6000000000000512, 12.69739174328649511, 12.04812919176155184 ) ) ;
#740 = CLOSED_SHELL ( 'NONE', ( #1072, #366, #713, #828, #953, #341, #641, #642, #21, #911, #535, #157, #276, #501, #966, #576, #1124, #773, #542, #385, #355, #621, #218, #306, #593, #424, #287, #450, #193, #625, #979, #28 ) ) ;
#741 = ORIENTED_EDGE ( 'NONE', *, *, #879, .T. ) ;
#742 = CIRCLE ( 'NONE', #216, 1.750000000000001554 ) ;
#743 = LINE ( 'NONE', #992, #676 ) ;
#744 = VECTOR ( 'NONE', #388, 1000.000000000000000 ) ;
#745 = CARTESIAN_POINT ( 'NONE',  ( -115.1539095947201190, 14.59765053797840295, 9.379572180141693138 ) ) ;
#746 = EDGE_CURVE ( 'NONE', #222, #369, #270, .T. ) ;
#747 = EDGE_CURVE ( 'NONE', #592, #444, #1021, .T. ) ;
#748 = CARTESIAN_POINT ( 'NONE',  ( -120.5638041094695581, 13.37292957203145605, 11.30331242362009547 ) ) ;
#749 = DIRECTION ( 'NONE',  ( -1.000000000000000000, 0.000000000000000000, 0.000000000000000000 ) ) ;
#750 = ORIENTED_EDGE ( 'NONE', *, *, #626, .F. ) ;
#751 = CARTESIAN_POINT ( 'NONE',  ( -115.6612673713332384, 15.13939201416944336, 8.000000000000000000 ) ) ;
#752 = CARTESIAN_POINT ( 'NONE',  ( -120.2000000000000313, -13.77157287525386486, 0.000000000000000000 ) ) ;
#753 = FACE_OUTER_BOUND ( 'NONE', #755, .T. ) ;
#754 = ORIENTED_EDGE ( 'NONE', *, *, #827, .F. ) ;
#755 = EDGE_LOOP ( 'NONE', ( #161, #482 ) ) ;
#756 = LINE ( 'NONE', #430, #926 ) ;
#757 = CARTESIAN_POINT ( 'NONE',  ( -110.6000000000000369, 13.77157287525382934, 0.000000000000000000 ) ) ;
#758 = ORIENTED_EDGE ( 'NONE', *, *, #952, .T. ) ;
#759 = PRODUCT_RELATED_PRODUCT_CATEGORY ( 'part', '', ( #303 ) ) ;
#760 = AXIS2_PLACEMENT_3D ( 'NONE', #585, #173, #749 ) ;
#761 = ORIENTED_EDGE ( 'NONE', *, *, #683, .F. ) ;
#762 =( LENGTH_UNIT ( ) NAMED_UNIT ( * ) SI_UNIT ( .MILLI., .METRE. ) );
#763 = CARTESIAN_POINT ( 'NONE',  ( 0.000000000000000000, 0.000000000000000000, 0.000000000000000000 ) ) ;
#764 = VECTOR ( 'NONE', #537, 1000.000000000000000 ) ;
#765 = CARTESIAN_POINT ( 'NONE',  ( -111.4609639470028242, -15.46096394700285082, 6.922179607584165950 ) ) ;
#766 = DIRECTION ( 'NONE',  ( 1.000000000000000000, 0.000000000000000000, 0.000000000000000000 ) ) ;
#767 = ORIENTED_EDGE ( 'NONE', *, *, #2, .T. ) ;
#768 = CARTESIAN_POINT ( 'NONE',  ( -111.1857864376269447, 15.18578643762692693, 15.00000000000000000 ) ) ;
#769 = CARTESIAN_POINT ( 'NONE',  ( -120.2000000000000313, 0.000000000000000000, 0.000000000000000000 ) ) ;
#770 = DIRECTION ( 'NONE',  ( -0.000000000000000000, -0.000000000000000000, -1.000000000000000000 ) ) ;
#771 = VERTEX_POINT ( 'NONE', #1090 ) ;
#772 = PLANE ( 'NONE',  #946 ) ;
#773 = ADVANCED_FACE ( 'NONE', ( #929 ), #234, .F. ) ;
#774 = CARTESIAN_POINT ( 'NONE',  ( -111.6000000000000085, 15.59999999999998543, 4.999999999999999112 ) ) ;
#775 = CARTESIAN_POINT ( 'NONE',  ( -123.6000000000000085, 15.59999999999998899, 6.516307832886330864 ) ) ;
#776 = ORIENTED_EDGE ( 'NONE', *, *, #714, .T. ) ;
#777 = EDGE_LOOP ( 'NONE', ( #171, #859, #712, #364, #338, #1018, #1030 ) ) ;
#778 = FACE_OUTER_BOUND ( 'NONE', #420, .T. ) ;
#779 = AXIS2_PLACEMENT_3D ( 'NONE', #571, #955, #422 ) ;
#780 = CARTESIAN_POINT ( 'NONE',  ( -111.1857864376269447, -15.18578643762697133, 7.848279897097041768 ) ) ;
#781 = CARTESIAN_POINT ( 'NONE',  ( -117.6000000000000085, 12.84999999999998721, 8.000000000000000000 ) ) ;
#782 = DIRECTION ( 'NONE',  ( 0.000000000000000000, 1.000000000000000000, 0.000000000000000000 ) ) ;
#783 = VERTEX_POINT ( 'NONE', #398 ) ;
#784 = DIRECTION ( 'NONE',  ( 0.000000000000000000, 0.000000000000000000, 1.000000000000000000 ) ) ;
#785 = DIRECTION ( 'NONE',  ( 0.000000000000000000, 0.000000000000000000, -1.000000000000000000 ) ) ;
#786 = PLANE ( 'NONE',  #1002 ) ;
#787 = APPLICATION_PROTOCOL_DEFINITION ( 'draft international standard', 'automotive_design', 1998, #387 ) ;
#788 = ORIENTED_EDGE ( 'NONE', *, *, #1000, .F. ) ;
#789 = CARTESIAN_POINT ( 'NONE',  ( -120.6000000000000085, -12.85000000000001563, 11.88748865697795232 ) ) ;
#790 = DIRECTION ( 'NONE',  ( -0.000000000000000000, -0.000000000000000000, -1.000000000000000000 ) ) ;
#791 = EDGE_CURVE ( 'NONE', #715, #162, #873, .T. ) ;
#792 = ORIENTED_EDGE ( 'NONE', *, *, #791, .T. ) ;
#793 = EDGE_CURVE ( 'NONE', #1068, #144, #844, .T. ) ;
#794 = DIRECTION ( 'NONE',  ( -0.000000000000000000, -0.000000000000000000, -1.000000000000000000 ) ) ;
#795 = AXIS2_PLACEMENT_3D ( 'NONE', #459, #573, #382 ) ;
#796 = AXIS2_PLACEMENT_3D ( 'NONE', #85, #670, #1111 ) ;
#797 = CARTESIAN_POINT ( 'NONE',  ( -118.4739673673061020, -9.971611616687191315, 13.99399291132594314 ) ) ;
#798 = AXIS2_PLACEMENT_3D ( 'NONE', #1034, #1051, #589 ) ;
#799 = CARTESIAN_POINT ( 'NONE',  ( -124.5999999999999943, 14.60000000000001030, 15.00000000000000000 ) ) ;
#800 = ORIENTED_EDGE ( 'NONE', *, *, #43, .F. ) ;
#801 = CARTESIAN_POINT ( 'NONE',  ( -123.6000000000000085, -15.60000000000001030, 4.999999999999999112 ) ) ;
#802 = CARTESIAN_POINT ( 'NONE',  ( -116.1162345245992498, -10.23355618379530441, 13.86234368141023054 ) ) ;
#803 = CARTESIAN_POINT ( 'NONE',  ( -115.4521208089583268, 10.74597195739852928, 13.57620592169871188 ) ) ;
#804 = ORIENTED_EDGE ( 'NONE', *, *, #928, .F. ) ;
#805 = DIRECTION ( 'NONE',  ( 0.000000000000000000, 0.000000000000000000, -1.000000000000000000 ) ) ;
#806 = CARTESIAN_POINT ( 'NONE',  ( -115.0000000000000284, 4.999999999999999112, 0.000000000000000000 ) ) ;
#807 = EDGE_CURVE ( 'NONE', #205, #1058, #301, .T. ) ;
#808 = CARTESIAN_POINT ( 'NONE',  ( -120.6000000000000654, -12.69739174328652531, 12.04812919176155006 ) ) ;
#809 = CARTESIAN_POINT ( 'NONE',  ( -115.8500000000000085, -12.85000000000001563, 0.000000000000000000 ) ) ;
#810 = ORIENTED_EDGE ( 'NONE', *, *, #843, .T. ) ;
#811 = DIRECTION ( 'NONE',  ( -1.000000000000000000, 0.000000000000000000, 0.000000000000000000 ) ) ;
#812 = CARTESIAN_POINT ( 'NONE',  ( -123.6000000000000227, 5.000000000000000000, 0.000000000000000000 ) ) ;
#813 = DIRECTION ( 'NONE',  ( -0.7071067811865504593, -0.7071067811865445751, 0.000000000000000000 ) ) ;
#814 = VECTOR ( 'NONE', #82, 1000.000000000000000 ) ;
#815 = AXIS2_PLACEMENT_3D ( 'NONE', #728, #271, #617 ) ;
#816 = ORIENTED_EDGE ( 'NONE', *, *, #79, .T. ) ;
#817 = CARTESIAN_POINT ( 'NONE',  ( -115.6612673713332384, -15.13939201416947178, 8.000000000000000000 ) ) ;
#818 = LINE ( 'NONE', #45, #1025 ) ;
#819 = DIRECTION ( 'NONE',  ( 1.000000000000000000, -4.336808689942009847E-16, 0.000000000000000000 ) ) ;
#820 = DIRECTION ( 'NONE',  ( -0.7071067811865445751, 0.7071067811865504593, 0.000000000000000000 ) ) ;
#821 = ORIENTED_EDGE ( 'NONE', *, *, #575, .T. ) ;
#822 = CARTESIAN_POINT ( 'NONE',  ( -111.1857864376269447, -15.18578643762697133, 15.00000000000000000 ) ) ;
#823 = DIRECTION ( 'NONE',  ( 1.000000000000000000, 0.000000000000000000, 0.000000000000000000 ) ) ;
#824 = DIRECTION ( 'NONE',  ( 0.000000000000000000, 0.000000000000000000, -1.000000000000000000 ) ) ;
#825 = DIRECTION ( 'NONE',  ( 0.000000000000000000, 0.000000000000000000, 1.000000000000000000 ) ) ;
#826 = VERTEX_POINT ( 'NONE', #224 ) ;
#827 = EDGE_CURVE ( 'NONE', #222, #591, #578, .T. ) ;
#828 = ADVANCED_FACE ( 'NONE', ( #51 ), #650, .F. ) ;
#829 = VERTEX_POINT ( 'NONE', #584 ) ;
#830 = CARTESIAN_POINT ( 'NONE',  ( -112.6000000000000369, -13.77157287525386486, 15.00000000000000000 ) ) ;
#831 = PLANE ( 'NONE',  #291 ) ;
#832 = CARTESIAN_POINT ( 'NONE',  ( -112.6000000000000369, 15.13939201416944336, 8.000000000000000000 ) ) ;
#833 = CARTESIAN_POINT ( 'NONE',  ( -120.6000000000000085, 12.84999999999998721, 8.000000000000000000 ) ) ;
#834 = CIRCLE ( 'NONE', #342, 10.00000000000000000 ) ;
#835 = ORIENTED_EDGE ( 'NONE', *, *, #206, .F. ) ;
#836 = AXIS2_PLACEMENT_3D ( 'NONE', #395, #1120, #921 ) ;
#837 = EDGE_LOOP ( 'NONE', ( #705, #503, #311, #536 ) ) ;
#838 = CIRCLE ( 'NONE', #467, 5.000000000000000000 ) ;
#839 = FILL_AREA_STYLE_COLOUR ( '', #233 ) ;
#840 = CARTESIAN_POINT ( 'NONE',  ( -119.5387326286667786, 15.13939201416944336, 8.000000000000000000 ) ) ;
#841 = FACE_OUTER_BOUND ( 'NONE', #473, .T. ) ;
#842 = ORIENTED_EDGE ( 'NONE', *, *, #227, .T. ) ;
#843 = EDGE_CURVE ( 'NONE', #4, #1031, #909, .T. ) ;
#844 = LINE ( 'NONE', #752, #744 ) ;
#845 = DIRECTION ( 'NONE',  ( -0.000000000000000000, -0.000000000000000000, -1.000000000000000000 ) ) ;
#846 = VERTEX_POINT ( 'NONE', #659 ) ;
#847 = ORIENTED_EDGE ( 'NONE', *, *, #56, .F. ) ;
#848 = FACE_OUTER_BOUND ( 'NONE', #259, .T. ) ;
#849 = FACE_BOUND ( 'NONE', #191, .T. ) ;
#850 = CARTESIAN_POINT ( 'NONE',  ( -120.6000000000000085, -12.85000000000001563, 11.88748865697795232 ) ) ;
#851 = CARTESIAN_POINT ( 'NONE',  ( -123.6000000000000227, -15.60000000000001741, 6.516307832886322871 ) ) ;
#852 = EDGE_LOOP ( 'NONE', ( #681, #491, #221, #1096 ) ) ;
#853 = ORIENTED_EDGE ( 'NONE', *, *, #1054, .F. ) ;
#854 = FACE_OUTER_BOUND ( 'NONE', #534, .T. ) ;
#855 = DIRECTION ( 'NONE',  ( 0.000000000000000000, -1.000000000000000000, 0.000000000000000000 ) ) ;
#856 = VECTOR ( 'NONE', #677, 1000.000000000000000 ) ;
#857 = DIRECTION ( 'NONE',  ( -1.000000000000000000, 0.000000000000000000, 0.000000000000000000 ) ) ;
#858 = DIRECTION ( 'NONE',  ( -0.000000000000000000, -0.000000000000000000, -1.000000000000000000 ) ) ;
#859 = ORIENTED_EDGE ( 'NONE', *, *, #423, .F. ) ;
#860 = EDGE_CURVE ( 'NONE', #436, #653, #489, .T. ) ;
#861 = LINE ( 'NONE', #976, #968 ) ;
#862 = FACE_OUTER_BOUND ( 'NONE', #460, .T. ) ;
#863 = VERTEX_POINT ( 'NONE', #140 ) ;
#864 = ORIENTED_EDGE ( 'NONE', *, *, #1041, .T. ) ;
#865 = CARTESIAN_POINT ( 'NONE',  ( -119.3500000000000085, -12.85000000000001563, 8.000000000000000000 ) ) ;
#866 = EDGE_CURVE ( 'NONE', #719, #863, #962, .T. ) ;
#867 = CARTESIAN_POINT ( 'NONE',  ( -112.6000000000000369, 13.77157287525382934, 15.00000000000000000 ) ) ;
#868 = CARTESIAN_POINT ( 'NONE',  ( -124.5999999999999943, 14.60000000000001030, 9.358898943540639337 ) ) ;
#869 = CARTESIAN_POINT ( 'NONE',  ( -116.7260326326939293, 9.971611616687161117, 13.99399291132594847 ) ) ;
#870 = EDGE_LOOP ( 'NONE', ( #320, #556 ) ) ;
#871 = CYLINDRICAL_SURFACE ( 'NONE', #201, 3.000000000000002665 ) ;
#872 = VECTOR ( 'NONE', #790, 1000.000000000000000 ) ;
#873 = CIRCLE ( 'NONE', #170, 1.750000000000001554 ) ;
#874 = CARTESIAN_POINT ( 'NONE',  ( -111.0336921390061917, 15.03369213900617218, 8.360147942946491995 ) ) ;
#875 = CARTESIAN_POINT ( 'NONE',  ( -123.6000000000000085, 15.59999999999998543, 4.999999999999999112 ) ) ;
#876 = DIRECTION ( 'NONE',  ( 0.000000000000000000, 0.000000000000000000, -1.000000000000000000 ) ) ;
#877 = ORIENTED_EDGE ( 'NONE', *, *, #423, .T. ) ;
#878 = B_SPLINE_CURVE_WITH_KNOTS ( 'NONE', 3,
 ( #29, #710, #203, #197, #554, #538, #451, #627, #638, #1061, #802, #357, #362, #367, #278, #285, #622, #797, #104, #632, #462, #458, #969, #722, #548, #973, #893, #119, #442, #898, #808, #789 ),
 .UNSPECIFIED., .F., .F.,
 ( 4, 2, 2, 2, 2, 2, 2, 2, 2, 2, 2, 2, 2, 2, 2, 4 ),
 ( 0.004669655889331622220, 0.005989770511993486833, 0.006649827823324418706, 0.007309885134655351446, 0.007969942445986283319, 0.008629999757317215192, 0.009290057068648148800, 0.009950114379979080673, 0.01061017169131001255, 0.01127022900264094615, 0.01193028631397187803, 0.01259034362530280816, 0.01325040093663374177, 0.01391045824796467364, 0.01457051555929560552, 0.01523057287062653913 ),
 .UNSPECIFIED. ) ;
#879 = EDGE_CURVE ( 'NONE', #496, #1068, #604, .T. ) ;
#880 = CARTESIAN_POINT ( 'NONE',  ( -117.3833363496277968, 9.849613605440920239, 14.05211491260922863 ) ) ;
#881 = ORIENTED_EDGE ( 'NONE', *, *, #439, .T. ) ;
#882 = CARTESIAN_POINT ( 'NONE',  ( -120.6000000000000227, 12.54265879883407564, 12.21100624363783993 ) ) ;
#883 = ORIENTED_EDGE ( 'NONE', *, *, #79, .F. ) ;
#884 = CARTESIAN_POINT ( 'NONE',  ( -112.6000000000000369, 13.77157287525382934, 0.000000000000000000 ) ) ;
#885 = VECTOR ( 'NONE', #52, 1000.000000000000000 ) ;
#886 = AXIS2_PLACEMENT_3D ( 'NONE', #207, #35, #811 ) ;
#887 = CARTESIAN_POINT ( 'NONE',  ( -123.6000000000000227, 0.000000000000000000, 0.000000000000000000 ) ) ;
#888 =( GEOMETRIC_REPRESENTATION_CONTEXT ( 3 ) GLOBAL_UNCERTAINTY_ASSIGNED_CONTEXT ( ( #340 ) ) GLOBAL_UNIT_ASSIGNED_CONTEXT ( ( #151, #1104, #72 ) ) REPRESENTATION_CONTEXT ( 'NONE', 'WORKASPACE' ) );
#889 = VERTEX_POINT ( 'NONE', #183 ) ;
#890 = EDGE_CURVE ( 'NONE', #142, #441, #331, .T. ) ;
#891 = DIRECTION ( 'NONE',  ( -0.000000000000000000, -0.000000000000000000, -1.000000000000000000 ) ) ;
#892 = DIRECTION ( 'NONE',  ( 1.000000000000000000, -0.000000000000000000, -0.000000000000000000 ) ) ;
#893 = CARTESIAN_POINT ( 'NONE',  ( -120.3817821513226534, -11.71284674492880384, 12.91704419340491938 ) ) ;
#894 = CARTESIAN_POINT ( 'NONE',  ( -115.0000000000000284, 10.09999999999999964, 0.000000000000000000 ) ) ;
#895 = ORIENTED_EDGE ( 'NONE', *, *, #379, .F. ) ;
#896 = CYLINDRICAL_SURFACE ( 'NONE', #563, 10.00000000000000000 ) ;
#897 = CARTESIAN_POINT ( 'NONE',  ( -114.6000000000000085, -12.85000000000001563, 8.000000000000000000 ) ) ;
#898 = CARTESIAN_POINT ( 'NONE',  ( -120.5884440580269796, -12.54004607945658378, 12.20307135326852332 ) ) ;
#899 = DIRECTION ( 'NONE',  ( -0.000000000000000000, -0.000000000000000000, -1.000000000000000000 ) ) ;
#900 = VERTEX_POINT ( 'NONE', #685 ) ;
#901 = ORIENTED_EDGE ( 'NONE', *, *, #995, .F. ) ;
#902 = FACE_OUTER_BOUND ( 'NONE', #954, .T. ) ;
#903 = CARTESIAN_POINT ( 'NONE',  ( -123.6000000000000085, 15.59999999999998543, 15.00000000000000000 ) ) ;
#904 = DIRECTION ( 'NONE',  ( -1.000000000000000000, -0.000000000000000000, 0.000000000000000000 ) ) ;
#905 = ORIENTED_EDGE ( 'NONE', *, *, #111, .F. ) ;
#906 = ORIENTED_EDGE ( 'NONE', *, *, #737, .F. ) ;
#907 = CARTESIAN_POINT ( 'NONE',  ( -115.3993869923175026, 14.89815601557033808, 8.699008298823795116 ) ) ;
#908 = CARTESIAN_POINT ( 'NONE',  ( -123.6000000000000085, -15.60000000000001030, 4.999999999999999112 ) ) ;
#909 = LINE ( 'NONE', #738, #258 ) ;
#910 = PLANE ( 'NONE',  #721 ) ;
#911 = ADVANCED_FACE ( 'NONE', ( #348 ), #73, .F. ) ;
#912 = EDGE_CURVE ( 'NONE', #826, #846, #711, .T. ) ;
#913 = ORIENTED_EDGE ( 'NONE', *, *, #109, .T. ) ;
#914 = DIRECTION ( 'NONE',  ( 1.000000000000000000, 0.000000000000000000, -0.000000000000000000 ) ) ;
#915 = CARTESIAN_POINT ( 'NONE',  ( -111.1097590536648596, -15.10975905366489158, 8.104147400432895054 ) ) ;
#916 = CARTESIAN_POINT ( 'NONE',  ( -114.8182178486773637, 11.71284674492877720, 12.91704419340492294 ) ) ;
#917 = ORIENTED_EDGE ( 'NONE', *, *, #725, .F. ) ;
#918 = CARTESIAN_POINT ( 'NONE',  ( -114.8401590004190211, 14.04555640029864527, 10.36797465185375167 ) ) ;
#919 = LINE ( 'NONE', #484, #449 ) ;
#920 = CARTESIAN_POINT ( 'NONE',  ( -123.6000000000000085, -15.60000000000001030, 0.000000000000000000 ) ) ;
#921 = DIRECTION ( 'NONE',  ( -1.000000000000000000, 0.000000000000000000, 0.000000000000000000 ) ) ;
#922 = CIRCLE ( 'NONE', #672, 3.000000000000002665 ) ;
#923 =( BOUNDED_CURVE ( )  B_SPLINE_CURVE ( 3, ( #780, #765, #506, #418 ),
 .UNSPECIFIED., .F., .F. ) 
 B_SPLINE_CURVE_WITH_KNOTS ( ( 4, 4 ),
 ( 5.994358326856594310, 6.283185307179586232 ),
 .UNSPECIFIED. ) 
 CURVE ( )  GEOMETRIC_REPRESENTATION_ITEM ( )  RATIONAL_B_SPLINE_CURVE ( ( 1.000000000000000000, 0.9930603212714743666, 0.9930603212714743666, 1.000000000000000000 ) ) 
 REPRESENTATION_ITEM ( '' )  );
#924 = AXIS2_PLACEMENT_3D ( 'NONE', #686, #858, #1022 ) ;
#925 = ORIENTED_EDGE ( 'NONE', *, *, #524, .T. ) ;
#926 = VECTOR ( 'NONE', #1028, 1000.000000000000000 ) ;
#927 = LINE ( 'NONE', #674, #485 ) ;
#928 = EDGE_CURVE ( 'NONE', #396, #531, #1006, .T. ) ;
#929 = FACE_OUTER_BOUND ( 'NONE', #77, .T. ) ;
#930 = CYLINDRICAL_SURFACE ( 'NONE', #1045, 3.000000000000002665 ) ;
#931 = ORIENTED_EDGE ( 'NONE', *, *, #1125, .F. ) ;
#932 = ORIENTED_EDGE ( 'NONE', *, *, #159, .T. ) ;
#933 = DIRECTION ( 'NONE',  ( 0.7071067811865504593, -0.7071067811865445751, 0.000000000000000000 ) ) ;
#934 = CARTESIAN_POINT ( 'NONE',  ( -110.6000000000000369, 13.77157287525382934, 10.76414752972333666 ) ) ;
#935 = CARTESIAN_POINT ( 'NONE',  ( -120.2000000000000313, 10.09999999999999964, 0.000000000000000000 ) ) ;
#936 = ORIENTED_EDGE ( 'NONE', *, *, #1019, .T. ) ;
#937 = SHAPE_DEFINITION_REPRESENTATION ( #134, #1071 ) ;
#938 = ORIENTED_EDGE ( 'NONE', *, *, #609, .T. ) ;
#939 = CARTESIAN_POINT ( 'NONE',  ( -115.0000000000000284, 0.000000000000000000, 0.000000000000000000 ) ) ;
#940 = CARTESIAN_POINT ( 'NONE',  ( -111.1857864376269447, 15.18578643762692870, 7.848279897097083513 ) ) ;
#941 = CARTESIAN_POINT ( 'NONE',  ( -117.6000000000000085, 12.84999999999998721, 8.000000000000000000 ) ) ;
#942 = CYLINDRICAL_SURFACE ( 'NONE', #708, 1.750000000000001554 ) ;
#943 = VERTEX_POINT ( 'NONE', #179 ) ;
#944 = ORIENTED_EDGE ( 'NONE', *, *, #62, .T. ) ;
#945 = DIRECTION ( 'NONE',  ( 0.7071067811865487940, -0.7071067811865463515, 0.000000000000000000 ) ) ;
#946 = AXIS2_PLACEMENT_3D ( 'NONE', #408, #784, #1129 ) ;
#947 = PRODUCT_DEFINITION_CONTEXT ( 'detailed design', #387, 'design' ) ;
#948 = VECTOR ( 'NONE', #612, 1000.000000000000000 ) ;
#949 = DIRECTION ( 'NONE',  ( -1.000000000000000000, 0.000000000000000000, 0.000000000000000000 ) ) ;
#950 = DIRECTION ( 'NONE',  ( -1.000000000000000000, 0.000000000000000000, 0.000000000000000000 ) ) ;
#951 = ORIENTED_EDGE ( 'NONE', *, *, #1066, .F. ) ;
#952 = EDGE_CURVE ( 'NONE', #1116, #54, #295, .T. ) ;
#953 = ADVANCED_FACE ( 'NONE', ( #325 ), #261, .F. ) ;
#954 = EDGE_LOOP ( 'NONE', ( #44, #877, #936, #975 ) ) ;
#955 = DIRECTION ( 'NONE',  ( 0.000000000000000000, 0.000000000000000000, -1.000000000000000000 ) ) ;
#956 = DIRECTION ( 'NONE',  ( 0.000000000000000000, 0.000000000000000000, -1.000000000000000000 ) ) ;
#957 = CARTESIAN_POINT ( 'NONE',  ( -119.5387326286667786, -15.13939201416947178, 8.000000000000000000 ) ) ;
#958 = ORIENTED_EDGE ( 'NONE', *, *, #1100, .T. ) ;
#959 = FACE_OUTER_BOUND ( 'NONE', #777, .T. ) ;
#960 = CARTESIAN_POINT ( 'NONE',  ( -124.5999999999999943, -14.60000000000004050, 15.00000000000000000 ) ) ;
#961 = LINE ( 'NONE', #432, #528 ) ;
#962 = B_SPLINE_CURVE_WITH_KNOTS ( 'NONE', 3,
 ( #840, #63, #480, #58, #394, #748, #314, #664 ),
 .UNSPECIFIED., .F., .F.,
 ( 4, 2, 2, 4 ),
 ( 1.734723475976806902E-18, 0.002334827944665808508, 0.003502241916998716231, 0.004669655889331623955 ),
 .UNSPECIFIED. ) ;
#963 = ORIENTED_EDGE ( 'NONE', *, *, #42, .T. ) ;
#964 = AXIS2_PLACEMENT_3D ( 'NONE', #254, #419, #603 ) ;
#965 = AXIS2_PLACEMENT_3D ( 'NONE', #8, #498, #163 ) ;
#966 = ADVANCED_FACE ( 'NONE', ( #1119 ), #94, .T. ) ;
#967 = EDGE_CURVE ( 'NONE', #900, #378, #756, .T. ) ;
#968 = VECTOR ( 'NONE', #794, 1000.000000000000000 ) ;
#969 = CARTESIAN_POINT ( 'NONE',  ( -119.7478791910416760, -10.74597195739855771, 13.57620592169871188 ) ) ;
#970 = DIRECTION ( 'NONE',  ( 1.000000000000000000, 0.000000000000000000, -0.000000000000000000 ) ) ;
#971 = ORIENTED_EDGE ( 'NONE', *, *, #226, .T. ) ;
#972 =( BOUNDED_CURVE ( )  B_SPLINE_CURVE ( 3, ( #868, #90, #775, #875 ),
 .UNSPECIFIED., .F., .F. ) 
 B_SPLINE_CURVE_WITH_KNOTS ( ( 4, 4 ),
 ( 5.832158495383327868, 6.283185307179586232 ),
 .UNSPECIFIED. ) 
 CURVE ( )  GEOMETRIC_REPRESENTATION_ITEM ( )  RATIONAL_B_SPLINE_CURVE ( ( 1.000000000000000000, 0.9831196229872645187, 0.9831196229872645187, 1.000000000000000000 ) ) 
 REPRESENTATION_ITEM ( '' )  );
#973 = CARTESIAN_POINT ( 'NONE',  ( -120.3081172737896622, -11.54529494326206240, 13.04330244089116242 ) ) ;
#974 = CYLINDRICAL_SURFACE ( 'NONE', #526, 3.000000000000002665 ) ;
#975 = ORIENTED_EDGE ( 'NONE', *, *, #747, .T. ) ;
#976 = CARTESIAN_POINT ( 'NONE',  ( -123.6000000000000085, -15.60000000000001030, 15.00000000000000000 ) ) ;
#977 = DIRECTION ( 'NONE',  ( 0.000000000000000000, 0.000000000000000000, -1.000000000000000000 ) ) ;
#978 = EDGE_CURVE ( 'NONE', #1116, #516, #247, .T. ) ;
#979 = ADVANCED_FACE ( 'NONE', ( #240, #849 ), #594, .F. ) ;
#980 = ORIENTED_EDGE ( 'NONE', *, *, #967, .T. ) ;
#981 = CARTESIAN_POINT ( 'NONE',  ( -115.1408438543364241, -14.62104686173642953, 9.380758759124999457 ) ) ;
#982 = AXIS2_PLACEMENT_3D ( 'NONE', #26, #716, #117 ) ;
#983 = DIRECTION ( 'NONE',  ( 0.000000000000000000, 1.734723475976807094E-15, -1.000000000000000000 ) ) ;
#984 = VECTOR ( 'NONE', #1016, 1000.000000000000000 ) ;
#985 = DIRECTION ( 'NONE',  ( 0.000000000000000000, 0.000000000000000000, -1.000000000000000000 ) ) ;
#986 = EDGE_CURVE ( 'NONE', #369, #175, #923, .T. ) ;
#987 = ORIENTED_EDGE ( 'NONE', *, *, #860, .T. ) ;
#988 = CARTESIAN_POINT ( 'NONE',  ( -120.5999999999999943, -13.11920056438386339, 11.60411917515593316 ) ) ;
#989 = DIRECTION ( 'NONE',  ( -1.000000000000000000, -0.000000000000000000, -0.000000000000000000 ) ) ;
#990 = DIRECTION ( 'NONE',  ( 0.000000000000000000, 0.000000000000000000, -1.000000000000000000 ) ) ;
#991 = ORIENTED_EDGE ( 'NONE', *, *, #78, .F. ) ;
#992 = CARTESIAN_POINT ( 'NONE',  ( -111.5999999999999943, -5.600000000000017408, 15.00000000000000000 ) ) ;
#993 = ORIENTED_EDGE ( 'NONE', *, *, #866, .T. ) ;
#994 = CARTESIAN_POINT ( 'NONE',  ( -120.1615078327446327, -14.42631058870114558, 9.715804932919972714 ) ) ;
#995 = EDGE_CURVE ( 'NONE', #1121, #304, #308, .T. ) ;
#996 = CARTESIAN_POINT ( 'NONE',  ( -110.6000000000000369, -13.77157287525386486, 15.00000000000000000 ) ) ;
#997 = DIRECTION ( 'NONE',  ( 1.000000000000000000, 0.000000000000000000, 0.000000000000000000 ) ) ;
#998 = ORIENTED_EDGE ( 'NONE', *, *, #978, .F. ) ;
#999 = DIRECTION ( 'NONE',  ( -1.000000000000000000, 0.000000000000000000, 0.000000000000000000 ) ) ;
#1000 = EDGE_CURVE ( 'NONE', #597, #1037, #635, .T. ) ;
#1001 = EDGE_CURVE ( 'NONE', #1102, #1116, #454, .T. ) ;
#1002 = AXIS2_PLACEMENT_3D ( 'NONE', #799, #970, #530 ) ;
#1003 = CARTESIAN_POINT ( 'NONE',  ( -117.6000000000000085, -12.85000000000001563, 15.00000000000000000 ) ) ;
#1004 = LINE ( 'NONE', #368, #695 ) ;
#1005 = CIRCLE ( 'NONE', #76, 3.000000000000002665 ) ;
#1006 = CIRCLE ( 'NONE', #217, 3.000000000000002665 ) ;
#1007 = ORIENTED_EDGE ( 'NONE', *, *, #866, .F. ) ;
#1008 = ORIENTED_EDGE ( 'NONE', *, *, #2, .F. ) ;
#1009 = LINE ( 'NONE', #145, #634 ) ;
#1010 = CARTESIAN_POINT ( 'NONE',  ( -115.6612673713332384, 15.13939201416944336, 8.000000000000000000 ) ) ;
#1011 = CARTESIAN_POINT ( 'NONE',  ( -115.0000000000000284, -13.77157287525386486, 0.000000000000000000 ) ) ;
#1012 = PLANE ( 'NONE',  #167 ) ;
#1013 = ORIENTED_EDGE ( 'NONE', *, *, #510, .F. ) ;
#1014 = CARTESIAN_POINT ( 'NONE',  ( -123.6000000000000085, -15.60000000000001030, 15.00000000000000000 ) ) ;
#1015 = CARTESIAN_POINT ( 'NONE',  ( -111.6000000000000085, 15.59999999999998543, 15.00000000000000000 ) ) ;
#1016 = DIRECTION ( 'NONE',  ( 1.000000000000000000, -0.000000000000000000, -0.000000000000000000 ) ) ;
#1017 = CARTESIAN_POINT ( 'NONE',  ( -115.0000000000000284, 0.000000000000000000, 0.000000000000000000 ) ) ;
#1018 = ORIENTED_EDGE ( 'NONE', *, *, #1039, .F. ) ;
#1019 = EDGE_CURVE ( 'NONE', #1049, #592, #861, .T. ) ;
#1020 = DIRECTION ( 'NONE',  ( 4.336808689942009847E-16, 1.000000000000000000, -0.000000000000000000 ) ) ;
#1021 = LINE ( 'NONE', #920, #434 ) ;
#1022 = DIRECTION ( 'NONE',  ( -1.000000000000000000, 0.000000000000000000, 0.000000000000000000 ) ) ;
#1023 = AXIS2_PLACEMENT_3D ( 'NONE', #687, #13, #876 ) ;
#1024 = ORIENTED_EDGE ( 'NONE', *, *, #265, .T. ) ;
#1025 = VECTOR ( 'NONE', #892, 1000.000000000000000 ) ;
#1026 = ORIENTED_EDGE ( 'NONE', *, *, #189, .F. ) ;
#1027 = DIRECTION ( 'NONE',  ( 0.000000000000000000, 0.000000000000000000, -1.000000000000000000 ) ) ;
#1028 = DIRECTION ( 'NONE',  ( -0.000000000000000000, -0.000000000000000000, -1.000000000000000000 ) ) ;
#1029 = CARTESIAN_POINT ( 'NONE',  ( -123.6000000000000085, 5.599999999999987210, 15.00000000000000000 ) ) ;
#1030 = ORIENTED_EDGE ( 'NONE', *, *, #660, .F. ) ;
#1031 = VERTEX_POINT ( 'NONE', #897 ) ;
#1032 = DIRECTION ( 'NONE',  ( -1.000000000000000000, 0.000000000000000000, 0.000000000000000000 ) ) ;
#1033 = EDGE_CURVE ( 'NONE', #1102, #142, #356, .T. ) ;
#1034 = CARTESIAN_POINT ( 'NONE',  ( -117.6000000000000085, 12.84999999999998721, 8.000000000000000000 ) ) ;
#1035 = LINE ( 'NONE', #248, #1112 ) ;
#1036 = ORIENTED_EDGE ( 'NONE', *, *, #307, .F. ) ;
#1037 = VERTEX_POINT ( 'NONE', #115 ) ;
#1038 = CYLINDRICAL_SURFACE ( 'NONE', #1095, 10.00000000000000000 ) ;
#1039 = EDGE_CURVE ( 'NONE', #943, #205, #743, .T. ) ;
#1040 = DIRECTION ( 'NONE',  ( 0.000000000000000000, 0.000000000000000000, -1.000000000000000000 ) ) ;
#1041 = EDGE_CURVE ( 'NONE', #1049, #453, #657, .T. ) ;
#1042 = FACE_OUTER_BOUND ( 'NONE', #521, .T. ) ;
#1043 = VERTEX_POINT ( 'NONE', #806 ) ;
#1044 = CARTESIAN_POINT ( 'NONE',  ( -120.2000000000000313, -13.77157287525386486, 0.000000000000000000 ) ) ;
#1045 = AXIS2_PLACEMENT_3D ( 'NONE', #495, #845, #68 ) ;
#1046 = DIRECTION ( 'NONE',  ( -1.000000000000000000, 0.000000000000000000, 0.000000000000000000 ) ) ;
#1047 = CARTESIAN_POINT ( 'NONE',  ( -120.3598409995810101, -14.04555640029867369, 10.36797465185374456 ) ) ;
#1048 = CARTESIAN_POINT ( 'NONE',  ( -119.6000877832170630, 10.60426042308101913, 13.65903111447132012 ) ) ;
#1049 = VERTEX_POINT ( 'NONE', #908 ) ;
#1050 = DIRECTION ( 'NONE',  ( -1.000000000000000000, -0.000000000000000000, 0.000000000000000000 ) ) ;
#1051 = DIRECTION ( 'NONE',  ( -0.000000000000000000, -0.000000000000000000, 1.000000000000000000 ) ) ;
#1052 = FACE_OUTER_BOUND ( 'NONE', #1086, .T. ) ;
#1053 = CARTESIAN_POINT ( 'NONE',  ( -110.6000000000000369, 13.77157287525382934, 10.76414752972333666 ) ) ;
#1054 = EDGE_CURVE ( 'NONE', #144, #1108, #838, .T. ) ;
#1055 = ORIENTED_EDGE ( 'NONE', *, *, #486, .T. ) ;
#1056 = PRODUCT_DEFINITION ( 'UNKNOWN', '', #149, #947 ) ;
#1057 = CARTESIAN_POINT ( 'NONE',  ( -117.6000000000000085, 12.84999999999998721, 15.00000000000000000 ) ) ;
#1058 = VERTEX_POINT ( 'NONE', #50 ) ;
#1059 = CIRCLE ( 'NONE', #654, 10.09999999999999964 ) ;
#1060 = CARTESIAN_POINT ( 'NONE',  ( -111.6000000000000085, 15.59999999999998543, 15.00000000000000000 ) ) ;
#1061 = CARTESIAN_POINT ( 'NONE',  ( -115.9306931736865351, -10.34857798291902142, 13.80184352073669807 ) ) ;
#1062 = CARTESIAN_POINT ( 'NONE',  ( -115.6036734301855375, 10.60072955135108330, 13.66108606652925594 ) ) ;
#1063 = EDGE_LOOP ( 'NONE', ( #110, #577, #125 ) ) ;
#1064 = DIRECTION ( 'NONE',  ( -1.000000000000000000, 0.000000000000000000, 0.000000000000000000 ) ) ;
#1065 = EDGE_CURVE ( 'NONE', #373, #516, #488, .T. ) ;
#1066 = EDGE_CURVE ( 'NONE', #653, #783, #818, .T. ) ;
#1067 = CARTESIAN_POINT ( 'NONE',  ( -120.3823302283038146, 11.71424967340589518, 12.91594915449618597 ) ) ;
#1068 = VERTEX_POINT ( 'NONE', #214 ) ;
#1069 = FACE_BOUND ( 'NONE', #400, .T. ) ;
#1070 = DIRECTION ( 'NONE',  ( -0.000000000000000000, -0.000000000000000000, -1.000000000000000000 ) ) ;
#1071 = ADVANCED_BREP_SHAPE_REPRESENTATION ( 'camera_tracker_bearing_mount', ( #568, #699 ), #888 ) ;
#1072 = ADVANCED_FACE ( 'NONE', ( #118 ), #371, .F. ) ;
#1073 = CARTESIAN_POINT ( 'NONE',  ( -110.6000000000000369, 5.599999999999987210, 4.999999999999999112 ) ) ;
#1074 = ORIENTED_EDGE ( 'NONE', *, *, #192, .T. ) ;
#1075 = CARTESIAN_POINT ( 'NONE',  ( -115.0000000000000284, -10.09999999999999964, 0.000000000000000000 ) ) ;
#1076 = CARTESIAN_POINT ( 'NONE',  ( -114.6000000000000085, 12.84999999999998721, 15.00000000000000000 ) ) ;
#1077 = CIRCLE ( 'NONE', #324, 2.000000000000001776 ) ;
#1078 = CARTESIAN_POINT ( 'NONE',  ( -111.4609639470028242, 15.46096394700281884, 6.922179607584188155 ) ) ;
#1079 = VECTOR ( 'NONE', #160, 1000.000000000000000 ) ;
#1080 = CARTESIAN_POINT ( 'NONE',  ( -115.0000000000000284, 0.000000000000000000, 0.000000000000000000 ) ) ;
#1081 = FACE_BOUND ( 'NONE', #390, .T. ) ;
#1082 = ORIENTED_EDGE ( 'NONE', *, *, #890, .F. ) ;
#1083 = CARTESIAN_POINT ( 'NONE',  ( -111.6000000000000085, 15.59999999999998543, 4.999999999999999112 ) ) ;
#1084 = LINE ( 'NONE', #298, #984 ) ;
#1085 = CARTESIAN_POINT ( 'NONE',  ( -111.1857864376269447, 15.18578643762692693, 0.000000000000000000 ) ) ;
#1086 = EDGE_LOOP ( 'NONE', ( #951, #569, #25, #767 ) ) ;
#1087 = EDGE_CURVE ( 'NONE', #441, #378, #376, .T. ) ;
#1088 = ORIENTED_EDGE ( 'NONE', *, *, #1019, .F. ) ;
#1089 = DIRECTION ( 'NONE',  ( -0.000000000000000000, -0.000000000000000000, -1.000000000000000000 ) ) ;
#1090 = CARTESIAN_POINT ( 'NONE',  ( -111.1857864376269447, -15.18578643762697133, 0.000000000000000000 ) ) ;
#1091 = LINE ( 'NONE', #131, #37 ) ;
#1092 = ORIENTED_EDGE ( 'NONE', *, *, #1098, .T. ) ;
#1093 = DIRECTION ( 'NONE',  ( -0.000000000000000000, -0.000000000000000000, -1.000000000000000000 ) ) ;
#1094 = LINE ( 'NONE', #389, #57 ) ;
#1095 = AXIS2_PLACEMENT_3D ( 'NONE', #1117, #689, #513 ) ;
#1096 = ORIENTED_EDGE ( 'NONE', *, *, #544, .F. ) ;
#1097 = DIRECTION ( 'NONE',  ( 0.000000000000000000, 0.000000000000000000, 1.000000000000000000 ) ) ;
#1098 = EDGE_CURVE ( 'NONE', #31, #373, #456, .T. ) ;
#1099 = CARTESIAN_POINT ( 'NONE',  ( -110.6000000000000796, -14.09286825402910459, 10.30866151230174843 ) ) ;
#1100 = EDGE_CURVE ( 'NONE', #346, #304, #113, .T. ) ;
#1101 = DIRECTION ( 'NONE',  ( -0.000000000000000000, -0.000000000000000000, -1.000000000000000000 ) ) ;
#1102 = VERTEX_POINT ( 'NONE', #1083 ) ;
#1103 = DIRECTION ( 'NONE',  ( -0.000000000000000000, -0.000000000000000000, -1.000000000000000000 ) ) ;
#1104 =( NAMED_UNIT ( * ) PLANE_ANGLE_UNIT ( ) SI_UNIT ( $, .RADIAN. ) );
#1105 = LINE ( 'NONE', #832, #359 ) ;
#1106 = PLANE ( 'NONE',  #796 ) ;
#1107 = ORIENTED_EDGE ( 'NONE', *, *, #912, .T. ) ;
#1108 = VERTEX_POINT ( 'NONE', #246 ) ;
#1109 = CARTESIAN_POINT ( 'NONE',  ( -114.5999999999999943, 13.11920056438383320, 11.60411917515593316 ) ) ;
#1110 = CARTESIAN_POINT ( 'NONE',  ( -111.1857864376269447, 15.18578643762692870, 7.848279897097083513 ) ) ;
#1111 = DIRECTION ( 'NONE',  ( 0.000000000000000000, 0.000000000000000000, -1.000000000000000000 ) ) ;
#1112 = VECTOR ( 'NONE', #770, 1000.000000000000000 ) ;
#1113 = AXIS2_PLACEMENT_3D ( 'NONE', #178, #1050, #983 ) ;
#1114 = ORIENTED_EDGE ( 'NONE', *, *, #439, .F. ) ;
#1115 = VECTOR ( 'NONE', #566, 1000.000000000000000 ) ;
#1116 = VERTEX_POINT ( 'NONE', #940 ) ;
#1117 = CARTESIAN_POINT ( 'NONE',  ( -112.6000000000000369, -5.600000000000016520, 4.999999999999999112 ) ) ;
#1118 = DIRECTION ( 'NONE',  ( 0.000000000000000000, 0.000000000000000000, 1.000000000000000000 ) ) ;
#1119 = FACE_OUTER_BOUND ( 'NONE', #243, .T. ) ;
#1120 = DIRECTION ( 'NONE',  ( -0.000000000000000000, -0.000000000000000000, 1.000000000000000000 ) ) ;
#1121 = VERTEX_POINT ( 'NONE', #1010 ) ;
#1122 = ORIENTED_EDGE ( 'NONE', *, *, #206, .T. ) ;
#1123 =( NAMED_UNIT ( * ) PLANE_ANGLE_UNIT ( ) SI_UNIT ( $, .RADIAN. ) );
#1124 = ADVANCED_FACE ( 'NONE', ( #736 ), #831, .F. ) ;
#1125 = EDGE_CURVE ( 'NONE', #1043, #155, #919, .T. ) ;
#1126 = CARTESIAN_POINT ( 'NONE',  ( -117.6000000000000085, 12.84999999999998721, 8.000000000000000000 ) ) ;
#1127 = LINE ( 'NONE', #579, #464 ) ;
#1128 = EDGE_LOOP ( 'NONE', ( #754, #70, #14, #497 ) ) ;
#1129 = DIRECTION ( 'NONE',  ( 1.000000000000000000, 0.000000000000000000, -0.000000000000000000 ) ) ;
ENDSEC;
END-ISO-10303-21;
