ISO-10303-21;
HEADER;
FILE_DESCRIPTION (( 'STEP AP214' ),
    '1' );
FILE_NAME ('Part2^camer_tracker.STEP',
    '2026-05-15T09:00:37',
    ( '' ),
    ( '' ),
    'SwSTEP 2.0',
    'SolidWorks 2024',
    '' );
FILE_SCHEMA (( 'AUTOMOTIVE_DESIGN' ));
ENDSEC;

DATA;
#1 = FACE_OUTER_BOUND ( 'NONE', #6, .T. ) ;
#2 = ORIENTED_EDGE ( 'NONE', *, *, #158, .F. ) ;
#3 = EDGE_CURVE ( 'NONE', #812, #738, #7, .T. ) ;
#4 = CARTESIAN_POINT ( 'NONE',  ( -40.41522368914974805, 18.38477631085023845, 2.000000000000000000 ) ) ;
#5 = DIRECTION ( 'NONE',  ( 0.000000000000000000, 0.000000000000000000, 1.000000000000000000 ) ) ;
#6 = EDGE_LOOP ( 'NONE', ( #178, #56, #81, #307 ) ) ;
#7 = CIRCLE ( 'NONE', #815, 10.00000000000000178 ) ;
#8 = AXIS2_PLACEMENT_3D ( 'NONE', #401, #63, #268 ) ;
#9 = DIRECTION ( 'NONE',  ( 1.000000000000000000, 0.000000000000000000, 0.000000000000000000 ) ) ;
#10 = CARTESIAN_POINT ( 'NONE',  ( -58.79999999999999716, 26.00000000000000711, 0.000000000000000000 ) ) ;
#11 = VERTEX_POINT ( 'NONE', #835 ) ;
#12 = SURFACE_STYLE_USAGE ( .BOTH. , #348 ) ;
#13 = DIRECTION ( 'NONE',  ( -0.000000000000000000, -0.000000000000000000, 1.000000000000000000 ) ) ;
#14 = EDGE_CURVE ( 'NONE', #234, #480, #636, .T. ) ;
#15 = ORIENTED_EDGE ( 'NONE', *, *, #475, .F. ) ;
#16 = EDGE_CURVE ( 'NONE', #325, #430, #216, .T. ) ;
#17 = LINE ( 'NONE', #622, #547 ) ;
#18 = ORIENTED_EDGE ( 'NONE', *, *, #728, .T. ) ;
#19 = CIRCLE ( 'NONE', #88, 1.600000000000004086 ) ;
#20 = CIRCLE ( 'NONE', #161, 29.10000000000000497 ) ;
#21 = DIRECTION ( 'NONE',  ( 1.000000000000000000, 0.000000000000000000, 0.000000000000000000 ) ) ;
#22 = CARTESIAN_POINT ( 'NONE',  ( -46.25863997096080027, 14.40570333659616331, 0.000000000000000000 ) ) ;
#23 = ORIENTED_EDGE ( 'NONE', *, *, #275, .F. ) ;
#24 = CARTESIAN_POINT ( 'NONE',  ( -71.34136002903926510, 14.40570333659612601, 0.000000000000000000 ) ) ;
#25 = EDGE_CURVE ( 'NONE', #792, #191, #631, .T. ) ;
#26 = FACE_BOUND ( 'NONE', #288, .T. ) ;
#27 = EDGE_LOOP ( 'NONE', ( #490, #217 ) ) ;
#28 = DIRECTION ( 'NONE',  ( -0.000000000000000000, -0.000000000000000000, -1.000000000000000000 ) ) ;
#29 = FACE_OUTER_BOUND ( 'NONE', #494, .T. ) ;
#30 = ORIENTED_EDGE ( 'NONE', *, *, #257, .T. ) ;
#31 = AXIS2_PLACEMENT_3D ( 'NONE', #149, #299, #221 ) ;
#32 = CIRCLE ( 'NONE', #89, 29.10000000000000497 ) ;
#33 = DIRECTION ( 'NONE',  ( 0.000000000000000000, 0.000000000000000000, 1.000000000000000000 ) ) ;
#34 = ORIENTED_EDGE ( 'NONE', *, *, #223, .T. ) ;
#35 =( NAMED_UNIT ( * ) SI_UNIT ( $, .STERADIAN. ) SOLID_ANGLE_UNIT ( ) );
#36 = FACE_OUTER_BOUND ( 'NONE', #137, .T. ) ;
#37 = ADVANCED_FACE ( 'NONE', ( #830 ), #690, .F. ) ;
#38 = DIRECTION ( 'NONE',  ( 0.000000000000000000, -1.000000000000000000, 0.000000000000000000 ) ) ;
#39 = EDGE_CURVE ( 'NONE', #165, #352, #740, .T. ) ;
#40 = DIRECTION ( 'NONE',  ( 0.000000000000000000, 0.000000000000000000, 1.000000000000000000 ) ) ;
#41 = DIRECTION ( 'NONE',  ( -0.000000000000000000, -0.000000000000000000, 1.000000000000000000 ) ) ;
#42 = ORIENTED_EDGE ( 'NONE', *, *, #95, .T. ) ;
#43 = ORIENTED_EDGE ( 'NONE', *, *, #684, .F. ) ;
#44 = DIRECTION ( 'NONE',  ( -0.000000000000000000, -0.000000000000000000, -1.000000000000000000 ) ) ;
#45 = CARTESIAN_POINT ( 'NONE',  ( -71.34136002903926510, -14.40570333659612956, 2.000000000000000000 ) ) ;
#46 = VECTOR ( 'NONE', #705, 1000.000000000000000 ) ;
#47 = CYLINDRICAL_SURFACE ( 'NONE', #436, 1.599999999999997202 ) ;
#48 = ORIENTED_EDGE ( 'NONE', *, *, #250, .T. ) ;
#49 = CARTESIAN_POINT ( 'NONE',  ( -40.41522368914976227, -18.38477631085023134, 0.000000000000000000 ) ) ;
#50 = CARTESIAN_POINT ( 'NONE',  ( -40.41522368914974805, 18.38477631085023845, 0.000000000000000000 ) ) ;
#51 = ADVANCED_FACE ( 'NONE', ( #373 ), #381, .T. ) ;
#52 = CARTESIAN_POINT ( 'NONE',  ( -58.80000000000001137, -1.361020142258940230E-15, 2.000000000000000000 ) ) ;
#53 = ORIENTED_EDGE ( 'NONE', *, *, #169, .F. ) ;
#54 = EDGE_CURVE ( 'NONE', #391, #735, #628, .T. ) ;
#55 = DIRECTION ( 'NONE',  ( -0.000000000000000000, -0.000000000000000000, -1.000000000000000000 ) ) ;
#56 = ORIENTED_EDGE ( 'NONE', *, *, #541, .F. ) ;
#57 = DIRECTION ( 'NONE',  ( -0.000000000000000000, 1.000000000000000000, -0.000000000000000000 ) ) ;
#58 = AXIS2_PLACEMENT_3D ( 'NONE', #143, #13, #337 ) ;
#59 = PLANE ( 'NONE',  #272 ) ;
#60 = AXIS2_PLACEMENT_3D ( 'NONE', #669, #164, #551 ) ;
#61 = ORIENTED_EDGE ( 'NONE', *, *, #343, .F. ) ;
#62 = VECTOR ( 'NONE', #44, 1000.000000000000000 ) ;
#63 = DIRECTION ( 'NONE',  ( -0.000000000000000000, -0.000000000000000000, -1.000000000000000000 ) ) ;
#64 = DIRECTION ( 'NONE',  ( 0.000000000000000000, 0.000000000000000000, 1.000000000000000000 ) ) ;
#65 = ORIENTED_EDGE ( 'NONE', *, *, #684, .T. ) ;
#66 = ADVANCED_FACE ( 'NONE', ( #310 ), #508, .F. ) ;
#67 = DIRECTION ( 'NONE',  ( 0.000000000000000000, -1.000000000000000000, 0.000000000000000000 ) ) ;
#68 = DIRECTION ( 'NONE',  ( 1.000000000000000000, 0.000000000000000000, 0.000000000000000000 ) ) ;
#69 = VERTEX_POINT ( 'NONE', #697 ) ;
#70 = DIRECTION ( 'NONE',  ( 1.000000000000000000, 0.000000000000000000, 0.000000000000000000 ) ) ;
#71 = DIRECTION ( 'NONE',  ( 0.000000000000000000, 0.000000000000000000, 1.000000000000000000 ) ) ;
#72 = CYLINDRICAL_SURFACE ( 'NONE', #131, 1.600000000000004086 ) ;
#73 = VECTOR ( 'NONE', #38, 1000.000000000000000 ) ;
#74 = VERTEX_POINT ( 'NONE', #693 ) ;
#75 = CIRCLE ( 'NONE', #533, 19.00000000000001066 ) ;
#76 = AXIS2_PLACEMENT_3D ( 'NONE', #783, #336, #656 ) ;
#77 = ADVANCED_FACE ( 'NONE', ( #377 ), #47, .F. ) ;
#78 = CARTESIAN_POINT ( 'NONE',  ( -58.80000000000001137, -1.361020142258940230E-15, 0.000000000000000000 ) ) ;
#79 = CARTESIAN_POINT ( 'NONE',  ( -58.79999999999999716, 26.00000000000000711, 0.000000000000000000 ) ) ;
#80 = ADVANCED_FACE ( 'NONE', ( #470 ), #59, .F. ) ;
#81 = ORIENTED_EDGE ( 'NONE', *, *, #796, .T. ) ;
#82 = FILL_AREA_STYLE ('',( #291 ) ) ;
#83 = FACE_BOUND ( 'NONE', #424, .T. ) ;
#84 = ORIENTED_EDGE ( 'NONE', *, *, #14, .F. ) ;
#85 = CARTESIAN_POINT ( 'NONE',  ( -38.81522368914976795, -18.38477631085023134, 0.000000000000000000 ) ) ;
#86 = FACE_BOUND ( 'NONE', #27, .T. ) ;
#87 = ORIENTED_EDGE ( 'NONE', *, *, #400, .F. ) ;
#88 = AXIS2_PLACEMENT_3D ( 'NONE', #791, #412, #394 ) ;
#89 = AXIS2_PLACEMENT_3D ( 'NONE', #188, #454, #170 ) ;
#90 = EDGE_CURVE ( 'NONE', #839, #718, #663, .T. ) ;
#91 = CARTESIAN_POINT ( 'NONE',  ( -78.78477631085023347, 18.38477631085024555, 2.000000000000000000 ) ) ;
#92 = AXIS2_PLACEMENT_3D ( 'NONE', #447, #116, #103 ) ;
#93 = CARTESIAN_POINT ( 'NONE',  ( -77.90751711230588228, 21.94795639240561513, 2.000000000000000000 ) ) ;
#94 = ORIENTED_EDGE ( 'NONE', *, *, #39, .F. ) ;
#95 = EDGE_CURVE ( 'NONE', #820, #74, #623, .T. ) ;
#96 = CARTESIAN_POINT ( 'NONE',  ( -75.58477631085023063, -18.38477631085024555, 0.000000000000000000 ) ) ;
#97 = FACE_BOUND ( 'NONE', #121, .T. ) ;
#98 = VERTEX_POINT ( 'NONE', #468 ) ;
#99 = DIRECTION ( 'NONE',  ( -0.000000000000000000, -0.000000000000000000, 1.000000000000000000 ) ) ;
#100 = CYLINDRICAL_SURFACE ( 'NONE', #465, 1.599999999999997202 ) ;
#101 = ORIENTED_EDGE ( 'NONE', *, *, #95, .F. ) ;
#102 = AXIS2_PLACEMENT_3D ( 'NONE', #723, #605, #398 ) ;
#103 = DIRECTION ( 'NONE',  ( 1.000000000000000000, 0.000000000000000000, -0.000000000000000000 ) ) ;
#104 = AXIS2_PLACEMENT_3D ( 'NONE', #78, #846, #523 ) ;
#105 =( GEOMETRIC_REPRESENTATION_CONTEXT ( 3 ) GLOBAL_UNCERTAINTY_ASSIGNED_CONTEXT ( ( #155 ) ) GLOBAL_UNIT_ASSIGNED_CONTEXT ( ( #495, #687, #778 ) ) REPRESENTATION_CONTEXT ( 'NONE', 'WORKASPACE' ) );
#106 = DIRECTION ( 'NONE',  ( 1.000000000000000000, 0.000000000000000000, 0.000000000000000000 ) ) ;
#107 = DIRECTION ( 'NONE',  ( -0.000000000000000000, -0.000000000000000000, -1.000000000000000000 ) ) ;
#108 = EDGE_CURVE ( 'NONE', #349, #330, #769, .T. ) ;
#109 = DIRECTION ( 'NONE',  ( 0.000000000000000000, 0.000000000000000000, 1.000000000000000000 ) ) ;
#110 = EDGE_LOOP ( 'NONE', ( #446, #682, #276, #698 ) ) ;
#111 = EDGE_LOOP ( 'NONE', ( #482, #798 ) ) ;
#112 = FACE_OUTER_BOUND ( 'NONE', #314, .T. ) ;
#113 = LINE ( 'NONE', #828, #829 ) ;
#114 = CARTESIAN_POINT ( 'NONE',  ( -71.34136002903926510, -14.40570333659612956, 0.000000000000000000 ) ) ;
#115 = ORIENTED_EDGE ( 'NONE', *, *, #3, .T. ) ;
#116 = DIRECTION ( 'NONE',  ( 0.000000000000000000, 0.000000000000000000, 1.000000000000000000 ) ) ;
#117 = EDGE_CURVE ( 'NONE', #11, #686, #75, .T. ) ;
#118 = CARTESIAN_POINT ( 'NONE',  ( -39.69248288769419730, -21.94795639240567553, 2.000000000000000000 ) ) ;
#119 = CIRCLE ( 'NONE', #611, 10.00000000000000178 ) ;
#120 = CIRCLE ( 'NONE', #535, 1.600000000000004086 ) ;
#121 = EDGE_LOOP ( 'NONE', ( #407, #395 ) ) ;
#122 = ORIENTED_EDGE ( 'NONE', *, *, #602, .T. ) ;
#123 = ADVANCED_FACE ( 'NONE', ( #709 ), #780, .F. ) ;
#124 = DIRECTION ( 'NONE',  ( -0.000000000000000000, -0.000000000000000000, 1.000000000000000000 ) ) ;
#125 = ORIENTED_EDGE ( 'NONE', *, *, #14, .T. ) ;
#126 = ORIENTED_EDGE ( 'NONE', *, *, #748, .T. ) ;
#127 = DIRECTION ( 'NONE',  ( 0.000000000000000000, 0.000000000000000000, 1.000000000000000000 ) ) ;
#128 = CARTESIAN_POINT ( 'NONE',  ( -77.18477631085022495, -18.38477631085024555, 0.000000000000000000 ) ) ;
#129 = EDGE_CURVE ( 'NONE', #352, #165, #369, .T. ) ;
#130 = LINE ( 'NONE', #259, #318 ) ;
#131 = AXIS2_PLACEMENT_3D ( 'NONE', #666, #539, #296 ) ;
#132 = AXIS2_PLACEMENT_3D ( 'NONE', #4, #653, #9 ) ;
#133 = ORIENTED_EDGE ( 'NONE', *, *, #708, .T. ) ;
#134 = AXIS2_PLACEMENT_3D ( 'NONE', #323, #109, #182 ) ;
#135 = EDGE_CURVE ( 'NONE', #632, #509, #160, .T. ) ;
#136 = FACE_OUTER_BOUND ( 'NONE', #538, .T. ) ;
#137 = EDGE_LOOP ( 'NONE', ( #532, #673, #570, #201 ) ) ;
#138 = CARTESIAN_POINT ( 'NONE',  ( -39.80000000000000426, 9.658087761210321212E-16, 2.000000000000000000 ) ) ;
#139 = CARTESIAN_POINT ( 'NONE',  ( -36.25863997096080027, -14.40570333659615265, 0.000000000000000000 ) ) ;
#140 = EDGE_LOOP ( 'NONE', ( #23, #679, #714, #701 ) ) ;
#141 = CARTESIAN_POINT ( 'NONE',  ( -36.25863997096080027, 14.40570333659616509, 2.000000000000000000 ) ) ;
#142 = EDGE_CURVE ( 'NONE', #480, #322, #243, .T. ) ;
#143 = CARTESIAN_POINT ( 'NONE',  ( -58.79999999999999716, -26.00000000000000711, 0.000000000000000000 ) ) ;
#144 = CIRCLE ( 'NONE', #477, 1.599999999999997202 ) ;
#145 = ORIENTED_EDGE ( 'NONE', *, *, #577, .T. ) ;
#146 = VECTOR ( 'NONE', #67, 1000.000000000000000 ) ;
#147 = CIRCLE ( 'NONE', #163, 19.00000000000001066 ) ;
#148 = ADVANCED_FACE ( 'NONE', ( #136 ), #589, .F. ) ;
#149 = CARTESIAN_POINT ( 'NONE',  ( -58.80000000000001137, -1.361020142258940230E-15, 2.000000000000000000 ) ) ;
#150 = ORIENTED_EDGE ( 'NONE', *, *, #135, .F. ) ;
#151 = CARTESIAN_POINT ( 'NONE',  ( -58.80000000000001137, -1.361020142258940230E-15, 0.000000000000000000 ) ) ;
#152 = DIRECTION ( 'NONE',  ( -0.000000000000000000, -0.000000000000000000, 1.000000000000000000 ) ) ;
#153 = EDGE_LOOP ( 'NONE', ( #420, #591, #361, #43 ) ) ;
#154 = ADVANCED_FACE ( 'NONE', ( #1 ), #597, .F. ) ;
#155 = UNCERTAINTY_MEASURE_WITH_UNIT (LENGTH_MEASURE( 1.000000000000000082E-05 ), #495, 'distance_accuracy_value', 'NONE');
#156 = DIRECTION ( 'NONE',  ( 0.000000000000000000, 0.000000000000000000, 1.000000000000000000 ) ) ;
#157 = CARTESIAN_POINT ( 'NONE',  ( -58.79999999999999716, -26.00000000000000711, 0.000000000000000000 ) ) ;
#158 = EDGE_CURVE ( 'NONE', #206, #586, #19, .T. ) ;
#159 = ORIENTED_EDGE ( 'NONE', *, *, #755, .F. ) ;
#160 = CIRCLE ( 'NONE', #546, 1.600000000000004086 ) ;
#161 = AXIS2_PLACEMENT_3D ( 'NONE', #426, #487, #802 ) ;
#162 = DIRECTION ( 'NONE',  ( -0.000000000000000000, -0.000000000000000000, 1.000000000000000000 ) ) ;
#163 = AXIS2_PLACEMENT_3D ( 'NONE', #727, #40, #379 ) ;
#164 = DIRECTION ( 'NONE',  ( 0.000000000000000000, 0.000000000000000000, 1.000000000000000000 ) ) ;
#165 = VERTEX_POINT ( 'NONE', #462 ) ;
#166 = LINE ( 'NONE', #421, #788 ) ;
#167 = DIRECTION ( 'NONE',  ( 1.000000000000000000, 0.000000000000000000, 0.000000000000000000 ) ) ;
#168 = ORIENTED_EDGE ( 'NONE', *, *, #331, .T. ) ;
#169 = EDGE_CURVE ( 'NONE', #382, #242, #258, .T. ) ;
#170 = DIRECTION ( 'NONE',  ( 1.000000000000000000, 0.000000000000000000, 0.000000000000000000 ) ) ;
#171 = ORIENTED_EDGE ( 'NONE', *, *, #813, .F. ) ;
#172 = AXIS2_PLACEMENT_3D ( 'NONE', #406, #797, #459 ) ;
#173 = CYLINDRICAL_SURFACE ( 'NONE', #625, 1.599999999999997202 ) ;
#174 = CIRCLE ( 'NONE', #726, 1.599999999999997202 ) ;
#175 =( GEOMETRIC_REPRESENTATION_CONTEXT ( 3 ) GLOBAL_UNCERTAINTY_ASSIGNED_CONTEXT ( ( #483 ) ) GLOBAL_UNIT_ASSIGNED_CONTEXT ( ( #732, #354, #35 ) ) REPRESENTATION_CONTEXT ( 'NONE', 'WORKASPACE' ) );
#176 = DIRECTION ( 'NONE',  ( -0.000000000000000000, -0.000000000000000000, 1.000000000000000000 ) ) ;
#177 = ORIENTED_EDGE ( 'NONE', *, *, #799, .F. ) ;
#178 = ORIENTED_EDGE ( 'NONE', *, *, #403, .F. ) ;
#179 = CARTESIAN_POINT ( 'NONE',  ( -46.25863997096080027, -14.40570333659616686, 2.000000000000000000 ) ) ;
#180 = LINE ( 'NONE', #511, #410 ) ;
#181 = DIRECTION ( 'NONE',  ( 1.000000000000000000, 0.000000000000000000, 0.000000000000000000 ) ) ;
#182 = DIRECTION ( 'NONE',  ( 1.000000000000000000, 0.000000000000000000, 0.000000000000000000 ) ) ;
#183 = CYLINDRICAL_SURFACE ( 'NONE', #560, 1.599999999999990319 ) ;
#184 = ADVANCED_FACE ( 'NONE', ( #204 ), #721, .F. ) ;
#185 = CARTESIAN_POINT ( 'NONE',  ( -77.18477631085022495, -18.38477631085024555, 2.000000000000000000 ) ) ;
#186 = ORIENTED_EDGE ( 'NONE', *, *, #577, .F. ) ;
#187 = CARTESIAN_POINT ( 'NONE',  ( -42.01522368914976369, -18.38477631085023134, 0.000000000000000000 ) ) ;
#188 = CARTESIAN_POINT ( 'NONE',  ( -58.80000000000001137, -1.361020142258940230E-15, 0.000000000000000000 ) ) ;
#189 = CIRCLE ( 'NONE', #277, 19.00000000000001066 ) ;
#190 = VECTOR ( 'NONE', #739, 1000.000000000000000 ) ;
#191 = VERTEX_POINT ( 'NONE', #139 ) ;
#192 = DIRECTION ( 'NONE',  ( 0.000000000000000000, 0.000000000000000000, 1.000000000000000000 ) ) ;
#193 = ADVANCED_FACE ( 'NONE', ( #661 ), #72, .F. ) ;
#194 = EDGE_LOOP ( 'NONE', ( #399, #270 ) ) ;
#195 = ORIENTED_EDGE ( 'NONE', *, *, #587, .F. ) ;
#196 = ADVANCED_FACE ( 'NONE', ( #608, #481, #83, #672, #97, #26, #729, #86 ), #364, .T. ) ;
#197 = APPLICATION_PROTOCOL_DEFINITION ( 'draft international standard', 'automotive_design', 1998, #550 ) ;
#198 = CARTESIAN_POINT ( 'NONE',  ( -58.79999999999999716, 26.00000000000000711, 0.000000000000000000 ) ) ;
#199 = EDGE_CURVE ( 'NONE', #191, #98, #119, .T. ) ;
#200 = DIRECTION ( 'NONE',  ( -0.000000000000000000, -0.000000000000000000, 1.000000000000000000 ) ) ;
#201 = ORIENTED_EDGE ( 'NONE', *, *, #25, .F. ) ;
#202 = DIRECTION ( 'NONE',  ( 0.000000000000000000, 0.000000000000000000, 1.000000000000000000 ) ) ;
#203 = AXIS2_PLACEMENT_3D ( 'NONE', #817, #225, #485 ) ;
#204 = FACE_OUTER_BOUND ( 'NONE', #321, .T. ) ;
#205 = AXIS2_PLACEMENT_3D ( 'NONE', #408, #596, #646 ) ;
#206 = VERTEX_POINT ( 'NONE', #429 ) ;
#207 = AXIS2_PLACEMENT_3D ( 'NONE', #810, #814, #232 ) ;
#208 = DIRECTION ( 'NONE',  ( 1.000000000000000000, 0.000000000000000000, 0.000000000000000000 ) ) ;
#209 = DIRECTION ( 'NONE',  ( -0.000000000000000000, -0.000000000000000000, 1.000000000000000000 ) ) ;
#210 = ORIENTED_EDGE ( 'NONE', *, *, #514, .F. ) ;
#211 = DIRECTION ( 'NONE',  ( 0.000000000000000000, 0.000000000000000000, 1.000000000000000000 ) ) ;
#212 = EDGE_CURVE ( 'NONE', #718, #839, #144, .T. ) ;
#213 = VERTEX_POINT ( 'NONE', #355 ) ;
#214 = CARTESIAN_POINT ( 'NONE',  ( -75.58477631085023063, 18.38477631085024555, 0.000000000000000000 ) ) ;
#215 = CARTESIAN_POINT ( 'NONE',  ( -40.41522368914976227, -18.38477631085023134, 0.000000000000000000 ) ) ;
#216 = CIRCLE ( 'NONE', #753, 1.599999999999997202 ) ;
#217 = ORIENTED_EDGE ( 'NONE', *, *, #117, .F. ) ;
#218 = AXIS2_PLACEMENT_3D ( 'NONE', #237, #496, #106 ) ;
#219 = COLOUR_RGB ( '',0.7921568627450980005, 0.8196078431372548767, 0.9333333333333333481 ) ;
#220 = DIRECTION ( 'NONE',  ( 1.000000000000000000, 0.000000000000000000, 0.000000000000000000 ) ) ;
#221 = DIRECTION ( 'NONE',  ( 1.000000000000000000, 0.000000000000000000, -0.000000000000000000 ) ) ;
#222 = ORIENTED_EDGE ( 'NONE', *, *, #541, .T. ) ;
#223 = EDGE_CURVE ( 'NONE', #338, #387, #685, .T. ) ;
#224 = DIRECTION ( 'NONE',  ( 0.000000000000000000, 0.000000000000000000, 1.000000000000000000 ) ) ;
#225 = DIRECTION ( 'NONE',  ( 0.000000000000000000, 0.000000000000000000, 1.000000000000000000 ) ) ;
#226 = ORIENTED_EDGE ( 'NONE', *, *, #416, .T. ) ;
#227 = CARTESIAN_POINT ( 'NONE',  ( -75.58477631085023063, 18.38477631085024555, 2.000000000000000000 ) ) ;
#228 = CARTESIAN_POINT ( 'NONE',  ( -58.79999999999999716, -26.00000000000000711, 2.000000000000000000 ) ) ;
#229 = VERTEX_POINT ( 'NONE', #93 ) ;
#230 = AXIS2_PLACEMENT_3D ( 'NONE', #228, #737, #555 ) ;
#231 = AXIS2_PLACEMENT_3D ( 'NONE', #607, #156, #295 ) ;
#232 = DIRECTION ( 'NONE',  ( -1.000000000000000000, 0.000000000000000000, 0.000000000000000000 ) ) ;
#233 = CARTESIAN_POINT ( 'NONE',  ( -60.40000000000000568, -26.00000000000000711, 0.000000000000000000 ) ) ;
#234 = VERTEX_POINT ( 'NONE', #493 ) ;
#235 = ADVANCED_FACE ( 'NONE', ( #613 ), #100, .F. ) ;
#236 = FACE_BOUND ( 'NONE', #297, .T. ) ;
#237 = CARTESIAN_POINT ( 'NONE',  ( -77.18477631085022495, 18.38477631085024555, 2.000000000000000000 ) ) ;
#238 = ORIENTED_EDGE ( 'NONE', *, *, #129, .F. ) ;
#239 = LINE ( 'NONE', #249, #62 ) ;
#240 = DIRECTION ( 'NONE',  ( 0.000000000000000000, 0.000000000000000000, 1.000000000000000000 ) ) ;
#241 = ORIENTED_EDGE ( 'NONE', *, *, #403, .T. ) ;
#242 = VERTEX_POINT ( 'NONE', #415 ) ;
#243 = CIRCLE ( 'NONE', #172, 10.00000000000000178 ) ;
#244 = FACE_BOUND ( 'NONE', #694, .T. ) ;
#245 = CIRCLE ( 'NONE', #504, 1.600000000000004086 ) ;
#246 = CARTESIAN_POINT ( 'NONE',  ( -60.39999999999999858, 26.00000000000000711, 0.000000000000000000 ) ) ;
#247 = DIRECTION ( 'NONE',  ( -1.000000000000000000, 0.000000000000000000, 0.000000000000000000 ) ) ;
#248 = ORIENTED_EDGE ( 'NONE', *, *, #457, .F. ) ;
#249 = CARTESIAN_POINT ( 'NONE',  ( -77.80000000000002558, -1.361020142258940230E-15, 2.000000000000000000 ) ) ;
#250 = EDGE_CURVE ( 'NONE', #387, #427, #715, .T. ) ;
#251 = CARTESIAN_POINT ( 'NONE',  ( -71.34136002903926510, -14.40570333659612956, 2.000000000000000000 ) ) ;
#252 = DIRECTION ( 'NONE',  ( -0.000000000000000000, -0.000000000000000000, 1.000000000000000000 ) ) ;
#253 = ORIENTED_EDGE ( 'NONE', *, *, #350, .T. ) ;
#254 = CARTESIAN_POINT ( 'NONE',  ( -36.25863997096080027, 18.40372484148884880, 0.000000000000000000 ) ) ;
#255 = ORIENTED_EDGE ( 'NONE', *, *, #590, .F. ) ;
#256 = EDGE_LOOP ( 'NONE', ( #248, #598, #702, #758 ) ) ;
#257 = EDGE_CURVE ( 'NONE', #69, #435, #356, .T. ) ;
#258 = CIRCLE ( 'NONE', #520, 1.599999999999997202 ) ;
#259 = CARTESIAN_POINT ( 'NONE',  ( -36.25863997096080027, 18.40372484148884880, 2.000000000000000000 ) ) ;
#260 = CIRCLE ( 'NONE', #104, 29.10000000000000497 ) ;
#261 = CIRCLE ( 'NONE', #134, 1.600000000000004086 ) ;
#262 = ORIENTED_EDGE ( 'NONE', *, *, #416, .F. ) ;
#263 = ORIENTED_EDGE ( 'NONE', *, *, #529, .F. ) ;
#264 = EDGE_CURVE ( 'NONE', #785, #234, #676, .T. ) ;
#265 = DIRECTION ( 'NONE',  ( -0.000000000000000000, -0.000000000000000000, 1.000000000000000000 ) ) ;
#266 = CARTESIAN_POINT ( 'NONE',  ( -77.18477631085022495, -18.38477631085024555, 0.000000000000000000 ) ) ;
#267 = ORIENTED_EDGE ( 'NONE', *, *, #250, .F. ) ;
#268 = DIRECTION ( 'NONE',  ( -1.000000000000000000, 0.000000000000000000, 0.000000000000000000 ) ) ;
#269 = DIRECTION ( 'NONE',  ( -0.000000000000000000, 0.000000000000000000, -1.000000000000000000 ) ) ;
#270 = ORIENTED_EDGE ( 'NONE', *, *, #90, .T. ) ;
#271 = FACE_OUTER_BOUND ( 'NONE', #417, .T. ) ;
#272 = AXIS2_PLACEMENT_3D ( 'NONE', #794, #345, #269 ) ;
#273 = DIRECTION ( 'NONE',  ( -0.000000000000000000, -0.000000000000000000, 1.000000000000000000 ) ) ;
#274 = VECTOR ( 'NONE', #124, 1000.000000000000000 ) ;
#275 = EDGE_CURVE ( 'NONE', #284, #338, #786, .T. ) ;
#276 = ORIENTED_EDGE ( 'NONE', *, *, #129, .T. ) ;
#277 = AXIS2_PLACEMENT_3D ( 'NONE', #151, #616, #21 ) ;
#278 = LINE ( 'NONE', #138, #521 ) ;
#279 = EDGE_CURVE ( 'NONE', #338, #284, #437, .T. ) ;
#280 = DIRECTION ( 'NONE',  ( 1.000000000000000000, 0.000000000000000000, 0.000000000000000000 ) ) ;
#281 = EDGE_LOOP ( 'NONE', ( #262, #115, #15, #744, #777, #392, #61, #294 ) ) ;
#282 = PRESENTATION_STYLE_ASSIGNMENT (( #12 ) ) ;
#283 = DIRECTION ( 'NONE',  ( 1.000000000000000000, 0.000000000000000000, 0.000000000000000000 ) ) ;
#284 = VERTEX_POINT ( 'NONE', #233 ) ;
#285 = CYLINDRICAL_SURFACE ( 'NONE', #831, 29.10000000000000853 ) ;
#286 = DIRECTION ( 'NONE',  ( 1.000000000000000000, 0.000000000000000000, 0.000000000000000000 ) ) ;
#287 = VECTOR ( 'NONE', #252, 1000.000000000000000 ) ;
#288 = EDGE_LOOP ( 'NONE', ( #730, #469 ) ) ;
#289 = AXIS2_PLACEMENT_3D ( 'NONE', #198, #192, #458 ) ;
#290 = PRODUCT_RELATED_PRODUCT_CATEGORY ( 'part', '', ( #848 ) ) ;
#291 = FILL_AREA_STYLE_COLOUR ( '', #219 ) ;
#292 = EDGE_CURVE ( 'NONE', #513, #761, #801, .T. ) ;
#293 = DIRECTION ( 'NONE',  ( -0.000000000000000000, -0.000000000000000000, -1.000000000000000000 ) ) ;
#294 = ORIENTED_EDGE ( 'NONE', *, *, #199, .T. ) ;
#295 = DIRECTION ( 'NONE',  ( 1.000000000000000000, 0.000000000000000000, 0.000000000000000000 ) ) ;
#296 = DIRECTION ( 'NONE',  ( 1.000000000000000000, 0.000000000000000000, 0.000000000000000000 ) ) ;
#297 = EDGE_LOOP ( 'NONE', ( #30, #620 ) ) ;
#298 = FACE_OUTER_BOUND ( 'NONE', #404, .T. ) ;
#299 = DIRECTION ( 'NONE',  ( 0.000000000000000000, 0.000000000000000000, 1.000000000000000000 ) ) ;
#300 = ORIENTED_EDGE ( 'NONE', *, *, #39, .T. ) ;
#301 = EDGE_CURVE ( 'NONE', #839, #330, #17, .T. ) ;
#302 = AXIS2_PLACEMENT_3D ( 'NONE', #843, #107, #247 ) ;
#303 = VECTOR ( 'NONE', #572, 1000.000000000000000 ) ;
#304 = AXIS2_PLACEMENT_3D ( 'NONE', #24, #619, #545 ) ;
#305 = DIRECTION ( 'NONE',  ( 1.000000000000000000, 0.000000000000000000, 0.000000000000000000 ) ) ;
#306 = DIRECTION ( 'NONE',  ( -0.000000000000000000, -0.000000000000000000, -1.000000000000000000 ) ) ;
#307 = ORIENTED_EDGE ( 'NONE', *, *, #16, .T. ) ;
#308 = CARTESIAN_POINT ( 'NONE',  ( -81.34136002903926510, -14.40570333659613134, 0.000000000000000000 ) ) ;
#309 = CYLINDRICAL_SURFACE ( 'NONE', #8, 10.00000000000000178 ) ;
#310 = FACE_OUTER_BOUND ( 'NONE', #762, .T. ) ;
#311 = CARTESIAN_POINT ( 'NONE',  ( -77.90751711230588228, -21.94795639240561513, 0.000000000000000000 ) ) ;
#312 = ADVANCED_FACE ( 'NONE', ( #29 ), #808, .T. ) ;
#313 = LINE ( 'NONE', #254, #703 ) ;
#314 = EDGE_LOOP ( 'NONE', ( #2, #168, #544, #486 ) ) ;
#315 = EDGE_LOOP ( 'NONE', ( #658, #357, #579, #126, #644, #524, #618, #648 ) ) ;
#316 = AXIS2_PLACEMENT_3D ( 'NONE', #22, #293, #488 ) ;
#317 = FACE_BOUND ( 'NONE', #578, .T. ) ;
#318 = VECTOR ( 'NONE', #57, 1000.000000000000000 ) ;
#319 = AXIS2_PLACEMENT_3D ( 'NONE', #179, #833, #305 ) ;
#320 = DIRECTION ( 'NONE',  ( 1.000000000000000000, 0.000000000000000000, 0.000000000000000000 ) ) ;
#321 = EDGE_LOOP ( 'NONE', ( #655, #159, #455, #710 ) ) ;
#322 = VERTEX_POINT ( 'NONE', #746 ) ;
#323 = CARTESIAN_POINT ( 'NONE',  ( -77.18477631085022495, 18.38477631085024555, 0.000000000000000000 ) ) ;
#324 = DIRECTION ( 'NONE',  ( 0.000000000000000000, 0.000000000000000000, 1.000000000000000000 ) ) ;
#325 = VERTEX_POINT ( 'NONE', #804 ) ;
#326 = ORIENTED_EDGE ( 'NONE', *, *, #264, .F. ) ;
#327 = CARTESIAN_POINT ( 'NONE',  ( -60.39999999999999858, 26.00000000000000711, 2.000000000000000000 ) ) ;
#328 = EDGE_CURVE ( 'NONE', #74, #820, #478, .T. ) ;
#329 = DIRECTION ( 'NONE',  ( -1.000000000000000000, 0.000000000000000000, 0.000000000000000000 ) ) ;
#330 = VERTEX_POINT ( 'NONE', #433 ) ;
#331 = EDGE_CURVE ( 'NONE', #206, #575, #568, .T. ) ;
#332 = DIRECTION ( 'NONE',  ( 1.000000000000000000, 0.000000000000000000, 0.000000000000000000 ) ) ;
#333 = AXIS2_PLACEMENT_3D ( 'NONE', #367, #564, #558 ) ;
#334 = CARTESIAN_POINT ( 'NONE',  ( -40.41522368914976227, -18.38477631085023134, 0.000000000000000000 ) ) ;
#335 = ORIENTED_EDGE ( 'NONE', *, *, #796, .F. ) ;
#336 = DIRECTION ( 'NONE',  ( -1.000000000000000000, 0.000000000000000000, 0.000000000000000000 ) ) ;
#337 = DIRECTION ( 'NONE',  ( 1.000000000000000000, 0.000000000000000000, 0.000000000000000000 ) ) ;
#338 = VERTEX_POINT ( 'NONE', #696 ) ;
#339 = CYLINDRICAL_SURFACE ( 'NONE', #205, 9.999999999999994671 ) ;
#340 = EDGE_CURVE ( 'NONE', #98, #342, #760, .T. ) ;
#341 = DIRECTION ( 'NONE',  ( 0.000000000000000000, 0.000000000000000000, 1.000000000000000000 ) ) ;
#342 = VERTEX_POINT ( 'NONE', #704 ) ;
#343 = EDGE_CURVE ( 'NONE', #191, #234, #313, .T. ) ;
#344 = DIRECTION ( 'NONE',  ( -0.000000000000000000, -0.000000000000000000, -1.000000000000000000 ) ) ;
#345 = DIRECTION ( 'NONE',  ( 1.000000000000000000, 0.000000000000000000, -0.000000000000000000 ) ) ;
#346 = CIRCLE ( 'NONE', #816, 1.599999999999997202 ) ;
#347 = ORIENTED_EDGE ( 'NONE', *, *, #340, .T. ) ;
#348 = SURFACE_SIDE_STYLE ('',( #683 ) ) ;
#349 = VERTEX_POINT ( 'NONE', #386 ) ;
#350 = EDGE_CURVE ( 'NONE', #322, #785, #375, .T. ) ;
#351 = CARTESIAN_POINT ( 'NONE',  ( -58.79999999999999716, -26.00000000000000711, 2.000000000000000000 ) ) ;
#352 = VERTEX_POINT ( 'NONE', #692 ) ;
#353 = EDGE_CURVE ( 'NONE', #74, #761, #688, .T. ) ;
#354 =( NAMED_UNIT ( * ) PLANE_ANGLE_UNIT ( ) SI_UNIT ( $, .RADIAN. ) );
#355 = CARTESIAN_POINT ( 'NONE',  ( -77.90751711230588228, -21.94795639240561513, 2.000000000000000000 ) ) ;
#356 = CIRCLE ( 'NONE', #203, 19.00000000000001066 ) ;
#357 = ORIENTED_EDGE ( 'NONE', *, *, #400, .T. ) ;
#358 = VECTOR ( 'NONE', #41, 1000.000000000000000 ) ;
#359 = CARTESIAN_POINT ( 'NONE',  ( -75.58477631085023063, 18.38477631085024555, 0.000000000000000000 ) ) ;
#360 = CARTESIAN_POINT ( 'NONE',  ( -58.80000000000001137, -1.361020142258940230E-15, 2.000000000000000000 ) ) ;
#361 = ORIENTED_EDGE ( 'NONE', *, *, #660, .F. ) ;
#362 = CARTESIAN_POINT ( 'NONE',  ( -40.41522368914976227, -18.38477631085023134, 2.000000000000000000 ) ) ;
#363 = EDGE_CURVE ( 'NONE', #820, #513, #113, .T. ) ;
#364 = PLANE ( 'NONE',  #31 ) ;
#365 = ORIENTED_EDGE ( 'NONE', *, *, #517, .T. ) ;
#366 = EDGE_CURVE ( 'NONE', #632, #165, #507, .T. ) ;
#367 = CARTESIAN_POINT ( 'NONE',  ( -40.41522368914974805, 18.38477631085023845, 2.000000000000000000 ) ) ;
#368 = ORIENTED_EDGE ( 'NONE', *, *, #615, .T. ) ;
#369 = CIRCLE ( 'NONE', #842, 1.600000000000004086 ) ;
#370 = CIRCLE ( 'NONE', #289, 1.599999999999997202 ) ;
#371 = DIRECTION ( 'NONE',  ( 1.000000000000000000, 0.000000000000000000, 0.000000000000000000 ) ) ;
#372 = DIRECTION ( 'NONE',  ( -1.000000000000000000, 0.000000000000000000, 0.000000000000000000 ) ) ;
#373 = FACE_OUTER_BOUND ( 'NONE', #460, .T. ) ;
#374 = LINE ( 'NONE', #826, #652 ) ;
#375 = LINE ( 'NONE', #630, #303 ) ;
#376 = ADVANCED_FACE ( 'NONE', ( #764 ), #752, .T. ) ;
#377 = FACE_OUTER_BOUND ( 'NONE', #667, .T. ) ;
#378 = ORIENTED_EDGE ( 'NONE', *, *, #279, .T. ) ;
#379 = DIRECTION ( 'NONE',  ( 1.000000000000000000, 0.000000000000000000, 0.000000000000000000 ) ) ;
#380 = DIRECTION ( 'NONE',  ( -0.000000000000000000, -0.000000000000000000, 1.000000000000000000 ) ) ;
#381 = CYLINDRICAL_SURFACE ( 'NONE', #302, 10.00000000000000178 ) ;
#382 = VERTEX_POINT ( 'NONE', #246 ) ;
#383 = CARTESIAN_POINT ( 'NONE',  ( -38.81522368914976084, 18.38477631085023845, 2.000000000000000000 ) ) ;
#384 = AXIS2_PLACEMENT_3D ( 'NONE', #50, #240, #439 ) ;
#385 = VECTOR ( 'NONE', #418, 1000.000000000000000 ) ;
#386 = CARTESIAN_POINT ( 'NONE',  ( -38.81522368914976795, -18.38477631085023134, 2.000000000000000000 ) ) ;
#387 = VERTEX_POINT ( 'NONE', #700 ) ;
#388 = EDGE_LOOP ( 'NONE', ( #195, #145, #226, #347 ) ) ;
#389 = PRODUCT_CONTEXT ( 'NONE', #550, 'mechanical' ) ;
#390 = CARTESIAN_POINT ( 'NONE',  ( -60.40000000000000568, -26.00000000000000711, 2.000000000000000000 ) ) ;
#391 = VERTEX_POINT ( 'NONE', #635 ) ;
#392 = ORIENTED_EDGE ( 'NONE', *, *, #264, .T. ) ;
#393 = CYLINDRICAL_SURFACE ( 'NONE', #452, 1.599999999999990319 ) ;
#394 = DIRECTION ( 'NONE',  ( 1.000000000000000000, 0.000000000000000000, 0.000000000000000000 ) ) ;
#395 = ORIENTED_EDGE ( 'NONE', *, *, #634, .F. ) ;
#396 = VECTOR ( 'NONE', #444, 1000.000000000000000 ) ;
#397 = VECTOR ( 'NONE', #751, 1000.000000000000000 ) ;
#398 = DIRECTION ( 'NONE',  ( 1.000000000000000000, 0.000000000000000000, 0.000000000000000000 ) ) ;
#399 = ORIENTED_EDGE ( 'NONE', *, *, #212, .T. ) ;
#400 = EDGE_CURVE ( 'NONE', #735, #213, #844, .T. ) ;
#401 = CARTESIAN_POINT ( 'NONE',  ( -46.25863997096080027, -14.40570333659616686, 2.000000000000000000 ) ) ;
#402 = CARTESIAN_POINT ( 'NONE',  ( -77.18477631085022495, 18.38477631085024555, 0.000000000000000000 ) ) ;
#403 = EDGE_CURVE ( 'NONE', #382, #430, #180, .T. ) ;
#404 = EDGE_LOOP ( 'NONE', ( #18, #845, #724, #614 ) ) ;
#405 = CARTESIAN_POINT ( 'NONE',  ( -81.34136002903926510, 18.40372484148879906, 0.000000000000000000 ) ) ;
#406 = CARTESIAN_POINT ( 'NONE',  ( -46.25863997096080027, 14.40570333659616331, 2.000000000000000000 ) ) ;
#407 = ORIENTED_EDGE ( 'NONE', *, *, #108, .F. ) ;
#408 = CARTESIAN_POINT ( 'NONE',  ( -71.34136002903926510, 14.40570333659612601, 2.000000000000000000 ) ) ;
#409 = AXIS2_PLACEMENT_3D ( 'NONE', #10, #200, #527 ) ;
#410 = VECTOR ( 'NONE', #176, 1000.000000000000000 ) ;
#411 = ADVANCED_FACE ( 'NONE', ( #768 ), #183, .F. ) ;
#412 = DIRECTION ( 'NONE',  ( 0.000000000000000000, 0.000000000000000000, 1.000000000000000000 ) ) ;
#413 = EDGE_LOOP ( 'NONE', ( #540, #552, #583, #670 ) ) ;
#414 = CARTESIAN_POINT ( 'NONE',  ( -81.34136002903926510, 14.40570333659612601, 0.000000000000000000 ) ) ;
#415 = CARTESIAN_POINT ( 'NONE',  ( -57.20000000000000284, 26.00000000000000711, 0.000000000000000000 ) ) ;
#416 = EDGE_CURVE ( 'NONE', #812, #98, #32, .T. ) ;
#417 = EDGE_LOOP ( 'NONE', ( #210, #561, #776, #125 ) ) ;
#418 = DIRECTION ( 'NONE',  ( 0.000000000000000000, 0.000000000000000000, -1.000000000000000000 ) ) ;
#419 = DIRECTION ( 'NONE',  ( 0.000000000000000000, 0.000000000000000000, 1.000000000000000000 ) ) ;
#420 = ORIENTED_EDGE ( 'NONE', *, *, #453, .F. ) ;
#421 = CARTESIAN_POINT ( 'NONE',  ( -81.34136002903926510, -14.40570333659613134, 2.000000000000000000 ) ) ;
#422 = DIRECTION ( 'NONE',  ( -0.000000000000000000, -0.000000000000000000, 1.000000000000000000 ) ) ;
#423 = AXIS2_PLACEMENT_3D ( 'NONE', #185, #501, #585 ) ;
#424 = EDGE_LOOP ( 'NONE', ( #94, #238 ) ) ;
#425 = PRODUCT_DEFINITION_FORMATION_WITH_SPECIFIED_SOURCE ( 'ANY', '', #848, .NOT_KNOWN. ) ;
#426 = CARTESIAN_POINT ( 'NONE',  ( -58.80000000000001137, -1.361020142258940230E-15, 2.000000000000000000 ) ) ;
#427 = VERTEX_POINT ( 'NONE', #390 ) ;
#428 = CARTESIAN_POINT ( 'NONE',  ( -58.80000000000001137, -1.361020142258940230E-15, 2.000000000000000000 ) ) ;
#429 = CARTESIAN_POINT ( 'NONE',  ( -78.78477631085023347, 18.38477631085024555, 0.000000000000000000 ) ) ;
#430 = VERTEX_POINT ( 'NONE', #327 ) ;
#431 = ADVANCED_BREP_SHAPE_REPRESENTATION ( 'Part2^camer_tracker', ( #719, #757 ), #105 ) ;
#432 = DIRECTION ( 'NONE',  ( -0.000000000000000000, -0.000000000000000000, 1.000000000000000000 ) ) ;
#433 = CARTESIAN_POINT ( 'NONE',  ( -42.01522368914976369, -18.38477631085023134, 2.000000000000000000 ) ) ;
#434 = EDGE_CURVE ( 'NONE', #573, #575, #741, .T. ) ;
#435 = VERTEX_POINT ( 'NONE', #627 ) ;
#436 = AXIS2_PLACEMENT_3D ( 'NONE', #79, #537, #717 ) ;
#437 = CIRCLE ( 'NONE', #60, 1.600000000000004086 ) ;
#438 = DIRECTION ( 'NONE',  ( -0.000000000000000000, -0.000000000000000000, 1.000000000000000000 ) ) ;
#439 = DIRECTION ( 'NONE',  ( 1.000000000000000000, 0.000000000000000000, 0.000000000000000000 ) ) ;
#440 = CARTESIAN_POINT ( 'NONE',  ( -58.79999999999999716, 26.00000000000000711, 2.000000000000000000 ) ) ;
#441 = ADVANCED_FACE ( 'NONE', ( #36 ), #309, .T. ) ;
#442 = EDGE_LOOP ( 'NONE', ( #378, #497 ) ) ;
#443 = FACE_BOUND ( 'NONE', #194, .T. ) ;
#444 = DIRECTION ( 'NONE',  ( 0.000000000000000000, 0.000000000000000000, 1.000000000000000000 ) ) ;
#445 = DIRECTION ( 'NONE',  ( -0.000000000000000000, -0.000000000000000000, -1.000000000000000000 ) ) ;
#446 = ORIENTED_EDGE ( 'NONE', *, *, #615, .F. ) ;
#447 = CARTESIAN_POINT ( 'NONE',  ( -58.80000000000001137, -1.361020142258940230E-15, 0.000000000000000000 ) ) ;
#448 = CARTESIAN_POINT ( 'NONE',  ( -40.41522368914974805, 18.38477631085023845, 0.000000000000000000 ) ) ;
#449 = CARTESIAN_POINT ( 'NONE',  ( -81.34136002903926510, 18.40372484148879906, 2.000000000000000000 ) ) ;
#450 = ORIENTED_EDGE ( 'NONE', *, *, #708, .F. ) ;
#451 = CLOSED_SHELL ( 'NONE', ( #77, #827, #193, #123, #235, #411, #674, #196, #822, #664, #463, #312, #80, #37, #563, #734, #66, #148, #184, #154, #376, #489, #441, #51 ) ) ;
#452 = AXIS2_PLACEMENT_3D ( 'NONE', #588, #265, #779 ) ;
#453 = EDGE_CURVE ( 'NONE', #229, #391, #689, .T. ) ;
#454 = DIRECTION ( 'NONE',  ( 0.000000000000000000, 0.000000000000000000, 1.000000000000000000 ) ) ;
#455 = ORIENTED_EDGE ( 'NONE', *, *, #566, .T. ) ;
#456 = ORIENTED_EDGE ( 'NONE', *, *, #135, .T. ) ;
#457 = EDGE_CURVE ( 'NONE', #11, #435, #278, .T. ) ;
#458 = DIRECTION ( 'NONE',  ( 1.000000000000000000, 0.000000000000000000, 0.000000000000000000 ) ) ;
#459 = DIRECTION ( 'NONE',  ( 1.000000000000000000, 0.000000000000000000, 0.000000000000000000 ) ) ;
#460 = EDGE_LOOP ( 'NONE', ( #849, #84, #326, #766 ) ) ;
#461 = DIRECTION ( 'NONE',  ( 0.000000000000000000, 0.000000000000000000, 1.000000000000000000 ) ) ;
#462 = CARTESIAN_POINT ( 'NONE',  ( -75.58477631085023063, -18.38477631085024555, 2.000000000000000000 ) ) ;
#463 = ADVANCED_FACE ( 'NONE', ( #271 ), #472, .F. ) ;
#464 = ORIENTED_EDGE ( 'NONE', *, *, #363, .F. ) ;
#465 = AXIS2_PLACEMENT_3D ( 'NONE', #548, #479, #286 ) ;
#466 = AXIS2_PLACEMENT_3D ( 'NONE', #45, #324, #320 ) ;
#467 = VECTOR ( 'NONE', #99, 1000.000000000000000 ) ;
#468 = CARTESIAN_POINT ( 'NONE',  ( -39.69248288769420441, -21.94795639240567198, 0.000000000000000000 ) ) ;
#469 = ORIENTED_EDGE ( 'NONE', *, *, #292, .F. ) ;
#470 = FACE_OUTER_BOUND ( 'NONE', #836, .T. ) ;
#471 = ORIENTED_EDGE ( 'NONE', *, *, #292, .T. ) ;
#472 = PLANE ( 'NONE',  #76 ) ;
#473 = CARTESIAN_POINT ( 'NONE',  ( -58.80000000000001137, -1.361020142258940230E-15, 2.000000000000000000 ) ) ;
#474 = ORIENTED_EDGE ( 'NONE', *, *, #328, .T. ) ;
#475 = EDGE_CURVE ( 'NONE', #624, #738, #534, .T. ) ;
#476 = CARTESIAN_POINT ( 'NONE',  ( -77.90751711230588228, 21.94795639240561513, 0.000000000000000000 ) ) ;
#477 = AXIS2_PLACEMENT_3D ( 'NONE', #215, #419, #733 ) ;
#478 = CIRCLE ( 'NONE', #384, 1.599999999999990319 ) ;
#479 = DIRECTION ( 'NONE',  ( -0.000000000000000000, -0.000000000000000000, 1.000000000000000000 ) ) ;
#480 = VERTEX_POINT ( 'NONE', #141 ) ;
#481 = FACE_BOUND ( 'NONE', #750, .T. ) ;
#482 = ORIENTED_EDGE ( 'NONE', *, *, #16, .F. ) ;
#483 = UNCERTAINTY_MEASURE_WITH_UNIT (LENGTH_MEASURE( 1.000000000000000082E-05 ), #732, 'distance_accuracy_value', 'NONE');
#484 = CARTESIAN_POINT ( 'NONE',  ( -77.90751711230588228, 21.94795639240561513, 2.000000000000000000 ) ) ;
#485 = DIRECTION ( 'NONE',  ( 1.000000000000000000, 0.000000000000000000, 0.000000000000000000 ) ) ;
#486 = ORIENTED_EDGE ( 'NONE', *, *, #566, .F. ) ;
#487 = DIRECTION ( 'NONE',  ( 0.000000000000000000, 0.000000000000000000, 1.000000000000000000 ) ) ;
#488 = DIRECTION ( 'NONE',  ( 1.000000000000000000, 0.000000000000000000, 0.000000000000000000 ) ) ;
#489 = ADVANCED_FACE ( 'NONE', ( #593 ), #339, .T. ) ;
#490 = ORIENTED_EDGE ( 'NONE', *, *, #728, .F. ) ;
#491 = AXIS2_PLACEMENT_3D ( 'NONE', #251, #641, #372 ) ;
#492 = LINE ( 'NONE', #604, #385 ) ;
#493 = CARTESIAN_POINT ( 'NONE',  ( -36.25863997096080027, 14.40570333659616509, 0.000000000000000000 ) ) ;
#494 = EDGE_LOOP ( 'NONE', ( #365, #122, #606, #253 ) ) ;
#495 =( LENGTH_UNIT ( ) NAMED_UNIT ( * ) SI_UNIT ( .MILLI., .METRE. ) );
#496 = DIRECTION ( 'NONE',  ( 0.000000000000000000, 0.000000000000000000, 1.000000000000000000 ) ) ;
#497 = ORIENTED_EDGE ( 'NONE', *, *, #275, .T. ) ;
#498 = LINE ( 'NONE', #759, #397 ) ;
#499 = EDGE_CURVE ( 'NONE', #761, #513, #677, .T. ) ;
#500 = CARTESIAN_POINT ( 'NONE',  ( -78.78477631085023347, 18.38477631085024555, 0.000000000000000000 ) ) ;
#501 = DIRECTION ( 'NONE',  ( 0.000000000000000000, 0.000000000000000000, 1.000000000000000000 ) ) ;
#502 = AXIS2_PLACEMENT_3D ( 'NONE', #402, #209, #657 ) ;
#503 = ORIENTED_EDGE ( 'NONE', *, *, #755, .T. ) ;
#504 = AXIS2_PLACEMENT_3D ( 'NONE', #351, #224, #680 ) ;
#505 = PRESENTATION_LAYER_ASSIGNMENT (  '', '', ( #774 ) ) ;
#506 = CARTESIAN_POINT ( 'NONE',  ( -38.81522368914976795, -18.38477631085023134, 0.000000000000000000 ) ) ;
#507 = LINE ( 'NONE', #834, #771 ) ;
#508 = CYLINDRICAL_SURFACE ( 'NONE', #800, 1.600000000000004086 ) ;
#509 = VERTEX_POINT ( 'NONE', #584 ) ;
#510 = DIRECTION ( 'NONE',  ( 1.000000000000000000, 0.000000000000000000, 0.000000000000000000 ) ) ;
#511 = CARTESIAN_POINT ( 'NONE',  ( -60.39999999999999858, 26.00000000000000711, 0.000000000000000000 ) ) ;
#512 = DIRECTION ( 'NONE',  ( 1.000000000000000000, 0.000000000000000000, 0.000000000000000000 ) ) ;
#513 = VERTEX_POINT ( 'NONE', #841 ) ;
#514 = EDGE_CURVE ( 'NONE', #792, #480, #130, .T. ) ;
#515 = CARTESIAN_POINT ( 'NONE',  ( -77.18477631085022495, 18.38477631085024555, 0.000000000000000000 ) ) ;
#516 = DIRECTION ( 'NONE',  ( -0.000000000000000000, 1.000000000000000000, -0.000000000000000000 ) ) ;
#517 = EDGE_CURVE ( 'NONE', #785, #643, #260, .T. ) ;
#518 = CARTESIAN_POINT ( 'NONE',  ( -36.25863997096080027, 14.40570333659616331, 2.000000000000000000 ) ) ;
#519 = ORIENTED_EDGE ( 'NONE', *, *, #3, .F. ) ;
#520 = AXIS2_PLACEMENT_3D ( 'NONE', #713, #531, #784 ) ;
#521 = VECTOR ( 'NONE', #344, 1000.000000000000000 ) ;
#522 = VECTOR ( 'NONE', #438, 1000.000000000000000 ) ;
#523 = DIRECTION ( 'NONE',  ( 1.000000000000000000, 0.000000000000000000, 0.000000000000000000 ) ) ;
#524 = ORIENTED_EDGE ( 'NONE', *, *, #142, .T. ) ;
#525 = ORIENTED_EDGE ( 'NONE', *, *, #731, .F. ) ;
#526 = EDGE_CURVE ( 'NONE', #430, #325, #174, .T. ) ;
#527 = DIRECTION ( 'NONE',  ( 1.000000000000000000, 0.000000000000000000, 0.000000000000000000 ) ) ;
#528 = ORIENTED_EDGE ( 'NONE', *, *, #328, .F. ) ;
#529 = EDGE_CURVE ( 'NONE', #575, #573, #120, .T. ) ;
#530 = EDGE_CURVE ( 'NONE', #322, #229, #651, .T. ) ;
#531 = DIRECTION ( 'NONE',  ( 0.000000000000000000, 0.000000000000000000, 1.000000000000000000 ) ) ;
#532 = ORIENTED_EDGE ( 'NONE', *, *, #748, .F. ) ;
#533 = AXIS2_PLACEMENT_3D ( 'NONE', #473, #341, #847 ) ;
#534 = LINE ( 'NONE', #405, #146 ) ;
#535 = AXIS2_PLACEMENT_3D ( 'NONE', #789, #127, #208 ) ;
#536 = AXIS2_PLACEMENT_3D ( 'NONE', #515, #432, #510 ) ;
#537 = DIRECTION ( 'NONE',  ( -0.000000000000000000, -0.000000000000000000, 1.000000000000000000 ) ) ;
#538 = EDGE_LOOP ( 'NONE', ( #177, #150, #756, #300 ) ) ;
#539 = DIRECTION ( 'NONE',  ( -0.000000000000000000, -0.000000000000000000, 1.000000000000000000 ) ) ;
#540 = ORIENTED_EDGE ( 'NONE', *, *, #301, .F. ) ;
#541 = EDGE_CURVE ( 'NONE', #242, #382, #370, .T. ) ;
#542 = FACE_OUTER_BOUND ( 'NONE', #388, .T. ) ;
#543 = CARTESIAN_POINT ( 'NONE',  ( -77.18477631085022495, -18.38477631085024555, 2.000000000000000000 ) ) ;
#544 = ORIENTED_EDGE ( 'NONE', *, *, #529, .T. ) ;
#545 = DIRECTION ( 'NONE',  ( 1.000000000000000000, 0.000000000000000000, 0.000000000000000000 ) ) ;
#546 = AXIS2_PLACEMENT_3D ( 'NONE', #266, #5, #647 ) ;
#547 = VECTOR ( 'NONE', #422, 1000.000000000000000 ) ;
#548 = CARTESIAN_POINT ( 'NONE',  ( -40.41522368914976227, -18.38477631085023134, 0.000000000000000000 ) ) ;
#549 = EDGE_LOOP ( 'NONE', ( #101, #582, #471, #565 ) ) ;
#550 = APPLICATION_CONTEXT ( 'automotive_design' ) ;
#551 = DIRECTION ( 'NONE',  ( 1.000000000000000000, 0.000000000000000000, 0.000000000000000000 ) ) ;
#552 = ORIENTED_EDGE ( 'NONE', *, *, #212, .F. ) ;
#553 = CYLINDRICAL_SURFACE ( 'NONE', #207, 19.00000000000001066 ) ;
#554 = APPLICATION_CONTEXT ( 'automotive_design' ) ;
#555 = DIRECTION ( 'NONE',  ( 1.000000000000000000, 0.000000000000000000, 0.000000000000000000 ) ) ;
#556 = EDGE_LOOP ( 'NONE', ( #267, #255 ) ) ;
#557 = CARTESIAN_POINT ( 'NONE',  ( -77.90751711230588228, -21.94795639240561869, 2.000000000000000000 ) ) ;
#558 = DIRECTION ( 'NONE',  ( 1.000000000000000000, 0.000000000000000000, 0.000000000000000000 ) ) ;
#559 = AXIS2_PLACEMENT_3D ( 'NONE', #52, #55, #329 ) ;
#560 = AXIS2_PLACEMENT_3D ( 'NONE', #448, #581, #838 ) ;
#561 = ORIENTED_EDGE ( 'NONE', *, *, #25, .T. ) ;
#562 = VECTOR ( 'NONE', #162, 1000.000000000000000 ) ;
#563 = ADVANCED_FACE ( 'NONE', ( #707 ), #393, .F. ) ;
#564 = DIRECTION ( 'NONE',  ( 0.000000000000000000, 0.000000000000000000, 1.000000000000000000 ) ) ;
#565 = ORIENTED_EDGE ( 'NONE', *, *, #353, .F. ) ;
#566 = EDGE_CURVE ( 'NONE', #586, #573, #712, .T. ) ;
#567 = LINE ( 'NONE', #506, #522 ) ;
#568 = LINE ( 'NONE', #500, #358 ) ;
#569 = CARTESIAN_POINT ( 'NONE',  ( -58.79999999999999716, -26.00000000000000711, 0.000000000000000000 ) ) ;
#570 = ORIENTED_EDGE ( 'NONE', *, *, #199, .F. ) ;
#571 = DIRECTION ( 'NONE',  ( -0.000000000000000000, -0.000000000000000000, 1.000000000000000000 ) ) ;
#572 = DIRECTION ( 'NONE',  ( -0.000000000000000000, -0.000000000000000000, -1.000000000000000000 ) ) ;
#573 = VERTEX_POINT ( 'NONE', #227 ) ;
#574 = AXIS2_PLACEMENT_3D ( 'NONE', #654, #64, #68 ) ;
#575 = VERTEX_POINT ( 'NONE', #91 ) ;
#576 = CIRCLE ( 'NONE', #319, 10.00000000000000178 ) ;
#577 = EDGE_CURVE ( 'NONE', #213, #812, #807, .T. ) ;
#578 = EDGE_LOOP ( 'NONE', ( #222, #781 ) ) ;
#579 = ORIENTED_EDGE ( 'NONE', *, *, #587, .T. ) ;
#580 = CARTESIAN_POINT ( 'NONE',  ( -42.01522368914974237, 18.38477631085023845, 0.000000000000000000 ) ) ;
#581 = DIRECTION ( 'NONE',  ( -0.000000000000000000, -0.000000000000000000, 1.000000000000000000 ) ) ;
#582 = ORIENTED_EDGE ( 'NONE', *, *, #363, .T. ) ;
#583 = ORIENTED_EDGE ( 'NONE', *, *, #731, .T. ) ;
#584 = CARTESIAN_POINT ( 'NONE',  ( -78.78477631085023347, -18.38477631085024555, 0.000000000000000000 ) ) ;
#585 = DIRECTION ( 'NONE',  ( 1.000000000000000000, 0.000000000000000000, 0.000000000000000000 ) ) ;
#586 = VERTEX_POINT ( 'NONE', #359 ) ;
#587 = EDGE_CURVE ( 'NONE', #213, #342, #20, .T. ) ;
#588 = CARTESIAN_POINT ( 'NONE',  ( -40.41522368914974805, 18.38477631085023845, 0.000000000000000000 ) ) ;
#589 = CYLINDRICAL_SURFACE ( 'NONE', #637, 1.600000000000004086 ) ;
#590 = EDGE_CURVE ( 'NONE', #427, #387, #245, .T. ) ;
#591 = ORIENTED_EDGE ( 'NONE', *, *, #602, .F. ) ;
#592 = PRODUCT_DEFINITION_SHAPE ( 'NONE', 'NONE',  #790 ) ;
#593 = FACE_OUTER_BOUND ( 'NONE', #153, .T. ) ;
#594 = DIRECTION ( 'NONE',  ( 0.000000000000000000, 0.000000000000000000, 1.000000000000000000 ) ) ;
#595 = ORIENTED_EDGE ( 'NONE', *, *, #634, .T. ) ;
#596 = DIRECTION ( 'NONE',  ( -0.000000000000000000, -0.000000000000000000, -1.000000000000000000 ) ) ;
#597 = CYLINDRICAL_SURFACE ( 'NONE', #409, 1.599999999999997202 ) ;
#598 = ORIENTED_EDGE ( 'NONE', *, *, #117, .T. ) ;
#599 = CARTESIAN_POINT ( 'NONE',  ( -71.34136002903926510, 14.40570333659612601, 2.000000000000000000 ) ) ;
#600 = AXIS2_PLACEMENT_3D ( 'NONE', #157, #33, #742 ) ;
#601 = DIRECTION ( 'NONE',  ( 1.000000000000000000, 0.000000000000000000, 0.000000000000000000 ) ) ;
#602 = EDGE_CURVE ( 'NONE', #643, #229, #610, .T. ) ;
#603 = ORIENTED_EDGE ( 'NONE', *, *, #90, .F. ) ;
#604 = CARTESIAN_POINT ( 'NONE',  ( -81.34136002903926510, 14.40570333659612601, 2.000000000000000000 ) ) ;
#605 = DIRECTION ( 'NONE',  ( 0.000000000000000000, 0.000000000000000000, 1.000000000000000000 ) ) ;
#606 = ORIENTED_EDGE ( 'NONE', *, *, #530, .F. ) ;
#607 = CARTESIAN_POINT ( 'NONE',  ( -77.18477631085022495, -18.38477631085024555, 0.000000000000000000 ) ) ;
#608 = FACE_BOUND ( 'NONE', #111, .T. ) ;
#609 = ORIENTED_EDGE ( 'NONE', *, *, #301, .T. ) ;
#610 = LINE ( 'NONE', #484, #190 ) ;
#611 = AXIS2_PLACEMENT_3D ( 'NONE', #678, #306, #167 ) ;
#612 = AXIS2_PLACEMENT_3D ( 'NONE', #599, #202, #665 ) ;
#613 = FACE_OUTER_BOUND ( 'NONE', #638, .T. ) ;
#614 = ORIENTED_EDGE ( 'NONE', *, *, #772, .F. ) ;
#615 = EDGE_CURVE ( 'NONE', #509, #632, #716, .T. ) ;
#616 = DIRECTION ( 'NONE',  ( 0.000000000000000000, 0.000000000000000000, 1.000000000000000000 ) ) ;
#617 = CARTESIAN_POINT ( 'NONE',  ( -57.19999999999999574, -26.00000000000000711, 0.000000000000000000 ) ) ;
#618 = ORIENTED_EDGE ( 'NONE', *, *, #530, .T. ) ;
#619 = DIRECTION ( 'NONE',  ( -0.000000000000000000, -0.000000000000000000, -1.000000000000000000 ) ) ;
#620 = ORIENTED_EDGE ( 'NONE', *, *, #649, .T. ) ;
#621 = FACE_BOUND ( 'NONE', #832, .T. ) ;
#622 = CARTESIAN_POINT ( 'NONE',  ( -42.01522368914976369, -18.38477631085023134, 0.000000000000000000 ) ) ;
#623 = CIRCLE ( 'NONE', #102, 1.599999999999990319 ) ;
#624 = VERTEX_POINT ( 'NONE', #414 ) ;
#625 = AXIS2_PLACEMENT_3D ( 'NONE', #49, #626, #371 ) ;
#626 = DIRECTION ( 'NONE',  ( -0.000000000000000000, -0.000000000000000000, 1.000000000000000000 ) ) ;
#627 = CARTESIAN_POINT ( 'NONE',  ( -39.80000000000000426, 9.658087761210321212E-16, 0.000000000000000000 ) ) ;
#628 = LINE ( 'NONE', #449, #73 ) ;
#629 = FACE_BOUND ( 'NONE', #442, .T. ) ;
#630 = CARTESIAN_POINT ( 'NONE',  ( -39.69248288769419730, 21.94795639240567553, 2.000000000000000000 ) ) ;
#631 = LINE ( 'NONE', #770, #46 ) ;
#632 = VERTEX_POINT ( 'NONE', #96 ) ;
#633 = CYLINDRICAL_SURFACE ( 'NONE', #536, 1.600000000000004086 ) ;
#634 = EDGE_CURVE ( 'NONE', #330, #349, #346, .T. ) ;
#635 = CARTESIAN_POINT ( 'NONE',  ( -81.34136002903926510, 14.40570333659612601, 2.000000000000000000 ) ) ;
#636 = LINE ( 'NONE', #518, #287 ) ;
#637 = AXIS2_PLACEMENT_3D ( 'NONE', #128, #273, #280 ) ;
#638 = EDGE_LOOP ( 'NONE', ( #603, #609, #595, #525 ) ) ;
#639 = AXIS2_PLACEMENT_3D ( 'NONE', #360, #681, #811 ) ;
#640 = CARTESIAN_POINT ( 'NONE',  ( -36.25863997096080027, -14.40570333659615265, 2.000000000000000000 ) ) ;
#641 = DIRECTION ( 'NONE',  ( -0.000000000000000000, -0.000000000000000000, -1.000000000000000000 ) ) ;
#642 = DIRECTION ( 'NONE',  ( 0.000000000000000000, 0.000000000000000000, 1.000000000000000000 ) ) ;
#643 = VERTEX_POINT ( 'NONE', #476 ) ;
#644 = ORIENTED_EDGE ( 'NONE', *, *, #514, .T. ) ;
#645 = APPLICATION_PROTOCOL_DEFINITION ( 'draft international standard', 'automotive_design', 1998, #554 ) ;
#646 = DIRECTION ( 'NONE',  ( -1.000000000000000000, 0.000000000000000000, 0.000000000000000000 ) ) ;
#647 = DIRECTION ( 'NONE',  ( 1.000000000000000000, 0.000000000000000000, 0.000000000000000000 ) ) ;
#648 = ORIENTED_EDGE ( 'NONE', *, *, #453, .T. ) ;
#649 = EDGE_CURVE ( 'NONE', #435, #69, #189, .T. ) ;
#650 = AXIS2_PLACEMENT_3D ( 'NONE', #334, #211, #601 ) ;
#651 = CIRCLE ( 'NONE', #787, 29.10000000000000497 ) ;
#652 = VECTOR ( 'NONE', #571, 1000.000000000000000 ) ;
#653 = DIRECTION ( 'NONE',  ( 0.000000000000000000, 0.000000000000000000, 1.000000000000000000 ) ) ;
#654 = CARTESIAN_POINT ( 'NONE',  ( -40.41522368914976227, -18.38477631085023134, 2.000000000000000000 ) ) ;
#655 = ORIENTED_EDGE ( 'NONE', *, *, #331, .F. ) ;
#656 = DIRECTION ( 'NONE',  ( 0.000000000000000000, 0.000000000000000000, 1.000000000000000000 ) ) ;
#657 = DIRECTION ( 'NONE',  ( 1.000000000000000000, 0.000000000000000000, 0.000000000000000000 ) ) ;
#658 = ORIENTED_EDGE ( 'NONE', *, *, #54, .T. ) ;
#659 = DIRECTION ( 'NONE',  ( 1.000000000000000000, 0.000000000000000000, 0.000000000000000000 ) ) ;
#660 = EDGE_CURVE ( 'NONE', #624, #643, #743, .T. ) ;
#661 = FACE_OUTER_BOUND ( 'NONE', #110, .T. ) ;
#662 = ORIENTED_EDGE ( 'NONE', *, *, #526, .T. ) ;
#664 = ADVANCED_FACE ( 'NONE', ( #542 ), #285, .T. ) ;
#663 = CIRCLE ( 'NONE', #650, 1.599999999999997202 ) ;
#665 = DIRECTION ( 'NONE',  ( 1.000000000000000000, 0.000000000000000000, 0.000000000000000000 ) ) ;
#666 = CARTESIAN_POINT ( 'NONE',  ( -77.18477631085022495, -18.38477631085024555, 0.000000000000000000 ) ) ;
#667 = EDGE_LOOP ( 'NONE', ( #53, #241, #662, #335 ) ) ;
#668 = CARTESIAN_POINT ( 'NONE',  ( -77.80000000000002558, -1.361020142258940230E-15, 2.000000000000000000 ) ) ;
#669 = CARTESIAN_POINT ( 'NONE',  ( -58.79999999999999716, -26.00000000000000711, 0.000000000000000000 ) ) ;
#670 = ORIENTED_EDGE ( 'NONE', *, *, #108, .T. ) ;
#671 = DIRECTION ( 'NONE',  ( -0.000000000000000000, -0.000000000000000000, 1.000000000000000000 ) ) ;
#672 = FACE_BOUND ( 'NONE', #556, .T. ) ;
#673 = ORIENTED_EDGE ( 'NONE', *, *, #340, .F. ) ;
#674 = ADVANCED_FACE ( 'NONE', ( #298 ), #553, .F. ) ;
#675 = DIRECTION ( 'NONE',  ( -1.000000000000000000, 0.000000000000000000, 0.000000000000000000 ) ) ;
#676 = CIRCLE ( 'NONE', #316, 10.00000000000000178 ) ;
#677 = CIRCLE ( 'NONE', #132, 1.599999999999990319 ) ;
#678 = CARTESIAN_POINT ( 'NONE',  ( -46.25863997096080027, -14.40570333659616686, 0.000000000000000000 ) ) ;
#679 = ORIENTED_EDGE ( 'NONE', *, *, #813, .T. ) ;
#680 = DIRECTION ( 'NONE',  ( 1.000000000000000000, 0.000000000000000000, 0.000000000000000000 ) ) ;
#681 = DIRECTION ( 'NONE',  ( -0.000000000000000000, -0.000000000000000000, -1.000000000000000000 ) ) ;
#682 = ORIENTED_EDGE ( 'NONE', *, *, #799, .T. ) ;
#683 = SURFACE_STYLE_FILL_AREA ( #82 ) ;
#684 = EDGE_CURVE ( 'NONE', #391, #624, #492, .T. ) ;
#685 = LINE ( 'NONE', #617, #725 ) ;
#686 = VERTEX_POINT ( 'NONE', #668 ) ;
#687 =( NAMED_UNIT ( * ) PLANE_ANGLE_UNIT ( ) SI_UNIT ( $, .RADIAN. ) );
#688 = LINE ( 'NONE', #749, #274 ) ;
#689 = CIRCLE ( 'NONE', #612, 10.00000000000000178 ) ;
#690 = CYLINDRICAL_SURFACE ( 'NONE', #559, 19.00000000000001066 ) ;
#691 = CARTESIAN_POINT ( 'NONE',  ( -78.78477631085023347, -18.38477631085024555, 0.000000000000000000 ) ) ;
#692 = CARTESIAN_POINT ( 'NONE',  ( -78.78477631085023347, -18.38477631085024555, 2.000000000000000000 ) ) ;
#693 = CARTESIAN_POINT ( 'NONE',  ( -38.81522368914976084, 18.38477631085023845, 0.000000000000000000 ) ) ;
#694 = EDGE_LOOP ( 'NONE', ( #503, #706 ) ) ;
#695 = FACE_OUTER_BOUND ( 'NONE', #281, .T. ) ;
#696 = CARTESIAN_POINT ( 'NONE',  ( -57.19999999999999574, -26.00000000000000711, 0.000000000000000000 ) ) ;
#697 = CARTESIAN_POINT ( 'NONE',  ( -77.80000000000002558, -1.361020142258940230E-15, 0.000000000000000000 ) ) ;
#698 = ORIENTED_EDGE ( 'NONE', *, *, #366, .F. ) ;
#699 = FACE_BOUND ( 'NONE', #818, .T. ) ;
#700 = CARTESIAN_POINT ( 'NONE',  ( -57.19999999999999574, -26.00000000000000711, 2.000000000000000000 ) ) ;
#701 = ORIENTED_EDGE ( 'NONE', *, *, #223, .F. ) ;
#702 = ORIENTED_EDGE ( 'NONE', *, *, #772, .T. ) ;
#703 = VECTOR ( 'NONE', #516, 1000.000000000000000 ) ;
#704 = CARTESIAN_POINT ( 'NONE',  ( -39.69248288769420441, -21.94795639240567198, 2.000000000000000000 ) ) ;
#705 = DIRECTION ( 'NONE',  ( 0.000000000000000000, 0.000000000000000000, -1.000000000000000000 ) ) ;
#706 = ORIENTED_EDGE ( 'NONE', *, *, #158, .T. ) ;
#707 = FACE_OUTER_BOUND ( 'NONE', #773, .T. ) ;
#708 = EDGE_CURVE ( 'NONE', #738, #735, #166, .T. ) ;
#709 = FACE_OUTER_BOUND ( 'NONE', #140, .T. ) ;
#710 = ORIENTED_EDGE ( 'NONE', *, *, #434, .T. ) ;
#711 = CARTESIAN_POINT ( 'NONE',  ( 0.000000000000000000, 0.000000000000000000, 0.000000000000000000 ) ) ;
#712 = LINE ( 'NONE', #214, #562 ) ;
#713 = CARTESIAN_POINT ( 'NONE',  ( -58.79999999999999716, 26.00000000000000711, 0.000000000000000000 ) ) ;
#714 = ORIENTED_EDGE ( 'NONE', *, *, #590, .T. ) ;
#715 = CIRCLE ( 'NONE', #230, 1.600000000000004086 ) ;
#716 = CIRCLE ( 'NONE', #231, 1.600000000000004086 ) ;
#717 = DIRECTION ( 'NONE',  ( 1.000000000000000000, 0.000000000000000000, 0.000000000000000000 ) ) ;
#718 = VERTEX_POINT ( 'NONE', #85 ) ;
#719 = MANIFOLD_SOLID_BREP ( 'Fillet1', #451 ) ;
#720 = CARTESIAN_POINT ( 'NONE',  ( -58.80000000000001137, -1.361020142258940230E-15, 2.000000000000000000 ) ) ;
#721 = CYLINDRICAL_SURFACE ( 'NONE', #502, 1.600000000000004086 ) ;
#722 = ORIENTED_EDGE ( 'NONE', *, *, #499, .T. ) ;
#723 = CARTESIAN_POINT ( 'NONE',  ( -40.41522368914974805, 18.38477631085023845, 0.000000000000000000 ) ) ;
#724 = ORIENTED_EDGE ( 'NONE', *, *, #257, .F. ) ;
#725 = VECTOR ( 'NONE', #152, 1000.000000000000000 ) ;
#726 = AXIS2_PLACEMENT_3D ( 'NONE', #775, #461, #332 ) ;
#727 = CARTESIAN_POINT ( 'NONE',  ( -58.80000000000001137, -1.361020142258940230E-15, 2.000000000000000000 ) ) ;
#728 = EDGE_CURVE ( 'NONE', #686, #11, #147, .T. ) ;
#729 = FACE_OUTER_BOUND ( 'NONE', #315, .T. ) ;
#730 = ORIENTED_EDGE ( 'NONE', *, *, #499, .F. ) ;
#731 = EDGE_CURVE ( 'NONE', #718, #349, #567, .T. ) ;
#732 =( LENGTH_UNIT ( ) NAMED_UNIT ( * ) SI_UNIT ( .MILLI., .METRE. ) );
#733 = DIRECTION ( 'NONE',  ( 1.000000000000000000, 0.000000000000000000, 0.000000000000000000 ) ) ;
#734 = ADVANCED_FACE ( 'NONE', ( #763 ), #173, .F. ) ;
#735 = VERTEX_POINT ( 'NONE', #821 ) ;
#736 = DIRECTION ( 'NONE',  ( -0.000000000000000000, -0.000000000000000000, -1.000000000000000000 ) ) ;
#737 = DIRECTION ( 'NONE',  ( 0.000000000000000000, 0.000000000000000000, 1.000000000000000000 ) ) ;
#738 = VERTEX_POINT ( 'NONE', #308 ) ;
#739 = DIRECTION ( 'NONE',  ( 0.000000000000000000, 0.000000000000000000, 1.000000000000000000 ) ) ;
#740 = CIRCLE ( 'NONE', #423, 1.600000000000004086 ) ;
#741 = CIRCLE ( 'NONE', #218, 1.600000000000004086 ) ;
#742 = DIRECTION ( 'NONE',  ( 1.000000000000000000, 0.000000000000000000, 0.000000000000000000 ) ) ;
#743 = CIRCLE ( 'NONE', #304, 10.00000000000000178 ) ;
#744 = ORIENTED_EDGE ( 'NONE', *, *, #660, .T. ) ;
#745 = DIRECTION ( 'NONE',  ( 0.000000000000000000, 0.000000000000000000, 1.000000000000000000 ) ) ;
#746 = CARTESIAN_POINT ( 'NONE',  ( -39.69248288769420441, 21.94795639240567198, 2.000000000000000000 ) ) ;
#747 = ORIENTED_EDGE ( 'NONE', *, *, #475, .T. ) ;
#748 = EDGE_CURVE ( 'NONE', #342, #792, #576, .T. ) ;
#749 = CARTESIAN_POINT ( 'NONE',  ( -38.81522368914976084, 18.38477631085023845, 0.000000000000000000 ) ) ;
#750 = EDGE_LOOP ( 'NONE', ( #840, #263 ) ) ;
#751 = DIRECTION ( 'NONE',  ( -0.000000000000000000, -0.000000000000000000, 1.000000000000000000 ) ) ;
#752 = CYLINDRICAL_SURFACE ( 'NONE', #491, 9.999999999999994671 ) ;
#753 = AXIS2_PLACEMENT_3D ( 'NONE', #440, #642, #512 ) ;
#754 = VECTOR ( 'NONE', #736, 1000.000000000000000 ) ;
#755 = EDGE_CURVE ( 'NONE', #586, #206, #261, .T. ) ;
#756 = ORIENTED_EDGE ( 'NONE', *, *, #366, .T. ) ;
#757 = AXIS2_PLACEMENT_3D ( 'NONE', #711, #782, #70 ) ;
#758 = ORIENTED_EDGE ( 'NONE', *, *, #649, .F. ) ;
#759 = CARTESIAN_POINT ( 'NONE',  ( -57.20000000000000284, 26.00000000000000711, 0.000000000000000000 ) ) ;
#760 = LINE ( 'NONE', #118, #396 ) ;
#761 = VERTEX_POINT ( 'NONE', #383 ) ;
#762 = EDGE_LOOP ( 'NONE', ( #171, #805, #34, #48 ) ) ;
#763 = FACE_OUTER_BOUND ( 'NONE', #413, .T. ) ;
#764 = FACE_OUTER_BOUND ( 'NONE', #825, .T. ) ;
#765 = DIRECTION ( 'NONE',  ( 1.000000000000000000, -1.734723475976806700E-15, 0.000000000000000000 ) ) ;
#766 = ORIENTED_EDGE ( 'NONE', *, *, #350, .F. ) ;
#767 = PLANE ( 'NONE',  #92 ) ;
#768 = FACE_OUTER_BOUND ( 'NONE', #549, .T. ) ;
#769 = CIRCLE ( 'NONE', #574, 1.599999999999997202 ) ;
#770 = CARTESIAN_POINT ( 'NONE',  ( -36.25863997096080027, -14.40570333659616686, 2.000000000000000000 ) ) ;
#771 = VECTOR ( 'NONE', #823, 1000.000000000000000 ) ;
#772 = EDGE_CURVE ( 'NONE', #686, #69, #239, .T. ) ;
#773 = EDGE_LOOP ( 'NONE', ( #464, #528, #795, #722 ) ) ;
#774 = STYLED_ITEM ( 'NONE', ( #282 ), #719 ) ;
#775 = CARTESIAN_POINT ( 'NONE',  ( -58.79999999999999716, 26.00000000000000711, 2.000000000000000000 ) ) ;
#776 = ORIENTED_EDGE ( 'NONE', *, *, #343, .T. ) ;
#777 = ORIENTED_EDGE ( 'NONE', *, *, #517, .F. ) ;
#778 =( NAMED_UNIT ( * ) SI_UNIT ( $, .STERADIAN. ) SOLID_ANGLE_UNIT ( ) );
#779 = DIRECTION ( 'NONE',  ( 1.000000000000000000, 0.000000000000000000, 0.000000000000000000 ) ) ;
#780 = CYLINDRICAL_SURFACE ( 'NONE', #58, 1.600000000000004086 ) ;
#781 = ORIENTED_EDGE ( 'NONE', *, *, #169, .T. ) ;
#782 = DIRECTION ( 'NONE',  ( 0.000000000000000000, 0.000000000000000000, 1.000000000000000000 ) ) ;
#783 = CARTESIAN_POINT ( 'NONE',  ( -36.25863997096080027, 18.40372484148884880, 2.000000000000000000 ) ) ;
#784 = DIRECTION ( 'NONE',  ( 1.000000000000000000, 0.000000000000000000, 0.000000000000000000 ) ) ;
#785 = VERTEX_POINT ( 'NONE', #837 ) ;
#786 = CIRCLE ( 'NONE', #600, 1.600000000000004086 ) ;
#787 = AXIS2_PLACEMENT_3D ( 'NONE', #720, #71, #659 ) ;
#788 = VECTOR ( 'NONE', #671, 1000.000000000000000 ) ;
#789 = CARTESIAN_POINT ( 'NONE',  ( -77.18477631085022495, 18.38477631085024555, 2.000000000000000000 ) ) ;
#790 = PRODUCT_DEFINITION ( 'UNKNOWN', '', #425, #806 ) ;
#791 = CARTESIAN_POINT ( 'NONE',  ( -77.18477631085022495, 18.38477631085024555, 0.000000000000000000 ) ) ;
#792 = VERTEX_POINT ( 'NONE', #640 ) ;
#793 = SHAPE_DEFINITION_REPRESENTATION ( #592, #431 ) ;
#794 = CARTESIAN_POINT ( 'NONE',  ( -81.34136002903926510, 18.40372484148879906, 2.000000000000000000 ) ) ;
#795 = ORIENTED_EDGE ( 'NONE', *, *, #353, .T. ) ;
#796 = EDGE_CURVE ( 'NONE', #242, #325, #498, .T. ) ;
#797 = DIRECTION ( 'NONE',  ( 0.000000000000000000, 0.000000000000000000, 1.000000000000000000 ) ) ;
#798 = ORIENTED_EDGE ( 'NONE', *, *, #526, .F. ) ;
#799 = EDGE_CURVE ( 'NONE', #509, #352, #819, .T. ) ;
#800 = AXIS2_PLACEMENT_3D ( 'NONE', #569, #824, #181 ) ;
#801 = CIRCLE ( 'NONE', #333, 1.599999999999990319 ) ;
#802 = DIRECTION ( 'NONE',  ( 1.000000000000000000, 0.000000000000000000, 0.000000000000000000 ) ) ;
#803 = MECHANICAL_DESIGN_GEOMETRIC_PRESENTATION_REPRESENTATION (  '', ( #774 ), #175 ) ;
#804 = CARTESIAN_POINT ( 'NONE',  ( -57.20000000000000284, 26.00000000000000711, 2.000000000000000000 ) ) ;
#805 = ORIENTED_EDGE ( 'NONE', *, *, #279, .F. ) ;
#806 = PRODUCT_DEFINITION_CONTEXT ( 'detailed design', #554, 'design' ) ;
#807 = LINE ( 'NONE', #557, #754 ) ;
#808 = CYLINDRICAL_SURFACE ( 'NONE', #639, 29.10000000000000853 ) ;
#809 = ORIENTED_EDGE ( 'NONE', *, *, #54, .F. ) ;
#810 = CARTESIAN_POINT ( 'NONE',  ( -58.80000000000001137, -1.361020142258940230E-15, 2.000000000000000000 ) ) ;
#811 = DIRECTION ( 'NONE',  ( -1.000000000000000000, 0.000000000000000000, 0.000000000000000000 ) ) ;
#812 = VERTEX_POINT ( 'NONE', #311 ) ;
#813 = EDGE_CURVE ( 'NONE', #284, #427, #374, .T. ) ;
#814 = DIRECTION ( 'NONE',  ( -0.000000000000000000, -0.000000000000000000, -1.000000000000000000 ) ) ;
#815 = AXIS2_PLACEMENT_3D ( 'NONE', #114, #445, #765 ) ;
#816 = AXIS2_PLACEMENT_3D ( 'NONE', #362, #745, #220 ) ;
#817 = CARTESIAN_POINT ( 'NONE',  ( -58.80000000000001137, -1.361020142258940230E-15, 0.000000000000000000 ) ) ;
#818 = EDGE_LOOP ( 'NONE', ( #474, #42 ) ) ;
#819 = LINE ( 'NONE', #691, #467 ) ;
#820 = VERTEX_POINT ( 'NONE', #580 ) ;
#821 = CARTESIAN_POINT ( 'NONE',  ( -81.34136002903926510, -14.40570333659613134, 2.000000000000000000 ) ) ;
#822 = ADVANCED_FACE ( 'NONE', ( #317, #244, #621, #629, #443, #699, #695, #236 ), #767, .F. ) ;
#823 = DIRECTION ( 'NONE',  ( -0.000000000000000000, -0.000000000000000000, 1.000000000000000000 ) ) ;
#824 = DIRECTION ( 'NONE',  ( -0.000000000000000000, -0.000000000000000000, 1.000000000000000000 ) ) ;
#825 = EDGE_LOOP ( 'NONE', ( #87, #450, #519, #186 ) ) ;
#826 = CARTESIAN_POINT ( 'NONE',  ( -60.40000000000000568, -26.00000000000000711, 0.000000000000000000 ) ) ;
#827 = ADVANCED_FACE ( 'NONE', ( #112 ), #633, .F. ) ;
#828 = CARTESIAN_POINT ( 'NONE',  ( -42.01522368914974237, 18.38477631085023845, 0.000000000000000000 ) ) ;
#829 = VECTOR ( 'NONE', #380, 1000.000000000000000 ) ;
#830 = FACE_OUTER_BOUND ( 'NONE', #256, .T. ) ;
#831 = AXIS2_PLACEMENT_3D ( 'NONE', #428, #28, #675 ) ;
#832 = EDGE_LOOP ( 'NONE', ( #456, #368 ) ) ;
#833 = DIRECTION ( 'NONE',  ( 0.000000000000000000, 0.000000000000000000, 1.000000000000000000 ) ) ;
#834 = CARTESIAN_POINT ( 'NONE',  ( -75.58477631085023063, -18.38477631085024555, 0.000000000000000000 ) ) ;
#835 = CARTESIAN_POINT ( 'NONE',  ( -39.80000000000000426, 9.658087761210321212E-16, 2.000000000000000000 ) ) ;
#836 = EDGE_LOOP ( 'NONE', ( #747, #133, #809, #65 ) ) ;
#837 = CARTESIAN_POINT ( 'NONE',  ( -39.69248288769420441, 21.94795639240567198, 0.000000000000000000 ) ) ;
#838 = DIRECTION ( 'NONE',  ( 1.000000000000000000, 0.000000000000000000, 0.000000000000000000 ) ) ;
#839 = VERTEX_POINT ( 'NONE', #187 ) ;
#840 = ORIENTED_EDGE ( 'NONE', *, *, #434, .F. ) ;
#841 = CARTESIAN_POINT ( 'NONE',  ( -42.01522368914974237, 18.38477631085023845, 2.000000000000000000 ) ) ;
#842 = AXIS2_PLACEMENT_3D ( 'NONE', #543, #594, #283 ) ;
#843 = CARTESIAN_POINT ( 'NONE',  ( -46.25863997096080027, 14.40570333659616331, 2.000000000000000000 ) ) ;
#844 = CIRCLE ( 'NONE', #466, 10.00000000000000178 ) ;
#845 = ORIENTED_EDGE ( 'NONE', *, *, #457, .T. ) ;
#846 = DIRECTION ( 'NONE',  ( 0.000000000000000000, 0.000000000000000000, 1.000000000000000000 ) ) ;
#847 = DIRECTION ( 'NONE',  ( 1.000000000000000000, 0.000000000000000000, 0.000000000000000000 ) ) ;
#848 = PRODUCT ( 'Part2^camer_tracker', 'Part2^camer_tracker', '', ( #389 ) ) ;
#849 = ORIENTED_EDGE ( 'NONE', *, *, #142, .F. ) ;
ENDSEC;
END-ISO-10303-21;
