ISO-10303-21;
HEADER;
FILE_DESCRIPTION (( 'STEP AP214' ),
    '1' );
FILE_NAME ('base_bearing_cover.STEP',
    '2026-05-16T14:57:56',
    ( '' ),
    ( '' ),
    'SwSTEP 2.0',
    'SolidWorks 2024',
    '' );
FILE_SCHEMA (( 'AUTOMOTIVE_DESIGN' ));
ENDSEC;

DATA;
#1 = DIRECTION ( 'NONE',  ( 0.000000000000000000, 0.000000000000000000, -1.000000000000000000 ) ) ;
#2 = CIRCLE ( 'NONE', #304, 1.600000000000000089 ) ;
#3 = DIRECTION ( 'NONE',  ( 0.000000000000000000, 0.000000000000000000, 1.000000000000000000 ) ) ;
#4 = CIRCLE ( 'NONE', #436, 1.600000000000000755 ) ;
#5 = EDGE_CURVE ( 'NONE', #315, #166, #334, .T. ) ;
#6 = DIRECTION ( 'NONE',  ( 0.000000000000000000, 1.000000000000000000, 0.000000000000000000 ) ) ;
#7 = APPLICATION_PROTOCOL_DEFINITION ( 'draft international standard', 'automotive_design', 1998, #465 ) ;
#8 = DIRECTION ( 'NONE',  ( 0.000000000000000000, 1.000000000000000000, 0.000000000000000000 ) ) ;
#9 = VERTEX_POINT ( 'NONE', #423 ) ;
#10 = DIRECTION ( 'NONE',  ( 0.000000000000000000, 1.000000000000000000, 0.000000000000000000 ) ) ;
#11 = ADVANCED_FACE ( 'NONE', ( #43 ), #46, .T. ) ;
#12 = ORIENTED_EDGE ( 'NONE', *, *, #273, .T. ) ;
#13 = CARTESIAN_POINT ( 'NONE',  ( 2.204364238465235428E-15, 3.000000000000000000, 18.00000000000000000 ) ) ;
#14 = EDGE_LOOP ( 'NONE', ( #233, #413, #245, #450 ) ) ;
#15 = EDGE_CURVE ( 'NONE', #73, #353, #132, .T. ) ;
#16 = DIRECTION ( 'NONE',  ( -0.000000000000000000, -1.000000000000000000, -0.000000000000000000 ) ) ;
#17 = EDGE_LOOP ( 'NONE', ( #31, #473 ) ) ;
#18 = AXIS2_PLACEMENT_3D ( 'NONE', #485, #364, #324 ) ;
#19 = VECTOR ( 'NONE', #151, 1000.000000000000000 ) ;
#20 = PRESENTATION_STYLE_ASSIGNMENT (( #477 ) ) ;
#21 = ORIENTED_EDGE ( 'NONE', *, *, #236, .T. ) ;
#22 = CARTESIAN_POINT ( 'NONE',  ( 12.40000000000000036, 3.000000000000000000, 1.600000000000043388 ) ) ;
#23 = EDGE_LOOP ( 'NONE', ( #396, #365, #484, #469 ) ) ;
#24 =( LENGTH_UNIT ( ) NAMED_UNIT ( * ) SI_UNIT ( .MILLI., .METRE. ) );
#25 = VERTEX_POINT ( 'NONE', #85 ) ;
#26 = AXIS2_PLACEMENT_3D ( 'NONE', #344, #6, #462 ) ;
#27 = CIRCLE ( 'NONE', #293, 9.899999999999998579 ) ;
#28 = CIRCLE ( 'NONE', #305, 1.600000000000000755 ) ;
#29 =( NAMED_UNIT ( * ) SI_UNIT ( $, .STERADIAN. ) SOLID_ANGLE_UNIT ( ) );
#30 = PRODUCT ( 'base_bearing_cover', 'base_bearing_cover', '', ( #47 ) ) ;
#31 = ORIENTED_EDGE ( 'NONE', *, *, #303, .F. ) ;
#32 = DIRECTION ( 'NONE',  ( -0.000000000000000000, -1.000000000000000000, -0.000000000000000000 ) ) ;
#33 = ORIENTED_EDGE ( 'NONE', *, *, #177, .F. ) ;
#34 = DIRECTION ( 'NONE',  ( 0.000000000000000000, 1.000000000000000000, 0.000000000000000000 ) ) ;
#35 = EDGE_CURVE ( 'NONE', #187, #9, #150, .T. ) ;
#36 = CYLINDRICAL_SURFACE ( 'NONE', #62, 18.00000000000000000 ) ;
#37 = AXIS2_PLACEMENT_3D ( 'NONE', #346, #10, #395 ) ;
#38 = LINE ( 'NONE', #40, #343 ) ;
#39 = CARTESIAN_POINT ( 'NONE',  ( 12.40000000000000036, 3.000000000000000000, 4.336808689942017736E-14 ) ) ;
#40 = CARTESIAN_POINT ( 'NONE',  ( -8.651933336434325383E-14, 3.000000000000000000, 10.79999999999999893 ) ) ;
#41 = DIRECTION ( 'NONE',  ( 0.000000000000000000, 1.000000000000000000, 0.000000000000000000 ) ) ;
#42 = CARTESIAN_POINT ( 'NONE',  ( 0.000000000000000000, 0.000000000000000000, -12.40000000000000036 ) ) ;
#43 = FACE_OUTER_BOUND ( 'NONE', #14, .T. ) ;
#44 = CIRCLE ( 'NONE', #383, 9.899999999999998579 ) ;
#45 =( NAMED_UNIT ( * ) PLANE_ANGLE_UNIT ( ) SI_UNIT ( $, .RADIAN. ) );
#46 = CYLINDRICAL_SURFACE ( 'NONE', #292, 18.00000000000000000 ) ;
#47 = PRODUCT_CONTEXT ( 'NONE', #402, 'mechanical' ) ;
#48 = VERTEX_POINT ( 'NONE', #341 ) ;
#49 = CARTESIAN_POINT ( 'NONE',  ( 0.000000000000000000, 0.000000000000000000, 0.000000000000000000 ) ) ;
#50 = ADVANCED_BREP_SHAPE_REPRESENTATION ( 'base_bearing_cover', ( #330, #173 ), #368 ) ;
#51 = CARTESIAN_POINT ( 'NONE',  ( 0.000000000000000000, 3.000000000000000000, 0.000000000000000000 ) ) ;
#52 = ADVANCED_FACE ( 'NONE', ( #159 ), #415, .F. ) ;
#53 = CIRCLE ( 'NONE', #71, 18.00000000000000000 ) ;
#54 = DIRECTION ( 'NONE',  ( -0.000000000000000000, -1.000000000000000000, -0.000000000000000000 ) ) ;
#55 = PRESENTATION_LAYER_ASSIGNMENT (  '', '', ( #80 ) ) ;
#56 = VERTEX_POINT ( 'NONE', #299 ) ;
#57 = CYLINDRICAL_SURFACE ( 'NONE', #261, 1.600000000000000755 ) ;
#58 = ORIENTED_EDGE ( 'NONE', *, *, #127, .F. ) ;
#59 = CARTESIAN_POINT ( 'NONE',  ( -12.40000000000004121, 0.000000000000000000, -1.067201882419566285E-15 ) ) ;
#60 = ORIENTED_EDGE ( 'NONE', *, *, #289, .T. ) ;
#61 = LINE ( 'NONE', #22, #391 ) ;
#62 = AXIS2_PLACEMENT_3D ( 'NONE', #258, #417, #224 ) ;
#63 = ORIENTED_EDGE ( 'NONE', *, *, #316, .T. ) ;
#64 = AXIS2_PLACEMENT_3D ( 'NONE', #86, #221, #1 ) ;
#65 = CARTESIAN_POINT ( 'NONE',  ( 0.000000000000000000, 0.000000000000000000, 0.000000000000000000 ) ) ;
#66 = VERTEX_POINT ( 'NONE', #83 ) ;
#67 = ORIENTED_EDGE ( 'NONE', *, *, #426, .F. ) ;
#68 = EDGE_CURVE ( 'NONE', #206, #488, #140, .T. ) ;
#69 = FACE_OUTER_BOUND ( 'NONE', #347, .T. ) ;
#70 = ORIENTED_EDGE ( 'NONE', *, *, #155, .T. ) ;
#71 = AXIS2_PLACEMENT_3D ( 'NONE', #205, #130, #240 ) ;
#72 = FACE_OUTER_BOUND ( 'NONE', #313, .T. ) ;
#73 = VERTEX_POINT ( 'NONE', #78 ) ;
#74 = ADVANCED_FACE ( 'NONE', ( #495, #190, #455, #123, #228, #308 ), #87, .F. ) ;
#75 = FACE_BOUND ( 'NONE', #440, .T. ) ;
#76 = DIRECTION ( 'NONE',  ( 0.000000000000000000, 1.000000000000000000, 0.000000000000000000 ) ) ;
#77 =( LENGTH_UNIT ( ) NAMED_UNIT ( * ) SI_UNIT ( .MILLI., .METRE. ) );
#78 = CARTESIAN_POINT ( 'NONE',  ( 2.204364238465235428E-15, 0.000000000000000000, 18.00000000000000000 ) ) ;
#79 = VECTOR ( 'NONE', #129, 1000.000000000000000 ) ;
#80 = STYLED_ITEM ( 'NONE', ( #20 ), #330 ) ;
#81 = AXIS2_PLACEMENT_3D ( 'NONE', #361, #479, #101 ) ;
#82 = CARTESIAN_POINT ( 'NONE',  ( 12.40000000000000036, 0.000000000000000000, -1.599999999999956790 ) ) ;
#83 = CARTESIAN_POINT ( 'NONE',  ( 1.959434878635764984E-16, 3.000000000000000000, -10.79999999999999893 ) ) ;
#84 = EDGE_CURVE ( 'NONE', #179, #56, #162, .T. ) ;
#85 = CARTESIAN_POINT ( 'NONE',  ( 1.212400331155879505E-15, 3.000000000000000000, 9.899999999999998579 ) ) ;
#86 = CARTESIAN_POINT ( 'NONE',  ( 12.40000000000000036, 3.000000000000000000, 4.336808689942017736E-14 ) ) ;
#87 = PLANE ( 'NONE',  #275 ) ;
#88 = AXIS2_PLACEMENT_3D ( 'NONE', #266, #230, #461 ) ;
#89 = DIRECTION ( 'NONE',  ( 0.000000000000000000, 1.000000000000000000, 0.000000000000000000 ) ) ;
#90 = ADVANCED_FACE ( 'NONE', ( #263 ), #197, .F. ) ;
#91 = ORIENTED_EDGE ( 'NONE', *, *, #68, .F. ) ;
#92 = EDGE_CURVE ( 'NONE', #400, #218, #407, .T. ) ;
#93 = LINE ( 'NONE', #427, #204 ) ;
#94 = EDGE_LOOP ( 'NONE', ( #98, #326 ) ) ;
#95 = VECTOR ( 'NONE', #54, 1000.000000000000000 ) ;
#96 = CARTESIAN_POINT ( 'NONE',  ( 0.000000000000000000, 3.000000000000000000, 0.000000000000000000 ) ) ;
#97 = CIRCLE ( 'NONE', #435, 1.600000000000000755 ) ;
#98 = ORIENTED_EDGE ( 'NONE', *, *, #475, .T. ) ;
#99 = EDGE_CURVE ( 'NONE', #48, #244, #283, .T. ) ;
#100 = DIRECTION ( 'NONE',  ( 0.000000000000000000, 0.000000000000000000, 1.000000000000000000 ) ) ;
#101 = DIRECTION ( 'NONE',  ( 0.000000000000000000, 0.000000000000000000, -1.000000000000000000 ) ) ;
#102 = ORIENTED_EDGE ( 'NONE', *, *, #421, .T. ) ;
#103 = DIRECTION ( 'NONE',  ( 0.000000000000000000, 0.000000000000000000, 1.000000000000000000 ) ) ;
#104 = ORIENTED_EDGE ( 'NONE', *, *, #470, .F. ) ;
#105 = CARTESIAN_POINT ( 'NONE',  ( -8.651933336434325383E-14, 3.000000000000000000, 12.40000000000000036 ) ) ;
#106 = ORIENTED_EDGE ( 'NONE', *, *, #242, .T. ) ;
#107 = ADVANCED_FACE ( 'NONE', ( #373 ), #36, .T. ) ;
#108 = CARTESIAN_POINT ( 'NONE',  ( -12.40000000000004121, 3.000000000000000000, -1.600000000000001199 ) ) ;
#109 = EDGE_LOOP ( 'NONE', ( #404, #239 ) ) ;
#110 = CARTESIAN_POINT ( 'NONE',  ( -8.632338987647968012E-14, 3.000000000000000000, 14.00000000000000000 ) ) ;
#111 = ORIENTED_EDGE ( 'NONE', *, *, #209, .F. ) ;
#112 = VECTOR ( 'NONE', #194, 1000.000000000000000 ) ;
#113 = ADVANCED_FACE ( 'NONE', ( #376 ), #336, .F. ) ;
#114 = AXIS2_PLACEMENT_3D ( 'NONE', #291, #374, #451 ) ;
#115 = DIRECTION ( 'NONE',  ( 0.000000000000000000, 1.000000000000000000, 0.000000000000000000 ) ) ;
#116 = EDGE_LOOP ( 'NONE', ( #480, #288, #213, #67 ) ) ;
#117 = CYLINDRICAL_SURFACE ( 'NONE', #64, 1.600000000000000089 ) ;
#118 = DIRECTION ( 'NONE',  ( 0.000000000000000000, -0.000000000000000000, 1.000000000000000000 ) ) ;
#119 = DIRECTION ( 'NONE',  ( 0.000000000000000000, 0.000000000000000000, -1.000000000000000000 ) ) ;
#120 = CIRCLE ( 'NONE', #156, 1.600000000000000755 ) ;
#121 = VECTOR ( 'NONE', #388, 1000.000000000000000 ) ;
#122 =( GEOMETRIC_REPRESENTATION_CONTEXT ( 3 ) GLOBAL_UNCERTAINTY_ASSIGNED_CONTEXT ( ( #354 ) ) GLOBAL_UNIT_ASSIGNED_CONTEXT ( ( #24, #246, #29 ) ) REPRESENTATION_CONTEXT ( 'NONE', 'WORKASPACE' ) );
#123 = FACE_BOUND ( 'NONE', #478, .T. ) ;
#124 = CARTESIAN_POINT ( 'NONE',  ( 0.000000000000000000, 3.000000000000000000, -14.00000000000000000 ) ) ;
#125 = CARTESIAN_POINT ( 'NONE',  ( 0.000000000000000000, 3.000000000000000000, 0.000000000000000000 ) ) ;
#126 = DIRECTION ( 'NONE',  ( -0.000000000000000000, -1.000000000000000000, -0.000000000000000000 ) ) ;
#127 = EDGE_CURVE ( 'NONE', #25, #406, #437, .T. ) ;
#128 = AXIS2_PLACEMENT_3D ( 'NONE', #65, #182, #210 ) ;
#129 = DIRECTION ( 'NONE',  ( -0.000000000000000000, -1.000000000000000000, -0.000000000000000000 ) ) ;
#130 = DIRECTION ( 'NONE',  ( 0.000000000000000000, 1.000000000000000000, 0.000000000000000000 ) ) ;
#131 = ORIENTED_EDGE ( 'NONE', *, *, #99, .F. ) ;
#132 = CIRCLE ( 'NONE', #195, 18.00000000000000000 ) ;
#133 = CARTESIAN_POINT ( 'NONE',  ( -12.40000000000004121, 3.000000000000000000, 1.599999999999998979 ) ) ;
#134 = ORIENTED_EDGE ( 'NONE', *, *, #84, .F. ) ;
#135 = CARTESIAN_POINT ( 'NONE',  ( 12.40000000000000036, 3.000000000000000000, 4.336808689942017736E-14 ) ) ;
#136 = ORIENTED_EDGE ( 'NONE', *, *, #475, .F. ) ;
#137 = DIRECTION ( 'NONE',  ( 0.000000000000000000, 1.000000000000000000, 0.000000000000000000 ) ) ;
#138 = EDGE_LOOP ( 'NONE', ( #443, #286, #214, #104 ) ) ;
#139 = LINE ( 'NONE', #219, #351 ) ;
#140 = CIRCLE ( 'NONE', #225, 1.600000000000000089 ) ;
#141 = ORIENTED_EDGE ( 'NONE', *, *, #196, .T. ) ;
#142 = EDGE_CURVE ( 'NONE', #66, #244, #163, .T. ) ;
#143 = ORIENTED_EDGE ( 'NONE', *, *, #331, .F. ) ;
#144 = SURFACE_SIDE_STYLE ('',( #279 ) ) ;
#145 = EDGE_LOOP ( 'NONE', ( #58, #63, #176, #467 ) ) ;
#146 = LINE ( 'NONE', #382, #237 ) ;
#147 = ORIENTED_EDGE ( 'NONE', *, *, #191, .F. ) ;
#148 = CIRCLE ( 'NONE', #317, 9.899999999999998579 ) ;
#149 = CARTESIAN_POINT ( 'NONE',  ( 0.000000000000000000, 3.000000000000000000, -12.40000000000000036 ) ) ;
#150 = LINE ( 'NONE', #192, #112 ) ;
#151 = DIRECTION ( 'NONE',  ( -0.000000000000000000, -1.000000000000000000, -0.000000000000000000 ) ) ;
#152 = CARTESIAN_POINT ( 'NONE',  ( -12.40000000000004121, 3.000000000000000000, -1.600000000000001199 ) ) ;
#153 = CARTESIAN_POINT ( 'NONE',  ( -8.651933336434325383E-14, 0.000000000000000000, 12.40000000000000036 ) ) ;
#154 = DIRECTION ( 'NONE',  ( -0.000000000000000000, -1.000000000000000000, -0.000000000000000000 ) ) ;
#155 = EDGE_CURVE ( 'NONE', #218, #400, #53, .T. ) ;
#156 = AXIS2_PLACEMENT_3D ( 'NONE', #234, #387, #390 ) ;
#157 = CARTESIAN_POINT ( 'NONE',  ( 12.40000000000000036, 3.000000000000000000, -1.599999999999956790 ) ) ;
#158 = DIRECTION ( 'NONE',  ( 0.000000000000000000, 1.000000000000000000, 0.000000000000000000 ) ) ;
#159 = FACE_OUTER_BOUND ( 'NONE', #145, .T. ) ;
#160 = CARTESIAN_POINT ( 'NONE',  ( -8.651933336434325383E-14, 3.000000000000000000, 12.40000000000000036 ) ) ;
#161 = VERTEX_POINT ( 'NONE', #168 ) ;
#162 = CIRCLE ( 'NONE', #472, 1.600000000000000755 ) ;
#163 = LINE ( 'NONE', #394, #217 ) ;
#164 = EDGE_LOOP ( 'NONE', ( #21, #277 ) ) ;
#165 = DIRECTION ( 'NONE',  ( -0.000000000000000000, -1.000000000000000000, -0.000000000000000000 ) ) ;
#166 = VERTEX_POINT ( 'NONE', #314 ) ;
#167 = PRODUCT_DEFINITION_CONTEXT ( 'detailed design', #465, 'design' ) ;
#168 = CARTESIAN_POINT ( 'NONE',  ( -8.651933336434325383E-14, 3.000000000000000000, 10.79999999999999893 ) ) ;
#169 = EDGE_LOOP ( 'NONE', ( #147, #431 ) ) ;
#170 = AXIS2_PLACEMENT_3D ( 'NONE', #430, #8, #267 ) ;
#171 = DIRECTION ( 'NONE',  ( 0.000000000000000000, 0.000000000000000000, 1.000000000000000000 ) ) ;
#172 = EDGE_LOOP ( 'NONE', ( #143, #270 ) ) ;
#173 = AXIS2_PLACEMENT_3D ( 'NONE', #49, #398, #345 ) ;
#174 = CARTESIAN_POINT ( 'NONE',  ( 0.000000000000000000, 3.000000000000000000, 0.000000000000000000 ) ) ;
#175 = EDGE_CURVE ( 'NONE', #218, #73, #471, .T. ) ;
#176 = ORIENTED_EDGE ( 'NONE', *, *, #177, .T. ) ;
#177 = EDGE_CURVE ( 'NONE', #356, #452, #428, .T. ) ;
#178 = DIRECTION ( 'NONE',  ( -0.000000000000000000, -1.000000000000000000, -0.000000000000000000 ) ) ;
#179 = VERTEX_POINT ( 'NONE', #207 ) ;
#180 = DIRECTION ( 'NONE',  ( 0.000000000000000000, 1.000000000000000000, 0.000000000000000000 ) ) ;
#181 = ORIENTED_EDGE ( 'NONE', *, *, #295, .F. ) ;
#182 = DIRECTION ( 'NONE',  ( 0.000000000000000000, 1.000000000000000000, 0.000000000000000000 ) ) ;
#183 = ORIENTED_EDGE ( 'NONE', *, *, #127, .T. ) ;
#184 = CYLINDRICAL_SURFACE ( 'NONE', #458, 1.600000000000000089 ) ;
#185 = ORIENTED_EDGE ( 'NONE', *, *, #142, .T. ) ;
#186 =( NAMED_UNIT ( * ) SI_UNIT ( $, .STERADIAN. ) SOLID_ANGLE_UNIT ( ) );
#187 = VERTEX_POINT ( 'NONE', #133 ) ;
#188 = AXIS2_PLACEMENT_3D ( 'NONE', #135, #411, #103 ) ;
#189 = CARTESIAN_POINT ( 'NONE',  ( 0.000000000000000000, 0.000000000000000000, 0.000000000000000000 ) ) ;
#190 = FACE_BOUND ( 'NONE', #94, .T. ) ;
#191 = EDGE_CURVE ( 'NONE', #356, #25, #419, .T. ) ;
#192 = CARTESIAN_POINT ( 'NONE',  ( -12.40000000000004121, 3.000000000000000000, 1.599999999999998979 ) ) ;
#193 = DIRECTION ( 'NONE',  ( 0.000000000000000000, 0.000000000000000000, 1.000000000000000000 ) ) ;
#194 = DIRECTION ( 'NONE',  ( -0.000000000000000000, -1.000000000000000000, -0.000000000000000000 ) ) ;
#195 = AXIS2_PLACEMENT_3D ( 'NONE', #307, #158, #420 ) ;
#196 = EDGE_CURVE ( 'NONE', #187, #315, #340, .T. ) ;
#197 = CYLINDRICAL_SURFACE ( 'NONE', #88, 1.600000000000000755 ) ;
#198 = EDGE_CURVE ( 'NONE', #406, #452, #44, .T. ) ;
#199 = FACE_OUTER_BOUND ( 'NONE', #116, .T. ) ;
#200 = ORIENTED_EDGE ( 'NONE', *, *, #35, .T. ) ;
#201 = FACE_OUTER_BOUND ( 'NONE', #290, .T. ) ;
#202 = ORIENTED_EDGE ( 'NONE', *, *, #273, .F. ) ;
#203 = UNCERTAINTY_MEASURE_WITH_UNIT (LENGTH_MEASURE( 1.000000000000000082E-05 ), #77, 'distance_accuracy_value', 'NONE');
#204 = VECTOR ( 'NONE', #126, 1000.000000000000000 ) ;
#205 = CARTESIAN_POINT ( 'NONE',  ( 0.000000000000000000, 3.000000000000000000, 0.000000000000000000 ) ) ;
#206 = VERTEX_POINT ( 'NONE', #466 ) ;
#207 = CARTESIAN_POINT ( 'NONE',  ( -8.651933336434325383E-14, 0.000000000000000000, 10.79999999999999893 ) ) ;
#208 = ORIENTED_EDGE ( 'NONE', *, *, #456, .F. ) ;
#209 = EDGE_CURVE ( 'NONE', #315, #187, #489, .T. ) ;
#210 = DIRECTION ( 'NONE',  ( 0.000000000000000000, 0.000000000000000000, 1.000000000000000000 ) ) ;
#211 = ORIENTED_EDGE ( 'NONE', *, *, #236, .F. ) ;
#212 = DIRECTION ( 'NONE',  ( 0.000000000000000000, 0.000000000000000000, 1.000000000000000000 ) ) ;
#213 = ORIENTED_EDGE ( 'NONE', *, *, #456, .T. ) ;
#214 = ORIENTED_EDGE ( 'NONE', *, *, #409, .T. ) ;
#215 = EDGE_CURVE ( 'NONE', #66, #429, #322, .T. ) ;
#216 = CYLINDRICAL_SURFACE ( 'NONE', #325, 1.600000000000000755 ) ;
#217 = VECTOR ( 'NONE', #16, 1000.000000000000000 ) ;
#218 = VERTEX_POINT ( 'NONE', #355 ) ;
#219 = CARTESIAN_POINT ( 'NONE',  ( 0.000000000000000000, 3.000000000000000000, -18.00000000000000000 ) ) ;
#220 = ORIENTED_EDGE ( 'NONE', *, *, #303, .T. ) ;
#221 = DIRECTION ( 'NONE',  ( -0.000000000000000000, -1.000000000000000000, -0.000000000000000000 ) ) ;
#222 = DIRECTION ( 'NONE',  ( 0.000000000000000000, 0.000000000000000000, 1.000000000000000000 ) ) ;
#223 = DIRECTION ( 'NONE',  ( 0.000000000000000000, 0.000000000000000000, 1.000000000000000000 ) ) ;
#224 = DIRECTION ( 'NONE',  ( 0.000000000000000000, 0.000000000000000000, -1.000000000000000000 ) ) ;
#225 = AXIS2_PLACEMENT_3D ( 'NONE', #39, #76, #3 ) ;
#226 = ADVANCED_FACE ( 'NONE', ( #201 ), #269, .F. ) ;
#227 = FACE_OUTER_BOUND ( 'NONE', #445, .T. ) ;
#228 = FACE_BOUND ( 'NONE', #249, .T. ) ;
#229 = APPLICATION_PROTOCOL_DEFINITION ( 'draft international standard', 'automotive_design', 1998, #402 ) ;
#230 = DIRECTION ( 'NONE',  ( -0.000000000000000000, -1.000000000000000000, -0.000000000000000000 ) ) ;
#231 = DIRECTION ( 'NONE',  ( 0.000000000000000000, 1.000000000000000000, 0.000000000000000000 ) ) ;
#232 = CARTESIAN_POINT ( 'NONE',  ( 1.959434878635764984E-16, 0.000000000000000000, -10.79999999999999893 ) ) ;
#233 = ORIENTED_EDGE ( 'NONE', *, *, #175, .F. ) ;
#234 = CARTESIAN_POINT ( 'NONE',  ( -8.651933336434325383E-14, 3.000000000000000000, 12.40000000000000036 ) ) ;
#235 = CIRCLE ( 'NONE', #433, 1.600000000000000089 ) ;
#236 = EDGE_CURVE ( 'NONE', #166, #9, #463, .T. ) ;
#237 = VECTOR ( 'NONE', #329, 1000.000000000000000 ) ;
#238 = DIRECTION ( 'NONE',  ( 0.000000000000000000, 1.000000000000000000, 0.000000000000000000 ) ) ;
#239 = ORIENTED_EDGE ( 'NONE', *, *, #215, .F. ) ;
#240 = DIRECTION ( 'NONE',  ( 0.000000000000000000, 0.000000000000000000, 1.000000000000000000 ) ) ;
#241 = EDGE_LOOP ( 'NONE', ( #349, #91 ) ) ;
#242 = EDGE_CURVE ( 'NONE', #372, #56, #93, .T. ) ;
#243 = DIRECTION ( 'NONE',  ( -0.000000000000000000, -1.000000000000000000, -0.000000000000000000 ) ) ;
#244 = VERTEX_POINT ( 'NONE', #232 ) ;
#245 = ORIENTED_EDGE ( 'NONE', *, *, #399, .T. ) ;
#246 =( NAMED_UNIT ( * ) PLANE_ANGLE_UNIT ( ) SI_UNIT ( $, .RADIAN. ) );
#247 = EDGE_LOOP ( 'NONE', ( #102, #185, #131, #459 ) ) ;
#248 = FILL_AREA_STYLE_COLOUR ( '', #262 ) ;
#249 = EDGE_LOOP ( 'NONE', ( #311, #321 ) ) ;
#250 = DIRECTION ( 'NONE',  ( 0.000000000000000000, 0.000000000000000000, 1.000000000000000000 ) ) ;
#251 = AXIS2_PLACEMENT_3D ( 'NONE', #425, #231, #384 ) ;
#252 = ORIENTED_EDGE ( 'NONE', *, *, #99, .T. ) ;
#253 = PRODUCT_DEFINITION_SHAPE ( 'NONE', 'NONE',  #448 ) ;
#254 = FACE_BOUND ( 'NONE', #17, .T. ) ;
#255 = CARTESIAN_POINT ( 'NONE',  ( -8.651933336434325383E-14, 0.000000000000000000, 12.40000000000000036 ) ) ;
#256 = EDGE_CURVE ( 'NONE', #372, #161, #120, .T. ) ;
#257 = DIRECTION ( 'NONE',  ( 0.000000000000000000, 1.000000000000000000, 0.000000000000000000 ) ) ;
#258 = CARTESIAN_POINT ( 'NONE',  ( 0.000000000000000000, 3.000000000000000000, 0.000000000000000000 ) ) ;
#259 = DIRECTION ( 'NONE',  ( 0.000000000000000000, 0.000000000000000000, 1.000000000000000000 ) ) ;
#260 = DIRECTION ( 'NONE',  ( 0.000000000000000000, 0.000000000000000000, -1.000000000000000000 ) ) ;
#261 = AXIS2_PLACEMENT_3D ( 'NONE', #160, #464, #482 ) ;
#262 = COLOUR_RGB ( '',0.7921568627450980005, 0.8196078431372548767, 0.9333333333333333481 ) ;
#263 = FACE_OUTER_BOUND ( 'NONE', #138, .T. ) ;
#264 = ADVANCED_FACE ( 'NONE', ( #199 ), #57, .F. ) ;
#265 = CARTESIAN_POINT ( 'NONE',  ( 12.40000000000000036, 3.000000000000000000, -1.599999999999956790 ) ) ;
#266 = CARTESIAN_POINT ( 'NONE',  ( 0.000000000000000000, 3.000000000000000000, -12.40000000000000036 ) ) ;
#267 = DIRECTION ( 'NONE',  ( 0.000000000000000000, 0.000000000000000000, 1.000000000000000000 ) ) ;
#268 = AXIS2_PLACEMENT_3D ( 'NONE', #59, #238, #171 ) ;
#269 = CYLINDRICAL_SURFACE ( 'NONE', #366, 9.899999999999998579 ) ;
#270 = ORIENTED_EDGE ( 'NONE', *, *, #15, .F. ) ;
#271 = CARTESIAN_POINT ( 'NONE',  ( 0.000000000000000000, 3.000000000000000000, -9.899999999999998579 ) ) ;
#272 = ORIENTED_EDGE ( 'NONE', *, *, #5, .T. ) ;
#273 = EDGE_CURVE ( 'NONE', #206, #332, #61, .T. ) ;
#274 = CARTESIAN_POINT ( 'NONE',  ( 0.000000000000000000, 3.000000000000000000, -12.40000000000000036 ) ) ;
#275 = AXIS2_PLACEMENT_3D ( 'NONE', #378, #454, #118 ) ;
#276 = DIRECTION ( 'NONE',  ( 0.000000000000000000, 0.000000000000000000, -1.000000000000000000 ) ) ;
#277 = ORIENTED_EDGE ( 'NONE', *, *, #363, .T. ) ;
#278 = PRODUCT_RELATED_PRODUCT_CATEGORY ( 'part', '', ( #30 ) ) ;
#279 = SURFACE_STYLE_FILL_AREA ( #444 ) ;
#280 = ORIENTED_EDGE ( 'NONE', *, *, #295, .T. ) ;
#281 = CARTESIAN_POINT ( 'NONE',  ( 12.40000000000000036, 0.000000000000000000, 1.600000000000043388 ) ) ;
#282 = ORIENTED_EDGE ( 'NONE', *, *, #441, .T. ) ;
#283 = CIRCLE ( 'NONE', #26, 1.600000000000000755 ) ;
#284 = CARTESIAN_POINT ( 'NONE',  ( 0.000000000000000000, 3.000000000000000000, -18.00000000000000000 ) ) ;
#285 = CIRCLE ( 'NONE', #128, 18.00000000000000000 ) ;
#286 = ORIENTED_EDGE ( 'NONE', *, *, #215, .T. ) ;
#287 = DIRECTION ( 'NONE',  ( 0.000000000000000000, 1.000000000000000000, 0.000000000000000000 ) ) ;
#288 = ORIENTED_EDGE ( 'NONE', *, *, #256, .T. ) ;
#289 = EDGE_CURVE ( 'NONE', #490, #332, #235, .T. ) ;
#290 = EDGE_LOOP ( 'NONE', ( #493, #183, #136, #33 ) ) ;
#291 = CARTESIAN_POINT ( 'NONE',  ( -12.40000000000004121, 3.000000000000000000, -1.067201882419566285E-15 ) ) ;
#292 = AXIS2_PLACEMENT_3D ( 'NONE', #125, #302, #260 ) ;
#293 = AXIS2_PLACEMENT_3D ( 'NONE', #174, #137, #250 ) ;
#294 = ORIENTED_EDGE ( 'NONE', *, *, #441, .F. ) ;
#295 = EDGE_CURVE ( 'NONE', #332, #490, #342, .T. ) ;
#296 = FACE_OUTER_BOUND ( 'NONE', #320, .T. ) ;
#297 = DIRECTION ( 'NONE',  ( -0.000000000000000000, -1.000000000000000000, -0.000000000000000000 ) ) ;
#298 = FACE_BOUND ( 'NONE', #109, .T. ) ;
#299 = CARTESIAN_POINT ( 'NONE',  ( -8.632338987647968012E-14, 0.000000000000000000, 14.00000000000000000 ) ) ;
#300 = DIRECTION ( 'NONE',  ( 0.000000000000000000, 1.000000000000000000, 0.000000000000000000 ) ) ;
#301 = AXIS2_PLACEMENT_3D ( 'NONE', #338, #297, #119 ) ;
#302 = DIRECTION ( 'NONE',  ( -0.000000000000000000, -1.000000000000000000, -0.000000000000000000 ) ) ;
#303 = EDGE_CURVE ( 'NONE', #161, #372, #408, .T. ) ;
#304 = AXIS2_PLACEMENT_3D ( 'NONE', #405, #180, #442 ) ;
#305 = AXIS2_PLACEMENT_3D ( 'NONE', #42, #257, #193 ) ;
#306 = FACE_BOUND ( 'NONE', #241, .T. ) ;
#307 = CARTESIAN_POINT ( 'NONE',  ( 0.000000000000000000, 0.000000000000000000, 0.000000000000000000 ) ) ;
#308 = FACE_BOUND ( 'NONE', #164, .T. ) ;
#309 = DIRECTION ( 'NONE',  ( -0.000000000000000000, -1.000000000000000000, -0.000000000000000000 ) ) ;
#310 = CARTESIAN_POINT ( 'NONE',  ( 1.212400331155879505E-15, 3.000000000000000000, 9.899999999999998579 ) ) ;
#311 = ORIENTED_EDGE ( 'NONE', *, *, #84, .T. ) ;
#312 = CARTESIAN_POINT ( 'NONE',  ( 0.000000000000000000, 0.000000000000000000, 0.000000000000000000 ) ) ;
#313 = EDGE_LOOP ( 'NONE', ( #381, #141, #272, #476 ) ) ;
#314 = CARTESIAN_POINT ( 'NONE',  ( -12.40000000000004121, 0.000000000000000000, -1.600000000000001199 ) ) ;
#315 = VERTEX_POINT ( 'NONE', #108 ) ;
#316 = EDGE_CURVE ( 'NONE', #25, #356, #27, .T. ) ;
#317 = AXIS2_PLACEMENT_3D ( 'NONE', #189, #333, #223 ) ;
#318 = DIRECTION ( 'NONE',  ( 0.000000000000000000, 1.000000000000000000, 0.000000000000000000 ) ) ;
#319 = EDGE_LOOP ( 'NONE', ( #202, #389, #282, #181 ) ) ;
#320 = EDGE_LOOP ( 'NONE', ( #362, #200, #211, #486 ) ) ;
#321 = ORIENTED_EDGE ( 'NONE', *, *, #426, .T. ) ;
#322 = CIRCLE ( 'NONE', #358, 1.600000000000000755 ) ;
#323 = MECHANICAL_DESIGN_GEOMETRIC_PRESENTATION_REPRESENTATION (  '', ( #80 ), #122 ) ;
#324 = DIRECTION ( 'NONE',  ( 0.000000000000000000, 0.000000000000000000, 1.000000000000000000 ) ) ;
#325 = AXIS2_PLACEMENT_3D ( 'NONE', #105, #243, #367 ) ;
#326 = ORIENTED_EDGE ( 'NONE', *, *, #198, .T. ) ;
#327 = CARTESIAN_POINT ( 'NONE',  ( -8.651933336434325383E-14, 3.000000000000000000, 12.40000000000000036 ) ) ;
#328 = EDGE_LOOP ( 'NONE', ( #434, #12, #369, #294 ) ) ;
#329 = DIRECTION ( 'NONE',  ( -0.000000000000000000, -1.000000000000000000, -0.000000000000000000 ) ) ;
#330 = MANIFOLD_SOLID_BREP ( 'Boss-Extrude1', #375 ) ;
#331 = EDGE_CURVE ( 'NONE', #353, #73, #285, .T. ) ;
#332 = VERTEX_POINT ( 'NONE', #281 ) ;
#333 = DIRECTION ( 'NONE',  ( 0.000000000000000000, 1.000000000000000000, 0.000000000000000000 ) ) ;
#334 = LINE ( 'NONE', #152, #350 ) ;
#335 = PLANE ( 'NONE',  #385 ) ;
#336 = CYLINDRICAL_SURFACE ( 'NONE', #457, 1.600000000000000755 ) ;
#337 = DIRECTION ( 'NONE',  ( -0.000000000000000000, -1.000000000000000000, -0.000000000000000000 ) ) ;
#338 = CARTESIAN_POINT ( 'NONE',  ( 0.000000000000000000, 3.000000000000000000, 0.000000000000000000 ) ) ;
#339 = CARTESIAN_POINT ( 'NONE',  ( 1.212400331155879505E-15, 0.000000000000000000, 9.899999999999998579 ) ) ;
#340 = CIRCLE ( 'NONE', #37, 1.600000000000000089 ) ;
#341 = CARTESIAN_POINT ( 'NONE',  ( 0.000000000000000000, 0.000000000000000000, -14.00000000000000000 ) ) ;
#342 = CIRCLE ( 'NONE', #18, 1.600000000000000089 ) ;
#343 = VECTOR ( 'NONE', #418, 1000.000000000000000 ) ;
#344 = CARTESIAN_POINT ( 'NONE',  ( 0.000000000000000000, 0.000000000000000000, -12.40000000000000036 ) ) ;
#345 = DIRECTION ( 'NONE',  ( 1.000000000000000000, 0.000000000000000000, 0.000000000000000000 ) ) ;
#346 = CARTESIAN_POINT ( 'NONE',  ( -12.40000000000004121, 3.000000000000000000, -1.067201882419566285E-15 ) ) ;
#347 = EDGE_LOOP ( 'NONE', ( #220, #106, #134, #208 ) ) ;
#348 = DIRECTION ( 'NONE',  ( 0.000000000000000000, 0.000000000000000000, 1.000000000000000000 ) ) ;
#349 = ORIENTED_EDGE ( 'NONE', *, *, #380, .F. ) ;
#350 = VECTOR ( 'NONE', #154, 1000.000000000000000 ) ;
#351 = VECTOR ( 'NONE', #32, 1000.000000000000000 ) ;
#352 = DIRECTION ( 'NONE',  ( 0.000000000000000000, 0.000000000000000000, -1.000000000000000000 ) ) ;
#353 = VERTEX_POINT ( 'NONE', #449 ) ;
#354 = UNCERTAINTY_MEASURE_WITH_UNIT (LENGTH_MEASURE( 1.000000000000000082E-05 ), #24, 'distance_accuracy_value', 'NONE');
#355 = CARTESIAN_POINT ( 'NONE',  ( 2.204364238465235428E-15, 3.000000000000000000, 18.00000000000000000 ) ) ;
#356 = VERTEX_POINT ( 'NONE', #439 ) ;
#357 = DIRECTION ( 'NONE',  ( 0.000000000000000000, 0.000000000000000000, 1.000000000000000000 ) ) ;
#358 = AXIS2_PLACEMENT_3D ( 'NONE', #432, #89, #100 ) ;
#359 = DIRECTION ( 'NONE',  ( 0.000000000000000000, 1.000000000000000000, 0.000000000000000000 ) ) ;
#360 = ORIENTED_EDGE ( 'NONE', *, *, #196, .F. ) ;
#361 = CARTESIAN_POINT ( 'NONE',  ( -12.40000000000004121, 3.000000000000000000, -1.067201882419566285E-15 ) ) ;
#362 = ORIENTED_EDGE ( 'NONE', *, *, #209, .T. ) ;
#363 = EDGE_CURVE ( 'NONE', #9, #166, #2, .T. ) ;
#364 = DIRECTION ( 'NONE',  ( 0.000000000000000000, 1.000000000000000000, 0.000000000000000000 ) ) ;
#365 = ORIENTED_EDGE ( 'NONE', *, *, #175, .T. ) ;
#366 = AXIS2_PLACEMENT_3D ( 'NONE', #96, #309, #276 ) ;
#367 = DIRECTION ( 'NONE',  ( 0.000000000000000000, 0.000000000000000000, -1.000000000000000000 ) ) ;
#368 =( GEOMETRIC_REPRESENTATION_CONTEXT ( 3 ) GLOBAL_UNCERTAINTY_ASSIGNED_CONTEXT ( ( #203 ) ) GLOBAL_UNIT_ASSIGNED_CONTEXT ( ( #77, #45, #186 ) ) REPRESENTATION_CONTEXT ( 'NONE', 'WORKASPACE' ) );
#369 = ORIENTED_EDGE ( 'NONE', *, *, #289, .F. ) ;
#370 = FACE_OUTER_BOUND ( 'NONE', #319, .T. ) ;
#371 = ADVANCED_FACE ( 'NONE', ( #69 ), #216, .F. ) ;
#372 = VERTEX_POINT ( 'NONE', #110 ) ;
#373 = FACE_OUTER_BOUND ( 'NONE', #23, .T. ) ;
#374 = DIRECTION ( 'NONE',  ( -0.000000000000000000, -1.000000000000000000, -0.000000000000000000 ) ) ;
#375 = CLOSED_SHELL ( 'NONE', ( #483, #371, #492, #113, #226, #107, #491, #74, #11, #52, #90, #401, #264, #393 ) ) ;
#376 = FACE_OUTER_BOUND ( 'NONE', #247, .T. ) ;
#377 = DIRECTION ( 'NONE',  ( 0.000000000000000000, -0.000000000000000000, 1.000000000000000000 ) ) ;
#378 = CARTESIAN_POINT ( 'NONE',  ( 0.000000000000000000, 0.000000000000000000, 0.000000000000000000 ) ) ;
#379 = DIRECTION ( 'NONE',  ( 0.000000000000000000, 0.000000000000000000, 1.000000000000000000 ) ) ;
#380 = EDGE_CURVE ( 'NONE', #488, #206, #410, .T. ) ;
#381 = ORIENTED_EDGE ( 'NONE', *, *, #35, .F. ) ;
#382 = CARTESIAN_POINT ( 'NONE',  ( 0.000000000000000000, 3.000000000000000000, -14.00000000000000000 ) ) ;
#383 = AXIS2_PLACEMENT_3D ( 'NONE', #312, #468, #357 ) ;
#384 = DIRECTION ( 'NONE',  ( 0.000000000000000000, 0.000000000000000000, 1.000000000000000000 ) ) ;
#385 = AXIS2_PLACEMENT_3D ( 'NONE', #453, #300, #377 ) ;
#386 = SHAPE_DEFINITION_REPRESENTATION ( #253, #50 ) ;
#387 = DIRECTION ( 'NONE',  ( 0.000000000000000000, 1.000000000000000000, 0.000000000000000000 ) ) ;
#388 = DIRECTION ( 'NONE',  ( -0.000000000000000000, -1.000000000000000000, -0.000000000000000000 ) ) ;
#389 = ORIENTED_EDGE ( 'NONE', *, *, #68, .T. ) ;
#390 = DIRECTION ( 'NONE',  ( 0.000000000000000000, 0.000000000000000000, 1.000000000000000000 ) ) ;
#391 = VECTOR ( 'NONE', #178, 1000.000000000000000 ) ;
#392 = ORIENTED_EDGE ( 'NONE', *, *, #470, .T. ) ;
#393 = ADVANCED_FACE ( 'NONE', ( #72 ), #403, .F. ) ;
#394 = CARTESIAN_POINT ( 'NONE',  ( 1.959434878635765477E-16, 3.000000000000000000, -10.79999999999999893 ) ) ;
#395 = DIRECTION ( 'NONE',  ( 0.000000000000000000, 0.000000000000000000, 1.000000000000000000 ) ) ;
#396 = ORIENTED_EDGE ( 'NONE', *, *, #155, .F. ) ;
#397 = AXIS2_PLACEMENT_3D ( 'NONE', #51, #318, #348 ) ;
#398 = DIRECTION ( 'NONE',  ( 0.000000000000000000, 0.000000000000000000, 1.000000000000000000 ) ) ;
#399 = EDGE_CURVE ( 'NONE', #400, #353, #139, .T. ) ;
#400 = VERTEX_POINT ( 'NONE', #284 ) ;
#401 = ADVANCED_FACE ( 'NONE', ( #370 ), #184, .F. ) ;
#402 = APPLICATION_CONTEXT ( 'automotive_design' ) ;
#403 = CYLINDRICAL_SURFACE ( 'NONE', #81, 1.600000000000000089 ) ;
#404 = ORIENTED_EDGE ( 'NONE', *, *, #421, .F. ) ;
#405 = CARTESIAN_POINT ( 'NONE',  ( -12.40000000000004121, 0.000000000000000000, -1.067201882419566285E-15 ) ) ;
#406 = VERTEX_POINT ( 'NONE', #339 ) ;
#407 = CIRCLE ( 'NONE', #251, 18.00000000000000000 ) ;
#408 = CIRCLE ( 'NONE', #481, 1.600000000000000755 ) ;
#409 = EDGE_CURVE ( 'NONE', #429, #48, #146, .T. ) ;
#410 = CIRCLE ( 'NONE', #188, 1.600000000000000089 ) ;
#411 = DIRECTION ( 'NONE',  ( 0.000000000000000000, 1.000000000000000000, 0.000000000000000000 ) ) ;
#412 = PRODUCT_DEFINITION_FORMATION_WITH_SPECIFIED_SOURCE ( 'ANY', '', #30, .NOT_KNOWN. ) ;
#413 = ORIENTED_EDGE ( 'NONE', *, *, #92, .F. ) ;
#414 = CYLINDRICAL_SURFACE ( 'NONE', #114, 1.600000000000000089 ) ;
#415 = CYLINDRICAL_SURFACE ( 'NONE', #301, 9.899999999999998579 ) ;
#416 = FACE_BOUND ( 'NONE', #169, .T. ) ;
#417 = DIRECTION ( 'NONE',  ( -0.000000000000000000, -1.000000000000000000, -0.000000000000000000 ) ) ;
#418 = DIRECTION ( 'NONE',  ( -0.000000000000000000, -1.000000000000000000, -0.000000000000000000 ) ) ;
#419 = CIRCLE ( 'NONE', #397, 9.899999999999998579 ) ;
#420 = DIRECTION ( 'NONE',  ( 0.000000000000000000, 0.000000000000000000, 1.000000000000000000 ) ) ;
#421 = EDGE_CURVE ( 'NONE', #429, #66, #97, .T. ) ;
#422 = CARTESIAN_POINT ( 'NONE',  ( 12.40000000000000036, 3.000000000000000000, 4.336808689942017736E-14 ) ) ;
#423 = CARTESIAN_POINT ( 'NONE',  ( -12.40000000000004121, 0.000000000000000000, 1.599999999999998979 ) ) ;
#424 = FACE_OUTER_BOUND ( 'NONE', #328, .T. ) ;
#425 = CARTESIAN_POINT ( 'NONE',  ( 0.000000000000000000, 3.000000000000000000, 0.000000000000000000 ) ) ;
#426 = EDGE_CURVE ( 'NONE', #56, #179, #4, .T. ) ;
#427 = CARTESIAN_POINT ( 'NONE',  ( -8.632338987647968012E-14, 3.000000000000000000, 14.00000000000000000 ) ) ;
#428 = LINE ( 'NONE', #271, #95 ) ;
#429 = VERTEX_POINT ( 'NONE', #124 ) ;
#430 = CARTESIAN_POINT ( 'NONE',  ( -12.40000000000004121, 3.000000000000000000, -1.067201882419566285E-15 ) ) ;
#431 = ORIENTED_EDGE ( 'NONE', *, *, #316, .F. ) ;
#432 = CARTESIAN_POINT ( 'NONE',  ( 0.000000000000000000, 3.000000000000000000, -12.40000000000000036 ) ) ;
#433 = AXIS2_PLACEMENT_3D ( 'NONE', #474, #287, #212 ) ;
#434 = ORIENTED_EDGE ( 'NONE', *, *, #380, .T. ) ;
#435 = AXIS2_PLACEMENT_3D ( 'NONE', #149, #115, #259 ) ;
#436 = AXIS2_PLACEMENT_3D ( 'NONE', #153, #34, #379 ) ;
#437 = LINE ( 'NONE', #310, #79 ) ;
#438 = ORIENTED_EDGE ( 'NONE', *, *, #92, .T. ) ;
#439 = CARTESIAN_POINT ( 'NONE',  ( 0.000000000000000000, 3.000000000000000000, -9.899999999999998579 ) ) ;
#440 = EDGE_LOOP ( 'NONE', ( #111, #360 ) ) ;
#441 = EDGE_CURVE ( 'NONE', #488, #490, #487, .T. ) ;
#442 = DIRECTION ( 'NONE',  ( 0.000000000000000000, 0.000000000000000000, 1.000000000000000000 ) ) ;
#443 = ORIENTED_EDGE ( 'NONE', *, *, #142, .F. ) ;
#444 = FILL_AREA_STYLE ('',( #248 ) ) ;
#445 = EDGE_LOOP ( 'NONE', ( #438, #70 ) ) ;
#446 = DIRECTION ( 'NONE',  ( 0.000000000000000000, 0.000000000000000000, 1.000000000000000000 ) ) ;
#447 = EDGE_LOOP ( 'NONE', ( #252, #392 ) ) ;
#448 = PRODUCT_DEFINITION ( 'UNKNOWN', '', #412, #167 ) ;
#449 = CARTESIAN_POINT ( 'NONE',  ( 0.000000000000000000, 0.000000000000000000, -18.00000000000000000 ) ) ;
#450 = ORIENTED_EDGE ( 'NONE', *, *, #331, .T. ) ;
#451 = DIRECTION ( 'NONE',  ( 0.000000000000000000, 0.000000000000000000, -1.000000000000000000 ) ) ;
#452 = VERTEX_POINT ( 'NONE', #494 ) ;
#453 = CARTESIAN_POINT ( 'NONE',  ( 0.000000000000000000, 3.000000000000000000, 0.000000000000000000 ) ) ;
#454 = DIRECTION ( 'NONE',  ( 0.000000000000000000, 1.000000000000000000, 0.000000000000000000 ) ) ;
#455 = FACE_BOUND ( 'NONE', #447, .T. ) ;
#456 = EDGE_CURVE ( 'NONE', #161, #179, #38, .T. ) ;
#457 = AXIS2_PLACEMENT_3D ( 'NONE', #274, #165, #352 ) ;
#458 = AXIS2_PLACEMENT_3D ( 'NONE', #422, #337, #460 ) ;
#459 = ORIENTED_EDGE ( 'NONE', *, *, #409, .F. ) ;
#460 = DIRECTION ( 'NONE',  ( 0.000000000000000000, 0.000000000000000000, -1.000000000000000000 ) ) ;
#461 = DIRECTION ( 'NONE',  ( 0.000000000000000000, 0.000000000000000000, -1.000000000000000000 ) ) ;
#462 = DIRECTION ( 'NONE',  ( 0.000000000000000000, 0.000000000000000000, 1.000000000000000000 ) ) ;
#463 = CIRCLE ( 'NONE', #268, 1.600000000000000089 ) ;
#464 = DIRECTION ( 'NONE',  ( -0.000000000000000000, -1.000000000000000000, -0.000000000000000000 ) ) ;
#465 = APPLICATION_CONTEXT ( 'automotive_design' ) ;
#466 = CARTESIAN_POINT ( 'NONE',  ( 12.40000000000000036, 3.000000000000000000, 1.600000000000043388 ) ) ;
#467 = ORIENTED_EDGE ( 'NONE', *, *, #198, .F. ) ;
#468 = DIRECTION ( 'NONE',  ( 0.000000000000000000, 1.000000000000000000, 0.000000000000000000 ) ) ;
#469 = ORIENTED_EDGE ( 'NONE', *, *, #399, .F. ) ;
#470 = EDGE_CURVE ( 'NONE', #244, #48, #28, .T. ) ;
#471 = LINE ( 'NONE', #13, #121 ) ;
#472 = AXIS2_PLACEMENT_3D ( 'NONE', #255, #41, #222 ) ;
#473 = ORIENTED_EDGE ( 'NONE', *, *, #256, .F. ) ;
#474 = CARTESIAN_POINT ( 'NONE',  ( 12.40000000000000036, 0.000000000000000000, 4.336808689942017736E-14 ) ) ;
#475 = EDGE_CURVE ( 'NONE', #452, #406, #148, .T. ) ;
#476 = ORIENTED_EDGE ( 'NONE', *, *, #363, .F. ) ;
#477 = SURFACE_STYLE_USAGE ( .BOTH. , #144 ) ;
#478 = EDGE_LOOP ( 'NONE', ( #60, #280 ) ) ;
#479 = DIRECTION ( 'NONE',  ( -0.000000000000000000, -1.000000000000000000, -0.000000000000000000 ) ) ;
#480 = ORIENTED_EDGE ( 'NONE', *, *, #242, .F. ) ;
#481 = AXIS2_PLACEMENT_3D ( 'NONE', #327, #359, #446 ) ;
#482 = DIRECTION ( 'NONE',  ( 0.000000000000000000, 0.000000000000000000, -1.000000000000000000 ) ) ;
#483 = ADVANCED_FACE ( 'NONE', ( #296 ), #414, .F. ) ;
#484 = ORIENTED_EDGE ( 'NONE', *, *, #15, .T. ) ;
#485 = CARTESIAN_POINT ( 'NONE',  ( 12.40000000000000036, 0.000000000000000000, 4.336808689942017736E-14 ) ) ;
#486 = ORIENTED_EDGE ( 'NONE', *, *, #5, .F. ) ;
#487 = LINE ( 'NONE', #157, #19 ) ;
#488 = VERTEX_POINT ( 'NONE', #265 ) ;
#489 = CIRCLE ( 'NONE', #170, 1.600000000000000089 ) ;
#490 = VERTEX_POINT ( 'NONE', #82 ) ;
#491 = ADVANCED_FACE ( 'NONE', ( #254, #298, #227, #416, #306, #75 ), #335, .T. ) ;
#492 = ADVANCED_FACE ( 'NONE', ( #424 ), #117, .F. ) ;
#493 = ORIENTED_EDGE ( 'NONE', *, *, #191, .T. ) ;
#494 = CARTESIAN_POINT ( 'NONE',  ( 0.000000000000000000, 0.000000000000000000, -9.899999999999998579 ) ) ;
#495 = FACE_OUTER_BOUND ( 'NONE', #172, .T. ) ;
ENDSEC;
END-ISO-10303-21;
