ISO-10303-21;
HEADER;
FILE_DESCRIPTION (( 'STEP AP214' ),
    '1' );
FILE_NAME ('camera_tracker_bearing_mount.STEP',
    '2026-05-16T14:56:52',
    ( '' ),
    ( '' ),
    'SwSTEP 2.0',
    'SolidWorks 2024',
    '' );
FILE_SCHEMA (( 'AUTOMOTIVE_DESIGN' ));
ENDSEC;

DATA;
#1 = CARTESIAN_POINT ( 'NONE',  ( -110.6000000000000796, -14.09286825402910459, 10.30866151230174843 ) ) ;
#2 =( LENGTH_UNIT ( ) NAMED_UNIT ( * ) SI_UNIT ( .MILLI., .METRE. ) );
#3 = ORIENTED_EDGE ( 'NONE', *, *, #283, .F. ) ;
#4 = FACE_OUTER_BOUND ( 'NONE', #1083, .T. ) ;
#5 = AXIS2_PLACEMENT_3D ( 'NONE', #97, #79, #774 ) ;
#6 = LINE ( 'NONE', #1064, #697 ) ;
#7 = VERTEX_POINT ( 'NONE', #727 ) ;
#8 = DIRECTION ( 'NONE',  ( -1.000000000000000000, 4.336808689942009847E-16, -0.000000000000000000 ) ) ;
#9 = CARTESIAN_POINT ( 'NONE',  ( -114.8401590004190211, 14.04555640029864527, 10.36797465185375167 ) ) ;
#10 = ORIENTED_EDGE ( 'NONE', *, *, #286, .T. ) ;
#11 = DIRECTION ( 'NONE',  ( 0.000000000000000000, 0.000000000000000000, -1.000000000000000000 ) ) ;
#12 = DIRECTION ( 'NONE',  ( 0.000000000000000000, -1.000000000000000000, 0.000000000000000000 ) ) ;
#13 = ORIENTED_EDGE ( 'NONE', *, *, #525, .F. ) ;
#14 = CARTESIAN_POINT ( 'NONE',  ( -120.3075522448786217, 11.54434463134762368, 13.04396426768051498 ) ) ;
#15 = EDGE_LOOP ( 'NONE', ( #505, #888, #448, #201 ) ) ;
#16 = AXIS2_PLACEMENT_3D ( 'NONE', #182, #187, #1051 ) ;
#17 = CARTESIAN_POINT ( 'NONE',  ( -111.4609639470028242, -15.46096394700285082, 6.922179607584165950 ) ) ;
#18 = VECTOR ( 'NONE', #710, 1000.000000000000000 ) ;
#19 = ORIENTED_EDGE ( 'NONE', *, *, #358, .F. ) ;
#20 = CARTESIAN_POINT ( 'NONE',  ( -116.7260326326939293, 9.971611616687161117, 13.99399291132594847 ) ) ;
#21 = ORIENTED_EDGE ( 'NONE', *, *, #23, .T. ) ;
#22 = CARTESIAN_POINT ( 'NONE',  ( -117.6000000000000085, 12.84999999999998721, 8.000000000000000000 ) ) ;
#23 = EDGE_CURVE ( 'NONE', #7, #327, #818, .T. ) ;
#24 = CARTESIAN_POINT ( 'NONE',  ( -114.8176697716962451, -11.71424967340592893, 12.91594915449618597 ) ) ;
#25 = VERTEX_POINT ( 'NONE', #915 ) ;
#26 = DIRECTION ( 'NONE',  ( 0.000000000000000000, 0.000000000000000000, -1.000000000000000000 ) ) ;
#27 = EDGE_CURVE ( 'NONE', #683, #845, #665, .T. ) ;
#28 = ADVANCED_FACE ( 'NONE', ( #340 ), #943, .T. ) ;
#29 = VERTEX_POINT ( 'NONE', #923 ) ;
#30 = CARTESIAN_POINT ( 'NONE',  ( -124.5999999999999943, -14.60000000000004050, 0.000000000000000000 ) ) ;
#31 = CARTESIAN_POINT ( 'NONE',  ( -110.6000000000000369, -5.600000000000017408, 4.999999999999999112 ) ) ;
#32 = CARTESIAN_POINT ( 'NONE',  ( -120.2000000000000313, 10.09999999999999964, 0.000000000000000000 ) ) ;
#33 = CARTESIAN_POINT ( 'NONE',  ( -117.8272349917832571, 9.850395707337867179, 14.05174770514926408 ) ) ;
#34 = ORIENTED_EDGE ( 'NONE', *, *, #1022, .T. ) ;
#35 = DIRECTION ( 'NONE',  ( 0.000000000000000000, 0.000000000000000000, -1.000000000000000000 ) ) ;
#36 = VECTOR ( 'NONE', #416, 1000.000000000000000 ) ;
#37 = AXIS2_PLACEMENT_3D ( 'NONE', #767, #234, #576 ) ;
#38 = DIRECTION ( 'NONE',  ( -1.000000000000000000, 0.000000000000000000, 0.000000000000000000 ) ) ;
#39 = CARTESIAN_POINT ( 'NONE',  ( -116.1205545918732014, 10.23094849973840503, 13.86371135535047294 ) ) ;
#40 = ORIENTED_EDGE ( 'NONE', *, *, #564, .F. ) ;
#41 = DIRECTION ( 'NONE',  ( 0.000000000000000000, 0.000000000000000000, -1.000000000000000000 ) ) ;
#42 = CARTESIAN_POINT ( 'NONE',  ( -120.6000000000000085, 12.84999999999998721, 11.88748865697795587 ) ) ;
#43 = DIRECTION ( 'NONE',  ( 1.000000000000000000, 0.000000000000000000, 0.000000000000000000 ) ) ;
#44 = LINE ( 'NONE', #227, #1046 ) ;
#45 = ORIENTED_EDGE ( 'NONE', *, *, #841, .T. ) ;
#46 = CARTESIAN_POINT ( 'NONE',  ( -124.5999999999999943, 5.599999999999990763, 15.00000000000000000 ) ) ;
#47 = CARTESIAN_POINT ( 'NONE',  ( -123.6000000000000227, 4.999999999999999112, 0.000000000000000000 ) ) ;
#48 = EDGE_CURVE ( 'NONE', #965, #1011, #131, .T. ) ;
#49 = CARTESIAN_POINT ( 'NONE',  ( -114.7570145474110745, -13.83743296125935984, 10.68285842250911166 ) ) ;
#50 = CARTESIAN_POINT ( 'NONE',  ( -124.5999999999999943, -5.600000000000005862, 15.00000000000000000 ) ) ;
#51 = ORIENTED_EDGE ( 'NONE', *, *, #875, .F. ) ;
#52 = LINE ( 'NONE', #245, #557 ) ;
#53 = ADVANCED_FACE ( 'NONE', ( #426 ), #858, .F. ) ;
#54 = CARTESIAN_POINT ( 'NONE',  ( -120.3817821513226534, -11.71284674492880384, 12.91704419340491938 ) ) ;
#55 = VECTOR ( 'NONE', #629, 1000.000000000000000 ) ;
#56 = AXIS2_PLACEMENT_3D ( 'NONE', #926, #249, #1024 ) ;
#57 =( NAMED_UNIT ( * ) PLANE_ANGLE_UNIT ( ) SI_UNIT ( $, .RADIAN. ) );
#58 = PRESENTATION_LAYER_ASSIGNMENT (  '', '', ( #956 ) ) ;
#59 = EDGE_LOOP ( 'NONE', ( #605, #307, #1052, #330 ) ) ;
#60 = DIRECTION ( 'NONE',  ( 1.000000000000000000, -4.336808689942009847E-16, 0.000000000000000000 ) ) ;
#61 = CARTESIAN_POINT ( 'NONE',  ( -120.5884440580269796, -12.54004607945658378, 12.20307135326852332 ) ) ;
#62 = LINE ( 'NONE', #1108, #865 ) ;
#63 = VERTEX_POINT ( 'NONE', #404 ) ;
#64 = CARTESIAN_POINT ( 'NONE',  ( -120.2000000000000313, -5.000000000000000000, 0.000000000000000000 ) ) ;
#65 = SURFACE_SIDE_STYLE ('',( #938 ) ) ;
#66 = ORIENTED_EDGE ( 'NONE', *, *, #524, .T. ) ;
#67 = CYLINDRICAL_SURFACE ( 'NONE', #390, 1.750000000000001554 ) ;
#68 = CARTESIAN_POINT ( 'NONE',  ( -111.1857864376269447, 15.18578643762692693, 15.00000000000000000 ) ) ;
#69 = CARTESIAN_POINT ( 'NONE',  ( -123.6000000000000227, -15.60000000000001741, 6.516307832886322871 ) ) ;
#70 = VECTOR ( 'NONE', #545, 1000.000000000000000 ) ;
#71 = ORIENTED_EDGE ( 'NONE', *, *, #198, .F. ) ;
#72 = CARTESIAN_POINT ( 'NONE',  ( -111.6000000000000085, 15.59999999999998721, 5.966118216318363920 ) ) ;
#73 = VECTOR ( 'NONE', #125, 1000.000000000000000 ) ;
#74 = EDGE_LOOP ( 'NONE', ( #360, #394, #19, #982 ) ) ;
#75 = FACE_OUTER_BOUND ( 'NONE', #588, .T. ) ;
#76 = DIRECTION ( 'NONE',  ( 1.000000000000000000, -0.000000000000000000, -0.000000000000000000 ) ) ;
#77 = EDGE_CURVE ( 'NONE', #549, #1120, #595, .T. ) ;
#78 = EDGE_CURVE ( 'NONE', #312, #1068, #738, .T. ) ;
#79 = DIRECTION ( 'NONE',  ( 0.000000000000000000, 0.000000000000000000, 1.000000000000000000 ) ) ;
#80 = EDGE_CURVE ( 'NONE', #901, #742, #1018, .T. ) ;
#81 = ORIENTED_EDGE ( 'NONE', *, *, #116, .T. ) ;
#82 = CARTESIAN_POINT ( 'NONE',  ( -123.6000000000000085, 15.59999999999998543, 15.00000000000000000 ) ) ;
#83 = DIRECTION ( 'NONE',  ( -1.000000000000000000, 0.000000000000000000, 0.000000000000000000 ) ) ;
#84 = DIRECTION ( 'NONE',  ( -0.000000000000000000, -0.000000000000000000, -1.000000000000000000 ) ) ;
#85 = ORIENTED_EDGE ( 'NONE', *, *, #1014, .F. ) ;
#86 = CARTESIAN_POINT ( 'NONE',  ( -110.6000000000000369, 5.599999999999987210, 4.999999999999999112 ) ) ;
#87 = ADVANCED_FACE ( 'NONE', ( #1004 ), #750, .F. ) ;
#88 = CARTESIAN_POINT ( 'NONE',  ( -114.6365563708989299, 13.37429290686237771, 11.30148394823106983 ) ) ;
#89 = CARTESIAN_POINT ( 'NONE',  ( -123.6000000000000227, 4.999999999999999112, 0.000000000000000000 ) ) ;
#90 = ORIENTED_EDGE ( 'NONE', *, *, #193, .F. ) ;
#91 = DIRECTION ( 'NONE',  ( -0.7071067811865487940, 0.7071067811865463515, 0.000000000000000000 ) ) ;
#92 = VECTOR ( 'NONE', #1054, 1000.000000000000000 ) ;
#93 = CIRCLE ( 'NONE', #647, 1.750000000000001554 ) ;
#94 = CARTESIAN_POINT ( 'NONE',  ( -115.8500000000000085, 12.84999999999998721, 8.000000000000000000 ) ) ;
#95 = CARTESIAN_POINT ( 'NONE',  ( -115.0384921672553844, 14.42631058870111538, 9.715804932919976267 ) ) ;
#96 = AXIS2_PLACEMENT_3D ( 'NONE', #251, #258, #582 ) ;
#97 = CARTESIAN_POINT ( 'NONE',  ( 0.000000000000000000, 0.000000000000000000, 0.000000000000000000 ) ) ;
#98 = EDGE_LOOP ( 'NONE', ( #134, #248, #945 ) ) ;
#99 = FACE_OUTER_BOUND ( 'NONE', #281, .T. ) ;
#100 = EDGE_CURVE ( 'NONE', #1104, #733, #1097, .T. ) ;
#101 = CARTESIAN_POINT ( 'NONE',  ( -110.8988438511114367, -14.82993603084466727, 8.857500908161998865 ) ) ;
#102 = VERTEX_POINT ( 'NONE', #830 ) ;
#103 = CARTESIAN_POINT ( 'NONE',  ( -115.8500000000000085, -12.85000000000001563, 15.00000000000000000 ) ) ;
#104 = ORIENTED_EDGE ( 'NONE', *, *, #1127, .F. ) ;
#105 = CARTESIAN_POINT ( 'NONE',  ( -117.6000000000000085, -12.85000000000001563, 15.00000000000000000 ) ) ;
#106 = CARTESIAN_POINT ( 'NONE',  ( -111.1097590536648596, -15.10975905366489158, 8.104147400432895054 ) ) ;
#107 = EDGE_LOOP ( 'NONE', ( #484, #1049, #814, #810, #625, #381, #638, #369, #254, #1001, #1099, #1080, #736, #104, #51, #789, #143, #21, #768, #855, #533, #645 ) ) ;
#108 = CARTESIAN_POINT ( 'NONE',  ( -114.6115559419730943, 12.54004607945655536, 12.20307135326852510 ) ) ;
#109 = EDGE_CURVE ( 'NONE', #612, #1034, #824, .T. ) ;
#110 = ORIENTED_EDGE ( 'NONE', *, *, #1065, .T. ) ;
#111 = FACE_OUTER_BOUND ( 'NONE', #365, .T. ) ;
#112 = VECTOR ( 'NONE', #1129, 1000.000000000000000 ) ;
#113 = VECTOR ( 'NONE', #252, 1000.000000000000000 ) ;
#114 = EDGE_CURVE ( 'NONE', #845, #683, #397, .T. ) ;
#115 = EDGE_CURVE ( 'NONE', #1060, #965, #165, .T. ) ;
#116 = EDGE_CURVE ( 'NONE', #675, #572, #1008, .T. ) ;
#117 = ORIENTED_EDGE ( 'NONE', *, *, #700, .T. ) ;
#118 = FACE_OUTER_BOUND ( 'NONE', #520, .T. ) ;
#119 = ORIENTED_EDGE ( 'NONE', *, *, #562, .T. ) ;
#120 = DIRECTION ( 'NONE',  ( 0.000000000000000000, 0.000000000000000000, -1.000000000000000000 ) ) ;
#121 = DIRECTION ( 'NONE',  ( 1.000000000000000000, -0.000000000000000000, -0.000000000000000000 ) ) ;
#122 = ORIENTED_EDGE ( 'NONE', *, *, #230, .T. ) ;
#123 = CARTESIAN_POINT ( 'NONE',  ( -120.0122278980006740, 11.05490453898578984, 13.38314561590998863 ) ) ;
#124 = ORIENTED_EDGE ( 'NONE', *, *, #909, .F. ) ;
#125 = DIRECTION ( 'NONE',  ( 0.000000000000000000, 1.000000000000000000, 0.000000000000000000 ) ) ;
#126 = CARTESIAN_POINT ( 'NONE',  ( -120.0591561456635787, 14.62104686173640289, 9.380758759124997681 ) ) ;
#127 = ORIENTED_EDGE ( 'NONE', *, *, #48, .T. ) ;
#128 = CARTESIAN_POINT ( 'NONE',  ( -111.5999999999999943, -15.60000000000001563, 15.00000000000000000 ) ) ;
#129 = ORIENTED_EDGE ( 'NONE', *, *, #488, .F. ) ;
#130 = FACE_BOUND ( 'NONE', #477, .T. ) ;
#131 = CIRCLE ( 'NONE', #933, 1.750000000000001554 ) ;
#132 = VECTOR ( 'NONE', #449, 1000.000000000000000 ) ;
#133 = FACE_BOUND ( 'NONE', #168, .T. ) ;
#134 = ORIENTED_EDGE ( 'NONE', *, *, #315, .T. ) ;
#135 = DIRECTION ( 'NONE',  ( -0.000000000000000000, -0.000000000000000000, -1.000000000000000000 ) ) ;
#136 = PRODUCT_DEFINITION ( 'UNKNOWN', '', #463, #766 ) ;
#137 = DIRECTION ( 'NONE',  ( -1.000000000000000000, 0.000000000000000000, 0.000000000000000000 ) ) ;
#138 = FILL_AREA_STYLE_COLOUR ( '', #443 ) ;
#139 = ADVANCED_FACE ( 'NONE', ( #1033 ), #603, .F. ) ;
#140 = ORIENTED_EDGE ( 'NONE', *, *, #618, .T. ) ;
#141 = CARTESIAN_POINT ( 'NONE',  ( -123.6000000000000227, -4.999999999999999112, 0.000000000000000000 ) ) ;
#142 = CARTESIAN_POINT ( 'NONE',  ( -117.6000000000000085, -12.85000000000001563, 15.00000000000000000 ) ) ;
#143 = ORIENTED_EDGE ( 'NONE', *, *, #635, .T. ) ;
#144 = EDGE_CURVE ( 'NONE', #939, #29, #1124, .T. ) ;
#145 = CARTESIAN_POINT ( 'NONE',  ( -120.2000000000000313, 0.000000000000000000, 0.000000000000000000 ) ) ;
#146 = CARTESIAN_POINT ( 'NONE',  ( -120.1217209333574090, -11.21382214049241455, 13.27805817163302926 ) ) ;
#147 = AXIS2_PLACEMENT_3D ( 'NONE', #247, #1009, #687 ) ;
#148 = AXIS2_PLACEMENT_3D ( 'NONE', #1100, #930, #224 ) ;
#149 = ADVANCED_FACE ( 'NONE', ( #431 ), #363, .F. ) ;
#150 = FACE_OUTER_BOUND ( 'NONE', #243, .T. ) ;
#151 = CIRCLE ( 'NONE', #336, 3.000000000000002665 ) ;
#152 = EDGE_LOOP ( 'NONE', ( #648, #949, #1031, #262, #321, #632 ) ) ;
#153 = AXIS2_PLACEMENT_3D ( 'NONE', #546, #785, #874 ) ;
#154 = FACE_OUTER_BOUND ( 'NONE', #341, .T. ) ;
#155 = PRODUCT_DEFINITION_SHAPE ( 'NONE', 'NONE',  #136 ) ;
#156 =( LENGTH_UNIT ( ) NAMED_UNIT ( * ) SI_UNIT ( .MILLI., .METRE. ) );
#157 = ORIENTED_EDGE ( 'NONE', *, *, #198, .T. ) ;
#158 = CARTESIAN_POINT ( 'NONE',  ( -119.3500000000000085, -12.85000000000001563, 8.000000000000000000 ) ) ;
#159 = CARTESIAN_POINT ( 'NONE',  ( -120.6000000000000085, -12.85000000000001563, 11.88748865697795232 ) ) ;
#160 = UNCERTAINTY_MEASURE_WITH_UNIT (LENGTH_MEASURE( 1.000000000000000082E-05 ), #156, 'distance_accuracy_value', 'NONE');
#161 = DIRECTION ( 'NONE',  ( -0.000000000000000000, -0.000000000000000000, -1.000000000000000000 ) ) ;
#162 = CARTESIAN_POINT ( 'NONE',  ( -112.6000000000000369, 13.77157287525382934, 0.000000000000000000 ) ) ;
#163 = ORIENTED_EDGE ( 'NONE', *, *, #400, .T. ) ;
#164 = DIRECTION ( 'NONE',  ( -0.000000000000000000, -0.000000000000000000, -1.000000000000000000 ) ) ;
#165 = LINE ( 'NONE', #310, #333 ) ;
#166 = FACE_OUTER_BOUND ( 'NONE', #152, .T. ) ;
#167 = VECTOR ( 'NONE', #12, 1000.000000000000000 ) ;
#168 = EDGE_LOOP ( 'NONE', ( #799, #3 ) ) ;
#169 = PLANE ( 'NONE',  #206 ) ;
#170 = EDGE_LOOP ( 'NONE', ( #354, #475, #203, #597 ) ) ;
#171 = DIRECTION ( 'NONE',  ( -1.000000000000000000, 0.000000000000000000, 0.000000000000000000 ) ) ;
#172 = CARTESIAN_POINT ( 'NONE',  ( -114.6000000000000085, -12.85000000000001563, 11.88748865697795409 ) ) ;
#173 =( NAMED_UNIT ( * ) SI_UNIT ( $, .STERADIAN. ) SOLID_ANGLE_UNIT ( ) );
#174 = VERTEX_POINT ( 'NONE', #280 ) ;
#175 = DIRECTION ( 'NONE',  ( 0.000000000000000000, 3.556183125752454544E-15, 1.000000000000000000 ) ) ;
#176 = EDGE_CURVE ( 'NONE', #907, #1093, #823, .T. ) ;
#177 = CARTESIAN_POINT ( 'NONE',  ( -123.6000000000000227, -4.999999999999999112, 0.000000000000000000 ) ) ;
#178 = CARTESIAN_POINT ( 'NONE',  ( -111.1857864376269447, 15.18578643762692870, 7.848279897097083513 ) ) ;
#179 = ORIENTED_EDGE ( 'NONE', *, *, #351, .T. ) ;
#180 = DIRECTION ( 'NONE',  ( 0.000000000000000000, 0.000000000000000000, -1.000000000000000000 ) ) ;
#181 = CARTESIAN_POINT ( 'NONE',  ( -123.6000000000000085, 15.59999999999998543, 4.999999999999999112 ) ) ;
#182 = CARTESIAN_POINT ( 'NONE',  ( -123.6000000000000227, 0.000000000000000000, 0.000000000000000000 ) ) ;
#183 = ORIENTED_EDGE ( 'NONE', *, *, #115, .T. ) ;
#184 = LINE ( 'NONE', #529, #353 ) ;
#185 = VECTOR ( 'NONE', #999, 1000.000000000000000 ) ;
#186 = CARTESIAN_POINT ( 'NONE',  ( -111.6000000000000085, 15.59999999999998543, 4.999999999999999112 ) ) ;
#187 = DIRECTION ( 'NONE',  ( 1.000000000000000000, -0.000000000000000000, -0.000000000000000000 ) ) ;
#188 = VERTEX_POINT ( 'NONE', #622 ) ;
#189 = LINE ( 'NONE', #795, #993 ) ;
#190 = ORIENTED_EDGE ( 'NONE', *, *, #380, .F. ) ;
#191 = CARTESIAN_POINT ( 'NONE',  ( -124.5999999999999943, -14.60000000000004050, 15.00000000000000000 ) ) ;
#192 = CARTESIAN_POINT ( 'NONE',  ( -114.6000000000000085, 12.84999999999998721, 11.88748865697795587 ) ) ;
#193 = EDGE_CURVE ( 'NONE', #608, #29, #711, .T. ) ;
#194 = ORIENTED_EDGE ( 'NONE', *, *, #517, .F. ) ;
#195 = PLANE ( 'NONE',  #848 ) ;
#196 = ORIENTED_EDGE ( 'NONE', *, *, #27, .T. ) ;
#197 = CARTESIAN_POINT ( 'NONE',  ( -117.6000000000000085, -12.85000000000001563, 15.00000000000000000 ) ) ;
#198 = EDGE_CURVE ( 'NONE', #460, #628, #853, .T. ) ;
#199 = DIRECTION ( 'NONE',  ( -0.000000000000000000, -0.000000000000000000, -1.000000000000000000 ) ) ;
#200 = EDGE_CURVE ( 'NONE', #188, #907, #266, .T. ) ;
#201 = ORIENTED_EDGE ( 'NONE', *, *, #1102, .F. ) ;
#202 = CARTESIAN_POINT ( 'NONE',  ( -117.6000000000000085, -12.85000000000001563, 8.000000000000000000 ) ) ;
#203 = ORIENTED_EDGE ( 'NONE', *, *, #283, .T. ) ;
#204 = CARTESIAN_POINT ( 'NONE',  ( -114.6000000000000085, -12.85000000000001563, 8.000000000000000000 ) ) ;
#205 = CIRCLE ( 'NONE', #770, 10.00000000000000000 ) ;
#206 = AXIS2_PLACEMENT_3D ( 'NONE', #784, #695, #540 ) ;
#207 = AXIS2_PLACEMENT_3D ( 'NONE', #762, #583, #850 ) ;
#208 = ORIENTED_EDGE ( 'NONE', *, *, #322, .T. ) ;
#209 = DIRECTION ( 'NONE',  ( -0.000000000000000000, -0.000000000000000000, 1.000000000000000000 ) ) ;
#210 = ORIENTED_EDGE ( 'NONE', *, *, #587, .T. ) ;
#211 = CARTESIAN_POINT ( 'NONE',  ( -117.6000000000000085, -12.85000000000001563, 8.000000000000000000 ) ) ;
#212 = CARTESIAN_POINT ( 'NONE',  ( -120.5638041094695581, 13.37292957203145605, 11.30331242362009547 ) ) ;
#213 = ORIENTED_EDGE ( 'NONE', *, *, #78, .F. ) ;
#214 = CARTESIAN_POINT ( 'NONE',  ( -115.0782790666426223, 11.21382214049238435, 13.27805817163302926 ) ) ;
#215 = ORIENTED_EDGE ( 'NONE', *, *, #958, .T. ) ;
#216 = DIRECTION ( 'NONE',  ( -0.000000000000000000, -0.000000000000000000, -1.000000000000000000 ) ) ;
#217 = CARTESIAN_POINT ( 'NONE',  ( -117.6000000000000085, 12.84999999999998721, 0.000000000000000000 ) ) ;
#218 = CARTESIAN_POINT ( 'NONE',  ( -114.7036477604962954, 12.04839338347414390, 12.64622173751714129 ) ) ;
#219 = ORIENTED_EDGE ( 'NONE', *, *, #434, .F. ) ;
#220 = CYLINDRICAL_SURFACE ( 'NONE', #480, 3.000000000000002665 ) ;
#221 = VECTOR ( 'NONE', #709, 1000.000000000000000 ) ;
#222 = CARTESIAN_POINT ( 'NONE',  ( -123.9390567389149425, -15.26094326108510124, 7.994221893942921042 ) ) ;
#223 = ORIENTED_EDGE ( 'NONE', *, *, #176, .F. ) ;
#224 = DIRECTION ( 'NONE',  ( 0.000000000000000000, -1.000000000000000000, 0.000000000000000000 ) ) ;
#225 = CARTESIAN_POINT ( 'NONE',  ( -117.3727650082167884, -9.850395707337895601, 14.05174770514925875 ) ) ;
#226 = EDGE_CURVE ( 'NONE', #378, #441, #450, .T. ) ;
#227 = CARTESIAN_POINT ( 'NONE',  ( -115.8500000000000085, 12.84999999999998721, 15.00000000000000000 ) ) ;
#228 = ORIENTED_EDGE ( 'NONE', *, *, #594, .F. ) ;
#229 = CARTESIAN_POINT ( 'NONE',  ( -117.6000000000000085, -12.85000000000001563, 0.000000000000000000 ) ) ;
#230 = EDGE_CURVE ( 'NONE', #601, #1023, #615, .T. ) ;
#231 = CARTESIAN_POINT ( 'NONE',  ( -120.0091179126042817, -11.05098084875887032, 13.38565102923895900 ) ) ;
#232 = EDGE_CURVE ( 'NONE', #29, #970, #707, .T. ) ;
#233 = B_SPLINE_CURVE_WITH_KNOTS ( 'NONE', 3,
 ( #178, #364, #439, #447, #779, #509, #537, #532 ),
 .UNSPECIFIED., .F., .F.,
 ( 4, 2, 2, 4 ),
 ( 0.000000000000000000, 0.001649346058815073356, 0.002474019088222614154, 0.003298692117630154953 ),
 .UNSPECIFIED. ) ;
#234 = DIRECTION ( 'NONE',  ( -0.000000000000000000, -0.000000000000000000, -1.000000000000000000 ) ) ;
#235 = ORIENTED_EDGE ( 'NONE', *, *, #80, .F. ) ;
#236 = DIRECTION ( 'NONE',  ( 0.7071067811865504593, 0.7071067811865445751, 0.000000000000000000 ) ) ;
#237 = CARTESIAN_POINT ( 'NONE',  ( -115.0000000000000284, 0.000000000000000000, 0.000000000000000000 ) ) ;
#238 = AXIS2_PLACEMENT_3D ( 'NONE', #237, #332, #507 ) ;
#239 = VECTOR ( 'NONE', #236, 1000.000000000000000 ) ;
#240 = DIRECTION ( 'NONE',  ( 1.000000000000000000, 0.000000000000000000, -0.000000000000000000 ) ) ;
#241 = CIRCLE ( 'NONE', #558, 3.000000000000002665 ) ;
#242 = EDGE_CURVE ( 'NONE', #797, #312, #986, .T. ) ;
#243 = EDGE_LOOP ( 'NONE', ( #820, #196 ) ) ;
#244 = AXIS2_PLACEMENT_3D ( 'NONE', #656, #523, #38 ) ;
#245 = CARTESIAN_POINT ( 'NONE',  ( -124.5999999999999943, 14.60000000000001030, 15.00000000000000000 ) ) ;
#246 = CARTESIAN_POINT ( 'NONE',  ( -116.1162345245992498, -10.23355618379530441, 13.86234368141023054 ) ) ;
#247 = CARTESIAN_POINT ( 'NONE',  ( -117.6000000000000085, -12.85000000000001563, 8.000000000000000000 ) ) ;
#248 = ORIENTED_EDGE ( 'NONE', *, *, #242, .T. ) ;
#249 = DIRECTION ( 'NONE',  ( 4.336808689942009847E-16, 1.000000000000000000, -0.000000000000000000 ) ) ;
#250 = CARTESIAN_POINT ( 'NONE',  ( -119.2617687720570387, -10.34339634710059386, 13.80465212213953308 ) ) ;
#251 = CARTESIAN_POINT ( 'NONE',  ( -123.6000000000000227, 0.000000000000000000, 0.000000000000000000 ) ) ;
#252 = DIRECTION ( 'NONE',  ( -1.000000000000000000, 0.000000000000000000, 0.000000000000000000 ) ) ;
#253 = ADVANCED_FACE ( 'NONE', ( #368 ), #287, .F. ) ;
#254 = ORIENTED_EDGE ( 'NONE', *, *, #804, .F. ) ;
#255 = CARTESIAN_POINT ( 'NONE',  ( -123.6000000000000085, -15.60000000000001030, 4.999999999999999112 ) ) ;
#256 = ORIENTED_EDGE ( 'NONE', *, *, #488, .T. ) ;
#257 = CARTESIAN_POINT ( 'NONE',  ( -114.6000000000000085, 12.84999999999998721, 8.000000000000000000 ) ) ;
#258 = DIRECTION ( 'NONE',  ( 1.000000000000000000, 0.000000000000000000, 0.000000000000000000 ) ) ;
#259 = EDGE_CURVE ( 'NONE', #907, #612, #801, .T. ) ;
#260 =( NAMED_UNIT ( * ) PLANE_ANGLE_UNIT ( ) SI_UNIT ( $, .RADIAN. ) );
#261 = VECTOR ( 'NONE', #216, 1000.000000000000000 ) ;
#262 = ORIENTED_EDGE ( 'NONE', *, *, #594, .T. ) ;
#263 = CARTESIAN_POINT ( 'NONE',  ( -110.6000000000000369, 4.999999999999984013, 0.000000000000000000 ) ) ;
#264 = AXIS2_PLACEMENT_3D ( 'NONE', #142, #836, #1025 ) ;
#265 = DIRECTION ( 'NONE',  ( 1.000000000000000000, -4.336808689942009847E-16, 0.000000000000000000 ) ) ;
#266 = B_SPLINE_CURVE_WITH_KNOTS ( 'NONE', 3,
 ( #267, #1, #698, #619, #101, #437, #106, #796 ),
 .UNSPECIFIED., .F., .F.,
 ( 4, 2, 2, 4 ),
 ( 0.000000000000000000, 0.001650434506732727496, 0.002475651760099083654, 0.003300869013465440246 ),
 .UNSPECIFIED. ) ;
#267 = CARTESIAN_POINT ( 'NONE',  ( -110.6000000000000369, -13.77157287525386486, 10.76414752972332955 ) ) ;
#268 = ORIENTED_EDGE ( 'NONE', *, *, #840, .T. ) ;
#269 = DIRECTION ( 'NONE',  ( 0.7071067811865463515, 0.7071067811865487940, -0.000000000000000000 ) ) ;
#270 = CARTESIAN_POINT ( 'NONE',  ( -111.5999999999999943, -15.60000000000001741, 5.966118216318350598 ) ) ;
#271 = ORIENTED_EDGE ( 'NONE', *, *, #403, .F. ) ;
#272 = CARTESIAN_POINT ( 'NONE',  ( -124.5999999999999943, -14.60000000000004050, 15.00000000000000000 ) ) ;
#273 = CARTESIAN_POINT ( 'NONE',  ( -120.6000000000000085, 12.84999999999998721, 8.000000000000000000 ) ) ;
#274 = ORIENTED_EDGE ( 'NONE', *, *, #944, .F. ) ;
#275 = CARTESIAN_POINT ( 'NONE',  ( -120.0460904052798981, -14.59765053797843315, 9.379572180141680704 ) ) ;
#276 = VECTOR ( 'NONE', #777, 1000.000000000000000 ) ;
#277 = VECTOR ( 'NONE', #60, 1000.000000000000000 ) ;
#278 = CARTESIAN_POINT ( 'NONE',  ( -123.9390567389149282, 15.26094326108506749, 7.994221893942939694 ) ) ;
#279 =( GEOMETRIC_REPRESENTATION_CONTEXT ( 3 ) GLOBAL_UNCERTAINTY_ASSIGNED_CONTEXT ( ( #160 ) ) GLOBAL_UNIT_ASSIGNED_CONTEXT ( ( #156, #57, #674 ) ) REPRESENTATION_CONTEXT ( 'NONE', 'WORKASPACE' ) );
#280 = CARTESIAN_POINT ( 'NONE',  ( -111.1857864376269447, 15.18578643762692870, 0.000000000000000000 ) ) ;
#281 = EDGE_LOOP ( 'NONE', ( #688, #140, #163, #528 ) ) ;
#282 = CARTESIAN_POINT ( 'NONE',  ( -120.6000000000000227, 12.54265879883407564, 12.21100624363783993 ) ) ;
#283 = EDGE_CURVE ( 'NONE', #547, #892, #1113, .T. ) ;
#284 = EDGE_LOOP ( 'NONE', ( #559, #129 ) ) ;
#285 = CYLINDRICAL_SURFACE ( 'NONE', #786, 3.000000000000002665 ) ;
#286 = EDGE_CURVE ( 'NONE', #780, #892, #6, .T. ) ;
#287 = CYLINDRICAL_SURFACE ( 'NONE', #153, 3.000000000000002665 ) ;
#288 = ORIENTED_EDGE ( 'NONE', *, *, #315, .F. ) ;
#289 = FACE_OUTER_BOUND ( 'NONE', #899, .T. ) ;
#290 = ORIENTED_EDGE ( 'NONE', *, *, #987, .T. ) ;
#291 = CARTESIAN_POINT ( 'NONE',  ( -115.0000000000000284, -13.77157287525386486, 0.000000000000000000 ) ) ;
#292 = FACE_OUTER_BOUND ( 'NONE', #866, .T. ) ;
#293 = EDGE_CURVE ( 'NONE', #1120, #572, #359, .T. ) ;
#294 = ORIENTED_EDGE ( 'NONE', *, *, #77, .F. ) ;
#295 = DIRECTION ( 'NONE',  ( -0.000000000000000000, -0.000000000000000000, -1.000000000000000000 ) ) ;
#296 = ORIENTED_EDGE ( 'NONE', *, *, #868, .T. ) ;
#297 = CARTESIAN_POINT ( 'NONE',  ( -111.6000000000000085, 15.59999999999998543, 15.00000000000000000 ) ) ;
#298 = AXIS2_PLACEMENT_3D ( 'NONE', #31, #121, #581 ) ;
#299 = CIRCLE ( 'NONE', #936, 1.750000000000001554 ) ;
#300 = AXIS2_PLACEMENT_3D ( 'NONE', #719, #1047, #634 ) ;
#301 = VERTEX_POINT ( 'NONE', #968 ) ;
#302 = CARTESIAN_POINT ( 'NONE',  ( -117.1576962864374138, 9.874549434241103540, 14.04052674075823148 ) ) ;
#303 = EDGE_LOOP ( 'NONE', ( #977, #832, #1114, #584 ) ) ;
#304 = CARTESIAN_POINT ( 'NONE',  ( -110.6000000000000369, 0.000000000000000000, 0.000000000000000000 ) ) ;
#305 = CARTESIAN_POINT ( 'NONE',  ( -124.5999999999999943, -14.60000000000003695, 9.358898943540618021 ) ) ;
#306 = LINE ( 'NONE', #555, #827 ) ;
#307 = ORIENTED_EDGE ( 'NONE', *, *, #23, .F. ) ;
#308 = CARTESIAN_POINT ( 'NONE',  ( -115.8500000000000085, -12.85000000000001563, 0.000000000000000000 ) ) ;
#309 = DIRECTION ( 'NONE',  ( -1.000000000000000000, -0.000000000000000000, 0.000000000000000000 ) ) ;
#310 = CARTESIAN_POINT ( 'NONE',  ( -119.3500000000000085, 12.84999999999998721, 15.00000000000000000 ) ) ;
#311 = CYLINDRICAL_SURFACE ( 'NONE', #264, 3.000000000000002665 ) ;
#312 = VERTEX_POINT ( 'NONE', #273 ) ;
#313 = PLANE ( 'NONE',  #56 ) ;
#314 = CARTESIAN_POINT ( 'NONE',  ( -114.5999999999999943, -12.54265879883410584, 12.21100624363783993 ) ) ;
#315 = EDGE_CURVE ( 'NONE', #1068, #797, #889, .T. ) ;
#316 = AXIS2_PLACEMENT_3D ( 'NONE', #82, #534, #435 ) ;
#317 = CIRCLE ( 'NONE', #1116, 10.00000000000000000 ) ;
#318 = VECTOR ( 'NONE', #295, 1000.000000000000000 ) ;
#319 = DIRECTION ( 'NONE',  ( 0.000000000000000000, 0.000000000000000000, 1.000000000000000000 ) ) ;
#320 = CARTESIAN_POINT ( 'NONE',  ( -119.3500000000000085, 12.84999999999998721, 8.000000000000000000 ) ) ;
#321 = ORIENTED_EDGE ( 'NONE', *, *, #723, .T. ) ;
#322 = EDGE_CURVE ( 'NONE', #301, #188, #479, .T. ) ;
#323 = LINE ( 'NONE', #141, #713 ) ;
#324 = EDGE_CURVE ( 'NONE', #301, #399, #474, .T. ) ;
#325 = ADVANCED_FACE ( 'NONE', ( #292 ), #569, .F. ) ;
#326 = FILL_AREA_STYLE ('',( #138 ) ) ;
#327 = VERTEX_POINT ( 'NONE', #822 ) ;
#328 = PLANE ( 'NONE',  #699 ) ;
#329 = DIRECTION ( 'NONE',  ( -0.000000000000000000, -0.000000000000000000, -1.000000000000000000 ) ) ;
#330 = ORIENTED_EDGE ( 'NONE', *, *, #782, .F. ) ;
#331 = DIRECTION ( 'NONE',  ( -0.000000000000000000, -0.000000000000000000, -1.000000000000000000 ) ) ;
#332 = DIRECTION ( 'NONE',  ( 1.000000000000000000, 0.000000000000000000, 0.000000000000000000 ) ) ;
#333 = VECTOR ( 'NONE', #600, 1000.000000000000000 ) ;
#334 = AXIS2_PLACEMENT_3D ( 'NONE', #428, #626, #180 ) ;
#335 = CARTESIAN_POINT ( 'NONE',  ( -111.5999999999999943, -15.60000000000001563, 4.999999999999999112 ) ) ;
#336 = AXIS2_PLACEMENT_3D ( 'NONE', #798, #471, #813 ) ;
#337 = ORIENTED_EDGE ( 'NONE', *, *, #922, .F. ) ;
#338 = DIRECTION ( 'NONE',  ( 0.000000000000000000, -1.000000000000000000, 0.000000000000000000 ) ) ;
#339 = APPLICATION_CONTEXT ( 'automotive_design' ) ;
#340 = FACE_OUTER_BOUND ( 'NONE', #1126, .T. ) ;
#341 = EDGE_LOOP ( 'NONE', ( #235, #349, #223, #452, #794, #912, #542 ) ) ;
#342 = CARTESIAN_POINT ( 'NONE',  ( -119.3500000000000085, -12.85000000000001563, 0.000000000000000000 ) ) ;
#343 = LINE ( 'NONE', #191, #70 ) ;
#344 = EDGE_CURVE ( 'NONE', #628, #457, #732, .T. ) ;
#345 = CARTESIAN_POINT ( 'NONE',  ( -111.6000000000000085, 15.59999999999998543, 0.000000000000000000 ) ) ;
#346 = DIRECTION ( 'NONE',  ( 1.000000000000000000, 0.000000000000000000, 0.000000000000000000 ) ) ;
#347 = ORIENTED_EDGE ( 'NONE', *, *, #562, .F. ) ;
#348 = CARTESIAN_POINT ( 'NONE',  ( -124.5999999999999943, -14.60000000000004050, 0.000000000000000000 ) ) ;
#349 = ORIENTED_EDGE ( 'NONE', *, *, #902, .F. ) ;
#350 = CARTESIAN_POINT ( 'NONE',  ( -123.6000000000000085, 15.59999999999998543, 0.000000000000000000 ) ) ;
#351 = EDGE_CURVE ( 'NONE', #729, #549, #486, .T. ) ;
#352 = CARTESIAN_POINT ( 'NONE',  ( -114.6000000000000085, -12.85000000000001563, 11.88748865697795409 ) ) ;
#353 = VECTOR ( 'NONE', #950, 1000.000000000000000 ) ;
#354 = ORIENTED_EDGE ( 'NONE', *, *, #1042, .T. ) ;
#355 = CYLINDRICAL_SURFACE ( 'NONE', #334, 10.00000000000000000 ) ;
#356 = EDGE_CURVE ( 'NONE', #742, #1023, #205, .T. ) ;
#357 = CARTESIAN_POINT ( 'NONE',  ( -110.6000000000000369, -5.000000000000000000, 0.000000000000000000 ) ) ;
#358 = EDGE_CURVE ( 'NONE', #63, #25, #834, .T. ) ;
#359 = LINE ( 'NONE', #704, #92 ) ;
#360 = ORIENTED_EDGE ( 'NONE', *, *, #226, .F. ) ;
#361 = DIRECTION ( 'NONE',  ( -0.000000000000000000, -0.000000000000000000, -1.000000000000000000 ) ) ;
#362 = CARTESIAN_POINT ( 'NONE',  ( -124.5999999999999943, 14.60000000000001030, 9.358898943540639337 ) ) ;
#363 = CYLINDRICAL_SURFACE ( 'NONE', #16, 5.000000000000000000 ) ;
#364 = CARTESIAN_POINT ( 'NONE',  ( -111.0336921390061917, 15.03369213900617218, 8.360147942946491995 ) ) ;
#365 = EDGE_LOOP ( 'NONE', ( #510, #213, #1062, #979 ) ) ;
#366 = CARTESIAN_POINT ( 'NONE',  ( -120.6000000000000085, -12.85000000000001563, 11.88748865697795232 ) ) ;
#367 = CARTESIAN_POINT ( 'NONE',  ( -123.6000000000000085, -15.60000000000001030, 0.000000000000000000 ) ) ;
#368 = FACE_OUTER_BOUND ( 'NONE', #1072, .T. ) ;
#369 = ORIENTED_EDGE ( 'NONE', *, *, #455, .F. ) ;
#370 = CARTESIAN_POINT ( 'NONE',  ( -118.0508997158262758, 9.875762733958278972, 14.03995918526421249 ) ) ;
#371 = AXIS2_PLACEMENT_3D ( 'NONE', #835, #161, #575 ) ;
#372 = CIRCLE ( 'NONE', #975, 10.09999999999999964 ) ;
#373 = ORIENTED_EDGE ( 'NONE', *, *, #80, .T. ) ;
#374 = CARTESIAN_POINT ( 'NONE',  ( -120.2000000000000313, 5.000000000000000000, 0.000000000000000000 ) ) ;
#375 = CARTESIAN_POINT ( 'NONE',  ( -111.1857864376269447, -15.18578643762697133, 15.00000000000000000 ) ) ;
#376 = ORIENTED_EDGE ( 'NONE', *, *, #891, .T. ) ;
#377 = CARTESIAN_POINT ( 'NONE',  ( -111.6000000000000085, 15.59999999999998543, 4.999999999999999112 ) ) ;
#378 = VERTEX_POINT ( 'NONE', #402 ) ;
#379 = DIRECTION ( 'NONE',  ( 0.000000000000000000, 0.000000000000000000, -1.000000000000000000 ) ) ;
#380 = EDGE_CURVE ( 'NONE', #1120, #412, #522, .T. ) ;
#381 = ORIENTED_EDGE ( 'NONE', *, *, #109, .F. ) ;
#382 = CARTESIAN_POINT ( 'NONE',  ( -119.3500000000000085, 12.84999999999998721, 0.000000000000000000 ) ) ;
#383 = ORIENTED_EDGE ( 'NONE', *, *, #259, .F. ) ;
#384 = DIRECTION ( 'NONE',  ( 1.000000000000000000, 0.000000000000000000, 0.000000000000000000 ) ) ;
#385 = EDGE_LOOP ( 'NONE', ( #288, #40, #71, #407 ) ) ;
#386 = CARTESIAN_POINT ( 'NONE',  ( -117.3833363496277968, 9.849613605440920239, 14.05211491260922863 ) ) ;
#387 = EDGE_LOOP ( 'NONE', ( #90, #759, #119, #554 ) ) ;
#388 = CARTESIAN_POINT ( 'NONE',  ( -115.0000000000000284, -13.77157287525386486, 0.000000000000000000 ) ) ;
#389 = AXIS2_PLACEMENT_3D ( 'NONE', #1037, #669, #1091 ) ;
#390 = AXIS2_PLACEMENT_3D ( 'NONE', #946, #164, #861 ) ;
#391 = CIRCLE ( 'NONE', #809, 1.750000000000001554 ) ;
#392 = DIRECTION ( 'NONE',  ( 0.000000000000000000, 1.000000000000000000, 0.000000000000000000 ) ) ;
#393 = DIRECTION ( 'NONE',  ( 0.000000000000000000, 0.000000000000000000, 1.000000000000000000 ) ) ;
#394 = ORIENTED_EDGE ( 'NONE', *, *, #526, .T. ) ;
#395 = CARTESIAN_POINT ( 'NONE',  ( -120.2000000000000313, 0.000000000000000000, 0.000000000000000000 ) ) ;
#396 =( BOUNDED_CURVE ( )  B_SPLINE_CURVE ( 3, ( #362, #278, #967, #181 ),
 .UNSPECIFIED., .F., .F. ) 
 B_SPLINE_CURVE_WITH_KNOTS ( ( 4, 4 ),
 ( 5.832158495383327868, 6.283185307179586232 ),
 .UNSPECIFIED. ) 
 CURVE ( )  GEOMETRIC_REPRESENTATION_ITEM ( )  RATIONAL_B_SPLINE_CURVE ( ( 1.000000000000000000, 0.9831196229872645187, 0.9831196229872645187, 1.000000000000000000 ) ) 
 REPRESENTATION_ITEM ( '' )  );
#397 = LINE ( 'NONE', #1016, #444 ) ;
#398 = LINE ( 'NONE', #757, #500 ) ;
#399 = VERTEX_POINT ( 'NONE', #1107 ) ;
#400 = EDGE_CURVE ( 'NONE', #472, #327, #677, .T. ) ;
#401 = CARTESIAN_POINT ( 'NONE',  ( -110.6000000000000369, 4.999999999999984013, 0.000000000000000000 ) ) ;
#402 = CARTESIAN_POINT ( 'NONE',  ( -115.0000000000000284, -5.000000000000000000, 0.000000000000000000 ) ) ;
#403 = EDGE_CURVE ( 'NONE', #7, #102, #553, .T. ) ;
#404 = CARTESIAN_POINT ( 'NONE',  ( -110.6000000000000369, 5.000000000000000000, 0.000000000000000000 ) ) ;
#405 = DIRECTION ( 'NONE',  ( -0.000000000000000000, -0.000000000000000000, -1.000000000000000000 ) ) ;
#406 = ADVANCED_FACE ( 'NONE', ( #75 ), #857, .F. ) ;
#407 = ORIENTED_EDGE ( 'NONE', *, *, #987, .F. ) ;
#408 = DIRECTION ( 'NONE',  ( -0.000000000000000000, -0.000000000000000000, -1.000000000000000000 ) ) ;
#409 = VECTOR ( 'NONE', #464, 1000.000000000000000 ) ;
#410 = CIRCLE ( 'NONE', #754, 10.00000000000000000 ) ;
#411 = AXIS2_PLACEMENT_3D ( 'NONE', #1081, #1087, #26 ) ;
#412 = VERTEX_POINT ( 'NONE', #1117 ) ;
#413 = FACE_OUTER_BOUND ( 'NONE', #783, .T. ) ;
#414 = CARTESIAN_POINT ( 'NONE',  ( -120.4963522395037359, -12.04839338347417410, 12.64622173751714129 ) ) ;
#415 = ORIENTED_EDGE ( 'NONE', *, *, #242, .F. ) ;
#416 = DIRECTION ( 'NONE',  ( 0.000000000000000000, 1.000000000000000000, 0.000000000000000000 ) ) ;
#417 = CARTESIAN_POINT ( 'NONE',  ( -119.7478791910416760, -10.74597195739855771, 13.57620592169871188 ) ) ;
#418 = ORIENTED_EDGE ( 'NONE', *, *, #344, .T. ) ;
#419 = PLANE ( 'NONE',  #1010 ) ;
#420 = DIRECTION ( 'NONE',  ( -0.7071067811865445751, -0.7071067811865504593, 0.000000000000000000 ) ) ;
#421 = CARTESIAN_POINT ( 'NONE',  ( -117.6000000000000085, -12.85000000000001563, 15.00000000000000000 ) ) ;
#422 = AXIS2_PLACEMENT_3D ( 'NONE', #272, #269, #91 ) ;
#423 = ORIENTED_EDGE ( 'NONE', *, *, #176, .T. ) ;
#424 = CARTESIAN_POINT ( 'NONE',  ( -120.3598409995810101, -14.04555640029867369, 10.36797465185374456 ) ) ;
#425 = CARTESIAN_POINT ( 'NONE',  ( -116.7157332103948022, -9.974679128645869142, 13.99250752291816191 ) ) ;
#426 = FACE_OUTER_BOUND ( 'NONE', #636, .T. ) ;
#427 = VERTEX_POINT ( 'NONE', #1123 ) ;
#428 = CARTESIAN_POINT ( 'NONE',  ( -112.6000000000000369, 5.599999999999987210, 4.999999999999999112 ) ) ;
#429 = EDGE_CURVE ( 'NONE', #742, #544, #343, .T. ) ;
#430 = CYLINDRICAL_SURFACE ( 'NONE', #538, 1.750000000000001554 ) ;
#431 = FACE_OUTER_BOUND ( 'NONE', #74, .T. ) ;
#432 = ADVANCED_FACE ( 'NONE', ( #961 ), #430, .F. ) ;
#433 = ORIENTED_EDGE ( 'NONE', *, *, #1122, .F. ) ;
#434 = EDGE_CURVE ( 'NONE', #851, #608, #396, .T. ) ;
#435 = DIRECTION ( 'NONE',  ( 0.7071067811865517916, 0.7071067811865432429, 0.000000000000000000 ) ) ;
#436 = CARTESIAN_POINT ( 'NONE',  ( -111.5999999999999943, -15.60000000000001563, 0.000000000000000000 ) ) ;
#437 = CARTESIAN_POINT ( 'NONE',  ( -111.0358421061011995, -15.02356125178437729, 8.356862482113813329 ) ) ;
#438 = AXIS2_PLACEMENT_3D ( 'NONE', #816, #744, #1085 ) ;
#439 = CARTESIAN_POINT ( 'NONE',  ( -110.8910573976186811, 14.84209800257279355, 8.856764412599165581 ) ) ;
#440 = CIRCLE ( 'NONE', #666, 5.000000000000000000 ) ;
#441 = VERTEX_POINT ( 'NONE', #357 ) ;
#442 = CARTESIAN_POINT ( 'NONE',  ( -111.4609639470028242, 15.46096394700281884, 6.922179607584188155 ) ) ;
#443 = COLOUR_RGB ( '',0.7921568627450980005, 0.8196078431372548767, 0.9333333333333333481 ) ;
#444 = VECTOR ( 'NONE', #740, 1000.000000000000000 ) ;
#445 = DIRECTION ( 'NONE',  ( 1.000000000000000000, -0.000000000000000000, -0.000000000000000000 ) ) ;
#446 = CARTESIAN_POINT ( 'NONE',  ( -124.5999999999999943, 14.60000000000001030, 15.00000000000000000 ) ) ;
#447 = CARTESIAN_POINT ( 'NONE',  ( -110.7293084636274472, 14.49069761572508774, 9.585656737219093060 ) ) ;
#448 = ORIENTED_EDGE ( 'NONE', *, *, #27, .F. ) ;
#449 = DIRECTION ( 'NONE',  ( 0.7071067811865487940, -0.7071067811865463515, 0.000000000000000000 ) ) ;
#450 = LINE ( 'NONE', #177, #973 ) ;
#451 = APPLICATION_CONTEXT ( 'automotive_design' ) ;
#452 = ORIENTED_EDGE ( 'NONE', *, *, #200, .F. ) ;
#453 = CARTESIAN_POINT ( 'NONE',  ( -119.7484021211171950, 10.74629387222798371, 13.57605814623870266 ) ) ;
#454 = ORIENTED_EDGE ( 'NONE', *, *, #607, .F. ) ;
#455 = EDGE_CURVE ( 'NONE', #570, #470, #980, .T. ) ;
#456 = DIRECTION ( 'NONE',  ( 1.000000000000000000, -0.000000000000000000, -0.000000000000000000 ) ) ;
#457 = VERTEX_POINT ( 'NONE', #257 ) ;
#458 = CARTESIAN_POINT ( 'NONE',  ( -114.6000000000000512, 12.69739174328649511, 12.04812919176155184 ) ) ;
#459 = CIRCLE ( 'NONE', #951, 5.000000000000000000 ) ;
#460 = VERTEX_POINT ( 'NONE', #703 ) ;
#461 = EDGE_CURVE ( 'NONE', #970, #544, #800, .T. ) ;
#462 = FACE_BOUND ( 'NONE', #284, .T. ) ;
#463 = PRODUCT_DEFINITION_FORMATION_WITH_SPECIFIED_SOURCE ( 'ANY', '', #756, .NOT_KNOWN. ) ;
#464 = DIRECTION ( 'NONE',  ( -1.000000000000000000, 0.000000000000000000, 0.000000000000000000 ) ) ;
#465 = ORIENTED_EDGE ( 'NONE', *, *, #116, .F. ) ;
#466 = DIRECTION ( 'NONE',  ( -0.7071067811865445751, 0.7071067811865504593, 0.000000000000000000 ) ) ;
#467 = EDGE_LOOP ( 'NONE', ( #1066, #806, #215 ) ) ;
#468 = DIRECTION ( 'NONE',  ( -1.000000000000000000, 0.000000000000000000, 0.000000000000000000 ) ) ;
#469 = CARTESIAN_POINT ( 'NONE',  ( -110.6000000000000369, -13.77157287525386486, 15.00000000000000000 ) ) ;
#470 = VERTEX_POINT ( 'NONE', #436 ) ;
#471 = DIRECTION ( 'NONE',  ( 0.000000000000000000, 0.000000000000000000, -1.000000000000000000 ) ) ;
#472 = VERTEX_POINT ( 'NONE', #374 ) ;
#473 = CARTESIAN_POINT ( 'NONE',  ( -111.1857864376269447, 15.18578643762692870, 15.00000000000000000 ) ) ;
#474 = LINE ( 'NONE', #469, #1082 ) ;
#475 = ORIENTED_EDGE ( 'NONE', *, *, #944, .T. ) ;
#476 = LINE ( 'NONE', #103, #318 ) ;
#477 = EDGE_LOOP ( 'NONE', ( #959, #124 ) ) ;
#478 = CARTESIAN_POINT ( 'NONE',  ( -111.1857864376269447, -15.18578643762697133, 0.000000000000000000 ) ) ;
#479 = CIRCLE ( 'NONE', #298, 10.00000000000000000 ) ;
#480 = AXIS2_PLACEMENT_3D ( 'NONE', #737, #135, #485 ) ;
#481 = CARTESIAN_POINT ( 'NONE',  ( -124.5999999999999943, -5.600000000000011191, 4.999999999999999112 ) ) ;
#482 = AXIS2_PLACEMENT_3D ( 'NONE', #162, #964, #346 ) ;
#483 = CARTESIAN_POINT ( 'NONE',  ( -120.2000000000000313, -13.77157287525386486, 0.000000000000000000 ) ) ;
#484 = ORIENTED_EDGE ( 'NONE', *, *, #100, .F. ) ;
#485 = DIRECTION ( 'NONE',  ( -1.000000000000000000, 0.000000000000000000, 0.000000000000000000 ) ) ;
#486 = LINE ( 'NONE', #574, #896 ) ;
#487 = EDGE_CURVE ( 'NONE', #327, #1104, #372, .T. ) ;
#488 = EDGE_CURVE ( 'NONE', #491, #1060, #897, .T. ) ;
#489 = CARTESIAN_POINT ( 'NONE',  ( -123.6000000000000085, -15.60000000000001030, 4.999999999999999112 ) ) ;
#490 = PLANE ( 'NONE',  #207 ) ;
#491 = VERTEX_POINT ( 'NONE', #94 ) ;
#492 = CYLINDRICAL_SURFACE ( 'NONE', #499, 10.09999999999999964 ) ;
#493 = CARTESIAN_POINT ( 'NONE',  ( -120.3081172737896622, -11.54529494326206240, 13.04330244089116242 ) ) ;
#494 = CARTESIAN_POINT ( 'NONE',  ( -112.6000000000000369, -13.77157287525386486, 0.000000000000000000 ) ) ;
#495 = VERTEX_POINT ( 'NONE', #614 ) ;
#496 = LINE ( 'NONE', #511, #277 ) ;
#497 = EDGE_CURVE ( 'NONE', #608, #997, #696, .T. ) ;
#498 = AXIS2_PLACEMENT_3D ( 'NONE', #421, #773, #137 ) ;
#499 = AXIS2_PLACEMENT_3D ( 'NONE', #145, #852, #1013 ) ;
#500 = VECTOR ( 'NONE', #932, 1000.000000000000000 ) ;
#501 = SURFACE_STYLE_USAGE ( .BOTH. , #65 ) ;
#502 = ORIENTED_EDGE ( 'NONE', *, *, #109, .T. ) ;
#503 = CARTESIAN_POINT ( 'NONE',  ( -120.6000000000000085, -12.85000000000001563, 8.000000000000000000 ) ) ;
#504 = CARTESIAN_POINT ( 'NONE',  ( -117.6000000000000085, 12.84999999999998721, 8.000000000000000000 ) ) ;
#505 = ORIENTED_EDGE ( 'NONE', *, *, #618, .F. ) ;
#506 = LINE ( 'NONE', #1032, #805 ) ;
#507 = DIRECTION ( 'NONE',  ( 0.000000000000000000, 0.000000000000000000, -1.000000000000000000 ) ) ;
#508 = CARTESIAN_POINT ( 'NONE',  ( -115.6612673713332384, -15.13939201416947178, 8.000000000000000000 ) ) ;
#509 = CARTESIAN_POINT ( 'NONE',  ( -110.6192341749197254, 14.08326614789505982, 10.30192260499235957 ) ) ;
#510 = ORIENTED_EDGE ( 'NONE', *, *, #564, .T. ) ;
#511 = CARTESIAN_POINT ( 'NONE',  ( -111.5999999999999943, -5.600000000000017408, 15.00000000000000000 ) ) ;
#512 = CARTESIAN_POINT ( 'NONE',  ( -120.6000000000000654, -12.69739174328652531, 12.04812919176155006 ) ) ;
#513 = DIRECTION ( 'NONE',  ( -1.000000000000000000, 0.000000000000000000, 0.000000000000000000 ) ) ;
#514 = VECTOR ( 'NONE', #692, 1000.000000000000000 ) ;
#515 = AXIS2_PLACEMENT_3D ( 'NONE', #1110, #331, #1027 ) ;
#516 = AXIS2_PLACEMENT_3D ( 'NONE', #128, #466, #1073 ) ;
#517 = EDGE_CURVE ( 'NONE', #412, #675, #792, .T. ) ;
#518 = ORIENTED_EDGE ( 'NONE', *, *, #497, .F. ) ;
#519 = DIRECTION ( 'NONE',  ( 1.000000000000000000, -0.000000000000000000, -0.000000000000000000 ) ) ;
#520 = EDGE_LOOP ( 'NONE', ( #383, #423, #565, #714 ) ) ;
#521 = CARTESIAN_POINT ( 'NONE',  ( -124.5999999999999943, 14.60000000000001030, 0.000000000000000000 ) ) ;
#522 = B_SPLINE_CURVE_WITH_KNOTS ( 'NONE', 3,
 ( #726, #314, #749, #24, #1095, #1070, #643, #667, #1015, #551, #246, #931, #425, #599, #225, #1111, #1101, #937, #849, #685, #250, #947, #417, #231, #146, #493, #54, #414, #942, #61, #512, #159 ),
 .UNSPECIFIED., .F., .F.,
 ( 4, 2, 2, 2, 2, 2, 2, 2, 2, 2, 2, 2, 2, 2, 2, 4 ),
 ( 0.004669655889331622220, 0.005989770511993486833, 0.006649827823324418706, 0.007309885134655351446, 0.007969942445986283319, 0.008629999757317215192, 0.009290057068648148800, 0.009950114379979080673, 0.01061017169131001255, 0.01127022900264094615, 0.01193028631397187803, 0.01259034362530280816, 0.01325040093663374177, 0.01391045824796467364, 0.01457051555929560552, 0.01523057287062653913 ),
 .UNSPECIFIED. ) ;
#523 = DIRECTION ( 'NONE',  ( -0.000000000000000000, -0.000000000000000000, -1.000000000000000000 ) ) ;
#524 = EDGE_CURVE ( 'NONE', #1011, #965, #299, .T. ) ;
#525 = EDGE_CURVE ( 'NONE', #729, #675, #580, .T. ) ;
#526 = EDGE_CURVE ( 'NONE', #378, #25, #440, .T. ) ;
#527 = SHAPE_DEFINITION_REPRESENTATION ( #155, #1106 ) ;
#528 = ORIENTED_EDGE ( 'NONE', *, *, #487, .T. ) ;
#529 = CARTESIAN_POINT ( 'NONE',  ( -123.6000000000000085, -15.60000000000001030, 15.00000000000000000 ) ) ;
#530 = DIRECTION ( 'NONE',  ( -1.000000000000000000, 0.000000000000000000, 0.000000000000000000 ) ) ;
#531 = CARTESIAN_POINT ( 'NONE',  ( -115.3993869923175026, 14.89815601557033808, 8.699008298823795116 ) ) ;
#532 = CARTESIAN_POINT ( 'NONE',  ( -110.6000000000000369, 13.77157287525382934, 10.76414752972333666 ) ) ;
#533 = ORIENTED_EDGE ( 'NONE', *, *, #114, .F. ) ;
#534 = DIRECTION ( 'NONE',  ( 0.7071067811865432429, -0.7071067811865517916, 0.000000000000000000 ) ) ;
#535 = DIRECTION ( 'NONE',  ( -0.000000000000000000, -0.000000000000000000, -1.000000000000000000 ) ) ;
#536 = CARTESIAN_POINT ( 'NONE',  ( -114.7566180785802175, 13.83593125723304063, 10.68487172042044975 ) ) ;
#537 = CARTESIAN_POINT ( 'NONE',  ( -110.6000000000000512, 13.93233630050887051, 10.53624044747521182 ) ) ;
#538 = AXIS2_PLACEMENT_3D ( 'NONE', #105, #535, #530 ) ;
#539 = ORIENTED_EDGE ( 'NONE', *, *, #455, .T. ) ;
#540 = DIRECTION ( 'NONE',  ( 0.000000000000000000, 0.000000000000000000, -1.000000000000000000 ) ) ;
#541 = CARTESIAN_POINT ( 'NONE',  ( -115.1539095947201190, 14.59765053797840295, 9.379572180141693138 ) ) ;
#542 = ORIENTED_EDGE ( 'NONE', *, *, #356, .F. ) ;
#543 = CARTESIAN_POINT ( 'NONE',  ( -111.6000000000000085, 15.59999999999998543, 4.999999999999999112 ) ) ;
#544 = VERTEX_POINT ( 'NONE', #30 ) ;
#545 = DIRECTION ( 'NONE',  ( -0.000000000000000000, -0.000000000000000000, -1.000000000000000000 ) ) ;
#546 = CARTESIAN_POINT ( 'NONE',  ( -117.6000000000000085, 12.84999999999998721, 15.00000000000000000 ) ) ;
#547 = VERTEX_POINT ( 'NONE', #308 ) ;
#548 = CARTESIAN_POINT ( 'NONE',  ( -115.9382312279429925, 10.34339634710056721, 13.80465212213953485 ) ) ;
#549 = VERTEX_POINT ( 'NONE', #815 ) ;
#550 = DIRECTION ( 'NONE',  ( -0.000000000000000000, -0.000000000000000000, -1.000000000000000000 ) ) ;
#551 = CARTESIAN_POINT ( 'NONE',  ( -115.9306931736865351, -10.34857798291902142, 13.80184352073669807 ) ) ;
#552 = B_SPLINE_CURVE_WITH_KNOTS ( 'NONE', 3,
 ( #366, #1050, #1056, #872, #424, #606, #275, #702, #1128, #776 ),
 .UNSPECIFIED., .F., .F.,
 ( 4, 2, 2, 2, 4 ),
 ( 0.01523057287062653913, 0.01639491223576037757, 0.01755925160089421774, 0.01872359096602805445, 0.01988793033116189463 ),
 .UNSPECIFIED. ) ;
#553 = CIRCLE ( 'NONE', #238, 10.09999999999999964 ) ;
#554 = ORIENTED_EDGE ( 'NONE', *, *, #144, .T. ) ;
#555 = CARTESIAN_POINT ( 'NONE',  ( -111.5999999999999943, -15.60000000000001563, 15.00000000000000000 ) ) ;
#556 = EDGE_CURVE ( 'NONE', #102, #378, #1063, .T. ) ;
#557 = VECTOR ( 'NONE', #408, 1000.000000000000000 ) ;
#558 = AXIS2_PLACEMENT_3D ( 'NONE', #854, #1030, #586 ) ;
#559 = ORIENTED_EDGE ( 'NONE', *, *, #1065, .F. ) ;
#560 = DIRECTION ( 'NONE',  ( 0.000000000000000000, 0.000000000000000000, -1.000000000000000000 ) ) ;
#561 = CARTESIAN_POINT ( 'NONE',  ( -120.6000000000000512, 13.12179034786478482, 11.60139308279165782 ) ) ;
#562 = EDGE_CURVE ( 'NONE', #997, #939, #998, .T. ) ;
#563 = EDGE_CURVE ( 'NONE', #63, #441, #459, .T. ) ;
#564 = EDGE_CURVE ( 'NONE', #628, #1068, #1069, .T. ) ;
#565 = ORIENTED_EDGE ( 'NONE', *, *, #922, .T. ) ;
#566 = CARTESIAN_POINT ( 'NONE',  ( -120.5536183436597071, 12.21651764447389432, 12.51045235665722899 ) ) ;
#567 = VERTEX_POINT ( 'NONE', #568 ) ;
#568 = CARTESIAN_POINT ( 'NONE',  ( -111.1857864376269447, 15.18578643762692870, 7.848279897097083513 ) ) ;
#569 = CYLINDRICAL_SURFACE ( 'NONE', #438, 3.000000000000002665 ) ;
#570 = VERTEX_POINT ( 'NONE', #639 ) ;
#571 = CARTESIAN_POINT ( 'NONE',  ( -114.8918827262103264, 11.54529494326203398, 13.04330244089116420 ) ) ;
#572 = VERTEX_POINT ( 'NONE', #204 ) ;
#573 = DIRECTION ( 'NONE',  ( -1.000000000000000000, 0.000000000000000000, 0.000000000000000000 ) ) ;
#574 = CARTESIAN_POINT ( 'NONE',  ( -112.6000000000000369, -15.13939201416947355, 8.000000000000000000 ) ) ;
#575 = DIRECTION ( 'NONE',  ( -1.000000000000000000, 0.000000000000000000, 0.000000000000000000 ) ) ;
#576 = DIRECTION ( 'NONE',  ( -1.000000000000000000, 0.000000000000000000, 0.000000000000000000 ) ) ;
#577 = ORIENTED_EDGE ( 'NONE', *, *, #909, .T. ) ;
#578 = DIRECTION ( 'NONE',  ( 0.000000000000000000, 1.000000000000000000, 0.000000000000000000 ) ) ;
#579 = AXIS2_PLACEMENT_3D ( 'NONE', #68, #420, #771 ) ;
#580 = CIRCLE ( 'NONE', #624, 3.000000000000002665 ) ;
#581 = DIRECTION ( 'NONE',  ( 0.000000000000000000, 0.000000000000000000, 1.000000000000000000 ) ) ;
#582 = DIRECTION ( 'NONE',  ( 0.000000000000000000, 0.000000000000000000, -1.000000000000000000 ) ) ;
#583 = DIRECTION ( 'NONE',  ( 1.000000000000000000, 0.000000000000000000, 0.000000000000000000 ) ) ;
#584 = ORIENTED_EDGE ( 'NONE', *, *, #232, .T. ) ;
#585 = CARTESIAN_POINT ( 'NONE',  ( -123.6000000000000227, 5.000000000000000000, 0.000000000000000000 ) ) ;
#586 = DIRECTION ( 'NONE',  ( -1.000000000000000000, 0.000000000000000000, 0.000000000000000000 ) ) ;
#587 = EDGE_CURVE ( 'NONE', #399, #601, #730, .T. ) ;
#588 = EDGE_LOOP ( 'NONE', ( #347, #376, #894, #296 ) ) ;
#589 = CYLINDRICAL_SURFACE ( 'NONE', #148, 10.00000000000000000 ) ;
#590 = EDGE_LOOP ( 'NONE', ( #110, #1074, #66, #919 ) ) ;
#591 = DIRECTION ( 'NONE',  ( 0.000000000000000000, 0.000000000000000000, 1.000000000000000000 ) ) ;
#592 = VECTOR ( 'NONE', #392, 1000.000000000000000 ) ;
#593 = AXIS2_PLACEMENT_3D ( 'NONE', #211, #908, #821 ) ;
#594 = EDGE_CURVE ( 'NONE', #601, #851, #410, .T. ) ;
#595 = B_SPLINE_CURVE_WITH_KNOTS ( 'NONE', 3,
 ( #508, #661, #745, #864, #49, #1086, #611, #172 ),
 .UNSPECIFIED., .F., .F.,
 ( 4, 2, 2, 4 ),
 ( 1.734723475976806902E-18, 0.002334827944665805038, 0.003502241916998713629, 0.004669655889331622220 ),
 .UNSPECIFIED. ) ;
#596 = FACE_OUTER_BOUND ( 'NONE', #107, .T. ) ;
#597 = ORIENTED_EDGE ( 'NONE', *, *, #286, .F. ) ;
#598 = FACE_OUTER_BOUND ( 'NONE', #59, .T. ) ;
#599 = CARTESIAN_POINT ( 'NONE',  ( -117.1491002841736986, -9.875762733958307393, 14.03995918526421249 ) ) ;
#600 = DIRECTION ( 'NONE',  ( -0.000000000000000000, -0.000000000000000000, -1.000000000000000000 ) ) ;
#601 = VERTEX_POINT ( 'NONE', #46 ) ;
#602 = DIRECTION ( 'NONE',  ( 1.000000000000000000, -0.000000000000000000, -0.000000000000000000 ) ) ;
#603 = CYLINDRICAL_SURFACE ( 'NONE', #1041, 5.000000000000000000 ) ;
#604 = CARTESIAN_POINT ( 'NONE',  ( -120.2000000000000313, -10.09999999999999964, 0.000000000000000000 ) ) ;
#605 = ORIENTED_EDGE ( 'NONE', *, *, #487, .F. ) ;
#606 = CARTESIAN_POINT ( 'NONE',  ( -120.1615078327446327, -14.42631058870114558, 9.715804932919972714 ) ) ;
#607 = EDGE_CURVE ( 'NONE', #567, #174, #985, .T. ) ;
#608 = VERTEX_POINT ( 'NONE', #1084 ) ;
#609 = DIRECTION ( 'NONE',  ( 0.000000000000000000, 0.000000000000000000, -1.000000000000000000 ) ) ;
#610 = ADVANCED_FACE ( 'NONE', ( #913, #130 ), #829, .F. ) ;
#611 = CARTESIAN_POINT ( 'NONE',  ( -114.6000000000000085, -13.12179034786480969, 11.60139308279165959 ) ) ;
#612 = VERTEX_POINT ( 'NONE', #478 ) ;
#613 = FACE_OUTER_BOUND ( 'NONE', #303, .T. ) ;
#614 = CARTESIAN_POINT ( 'NONE',  ( -110.6000000000000369, 13.77157287525382934, 0.000000000000000000 ) ) ;
#615 = LINE ( 'NONE', #446, #167 ) ;
#616 = ORIENTED_EDGE ( 'NONE', *, *, #807, .F. ) ;
#617 = CARTESIAN_POINT ( 'NONE',  ( -123.6000000000000085, -15.60000000000001030, 4.999999999999999112 ) ) ;
#618 = EDGE_CURVE ( 'NONE', #733, #472, #1028, .T. ) ;
#619 = CARTESIAN_POINT ( 'NONE',  ( -110.8355402961735194, -14.72209409623452281, 9.106193591373168417 ) ) ;
#620 = ORIENTED_EDGE ( 'NONE', *, *, #807, .T. ) ;
#621 = CARTESIAN_POINT ( 'NONE',  ( -120.6000000000000085, 12.84999999999998721, 11.88748865697795587 ) ) ;
#622 = CARTESIAN_POINT ( 'NONE',  ( -110.6000000000000369, -13.77157287525386486, 10.76414752972332955 ) ) ;
#623 = AXIS2_PLACEMENT_3D ( 'NONE', #655, #1077, #1003 ) ;
#624 = AXIS2_PLACEMENT_3D ( 'NONE', #833, #560, #573 ) ;
#625 = ORIENTED_EDGE ( 'NONE', *, *, #700, .F. ) ;
#626 = DIRECTION ( 'NONE',  ( 1.000000000000000000, 0.000000000000000000, -0.000000000000000000 ) ) ;
#627 = MECHANICAL_DESIGN_GEOMETRIC_PRESENTATION_REPRESENTATION (  '', ( #956 ), #279 ) ;
#628 = VERTEX_POINT ( 'NONE', #633 ) ;
#629 = DIRECTION ( 'NONE',  ( -0.000000000000000000, -0.000000000000000000, -1.000000000000000000 ) ) ;
#630 = ORIENTED_EDGE ( 'NONE', *, *, #517, .T. ) ;
#631 = CARTESIAN_POINT ( 'NONE',  ( -119.6000877832170630, 10.60426042308101913, 13.65903111447132012 ) ) ;
#632 = ORIENTED_EDGE ( 'NONE', *, *, #461, .T. ) ;
#633 = CARTESIAN_POINT ( 'NONE',  ( -115.6612673713332384, 15.13939201416944336, 8.000000000000000000 ) ) ;
#634 = DIRECTION ( 'NONE',  ( -1.000000000000000000, 0.000000000000000000, 0.000000000000000000 ) ) ;
#635 = EDGE_CURVE ( 'NONE', #25, #7, #659, .T. ) ;
#636 = EDGE_LOOP ( 'NONE', ( #274, #577, #10, #984 ) ) ;
#637 = CARTESIAN_POINT ( 'NONE',  ( -111.6000000000000085, 15.59999999999998543, 0.000000000000000000 ) ) ;
#638 = ORIENTED_EDGE ( 'NONE', *, *, #722, .F. ) ;
#639 = CARTESIAN_POINT ( 'NONE',  ( -123.6000000000000085, -15.60000000000001030, 0.000000000000000000 ) ) ;
#640 = ADVANCED_FACE ( 'NONE', ( #1007 ), #220, .F. ) ;
#641 = ADVANCED_FACE ( 'NONE', ( #717 ), #285, .F. ) ;
#642 = ADVANCED_FACE ( 'NONE', ( #111, #462 ), #811, .F. ) ;
#643 = CARTESIAN_POINT ( 'NONE',  ( -115.1877721019994141, -11.05490453898581471, 13.38314561590998863 ) ) ;
#644 = ADVANCED_FACE ( 'NONE', ( #748, #154 ), #589, .T. ) ;
#645 = ORIENTED_EDGE ( 'NONE', *, *, #689, .T. ) ;
#646 = CARTESIAN_POINT ( 'NONE',  ( -112.6000000000000369, -13.77157287525386486, 15.00000000000000000 ) ) ;
#647 = AXIS2_PLACEMENT_3D ( 'NONE', #229, #761, #1115 ) ;
#648 = ORIENTED_EDGE ( 'NONE', *, *, #429, .F. ) ;
#649 = CARTESIAN_POINT ( 'NONE',  ( -124.5999999999999943, 5.599999999999987210, 4.999999999999999112 ) ) ;
#650 = VECTOR ( 'NONE', #962, 1000.000000000000000 ) ;
#651 = ORIENTED_EDGE ( 'NONE', *, *, #804, .T. ) ;
#652 = CARTESIAN_POINT ( 'NONE',  ( -115.4521208089583268, 10.74597195739852928, 13.57620592169871188 ) ) ;
#653 = ORIENTED_EDGE ( 'NONE', *, *, #1045, .F. ) ;
#654 = CARTESIAN_POINT ( 'NONE',  ( -115.0000000000000284, 0.000000000000000000, 0.000000000000000000 ) ) ;
#655 = CARTESIAN_POINT ( 'NONE',  ( -117.6000000000000085, 12.84999999999998721, 8.000000000000000000 ) ) ;
#656 = CARTESIAN_POINT ( 'NONE',  ( -117.6000000000000085, 12.84999999999998721, 15.00000000000000000 ) ) ;
#657 = CARTESIAN_POINT ( 'NONE',  ( -114.8182178486773637, 11.71284674492877720, 12.91704419340492294 ) ) ;
#658 = EDGE_LOOP ( 'NONE', ( #337, #747, #620, #539 ) ) ;
#659 = LINE ( 'NONE', #388, #803 ) ;
#660 = DIRECTION ( 'NONE',  ( 0.000000000000000000, 1.734723475976807094E-15, -1.000000000000000000 ) ) ;
#661 = CARTESIAN_POINT ( 'NONE',  ( -115.3985966301629986, -14.91695377146093016, 8.707308532046594607 ) ) ;
#662 = PLANE ( 'NONE',  #898 ) ;
#663 = ORIENTED_EDGE ( 'NONE', *, *, #875, .T. ) ;
#664 = DIRECTION ( 'NONE',  ( 1.000000000000000000, -0.000000000000000000, -0.000000000000000000 ) ) ;
#665 = CIRCLE ( 'NONE', #96, 5.000000000000000000 ) ;
#666 = AXIS2_PLACEMENT_3D ( 'NONE', #654, #1089, #725 ) ;
#667 = CARTESIAN_POINT ( 'NONE',  ( -115.4515978788828647, -10.74629387222801213, 13.57605814623870266 ) ) ;
#668 = EDGE_CURVE ( 'NONE', #1023, #301, #496, .T. ) ;
#669 = DIRECTION ( 'NONE',  ( 0.000000000000000000, 0.000000000000000000, -1.000000000000000000 ) ) ;
#670 = PRESENTATION_STYLE_ASSIGNMENT (( #501 ) ) ;
#671 = EDGE_LOOP ( 'NONE', ( #85, #256, #183, #127 ) ) ;
#672 = LINE ( 'NONE', #839, #239 ) ;
#673 = ADVANCED_FACE ( 'NONE', ( #1094 ), #313, .F. ) ;
#674 =( NAMED_UNIT ( * ) SI_UNIT ( $, .STERADIAN. ) SOLID_ANGLE_UNIT ( ) );
#675 = VERTEX_POINT ( 'NONE', #503 ) ;
#676 = DIRECTION ( 'NONE',  ( -1.000000000000000000, 0.000000000000000000, -0.000000000000000000 ) ) ;
#677 = LINE ( 'NONE', #765, #276 ) ;
#678 = EDGE_LOOP ( 'NONE', ( #271, #825, #1109, #988 ) ) ;
#679 = CYLINDRICAL_SURFACE ( 'NONE', #515, 2.000000000000001776 ) ;
#680 = VECTOR ( 'NONE', #920, 1000.000000000000000 ) ;
#681 = CIRCLE ( 'NONE', #994, 1.750000000000001554 ) ;
#682 = LINE ( 'NONE', #89, #113 ) ;
#683 = VERTEX_POINT ( 'NONE', #585 ) ;
#684 = DIRECTION ( 'NONE',  ( 0.000000000000000000, -0.000000000000000000, -1.000000000000000000 ) ) ;
#685 = CARTESIAN_POINT ( 'NONE',  ( -119.0794454081267588, -10.23094849973842813, 13.86371135535047650 ) ) ;
#686 = UNCERTAINTY_MEASURE_WITH_UNIT (LENGTH_MEASURE( 1.000000000000000082E-05 ), #2, 'distance_accuracy_value', 'NONE');
#687 = DIRECTION ( 'NONE',  ( -1.000000000000000000, 0.000000000000000000, 0.000000000000000000 ) ) ;
#688 = ORIENTED_EDGE ( 'NONE', *, *, #100, .T. ) ;
#689 = EDGE_CURVE ( 'NONE', #845, #733, #323, .T. ) ;
#690 = LINE ( 'NONE', #255, #863 ) ;
#691 = ADVANCED_FACE ( 'NONE', ( #598 ), #492, .F. ) ;
#692 = DIRECTION ( 'NONE',  ( -1.000000000000000000, 0.000000000000000000, 0.000000000000000000 ) ) ;
#693 = DIRECTION ( 'NONE',  ( 1.000000000000000000, 0.000000000000000000, -0.000000000000000000 ) ) ;
#694 = ORIENTED_EDGE ( 'NONE', *, *, #200, .T. ) ;
#695 = DIRECTION ( 'NONE',  ( 1.000000000000000000, 0.000000000000000000, 0.000000000000000000 ) ) ;
#696 = LINE ( 'NONE', #186, #772 ) ;
#697 = VECTOR ( 'NONE', #199, 1000.000000000000000 ) ;
#698 = CARTESIAN_POINT ( 'NONE',  ( -110.6736144076926820, -14.36845904664565232, 9.838164113469133554 ) ) ;
#699 = AXIS2_PLACEMENT_3D ( 'NONE', #764, #338, #684 ) ;
#700 = EDGE_CURVE ( 'NONE', #1034, #441, #846, .T. ) ;
#701 = ORIENTED_EDGE ( 'NONE', *, *, #1127, .T. ) ;
#702 = CARTESIAN_POINT ( 'NONE',  ( -119.8006130076825571, -14.89815601557036118, 8.699008298823784457 ) ) ;
#703 = CARTESIAN_POINT ( 'NONE',  ( -114.6000000000000085, 12.84999999999998721, 11.88748865697795587 ) ) ;
#704 = CARTESIAN_POINT ( 'NONE',  ( -114.6000000000000085, -12.85000000000001563, 15.00000000000000000 ) ) ;
#705 = EDGE_LOOP ( 'NONE', ( #1026, #157, #418 ) ) ;
#706 = PLANE ( 'NONE',  #422 ) ;
#707 = LINE ( 'NONE', #350, #650 ) ;
#708 = EDGE_LOOP ( 'NONE', ( #724, #694, #910, #502 ) ) ;
#709 = DIRECTION ( 'NONE',  ( 0.000000000000000000, 1.000000000000000000, 0.000000000000000000 ) ) ;
#710 = DIRECTION ( 'NONE',  ( -0.000000000000000000, -0.000000000000000000, -1.000000000000000000 ) ) ;
#711 = LINE ( 'NONE', #974, #844 ) ;
#712 = VECTOR ( 'NONE', #265, 1000.000000000000000 ) ;
#713 = VECTOR ( 'NONE', #664, 1000.000000000000000 ) ;
#714 = ORIENTED_EDGE ( 'NONE', *, *, #722, .T. ) ;
#715 = CARTESIAN_POINT ( 'NONE',  ( -116.5175631308210313, 10.04348616591829924, 13.95915697437493819 ) ) ;
#716 = ORIENTED_EDGE ( 'NONE', *, *, #563, .F. ) ;
#717 = FACE_OUTER_BOUND ( 'NONE', #878, .T. ) ;
#718 = ADVANCED_FACE ( 'NONE', ( #413 ), #419, .F. ) ;
#719 = CARTESIAN_POINT ( 'NONE',  ( -117.6000000000000085, -12.85000000000001563, 0.000000000000000000 ) ) ;
#720 = EDGE_LOOP ( 'NONE', ( #925, #518, #219, #228, #1019, #1039, #433 ) ) ;
#721 = CARTESIAN_POINT ( 'NONE',  ( -115.8500000000000085, 12.84999999999998721, 0.000000000000000000 ) ) ;
#722 = EDGE_CURVE ( 'NONE', #470, #612, #672, .T. ) ;
#723 = EDGE_CURVE ( 'NONE', #851, #970, #52, .T. ) ;
#724 = ORIENTED_EDGE ( 'NONE', *, *, #840, .F. ) ;
#725 = DIRECTION ( 'NONE',  ( 0.000000000000000000, 0.000000000000000000, -1.000000000000000000 ) ) ;
#726 = CARTESIAN_POINT ( 'NONE',  ( -114.6000000000000085, -12.85000000000001563, 11.88748865697795409 ) ) ;
#727 = CARTESIAN_POINT ( 'NONE',  ( -115.0000000000000284, 10.09999999999999964, 0.000000000000000000 ) ) ;
#728 = CARTESIAN_POINT ( 'NONE',  ( -124.5999999999999943, 14.60000000000001030, 0.000000000000000000 ) ) ;
#729 = VERTEX_POINT ( 'NONE', #753 ) ;
#730 = LINE ( 'NONE', #903, #1079 ) ;
#731 = CARTESIAN_POINT ( 'NONE',  ( -119.8014033698370611, 14.91695377146090173, 8.707308532046596383 ) ) ;
#732 = CIRCLE ( 'NONE', #623, 3.000000000000002665 ) ;
#733 = VERTEX_POINT ( 'NONE', #64 ) ;
#734 = CARTESIAN_POINT ( 'NONE',  ( -120.1227018907209469, 11.21551222978235351, 13.27687239439615041 ) ) ;
#735 = AXIS2_PLACEMENT_3D ( 'NONE', #22, #379, #676 ) ;
#736 = ORIENTED_EDGE ( 'NONE', *, *, #868, .F. ) ;
#737 = CARTESIAN_POINT ( 'NONE',  ( -117.6000000000000085, 12.84999999999998721, 15.00000000000000000 ) ) ;
#738 = CIRCLE ( 'NONE', #389, 3.000000000000002665 ) ;
#739 = B_SPLINE_CURVE_WITH_KNOTS ( 'NONE', 3,
 ( #996, #282, #566, #906, #14, #734, #123, #453, #631, #819, #983, #887, #1000, #370, #33, #386, #302, #20, #715, #39, #548, #741, #652, #1061, #214, #571, #657, #218, #893, #108, #458, #808 ),
 .UNSPECIFIED., .F., .F.,
 ( 4, 2, 2, 2, 2, 2, 2, 2, 2, 2, 2, 2, 2, 2, 2, 4 ),
 ( 0.004669655889331623955, 0.005989770511993488568, 0.006649827823324421308, 0.007309885134655354048, 0.007969942445986286789, 0.008629999757317218662, 0.009290057068648150534, 0.009950114379979084142, 0.01061017169131001775, 0.01127022900264094962, 0.01193028631397188150, 0.01259034362530281337, 0.01325040093663374524, 0.01391045824796467885, 0.01457051555929561072, 0.01523057287062654433 ),
 .UNSPECIFIED. ) ;
#740 = DIRECTION ( 'NONE',  ( 0.000000000000000000, 1.000000000000000000, 0.000000000000000000 ) ) ;
#741 = CARTESIAN_POINT ( 'NONE',  ( -115.6036734301855375, 10.60072955135108330, 13.66108606652925594 ) ) ;
#742 = VERTEX_POINT ( 'NONE', #1020 ) ;
#743 = DIRECTION ( 'NONE',  ( -1.000000000000000000, -0.000000000000000000, -0.000000000000000000 ) ) ;
#744 = DIRECTION ( 'NONE',  ( -0.000000000000000000, -0.000000000000000000, -1.000000000000000000 ) ) ;
#745 = CARTESIAN_POINT ( 'NONE',  ( -115.1408438543364241, -14.62104686173642953, 9.380758759124999457 ) ) ;
#746 = FACE_OUTER_BOUND ( 'NONE', #98, .T. ) ;
#747 = ORIENTED_EDGE ( 'NONE', *, *, #902, .T. ) ;
#748 = FACE_BOUND ( 'NONE', #1055, .T. ) ;
#749 = CARTESIAN_POINT ( 'NONE',  ( -114.6463816563403668, -12.21651764447392452, 12.51045235665722899 ) ) ;
#750 = CYLINDRICAL_SURFACE ( 'NONE', #244, 1.750000000000001554 ) ;
#751 = CARTESIAN_POINT ( 'NONE',  ( -110.6000000000000369, -13.77157287525386486, 0.000000000000000000 ) ) ;
#752 = ORIENTED_EDGE ( 'NONE', *, *, #48, .F. ) ;
#753 = CARTESIAN_POINT ( 'NONE',  ( -119.5387326286667786, -15.13939201416947178, 8.000000000000000000 ) ) ;
#754 = AXIS2_PLACEMENT_3D ( 'NONE', #649, #1075, #41 ) ;
#755 = EDGE_CURVE ( 'NONE', #892, #547, #93, .T. ) ;
#756 = PRODUCT ( 'camera_tracker_bearing_mount', 'camera_tracker_bearing_mount', '', ( #859 ) ) ;
#757 = CARTESIAN_POINT ( 'NONE',  ( -110.6000000000000369, 13.77157287525382934, 15.00000000000000000 ) ) ;
#758 = ADVANCED_FACE ( 'NONE', ( #940 ), #328, .F. ) ;
#759 = ORIENTED_EDGE ( 'NONE', *, *, #497, .T. ) ;
#760 = ADVANCED_FACE ( 'NONE', ( #935 ), #679, .T. ) ;
#761 = DIRECTION ( 'NONE',  ( 0.000000000000000000, 0.000000000000000000, -1.000000000000000000 ) ) ;
#762 = CARTESIAN_POINT ( 'NONE',  ( -123.6000000000000227, 0.000000000000000000, 0.000000000000000000 ) ) ;
#763 = EDGE_LOOP ( 'NONE', ( #179, #990, #465, #13 ) ) ;
#764 = CARTESIAN_POINT ( 'NONE',  ( -111.6000000000000085, 15.59999999999998543, 15.00000000000000000 ) ) ;
#765 = CARTESIAN_POINT ( 'NONE',  ( -120.2000000000000313, -13.77157287525386486, 0.000000000000000000 ) ) ;
#766 = PRODUCT_DEFINITION_CONTEXT ( 'detailed design', #451, 'design' ) ;
#767 = CARTESIAN_POINT ( 'NONE',  ( -117.6000000000000085, 12.84999999999998721, 15.00000000000000000 ) ) ;
#768 = ORIENTED_EDGE ( 'NONE', *, *, #400, .F. ) ;
#769 = CARTESIAN_POINT ( 'NONE',  ( -110.6000000000000369, 4.999999999999984013, 15.00000000000000000 ) ) ;
#770 = AXIS2_PLACEMENT_3D ( 'NONE', #481, #309, #660 ) ;
#771 = DIRECTION ( 'NONE',  ( 0.7071067811865504593, -0.7071067811865445751, 0.000000000000000000 ) ) ;
#772 = VECTOR ( 'NONE', #445, 1000.000000000000000 ) ;
#773 = DIRECTION ( 'NONE',  ( -0.000000000000000000, -0.000000000000000000, -1.000000000000000000 ) ) ;
#774 = DIRECTION ( 'NONE',  ( 1.000000000000000000, 0.000000000000000000, 0.000000000000000000 ) ) ;
#775 = EDGE_LOOP ( 'NONE', ( #752, #929 ) ) ;
#776 = CARTESIAN_POINT ( 'NONE',  ( -119.5387326286667786, -15.13939201416947178, 8.000000000000000000 ) ) ;
#777 = DIRECTION ( 'NONE',  ( 0.000000000000000000, 1.000000000000000000, 0.000000000000000000 ) ) ;
#778 = DIRECTION ( 'NONE',  ( 0.000000000000000000, 0.000000000000000000, -1.000000000000000000 ) ) ;
#779 = CARTESIAN_POINT ( 'NONE',  ( -110.6840099225485687, 14.36281561146579477, 9.825893741557377936 ) ) ;
#780 = VERTEX_POINT ( 'NONE', #158 ) ;
#781 = DIRECTION ( 'NONE',  ( -0.7071067811865504593, 0.7071067811865445751, 0.000000000000000000 ) ) ;
#782 = EDGE_CURVE ( 'NONE', #1104, #102, #506, .T. ) ;
#783 = EDGE_LOOP ( 'NONE', ( #812, #208, #268, #117, #716, #663, #653, #45 ) ) ;
#784 = CARTESIAN_POINT ( 'NONE',  ( -120.2000000000000313, 0.000000000000000000, 0.000000000000000000 ) ) ;
#785 = DIRECTION ( 'NONE',  ( -0.000000000000000000, -0.000000000000000000, -1.000000000000000000 ) ) ;
#786 = AXIS2_PLACEMENT_3D ( 'NONE', #197, #550, #895 ) ;
#787 = CIRCLE ( 'NONE', #482, 2.000000000000001776 ) ;
#788 = VECTOR ( 'NONE', #793, 1000.000000000000000 ) ;
#789 = ORIENTED_EDGE ( 'NONE', *, *, #358, .T. ) ;
#790 = CARTESIAN_POINT ( 'NONE',  ( -111.1857864376269447, 15.18578643762692870, 7.848279897097083513 ) ) ;
#791 = ADVANCED_FACE ( 'NONE', ( #856 ), #67, .F. ) ;
#792 = LINE ( 'NONE', #869, #18 ) ;
#793 = DIRECTION ( 'NONE',  ( -0.000000000000000000, -0.000000000000000000, -1.000000000000000000 ) ) ;
#794 = ORIENTED_EDGE ( 'NONE', *, *, #322, .F. ) ;
#795 = CARTESIAN_POINT ( 'NONE',  ( -110.6000000000000369, -13.77157287525386486, 15.00000000000000000 ) ) ;
#796 = CARTESIAN_POINT ( 'NONE',  ( -111.1857864376269447, -15.18578643762697133, 7.848279897097041768 ) ) ;
#797 = VERTEX_POINT ( 'NONE', #621 ) ;
#798 = CARTESIAN_POINT ( 'NONE',  ( -117.6000000000000085, -12.85000000000001563, 8.000000000000000000 ) ) ;
#799 = ORIENTED_EDGE ( 'NONE', *, *, #755, .F. ) ;
#800 = LINE ( 'NONE', #521, #112 ) ;
#801 = LINE ( 'NONE', #375, #788 ) ;
#802 = EDGE_CURVE ( 'NONE', #412, #729, #552, .T. ) ;
#803 = VECTOR ( 'NONE', #578, 1000.000000000000000 ) ;
#804 = EDGE_CURVE ( 'NONE', #544, #570, #1035, .T. ) ;
#805 = VECTOR ( 'NONE', #602, 1000.000000000000000 ) ;
#806 = ORIENTED_EDGE ( 'NONE', *, *, #293, .T. ) ;
#807 = EDGE_CURVE ( 'NONE', #901, #570, #184, .T. ) ;
#808 = CARTESIAN_POINT ( 'NONE',  ( -114.6000000000000085, 12.84999999999998721, 11.88748865697795587 ) ) ;
#809 = AXIS2_PLACEMENT_3D ( 'NONE', #202, #209, #1067 ) ;
#810 = ORIENTED_EDGE ( 'NONE', *, *, #226, .T. ) ;
#811 = PLANE ( 'NONE',  #735 ) ;
#812 = ORIENTED_EDGE ( 'NONE', *, *, #324, .F. ) ;
#813 = DIRECTION ( 'NONE',  ( -1.000000000000000000, 0.000000000000000000, 0.000000000000000000 ) ) ;
#814 = ORIENTED_EDGE ( 'NONE', *, *, #556, .T. ) ;
#815 = CARTESIAN_POINT ( 'NONE',  ( -115.6612673713332384, -15.13939201416947178, 8.000000000000000000 ) ) ;
#816 = CARTESIAN_POINT ( 'NONE',  ( -117.6000000000000085, -12.85000000000001563, 15.00000000000000000 ) ) ;
#817 = ADVANCED_FACE ( 'NONE', ( #99 ), #169, .T. ) ;
#818 = LINE ( 'NONE', #32, #185 ) ;
#819 = CARTESIAN_POINT ( 'NONE',  ( -119.2693068263135245, 10.34857798291899122, 13.80184352073669807 ) ) ;
#820 = ORIENTED_EDGE ( 'NONE', *, *, #114, .T. ) ;
#821 = DIRECTION ( 'NONE',  ( -1.000000000000000000, 0.000000000000000000, -0.000000000000000000 ) ) ;
#822 = CARTESIAN_POINT ( 'NONE',  ( -120.2000000000000313, 10.09999999999999964, 0.000000000000000000 ) ) ;
#823 =( BOUNDED_CURVE ( )  B_SPLINE_CURVE ( 3, ( #880, #17, #270, #870 ),
 .UNSPECIFIED., .F., .F. ) 
 B_SPLINE_CURVE_WITH_KNOTS ( ( 4, 4 ),
 ( 5.994358326856594310, 6.283185307179586232 ),
 .UNSPECIFIED. ) 
 CURVE ( )  GEOMETRIC_REPRESENTATION_ITEM ( )  RATIONAL_B_SPLINE_CURVE ( ( 1.000000000000000000, 0.9930603212714743666, 0.9930603212714743666, 1.000000000000000000 ) ) 
 REPRESENTATION_ITEM ( '' )  );
#824 = CIRCLE ( 'NONE', #1057, 2.000000000000001776 ) ;
#825 = ORIENTED_EDGE ( 'NONE', *, *, #635, .F. ) ;
#826 = FACE_OUTER_BOUND ( 'NONE', #678, .T. ) ;
#827 = VECTOR ( 'NONE', #900, 1000.000000000000000 ) ;
#828 = ORIENTED_EDGE ( 'NONE', *, *, #351, .F. ) ;
#829 = PLANE ( 'NONE',  #593 ) ;
#830 = CARTESIAN_POINT ( 'NONE',  ( -115.0000000000000284, -10.09999999999999964, 0.000000000000000000 ) ) ;
#831 = DIRECTION ( 'NONE',  ( -1.000000000000000000, 0.000000000000000000, 0.000000000000000000 ) ) ;
#832 = ORIENTED_EDGE ( 'NONE', *, *, #434, .T. ) ;
#833 = CARTESIAN_POINT ( 'NONE',  ( -117.6000000000000085, -12.85000000000001563, 8.000000000000000000 ) ) ;
#834 = LINE ( 'NONE', #47, #409 ) ;
#835 = CARTESIAN_POINT ( 'NONE',  ( -112.6000000000000369, 13.77157287525382934, 15.00000000000000000 ) ) ;
#836 = DIRECTION ( 'NONE',  ( -0.000000000000000000, -0.000000000000000000, -1.000000000000000000 ) ) ;
#837 = ORIENTED_EDGE ( 'NONE', *, *, #802, .T. ) ;
#838 = ADVANCED_FACE ( 'NONE', ( #960, #966 ), #355, .T. ) ;
#839 = CARTESIAN_POINT ( 'NONE',  ( -111.5999999999999943, -15.60000000000001563, 0.000000000000000000 ) ) ;
#840 = EDGE_CURVE ( 'NONE', #188, #1034, #189, .T. ) ;
#841 = EDGE_CURVE ( 'NONE', #427, #399, #317, .T. ) ;
#842 = DIRECTION ( 'NONE',  ( -0.000000000000000000, -0.000000000000000000, 1.000000000000000000 ) ) ;
#843 = ADVANCED_FACE ( 'NONE', ( #613 ), #877, .F. ) ;
#844 = VECTOR ( 'NONE', #84, 1000.000000000000000 ) ;
#845 = VERTEX_POINT ( 'NONE', #1121 ) ;
#846 = LINE ( 'NONE', #401, #36 ) ;
#847 = AXIS2_PLACEMENT_3D ( 'NONE', #395, #743, #35 ) ;
#848 = AXIS2_PLACEMENT_3D ( 'NONE', #646, #393, #989 ) ;
#849 = CARTESIAN_POINT ( 'NONE',  ( -118.6824368691789999, -10.04348616591832410, 13.95915697437493819 ) ) ;
#850 = DIRECTION ( 'NONE',  ( 0.000000000000000000, 0.000000000000000000, -1.000000000000000000 ) ) ;
#851 = VERTEX_POINT ( 'NONE', #978 ) ;
#852 = DIRECTION ( 'NONE',  ( 1.000000000000000000, -0.000000000000000000, -0.000000000000000000 ) ) ;
#853 = B_SPLINE_CURVE_WITH_KNOTS ( 'NONE', 3,
 ( #192, #981, #88, #536, #9, #95, #541, #531, #885, #890 ),
 .UNSPECIFIED., .F., .F.,
 ( 4, 2, 2, 2, 4 ),
 ( 0.01523057287062654433, 0.01639491223576038451, 0.01755925160089422121, 0.01872359096602806139, 0.01988793033116190156 ),
 .UNSPECIFIED. ) ;
#854 = CARTESIAN_POINT ( 'NONE',  ( -117.6000000000000085, 12.84999999999998721, 8.000000000000000000 ) ) ;
#855 = ORIENTED_EDGE ( 'NONE', *, *, #1102, .T. ) ;
#856 = FACE_OUTER_BOUND ( 'NONE', #590, .T. ) ;
#857 = PLANE ( 'NONE',  #579 ) ;
#858 = CYLINDRICAL_SURFACE ( 'NONE', #498, 1.750000000000001554 ) ;
#859 = PRODUCT_CONTEXT ( 'NONE', #339, 'mechanical' ) ;
#860 = ORIENTED_EDGE ( 'NONE', *, *, #525, .T. ) ;
#861 = DIRECTION ( 'NONE',  ( -1.000000000000000000, 0.000000000000000000, 0.000000000000000000 ) ) ;
#862 = PRODUCT_RELATED_PRODUCT_CATEGORY ( 'part', '', ( #756 ) ) ;
#863 = VECTOR ( 'NONE', #8, 1000.000000000000000 ) ;
#864 = CARTESIAN_POINT ( 'NONE',  ( -114.8424777200678051, -14.05086837725155036, 10.35960885860093761 ) ) ;
#865 = VECTOR ( 'NONE', #329, 1000.000000000000000 ) ;
#866 = EDGE_LOOP ( 'NONE', ( #194, #837, #860 ) ) ;
#867 = LINE ( 'NONE', #1053, #917 ) ;
#868 = EDGE_CURVE ( 'NONE', #174, #939, #867, .T. ) ;
#869 = CARTESIAN_POINT ( 'NONE',  ( -120.6000000000000085, -12.85000000000001563, 15.00000000000000000 ) ) ;
#870 = CARTESIAN_POINT ( 'NONE',  ( -111.5999999999999943, -15.60000000000001563, 4.999999999999999112 ) ) ;
#871 = ORIENTED_EDGE ( 'NONE', *, *, #293, .F. ) ;
#872 = CARTESIAN_POINT ( 'NONE',  ( -120.4433819214197854, -13.83593125723306905, 10.68487172042044975 ) ) ;
#873 = ADVANCED_FACE ( 'NONE', ( #4 ), #706, .F. ) ;
#874 = DIRECTION ( 'NONE',  ( -1.000000000000000000, 0.000000000000000000, 0.000000000000000000 ) ) ;
#875 = EDGE_CURVE ( 'NONE', #63, #495, #1040, .T. ) ;
#876 = ORIENTED_EDGE ( 'NONE', *, *, #1045, .T. ) ;
#877 = PLANE ( 'NONE',  #316 ) ;
#878 = EDGE_LOOP ( 'NONE', ( #871, #952, #630, #81 ) ) ;
#879 = CARTESIAN_POINT ( 'NONE',  ( -120.2000000000000313, 0.000000000000000000, 0.000000000000000000 ) ) ;
#880 = CARTESIAN_POINT ( 'NONE',  ( -111.1857864376269447, -15.18578643762697133, 7.848279897097041768 ) ) ;
#881 = CARTESIAN_POINT ( 'NONE',  ( -124.5999999999999943, 14.60000000000001030, 15.00000000000000000 ) ) ;
#882 = VERTEX_POINT ( 'NONE', #883 ) ;
#883 = CARTESIAN_POINT ( 'NONE',  ( -115.8500000000000085, -12.85000000000001563, 8.000000000000000000 ) ) ;
#884 = CARTESIAN_POINT ( 'NONE',  ( -117.6000000000000085, 12.84999999999998721, 8.000000000000000000 ) ) ;
#885 = CARTESIAN_POINT ( 'NONE',  ( -115.5300567009366830, 15.02827849304564367, 8.353318478691537763 ) ) ;
#886 = ORIENTED_EDGE ( 'NONE', *, *, #324, .T. ) ;
#887 = CARTESIAN_POINT ( 'NONE',  ( -118.6907116672424962, 10.04684351341415294, 13.95748632167673797 ) ) ;
#888 = ORIENTED_EDGE ( 'NONE', *, *, #689, .F. ) ;
#889 = B_SPLINE_CURVE_WITH_KNOTS ( 'NONE', 3,
 ( #904, #731, #126, #992, #1090, #212, #561, #42 ),
 .UNSPECIFIED., .F., .F.,
 ( 4, 2, 2, 4 ),
 ( 1.734723475976806902E-18, 0.002334827944665808508, 0.003502241916998716231, 0.004669655889331623955 ),
 .UNSPECIFIED. ) ;
#890 = CARTESIAN_POINT ( 'NONE',  ( -115.6612673713332384, 15.13939201416944336, 8.000000000000000000 ) ) ;
#891 = EDGE_CURVE ( 'NONE', #997, #567, #941, .T. ) ;
#892 = VERTEX_POINT ( 'NONE', #342 ) ;
#893 = CARTESIAN_POINT ( 'NONE',  ( -114.6631173704169839, 12.21628891372315273, 12.50154634161530609 ) ) ;
#894 = ORIENTED_EDGE ( 'NONE', *, *, #607, .T. ) ;
#895 = DIRECTION ( 'NONE',  ( -1.000000000000000000, 0.000000000000000000, 0.000000000000000000 ) ) ;
#896 = VECTOR ( 'NONE', #914, 1000.000000000000000 ) ;
#897 = CIRCLE ( 'NONE', #1059, 1.750000000000001554 ) ;
#898 = AXIS2_PLACEMENT_3D ( 'NONE', #494, #1098, #240 ) ;
#899 = EDGE_LOOP ( 'NONE', ( #122, #934, #886, #210 ) ) ;
#900 = DIRECTION ( 'NONE',  ( -0.000000000000000000, -0.000000000000000000, -1.000000000000000000 ) ) ;
#901 = VERTEX_POINT ( 'NONE', #617 ) ;
#902 = EDGE_CURVE ( 'NONE', #1093, #901, #690, .T. ) ;
#903 = CARTESIAN_POINT ( 'NONE',  ( -123.6000000000000085, 5.599999999999987210, 15.00000000000000000 ) ) ;
#904 = CARTESIAN_POINT ( 'NONE',  ( -119.5387326286667786, 15.13939201416944336, 8.000000000000000000 ) ) ;
#905 = ORIENTED_EDGE ( 'NONE', *, *, #802, .F. ) ;
#906 = CARTESIAN_POINT ( 'NONE',  ( -120.3823302283038146, 11.71424967340589518, 12.91594915449618597 ) ) ;
#907 = VERTEX_POINT ( 'NONE', #971 ) ;
#908 = DIRECTION ( 'NONE',  ( 0.000000000000000000, 0.000000000000000000, -1.000000000000000000 ) ) ;
#909 = EDGE_CURVE ( 'NONE', #882, #780, #391, .T. ) ;
#910 = ORIENTED_EDGE ( 'NONE', *, *, #259, .T. ) ;
#911 = PLANE ( 'NONE',  #516 ) ;
#912 = ORIENTED_EDGE ( 'NONE', *, *, #668, .F. ) ;
#913 = FACE_OUTER_BOUND ( 'NONE', #763, .T. ) ;
#914 = DIRECTION ( 'NONE',  ( 1.000000000000000000, -4.336808689942009847E-16, -0.000000000000000000 ) ) ;
#915 = CARTESIAN_POINT ( 'NONE',  ( -115.0000000000000284, 4.999999999999999112, 0.000000000000000000 ) ) ;
#916 = DIRECTION ( 'NONE',  ( -1.000000000000000000, 0.000000000000000000, 0.000000000000000000 ) ) ;
#917 = VECTOR ( 'NONE', #781, 1000.000000000000000 ) ;
#918 = AXIS2_PLACEMENT_3D ( 'NONE', #504, #1112, #916 ) ;
#919 = ORIENTED_EDGE ( 'NONE', *, *, #115, .F. ) ;
#920 = DIRECTION ( 'NONE',  ( -0.000000000000000000, -0.000000000000000000, -1.000000000000000000 ) ) ;
#921 = DIRECTION ( 'NONE',  ( 0.000000000000000000, 1.000000000000000000, 0.000000000000000000 ) ) ;
#922 = EDGE_CURVE ( 'NONE', #1093, #470, #306, .T. ) ;
#923 = CARTESIAN_POINT ( 'NONE',  ( -123.6000000000000085, 15.59999999999998543, 0.000000000000000000 ) ) ;
#924 = CYLINDRICAL_SURFACE ( 'NONE', #37, 3.000000000000002665 ) ;
#925 = ORIENTED_EDGE ( 'NONE', *, *, #891, .F. ) ;
#926 = CARTESIAN_POINT ( 'NONE',  ( -123.6000000000000085, -15.60000000000001030, 15.00000000000000000 ) ) ;
#927 = ADVANCED_FACE ( 'NONE', ( #289 ), #195, .T. ) ;
#928 = ADVANCED_FACE ( 'NONE', ( #118 ), #911, .F. ) ;
#929 = ORIENTED_EDGE ( 'NONE', *, *, #524, .F. ) ;
#930 = DIRECTION ( 'NONE',  ( -1.000000000000000000, 4.336808689942009847E-16, 0.000000000000000000 ) ) ;
#931 = CARTESIAN_POINT ( 'NONE',  ( -116.5092883327574924, -10.04684351341418314, 13.95748632167673797 ) ) ;
#932 = DIRECTION ( 'NONE',  ( -0.000000000000000000, -0.000000000000000000, -1.000000000000000000 ) ) ;
#933 = AXIS2_PLACEMENT_3D ( 'NONE', #217, #955, #513 ) ;
#934 = ORIENTED_EDGE ( 'NONE', *, *, #668, .T. ) ;
#935 = FACE_OUTER_BOUND ( 'NONE', #708, .T. ) ;
#936 = AXIS2_PLACEMENT_3D ( 'NONE', #972, #609, #83 ) ;
#937 = CARTESIAN_POINT ( 'NONE',  ( -118.4739673673061020, -9.971611616687191315, 13.99399291132594314 ) ) ;
#938 = SURFACE_STYLE_FILL_AREA ( #326 ) ;
#939 = VERTEX_POINT ( 'NONE', #637 ) ;
#940 = FACE_OUTER_BOUND ( 'NONE', #387, .T. ) ;
#941 =( BOUNDED_CURVE ( )  B_SPLINE_CURVE ( 3, ( #543, #72, #442, #790 ),
 .UNSPECIFIED., .F., .F. ) 
 B_SPLINE_CURVE_WITH_KNOTS ( ( 4, 4 ),
 ( 3.141592653589793116, 3.430419633912789035 ),
 .UNSPECIFIED. ) 
 CURVE ( )  GEOMETRIC_REPRESENTATION_ITEM ( )  RATIONAL_B_SPLINE_CURVE ( ( 1.000000000000000000, 0.9930603212714743666, 0.9930603212714743666, 1.000000000000000000 ) ) 
 REPRESENTATION_ITEM ( '' )  );
#942 = CARTESIAN_POINT ( 'NONE',  ( -120.5368826295830473, -12.21628891372318293, 12.50154634161530609 ) ) ;
#943 = CYLINDRICAL_SURFACE ( 'NONE', #371, 2.000000000000001776 ) ;
#944 = EDGE_CURVE ( 'NONE', #882, #547, #476, .T. ) ;
#945 = ORIENTED_EDGE ( 'NONE', *, *, #78, .T. ) ;
#946 = CARTESIAN_POINT ( 'NONE',  ( -117.6000000000000085, 12.84999999999998721, 15.00000000000000000 ) ) ;
#947 = CARTESIAN_POINT ( 'NONE',  ( -119.5963265698145221, -10.60072955135110995, 13.66108606652925239 ) ) ;
#948 = CARTESIAN_POINT ( 'NONE',  ( -123.6000000000000227, 0.000000000000000000, 0.000000000000000000 ) ) ;
#949 = ORIENTED_EDGE ( 'NONE', *, *, #356, .T. ) ;
#950 = DIRECTION ( 'NONE',  ( -0.000000000000000000, -0.000000000000000000, -1.000000000000000000 ) ) ;
#951 = AXIS2_PLACEMENT_3D ( 'NONE', #304, #384, #120 ) ;
#952 = ORIENTED_EDGE ( 'NONE', *, *, #380, .T. ) ;
#953 = DIRECTION ( 'NONE',  ( -0.000000000000000000, -0.000000000000000000, 1.000000000000000000 ) ) ;
#954 =( GEOMETRIC_REPRESENTATION_CONTEXT ( 3 ) GLOBAL_UNCERTAINTY_ASSIGNED_CONTEXT ( ( #686 ) ) GLOBAL_UNIT_ASSIGNED_CONTEXT ( ( #2, #260, #173 ) ) REPRESENTATION_CONTEXT ( 'NONE', 'WORKASPACE' ) );
#955 = DIRECTION ( 'NONE',  ( 0.000000000000000000, 0.000000000000000000, -1.000000000000000000 ) ) ;
#956 = STYLED_ITEM ( 'NONE', ( #670 ), #1044 ) ;
#957 = PLANE ( 'NONE',  #1029 ) ;
#958 = EDGE_CURVE ( 'NONE', #572, #549, #151, .T. ) ;
#959 = ORIENTED_EDGE ( 'NONE', *, *, #1042, .F. ) ;
#960 = FACE_BOUND ( 'NONE', #385, .T. ) ;
#961 = FACE_OUTER_BOUND ( 'NONE', #170, .T. ) ;
#962 = DIRECTION ( 'NONE',  ( -0.7071067811865517916, -0.7071067811865432429, 0.000000000000000000 ) ) ;
#963 = ADVANCED_FACE ( 'NONE', ( #826 ), #1005, .F. ) ;
#964 = DIRECTION ( 'NONE',  ( 0.000000000000000000, 0.000000000000000000, 1.000000000000000000 ) ) ;
#965 = VERTEX_POINT ( 'NONE', #382 ) ;
#966 = FACE_OUTER_BOUND ( 'NONE', #720, .T. ) ;
#967 = CARTESIAN_POINT ( 'NONE',  ( -123.6000000000000085, 15.59999999999998899, 6.516307832886330864 ) ) ;
#968 = CARTESIAN_POINT ( 'NONE',  ( -110.6000000000000369, -5.600000000000018296, 15.00000000000000000 ) ) ;
#969 = APPLICATION_PROTOCOL_DEFINITION ( 'draft international standard', 'automotive_design', 1998, #339 ) ;
#970 = VERTEX_POINT ( 'NONE', #728 ) ;
#971 = CARTESIAN_POINT ( 'NONE',  ( -111.1857864376269447, -15.18578643762697133, 7.848279897097041768 ) ) ;
#972 = CARTESIAN_POINT ( 'NONE',  ( -117.6000000000000085, 12.84999999999998721, 0.000000000000000000 ) ) ;
#973 = VECTOR ( 'NONE', #456, 1000.000000000000000 ) ;
#974 = CARTESIAN_POINT ( 'NONE',  ( -123.6000000000000085, 15.59999999999998543, 15.00000000000000000 ) ) ;
#975 = AXIS2_PLACEMENT_3D ( 'NONE', #879, #1036, #11 ) ;
#976 = CIRCLE ( 'NONE', #918, 1.750000000000001554 ) ;
#977 = ORIENTED_EDGE ( 'NONE', *, *, #723, .F. ) ;
#978 = CARTESIAN_POINT ( 'NONE',  ( -124.5999999999999943, 14.60000000000001030, 9.358898943540639337 ) ) ;
#979 = ORIENTED_EDGE ( 'NONE', *, *, #344, .F. ) ;
#980 = LINE ( 'NONE', #367, #712 ) ;
#981 = CARTESIAN_POINT ( 'NONE',  ( -114.5999999999999943, 13.11920056438383320, 11.60411917515593316 ) ) ;
#982 = ORIENTED_EDGE ( 'NONE', *, *, #563, .T. ) ;
#983 = CARTESIAN_POINT ( 'NONE',  ( -119.0837654754007957, 10.23355618379527421, 13.86234368141023054 ) ) ;
#984 = ORIENTED_EDGE ( 'NONE', *, *, #755, .T. ) ;
#985 = LINE ( 'NONE', #473, #261 ) ;
#986 = LINE ( 'NONE', #1058, #55 ) ;
#987 = EDGE_CURVE ( 'NONE', #797, #460, #739, .T. ) ;
#988 = ORIENTED_EDGE ( 'NONE', *, *, #556, .F. ) ;
#989 = DIRECTION ( 'NONE',  ( 1.000000000000000000, 0.000000000000000000, -0.000000000000000000 ) ) ;
#990 = ORIENTED_EDGE ( 'NONE', *, *, #958, .F. ) ;
#991 = CARTESIAN_POINT ( 'NONE',  ( -112.6000000000000369, 15.13939201416944336, 8.000000000000000000 ) ) ;
#992 = CARTESIAN_POINT ( 'NONE',  ( -120.3575222799322546, 14.05086837725152549, 10.35960885860093761 ) ) ;
#993 = VECTOR ( 'NONE', #361, 1000.000000000000000 ) ;
#994 = AXIS2_PLACEMENT_3D ( 'NONE', #1092, #842, #831 ) ;
#995 = ORIENTED_EDGE ( 'NONE', *, *, #1076, .T. ) ;
#996 = CARTESIAN_POINT ( 'NONE',  ( -120.6000000000000085, 12.84999999999998721, 11.88748865697795587 ) ) ;
#997 = VERTEX_POINT ( 'NONE', #377 ) ;
#998 = LINE ( 'NONE', #297, #680 ) ;
#999 = DIRECTION ( 'NONE',  ( -1.000000000000000000, 0.000000000000000000, 0.000000000000000000 ) ) ;
#1000 = CARTESIAN_POINT ( 'NONE',  ( -118.4842667896052149, 9.974679128645840720, 13.99250752291816191 ) ) ;
#1001 = ORIENTED_EDGE ( 'NONE', *, *, #461, .F. ) ;
#1002 = DIRECTION ( 'NONE',  ( -1.000000000000000000, -0.000000000000000000, 0.000000000000000000 ) ) ;
#1003 = DIRECTION ( 'NONE',  ( -1.000000000000000000, 0.000000000000000000, 0.000000000000000000 ) ) ;
#1004 = FACE_OUTER_BOUND ( 'NONE', #671, .T. ) ;
#1005 = PLANE ( 'NONE',  #411 ) ;
#1006 = ORIENTED_EDGE ( 'NONE', *, *, #1122, .T. ) ;
#1007 = FACE_OUTER_BOUND ( 'NONE', #705, .T. ) ;
#1008 = CIRCLE ( 'NONE', #147, 3.000000000000002665 ) ;
#1009 = DIRECTION ( 'NONE',  ( 0.000000000000000000, 0.000000000000000000, -1.000000000000000000 ) ) ;
#1010 = AXIS2_PLACEMENT_3D ( 'NONE', #769, #1105, #591 ) ;
#1011 = VERTEX_POINT ( 'NONE', #721 ) ;
#1012 = ADVANCED_FACE ( 'NONE', ( #1021 ), #311, .F. ) ;
#1013 = DIRECTION ( 'NONE',  ( 0.000000000000000000, 0.000000000000000000, -1.000000000000000000 ) ) ;
#1014 = EDGE_CURVE ( 'NONE', #491, #1011, #44, .T. ) ;
#1015 = CARTESIAN_POINT ( 'NONE',  ( -115.5999122167829256, -10.60426042308104755, 13.65903111447132012 ) ) ;
#1016 = CARTESIAN_POINT ( 'NONE',  ( -123.6000000000000227, -13.77157287525386486, 0.000000000000000000 ) ) ;
#1017 = FACE_BOUND ( 'NONE', #775, .T. ) ;
#1018 =( BOUNDED_CURVE ( )  B_SPLINE_CURVE ( 3, ( #489, #69, #222, #305 ),
 .UNSPECIFIED., .F., .F. ) 
 B_SPLINE_CURVE_WITH_KNOTS ( ( 4, 4 ),
 ( 3.141592653589793116, 3.592619465386049260 ),
 .UNSPECIFIED. ) 
 CURVE ( )  GEOMETRIC_REPRESENTATION_ITEM ( )  RATIONAL_B_SPLINE_CURVE ( ( 1.000000000000000000, 0.9831196229872647407, 0.9831196229872647407, 1.000000000000000000 ) ) 
 REPRESENTATION_ITEM ( '' )  );
#1019 = ORIENTED_EDGE ( 'NONE', *, *, #587, .F. ) ;
#1020 = CARTESIAN_POINT ( 'NONE',  ( -124.5999999999999943, -14.60000000000003695, 9.358898943540618021 ) ) ;
#1021 = FACE_OUTER_BOUND ( 'NONE', #467, .T. ) ;
#1022 = EDGE_CURVE ( 'NONE', #457, #312, #241, .T. ) ;
#1023 = VERTEX_POINT ( 'NONE', #50 ) ;
#1024 = DIRECTION ( 'NONE',  ( -1.000000000000000000, 4.336808689942009847E-16, 0.000000000000000000 ) ) ;
#1025 = DIRECTION ( 'NONE',  ( -1.000000000000000000, 0.000000000000000000, 0.000000000000000000 ) ) ;
#1026 = ORIENTED_EDGE ( 'NONE', *, *, #1076, .F. ) ;
#1027 = DIRECTION ( 'NONE',  ( -1.000000000000000000, 0.000000000000000000, 0.000000000000000000 ) ) ;
#1028 = CIRCLE ( 'NONE', #847, 5.000000000000000000 ) ;
#1029 = AXIS2_PLACEMENT_3D ( 'NONE', #881, #693, #1048 ) ;
#1030 = DIRECTION ( 'NONE',  ( 0.000000000000000000, 0.000000000000000000, -1.000000000000000000 ) ) ;
#1031 = ORIENTED_EDGE ( 'NONE', *, *, #230, .F. ) ;
#1032 = CARTESIAN_POINT ( 'NONE',  ( -120.2000000000000313, -10.09999999999999964, 0.000000000000000000 ) ) ;
#1033 = FACE_OUTER_BOUND ( 'NONE', #15, .T. ) ;
#1034 = VERTEX_POINT ( 'NONE', #751 ) ;
#1035 = LINE ( 'NONE', #348, #132 ) ;
#1036 = DIRECTION ( 'NONE',  ( 1.000000000000000000, 0.000000000000000000, 0.000000000000000000 ) ) ;
#1037 = CARTESIAN_POINT ( 'NONE',  ( -117.6000000000000085, 12.84999999999998721, 8.000000000000000000 ) ) ;
#1038 = ADVANCED_FACE ( 'NONE', ( #746 ), #924, .F. ) ;
#1039 = ORIENTED_EDGE ( 'NONE', *, *, #841, .F. ) ;
#1040 = LINE ( 'NONE', #263, #221 ) ;
#1041 = AXIS2_PLACEMENT_3D ( 'NONE', #948, #76, #778 ) ;
#1042 = EDGE_CURVE ( 'NONE', #780, #882, #681, .T. ) ;
#1043 = ADVANCED_FACE ( 'NONE', ( #1017, #133, #596 ), #662, .F. ) ;
#1044 = MANIFOLD_SOLID_BREP ( 'Cut-Extrude4', #1078 ) ;
#1045 = EDGE_CURVE ( 'NONE', #427, #495, #398, .T. ) ;
#1046 = VECTOR ( 'NONE', #405, 1000.000000000000000 ) ;
#1047 = DIRECTION ( 'NONE',  ( 0.000000000000000000, 0.000000000000000000, -1.000000000000000000 ) ) ;
#1048 = DIRECTION ( 'NONE',  ( -0.000000000000000000, 0.000000000000000000, -1.000000000000000000 ) ) ;
#1049 = ORIENTED_EDGE ( 'NONE', *, *, #782, .T. ) ;
#1050 = CARTESIAN_POINT ( 'NONE',  ( -120.5999999999999943, -13.11920056438386339, 11.60411917515593316 ) ) ;
#1051 = DIRECTION ( 'NONE',  ( 0.000000000000000000, 0.000000000000000000, -1.000000000000000000 ) ) ;
#1052 = ORIENTED_EDGE ( 'NONE', *, *, #403, .T. ) ;
#1053 = CARTESIAN_POINT ( 'NONE',  ( -111.1857864376269447, 15.18578643762692693, 0.000000000000000000 ) ) ;
#1054 = DIRECTION ( 'NONE',  ( -0.000000000000000000, -0.000000000000000000, -1.000000000000000000 ) ) ;
#1055 = EDGE_LOOP ( 'NONE', ( #294, #828, #905, #190 ) ) ;
#1056 = CARTESIAN_POINT ( 'NONE',  ( -120.5634436291011298, -13.37429290686240613, 11.30148394823106628 ) ) ;
#1057 = AXIS2_PLACEMENT_3D ( 'NONE', #1118, #319, #43 ) ;
#1058 = CARTESIAN_POINT ( 'NONE',  ( -120.6000000000000085, 12.84999999999998721, 15.00000000000000000 ) ) ;
#1059 = AXIS2_PLACEMENT_3D ( 'NONE', #884, #953, #171 ) ;
#1060 = VERTEX_POINT ( 'NONE', #320 ) ;
#1061 = CARTESIAN_POINT ( 'NONE',  ( -115.1908820873956927, 11.05098084875884190, 13.38565102923896433 ) ) ;
#1062 = ORIENTED_EDGE ( 'NONE', *, *, #1022, .F. ) ;
#1063 = LINE ( 'NONE', #291, #73 ) ;
#1064 = CARTESIAN_POINT ( 'NONE',  ( -119.3500000000000085, -12.85000000000001563, 15.00000000000000000 ) ) ;
#1065 = EDGE_CURVE ( 'NONE', #1060, #491, #976, .T. ) ;
#1066 = ORIENTED_EDGE ( 'NONE', *, *, #77, .T. ) ;
#1067 = DIRECTION ( 'NONE',  ( -1.000000000000000000, 0.000000000000000000, 0.000000000000000000 ) ) ;
#1068 = VERTEX_POINT ( 'NONE', #1103 ) ;
#1069 = LINE ( 'NONE', #991, #1096 ) ;
#1070 = CARTESIAN_POINT ( 'NONE',  ( -115.0772981092790985, -11.21551222978238371, 13.27687239439615041 ) ) ;
#1071 = ADVANCED_FACE ( 'NONE', ( #150 ), #490, .T. ) ;
#1072 = EDGE_LOOP ( 'NONE', ( #290, #995, #34, #415 ) ) ;
#1073 = DIRECTION ( 'NONE',  ( -0.7071067811865504593, -0.7071067811865445751, 0.000000000000000000 ) ) ;
#1074 = ORIENTED_EDGE ( 'NONE', *, *, #1014, .T. ) ;
#1075 = DIRECTION ( 'NONE',  ( -1.000000000000000000, -0.000000000000000000, 0.000000000000000000 ) ) ;
#1076 = EDGE_CURVE ( 'NONE', #460, #457, #62, .T. ) ;
#1077 = DIRECTION ( 'NONE',  ( 0.000000000000000000, 0.000000000000000000, -1.000000000000000000 ) ) ;
#1078 = CLOSED_SHELL ( 'NONE', ( #253, #1038, #1012, #641, #432, #791, #1043, #139, #1125, #873, #673, #928, #760, #718, #28, #406, #758, #843, #927, #149, #1071, #691, #817, #963, #644, #838, #87, #53, #610, #325, #642, #640 ) ) ;
#1079 = VECTOR ( 'NONE', #468, 1000.000000000000000 ) ;
#1080 = ORIENTED_EDGE ( 'NONE', *, *, #144, .F. ) ;
#1081 = CARTESIAN_POINT ( 'NONE',  ( -115.0000000000000284, 0.000000000000000000, 0.000000000000000000 ) ) ;
#1082 = VECTOR ( 'NONE', #921, 1000.000000000000000 ) ;
#1083 = EDGE_LOOP ( 'NONE', ( #616, #373, #1088, #651 ) ) ;
#1084 = CARTESIAN_POINT ( 'NONE',  ( -123.6000000000000085, 15.59999999999998543, 4.999999999999999112 ) ) ;
#1085 = DIRECTION ( 'NONE',  ( -1.000000000000000000, 0.000000000000000000, 0.000000000000000000 ) ) ;
#1086 = CARTESIAN_POINT ( 'NONE',  ( -114.6361958905304448, -13.37292957203148269, 11.30331242362009547 ) ) ;
#1087 = DIRECTION ( 'NONE',  ( 1.000000000000000000, 0.000000000000000000, 0.000000000000000000 ) ) ;
#1088 = ORIENTED_EDGE ( 'NONE', *, *, #429, .T. ) ;
#1089 = DIRECTION ( 'NONE',  ( -1.000000000000000000, -0.000000000000000000, -0.000000000000000000 ) ) ;
#1090 = CARTESIAN_POINT ( 'NONE',  ( -120.4429854525889425, 13.83743296125933675, 10.68285842250911166 ) ) ;
#1091 = DIRECTION ( 'NONE',  ( -1.000000000000000000, 0.000000000000000000, 0.000000000000000000 ) ) ;
#1092 = CARTESIAN_POINT ( 'NONE',  ( -117.6000000000000085, -12.85000000000001563, 8.000000000000000000 ) ) ;
#1093 = VERTEX_POINT ( 'NONE', #335 ) ;
#1094 = FACE_OUTER_BOUND ( 'NONE', #658, .T. ) ;
#1095 = CARTESIAN_POINT ( 'NONE',  ( -114.8924477551214238, -11.54434463134765565, 13.04396426768051498 ) ) ;
#1096 = VECTOR ( 'NONE', #1002, 1000.000000000000000 ) ;
#1097 = LINE ( 'NONE', #483, #592 ) ;
#1098 = DIRECTION ( 'NONE',  ( 0.000000000000000000, 0.000000000000000000, 1.000000000000000000 ) ) ;
#1099 = ORIENTED_EDGE ( 'NONE', *, *, #232, .F. ) ;
#1100 = CARTESIAN_POINT ( 'NONE',  ( -112.6000000000000369, -5.600000000000016520, 4.999999999999999112 ) ) ;
#1101 = CARTESIAN_POINT ( 'NONE',  ( -118.0423037135626316, -9.874549434241131962, 14.04052674075822971 ) ) ;
#1102 = EDGE_CURVE ( 'NONE', #472, #683, #682, .T. ) ;
#1103 = CARTESIAN_POINT ( 'NONE',  ( -119.5387326286667786, 15.13939201416944336, 8.000000000000000000 ) ) ;
#1104 = VERTEX_POINT ( 'NONE', #604 ) ;
#1105 = DIRECTION ( 'NONE',  ( -1.000000000000000000, 0.000000000000000000, 0.000000000000000000 ) ) ;
#1106 = ADVANCED_BREP_SHAPE_REPRESENTATION ( 'camera_tracker_bearing_mount', ( #1044, #5 ), #954 ) ;
#1107 = CARTESIAN_POINT ( 'NONE',  ( -110.6000000000000369, 5.599999999999987210, 15.00000000000000000 ) ) ;
#1108 = CARTESIAN_POINT ( 'NONE',  ( -114.6000000000000085, 12.84999999999998721, 15.00000000000000000 ) ) ;
#1109 = ORIENTED_EDGE ( 'NONE', *, *, #526, .F. ) ;
#1110 = CARTESIAN_POINT ( 'NONE',  ( -112.6000000000000369, -13.77157287525386486, 15.00000000000000000 ) ) ;
#1111 = CARTESIAN_POINT ( 'NONE',  ( -117.8166636503721918, -9.849613605440950437, 14.05211491260923040 ) ) ;
#1112 = DIRECTION ( 'NONE',  ( -0.000000000000000000, -0.000000000000000000, 1.000000000000000000 ) ) ;
#1113 = CIRCLE ( 'NONE', #300, 1.750000000000001554 ) ;
#1114 = ORIENTED_EDGE ( 'NONE', *, *, #193, .T. ) ;
#1115 = DIRECTION ( 'NONE',  ( -1.000000000000000000, 0.000000000000000000, 0.000000000000000000 ) ) ;
#1116 = AXIS2_PLACEMENT_3D ( 'NONE', #86, #519, #175 ) ;
#1117 = CARTESIAN_POINT ( 'NONE',  ( -120.6000000000000085, -12.85000000000001563, 11.88748865697795232 ) ) ;
#1118 = CARTESIAN_POINT ( 'NONE',  ( -112.6000000000000369, -13.77157287525386486, 0.000000000000000000 ) ) ;
#1119 = APPLICATION_PROTOCOL_DEFINITION ( 'draft international standard', 'automotive_design', 1998, #451 ) ;
#1120 = VERTEX_POINT ( 'NONE', #352 ) ;
#1121 = CARTESIAN_POINT ( 'NONE',  ( -123.6000000000000227, -4.999999999999999112, 0.000000000000000000 ) ) ;
#1122 = EDGE_CURVE ( 'NONE', #567, #427, #233, .T. ) ;
#1123 = CARTESIAN_POINT ( 'NONE',  ( -110.6000000000000369, 13.77157287525382934, 10.76414752972333666 ) ) ;
#1124 = LINE ( 'NONE', #345, #514 ) ;
#1125 = ADVANCED_FACE ( 'NONE', ( #166 ), #957, .F. ) ;
#1126 = EDGE_LOOP ( 'NONE', ( #454, #1006, #876, #701 ) ) ;
#1127 = EDGE_CURVE ( 'NONE', #495, #174, #787, .T. ) ;
#1128 = CARTESIAN_POINT ( 'NONE',  ( -119.6699432990633625, -15.02827849304567032, 8.353318478691532434 ) ) ;
#1129 = DIRECTION ( 'NONE',  ( 0.000000000000000000, -1.000000000000000000, 0.000000000000000000 ) ) ;
ENDSEC;
END-ISO-10303-21;
