ISO-10303-21;
HEADER;
FILE_DESCRIPTION (( 'STEP AP214' ),
    '1' );
FILE_NAME ('camera_cover.STEP',
    '2026-05-17T05:00:13',
    ( '' ),
    ( '' ),
    'SwSTEP 2.0',
    'SolidWorks 2024',
    '' );
FILE_SCHEMA (( 'AUTOMOTIVE_DESIGN' ));
ENDSEC;

DATA;
#1 = ORIENTED_EDGE ( 'NONE', *, *, #617, .T. ) ;
#2 = ADVANCED_FACE ( 'NONE', ( #640 ), #943, .F. ) ;
#3 = FACE_OUTER_BOUND ( 'NONE', #126, .T. ) ;
#4 = ORIENTED_EDGE ( 'NONE', *, *, #383, .F. ) ;
#5 = VECTOR ( 'NONE', #604, 1000.000000000000000 ) ;
#6 = VECTOR ( 'NONE', #503, 1000.000000000000000 ) ;
#7 = DIRECTION ( 'NONE',  ( 1.000000000000000000, 0.000000000000000000, 0.000000000000000000 ) ) ;
#8 = EDGE_CURVE ( 'NONE', #399, #429, #855, .T. ) ;
#9 = CIRCLE ( 'NONE', #587, 1.750000000000001554 ) ;
#10 = VECTOR ( 'NONE', #493, 1000.000000000000000 ) ;
#11 = ORIENTED_EDGE ( 'NONE', *, *, #382, .T. ) ;
#12 = FACE_OUTER_BOUND ( 'NONE', #672, .T. ) ;
#13 = CYLINDRICAL_SURFACE ( 'NONE', #717, 4.999999999999997335 ) ;
#14 = VERTEX_POINT ( 'NONE', #130 ) ;
#15 = CARTESIAN_POINT ( 'NONE',  ( -34.89999999999999147, -17.99999999999999289, 3.000000000000000000 ) ) ;
#16 = CARTESIAN_POINT ( 'NONE',  ( -32.82893218813451597, 13.00000000000000711, 3.000000000000000000 ) ) ;
#17 = ORIENTED_EDGE ( 'NONE', *, *, #835, .F. ) ;
#18 = CARTESIAN_POINT ( 'NONE',  ( 38.43553390593273633, -14.46446609406725869, 3.000000000000000000 ) ) ;
#19 = VECTOR ( 'NONE', #564, 1000.000000000000000 ) ;
#20 = DIRECTION ( 'NONE',  ( 0.7071067811865474617, -0.7071067811865474617, -0.000000000000000000 ) ) ;
#21 = AXIS2_PLACEMENT_3D ( 'NONE', #844, #176, #470 ) ;
#22 = DIRECTION ( 'NONE',  ( -1.000000000000000000, 0.000000000000000000, 0.000000000000000000 ) ) ;
#23 = ORIENTED_EDGE ( 'NONE', *, *, #488, .F. ) ;
#24 = LINE ( 'NONE', #100, #867 ) ;
#25 = CARTESIAN_POINT ( 'NONE',  ( -36.36446609406725372, 16.53553390593274486, 0.000000000000000000 ) ) ;
#26 = DIRECTION ( 'NONE',  ( -0.000000000000000000, -0.000000000000000000, -1.000000000000000000 ) ) ;
#27 = ORIENTED_EDGE ( 'NONE', *, *, #79, .F. ) ;
#28 = ORIENTED_EDGE ( 'NONE', *, *, #519, .F. ) ;
#29 = LINE ( 'NONE', #34, #369 ) ;
#30 = FACE_OUTER_BOUND ( 'NONE', #650, .T. ) ;
#31 = CARTESIAN_POINT ( 'NONE',  ( 32.99999999999997158, -13.50000000000005329, 3.000000000000000000 ) ) ;
#32 = VERTEX_POINT ( 'NONE', #428 ) ;
#33 = ORIENTED_EDGE ( 'NONE', *, *, #744, .T. ) ;
#34 = CARTESIAN_POINT ( 'NONE',  ( -38.43553390593272923, 14.46446609406726225, 0.000000000000000000 ) ) ;
#35 = CARTESIAN_POINT ( 'NONE',  ( -31.24999999999999645, -13.50000000000000178, 3.000000000000000000 ) ) ;
#36 = CIRCLE ( 'NONE', #179, 4.999999999999997335 ) ;
#37 = EDGE_CURVE ( 'NONE', #376, #158, #305, .T. ) ;
#38 = AXIS2_PLACEMENT_3D ( 'NONE', #248, #543, #772 ) ;
#39 = EDGE_CURVE ( 'NONE', #117, #48, #58, .T. ) ;
#40 = DIRECTION ( 'NONE',  ( -0.7071067811865479058, 0.7071067811865472397, -0.000000000000000000 ) ) ;
#41 = ORIENTED_EDGE ( 'NONE', *, *, #869, .T. ) ;
#42 = ORIENTED_EDGE ( 'NONE', *, *, #865, .F. ) ;
#43 = VECTOR ( 'NONE', #20, 1000.000000000000114 ) ;
#44 = PRODUCT_RELATED_PRODUCT_CATEGORY ( 'part', '', ( #575 ) ) ;
#45 = CIRCLE ( 'NONE', #590, 4.999999999999997335 ) ;
#46 = DIRECTION ( 'NONE',  ( -0.000000000000000000, -0.000000000000000000, -1.000000000000000000 ) ) ;
#47 = DIRECTION ( 'NONE',  ( 1.000000000000000000, 0.000000000000000000, 0.000000000000000000 ) ) ;
#48 = VERTEX_POINT ( 'NONE', #188 ) ;
#49 = EDGE_LOOP ( 'NONE', ( #182, #670, #924, #374 ) ) ;
#50 = FACE_BOUND ( 'NONE', #594, .T. ) ;
#51 = CARTESIAN_POINT ( 'NONE',  ( 34.74999999999997158, -13.50000000000005329, 0.000000000000000000 ) ) ;
#52 = ORIENTED_EDGE ( 'NONE', *, *, #908, .F. ) ;
#53 = ORIENTED_EDGE ( 'NONE', *, *, #39, .T. ) ;
#54 = CARTESIAN_POINT ( 'NONE',  ( 39.90000000000000568, 10.92893218813450673, 3.000000000000000000 ) ) ;
#55 = EDGE_CURVE ( 'NONE', #32, #923, #208, .T. ) ;
#56 = DIRECTION ( 'NONE',  ( -1.000000000000000000, 0.000000000000000000, 0.000000000000000000 ) ) ;
#57 = CIRCLE ( 'NONE', #352, 4.999999999999997335 ) ;
#58 = LINE ( 'NONE', #280, #90 ) ;
#59 = ORIENTED_EDGE ( 'NONE', *, *, #687, .T. ) ;
#60 = FACE_BOUND ( 'NONE', #731, .T. ) ;
#61 = CARTESIAN_POINT ( 'NONE',  ( 34.57893218813450886, 13.00000000000000000, 0.000000000000000000 ) ) ;
#62 = AXIS2_PLACEMENT_3D ( 'NONE', #967, #907, #236 ) ;
#63 = APPLICATION_PROTOCOL_DEFINITION ( 'draft international standard', 'automotive_design', 1998, #747 ) ;
#64 = DIRECTION ( 'NONE',  ( -0.000000000000000000, -0.000000000000000000, -1.000000000000000000 ) ) ;
#65 = VERTEX_POINT ( 'NONE', #259 ) ;
#66 = FACE_BOUND ( 'NONE', #75, .T. ) ;
#67 = CARTESIAN_POINT ( 'NONE',  ( 39.89999999999999858, -10.92893218813452272, 3.000000000000000000 ) ) ;
#68 = APPLICATION_PROTOCOL_DEFINITION ( 'draft international standard', 'automotive_design', 1998, #108 ) ;
#69 = CARTESIAN_POINT ( 'NONE',  ( 10.00000000000000000, 1.224646799147353256E-15, 3.000000000000000000 ) ) ;
#70 = ORIENTED_EDGE ( 'NONE', *, *, #491, .T. ) ;
#71 = CARTESIAN_POINT ( 'NONE',  ( 31.24999999999998224, -13.50000000000005329, 3.000000000000000000 ) ) ;
#72 = EDGE_CURVE ( 'NONE', #459, #481, #812, .T. ) ;
#73 = CYLINDRICAL_SURFACE ( 'NONE', #438, 4.999999999999997335 ) ;
#74 = CIRCLE ( 'NONE', #162, 9.999999999999998224 ) ;
#75 = EDGE_LOOP ( 'NONE', ( #582, #28 ) ) ;
#76 = CARTESIAN_POINT ( 'NONE',  ( -34.89999999999999147, -10.92893218813451384, 3.000000000000000000 ) ) ;
#77 = ADVANCED_FACE ( 'NONE', ( #683 ), #13, .T. ) ;
#78 = AXIS2_PLACEMENT_3D ( 'NONE', #730, #737, #627 ) ;
#79 = EDGE_CURVE ( 'NONE', #376, #644, #465, .T. ) ;
#80 = EDGE_LOOP ( 'NONE', ( #577, #820 ) ) ;
#81 = CARTESIAN_POINT ( 'NONE',  ( -38.43553390593272923, 14.46446609406726225, 3.000000000000000000 ) ) ;
#82 = VERTEX_POINT ( 'NONE', #387 ) ;
#83 = PLANE ( 'NONE',  #134 ) ;
#84 = EDGE_CURVE ( 'NONE', #487, #384, #537, .T. ) ;
#85 = EDGE_CURVE ( 'NONE', #168, #616, #963, .T. ) ;
#86 = ORIENTED_EDGE ( 'NONE', *, *, #148, .T. ) ;
#87 = CIRCLE ( 'NONE', #626, 4.999999999999997335 ) ;
#88 = DIRECTION ( 'NONE',  ( 0.000000000000000000, 0.000000000000000000, 1.000000000000000000 ) ) ;
#89 = CARTESIAN_POINT ( 'NONE',  ( -38.43553390593272923, 14.46446609406726225, 3.000000000000000000 ) ) ;
#90 = VECTOR ( 'NONE', #929, 1000.000000000000000 ) ;
#91 = AXIS2_PLACEMENT_3D ( 'NONE', #576, #877, #207 ) ;
#92 = EDGE_LOOP ( 'NONE', ( #367, #177, #434, #956 ) ) ;
#93 = LINE ( 'NONE', #225, #663 ) ;
#94 = LINE ( 'NONE', #160, #552 ) ;
#95 = ORIENTED_EDGE ( 'NONE', *, *, #944, .F. ) ;
#96 = DIRECTION ( 'NONE',  ( -0.000000000000000000, -0.000000000000000000, 1.000000000000000000 ) ) ;
#97 = DIRECTION ( 'NONE',  ( -1.000000000000000000, 0.000000000000000000, 0.000000000000000000 ) ) ;
#98 = CARTESIAN_POINT ( 'NONE',  ( 38.43553390593274344, 14.46446609406725869, 3.000000000000000000 ) ) ;
#99 = ORIENTED_EDGE ( 'NONE', *, *, #286, .F. ) ;
#100 = CARTESIAN_POINT ( 'NONE',  ( 38.43553390593273633, -14.46446609406725692, 3.000000000000000000 ) ) ;
#101 = AXIS2_PLACEMENT_3D ( 'NONE', #277, #346, #722 ) ;
#102 = CYLINDRICAL_SURFACE ( 'NONE', #932, 1.749999999999980682 ) ;
#103 = ADVANCED_FACE ( 'NONE', ( #828 ), #73, .T. ) ;
#104 = CARTESIAN_POINT ( 'NONE',  ( -32.82893218813451597, 13.00000000000000711, 0.000000000000000000 ) ) ;
#105 = ORIENTED_EDGE ( 'NONE', *, *, #278, .F. ) ;
#106 = DIRECTION ( 'NONE',  ( 0.000000000000000000, 0.000000000000000000, -1.000000000000000000 ) ) ;
#107 = DIRECTION ( 'NONE',  ( -1.000000000000000000, 0.000000000000000000, 0.000000000000000000 ) ) ;
#108 = APPLICATION_CONTEXT ( 'automotive_design' ) ;
#109 = ORIENTED_EDGE ( 'NONE', *, *, #286, .T. ) ;
#110 = DIRECTION ( 'NONE',  ( -1.000000000000000000, 0.000000000000000000, 0.000000000000000000 ) ) ;
#111 = EDGE_CURVE ( 'NONE', #900, #249, #366, .T. ) ;
#112 = DIRECTION ( 'NONE',  ( -0.000000000000000000, -0.000000000000000000, 1.000000000000000000 ) ) ;
#113 = ADVANCED_FACE ( 'NONE', ( #960 ), #668, .F. ) ;
#114 = DIRECTION ( 'NONE',  ( 1.000000000000000000, 0.000000000000000000, 0.000000000000000000 ) ) ;
#115 = DIRECTION ( 'NONE',  ( -1.000000000000000000, 0.000000000000000000, 0.000000000000000000 ) ) ;
#116 = EDGE_CURVE ( 'NONE', #841, #506, #94, .T. ) ;
#117 = VERTEX_POINT ( 'NONE', #308 ) ;
#118 = DIRECTION ( 'NONE',  ( 0.000000000000000000, 0.000000000000000000, 1.000000000000000000 ) ) ;
#119 = CIRCLE ( 'NONE', #471, 4.999999999999997335 ) ;
#120 = CARTESIAN_POINT ( 'NONE',  ( 10.00000000000000000, 1.224646799147353256E-15, 3.000000000000000000 ) ) ;
#121 = VERTEX_POINT ( 'NONE', #292 ) ;
#122 = ORIENTED_EDGE ( 'NONE', *, *, #955, .T. ) ;
#123 = LINE ( 'NONE', #951, #19 ) ;
#124 = CIRCLE ( 'NONE', #854, 1.749999999999980682 ) ;
#125 = CARTESIAN_POINT ( 'NONE',  ( 34.74999999999997158, -13.50000000000005329, 3.000000000000000000 ) ) ;
#126 = EDGE_LOOP ( 'NONE', ( #328, #379, #463, #167 ) ) ;
#127 = EDGE_LOOP ( 'NONE', ( #27, #348, #846, #105 ) ) ;
#128 = DIRECTION ( 'NONE',  ( 0.000000000000000000, 0.000000000000000000, 1.000000000000000000 ) ) ;
#129 = DIRECTION ( 'NONE',  ( -0.000000000000000000, -0.000000000000000000, -1.000000000000000000 ) ) ;
#130 = CARTESIAN_POINT ( 'NONE',  ( -38.43553390593272923, -14.46446609406725337, 0.000000000000000000 ) ) ;
#131 = EDGE_LOOP ( 'NONE', ( #662, #549, #99, #787 ) ) ;
#132 = DIRECTION ( 'NONE',  ( -0.000000000000000000, -0.000000000000000000, -1.000000000000000000 ) ) ;
#133 = PLANE ( 'NONE',  #91 ) ;
#134 = AXIS2_PLACEMENT_3D ( 'NONE', #598, #819, #377 ) ;
#135 = PRODUCT_CONTEXT ( 'NONE', #108, 'mechanical' ) ;
#136 = CIRCLE ( 'NONE', #733, 1.749999999999991118 ) ;
#137 = ORIENTED_EDGE ( 'NONE', *, *, #705, .F. ) ;
#138 = ORIENTED_EDGE ( 'NONE', *, *, #501, .F. ) ;
#139 = DIRECTION ( 'NONE',  ( -0.7071067811865474617, -0.7071067811865474617, -0.000000000000000000 ) ) ;
#140 = DIRECTION ( 'NONE',  ( 0.000000000000000000, 0.000000000000000000, 1.000000000000000000 ) ) ;
#141 = AXIS2_PLACEMENT_3D ( 'NONE', #213, #511, #817 ) ;
#142 = VECTOR ( 'NONE', #499, 1000.000000000000000 ) ;
#143 = DIRECTION ( 'NONE',  ( -1.000000000000000000, 0.000000000000000000, 0.000000000000000000 ) ) ;
#144 = ORIENTED_EDGE ( 'NONE', *, *, #252, .F. ) ;
#145 = DIRECTION ( 'NONE',  ( -1.000000000000000000, 0.000000000000000000, 0.000000000000000000 ) ) ;
#146 = EDGE_CURVE ( 'NONE', #436, #121, #124, .T. ) ;
#147 = CARTESIAN_POINT ( 'NONE',  ( -38.43553390593272923, -14.46446609406725337, 3.000000000000000000 ) ) ;
#148 = EDGE_CURVE ( 'NONE', #496, #14, #884, .T. ) ;
#149 = ORIENTED_EDGE ( 'NONE', *, *, #845, .F. ) ;
#150 = DIRECTION ( 'NONE',  ( 1.000000000000000000, 0.000000000000000000, 0.000000000000000000 ) ) ;
#151 = ADVANCED_FACE ( 'NONE', ( #660 ), #743, .F. ) ;
#152 = VECTOR ( 'NONE', #646, 1000.000000000000000 ) ;
#153 = EDGE_LOOP ( 'NONE', ( #783, #480, #189, #755 ) ) ;
#154 = CARTESIAN_POINT ( 'NONE',  ( -34.75000000000000000, -13.50000000000000178, 0.000000000000000000 ) ) ;
#155 = VERTEX_POINT ( 'NONE', #89 ) ;
#156 = ADVANCED_FACE ( 'NONE', ( #381 ), #891, .F. ) ;
#157 = CARTESIAN_POINT ( 'NONE',  ( 30.75786437626905112, -8.000000000000001776, 0.000000000000000000 ) ) ;
#158 = VERTEX_POINT ( 'NONE', #834 ) ;
#159 = DIRECTION ( 'NONE',  ( 0.000000000000000000, 0.000000000000000000, 1.000000000000000000 ) ) ;
#160 = CARTESIAN_POINT ( 'NONE',  ( 37.82893218813453018, -15.07106781186546840, 3.000000000000000000 ) ) ;
#161 = ORIENTED_EDGE ( 'NONE', *, *, #674, .F. ) ;
#162 = AXIS2_PLACEMENT_3D ( 'NONE', #157, #901, #230 ) ;
#163 = CARTESIAN_POINT ( 'NONE',  ( -34.75000000000000000, -13.50000000000000178, 3.000000000000000000 ) ) ;
#164 = FACE_OUTER_BOUND ( 'NONE', #578, .T. ) ;
#165 = AXIS2_PLACEMENT_3D ( 'NONE', #922, #856, #614 ) ;
#166 = AXIS2_PLACEMENT_3D ( 'NONE', #883, #515, #734 ) ;
#167 = ORIENTED_EDGE ( 'NONE', *, *, #394, .T. ) ;
#168 = VERTEX_POINT ( 'NONE', #443 ) ;
#169 = CARTESIAN_POINT ( 'NONE',  ( -32.82893218813451597, 13.00000000000000711, 3.000000000000000000 ) ) ;
#170 = CARTESIAN_POINT ( 'NONE',  ( 32.82893218813453728, 18.00000000000000000, 3.000000000000000000 ) ) ;
#171 = CARTESIAN_POINT ( 'NONE',  ( 36.36446609406726793, 16.53553390593273775, 0.000000000000000000 ) ) ;
#172 = ORIENTED_EDGE ( 'NONE', *, *, #903, .T. ) ;
#173 = DIRECTION ( 'NONE',  ( -0.000000000000000000, -0.000000000000000000, -1.000000000000000000 ) ) ;
#174 = CARTESIAN_POINT ( 'NONE',  ( -34.89999999999999147, -17.99999999999999289, 3.000000000000000000 ) ) ;
#175 = ADVANCED_FACE ( 'NONE', ( #164 ), #462, .T. ) ;
#176 = DIRECTION ( 'NONE',  ( 0.000000000000000000, 0.000000000000000000, 1.000000000000000000 ) ) ;
#177 = ORIENTED_EDGE ( 'NONE', *, *, #908, .T. ) ;
#178 = LINE ( 'NONE', #702, #897 ) ;
#179 = AXIS2_PLACEMENT_3D ( 'NONE', #460, #751, #697 ) ;
#180 = CARTESIAN_POINT ( 'NONE',  ( -32.82893218813451597, 18.00000000000000711, 3.000000000000000000 ) ) ;
#181 = CARTESIAN_POINT ( 'NONE',  ( 38.43553390593274344, 14.46446609406725869, 0.000000000000000000 ) ) ;
#182 = ORIENTED_EDGE ( 'NONE', *, *, #431, .F. ) ;
#183 = VECTOR ( 'NONE', #46, 1000.000000000000000 ) ;
#184 = EDGE_CURVE ( 'NONE', #616, #886, #913, .T. ) ;
#185 = EDGE_CURVE ( 'NONE', #254, #886, #440, .T. ) ;
#186 = DIRECTION ( 'NONE',  ( 0.000000000000000000, 0.000000000000000000, 1.000000000000000000 ) ) ;
#187 = DIRECTION ( 'NONE',  ( 0.000000000000000000, 0.000000000000000000, 1.000000000000000000 ) ) ;
#188 = CARTESIAN_POINT ( 'NONE',  ( -39.89999999999999147, -10.92893218813451561, 0.000000000000000000 ) ) ;
#189 = ORIENTED_EDGE ( 'NONE', *, *, #382, .F. ) ;
#190 = FACE_OUTER_BOUND ( 'NONE', #881, .T. ) ;
#191 = CYLINDRICAL_SURFACE ( 'NONE', #736, 4.999999999999997335 ) ;
#192 = CARTESIAN_POINT ( 'NONE',  ( -10.00000000000000000, 0.000000000000000000, 3.000000000000000000 ) ) ;
#193 = ORIENTED_EDGE ( 'NONE', *, *, #39, .F. ) ;
#194 = VERTEX_POINT ( 'NONE', #196 ) ;
#195 = LINE ( 'NONE', #54, #6 ) ;
#196 = CARTESIAN_POINT ( 'NONE',  ( -10.00000000000000000, 0.000000000000000000, 0.000000000000000000 ) ) ;
#197 = COLOUR_RGB ( '',0.7921568627450980005, 0.8196078431372548767, 0.9333333333333333481 ) ;
#198 = CIRCLE ( 'NONE', #887, 1.750000000000005107 ) ;
#199 = ORIENTED_EDGE ( 'NONE', *, *, #693, .F. ) ;
#200 = ORIENTED_EDGE ( 'NONE', *, *, #801, .T. ) ;
#201 = LINE ( 'NONE', #799, #392 ) ;
#202 = VECTOR ( 'NONE', #534, 1000.000000000000000 ) ;
#203 = CARTESIAN_POINT ( 'NONE',  ( -39.89999999999999147, -10.92893218813451561, 3.000000000000000000 ) ) ;
#204 = EDGE_LOOP ( 'NONE', ( #961, #909, #199, #356 ) ) ;
#205 = ORIENTED_EDGE ( 'NONE', *, *, #239, .T. ) ;
#206 = DIRECTION ( 'NONE',  ( 1.000000000000000000, 0.000000000000000000, 0.000000000000000000 ) ) ;
#207 = DIRECTION ( 'NONE',  ( 0.7071067811865479058, -0.7071067811865472397, 0.000000000000000000 ) ) ;
#208 = LINE ( 'NONE', #505, #358 ) ;
#209 = ORIENTED_EDGE ( 'NONE', *, *, #674, .T. ) ;
#210 = CARTESIAN_POINT ( 'NONE',  ( -34.89999999999999147, -10.92893218813451384, 0.000000000000000000 ) ) ;
#211 = CARTESIAN_POINT ( 'NONE',  ( -37.82893218813451597, -15.07106781186547018, 0.000000000000000000 ) ) ;
#212 = VECTOR ( 'NONE', #673, 1000.000000000000000 ) ;
#213 = CARTESIAN_POINT ( 'NONE',  ( 32.82893218813453018, 13.00000000000000000, 3.000000000000000000 ) ) ;
#214 = EDGE_LOOP ( 'NONE', ( #340, #264, #500, #808 ) ) ;
#215 = EDGE_CURVE ( 'NONE', #950, #900, #632, .T. ) ;
#216 = ADVANCED_FACE ( 'NONE', ( #30 ), #716, .F. ) ;
#217 = DIRECTION ( 'NONE',  ( 1.000000000000000000, 0.000000000000000000, 0.000000000000000000 ) ) ;
#218 = VECTOR ( 'NONE', #296, 1000.000000000000000 ) ;
#219 = CIRCLE ( 'NONE', #553, 4.999999999999997335 ) ;
#220 = SHAPE_DEFINITION_REPRESENTATION ( #427, #735 ) ;
#221 = DIRECTION ( 'NONE',  ( -0.000000000000000000, -0.000000000000000000, -1.000000000000000000 ) ) ;
#222 = ORIENTED_EDGE ( 'NONE', *, *, #313, .T. ) ;
#223 = DIRECTION ( 'NONE',  ( 0.7071067811865470176, 0.7071067811865480168, -0.000000000000000000 ) ) ;
#224 = ORIENTED_EDGE ( 'NONE', *, *, #667, .T. ) ;
#225 = CARTESIAN_POINT ( 'NONE',  ( -30.75786437626904046, -17.99999999999999645, 3.000000000000000000 ) ) ;
#226 = EDGE_CURVE ( 'NONE', #496, #852, #770, .T. ) ;
#227 = AXIS2_PLACEMENT_3D ( 'NONE', #210, #128, #206 ) ;
#228 = CIRCLE ( 'NONE', #647, 1.750000000000005107 ) ;
#229 = VERTEX_POINT ( 'NONE', #330 ) ;
#230 = DIRECTION ( 'NONE',  ( 1.000000000000000000, 0.000000000000000000, 0.000000000000000000 ) ) ;
#231 = VERTEX_POINT ( 'NONE', #474 ) ;
#232 = DIRECTION ( 'NONE',  ( 0.000000000000000000, 0.000000000000000000, -1.000000000000000000 ) ) ;
#233 = DIRECTION ( 'NONE',  ( -0.000000000000000000, -0.000000000000000000, -1.000000000000000000 ) ) ;
#234 = ORIENTED_EDGE ( 'NONE', *, *, #941, .F. ) ;
#235 = CARTESIAN_POINT ( 'NONE',  ( -33.00000000000000000, -13.50000000000000178, 3.000000000000000000 ) ) ;
#236 = DIRECTION ( 'NONE',  ( -1.000000000000000000, 1.294569758191646909E-16, 0.000000000000000000 ) ) ;
#237 = ORIENTED_EDGE ( 'NONE', *, *, #661, .F. ) ;
#238 = AXIS2_PLACEMENT_3D ( 'NONE', #15, #300, #906 ) ;
#239 = EDGE_CURVE ( 'NONE', #656, #384, #546, .T. ) ;
#240 = AXIS2_PLACEMENT_3D ( 'NONE', #414, #398, #114 ) ;
#241 = CARTESIAN_POINT ( 'NONE',  ( -31.07893218813451242, 13.00000000000000711, 0.000000000000000000 ) ) ;
#242 = CARTESIAN_POINT ( 'NONE',  ( -32.82893218813451597, 18.00000000000000711, 0.000000000000000000 ) ) ;
#243 = EDGE_CURVE ( 'NONE', #572, #436, #484, .T. ) ;
#244 = ORIENTED_EDGE ( 'NONE', *, *, #780, .F. ) ;
#245 = ADVANCED_FACE ( 'NONE', ( #469 ), #389, .F. ) ;
#246 = CARTESIAN_POINT ( 'NONE',  ( -31.24999999999999645, -13.50000000000000178, 3.000000000000000000 ) ) ;
#247 = CARTESIAN_POINT ( 'NONE',  ( 10.00000000000000000, 1.224646799147353256E-15, 0.000000000000000000 ) ) ;
#248 = CARTESIAN_POINT ( 'NONE',  ( 0.000000000000000000, 0.000000000000000000, 0.000000000000000000 ) ) ;
#249 = VERTEX_POINT ( 'NONE', #247 ) ;
#250 = DIRECTION ( 'NONE',  ( 1.000000000000000000, 0.000000000000000000, 0.000000000000000000 ) ) ;
#251 = ADVANCED_FACE ( 'NONE', ( #638 ), #102, .F. ) ;
#252 = EDGE_CURVE ( 'NONE', #949, #117, #320, .T. ) ;
#253 = ORIENTED_EDGE ( 'NONE', *, *, #314, .F. ) ;
#254 = VERTEX_POINT ( 'NONE', #180 ) ;
#255 = CARTESIAN_POINT ( 'NONE',  ( 39.90000000000000568, 10.92893218813450673, 3.000000000000000000 ) ) ;
#256 = VECTOR ( 'NONE', #969, 1000.000000000000000 ) ;
#257 = CARTESIAN_POINT ( 'NONE',  ( 0.000000000000000000, 0.000000000000000000, 3.000000000000000000 ) ) ;
#258 = CARTESIAN_POINT ( 'NONE',  ( -36.36446609406725372, 16.53553390593274486, 3.000000000000000000 ) ) ;
#259 = CARTESIAN_POINT ( 'NONE',  ( -30.75786437626904046, -17.99999999999999289, 3.000000000000000000 ) ) ;
#260 = AXIS2_PLACEMENT_3D ( 'NONE', #664, #816, #584 ) ;
#261 = CARTESIAN_POINT ( 'NONE',  ( -39.89999999999999147, 10.92893218813452627, 3.000000000000000000 ) ) ;
#262 = DIRECTION ( 'NONE',  ( 1.000000000000000000, 0.000000000000000000, 0.000000000000000000 ) ) ;
#263 = CYLINDRICAL_SURFACE ( 'NONE', #473, 1.749999999999991118 ) ;
#264 = ORIENTED_EDGE ( 'NONE', *, *, #185, .F. ) ;
#265 = ORIENTED_EDGE ( 'NONE', *, *, #766, .F. ) ;
#266 = DIRECTION ( 'NONE',  ( -0.7071067811865479058, 0.7071067811865472397, -0.000000000000000000 ) ) ;
#267 = CARTESIAN_POINT ( 'NONE',  ( -34.89999999999999147, 10.92893218813452805, 3.000000000000000000 ) ) ;
#268 = DIRECTION ( 'NONE',  ( -0.000000000000000000, -0.000000000000000000, -1.000000000000000000 ) ) ;
#269 = VERTEX_POINT ( 'NONE', #25 ) ;
#270 = FACE_BOUND ( 'NONE', #447, .T. ) ;
#271 = CYLINDRICAL_SURFACE ( 'NONE', #260, 4.999999999999997335 ) ;
#272 = CIRCLE ( 'NONE', #316, 1.749999999999991118 ) ;
#273 = VECTOR ( 'NONE', #634, 1000.000000000000000 ) ;
#274 = CARTESIAN_POINT ( 'NONE',  ( 0.000000000000000000, 0.000000000000000000, 0.000000000000000000 ) ) ;
#275 = CARTESIAN_POINT ( 'NONE',  ( 32.99999999999997158, -13.50000000000005329, 3.000000000000000000 ) ) ;
#276 = ORIENTED_EDGE ( 'NONE', *, *, #385, .T. ) ;
#277 = CARTESIAN_POINT ( 'NONE',  ( 32.82893218813453018, 13.00000000000000000, 0.000000000000000000 ) ) ;
#278 = EDGE_CURVE ( 'NONE', #644, #524, #9, .T. ) ;
#279 = DIRECTION ( 'NONE',  ( -0.000000000000000000, -0.000000000000000000, -1.000000000000000000 ) ) ;
#280 = CARTESIAN_POINT ( 'NONE',  ( -39.89999999999999147, -10.92893218813451561, 0.000000000000000000 ) ) ;
#281 = ORIENTED_EDGE ( 'NONE', *, *, #955, .F. ) ;
#282 = DIRECTION ( 'NONE',  ( -0.000000000000000000, -0.000000000000000000, -1.000000000000000000 ) ) ;
#283 = CARTESIAN_POINT ( 'NONE',  ( -31.07893218813451242, 13.00000000000000711, 3.000000000000000000 ) ) ;
#284 = ADVANCED_FACE ( 'NONE', ( #324 ), #619, .F. ) ;
#285 = CARTESIAN_POINT ( 'NONE',  ( 32.82893218813453018, 13.00000000000000000, 0.000000000000000000 ) ) ;
#286 = EDGE_CURVE ( 'NONE', #32, #168, #953, .T. ) ;
#287 = ORIENTED_EDGE ( 'NONE', *, *, #146, .F. ) ;
#288 = DIRECTION ( 'NONE',  ( -0.000000000000000000, -0.000000000000000000, -1.000000000000000000 ) ) ;
#289 = ADVANCED_FACE ( 'NONE', ( #782 ), #191, .T. ) ;
#290 = CIRCLE ( 'NONE', #432, 10.00000000000000000 ) ;
#291 = CIRCLE ( 'NONE', #38, 10.00000000000000000 ) ;
#292 = CARTESIAN_POINT ( 'NONE',  ( 31.07893218813454794, 13.00000000000000000, 0.000000000000000000 ) ) ;
#293 = EDGE_LOOP ( 'NONE', ( #752, #536 ) ) ;
#294 = DIRECTION ( 'NONE',  ( 1.000000000000000000, 0.000000000000000000, 0.000000000000000000 ) ) ;
#295 = AXIS2_PLACEMENT_3D ( 'NONE', #426, #591, #56 ) ;
#296 = DIRECTION ( 'NONE',  ( -0.000000000000000000, -0.000000000000000000, -1.000000000000000000 ) ) ;
#297 = ORIENTED_EDGE ( 'NONE', *, *, #595, .T. ) ;
#298 = DIRECTION ( 'NONE',  ( 1.000000000000000000, 0.000000000000000000, 0.000000000000000000 ) ) ;
#299 = ORIENTED_EDGE ( 'NONE', *, *, #349, .T. ) ;
#300 = DIRECTION ( 'NONE',  ( 0.7071067811865475727, 0.7071067811865475727, -0.000000000000000000 ) ) ;
#301 =( GEOMETRIC_REPRESENTATION_CONTEXT ( 3 ) GLOBAL_UNCERTAINTY_ASSIGNED_CONTEXT ( ( #954 ) ) GLOBAL_UNIT_ASSIGNED_CONTEXT ( ( #545, #404, #329 ) ) REPRESENTATION_CONTEXT ( 'NONE', 'WORKASPACE' ) );
#302 = AXIS2_PLACEMENT_3D ( 'NONE', #711, #187, #840 ) ;
#303 = ORIENTED_EDGE ( 'NONE', *, *, #845, .T. ) ;
#304 = DIRECTION ( 'NONE',  ( 0.000000000000000000, 0.000000000000000000, 1.000000000000000000 ) ) ;
#305 = CIRCLE ( 'NONE', #78, 1.750000000000001554 ) ;
#306 = ORIENTED_EDGE ( 'NONE', *, *, #483, .F. ) ;
#307 = PLANE ( 'NONE',  #238 ) ;
#308 = CARTESIAN_POINT ( 'NONE',  ( -39.89999999999999147, 10.92893218813452627, 0.000000000000000000 ) ) ;
#309 = ADVANCED_FACE ( 'NONE', ( #690 ), #401, .F. ) ;
#310 = VERTEX_POINT ( 'NONE', #703 ) ;
#311 = CARTESIAN_POINT ( 'NONE',  ( 38.43553390593273633, -14.46446609406725869, 0.000000000000000000 ) ) ;
#312 = DIRECTION ( 'NONE',  ( -0.000000000000000000, -0.000000000000000000, -1.000000000000000000 ) ) ;
#313 = EDGE_CURVE ( 'NONE', #388, #852, #478, .T. ) ;
#314 = EDGE_CURVE ( 'NONE', #155, #562, #45, .T. ) ;
#315 = ORIENTED_EDGE ( 'NONE', *, *, #667, .F. ) ;
#316 = AXIS2_PLACEMENT_3D ( 'NONE', #709, #334, #859 ) ;
#317 = CIRCLE ( 'NONE', #694, 1.750000000000001554 ) ;
#318 = DIRECTION ( 'NONE',  ( 0.000000000000000000, 0.000000000000000000, 1.000000000000000000 ) ) ;
#319 = DIRECTION ( 'NONE',  ( -0.000000000000000000, -0.000000000000000000, -1.000000000000000000 ) ) ;
#320 = CIRCLE ( 'NONE', #397, 4.999999999999997335 ) ;
#321 = DIRECTION ( 'NONE',  ( 0.000000000000000000, 0.000000000000000000, 1.000000000000000000 ) ) ;
#322 = EDGE_LOOP ( 'NONE', ( #635, #945, #149, #603 ) ) ;
#323 = DIRECTION ( 'NONE',  ( -0.000000000000000000, -0.000000000000000000, -1.000000000000000000 ) ) ;
#324 = FACE_OUTER_BOUND ( 'NONE', #964, .T. ) ;
#325 = EDGE_CURVE ( 'NONE', #158, #524, #365, .T. ) ;
#326 = DIRECTION ( 'NONE',  ( 1.000000000000000000, 0.000000000000000000, 0.000000000000000000 ) ) ;
#327 = EDGE_LOOP ( 'NONE', ( #423, #749, #253, #713 ) ) ;
#328 = ORIENTED_EDGE ( 'NONE', *, *, #780, .T. ) ;
#329 =( NAMED_UNIT ( * ) SI_UNIT ( $, .STERADIAN. ) SOLID_ANGLE_UNIT ( ) );
#330 = CARTESIAN_POINT ( 'NONE',  ( 38.43553390593273633, -14.46446609406725692, 3.000000000000000000 ) ) ;
#331 = DIRECTION ( 'NONE',  ( 0.000000000000000000, 0.000000000000000000, -1.000000000000000000 ) ) ;
#332 = ORIENTED_EDGE ( 'NONE', *, *, #325, .F. ) ;
#333 = ORIENTED_EDGE ( 'NONE', *, *, #595, .F. ) ;
#334 = DIRECTION ( 'NONE',  ( 0.000000000000000000, 0.000000000000000000, 1.000000000000000000 ) ) ;
#335 = CARTESIAN_POINT ( 'NONE',  ( -32.82893218813451597, 13.00000000000000711, 3.000000000000000000 ) ) ;
#336 = CARTESIAN_POINT ( 'NONE',  ( -38.43553390593272923, 14.46446609406726225, 0.000000000000000000 ) ) ;
#337 = AXIS2_PLACEMENT_3D ( 'NONE', #405, #623, #843 ) ;
#338 = VERTEX_POINT ( 'NONE', #580 ) ;
#339 = AXIS2_PLACEMENT_3D ( 'NONE', #888, #570, #873 ) ;
#340 = ORIENTED_EDGE ( 'NONE', *, *, #184, .T. ) ;
#341 = DIRECTION ( 'NONE',  ( 0.7071067811865470176, 0.7071067811865480168, -0.000000000000000000 ) ) ;
#342 = CARTESIAN_POINT ( 'NONE',  ( -34.89999999999999147, -10.92893218813451384, 3.000000000000000000 ) ) ;
#343 =( NAMED_UNIT ( * ) PLANE_ANGLE_UNIT ( ) SI_UNIT ( $, .RADIAN. ) );
#344 = VERTEX_POINT ( 'NONE', #947 ) ;
#345 = ORIENTED_EDGE ( 'NONE', *, *, #768, .F. ) ;
#346 = DIRECTION ( 'NONE',  ( 0.000000000000000000, 0.000000000000000000, 1.000000000000000000 ) ) ;
#347 = LINE ( 'NONE', #509, #142 ) ;
#348 = ORIENTED_EDGE ( 'NONE', *, *, #37, .T. ) ;
#349 = EDGE_CURVE ( 'NONE', #572, #231, #966, .T. ) ;
#350 = ORIENTED_EDGE ( 'NONE', *, *, #903, .F. ) ;
#351 = CARTESIAN_POINT ( 'NONE',  ( -38.43553390593272923, 14.46446609406726225, 3.000000000000000000 ) ) ;
#352 = AXIS2_PLACEMENT_3D ( 'NONE', #758, #88, #676 ) ;
#353 = DIRECTION ( 'NONE',  ( -0.000000000000000000, -1.000000000000000000, -0.000000000000000000 ) ) ;
#354 =( GEOMETRIC_REPRESENTATION_CONTEXT ( 3 ) GLOBAL_UNCERTAINTY_ASSIGNED_CONTEXT ( ( #728 ) ) GLOBAL_UNIT_ASSIGNED_CONTEXT ( ( #547, #343, #729 ) ) REPRESENTATION_CONTEXT ( 'NONE', 'WORKASPACE' ) );
#355 = VERTEX_POINT ( 'NONE', #67 ) ;
#356 = ORIENTED_EDGE ( 'NONE', *, *, #830, .T. ) ;
#357 = CARTESIAN_POINT ( 'NONE',  ( 34.90000000000000568, 10.92893218813451561, 3.000000000000000000 ) ) ;
#358 = VECTOR ( 'NONE', #806, 1000.000000000000000 ) ;
#359 = CYLINDRICAL_SURFACE ( 'NONE', #633, 10.00000000000000178 ) ;
#360 = ADVANCED_FACE ( 'NONE', ( #648 ), #271, .T. ) ;
#361 = EDGE_CURVE ( 'NONE', #950, #194, #643, .T. ) ;
#362 = DIRECTION ( 'NONE',  ( -1.000000000000000000, 0.000000000000000000, 0.000000000000000000 ) ) ;
#363 = ORIENTED_EDGE ( 'NONE', *, *, #810, .F. ) ;
#364 = DIRECTION ( 'NONE',  ( -0.000000000000000000, -0.000000000000000000, -1.000000000000000000 ) ) ;
#365 = LINE ( 'NONE', #727, #890 ) ;
#366 = LINE ( 'NONE', #69, #218 ) ;
#367 = ORIENTED_EDGE ( 'NONE', *, *, #8, .T. ) ;
#368 = FACE_OUTER_BOUND ( 'NONE', #322, .T. ) ;
#369 = VECTOR ( 'NONE', #622, 1000.000000000000114 ) ;
#370 = DIRECTION ( 'NONE',  ( -1.000000000000000000, 1.056826013124967889E-16, -0.000000000000000000 ) ) ;
#371 = EDGE_LOOP ( 'NONE', ( #878, #528, #520, #209 ) ) ;
#372 = DIRECTION ( 'NONE',  ( 0.000000000000000000, 0.000000000000000000, 1.000000000000000000 ) ) ;
#373 = VECTOR ( 'NONE', #710, 1000.000000000000000 ) ;
#374 = ORIENTED_EDGE ( 'NONE', *, *, #557, .F. ) ;
#375 = CARTESIAN_POINT ( 'NONE',  ( 37.82893218813453018, -15.07106781186546840, 0.000000000000000000 ) ) ;
#376 = VERTEX_POINT ( 'NONE', #283 ) ;
#377 = DIRECTION ( 'NONE',  ( -3.174552547521865467E-16, -1.000000000000000000, 0.000000000000000000 ) ) ;
#378 = AXIS2_PLACEMENT_3D ( 'NONE', #774, #318, #837 ) ;
#379 = ORIENTED_EDGE ( 'NONE', *, *, #830, .F. ) ;
#380 = DIRECTION ( 'NONE',  ( 0.000000000000000000, 0.000000000000000000, 1.000000000000000000 ) ) ;
#381 = FACE_OUTER_BOUND ( 'NONE', #563, .T. ) ;
#382 = EDGE_CURVE ( 'NONE', #194, #249, #514, .T. ) ;
#383 = EDGE_CURVE ( 'NONE', #231, #572, #718, .T. ) ;
#384 = VERTEX_POINT ( 'NONE', #796 ) ;
#385 = EDGE_CURVE ( 'NONE', #562, #636, #504, .T. ) ;
#386 = LINE ( 'NONE', #311, #776 ) ;
#387 = CARTESIAN_POINT ( 'NONE',  ( 39.89999999999999858, -10.92893218813452272, 0.000000000000000000 ) ) ;
#388 = VERTEX_POINT ( 'NONE', #211 ) ;
#389 = PLANE ( 'NONE',  #337 ) ;
#390 = DIRECTION ( 'NONE',  ( 0.000000000000000000, 0.000000000000000000, 1.000000000000000000 ) ) ;
#391 = ORIENTED_EDGE ( 'NONE', *, *, #79, .T. ) ;
#392 = VECTOR ( 'NONE', #652, 1000.000000000000000 ) ;
#393 = VECTOR ( 'NONE', #139, 1000.000000000000114 ) ;
#394 = EDGE_CURVE ( 'NONE', #355, #82, #347, .T. ) ;
#395 = CYLINDRICAL_SURFACE ( 'NONE', #791, 1.750000000000001554 ) ;
#396 = CARTESIAN_POINT ( 'NONE',  ( 32.82893218813453018, 13.00000000000000000, 3.000000000000000000 ) ) ;
#397 = AXIS2_PLACEMENT_3D ( 'NONE', #699, #186, #542 ) ;
#398 = DIRECTION ( 'NONE',  ( -0.000000000000000000, -0.000000000000000000, -1.000000000000000000 ) ) ;
#399 = VERTEX_POINT ( 'NONE', #71 ) ;
#400 = FILL_AREA_STYLE_COLOUR ( '', #197 ) ;
#401 = CYLINDRICAL_SURFACE ( 'NONE', #682, 10.00000000000000000 ) ;
#402 = PLANE ( 'NONE',  #628 ) ;
#403 = EDGE_LOOP ( 'NONE', ( #297, #205, #794, #573 ) ) ;
#404 =( NAMED_UNIT ( * ) PLANE_ANGLE_UNIT ( ) SI_UNIT ( $, .RADIAN. ) );
#405 = CARTESIAN_POINT ( 'NONE',  ( 38.43553390593273633, -14.46446609406725869, 3.000000000000000000 ) ) ;
#406 = CARTESIAN_POINT ( 'NONE',  ( -32.82893218813451597, 18.00000000000000711, 0.000000000000000000 ) ) ;
#407 = DIRECTION ( 'NONE',  ( 0.000000000000000000, 0.000000000000000000, 1.000000000000000000 ) ) ;
#408 = ORIENTED_EDGE ( 'NONE', *, *, #501, .T. ) ;
#409 = FACE_BOUND ( 'NONE', #293, .T. ) ;
#410 = CIRCLE ( 'NONE', #378, 4.999999999999997335 ) ;
#411 = AXIS2_PLACEMENT_3D ( 'NONE', #935, #851, #919 ) ;
#412 = CARTESIAN_POINT ( 'NONE',  ( 0.000000000000000000, 0.000000000000000000, 3.000000000000000000 ) ) ;
#413 = EDGE_CURVE ( 'NONE', #168, #254, #965, .T. ) ;
#414 = CARTESIAN_POINT ( 'NONE',  ( -30.75786437626904046, -7.999999999999992895, 0.000000000000000000 ) ) ;
#415 = AXIS2_PLACEMENT_3D ( 'NONE', #868, #874, #802 ) ;
#416 = ORIENTED_EDGE ( 'NONE', *, *, #184, .F. ) ;
#417 = CIRCLE ( 'NONE', #764, 10.00000000000000178 ) ;
#418 = ORIENTED_EDGE ( 'NONE', *, *, #661, .T. ) ;
#419 = LINE ( 'NONE', #351, #777 ) ;
#420 = ADVANCED_FACE ( 'NONE', ( #800 ), #359, .T. ) ;
#421 = DIRECTION ( 'NONE',  ( 1.000000000000000000, 0.000000000000000000, 0.000000000000000000 ) ) ;
#422 = ADVANCED_FACE ( 'NONE', ( #368 ), #133, .F. ) ;
#423 = ORIENTED_EDGE ( 'NONE', *, *, #252, .T. ) ;
#424 = ORIENTED_EDGE ( 'NONE', *, *, #243, .F. ) ;
#425 = FACE_BOUND ( 'NONE', #708, .T. ) ;
#426 = CARTESIAN_POINT ( 'NONE',  ( 32.82893218813453018, 13.00000000000000000, 3.000000000000000000 ) ) ;
#427 = PRODUCT_DEFINITION_SHAPE ( 'NONE', 'NONE',  #592 ) ;
#428 = CARTESIAN_POINT ( 'NONE',  ( 36.36446609406726793, 16.53553390593273775, 3.000000000000000000 ) ) ;
#429 = VERTEX_POINT ( 'NONE', #125 ) ;
#430 = CYLINDRICAL_SURFACE ( 'NONE', #666, 5.000000000000000888 ) ;
#431 = EDGE_CURVE ( 'NONE', #852, #65, #417, .T. ) ;
#432 = AXIS2_PLACEMENT_3D ( 'NONE', #825, #372, #671 ) ;
#433 = DIRECTION ( 'NONE',  ( 0.000000000000000000, 0.000000000000000000, 1.000000000000000000 ) ) ;
#434 = ORIENTED_EDGE ( 'NONE', *, *, #72, .F. ) ;
#435 = VECTOR ( 'NONE', #221, 1000.000000000000000 ) ;
#436 = VERTEX_POINT ( 'NONE', #61 ) ;
#437 = LINE ( 'NONE', #739, #492 ) ;
#438 = AXIS2_PLACEMENT_3D ( 'NONE', #516, #64, #362 ) ;
#439 = FACE_OUTER_BOUND ( 'NONE', #696, .T. ) ;
#440 = LINE ( 'NONE', #814, #435 ) ;
#441 = ORIENTED_EDGE ( 'NONE', *, *, #413, .T. ) ;
#442 = CARTESIAN_POINT ( 'NONE',  ( 30.75786437626905112, -8.000000000000001776, 3.000000000000000000 ) ) ;
#443 = CARTESIAN_POINT ( 'NONE',  ( 32.82893218813453728, 18.00000000000000000, 3.000000000000000000 ) ) ;
#444 = EDGE_LOOP ( 'NONE', ( #172, #792 ) ) ;
#445 = DIRECTION ( 'NONE',  ( 0.000000000000000000, 0.000000000000000000, 1.000000000000000000 ) ) ;
#446 = VECTOR ( 'NONE', #173, 1000.000000000000000 ) ;
#447 = EDGE_LOOP ( 'NONE', ( #4, #829 ) ) ;
#448 = EDGE_CURVE ( 'NONE', #597, #82, #219, .T. ) ;
#449 = LINE ( 'NONE', #822, #5 ) ;
#450 = ADVANCED_FACE ( 'NONE', ( #439 ), #658, .F. ) ;
#451 = ORIENTED_EDGE ( 'NONE', *, *, #872, .T. ) ;
#452 = CARTESIAN_POINT ( 'NONE',  ( -33.00000000000000000, -13.50000000000000178, 0.000000000000000000 ) ) ;
#453 = ORIENTED_EDGE ( 'NONE', *, *, #872, .F. ) ;
#454 = CARTESIAN_POINT ( 'NONE',  ( 34.90000000000000568, 10.92893218813451561, 0.000000000000000000 ) ) ;
#455 = EDGE_CURVE ( 'NONE', #310, #841, #508, .T. ) ;
#456 = DIRECTION ( 'NONE',  ( -0.000000000000000000, -0.000000000000000000, -1.000000000000000000 ) ) ;
#457 = PRESENTATION_LAYER_ASSIGNMENT (  '', '', ( #833 ) ) ;
#458 = VECTOR ( 'NONE', #554, 1000.000000000000000 ) ;
#459 = VERTEX_POINT ( 'NONE', #723 ) ;
#460 = CARTESIAN_POINT ( 'NONE',  ( -32.82893218813451597, 13.00000000000000711, 0.000000000000000000 ) ) ;
#461 = VECTOR ( 'NONE', #370, 1000.000000000000000 ) ;
#462 = CYLINDRICAL_SURFACE ( 'NONE', #602, 4.999999999999997335 ) ;
#463 = ORIENTED_EDGE ( 'NONE', *, *, #744, .F. ) ;
#464 = LINE ( 'NONE', #842, #849 ) ;
#465 = LINE ( 'NONE', #748, #202 ) ;
#466 = CARTESIAN_POINT ( 'NONE',  ( -36.36446609406725372, 16.53553390593274486, 3.000000000000000000 ) ) ;
#467 = ORIENTED_EDGE ( 'NONE', *, *, #522, .T. ) ;
#468 = LINE ( 'NONE', #18, #807 ) ;
#469 = FACE_OUTER_BOUND ( 'NONE', #612, .T. ) ;
#470 = DIRECTION ( 'NONE',  ( 1.000000000000000000, 0.000000000000000000, 0.000000000000000000 ) ) ;
#471 = AXIS2_PLACEMENT_3D ( 'NONE', #454, #304, #150 ) ;
#472 = ORIENTED_EDGE ( 'NONE', *, *, #185, .T. ) ;
#473 = AXIS2_PLACEMENT_3D ( 'NONE', #31, #26, #22 ) ;
#474 = CARTESIAN_POINT ( 'NONE',  ( 31.07893218813454794, 13.00000000000000000, 3.000000000000000000 ) ) ;
#475 = CARTESIAN_POINT ( 'NONE',  ( 30.75786437626905112, -18.00000000000000355, 0.000000000000000000 ) ) ;
#476 = ORIENTED_EDGE ( 'NONE', *, *, #385, .F. ) ;
#477 = DIRECTION ( 'NONE',  ( 1.000000000000000000, -1.294569758191646909E-16, 0.000000000000000000 ) ) ;
#478 = LINE ( 'NONE', #784, #813 ) ;
#479 = LINE ( 'NONE', #258, #458 ) ;
#480 = ORIENTED_EDGE ( 'NONE', *, *, #111, .T. ) ;
#481 = VERTEX_POINT ( 'NONE', #51 ) ;
#482 = FACE_BOUND ( 'NONE', #444, .T. ) ;
#483 = EDGE_CURVE ( 'NONE', #384, #487, #228, .T. ) ;
#484 = LINE ( 'NONE', #631, #373 ) ;
#485 = EDGE_CURVE ( 'NONE', #675, #870, #119, .T. ) ;
#486 = LINE ( 'NONE', #942, #793 ) ;
#487 = VERTEX_POINT ( 'NONE', #154 ) ;
#488 = EDGE_CURVE ( 'NONE', #254, #863, #57, .T. ) ;
#489 = ORIENTED_EDGE ( 'NONE', *, *, #116, .T. ) ;
#490 = DIRECTION ( 'NONE',  ( 1.000000000000000000, 0.000000000000000000, -0.000000000000000000 ) ) ;
#491 = EDGE_CURVE ( 'NONE', #636, #496, #87, .T. ) ;
#492 = VECTOR ( 'NONE', #266, 999.9999999999998863 ) ;
#493 = DIRECTION ( 'NONE',  ( -1.000000000000000000, 1.056826013124967889E-16, -0.000000000000000000 ) ) ;
#494 = DIRECTION ( 'NONE',  ( 0.000000000000000000, 0.000000000000000000, 1.000000000000000000 ) ) ;
#495 = VECTOR ( 'NONE', #686, 1000.000000000000000 ) ;
#496 = VERTEX_POINT ( 'NONE', #827 ) ;
#497 = ORIENTED_EDGE ( 'NONE', *, *, #239, .F. ) ;
#498 = FACE_OUTER_BOUND ( 'NONE', #721, .T. ) ;
#499 = DIRECTION ( 'NONE',  ( -0.000000000000000000, -0.000000000000000000, -1.000000000000000000 ) ) ;
#500 = ORIENTED_EDGE ( 'NONE', *, *, #413, .F. ) ;
#501 = EDGE_CURVE ( 'NONE', #506, #894, #74, .T. ) ;
#502 = ORIENTED_EDGE ( 'NONE', *, *, #904, .F. ) ;
#503 = DIRECTION ( 'NONE',  ( -0.000000000000000000, -0.000000000000000000, -1.000000000000000000 ) ) ;
#504 = LINE ( 'NONE', #203, #838 ) ;
#505 = CARTESIAN_POINT ( 'NONE',  ( 36.36446609406726793, 16.53553390593273775, 3.000000000000000000 ) ) ;
#506 = VERTEX_POINT ( 'NONE', #375 ) ;
#507 = LINE ( 'NONE', #809, #393 ) ;
#508 = CIRCLE ( 'NONE', #885, 9.999999999999998224 ) ;
#509 = CARTESIAN_POINT ( 'NONE',  ( 39.89999999999999858, -10.92893218813452272, 3.000000000000000000 ) ) ;
#510 = DIRECTION ( 'NONE',  ( 1.000000000000000000, 0.000000000000000000, 0.000000000000000000 ) ) ;
#511 = DIRECTION ( 'NONE',  ( -0.000000000000000000, -0.000000000000000000, -1.000000000000000000 ) ) ;
#512 = AXIS2_PLACEMENT_3D ( 'NONE', #275, #268, #115 ) ;
#513 = EDGE_LOOP ( 'NONE', ( #920, #315, #138, #815 ) ) ;
#514 = CIRCLE ( 'NONE', #339, 10.00000000000000000 ) ;
#515 = DIRECTION ( 'NONE',  ( 0.000000000000000000, 0.000000000000000000, 1.000000000000000000 ) ) ;
#516 = CARTESIAN_POINT ( 'NONE',  ( 32.82893218813453018, 13.00000000000000000, 3.000000000000000000 ) ) ;
#517 = ORIENTED_EDGE ( 'NONE', *, *, #226, .F. ) ;
#518 = CARTESIAN_POINT ( 'NONE',  ( 34.89999999999999858, -10.92893218813452272, 3.000000000000000000 ) ) ;
#519 = EDGE_CURVE ( 'NONE', #900, #950, #290, .T. ) ;
#520 = ORIENTED_EDGE ( 'NONE', *, *, #529, .F. ) ;
#521 = PLANE ( 'NONE',  #599 ) ;
#522 = EDGE_CURVE ( 'NONE', #506, #597, #386, .T. ) ;
#523 = CIRCLE ( 'NONE', #227, 4.999999999999997335 ) ;
#524 = VERTEX_POINT ( 'NONE', #596 ) ;
#525 = FACE_OUTER_BOUND ( 'NONE', #621, .T. ) ;
#526 = AXIS2_PLACEMENT_3D ( 'NONE', #559, #848, #250 ) ;
#527 = EDGE_CURVE ( 'NONE', #957, #870, #449, .T. ) ;
#528 = ORIENTED_EDGE ( 'NONE', *, *, #394, .F. ) ;
#529 = EDGE_CURVE ( 'NONE', #229, #355, #548, .T. ) ;
#530 = LINE ( 'NONE', #163, #256 ) ;
#531 = DIRECTION ( 'NONE',  ( 0.000000000000000000, 0.000000000000000000, -1.000000000000000000 ) ) ;
#532 = EDGE_LOOP ( 'NONE', ( #424, #299, #418, #287 ) ) ;
#533 = CARTESIAN_POINT ( 'NONE',  ( 38.43553390593273633, -14.46446609406725692, 0.000000000000000000 ) ) ;
#534 = DIRECTION ( 'NONE',  ( -0.000000000000000000, -0.000000000000000000, -1.000000000000000000 ) ) ;
#535 = AXIS2_PLACEMENT_3D ( 'NONE', #274, #494, #510 ) ;
#536 = ORIENTED_EDGE ( 'NONE', *, *, #483, .T. ) ;
#537 = CIRCLE ( 'NONE', #649, 1.750000000000005107 ) ;
#538 = DIRECTION ( 'NONE',  ( -1.000000000000000000, 0.000000000000000000, 0.000000000000000000 ) ) ;
#539 = FACE_OUTER_BOUND ( 'NONE', #611, .T. ) ;
#540 = EDGE_LOOP ( 'NONE', ( #767, #803, #910, #818 ) ) ;
#541 = CARTESIAN_POINT ( 'NONE',  ( -39.89999999999999147, -10.92893218813451561, 3.000000000000000000 ) ) ;
#542 = DIRECTION ( 'NONE',  ( 1.000000000000000000, 0.000000000000000000, 0.000000000000000000 ) ) ;
#543 = DIRECTION ( 'NONE',  ( 0.000000000000000000, 0.000000000000000000, 1.000000000000000000 ) ) ;
#544 = ORIENTED_EDGE ( 'NONE', *, *, #899, .F. ) ;
#545 =( LENGTH_UNIT ( ) NAMED_UNIT ( * ) SI_UNIT ( .MILLI., .METRE. ) );
#546 = LINE ( 'NONE', #35, #183 ) ;
#547 =( LENGTH_UNIT ( ) NAMED_UNIT ( * ) SI_UNIT ( .MILLI., .METRE. ) );
#548 = CIRCLE ( 'NONE', #712, 4.999999999999997335 ) ;
#549 = ORIENTED_EDGE ( 'NONE', *, *, #85, .F. ) ;
#550 = SURFACE_STYLE_USAGE ( .BOTH. , #916 ) ;
#551 = DIRECTION ( 'NONE',  ( -1.000000000000000000, 0.000000000000000000, 0.000000000000000000 ) ) ;
#552 = VECTOR ( 'NONE', #531, 1000.000000000000000 ) ;
#553 = AXIS2_PLACEMENT_3D ( 'NONE', #959, #140, #294 ) ;
#554 = DIRECTION ( 'NONE',  ( -0.000000000000000000, -0.000000000000000000, -1.000000000000000000 ) ) ;
#555 = CARTESIAN_POINT ( 'NONE',  ( 32.99999999999997158, -13.50000000000005329, 0.000000000000000000 ) ) ;
#556 = ADVANCED_FACE ( 'NONE', ( #525 ), #521, .F. ) ;
#557 = EDGE_CURVE ( 'NONE', #65, #344, #93, .T. ) ;
#558 = DIRECTION ( 'NONE',  ( -1.000000000000000000, 0.000000000000000000, 0.000000000000000000 ) ) ;
#559 = CARTESIAN_POINT ( 'NONE',  ( 32.82893218813453018, 13.00000000000000000, 3.000000000000000000 ) ) ;
#560 = EDGE_CURVE ( 'NONE', #636, #48, #685, .T. ) ;
#561 = FACE_OUTER_BOUND ( 'NONE', #214, .T. ) ;
#562 = VERTEX_POINT ( 'NONE', #756 ) ;
#563 = EDGE_LOOP ( 'NONE', ( #797, #224, #345, #757 ) ) ;
#564 = DIRECTION ( 'NONE',  ( 3.174552547521865467E-16, 1.000000000000000000, -0.000000000000000000 ) ) ;
#565 = DIRECTION ( 'NONE',  ( 0.000000000000000000, 0.000000000000000000, 1.000000000000000000 ) ) ;
#566 = ORIENTED_EDGE ( 'NONE', *, *, #226, .T. ) ;
#567 = ORIENTED_EDGE ( 'NONE', *, *, #835, .T. ) ;
#568 = DIRECTION ( 'NONE',  ( 1.000000000000000000, 0.000000000000000000, -0.000000000000000000 ) ) ;
#569 = CIRCLE ( 'NONE', #101, 1.749999999999980682 ) ;
#570 = DIRECTION ( 'NONE',  ( 0.000000000000000000, 0.000000000000000000, 1.000000000000000000 ) ) ;
#571 = ADVANCED_FACE ( 'NONE', ( #3 ), #83, .F. ) ;
#572 = VERTEX_POINT ( 'NONE', #831 ) ;
#573 = ORIENTED_EDGE ( 'NONE', *, *, #617, .F. ) ;
#574 = PLANE ( 'NONE',  #750 ) ;
#575 = PRODUCT ( 'camera_cover', 'camera_cover', '', ( #135 ) ) ;
#576 = CARTESIAN_POINT ( 'NONE',  ( 36.36446609406726793, 16.53553390593273775, 3.000000000000000000 ) ) ;
#577 = ORIENTED_EDGE ( 'NONE', *, *, #766, .T. ) ;
#578 = EDGE_LOOP ( 'NONE', ( #688, #453, #23, #472 ) ) ;
#579 = DIRECTION ( 'NONE',  ( -1.000000000000000000, 0.000000000000000000, 0.000000000000000000 ) ) ;
#580 = CARTESIAN_POINT ( 'NONE',  ( -34.75000000000000000, -13.50000000000000178, 3.000000000000000000 ) ) ;
#581 = DIRECTION ( 'NONE',  ( 0.000000000000000000, 0.000000000000000000, 1.000000000000000000 ) ) ;
#582 = ORIENTED_EDGE ( 'NONE', *, *, #215, .F. ) ;
#583 = MECHANICAL_DESIGN_GEOMETRIC_PRESENTATION_REPRESENTATION (  '', ( #833 ), #301 ) ;
#584 = DIRECTION ( 'NONE',  ( -1.000000000000000000, 0.000000000000000000, 0.000000000000000000 ) ) ;
#585 = CIRCLE ( 'NONE', #21, 4.999999999999997335 ) ;
#586 = DIRECTION ( 'NONE',  ( -1.000000000000000000, 0.000000000000000000, 0.000000000000000000 ) ) ;
#587 = AXIS2_PLACEMENT_3D ( 'NONE', #789, #926, #262 ) ;
#588 = ORIENTED_EDGE ( 'NONE', *, *, #519, .T. ) ;
#589 = ADVANCED_FACE ( 'NONE', ( #12 ), #307, .F. ) ;
#590 = AXIS2_PLACEMENT_3D ( 'NONE', #267, #565, #917 ) ;
#591 = DIRECTION ( 'NONE',  ( 0.000000000000000000, 0.000000000000000000, 1.000000000000000000 ) ) ;
#592 = PRODUCT_DEFINITION ( 'UNKNOWN', '', #927, #654 ) ;
#593 = CARTESIAN_POINT ( 'NONE',  ( -33.00000000000000000, -13.50000000000000178, 0.000000000000000000 ) ) ;
#594 = EDGE_LOOP ( 'NONE', ( #600, #762 ) ) ;
#595 = EDGE_CURVE ( 'NONE', #338, #656, #678, .T. ) ;
#596 = CARTESIAN_POINT ( 'NONE',  ( -34.57893218813451597, 13.00000000000000711, 0.000000000000000000 ) ) ;
#597 = VERTEX_POINT ( 'NONE', #533 ) ;
#598 = CARTESIAN_POINT ( 'NONE',  ( 39.90000000000000568, 10.92893218813450851, 3.000000000000000000 ) ) ;
#599 = AXIS2_PLACEMENT_3D ( 'NONE', #81, #895, #681 ) ;
#600 = ORIENTED_EDGE ( 'NONE', *, *, #918, .F. ) ;
#601 = CARTESIAN_POINT ( 'NONE',  ( 32.82893218813453728, 18.00000000000000000, 0.000000000000000000 ) ) ;
#602 = AXIS2_PLACEMENT_3D ( 'NONE', #16, #312, #608 ) ;
#603 = ORIENTED_EDGE ( 'NONE', *, *, #527, .T. ) ;
#604 = DIRECTION ( 'NONE',  ( -0.000000000000000000, -0.000000000000000000, -1.000000000000000000 ) ) ;
#605 = DIRECTION ( 'NONE',  ( -0.000000000000000000, -0.000000000000000000, -1.000000000000000000 ) ) ;
#606 = ORIENTED_EDGE ( 'NONE', *, *, #488, .T. ) ;
#607 = CARTESIAN_POINT ( 'NONE',  ( -39.89999999999999147, -10.92893218813451561, 3.000000000000000000 ) ) ;
#608 = DIRECTION ( 'NONE',  ( -1.000000000000000000, 0.000000000000000000, 0.000000000000000000 ) ) ;
#609 = AXIS2_PLACEMENT_3D ( 'NONE', #962, #288, #145 ) ;
#610 = CIRCLE ( 'NONE', #240, 10.00000000000000178 ) ;
#611 = EDGE_LOOP ( 'NONE', ( #53, #701, #476, #645 ) ) ;
#612 = EDGE_LOOP ( 'NONE', ( #724, #489, #467, #161 ) ) ;
#613 = CYLINDRICAL_SURFACE ( 'NONE', #912, 9.999999999999998224 ) ;
#614 = DIRECTION ( 'NONE',  ( -1.000000000000000000, 0.000000000000000000, 0.000000000000000000 ) ) ;
#615 = CARTESIAN_POINT ( 'NONE',  ( 34.74999999999997158, -13.50000000000005329, 3.000000000000000000 ) ) ;
#616 = VERTEX_POINT ( 'NONE', #601 ) ;
#617 = EDGE_CURVE ( 'NONE', #338, #487, #530, .T. ) ;
#618 = CARTESIAN_POINT ( 'NONE',  ( 39.90000000000000568, 10.92893218813450673, 0.000000000000000000 ) ) ;
#619 = CYLINDRICAL_SURFACE ( 'NONE', #165, 1.750000000000001554 ) ;
#620 = CARTESIAN_POINT ( 'NONE',  ( 36.36446609406726793, 16.53553390593273775, 0.000000000000000000 ) ) ;
#621 = EDGE_LOOP ( 'NONE', ( #938, #905, #17, #451 ) ) ;
#622 = DIRECTION ( 'NONE',  ( -0.7071067811865474617, -0.7071067811865474617, -0.000000000000000000 ) ) ;
#623 = DIRECTION ( 'NONE',  ( -0.7071067811865480168, 0.7071067811865470176, 0.000000000000000000 ) ) ;
#624 = EDGE_CURVE ( 'NONE', #886, #269, #36, .T. ) ;
#625 = CARTESIAN_POINT ( 'NONE',  ( 32.99999999999997158, -13.50000000000005329, 3.000000000000000000 ) ) ;
#626 = AXIS2_PLACEMENT_3D ( 'NONE', #76, #380, #898 ) ;
#627 = DIRECTION ( 'NONE',  ( 1.000000000000000000, 0.000000000000000000, 0.000000000000000000 ) ) ;
#628 = AXIS2_PLACEMENT_3D ( 'NONE', #695, #706, #331 ) ;
#629 = ORIENTED_EDGE ( 'NONE', *, *, #865, .T. ) ;
#630 = DIRECTION ( 'NONE',  ( -0.000000000000000000, -0.000000000000000000, -1.000000000000000000 ) ) ;
#631 = CARTESIAN_POINT ( 'NONE',  ( 34.57893218813450886, 13.00000000000000000, 3.000000000000000000 ) ) ;
#632 = CIRCLE ( 'NONE', #889, 10.00000000000000000 ) ;
#633 = AXIS2_PLACEMENT_3D ( 'NONE', #952, #653, #811 ) ;
#634 = DIRECTION ( 'NONE',  ( -0.000000000000000000, -0.000000000000000000, -1.000000000000000000 ) ) ;
#635 = ORIENTED_EDGE ( 'NONE', *, *, #941, .T. ) ;
#636 = VERTEX_POINT ( 'NONE', #541 ) ;
#637 = LINE ( 'NONE', #642, #152 ) ;
#638 = FACE_OUTER_BOUND ( 'NONE', #862, .T. ) ;
#639 = PLANE ( 'NONE',  #411 ) ;
#640 = FACE_OUTER_BOUND ( 'NONE', #92, .T. ) ;
#641 = ORIENTED_EDGE ( 'NONE', *, *, #741, .T. ) ;
#642 = CARTESIAN_POINT ( 'NONE',  ( -34.89999999999999147, -17.99999999999999289, 3.000000000000000000 ) ) ;
#643 = LINE ( 'NONE', #740, #933 ) ;
#644 = VERTEX_POINT ( 'NONE', #241 ) ;
#645 = ORIENTED_EDGE ( 'NONE', *, *, #659, .T. ) ;
#646 = DIRECTION ( 'NONE',  ( 1.000000000000000000, -1.294569758191648388E-16, 0.000000000000000000 ) ) ;
#647 = AXIS2_PLACEMENT_3D ( 'NONE', #452, #159, #298 ) ;
#648 = FACE_OUTER_BOUND ( 'NONE', #371, .T. ) ;
#649 = AXIS2_PLACEMENT_3D ( 'NONE', #593, #839, #655 ) ;
#650 = EDGE_LOOP ( 'NONE', ( #738, #391, #350, #332 ) ) ;
#651 = ORIENTED_EDGE ( 'NONE', *, *, #314, .T. ) ;
#652 = DIRECTION ( 'NONE',  ( 3.174552547521865467E-16, 1.000000000000000000, -0.000000000000000000 ) ) ;
#653 = DIRECTION ( 'NONE',  ( 0.000000000000000000, 0.000000000000000000, -1.000000000000000000 ) ) ;
#654 = PRODUCT_DEFINITION_CONTEXT ( 'detailed design', #747, 'design' ) ;
#655 = DIRECTION ( 'NONE',  ( 1.000000000000000000, 0.000000000000000000, 0.000000000000000000 ) ) ;
#656 = VERTEX_POINT ( 'NONE', #246 ) ;
#657 = PLANE ( 'NONE',  #821 ) ;
#658 = CYLINDRICAL_SURFACE ( 'NONE', #609, 10.00000000000000000 ) ;
#659 = EDGE_CURVE ( 'NONE', #562, #117, #925, .T. ) ;
#660 = FACE_OUTER_BOUND ( 'NONE', #403, .T. ) ;
#661 = EDGE_CURVE ( 'NONE', #231, #121, #769, .T. ) ;
#662 = ORIENTED_EDGE ( 'NONE', *, *, #904, .T. ) ;
#663 = VECTOR ( 'NONE', #232, 1000.000000000000000 ) ;
#664 = CARTESIAN_POINT ( 'NONE',  ( 34.89999999999999858, -10.92893218813452272, 3.000000000000000000 ) ) ;
#665 = ADVANCED_FACE ( 'NONE', ( #715 ), #395, .F. ) ;
#666 = AXIS2_PLACEMENT_3D ( 'NONE', #357, #282, #579 ) ;
#667 = EDGE_CURVE ( 'NONE', #894, #310, #464, .T. ) ;
#668 = CYLINDRICAL_SURFACE ( 'NONE', #141, 1.749999999999980682 ) ;
#669 = AXIS2_PLACEMENT_3D ( 'NONE', #902, #456, #760 ) ;
#670 = ORIENTED_EDGE ( 'NONE', *, *, #313, .F. ) ;
#671 = DIRECTION ( 'NONE',  ( 1.000000000000000000, 0.000000000000000000, 0.000000000000000000 ) ) ;
#672 = EDGE_LOOP ( 'NONE', ( #122, #222, #517, #86 ) ) ;
#673 = DIRECTION ( 'NONE',  ( -0.000000000000000000, -0.000000000000000000, -1.000000000000000000 ) ) ;
#674 = EDGE_CURVE ( 'NONE', #229, #597, #24, .T. ) ;
#675 = VERTEX_POINT ( 'NONE', #618 ) ;
#676 = DIRECTION ( 'NONE',  ( 1.000000000000000000, 0.000000000000000000, 0.000000000000000000 ) ) ;
#677 = MANIFOLD_SOLID_BREP ( 'Fillet1', #698 ) ;
#678 = CIRCLE ( 'NONE', #692, 1.750000000000005107 ) ;
#679 = ORIENTED_EDGE ( 'NONE', *, *, #944, .T. ) ;
#680 = VECTOR ( 'NONE', #605, 1000.000000000000000 ) ;
#681 = DIRECTION ( 'NONE',  ( 0.7071067811865474617, 0.7071067811865474617, 0.000000000000000000 ) ) ;
#682 = AXIS2_PLACEMENT_3D ( 'NONE', #257, #319, #551 ) ;
#683 = FACE_OUTER_BOUND ( 'NONE', #327, .T. ) ;
#684 = ORIENTED_EDGE ( 'NONE', *, *, #431, .T. ) ;
#685 = LINE ( 'NONE', #607, #212 ) ;
#686 = DIRECTION ( 'NONE',  ( -0.000000000000000000, -0.000000000000000000, -1.000000000000000000 ) ) ;
#687 = EDGE_CURVE ( 'NONE', #841, #229, #468, .T. ) ;
#688 = ORIENTED_EDGE ( 'NONE', *, *, #624, .T. ) ;
#689 = CARTESIAN_POINT ( 'NONE',  ( 31.07893218813454794, 13.00000000000000000, 3.000000000000000000 ) ) ;
#690 = FACE_OUTER_BOUND ( 'NONE', #153, .T. ) ;
#691 = EDGE_CURVE ( 'NONE', #344, #894, #178, .T. ) ;
#692 = AXIS2_PLACEMENT_3D ( 'NONE', #235, #445, #7 ) ;
#693 = EDGE_CURVE ( 'NONE', #720, #957, #410, .T. ) ;
#694 = AXIS2_PLACEMENT_3D ( 'NONE', #104, #321, #47 ) ;
#695 = CARTESIAN_POINT ( 'NONE',  ( -39.89999999999999147, -10.92893218813451561, 3.000000000000000000 ) ) ;
#696 = EDGE_LOOP ( 'NONE', ( #968, #588, #896, #95 ) ) ;
#697 = DIRECTION ( 'NONE',  ( 1.000000000000000000, 0.000000000000000000, 0.000000000000000000 ) ) ;
#698 = CLOSED_SHELL ( 'NONE', ( #309, #251, #2, #151, #216, #771, #742, #289, #589, #156, #245, #360, #571, #832, #422, #103, #937, #175, #556, #77, #879, #665, #284, #880, #113, #450, #704, #420 ) ) ;
#699 = CARTESIAN_POINT ( 'NONE',  ( -34.89999999999999147, 10.92893218813452805, 0.000000000000000000 ) ) ;
#700 = FACE_OUTER_BOUND ( 'NONE', #725, .T. ) ;
#701 = ORIENTED_EDGE ( 'NONE', *, *, #560, .F. ) ;
#702 = CARTESIAN_POINT ( 'NONE',  ( 8.099999999999996092, -18.00000000000000000, 0.000000000000000000 ) ) ;
#703 = CARTESIAN_POINT ( 'NONE',  ( 30.75786437626901915, -18.00000000000000000, 3.000000000000000000 ) ) ;
#704 = ADVANCED_FACE ( 'NONE', ( #847 ), #613, .T. ) ;
#705 = EDGE_CURVE ( 'NONE', #269, #949, #29, .T. ) ;
#706 = DIRECTION ( 'NONE',  ( 1.000000000000000000, 0.000000000000000000, 0.000000000000000000 ) ) ;
#707 = ORIENTED_EDGE ( 'NONE', *, *, #8, .F. ) ;
#708 = EDGE_LOOP ( 'NONE', ( #707, #42 ) ) ;
#709 = CARTESIAN_POINT ( 'NONE',  ( 32.99999999999997158, -13.50000000000005329, 0.000000000000000000 ) ) ;
#710 = DIRECTION ( 'NONE',  ( -0.000000000000000000, -0.000000000000000000, -1.000000000000000000 ) ) ;
#711 = CARTESIAN_POINT ( 'NONE',  ( -32.82893218813451597, 13.00000000000000711, 3.000000000000000000 ) ) ;
#712 = AXIS2_PLACEMENT_3D ( 'NONE', #518, #754, #763 ) ;
#713 = ORIENTED_EDGE ( 'NONE', *, *, #753, .T. ) ;
#714 = ORIENTED_EDGE ( 'NONE', *, *, #72, .T. ) ;
#715 = FACE_OUTER_BOUND ( 'NONE', #127, .T. ) ;
#716 = CYLINDRICAL_SURFACE ( 'NONE', #823, 1.750000000000001554 ) ;
#717 = AXIS2_PLACEMENT_3D ( 'NONE', #765, #233, #143 ) ;
#718 = CIRCLE ( 'NONE', #295, 1.749999999999980682 ) ;
#719 = CARTESIAN_POINT ( 'NONE',  ( -33.00000000000000000, -13.50000000000000178, 3.000000000000000000 ) ) ;
#720 = VERTEX_POINT ( 'NONE', #255 ) ;
#721 = EDGE_LOOP ( 'NONE', ( #798, #779, #59, #875, #33, #858, #303, #109, #441, #606, #567, #651, #276, #70, #566, #684 ) ) ;
#722 = DIRECTION ( 'NONE',  ( -1.000000000000000000, 0.000000000000000000, 0.000000000000000000 ) ) ;
#723 = CARTESIAN_POINT ( 'NONE',  ( 31.24999999999998224, -13.50000000000005329, 0.000000000000000000 ) ) ;
#724 = ORIENTED_EDGE ( 'NONE', *, *, #687, .F. ) ;
#725 = EDGE_LOOP ( 'NONE', ( #52, #629, #200, #853 ) ) ;
#726 = CARTESIAN_POINT ( 'NONE',  ( 31.24999999999998224, -13.50000000000005329, 3.000000000000000000 ) ) ;
#727 = CARTESIAN_POINT ( 'NONE',  ( -34.57893218813451597, 13.00000000000000711, 3.000000000000000000 ) ) ;
#728 = UNCERTAINTY_MEASURE_WITH_UNIT (LENGTH_MEASURE( 1.000000000000000082E-05 ), #547, 'distance_accuracy_value', 'NONE');
#729 =( NAMED_UNIT ( * ) SI_UNIT ( $, .STERADIAN. ) SOLID_ANGLE_UNIT ( ) );
#730 = CARTESIAN_POINT ( 'NONE',  ( -32.82893218813451597, 13.00000000000000711, 3.000000000000000000 ) ) ;
#731 = EDGE_LOOP ( 'NONE', ( #11, #679 ) ) ;
#732 = CARTESIAN_POINT ( 'NONE',  ( -34.89999999999999147, -10.92893218813451384, 0.000000000000000000 ) ) ;
#733 = AXIS2_PLACEMENT_3D ( 'NONE', #625, #390, #785 ) ;
#734 = DIRECTION ( 'NONE',  ( -1.000000000000000000, 0.000000000000000000, 0.000000000000000000 ) ) ;
#735 = ADVANCED_BREP_SHAPE_REPRESENTATION ( 'camera_cover', ( #677, #535 ), #354 ) ;
#736 = AXIS2_PLACEMENT_3D ( 'NONE', #342, #940, #107 ) ;
#737 = DIRECTION ( 'NONE',  ( 0.000000000000000000, 0.000000000000000000, 1.000000000000000000 ) ) ;
#738 = ORIENTED_EDGE ( 'NONE', *, *, #918, .T. ) ;
#739 = CARTESIAN_POINT ( 'NONE',  ( 36.36446609406726793, 16.53553390593273775, 3.000000000000000000 ) ) ;
#740 = CARTESIAN_POINT ( 'NONE',  ( -10.00000000000000000, 0.000000000000000000, 3.000000000000000000 ) ) ;
#741 = EDGE_CURVE ( 'NONE', #481, #459, #272, .T. ) ;
#742 = ADVANCED_FACE ( 'NONE', ( #190, #482, #409, #946, #795, #60 ), #574, .F. ) ;
#743 = CYLINDRICAL_SURFACE ( 'NONE', #669, 1.750000000000001554 ) ;
#744 = EDGE_CURVE ( 'NONE', #355, #720, #123, .T. ) ;
#745 = ORIENTED_EDGE ( 'NONE', *, *, #899, .T. ) ;
#746 = DIRECTION ( 'NONE',  ( 0.000000000000000000, 0.000000000000000000, 1.000000000000000000 ) ) ;
#747 = APPLICATION_CONTEXT ( 'automotive_design' ) ;
#748 = CARTESIAN_POINT ( 'NONE',  ( -31.07893218813451242, 13.00000000000000711, 3.000000000000000000 ) ) ;
#749 = ORIENTED_EDGE ( 'NONE', *, *, #659, .F. ) ;
#750 = AXIS2_PLACEMENT_3D ( 'NONE', #732, #864, #568 ) ;
#751 = DIRECTION ( 'NONE',  ( 0.000000000000000000, 0.000000000000000000, 1.000000000000000000 ) ) ;
#752 = ORIENTED_EDGE ( 'NONE', *, *, #84, .T. ) ;
#753 = EDGE_CURVE ( 'NONE', #155, #949, #419, .T. ) ;
#754 = DIRECTION ( 'NONE',  ( 0.000000000000000000, 0.000000000000000000, 1.000000000000000000 ) ) ;
#755 = ORIENTED_EDGE ( 'NONE', *, *, #361, .F. ) ;
#756 = CARTESIAN_POINT ( 'NONE',  ( -39.89999999999999147, 10.92893218813452627, 3.000000000000000000 ) ) ;
#757 = ORIENTED_EDGE ( 'NONE', *, *, #557, .T. ) ;
#758 = CARTESIAN_POINT ( 'NONE',  ( -32.82893218813451597, 13.00000000000000711, 3.000000000000000000 ) ) ;
#759 = VECTOR ( 'NONE', #788, 1000.000000000000000 ) ;
#760 = DIRECTION ( 'NONE',  ( -1.000000000000000000, 0.000000000000000000, 0.000000000000000000 ) ) ;
#761 = CIRCLE ( 'NONE', #302, 1.750000000000001554 ) ;
#762 = ORIENTED_EDGE ( 'NONE', *, *, #37, .F. ) ;
#763 = DIRECTION ( 'NONE',  ( 1.000000000000000000, 0.000000000000000000, 0.000000000000000000 ) ) ;
#764 = AXIS2_PLACEMENT_3D ( 'NONE', #805, #433, #217 ) ;
#765 = CARTESIAN_POINT ( 'NONE',  ( -34.89999999999999147, 10.92893218813452805, 3.000000000000000000 ) ) ;
#766 = EDGE_CURVE ( 'NONE', #121, #436, #569, .T. ) ;
#767 = ORIENTED_EDGE ( 'NONE', *, *, #810, .T. ) ;
#768 = EDGE_CURVE ( 'NONE', #65, #310, #637, .T. ) ;
#769 = LINE ( 'NONE', #689, #759 ) ;
#770 = LINE ( 'NONE', #174, #43 ) ;
#771 = ADVANCED_FACE ( 'NONE', ( #270, #882, #498, #50, #425, #66 ), #657, .T. ) ;
#772 = DIRECTION ( 'NONE',  ( 1.000000000000000000, 0.000000000000000000, 0.000000000000000000 ) ) ;
#773 = ORIENTED_EDGE ( 'NONE', *, *, #485, .F. ) ;
#774 = CARTESIAN_POINT ( 'NONE',  ( 34.90000000000000568, 10.92893218813451561, 3.000000000000000000 ) ) ;
#775 = DIRECTION ( 'NONE',  ( -0.000000000000000000, -0.000000000000000000, -1.000000000000000000 ) ) ;
#776 = VECTOR ( 'NONE', #223, 1000.000000000000000 ) ;
#777 = VECTOR ( 'NONE', #364, 1000.000000000000000 ) ;
#778 = LINE ( 'NONE', #620, #850 ) ;
#779 = ORIENTED_EDGE ( 'NONE', *, *, #455, .T. ) ;
#780 = EDGE_CURVE ( 'NONE', #82, #675, #201, .T. ) ;
#781 = CARTESIAN_POINT ( 'NONE',  ( 30.75786437626905112, -8.000000000000001776, 3.000000000000000000 ) ) ;
#782 = FACE_OUTER_BOUND ( 'NONE', #540, .T. ) ;
#783 = ORIENTED_EDGE ( 'NONE', *, *, #215, .T. ) ;
#784 = CARTESIAN_POINT ( 'NONE',  ( -37.82893218813451597, -15.07106781186547018, 3.000000000000000000 ) ) ;
#785 = DIRECTION ( 'NONE',  ( -1.000000000000000000, 0.000000000000000000, 0.000000000000000000 ) ) ;
#786 = ORIENTED_EDGE ( 'NONE', *, *, #448, .F. ) ;
#787 = ORIENTED_EDGE ( 'NONE', *, *, #55, .T. ) ;
#788 = DIRECTION ( 'NONE',  ( -0.000000000000000000, -0.000000000000000000, -1.000000000000000000 ) ) ;
#789 = CARTESIAN_POINT ( 'NONE',  ( -32.82893218813451597, 13.00000000000000711, 0.000000000000000000 ) ) ;
#790 = DIRECTION ( 'NONE',  ( 0.7071067811865474617, -0.7071067811865474617, -0.000000000000000000 ) ) ;
#791 = AXIS2_PLACEMENT_3D ( 'NONE', #169, #630, #110 ) ;
#792 = ORIENTED_EDGE ( 'NONE', *, *, #278, .T. ) ;
#793 = VECTOR ( 'NONE', #790, 1000.000000000000114 ) ;
#794 = ORIENTED_EDGE ( 'NONE', *, *, #84, .F. ) ;
#795 = FACE_BOUND ( 'NONE', #80, .T. ) ;
#796 = CARTESIAN_POINT ( 'NONE',  ( -31.24999999999999645, -13.50000000000000178, 0.000000000000000000 ) ) ;
#797 = ORIENTED_EDGE ( 'NONE', *, *, #691, .T. ) ;
#798 = ORIENTED_EDGE ( 'NONE', *, *, #768, .T. ) ;
#799 = CARTESIAN_POINT ( 'NONE',  ( 39.90000000000000568, 10.92893218813450851, 0.000000000000000000 ) ) ;
#800 = FACE_OUTER_BOUND ( 'NONE', #49, .T. ) ;
#801 = EDGE_CURVE ( 'NONE', #399, #459, #958, .T. ) ;
#802 = DIRECTION ( 'NONE',  ( -1.000000000000000000, 0.000000000000000000, 0.000000000000000000 ) ) ;
#803 = ORIENTED_EDGE ( 'NONE', *, *, #148, .F. ) ;
#804 = FACE_OUTER_BOUND ( 'NONE', #204, .T. ) ;
#805 = CARTESIAN_POINT ( 'NONE',  ( -30.75786437626904046, -7.999999999999992895, 3.000000000000000000 ) ) ;
#806 = DIRECTION ( 'NONE',  ( -0.000000000000000000, -0.000000000000000000, -1.000000000000000000 ) ) ;
#807 = VECTOR ( 'NONE', #341, 1000.000000000000000 ) ;
#808 = ORIENTED_EDGE ( 'NONE', *, *, #85, .T. ) ;
#809 = CARTESIAN_POINT ( 'NONE',  ( -38.43553390593272923, 14.46446609406726225, 3.000000000000000000 ) ) ;
#810 = EDGE_CURVE ( 'NONE', #48, #14, #523, .T. ) ;
#811 = DIRECTION ( 'NONE',  ( -1.000000000000000000, 0.000000000000000000, 0.000000000000000000 ) ) ;
#812 = CIRCLE ( 'NONE', #915, 1.749999999999991118 ) ;
#813 = VECTOR ( 'NONE', #112, 1000.000000000000000 ) ;
#814 = CARTESIAN_POINT ( 'NONE',  ( -32.82893218813451597, 18.00000000000000711, 3.000000000000000000 ) ) ;
#815 = ORIENTED_EDGE ( 'NONE', *, *, #116, .F. ) ;
#816 = DIRECTION ( 'NONE',  ( -0.000000000000000000, -0.000000000000000000, -1.000000000000000000 ) ) ;
#817 = DIRECTION ( 'NONE',  ( -1.000000000000000000, 0.000000000000000000, 0.000000000000000000 ) ) ;
#818 = ORIENTED_EDGE ( 'NONE', *, *, #560, .T. ) ;
#819 = DIRECTION ( 'NONE',  ( -1.000000000000000000, 3.174552547521865467E-16, 0.000000000000000000 ) ) ;
#820 = ORIENTED_EDGE ( 'NONE', *, *, #146, .T. ) ;
#821 = AXIS2_PLACEMENT_3D ( 'NONE', #876, #871, #490 ) ;
#822 = CARTESIAN_POINT ( 'NONE',  ( 38.43553390593274344, 14.46446609406725869, 3.000000000000000000 ) ) ;
#823 = AXIS2_PLACEMENT_3D ( 'NONE', #335, #866, #97 ) ;
#824 = ORIENTED_EDGE ( 'NONE', *, *, #383, .T. ) ;
#825 = CARTESIAN_POINT ( 'NONE',  ( 0.000000000000000000, 0.000000000000000000, 3.000000000000000000 ) ) ;
#826 = ORIENTED_EDGE ( 'NONE', *, *, #522, .F. ) ;
#827 = CARTESIAN_POINT ( 'NONE',  ( -38.43553390593272923, -14.46446609406725337, 3.000000000000000000 ) ) ;
#828 = FACE_OUTER_BOUND ( 'NONE', #131, .T. ) ;
#829 = ORIENTED_EDGE ( 'NONE', *, *, #349, .F. ) ;
#830 = EDGE_CURVE ( 'NONE', #720, #675, #195, .T. ) ;
#831 = CARTESIAN_POINT ( 'NONE',  ( 34.57893218813450886, 13.00000000000000000, 3.000000000000000000 ) ) ;
#832 = ADVANCED_FACE ( 'NONE', ( #804 ), #430, .T. ) ;
#833 = STYLED_ITEM ( 'NONE', ( #931 ), #677 ) ;
#834 = CARTESIAN_POINT ( 'NONE',  ( -34.57893218813451597, 13.00000000000000711, 3.000000000000000000 ) ) ;
#835 = EDGE_CURVE ( 'NONE', #863, #155, #507, .T. ) ;
#836 = EDGE_LOOP ( 'NONE', ( #714, #641 ) ) ;
#837 = DIRECTION ( 'NONE',  ( 1.000000000000000000, 0.000000000000000000, 0.000000000000000000 ) ) ;
#838 = VECTOR ( 'NONE', #353, 1000.000000000000000 ) ;
#839 = DIRECTION ( 'NONE',  ( 0.000000000000000000, 0.000000000000000000, 1.000000000000000000 ) ) ;
#840 = DIRECTION ( 'NONE',  ( 1.000000000000000000, 0.000000000000000000, 0.000000000000000000 ) ) ;
#841 = VERTEX_POINT ( 'NONE', #939 ) ;
#842 = CARTESIAN_POINT ( 'NONE',  ( 30.75786437626905112, -18.00000000000000355, 3.000000000000000000 ) ) ;
#843 = DIRECTION ( 'NONE',  ( -0.7071067811865470176, -0.7071067811865480168, 0.000000000000000000 ) ) ;
#844 = CARTESIAN_POINT ( 'NONE',  ( 32.82893218813453018, 13.00000000000000000, 0.000000000000000000 ) ) ;
#845 = EDGE_CURVE ( 'NONE', #957, #32, #437, .T. ) ;
#846 = ORIENTED_EDGE ( 'NONE', *, *, #325, .T. ) ;
#847 = FACE_OUTER_BOUND ( 'NONE', #513, .T. ) ;
#848 = DIRECTION ( 'NONE',  ( 0.000000000000000000, 0.000000000000000000, 1.000000000000000000 ) ) ;
#849 = VECTOR ( 'NONE', #96, 1000.000000000000000 ) ;
#850 = VECTOR ( 'NONE', #40, 999.9999999999998863 ) ;
#851 = DIRECTION ( 'NONE',  ( -1.056826013124967889E-16, -1.000000000000000000, 0.000000000000000000 ) ) ;
#852 = VERTEX_POINT ( 'NONE', #861 ) ;
#853 = ORIENTED_EDGE ( 'NONE', *, *, #741, .F. ) ;
#854 = AXIS2_PLACEMENT_3D ( 'NONE', #285, #581, #586 ) ;
#855 = CIRCLE ( 'NONE', #415, 1.749999999999991118 ) ;
#856 = DIRECTION ( 'NONE',  ( -0.000000000000000000, -0.000000000000000000, -1.000000000000000000 ) ) ;
#857 = DIRECTION ( 'NONE',  ( 0.000000000000000000, 0.000000000000000000, 1.000000000000000000 ) ) ;
#858 = ORIENTED_EDGE ( 'NONE', *, *, #693, .T. ) ;
#859 = DIRECTION ( 'NONE',  ( -1.000000000000000000, 0.000000000000000000, 0.000000000000000000 ) ) ;
#860 = DIRECTION ( 'NONE',  ( 1.000000000000000000, 0.000000000000000000, 0.000000000000000000 ) ) ;
#861 = CARTESIAN_POINT ( 'NONE',  ( -37.82893218813451597, -15.07106781186547018, 3.000000000000000000 ) ) ;
#862 = EDGE_LOOP ( 'NONE', ( #824, #936, #265, #237 ) ) ;
#863 = VERTEX_POINT ( 'NONE', #466 ) ;
#864 = DIRECTION ( 'NONE',  ( 0.000000000000000000, 0.000000000000000000, 1.000000000000000000 ) ) ;
#865 = EDGE_CURVE ( 'NONE', #429, #399, #136, .T. ) ;
#866 = DIRECTION ( 'NONE',  ( -0.000000000000000000, -0.000000000000000000, -1.000000000000000000 ) ) ;
#867 = VECTOR ( 'NONE', #323, 1000.000000000000000 ) ;
#868 = CARTESIAN_POINT ( 'NONE',  ( 32.99999999999997158, -13.50000000000005329, 3.000000000000000000 ) ) ;
#869 = EDGE_CURVE ( 'NONE', #344, #388, #610, .T. ) ;
#870 = VERTEX_POINT ( 'NONE', #181 ) ;
#871 = DIRECTION ( 'NONE',  ( 0.000000000000000000, 0.000000000000000000, 1.000000000000000000 ) ) ;
#872 = EDGE_CURVE ( 'NONE', #863, #269, #479, .T. ) ;
#873 = DIRECTION ( 'NONE',  ( 1.000000000000000000, 0.000000000000000000, 0.000000000000000000 ) ) ;
#874 = DIRECTION ( 'NONE',  ( 0.000000000000000000, 0.000000000000000000, 1.000000000000000000 ) ) ;
#875 = ORIENTED_EDGE ( 'NONE', *, *, #529, .T. ) ;
#876 = CARTESIAN_POINT ( 'NONE',  ( -34.89999999999999147, -10.92893218813451384, 3.000000000000000000 ) ) ;
#877 = DIRECTION ( 'NONE',  ( -0.7071067811865472397, -0.7071067811865479058, 0.000000000000000000 ) ) ;
#878 = ORIENTED_EDGE ( 'NONE', *, *, #448, .T. ) ;
#879 = ADVANCED_FACE ( 'NONE', ( #539 ), #402, .F. ) ;
#880 = ADVANCED_FACE ( 'NONE', ( #700 ), #263, .F. ) ;
#881 = EDGE_LOOP ( 'NONE', ( #826, #408, #914, #41, #281, #363, #193, #144, #137, #892, #416, #502, #234, #773, #244, #786 ) ) ;
#882 = FACE_BOUND ( 'NONE', #930, .T. ) ;
#883 = CARTESIAN_POINT ( 'NONE',  ( 32.82893218813453018, 13.00000000000000000, 3.000000000000000000 ) ) ;
#884 = LINE ( 'NONE', #147, #680 ) ;
#885 = AXIS2_PLACEMENT_3D ( 'NONE', #442, #746, #421 ) ;
#886 = VERTEX_POINT ( 'NONE', #406 ) ;
#887 = AXIS2_PLACEMENT_3D ( 'NONE', #719, #857, #326 ) ;
#888 = CARTESIAN_POINT ( 'NONE',  ( 0.000000000000000000, 0.000000000000000000, 0.000000000000000000 ) ) ;
#889 = AXIS2_PLACEMENT_3D ( 'NONE', #412, #118, #860 ) ;
#890 = VECTOR ( 'NONE', #129, 1000.000000000000000 ) ;
#891 = PLANE ( 'NONE',  #62 ) ;
#892 = ORIENTED_EDGE ( 'NONE', *, *, #624, .F. ) ;
#893 = CARTESIAN_POINT ( 'NONE',  ( -32.82893218813451597, 18.00000000000000711, 3.000000000000000000 ) ) ;
#894 = VERTEX_POINT ( 'NONE', #475 ) ;
#895 = DIRECTION ( 'NONE',  ( 0.7071067811865475727, -0.7071067811865475727, 0.000000000000000000 ) ) ;
#896 = ORIENTED_EDGE ( 'NONE', *, *, #361, .T. ) ;
#897 = VECTOR ( 'NONE', #477, 1000.000000000000000 ) ;
#898 = DIRECTION ( 'NONE',  ( 1.000000000000000000, 0.000000000000000000, 0.000000000000000000 ) ) ;
#899 = EDGE_CURVE ( 'NONE', #656, #338, #198, .T. ) ;
#900 = VERTEX_POINT ( 'NONE', #120 ) ;
#901 = DIRECTION ( 'NONE',  ( -0.000000000000000000, -0.000000000000000000, -1.000000000000000000 ) ) ;
#902 = CARTESIAN_POINT ( 'NONE',  ( -33.00000000000000000, -13.50000000000000178, 3.000000000000000000 ) ) ;
#903 = EDGE_CURVE ( 'NONE', #524, #644, #317, .T. ) ;
#904 = EDGE_CURVE ( 'NONE', #923, #616, #585, .T. ) ;
#905 = ORIENTED_EDGE ( 'NONE', *, *, #753, .F. ) ;
#906 = DIRECTION ( 'NONE',  ( -0.7071067811865474617, 0.7071067811865474617, 0.000000000000000000 ) ) ;
#907 = DIRECTION ( 'NONE',  ( 1.294569758191646909E-16, 1.000000000000000000, -0.000000000000000000 ) ) ;
#908 = EDGE_CURVE ( 'NONE', #429, #481, #928, .T. ) ;
#909 = ORIENTED_EDGE ( 'NONE', *, *, #527, .F. ) ;
#910 = ORIENTED_EDGE ( 'NONE', *, *, #491, .F. ) ;
#911 = SURFACE_STYLE_FILL_AREA ( #921 ) ;
#912 = AXIS2_PLACEMENT_3D ( 'NONE', #781, #106, #558 ) ;
#913 = LINE ( 'NONE', #242, #461 ) ;
#914 = ORIENTED_EDGE ( 'NONE', *, *, #691, .F. ) ;
#915 = AXIS2_PLACEMENT_3D ( 'NONE', #555, #407, #538 ) ;
#916 = SURFACE_SIDE_STYLE ('',( #911 ) ) ;
#917 = DIRECTION ( 'NONE',  ( 1.000000000000000000, 0.000000000000000000, 0.000000000000000000 ) ) ;
#918 = EDGE_CURVE ( 'NONE', #158, #376, #761, .T. ) ;
#919 = DIRECTION ( 'NONE',  ( 1.000000000000000000, -1.056826013124967889E-16, 0.000000000000000000 ) ) ;
#920 = ORIENTED_EDGE ( 'NONE', *, *, #455, .F. ) ;
#921 = FILL_AREA_STYLE ('',( #400 ) ) ;
#922 = CARTESIAN_POINT ( 'NONE',  ( -33.00000000000000000, -13.50000000000000178, 3.000000000000000000 ) ) ;
#923 = VERTEX_POINT ( 'NONE', #171 ) ;
#924 = ORIENTED_EDGE ( 'NONE', *, *, #869, .F. ) ;
#925 = LINE ( 'NONE', #261, #446 ) ;
#926 = DIRECTION ( 'NONE',  ( 0.000000000000000000, 0.000000000000000000, 1.000000000000000000 ) ) ;
#927 = PRODUCT_DEFINITION_FORMATION_WITH_SPECIFIED_SOURCE ( 'ANY', '', #575, .NOT_KNOWN. ) ;
#928 = LINE ( 'NONE', #615, #273 ) ;
#929 = DIRECTION ( 'NONE',  ( -0.000000000000000000, -1.000000000000000000, -0.000000000000000000 ) ) ;
#930 = EDGE_LOOP ( 'NONE', ( #333, #544 ) ) ;
#931 = PRESENTATION_STYLE_ASSIGNMENT (( #550 ) ) ;
#932 = AXIS2_PLACEMENT_3D ( 'NONE', #396, #775, #934 ) ;
#933 = VECTOR ( 'NONE', #279, 1000.000000000000000 ) ;
#934 = DIRECTION ( 'NONE',  ( -1.000000000000000000, 0.000000000000000000, 0.000000000000000000 ) ) ;
#935 = CARTESIAN_POINT ( 'NONE',  ( -32.82893218813451597, 18.00000000000000711, 3.000000000000000000 ) ) ;
#936 = ORIENTED_EDGE ( 'NONE', *, *, #243, .T. ) ;
#937 = ADVANCED_FACE ( 'NONE', ( #561 ), #639, .F. ) ;
#938 = ORIENTED_EDGE ( 'NONE', *, *, #705, .T. ) ;
#939 = CARTESIAN_POINT ( 'NONE',  ( 37.82893218813453018, -15.07106781186546840, 3.000000000000000000 ) ) ;
#940 = DIRECTION ( 'NONE',  ( -0.000000000000000000, -0.000000000000000000, -1.000000000000000000 ) ) ;
#941 = EDGE_CURVE ( 'NONE', #870, #923, #778, .T. ) ;
#942 = CARTESIAN_POINT ( 'NONE',  ( -34.89999999999999147, -17.99999999999999289, 0.000000000000000000 ) ) ;
#943 = CYLINDRICAL_SURFACE ( 'NONE', #512, 1.749999999999991118 ) ;
#944 = EDGE_CURVE ( 'NONE', #249, #194, #291, .T. ) ;
#945 = ORIENTED_EDGE ( 'NONE', *, *, #55, .F. ) ;
#946 = FACE_BOUND ( 'NONE', #836, .T. ) ;
#947 = CARTESIAN_POINT ( 'NONE',  ( -30.75786437626904046, -17.99999999999999645, 0.000000000000000000 ) ) ;
#948 = VECTOR ( 'NONE', #132, 1000.000000000000000 ) ;
#949 = VERTEX_POINT ( 'NONE', #336 ) ;
#950 = VERTEX_POINT ( 'NONE', #192 ) ;
#951 = CARTESIAN_POINT ( 'NONE',  ( 39.90000000000000568, 10.92893218813450851, 3.000000000000000000 ) ) ;
#952 = CARTESIAN_POINT ( 'NONE',  ( -30.75786437626904046, -7.999999999999992895, 3.000000000000000000 ) ) ;
#953 = CIRCLE ( 'NONE', #526, 4.999999999999997335 ) ;
#954 = UNCERTAINTY_MEASURE_WITH_UNIT (LENGTH_MEASURE( 1.000000000000000082E-05 ), #545, 'distance_accuracy_value', 'NONE');
#955 = EDGE_CURVE ( 'NONE', #14, #388, #486, .T. ) ;
#956 = ORIENTED_EDGE ( 'NONE', *, *, #801, .F. ) ;
#957 = VERTEX_POINT ( 'NONE', #98 ) ;
#958 = LINE ( 'NONE', #726, #948 ) ;
#959 = CARTESIAN_POINT ( 'NONE',  ( 34.89999999999999858, -10.92893218813452272, 0.000000000000000000 ) ) ;
#960 = FACE_OUTER_BOUND ( 'NONE', #532, .T. ) ;
#961 = ORIENTED_EDGE ( 'NONE', *, *, #485, .T. ) ;
#962 = CARTESIAN_POINT ( 'NONE',  ( 0.000000000000000000, 0.000000000000000000, 3.000000000000000000 ) ) ;
#963 = LINE ( 'NONE', #170, #495 ) ;
#964 = EDGE_LOOP ( 'NONE', ( #497, #745, #1, #306 ) ) ;
#965 = LINE ( 'NONE', #893, #10 ) ;
#966 = CIRCLE ( 'NONE', #166, 1.749999999999980682 ) ;
#967 = CARTESIAN_POINT ( 'NONE',  ( 8.099999999999996092, -18.00000000000000000, 3.000000000000000000 ) ) ;
#968 = ORIENTED_EDGE ( 'NONE', *, *, #111, .F. ) ;
#969 = DIRECTION ( 'NONE',  ( -0.000000000000000000, -0.000000000000000000, -1.000000000000000000 ) ) ;
ENDSEC;
END-ISO-10303-21;
