ISO-10303-21;
HEADER;
FILE_DESCRIPTION (( 'STEP AP214' ),
    '1' );
FILE_NAME ('camer_tracker_base_cover.STEP',
    '2026-05-16T14:55:15',
    ( '' ),
    ( '' ),
    'SwSTEP 2.0',
    'SolidWorks 2024',
    '' );
FILE_SCHEMA (( 'AUTOMOTIVE_DESIGN' ));
ENDSEC;

DATA;
#1 = DIRECTION ( 'NONE',  ( -0.000000000000000000, -0.000000000000000000, -1.000000000000000000 ) ) ;
#2 = CARTESIAN_POINT ( 'NONE',  ( -42.01522368914974237, 18.38477631085023845, 0.000000000000000000 ) ) ;
#3 = CARTESIAN_POINT ( 'NONE',  ( -71.34136002903926510, 14.40570333659612601, 2.000000000000000000 ) ) ;
#4 = ORIENTED_EDGE ( 'NONE', *, *, #253, .T. ) ;
#5 = EDGE_CURVE ( 'NONE', #795, #752, #228, .T. ) ;
#6 = VECTOR ( 'NONE', #358, 1000.000000000000000 ) ;
#7 = CARTESIAN_POINT ( 'NONE',  ( -46.25863997096080027, 14.40570333659616331, 0.000000000000000000 ) ) ;
#8 = EDGE_CURVE ( 'NONE', #120, #33, #370, .T. ) ;
#9 = DIRECTION ( 'NONE',  ( 1.000000000000000000, 0.000000000000000000, 0.000000000000000000 ) ) ;
#10 = CARTESIAN_POINT ( 'NONE',  ( -75.58477631085023063, -18.38477631085024555, 0.000000000000000000 ) ) ;
#11 = EDGE_LOOP ( 'NONE', ( #560, #671 ) ) ;
#12 = EDGE_CURVE ( 'NONE', #752, #552, #519, .T. ) ;
#13 = DIRECTION ( 'NONE',  ( -0.000000000000000000, -0.000000000000000000, -1.000000000000000000 ) ) ;
#14 = ORIENTED_EDGE ( 'NONE', *, *, #505, .F. ) ;
#15 = VERTEX_POINT ( 'NONE', #359 ) ;
#16 = CYLINDRICAL_SURFACE ( 'NONE', #817, 1.599999999999997202 ) ;
#17 = CYLINDRICAL_SURFACE ( 'NONE', #551, 9.999999999999994671 ) ;
#18 = ORIENTED_EDGE ( 'NONE', *, *, #580, .T. ) ;
#19 = AXIS2_PLACEMENT_3D ( 'NONE', #422, #165, #692 ) ;
#20 = ORIENTED_EDGE ( 'NONE', *, *, #711, .F. ) ;
#21 = VECTOR ( 'NONE', #58, 1000.000000000000000 ) ;
#22 = LINE ( 'NONE', #683, #757 ) ;
#23 = CARTESIAN_POINT ( 'NONE',  ( -42.01522368914976369, -18.38477631085023134, 0.000000000000000000 ) ) ;
#24 = VERTEX_POINT ( 'NONE', #353 ) ;
#25 = DIRECTION ( 'NONE',  ( 0.000000000000000000, 0.000000000000000000, 1.000000000000000000 ) ) ;
#26 = ADVANCED_FACE ( 'NONE', ( #623 ), #477, .F. ) ;
#27 = LINE ( 'NONE', #104, #6 ) ;
#28 = CARTESIAN_POINT ( 'NONE',  ( -60.39999999999999858, 26.00000000000000711, 2.000000000000000000 ) ) ;
#29 = ORIENTED_EDGE ( 'NONE', *, *, #258, .F. ) ;
#30 = CARTESIAN_POINT ( 'NONE',  ( -81.34136002903926510, -14.40570333659613134, 2.000000000000000000 ) ) ;
#31 = LINE ( 'NONE', #625, #222 ) ;
#32 = CARTESIAN_POINT ( 'NONE',  ( -58.80000000000001137, -1.361020142258940230E-15, 0.000000000000000000 ) ) ;
#33 = VERTEX_POINT ( 'NONE', #346 ) ;
#34 = EDGE_CURVE ( 'NONE', #782, #667, #350, .T. ) ;
#35 = AXIS2_PLACEMENT_3D ( 'NONE', #674, #71, #603 ) ;
#36 = CYLINDRICAL_SURFACE ( 'NONE', #49, 1.600000000000004086 ) ;
#37 = CIRCLE ( 'NONE', #106, 1.600000000000004086 ) ;
#38 = DIRECTION ( 'NONE',  ( 1.000000000000000000, 0.000000000000000000, 0.000000000000000000 ) ) ;
#39 = EDGE_LOOP ( 'NONE', ( #284, #627, #835, #308 ) ) ;
#40 = CARTESIAN_POINT ( 'NONE',  ( -39.80000000000000426, 9.658087761210321212E-16, 2.000000000000000000 ) ) ;
#41 = EDGE_CURVE ( 'NONE', #761, #90, #742, .T. ) ;
#42 = ORIENTED_EDGE ( 'NONE', *, *, #565, .F. ) ;
#43 = VERTEX_POINT ( 'NONE', #495 ) ;
#44 = CYLINDRICAL_SURFACE ( 'NONE', #563, 1.599999999999997202 ) ;
#45 = DIRECTION ( 'NONE',  ( 0.000000000000000000, 0.000000000000000000, 1.000000000000000000 ) ) ;
#46 = ORIENTED_EDGE ( 'NONE', *, *, #41, .T. ) ;
#47 = AXIS2_PLACEMENT_3D ( 'NONE', #453, #322, #529 ) ;
#48 = DIRECTION ( 'NONE',  ( 0.000000000000000000, 0.000000000000000000, 1.000000000000000000 ) ) ;
#49 = AXIS2_PLACEMENT_3D ( 'NONE', #339, #807, #162 ) ;
#50 = DIRECTION ( 'NONE',  ( 0.000000000000000000, 0.000000000000000000, 1.000000000000000000 ) ) ;
#51 = CIRCLE ( 'NONE', #521, 1.600000000000004086 ) ;
#52 = AXIS2_PLACEMENT_3D ( 'NONE', #615, #45, #38 ) ;
#53 = ORIENTED_EDGE ( 'NONE', *, *, #555, .T. ) ;
#54 = EDGE_CURVE ( 'NONE', #690, #149, #413, .T. ) ;
#55 = DIRECTION ( 'NONE',  ( -0.000000000000000000, -0.000000000000000000, -1.000000000000000000 ) ) ;
#56 = CYLINDRICAL_SURFACE ( 'NONE', #842, 1.599999999999997202 ) ;
#57 = ORIENTED_EDGE ( 'NONE', *, *, #70, .T. ) ;
#58 = DIRECTION ( 'NONE',  ( -0.000000000000000000, -0.000000000000000000, 1.000000000000000000 ) ) ;
#59 =( NAMED_UNIT ( * ) PLANE_ANGLE_UNIT ( ) SI_UNIT ( $, .RADIAN. ) );
#60 = EDGE_LOOP ( 'NONE', ( #806, #573, #64, #20 ) ) ;
#61 = CARTESIAN_POINT ( 'NONE',  ( -38.81522368914976795, -18.38477631085023134, 0.000000000000000000 ) ) ;
#62 = AXIS2_PLACEMENT_3D ( 'NONE', #668, #196, #82 ) ;
#63 = CARTESIAN_POINT ( 'NONE',  ( -58.79999999999999716, -26.00000000000000711, 0.000000000000000000 ) ) ;
#64 = ORIENTED_EDGE ( 'NONE', *, *, #646, .F. ) ;
#65 = DIRECTION ( 'NONE',  ( 1.000000000000000000, 0.000000000000000000, 0.000000000000000000 ) ) ;
#66 = FACE_OUTER_BOUND ( 'NONE', #471, .T. ) ;
#67 = EDGE_LOOP ( 'NONE', ( #72, #86, #351, #753, #739, #299, #492, #545 ) ) ;
#68 = CARTESIAN_POINT ( 'NONE',  ( -81.34136002903926510, -14.40570333659613134, 2.000000000000000000 ) ) ;
#69 = CARTESIAN_POINT ( 'NONE',  ( -40.41522368914974805, 18.38477631085023845, 0.000000000000000000 ) ) ;
#70 = EDGE_CURVE ( 'NONE', #531, #33, #760, .T. ) ;
#71 = DIRECTION ( 'NONE',  ( 0.000000000000000000, 0.000000000000000000, 1.000000000000000000 ) ) ;
#72 = ORIENTED_EDGE ( 'NONE', *, *, #740, .F. ) ;
#73 = EDGE_CURVE ( 'NONE', #423, #782, #156, .T. ) ;
#74 = CARTESIAN_POINT ( 'NONE',  ( -40.41522368914976227, -18.38477631085023134, 2.000000000000000000 ) ) ;
#75 = DIRECTION ( 'NONE',  ( 0.000000000000000000, 0.000000000000000000, 1.000000000000000000 ) ) ;
#76 = CIRCLE ( 'NONE', #451, 1.600000000000004086 ) ;
#77 = ORIENTED_EDGE ( 'NONE', *, *, #707, .T. ) ;
#78 = ORIENTED_EDGE ( 'NONE', *, *, #12, .T. ) ;
#79 = CARTESIAN_POINT ( 'NONE',  ( -77.18477631085022495, 18.38477631085024555, 2.000000000000000000 ) ) ;
#80 = ORIENTED_EDGE ( 'NONE', *, *, #411, .T. ) ;
#81 = ORIENTED_EDGE ( 'NONE', *, *, #217, .F. ) ;
#82 = DIRECTION ( 'NONE',  ( 1.000000000000000000, 0.000000000000000000, 0.000000000000000000 ) ) ;
#83 = ORIENTED_EDGE ( 'NONE', *, *, #796, .F. ) ;
#84 = CARTESIAN_POINT ( 'NONE',  ( -58.79999999999999716, 26.00000000000000711, 2.000000000000000000 ) ) ;
#85 = CARTESIAN_POINT ( 'NONE',  ( -58.80000000000001137, -1.361020142258940230E-15, 2.000000000000000000 ) ) ;
#86 = ORIENTED_EDGE ( 'NONE', *, *, #736, .T. ) ;
#87 = EDGE_CURVE ( 'NONE', #782, #423, #637, .T. ) ;
#88 = CARTESIAN_POINT ( 'NONE',  ( -81.34136002903926510, 18.40372484148879906, 2.000000000000000000 ) ) ;
#89 = CARTESIAN_POINT ( 'NONE',  ( -42.01522368914976369, -18.38477631085023134, 0.000000000000000000 ) ) ;
#90 = VERTEX_POINT ( 'NONE', #28 ) ;
#91 = DIRECTION ( 'NONE',  ( -0.000000000000000000, -0.000000000000000000, 1.000000000000000000 ) ) ;
#92 = ADVANCED_FACE ( 'NONE', ( #287 ), #151, .F. ) ;
#93 = ORIENTED_EDGE ( 'NONE', *, *, #484, .F. ) ;
#94 = VERTEX_POINT ( 'NONE', #159 ) ;
#95 = DIRECTION ( 'NONE',  ( 1.000000000000000000, 0.000000000000000000, 0.000000000000000000 ) ) ;
#96 = DIRECTION ( 'NONE',  ( 1.000000000000000000, 0.000000000000000000, 0.000000000000000000 ) ) ;
#97 = DIRECTION ( 'NONE',  ( 0.000000000000000000, 0.000000000000000000, 1.000000000000000000 ) ) ;
#98 = APPLICATION_CONTEXT ( 'automotive_design' ) ;
#99 = ORIENTED_EDGE ( 'NONE', *, *, #307, .F. ) ;
#100 = CIRCLE ( 'NONE', #574, 10.00000000000000178 ) ;
#101 = AXIS2_PLACEMENT_3D ( 'NONE', #638, #643, #112 ) ;
#102 = ADVANCED_FACE ( 'NONE', ( #417 ), #685, .F. ) ;
#103 = AXIS2_PLACEMENT_3D ( 'NONE', #63, #376, #301 ) ;
#104 = CARTESIAN_POINT ( 'NONE',  ( -39.69248288769419730, 21.94795639240567553, 2.000000000000000000 ) ) ;
#105 = APPLICATION_PROTOCOL_DEFINITION ( 'draft international standard', 'automotive_design', 1998, #374 ) ;
#106 = AXIS2_PLACEMENT_3D ( 'NONE', #530, #791, #528 ) ;
#107 = ORIENTED_EDGE ( 'NONE', *, *, #565, .T. ) ;
#108 = VERTEX_POINT ( 'NONE', #311 ) ;
#109 = CARTESIAN_POINT ( 'NONE',  ( -75.58477631085023063, 18.38477631085024555, 0.000000000000000000 ) ) ;
#110 = DIRECTION ( 'NONE',  ( -0.000000000000000000, -0.000000000000000000, 1.000000000000000000 ) ) ;
#111 = ORIENTED_EDGE ( 'NONE', *, *, #281, .T. ) ;
#112 = DIRECTION ( 'NONE',  ( 1.000000000000000000, 0.000000000000000000, 0.000000000000000000 ) ) ;
#113 = CYLINDRICAL_SURFACE ( 'NONE', #354, 9.999999999999994671 ) ;
#114 = ORIENTED_EDGE ( 'NONE', *, *, #253, .F. ) ;
#115 = ADVANCED_FACE ( 'NONE', ( #514 ), #56, .F. ) ;
#116 = AXIS2_PLACEMENT_3D ( 'NONE', #135, #599, #464 ) ;
#117 = DIRECTION ( 'NONE',  ( 0.000000000000000000, 0.000000000000000000, 1.000000000000000000 ) ) ;
#118 = SURFACE_STYLE_USAGE ( .BOTH. , #437 ) ;
#119 = AXIS2_PLACEMENT_3D ( 'NONE', #694, #231, #171 ) ;
#120 = VERTEX_POINT ( 'NONE', #449 ) ;
#121 = DIRECTION ( 'NONE',  ( -0.000000000000000000, -0.000000000000000000, -1.000000000000000000 ) ) ;
#122 = DIRECTION ( 'NONE',  ( -0.000000000000000000, -0.000000000000000000, 1.000000000000000000 ) ) ;
#123 = ORIENTED_EDGE ( 'NONE', *, *, #219, .F. ) ;
#124 = FACE_OUTER_BOUND ( 'NONE', #735, .T. ) ;
#125 = ORIENTED_EDGE ( 'NONE', *, *, #198, .F. ) ;
#126 = ADVANCED_FACE ( 'NONE', ( #579 ), #715, .F. ) ;
#127 = CARTESIAN_POINT ( 'NONE',  ( -81.34136002903926510, 18.40372484148879906, 2.000000000000000000 ) ) ;
#128 = CYLINDRICAL_SURFACE ( 'NONE', #368, 1.599999999999990319 ) ;
#129 = AXIS2_PLACEMENT_3D ( 'NONE', #726, #616, #154 ) ;
#130 = ORIENTED_EDGE ( 'NONE', *, *, #419, .T. ) ;
#131 = EDGE_CURVE ( 'NONE', #795, #338, #469, .T. ) ;
#132 = DIRECTION ( 'NONE',  ( -0.000000000000000000, -0.000000000000000000, -1.000000000000000000 ) ) ;
#133 = DIRECTION ( 'NONE',  ( -0.000000000000000000, -0.000000000000000000, 1.000000000000000000 ) ) ;
#134 = ORIENTED_EDGE ( 'NONE', *, *, #8, .F. ) ;
#135 = CARTESIAN_POINT ( 'NONE',  ( -58.79999999999999716, 26.00000000000000711, 0.000000000000000000 ) ) ;
#136 = DIRECTION ( 'NONE',  ( 0.000000000000000000, 0.000000000000000000, 1.000000000000000000 ) ) ;
#137 = ORIENTED_EDGE ( 'NONE', *, *, #188, .F. ) ;
#138 = ORIENTED_EDGE ( 'NONE', *, *, #427, .F. ) ;
#139 = DIRECTION ( 'NONE',  ( 1.000000000000000000, 0.000000000000000000, 0.000000000000000000 ) ) ;
#140 = AXIS2_PLACEMENT_3D ( 'NONE', #32, #602, #139 ) ;
#141 = ORIENTED_EDGE ( 'NONE', *, *, #258, .T. ) ;
#142 = CIRCLE ( 'NONE', #818, 29.10000000000000497 ) ;
#143 = ORIENTED_EDGE ( 'NONE', *, *, #157, .F. ) ;
#144 = CARTESIAN_POINT ( 'NONE',  ( -58.79999999999999716, 26.00000000000000711, 0.000000000000000000 ) ) ;
#145 = ORIENTED_EDGE ( 'NONE', *, *, #309, .F. ) ;
#146 = VERTEX_POINT ( 'NONE', #570 ) ;
#147 = CYLINDRICAL_SURFACE ( 'NONE', #730, 10.00000000000000178 ) ;
#148 = FACE_OUTER_BOUND ( 'NONE', #344, .T. ) ;
#149 = VERTEX_POINT ( 'NONE', #829 ) ;
#150 = DIRECTION ( 'NONE',  ( -0.000000000000000000, -0.000000000000000000, 1.000000000000000000 ) ) ;
#151 = PLANE ( 'NONE',  #747 ) ;
#152 = AXIS2_PLACEMENT_3D ( 'NONE', #748, #97, #430 ) ;
#153 = STYLED_ITEM ( 'NONE', ( #372 ), #203 ) ;
#154 = DIRECTION ( 'NONE',  ( 1.000000000000000000, 0.000000000000000000, 0.000000000000000000 ) ) ;
#155 = AXIS2_PLACEMENT_3D ( 'NONE', #754, #479, #622 ) ;
#156 = CIRCLE ( 'NONE', #119, 1.600000000000004086 ) ;
#157 = EDGE_CURVE ( 'NONE', #447, #406, #208, .T. ) ;
#158 = DIRECTION ( 'NONE',  ( -0.000000000000000000, -0.000000000000000000, -1.000000000000000000 ) ) ;
#159 = CARTESIAN_POINT ( 'NONE',  ( -78.78477631085023347, -18.38477631085024555, 2.000000000000000000 ) ) ;
#160 = EDGE_CURVE ( 'NONE', #779, #15, #787, .T. ) ;
#161 = ORIENTED_EDGE ( 'NONE', *, *, #646, .T. ) ;
#162 = DIRECTION ( 'NONE',  ( 1.000000000000000000, 0.000000000000000000, 0.000000000000000000 ) ) ;
#163 = EDGE_LOOP ( 'NONE', ( #161, #661 ) ) ;
#164 = ORIENTED_EDGE ( 'NONE', *, *, #411, .F. ) ;
#165 = DIRECTION ( 'NONE',  ( 0.000000000000000000, 0.000000000000000000, 1.000000000000000000 ) ) ;
#166 = EDGE_LOOP ( 'NONE', ( #557, #272, #18, #296 ) ) ;
#167 = AXIS2_PLACEMENT_3D ( 'NONE', #74, #325, #596 ) ;
#168 = VECTOR ( 'NONE', #286, 1000.000000000000000 ) ;
#169 = UNCERTAINTY_MEASURE_WITH_UNIT (LENGTH_MEASURE( 1.000000000000000082E-05 ), #639, 'distance_accuracy_value', 'NONE');
#170 = CARTESIAN_POINT ( 'NONE',  ( -36.25863997096080027, 14.40570333659616509, 2.000000000000000000 ) ) ;
#171 = DIRECTION ( 'NONE',  ( 1.000000000000000000, 0.000000000000000000, 0.000000000000000000 ) ) ;
#172 = EDGE_LOOP ( 'NONE', ( #532, #363 ) ) ;
#173 = DIRECTION ( 'NONE',  ( 0.000000000000000000, 0.000000000000000000, 1.000000000000000000 ) ) ;
#174 = CARTESIAN_POINT ( 'NONE',  ( -40.41522368914976227, -18.38477631085023134, 0.000000000000000000 ) ) ;
#175 = EDGE_CURVE ( 'NONE', #94, #667, #76, .T. ) ;
#176 = ORIENTED_EDGE ( 'NONE', *, *, #330, .F. ) ;
#177 = CARTESIAN_POINT ( 'NONE',  ( -58.80000000000001137, -1.361020142258940230E-15, 2.000000000000000000 ) ) ;
#178 = FILL_AREA_STYLE_COLOUR ( '', #621 ) ;
#179 = ORIENTED_EDGE ( 'NONE', *, *, #73, .F. ) ;
#180 = CIRCLE ( 'NONE', #424, 10.00000000000000178 ) ;
#181 = CARTESIAN_POINT ( 'NONE',  ( -58.79999999999999716, 26.00000000000000711, 2.000000000000000000 ) ) ;
#182 = ADVANCED_FACE ( 'NONE', ( #306 ), #113, .T. ) ;
#183 = ORIENTED_EDGE ( 'NONE', *, *, #334, .F. ) ;
#184 = ADVANCED_FACE ( 'NONE', ( #446 ), #128, .F. ) ;
#185 = LINE ( 'NONE', #109, #802 ) ;
#186 = DIRECTION ( 'NONE',  ( 1.000000000000000000, 0.000000000000000000, 0.000000000000000000 ) ) ;
#187 = ORIENTED_EDGE ( 'NONE', *, *, #307, .T. ) ;
#188 = EDGE_CURVE ( 'NONE', #195, #120, #763, .T. ) ;
#189 = CARTESIAN_POINT ( 'NONE',  ( -77.90751711230588228, -21.94795639240561513, 0.000000000000000000 ) ) ;
#190 = DIRECTION ( 'NONE',  ( 0.000000000000000000, 0.000000000000000000, 1.000000000000000000 ) ) ;
#191 = VERTEX_POINT ( 'NONE', #434 ) ;
#192 = DIRECTION ( 'NONE',  ( -1.000000000000000000, 0.000000000000000000, 0.000000000000000000 ) ) ;
#193 = AXIS2_PLACEMENT_3D ( 'NONE', #486, #362, #689 ) ;
#194 = DIRECTION ( 'NONE',  ( -0.000000000000000000, -0.000000000000000000, 1.000000000000000000 ) ) ;
#195 = VERTEX_POINT ( 'NONE', #567 ) ;
#196 = DIRECTION ( 'NONE',  ( 0.000000000000000000, 0.000000000000000000, 1.000000000000000000 ) ) ;
#197 = DIRECTION ( 'NONE',  ( -0.000000000000000000, 1.000000000000000000, -0.000000000000000000 ) ) ;
#198 = EDGE_CURVE ( 'NONE', #15, #756, #834, .T. ) ;
#199 = ORIENTED_EDGE ( 'NONE', *, *, #175, .F. ) ;
#200 = CARTESIAN_POINT ( 'NONE',  ( -75.58477631085023063, -18.38477631085024555, 2.000000000000000000 ) ) ;
#201 = DIRECTION ( 'NONE',  ( 0.000000000000000000, 0.000000000000000000, 1.000000000000000000 ) ) ;
#202 = ORIENTED_EDGE ( 'NONE', *, *, #580, .F. ) ;
#203 = MANIFOLD_SOLID_BREP ( 'Fillet1', #452 ) ;
#204 = LINE ( 'NONE', #790, #520 ) ;
#205 =( LENGTH_UNIT ( ) NAMED_UNIT ( * ) SI_UNIT ( .MILLI., .METRE. ) );
#206 = CIRCLE ( 'NONE', #167, 1.599999999999997202 ) ;
#207 = ORIENTED_EDGE ( 'NONE', *, *, #281, .F. ) ;
#208 = CIRCLE ( 'NONE', #248, 19.00000000000001066 ) ;
#209 = AXIS2_PLACEMENT_3D ( 'NONE', #540, #656, #808 ) ;
#210 = FACE_BOUND ( 'NONE', #347, .T. ) ;
#211 = DIRECTION ( 'NONE',  ( -0.000000000000000000, -0.000000000000000000, -1.000000000000000000 ) ) ;
#212 = ORIENTED_EDGE ( 'NONE', *, *, #157, .T. ) ;
#213 = ORIENTED_EDGE ( 'NONE', *, *, #658, .F. ) ;
#214 = EDGE_CURVE ( 'NONE', #447, #679, #504, .T. ) ;
#215 = PLANE ( 'NONE',  #649 ) ;
#216 = DIRECTION ( 'NONE',  ( 1.000000000000000000, 0.000000000000000000, 0.000000000000000000 ) ) ;
#217 = EDGE_CURVE ( 'NONE', #421, #541, #840, .T. ) ;
#218 = CARTESIAN_POINT ( 'NONE',  ( -38.81522368914976084, 18.38477631085023845, 0.000000000000000000 ) ) ;
#219 = EDGE_CURVE ( 'NONE', #679, #146, #221, .T. ) ;
#220 = DIRECTION ( 'NONE',  ( -1.000000000000000000, 0.000000000000000000, 0.000000000000000000 ) ) ;
#221 = CIRCLE ( 'NONE', #140, 19.00000000000001066 ) ;
#222 = VECTOR ( 'NONE', #158, 1000.000000000000000 ) ;
#223 = ORIENTED_EDGE ( 'NONE', *, *, #309, .T. ) ;
#224 = AXIS2_PLACEMENT_3D ( 'NONE', #237, #55, #513 ) ;
#225 = DIRECTION ( 'NONE',  ( 0.000000000000000000, 0.000000000000000000, 1.000000000000000000 ) ) ;
#226 = PRODUCT_CONTEXT ( 'NONE', #98, 'mechanical' ) ;
#227 = PRODUCT_DEFINITION_SHAPE ( 'NONE', 'NONE',  #367 ) ;
#228 = LINE ( 'NONE', #89, #678 ) ;
#229 = ORIENTED_EDGE ( 'NONE', *, *, #827, .F. ) ;
#230 = CARTESIAN_POINT ( 'NONE',  ( -38.81522368914976795, -18.38477631085023134, 0.000000000000000000 ) ) ;
#231 = DIRECTION ( 'NONE',  ( 0.000000000000000000, 0.000000000000000000, 1.000000000000000000 ) ) ;
#232 = CARTESIAN_POINT ( 'NONE',  ( -36.25863997096080027, -14.40570333659615265, 2.000000000000000000 ) ) ;
#233 = DIRECTION ( 'NONE',  ( -0.000000000000000000, -0.000000000000000000, 1.000000000000000000 ) ) ;
#234 = EDGE_LOOP ( 'NONE', ( #138, #414, #612, #243 ) ) ;
#235 = PRODUCT_DEFINITION_CONTEXT ( 'detailed design', #374, 'design' ) ;
#236 = AXIS2_PLACEMENT_3D ( 'NONE', #651, #25, #654 ) ;
#237 = CARTESIAN_POINT ( 'NONE',  ( -46.25863997096080027, 14.40570333659616331, 2.000000000000000000 ) ) ;
#238 = CARTESIAN_POINT ( 'NONE',  ( -40.41522368914974805, 18.38477631085023845, 0.000000000000000000 ) ) ;
#239 = ORIENTED_EDGE ( 'NONE', *, *, #70, .F. ) ;
#240 = CARTESIAN_POINT ( 'NONE',  ( -71.34136002903926510, 14.40570333659612601, 2.000000000000000000 ) ) ;
#241 = DIRECTION ( 'NONE',  ( 1.000000000000000000, 0.000000000000000000, 0.000000000000000000 ) ) ;
#242 = DIRECTION ( 'NONE',  ( -0.000000000000000000, -0.000000000000000000, 1.000000000000000000 ) ) ;
#243 = ORIENTED_EDGE ( 'NONE', *, *, #814, .T. ) ;
#244 = ADVANCED_FACE ( 'NONE', ( #535 ), #319, .T. ) ;
#245 = CARTESIAN_POINT ( 'NONE',  ( -40.41522368914976227, -18.38477631085023134, 0.000000000000000000 ) ) ;
#246 = ADVANCED_FACE ( 'NONE', ( #785 ), #16, .F. ) ;
#247 = ORIENTED_EDGE ( 'NONE', *, *, #631, .T. ) ;
#248 = AXIS2_PLACEMENT_3D ( 'NONE', #443, #190, #256 ) ;
#249 = VECTOR ( 'NONE', #250, 1000.000000000000000 ) ;
#250 = DIRECTION ( 'NONE',  ( 0.000000000000000000, 0.000000000000000000, 1.000000000000000000 ) ) ;
#251 = DIRECTION ( 'NONE',  ( 1.000000000000000000, 0.000000000000000000, 0.000000000000000000 ) ) ;
#252 = CIRCLE ( 'NONE', #695, 1.600000000000004086 ) ;
#253 = EDGE_CURVE ( 'NONE', #722, #341, #180, .T. ) ;
#254 = EDGE_LOOP ( 'NONE', ( #145, #81, #648, #257 ) ) ;
#255 = CARTESIAN_POINT ( 'NONE',  ( -57.20000000000000284, 26.00000000000000711, 2.000000000000000000 ) ) ;
#256 = DIRECTION ( 'NONE',  ( 1.000000000000000000, 0.000000000000000000, 0.000000000000000000 ) ) ;
#257 = ORIENTED_EDGE ( 'NONE', *, *, #487, .T. ) ;
#258 = EDGE_CURVE ( 'NONE', #531, #195, #771, .T. ) ;
#259 = LINE ( 'NONE', #289, #774 ) ;
#260 = DIRECTION ( 'NONE',  ( -0.000000000000000000, -0.000000000000000000, -1.000000000000000000 ) ) ;
#261 = EDGE_LOOP ( 'NONE', ( #589, #537 ) ) ;
#262 = VECTOR ( 'NONE', #233, 1000.000000000000000 ) ;
#263 = EDGE_CURVE ( 'NONE', #761, #463, #439, .T. ) ;
#264 = FACE_BOUND ( 'NONE', #465, .T. ) ;
#265 = DIRECTION ( 'NONE',  ( 1.000000000000000000, 0.000000000000000000, 0.000000000000000000 ) ) ;
#266 = AXIS2_PLACEMENT_3D ( 'NONE', #553, #456, #838 ) ;
#267 = AXIS2_PLACEMENT_3D ( 'NONE', #490, #809, #216 ) ;
#268 = ORIENTED_EDGE ( 'NONE', *, *, #41, .F. ) ;
#269 = CARTESIAN_POINT ( 'NONE',  ( -58.80000000000001137, -1.361020142258940230E-15, 2.000000000000000000 ) ) ;
#270 =( NAMED_UNIT ( * ) PLANE_ANGLE_UNIT ( ) SI_UNIT ( $, .RADIAN. ) );
#271 = EDGE_LOOP ( 'NONE', ( #268, #83, #483, #53 ) ) ;
#272 = ORIENTED_EDGE ( 'NONE', *, *, #672, .F. ) ;
#273 = CARTESIAN_POINT ( 'NONE',  ( -71.34136002903926510, 14.40570333659612601, 0.000000000000000000 ) ) ;
#274 = FACE_OUTER_BOUND ( 'NONE', #234, .T. ) ;
#275 = EDGE_LOOP ( 'NONE', ( #630, #46, #750, #701 ) ) ;
#276 = FACE_BOUND ( 'NONE', #810, .T. ) ;
#277 = LINE ( 'NONE', #738, #776 ) ;
#278 = CIRCLE ( 'NONE', #62, 1.599999999999990319 ) ;
#279 = EDGE_LOOP ( 'NONE', ( #846, #799, #176, #380 ) ) ;
#280 = AXIS2_PLACEMENT_3D ( 'NONE', #702, #117, #510 ) ;
#281 = EDGE_CURVE ( 'NONE', #314, #450, #204, .T. ) ;
#282 = CARTESIAN_POINT ( 'NONE',  ( -77.90751711230588228, 21.94795639240561513, 0.000000000000000000 ) ) ;
#283 = DIRECTION ( 'NONE',  ( -1.000000000000000000, 0.000000000000000000, 0.000000000000000000 ) ) ;
#284 = ORIENTED_EDGE ( 'NONE', *, *, #369, .F. ) ;
#285 = CARTESIAN_POINT ( 'NONE',  ( -58.80000000000001137, -1.361020142258940230E-15, 0.000000000000000000 ) ) ;
#286 = DIRECTION ( 'NONE',  ( 0.000000000000000000, -1.000000000000000000, 0.000000000000000000 ) ) ;
#287 = FACE_OUTER_BOUND ( 'NONE', #581, .T. ) ;
#288 = ORIENTED_EDGE ( 'NONE', *, *, #5, .T. ) ;
#289 = CARTESIAN_POINT ( 'NONE',  ( -77.80000000000002558, -1.361020142258940230E-15, 2.000000000000000000 ) ) ;
#290 = FACE_BOUND ( 'NONE', #373, .T. ) ;
#291 = ADVANCED_FACE ( 'NONE', ( #524, #210, #727, #264, #276, #733, #848, #396 ), #719, .T. ) ;
#292 = CARTESIAN_POINT ( 'NONE',  ( -40.41522368914974805, 18.38477631085023845, 0.000000000000000000 ) ) ;
#293 = AXIS2_PLACEMENT_3D ( 'NONE', #709, #385, #365 ) ;
#294 = FACE_BOUND ( 'NONE', #403, .T. ) ;
#295 = DIRECTION ( 'NONE',  ( -0.000000000000000000, -0.000000000000000000, 1.000000000000000000 ) ) ;
#296 = ORIENTED_EDGE ( 'NONE', *, *, #334, .T. ) ;
#297 = DIRECTION ( 'NONE',  ( -0.000000000000000000, -0.000000000000000000, 1.000000000000000000 ) ) ;
#298 = ORIENTED_EDGE ( 'NONE', *, *, #814, .F. ) ;
#299 = ORIENTED_EDGE ( 'NONE', *, *, #658, .T. ) ;
#300 = LINE ( 'NONE', #61, #732 ) ;
#301 = DIRECTION ( 'NONE',  ( 1.000000000000000000, 0.000000000000000000, 0.000000000000000000 ) ) ;
#302 = EDGE_LOOP ( 'NONE', ( #366, #187 ) ) ;
#303 = AXIS2_PLACEMENT_3D ( 'NONE', #69, #723, #9 ) ;
#304 = CIRCLE ( 'NONE', #155, 1.600000000000004086 ) ;
#305 = DIRECTION ( 'NONE',  ( 1.000000000000000000, 0.000000000000000000, 0.000000000000000000 ) ) ;
#306 = FACE_OUTER_BOUND ( 'NONE', #601, .T. ) ;
#307 = EDGE_CURVE ( 'NONE', #541, #421, #278, .T. ) ;
#308 = ORIENTED_EDGE ( 'NONE', *, *, #491, .F. ) ;
#309 = EDGE_CURVE ( 'NONE', #541, #24, #517, .T. ) ;
#310 = CARTESIAN_POINT ( 'NONE',  ( -42.01522368914974237, 18.38477631085023845, 0.000000000000000000 ) ) ;
#311 = CARTESIAN_POINT ( 'NONE',  ( -81.34136002903926510, -14.40570333659613134, 0.000000000000000000 ) ) ;
#312 = EDGE_LOOP ( 'NONE', ( #125, #591, #402, #626 ) ) ;
#313 = DIRECTION ( 'NONE',  ( 0.000000000000000000, 0.000000000000000000, 1.000000000000000000 ) ) ;
#314 = VERTEX_POINT ( 'NONE', #804 ) ;
#315 = AXIS2_PLACEMENT_3D ( 'NONE', #245, #566, #241 ) ;
#316 = DIRECTION ( 'NONE',  ( -0.000000000000000000, -0.000000000000000000, 1.000000000000000000 ) ) ;
#317 = CARTESIAN_POINT ( 'NONE',  ( -71.34136002903926510, -14.40570333659612956, 2.000000000000000000 ) ) ;
#318 = ORIENTED_EDGE ( 'NONE', *, *, #707, .F. ) ;
#319 = CYLINDRICAL_SURFACE ( 'NONE', #548, 29.10000000000000853 ) ;
#320 = ORIENTED_EDGE ( 'NONE', *, *, #827, .T. ) ;
#321 = ADVANCED_FACE ( 'NONE', ( #66 ), #147, .T. ) ;
#322 = DIRECTION ( 'NONE',  ( 0.000000000000000000, 0.000000000000000000, 1.000000000000000000 ) ) ;
#323 = CARTESIAN_POINT ( 'NONE',  ( -75.58477631085023063, 18.38477631085024555, 0.000000000000000000 ) ) ;
#324 = EDGE_LOOP ( 'NONE', ( #179, #444, #816, #710 ) ) ;
#325 = DIRECTION ( 'NONE',  ( 0.000000000000000000, 0.000000000000000000, 1.000000000000000000 ) ) ;
#326 = DIRECTION ( 'NONE',  ( 1.000000000000000000, 0.000000000000000000, 0.000000000000000000 ) ) ;
#327 = ORIENTED_EDGE ( 'NONE', *, *, #703, .T. ) ;
#328 = EDGE_CURVE ( 'NONE', #657, #756, #466, .T. ) ;
#329 = PLANE ( 'NONE',  #497 ) ;
#330 = EDGE_CURVE ( 'NONE', #843, #386, #100, .T. ) ;
#331 = DIRECTION ( 'NONE',  ( 0.000000000000000000, 0.000000000000000000, 1.000000000000000000 ) ) ;
#332 = CARTESIAN_POINT ( 'NONE',  ( -39.69248288769420441, 21.94795639240567198, 2.000000000000000000 ) ) ;
#333 = ORIENTED_EDGE ( 'NONE', *, *, #749, .T. ) ;
#334 = EDGE_CURVE ( 'NONE', #552, #752, #206, .T. ) ;
#335 = CARTESIAN_POINT ( 'NONE',  ( -39.80000000000000426, 9.658087761210321212E-16, 2.000000000000000000 ) ) ;
#336 = CARTESIAN_POINT ( 'NONE',  ( -42.01522368914976369, -18.38477631085023134, 2.000000000000000000 ) ) ;
#337 = ADVANCED_BREP_SHAPE_REPRESENTATION ( 'camer_tracker_base_cover', ( #203, #663 ), #803 ) ;
#338 = VERTEX_POINT ( 'NONE', #230 ) ;
#339 = CARTESIAN_POINT ( 'NONE',  ( -77.18477631085022495, 18.38477631085024555, 0.000000000000000000 ) ) ;
#340 = CARTESIAN_POINT ( 'NONE',  ( -58.79999999999999716, -26.00000000000000711, 2.000000000000000000 ) ) ;
#341 = VERTEX_POINT ( 'NONE', #232 ) ;
#342 = AXIS2_PLACEMENT_3D ( 'NONE', #177, #121, #780 ) ;
#343 = VECTOR ( 'NONE', #586, 1000.000000000000000 ) ;
#344 = EDGE_LOOP ( 'NONE', ( #775, #705, #849, #107 ) ) ;
#345 = CARTESIAN_POINT ( 'NONE',  ( -36.25863997096080027, -14.40570333659616686, 2.000000000000000000 ) ) ;
#346 = CARTESIAN_POINT ( 'NONE',  ( -60.40000000000000568, -26.00000000000000711, 2.000000000000000000 ) ) ;
#347 = EDGE_LOOP ( 'NONE', ( #460, #636 ) ) ;
#348 = EDGE_CURVE ( 'NONE', #507, #314, #22, .T. ) ;
#349 = DIRECTION ( 'NONE',  ( 0.000000000000000000, 0.000000000000000000, 1.000000000000000000 ) ) ;
#350 = LINE ( 'NONE', #559, #789 ) ;
#351 = ORIENTED_EDGE ( 'NONE', *, *, #784, .F. ) ;
#352 = CARTESIAN_POINT ( 'NONE',  ( -57.20000000000000284, 26.00000000000000711, 0.000000000000000000 ) ) ;
#353 = CARTESIAN_POINT ( 'NONE',  ( -42.01522368914974237, 18.38477631085023845, 2.000000000000000000 ) ) ;
#354 = AXIS2_PLACEMENT_3D ( 'NONE', #317, #845, #781 ) ;
#355 = CIRCLE ( 'NONE', #650, 19.00000000000001066 ) ;
#356 = ORIENTED_EDGE ( 'NONE', *, *, #87, .T. ) ;
#357 = PRODUCT_DEFINITION_FORMATION_WITH_SPECIFIED_SOURCE ( 'ANY', '', #687, .NOT_KNOWN. ) ;
#358 = DIRECTION ( 'NONE',  ( -0.000000000000000000, -0.000000000000000000, -1.000000000000000000 ) ) ;
#359 = CARTESIAN_POINT ( 'NONE',  ( -78.78477631085023347, 18.38477631085024555, 0.000000000000000000 ) ) ;
#360 = CARTESIAN_POINT ( 'NONE',  ( -39.69248288769420441, 21.94795639240567198, 0.000000000000000000 ) ) ;
#361 = ADVANCED_FACE ( 'NONE', ( #554, #608, #751, #290, #294, #741, #549, #745 ), #215, .F. ) ;
#362 = DIRECTION ( 'NONE',  ( 0.000000000000000000, 0.000000000000000000, 1.000000000000000000 ) ) ;
#363 = ORIENTED_EDGE ( 'NONE', *, *, #369, .T. ) ;
#364 = DIRECTION ( 'NONE',  ( 1.000000000000000000, 0.000000000000000000, 0.000000000000000000 ) ) ;
#365 = DIRECTION ( 'NONE',  ( 1.000000000000000000, 0.000000000000000000, 0.000000000000000000 ) ) ;
#366 = ORIENTED_EDGE ( 'NONE', *, *, #217, .T. ) ;
#367 = PRODUCT_DEFINITION ( 'UNKNOWN', '', #357, #235 ) ;
#368 = AXIS2_PLACEMENT_3D ( 'NONE', #238, #122, #501 ) ;
#369 = EDGE_CURVE ( 'NONE', #15, #779, #381, .T. ) ;
#370 = CIRCLE ( 'NONE', #193, 1.600000000000004086 ) ;
#371 = CARTESIAN_POINT ( 'NONE',  ( -58.80000000000001137, -1.361020142258940230E-15, 2.000000000000000000 ) ) ;
#372 = PRESENTATION_STYLE_ASSIGNMENT (( #118 ) ) ;
#373 = EDGE_LOOP ( 'NONE', ( #80, #141 ) ) ;
#374 = APPLICATION_CONTEXT ( 'automotive_design' ) ;
#375 = DIRECTION ( 'NONE',  ( -0.000000000000000000, -0.000000000000000000, 1.000000000000000000 ) ) ;
#376 = DIRECTION ( 'NONE',  ( -0.000000000000000000, -0.000000000000000000, 1.000000000000000000 ) ) ;
#377 = ORIENTED_EDGE ( 'NONE', *, *, #462, .F. ) ;
#378 = FACE_OUTER_BOUND ( 'NONE', #60, .T. ) ;
#379 = CARTESIAN_POINT ( 'NONE',  ( -57.19999999999999574, -26.00000000000000711, 0.000000000000000000 ) ) ;
#380 = ORIENTED_EDGE ( 'NONE', *, *, #617, .F. ) ;
#381 = CIRCLE ( 'NONE', #19, 1.600000000000004086 ) ;
#382 = CIRCLE ( 'NONE', #534, 29.10000000000000497 ) ;
#383 = CARTESIAN_POINT ( 'NONE',  ( -75.58477631085023063, 18.38477631085024555, 2.000000000000000000 ) ) ;
#384 = CIRCLE ( 'NONE', #677, 10.00000000000000178 ) ;
#385 = DIRECTION ( 'NONE',  ( 0.000000000000000000, 0.000000000000000000, 1.000000000000000000 ) ) ;
#386 = VERTEX_POINT ( 'NONE', #282 ) ;
#387 = CARTESIAN_POINT ( 'NONE',  ( -39.80000000000000426, 9.658087761210321212E-16, 0.000000000000000000 ) ) ;
#388 = CARTESIAN_POINT ( 'NONE',  ( -46.25863997096080027, -14.40570333659616686, 2.000000000000000000 ) ) ;
#389 = CARTESIAN_POINT ( 'NONE',  ( -38.81522368914976084, 18.38477631085023845, 2.000000000000000000 ) ) ;
#390 = ORIENTED_EDGE ( 'NONE', *, *, #188, .T. ) ;
#391 = DIRECTION ( 'NONE',  ( -0.000000000000000000, -0.000000000000000000, -1.000000000000000000 ) ) ;
#392 = EDGE_CURVE ( 'NONE', #341, #507, #823, .T. ) ;
#393 = EDGE_LOOP ( 'NONE', ( #99, #223, #597, #377 ) ) ;
#394 = AXIS2_PLACEMENT_3D ( 'NONE', #401, #584, #664 ) ;
#395 = CIRCLE ( 'NONE', #410, 1.599999999999997202 ) ;
#396 = FACE_BOUND ( 'NONE', #564, .T. ) ;
#397 = AXIS2_PLACEMENT_3D ( 'NONE', #240, #435, #95 ) ;
#398 = ORIENTED_EDGE ( 'NONE', *, *, #796, .T. ) ;
#399 = ORIENTED_EDGE ( 'NONE', *, *, #583, .F. ) ;
#400 = ADVANCED_FACE ( 'NONE', ( #493 ), #825, .F. ) ;
#401 = CARTESIAN_POINT ( 'NONE',  ( -58.80000000000001137, -1.361020142258940230E-15, 2.000000000000000000 ) ) ;
#402 = ORIENTED_EDGE ( 'NONE', *, *, #491, .T. ) ;
#403 = EDGE_LOOP ( 'NONE', ( #619, #653 ) ) ;
#404 = DIRECTION ( 'NONE',  ( -0.000000000000000000, -0.000000000000000000, -1.000000000000000000 ) ) ;
#405 = CYLINDRICAL_SURFACE ( 'NONE', #577, 29.10000000000000853 ) ;
#406 = VERTEX_POINT ( 'NONE', #613 ) ;
#407 = LINE ( 'NONE', #218, #508 ) ;
#408 = VECTOR ( 'NONE', #634, 1000.000000000000000 ) ;
#409 = ORIENTED_EDGE ( 'NONE', *, *, #484, .T. ) ;
#410 = AXIS2_PLACEMENT_3D ( 'NONE', #84, #225, #96 ) ;
#411 = EDGE_CURVE ( 'NONE', #195, #531, #304, .T. ) ;
#412 = CIRCLE ( 'NONE', #266, 10.00000000000000178 ) ;
#413 = CIRCLE ( 'NONE', #52, 10.00000000000000178 ) ;
#414 = ORIENTED_EDGE ( 'NONE', *, *, #87, .F. ) ;
#415 = LINE ( 'NONE', #30, #343 ) ;
#416 = DIRECTION ( 'NONE',  ( 1.000000000000000000, 0.000000000000000000, 0.000000000000000000 ) ) ;
#417 = FACE_OUTER_BOUND ( 'NONE', #254, .T. ) ;
#418 = DIRECTION ( 'NONE',  ( 1.000000000000000000, 0.000000000000000000, -0.000000000000000000 ) ) ;
#419 = EDGE_CURVE ( 'NONE', #792, #498, #27, .T. ) ;
#420 = ORIENTED_EDGE ( 'NONE', *, *, #73, .T. ) ;
#421 = VERTEX_POINT ( 'NONE', #688 ) ;
#422 = CARTESIAN_POINT ( 'NONE',  ( -77.18477631085022495, 18.38477631085024555, 0.000000000000000000 ) ) ;
#423 = VERTEX_POINT ( 'NONE', #539 ) ;
#424 = AXIS2_PLACEMENT_3D ( 'NONE', #655, #201, #797 ) ;
#425 = CIRCLE ( 'NONE', #280, 29.10000000000000497 ) ;
#426 = ORIENTED_EDGE ( 'NONE', *, *, #617, .T. ) ;
#427 = EDGE_CURVE ( 'NONE', #423, #94, #485, .T. ) ;
#428 = CYLINDRICAL_SURFACE ( 'NONE', #101, 1.600000000000004086 ) ;
#429 = DIRECTION ( 'NONE',  ( 1.000000000000000000, 0.000000000000000000, 0.000000000000000000 ) ) ;
#430 = DIRECTION ( 'NONE',  ( 1.000000000000000000, 0.000000000000000000, 0.000000000000000000 ) ) ;
#431 = ORIENTED_EDGE ( 'NONE', *, *, #54, .T. ) ;
#432 = UNCERTAINTY_MEASURE_WITH_UNIT (LENGTH_MEASURE( 1.000000000000000082E-05 ), #205, 'distance_accuracy_value', 'NONE');
#433 = CARTESIAN_POINT ( 'NONE',  ( -46.25863997096080027, -14.40570333659616686, 0.000000000000000000 ) ) ;
#434 = CARTESIAN_POINT ( 'NONE',  ( -81.34136002903926510, 14.40570333659612601, 2.000000000000000000 ) ) ;
#435 = DIRECTION ( 'NONE',  ( 0.000000000000000000, 0.000000000000000000, 1.000000000000000000 ) ) ;
#436 = FACE_OUTER_BOUND ( 'NONE', #324, .T. ) ;
#437 = SURFACE_SIDE_STYLE ('',( #767 ) ) ;
#438 = EDGE_LOOP ( 'NONE', ( #786, #327, #14, #130 ) ) ;
#439 = CIRCLE ( 'NONE', #116, 1.599999999999997202 ) ;
#440 = EDGE_CURVE ( 'NONE', #149, #641, #31, .T. ) ;
#441 = CIRCLE ( 'NONE', #592, 1.599999999999997202 ) ;
#442 = DIRECTION ( 'NONE',  ( 1.000000000000000000, 0.000000000000000000, 0.000000000000000000 ) ) ;
#443 = CARTESIAN_POINT ( 'NONE',  ( -58.80000000000001137, -1.361020142258940230E-15, 2.000000000000000000 ) ) ;
#444 = ORIENTED_EDGE ( 'NONE', *, *, #427, .T. ) ;
#445 = CARTESIAN_POINT ( 'NONE',  ( -58.80000000000001137, -1.361020142258940230E-15, 0.000000000000000000 ) ) ;
#446 = FACE_OUTER_BOUND ( 'NONE', #393, .T. ) ;
#447 = VERTEX_POINT ( 'NONE', #40 ) ;
#448 = CARTESIAN_POINT ( 'NONE',  ( -58.80000000000001137, -1.361020142258940230E-15, 2.000000000000000000 ) ) ;
#449 = CARTESIAN_POINT ( 'NONE',  ( -57.19999999999999574, -26.00000000000000711, 2.000000000000000000 ) ) ;
#450 = VERTEX_POINT ( 'NONE', #170 ) ;
#451 = AXIS2_PLACEMENT_3D ( 'NONE', #700, #50, #186 ) ;
#452 = CLOSED_SHELL ( 'NONE', ( #516, #476, #571, #400, #115, #184, #522, #291, #361, #793, #92, #244, #642, #721, #102, #614, #126, #800, #26, #246, #182, #768, #321, #547 ) ) ;
#453 = CARTESIAN_POINT ( 'NONE',  ( -58.79999999999999716, -26.00000000000000711, 0.000000000000000000 ) ) ;
#454 = FACE_OUTER_BOUND ( 'NONE', #279, .T. ) ;
#455 = ORIENTED_EDGE ( 'NONE', *, *, #736, .F. ) ;
#456 = DIRECTION ( 'NONE',  ( -0.000000000000000000, -0.000000000000000000, -1.000000000000000000 ) ) ;
#457 = EDGE_CURVE ( 'NONE', #90, #512, #395, .T. ) ;
#458 = CYLINDRICAL_SURFACE ( 'NONE', #788, 19.00000000000001066 ) ;
#459 = DIRECTION ( 'NONE',  ( 1.000000000000000000, 0.000000000000000000, 0.000000000000000000 ) ) ;
#460 = ORIENTED_EDGE ( 'NONE', *, *, #328, .F. ) ;
#461 = PRODUCT_RELATED_PRODUCT_CATEGORY ( 'part', '', ( #687 ) ) ;
#462 = EDGE_CURVE ( 'NONE', #421, #769, #407, .T. ) ;
#463 = VERTEX_POINT ( 'NONE', #352 ) ;
#464 = DIRECTION ( 'NONE',  ( 1.000000000000000000, 0.000000000000000000, 0.000000000000000000 ) ) ;
#465 = EDGE_LOOP ( 'NONE', ( #134, #518 ) ) ;
#466 = CIRCLE ( 'NONE', #704, 1.600000000000004086 ) ;
#467 = CIRCLE ( 'NONE', #575, 10.00000000000000178 ) ;
#468 = DIRECTION ( 'NONE',  ( 0.000000000000000000, 0.000000000000000000, 1.000000000000000000 ) ) ;
#469 = CIRCLE ( 'NONE', #576, 1.599999999999997202 ) ;
#470 = CIRCLE ( 'NONE', #209, 1.599999999999997202 ) ;
#471 = EDGE_LOOP ( 'NONE', ( #114, #42, #515, #611 ) ) ;
#472 = DIRECTION ( 'NONE',  ( 1.000000000000000000, 0.000000000000000000, 0.000000000000000000 ) ) ;
#473 = CARTESIAN_POINT ( 'NONE',  ( -78.78477631085023347, 18.38477631085024555, 2.000000000000000000 ) ) ;
#474 = ORIENTED_EDGE ( 'NONE', *, *, #263, .T. ) ;
#475 = CARTESIAN_POINT ( 'NONE',  ( -78.78477631085023347, -18.38477631085024555, 0.000000000000000000 ) ) ;
#476 = ADVANCED_FACE ( 'NONE', ( #558 ), #36, .F. ) ;
#477 = CYLINDRICAL_SURFACE ( 'NONE', #744, 1.600000000000004086 ) ;
#478 = DIRECTION ( 'NONE',  ( -0.000000000000000000, 0.000000000000000000, -1.000000000000000000 ) ) ;
#479 = DIRECTION ( 'NONE',  ( 0.000000000000000000, 0.000000000000000000, 1.000000000000000000 ) ) ;
#480 = VECTOR ( 'NONE', #242, 1000.000000000000000 ) ;
#481 = DIRECTION ( 'NONE',  ( 0.000000000000000000, 0.000000000000000000, 1.000000000000000000 ) ) ;
#482 = AXIS2_PLACEMENT_3D ( 'NONE', #292, #550, #822 ) ;
#483 = ORIENTED_EDGE ( 'NONE', *, *, #640, .T. ) ;
#484 = EDGE_CURVE ( 'NONE', #191, #690, #676, .T. ) ;
#485 = LINE ( 'NONE', #475, #773 ) ;
#486 = CARTESIAN_POINT ( 'NONE',  ( -58.79999999999999716, -26.00000000000000711, 2.000000000000000000 ) ) ;
#487 = EDGE_CURVE ( 'NONE', #769, #24, #635, .T. ) ;
#488 = EDGE_LOOP ( 'NONE', ( #239, #164, #390, #604 ) ) ;
#489 = DIRECTION ( 'NONE',  ( 1.000000000000000000, 0.000000000000000000, 0.000000000000000000 ) ) ;
#490 = CARTESIAN_POINT ( 'NONE',  ( -77.18477631085022495, -18.38477631085024555, 0.000000000000000000 ) ) ;
#491 = EDGE_CURVE ( 'NONE', #779, #657, #185, .T. ) ;
#492 = ORIENTED_EDGE ( 'NONE', *, *, #348, .F. ) ;
#493 = FACE_OUTER_BOUND ( 'NONE', #662, .T. ) ;
#494 = CARTESIAN_POINT ( 'NONE',  ( 0.000000000000000000, 0.000000000000000000, 0.000000000000000000 ) ) ;
#495 = CARTESIAN_POINT ( 'NONE',  ( -77.90751711230588228, 21.94795639240561513, 2.000000000000000000 ) ) ;
#496 = VECTOR ( 'NONE', #618, 1000.000000000000000 ) ;
#497 = AXIS2_PLACEMENT_3D ( 'NONE', #127, #682, #478 ) ;
#498 = VERTEX_POINT ( 'NONE', #360 ) ;
#499 = CIRCLE ( 'NONE', #129, 1.599999999999997202 ) ;
#500 = FACE_OUTER_BOUND ( 'NONE', #275, .T. ) ;
#501 = DIRECTION ( 'NONE',  ( 1.000000000000000000, 0.000000000000000000, 0.000000000000000000 ) ) ;
#502 = ORIENTED_EDGE ( 'NONE', *, *, #54, .F. ) ;
#503 = DIRECTION ( 'NONE',  ( 1.000000000000000000, 0.000000000000000000, 0.000000000000000000 ) ) ;
#504 = LINE ( 'NONE', #335, #590 ) ;
#505 = EDGE_CURVE ( 'NONE', #792, #43, #142, .T. ) ;
#506 = CARTESIAN_POINT ( 'NONE',  ( -81.34136002903926510, 14.40570333659612601, 2.000000000000000000 ) ) ;
#507 = VERTEX_POINT ( 'NONE', #569 ) ;
#508 = VECTOR ( 'NONE', #297, 1000.000000000000000 ) ;
#509 = CIRCLE ( 'NONE', #821, 10.00000000000000178 ) ;
#510 = DIRECTION ( 'NONE',  ( 1.000000000000000000, 0.000000000000000000, 0.000000000000000000 ) ) ;
#511 =( NAMED_UNIT ( * ) SI_UNIT ( $, .STERADIAN. ) SOLID_ANGLE_UNIT ( ) );
#512 = VERTEX_POINT ( 'NONE', #255 ) ;
#513 = DIRECTION ( 'NONE',  ( -1.000000000000000000, 0.000000000000000000, 0.000000000000000000 ) ) ;
#514 = FACE_OUTER_BOUND ( 'NONE', #670, .T. ) ;
#515 = ORIENTED_EDGE ( 'NONE', *, *, #594, .F. ) ;
#516 = ADVANCED_FACE ( 'NONE', ( #500 ), #44, .F. ) ;
#517 = LINE ( 'NONE', #2, #533 ) ;
#518 = ORIENTED_EDGE ( 'NONE', *, *, #749, .F. ) ;
#519 = CIRCLE ( 'NONE', #152, 1.599999999999997202 ) ;
#520 = VECTOR ( 'NONE', #194, 1000.000000000000000 ) ;
#521 = AXIS2_PLACEMENT_3D ( 'NONE', #340, #468, #665 ) ;
#522 = ADVANCED_FACE ( 'NONE', ( #378 ), #839, .F. ) ;
#523 = EDGE_CURVE ( 'NONE', #498, #386, #382, .T. ) ;
#524 = FACE_BOUND ( 'NONE', #261, .T. ) ;
#525 = LINE ( 'NONE', #536, #746 ) ;
#526 = ORIENTED_EDGE ( 'NONE', *, *, #765, .T. ) ;
#527 = DIRECTION ( 'NONE',  ( -1.000000000000000000, 0.000000000000000000, 0.000000000000000000 ) ) ;
#528 = DIRECTION ( 'NONE',  ( 1.000000000000000000, 0.000000000000000000, 0.000000000000000000 ) ) ;
#529 = DIRECTION ( 'NONE',  ( 1.000000000000000000, 0.000000000000000000, 0.000000000000000000 ) ) ;
#530 = CARTESIAN_POINT ( 'NONE',  ( -77.18477631085022495, -18.38477631085024555, 2.000000000000000000 ) ) ;
#531 = VERTEX_POINT ( 'NONE', #833 ) ;
#532 = ORIENTED_EDGE ( 'NONE', *, *, #160, .T. ) ;
#533 = VECTOR ( 'NONE', #737, 1000.000000000000000 ) ;
#534 = AXIS2_PLACEMENT_3D ( 'NONE', #445, #48, #572 ) ;
#535 = FACE_OUTER_BOUND ( 'NONE', #438, .T. ) ;
#536 = CARTESIAN_POINT ( 'NONE',  ( -36.25863997096080027, 18.40372484148884880, 2.000000000000000000 ) ) ;
#537 = ORIENTED_EDGE ( 'NONE', *, *, #457, .F. ) ;
#538 = ORIENTED_EDGE ( 'NONE', *, *, #348, .T. ) ;
#539 = CARTESIAN_POINT ( 'NONE',  ( -78.78477631085023347, -18.38477631085024555, 0.000000000000000000 ) ) ;
#540 = CARTESIAN_POINT ( 'NONE',  ( -58.79999999999999716, 26.00000000000000711, 0.000000000000000000 ) ) ;
#541 = VERTEX_POINT ( 'NONE', #310 ) ;
#542 = DIRECTION ( 'NONE',  ( 0.000000000000000000, 0.000000000000000000, 1.000000000000000000 ) ) ;
#543 = CARTESIAN_POINT ( 'NONE',  ( -40.41522368914974805, 18.38477631085023845, 2.000000000000000000 ) ) ;
#544 = CARTESIAN_POINT ( 'NONE',  ( -36.25863997096080027, 18.40372484148884880, 2.000000000000000000 ) ) ;
#545 = ORIENTED_EDGE ( 'NONE', *, *, #594, .T. ) ;
#546 = DIRECTION ( 'NONE',  ( -0.000000000000000000, -0.000000000000000000, -1.000000000000000000 ) ) ;
#547 = ADVANCED_FACE ( 'NONE', ( #124 ), #699, .T. ) ;
#548 = AXIS2_PLACEMENT_3D ( 'NONE', #269, #260, #527 ) ;
#549 = FACE_OUTER_BOUND ( 'NONE', #67, .T. ) ;
#550 = DIRECTION ( 'NONE',  ( -0.000000000000000000, -0.000000000000000000, 1.000000000000000000 ) ) ;
#551 = AXIS2_PLACEMENT_3D ( 'NONE', #3, #211, #805 ) ;
#552 = VERTEX_POINT ( 'NONE', #828 ) ;
#553 = CARTESIAN_POINT ( 'NONE',  ( -71.34136002903926510, -14.40570333659612956, 0.000000000000000000 ) ) ;
#554 = FACE_BOUND ( 'NONE', #620, .T. ) ;
#555 = EDGE_CURVE ( 'NONE', #512, #90, #441, .T. ) ;
#556 = CARTESIAN_POINT ( 'NONE',  ( -60.40000000000000568, -26.00000000000000711, 0.000000000000000000 ) ) ;
#557 = ORIENTED_EDGE ( 'NONE', *, *, #5, .F. ) ;
#558 = FACE_OUTER_BOUND ( 'NONE', #39, .T. ) ;
#559 = CARTESIAN_POINT ( 'NONE',  ( -75.58477631085023063, -18.38477631085024555, 0.000000000000000000 ) ) ;
#560 = ORIENTED_EDGE ( 'NONE', *, *, #487, .F. ) ;
#561 = DIRECTION ( 'NONE',  ( -0.000000000000000000, -0.000000000000000000, 1.000000000000000000 ) ) ;
#562 = DIRECTION ( 'NONE',  ( 1.000000000000000000, 0.000000000000000000, 0.000000000000000000 ) ) ;
#563 = AXIS2_PLACEMENT_3D ( 'NONE', #628, #561, #712 ) ;
#564 = EDGE_LOOP ( 'NONE', ( #399, #143 ) ) ;
#565 = EDGE_CURVE ( 'NONE', #645, #722, #647, .T. ) ;
#566 = DIRECTION ( 'NONE',  ( -0.000000000000000000, -0.000000000000000000, 1.000000000000000000 ) ) ;
#567 = CARTESIAN_POINT ( 'NONE',  ( -57.19999999999999574, -26.00000000000000711, 0.000000000000000000 ) ) ;
#568 = EDGE_LOOP ( 'NONE', ( #716, #212, #731, #123 ) ) ;
#569 = CARTESIAN_POINT ( 'NONE',  ( -36.25863997096080027, -14.40570333659615265, 0.000000000000000000 ) ) ;
#570 = CARTESIAN_POINT ( 'NONE',  ( -77.80000000000002558, -1.361020142258940230E-15, 0.000000000000000000 ) ) ;
#571 = ADVANCED_FACE ( 'NONE', ( #436 ), #428, .F. ) ;
#572 = DIRECTION ( 'NONE',  ( 1.000000000000000000, 0.000000000000000000, 0.000000000000000000 ) ) ;
#573 = ORIENTED_EDGE ( 'NONE', *, *, #214, .T. ) ;
#574 = AXIS2_PLACEMENT_3D ( 'NONE', #273, #391, #659 ) ;
#575 = AXIS2_PLACEMENT_3D ( 'NONE', #433, #632, #305 ) ;
#576 = AXIS2_PLACEMENT_3D ( 'NONE', #174, #778, #562 ) ;
#577 = AXIS2_PLACEMENT_3D ( 'NONE', #85, #13, #283 ) ;
#578 = FACE_OUTER_BOUND ( 'NONE', #166, .T. ) ;
#579 = FACE_OUTER_BOUND ( 'NONE', #488, .T. ) ;
#580 = EDGE_CURVE ( 'NONE', #338, #552, #300, .T. ) ;
#581 = EDGE_LOOP ( 'NONE', ( #729, #725, #538, #111 ) ) ;
#582 = DIRECTION ( 'NONE',  ( 1.000000000000000000, 0.000000000000000000, 0.000000000000000000 ) ) ;
#583 = EDGE_CURVE ( 'NONE', #406, #447, #355, .T. ) ;
#584 = DIRECTION ( 'NONE',  ( 0.000000000000000000, 0.000000000000000000, 1.000000000000000000 ) ) ;
#585 = ORIENTED_EDGE ( 'NONE', *, *, #419, .F. ) ;
#586 = DIRECTION ( 'NONE',  ( -0.000000000000000000, -0.000000000000000000, 1.000000000000000000 ) ) ;
#587 = DIRECTION ( 'NONE',  ( -1.000000000000000000, 0.000000000000000000, 0.000000000000000000 ) ) ;
#588 = CARTESIAN_POINT ( 'NONE',  ( -77.18477631085022495, -18.38477631085024555, 0.000000000000000000 ) ) ;
#589 = ORIENTED_EDGE ( 'NONE', *, *, #555, .F. ) ;
#590 = VECTOR ( 'NONE', #132, 1000.000000000000000 ) ;
#591 = ORIENTED_EDGE ( 'NONE', *, *, #160, .F. ) ;
#592 = AXIS2_PLACEMENT_3D ( 'NONE', #181, #173, #503 ) ;
#593 = FACE_OUTER_BOUND ( 'NONE', #605, .T. ) ;
#594 = EDGE_CURVE ( 'NONE', #507, #645, #467, .T. ) ;
#595 = CIRCLE ( 'NONE', #706, 19.00000000000001066 ) ;
#596 = DIRECTION ( 'NONE',  ( 1.000000000000000000, 0.000000000000000000, 0.000000000000000000 ) ) ;
#597 = ORIENTED_EDGE ( 'NONE', *, *, #680, .T. ) ;
#598 = CARTESIAN_POINT ( 'NONE',  ( -39.69248288769420441, -21.94795639240567198, 0.000000000000000000 ) ) ;
#599 = DIRECTION ( 'NONE',  ( 0.000000000000000000, 0.000000000000000000, 1.000000000000000000 ) ) ;
#600 = DIRECTION ( 'NONE',  ( 0.000000000000000000, -1.000000000000000000, 0.000000000000000000 ) ) ;
#601 = EDGE_LOOP ( 'NONE', ( #502, #318, #455, #696 ) ) ;
#602 = DIRECTION ( 'NONE',  ( 0.000000000000000000, 0.000000000000000000, 1.000000000000000000 ) ) ;
#603 = DIRECTION ( 'NONE',  ( 1.000000000000000000, 0.000000000000000000, 0.000000000000000000 ) ) ;
#604 = ORIENTED_EDGE ( 'NONE', *, *, #8, .T. ) ;
#605 = EDGE_LOOP ( 'NONE', ( #675, #77, #93, #426 ) ) ;
#606 =( GEOMETRIC_REPRESENTATION_CONTEXT ( 3 ) GLOBAL_UNCERTAINTY_ASSIGNED_CONTEXT ( ( #169 ) ) GLOBAL_UNIT_ASSIGNED_CONTEXT ( ( #639, #59, #511 ) ) REPRESENTATION_CONTEXT ( 'NONE', 'WORKASPACE' ) );
#607 = AXIS2_PLACEMENT_3D ( 'NONE', #820, #91, #489 ) ;
#608 = FACE_BOUND ( 'NONE', #172, .T. ) ;
#609 = CARTESIAN_POINT ( 'NONE',  ( -60.39999999999999858, 26.00000000000000711, 0.000000000000000000 ) ) ;
#610 = CIRCLE ( 'NONE', #236, 1.599999999999990319 ) ;
#611 = ORIENTED_EDGE ( 'NONE', *, *, #392, .F. ) ;
#612 = ORIENTED_EDGE ( 'NONE', *, *, #34, .T. ) ;
#613 = CARTESIAN_POINT ( 'NONE',  ( -77.80000000000002558, -1.361020142258940230E-15, 2.000000000000000000 ) ) ;
#614 = ADVANCED_FACE ( 'NONE', ( #578 ), #844, .F. ) ;
#615 = CARTESIAN_POINT ( 'NONE',  ( -71.34136002903926510, -14.40570333659612956, 2.000000000000000000 ) ) ;
#616 = DIRECTION ( 'NONE',  ( 0.000000000000000000, 0.000000000000000000, 1.000000000000000000 ) ) ;
#617 = EDGE_CURVE ( 'NONE', #191, #843, #777, .T. ) ;
#618 = DIRECTION ( 'NONE',  ( 0.000000000000000000, 0.000000000000000000, -1.000000000000000000 ) ) ;
#619 = ORIENTED_EDGE ( 'NONE', *, *, #672, .T. ) ;
#620 = EDGE_LOOP ( 'NONE', ( #398, #474 ) ) ;
#621 = COLOUR_RGB ( '',0.7921568627450980005, 0.8196078431372548767, 0.9333333333333333481 ) ;
#622 = DIRECTION ( 'NONE',  ( 1.000000000000000000, 0.000000000000000000, 0.000000000000000000 ) ) ;
#623 = FACE_OUTER_BOUND ( 'NONE', #312, .T. ) ;
#624 = AXIS2_PLACEMENT_3D ( 'NONE', #588, #133, #265 ) ;
#625 = CARTESIAN_POINT ( 'NONE',  ( -77.90751711230588228, -21.94795639240561869, 2.000000000000000000 ) ) ;
#626 = ORIENTED_EDGE ( 'NONE', *, *, #328, .T. ) ;
#627 = ORIENTED_EDGE ( 'NONE', *, *, #198, .T. ) ;
#628 = CARTESIAN_POINT ( 'NONE',  ( -58.79999999999999716, 26.00000000000000711, 0.000000000000000000 ) ) ;
#629 = DIRECTION ( 'NONE',  ( -0.000000000000000000, -0.000000000000000000, 1.000000000000000000 ) ) ;
#630 = ORIENTED_EDGE ( 'NONE', *, *, #263, .F. ) ;
#631 = EDGE_CURVE ( 'NONE', #149, #722, #425, .T. ) ;
#632 = DIRECTION ( 'NONE',  ( -0.000000000000000000, -0.000000000000000000, -1.000000000000000000 ) ) ;
#633 = VECTOR ( 'NONE', #824, 1000.000000000000000 ) ;
#634 = DIRECTION ( 'NONE',  ( -0.000000000000000000, -0.000000000000000000, 1.000000000000000000 ) ) ;
#635 = CIRCLE ( 'NONE', #717, 1.599999999999990319 ) ;
#636 = ORIENTED_EDGE ( 'NONE', *, *, #832, .F. ) ;
#637 = CIRCLE ( 'NONE', #267, 1.600000000000004086 ) ;
#638 = CARTESIAN_POINT ( 'NONE',  ( -77.18477631085022495, -18.38477631085024555, 0.000000000000000000 ) ) ;
#639 =( LENGTH_UNIT ( ) NAMED_UNIT ( * ) SI_UNIT ( .MILLI., .METRE. ) );
#640 = EDGE_CURVE ( 'NONE', #463, #512, #770, .T. ) ;
#641 = VERTEX_POINT ( 'NONE', #189 ) ;
#642 = ADVANCED_FACE ( 'NONE', ( #593 ), #329, .F. ) ;
#643 = DIRECTION ( 'NONE',  ( -0.000000000000000000, -0.000000000000000000, 1.000000000000000000 ) ) ;
#644 = FILL_AREA_STYLE ('',( #178 ) ) ;
#645 = VERTEX_POINT ( 'NONE', #598 ) ;
#646 = EDGE_CURVE ( 'NONE', #146, #679, #595, .T. ) ;
#647 = LINE ( 'NONE', #836, #249 ) ;
#648 = ORIENTED_EDGE ( 'NONE', *, *, #462, .T. ) ;
#649 = AXIS2_PLACEMENT_3D ( 'NONE', #758, #349, #418 ) ;
#650 = AXIS2_PLACEMENT_3D ( 'NONE', #697, #762, #364 ) ;
#651 = CARTESIAN_POINT ( 'NONE',  ( -40.41522368914974805, 18.38477631085023845, 2.000000000000000000 ) ) ;
#652 = DIRECTION ( 'NONE',  ( -0.000000000000000000, -0.000000000000000000, 1.000000000000000000 ) ) ;
#653 = ORIENTED_EDGE ( 'NONE', *, *, #131, .T. ) ;
#654 = DIRECTION ( 'NONE',  ( 1.000000000000000000, 0.000000000000000000, 0.000000000000000000 ) ) ;
#655 = CARTESIAN_POINT ( 'NONE',  ( -46.25863997096080027, -14.40570333659616686, 2.000000000000000000 ) ) ;
#656 = DIRECTION ( 'NONE',  ( 0.000000000000000000, 0.000000000000000000, 1.000000000000000000 ) ) ;
#657 = VERTEX_POINT ( 'NONE', #383 ) ;
#658 = EDGE_CURVE ( 'NONE', #498, #314, #384, .T. ) ;
#659 = DIRECTION ( 'NONE',  ( 1.000000000000000000, 0.000000000000000000, 0.000000000000000000 ) ) ;
#660 = DIRECTION ( 'NONE',  ( 1.000000000000000000, 0.000000000000000000, 0.000000000000000000 ) ) ;
#661 = ORIENTED_EDGE ( 'NONE', *, *, #219, .T. ) ;
#662 = EDGE_LOOP ( 'NONE', ( #29, #57, #333, #137 ) ) ;
#663 = AXIS2_PLACEMENT_3D ( 'NONE', #494, #759, #429 ) ;
#664 = DIRECTION ( 'NONE',  ( 1.000000000000000000, 0.000000000000000000, -0.000000000000000000 ) ) ;
#665 = DIRECTION ( 'NONE',  ( 1.000000000000000000, 0.000000000000000000, 0.000000000000000000 ) ) ;
#666 = EDGE_LOOP ( 'NONE', ( #409, #431, #247, #4, #526, #320, #764, #837 ) ) ;
#667 = VERTEX_POINT ( 'NONE', #200 ) ;
#668 = CARTESIAN_POINT ( 'NONE',  ( -40.41522368914974805, 18.38477631085023845, 0.000000000000000000 ) ) ;
#669 =( NAMED_UNIT ( * ) SI_UNIT ( $, .STERADIAN. ) SOLID_ANGLE_UNIT ( ) );
#670 = EDGE_LOOP ( 'NONE', ( #698, #288, #78, #202 ) ) ;
#671 = ORIENTED_EDGE ( 'NONE', *, *, #680, .F. ) ;
#672 = EDGE_CURVE ( 'NONE', #338, #795, #499, .T. ) ;
#673 = DIRECTION ( 'NONE',  ( -0.000000000000000000, 1.000000000000000000, -0.000000000000000000 ) ) ;
#674 = CARTESIAN_POINT ( 'NONE',  ( -58.80000000000001137, -1.361020142258940230E-15, 0.000000000000000000 ) ) ;
#675 = ORIENTED_EDGE ( 'NONE', *, *, #784, .T. ) ;
#676 = LINE ( 'NONE', #88, #168 ) ;
#677 = AXIS2_PLACEMENT_3D ( 'NONE', #7, #546, #582 ) ;
#678 = VECTOR ( 'NONE', #110, 1000.000000000000000 ) ;
#679 = VERTEX_POINT ( 'NONE', #387 ) ;
#680 = EDGE_CURVE ( 'NONE', #24, #769, #610, .T. ) ;
#681 = ORIENTED_EDGE ( 'NONE', *, *, #12, .F. ) ;
#682 = DIRECTION ( 'NONE',  ( 1.000000000000000000, 0.000000000000000000, -0.000000000000000000 ) ) ;
#683 = CARTESIAN_POINT ( 'NONE',  ( -36.25863997096080027, 18.40372484148884880, 0.000000000000000000 ) ) ;
#684 = SHAPE_DEFINITION_REPRESENTATION ( #227, #337 ) ;
#685 = CYLINDRICAL_SURFACE ( 'NONE', #482, 1.599999999999990319 ) ;
#686 = EDGE_LOOP ( 'NONE', ( #298, #199 ) ) ;
#687 = PRODUCT ( 'camer_tracker_base_cover', 'camer_tracker_base_cover', '', ( #226 ) ) ;
#688 = CARTESIAN_POINT ( 'NONE',  ( -38.81522368914976084, 18.38477631085023845, 0.000000000000000000 ) ) ;
#689 = DIRECTION ( 'NONE',  ( 1.000000000000000000, 0.000000000000000000, 0.000000000000000000 ) ) ;
#690 = VERTEX_POINT ( 'NONE', #68 ) ;
#691 = MECHANICAL_DESIGN_GEOMETRIC_PRESENTATION_REPRESENTATION (  '', ( #153 ), #606 ) ;
#692 = DIRECTION ( 'NONE',  ( 1.000000000000000000, 0.000000000000000000, 0.000000000000000000 ) ) ;
#693 = VECTOR ( 'NONE', #766, 1000.000000000000000 ) ;
#694 = CARTESIAN_POINT ( 'NONE',  ( -77.18477631085022495, -18.38477631085024555, 0.000000000000000000 ) ) ;
#695 = AXIS2_PLACEMENT_3D ( 'NONE', #798, #75, #326 ) ;
#696 = ORIENTED_EDGE ( 'NONE', *, *, #440, .F. ) ;
#697 = CARTESIAN_POINT ( 'NONE',  ( -58.80000000000001137, -1.361020142258940230E-15, 2.000000000000000000 ) ) ;
#698 = ORIENTED_EDGE ( 'NONE', *, *, #131, .F. ) ;
#699 = CYLINDRICAL_SURFACE ( 'NONE', #224, 10.00000000000000178 ) ;
#700 = CARTESIAN_POINT ( 'NONE',  ( -77.18477631085022495, -18.38477631085024555, 2.000000000000000000 ) ) ;
#701 = ORIENTED_EDGE ( 'NONE', *, *, #640, .F. ) ;
#702 = CARTESIAN_POINT ( 'NONE',  ( -58.80000000000001137, -1.361020142258940230E-15, 2.000000000000000000 ) ) ;
#703 = EDGE_CURVE ( 'NONE', #386, #43, #811, .T. ) ;
#704 = AXIS2_PLACEMENT_3D ( 'NONE', #79, #331, #459 ) ;
#705 = ORIENTED_EDGE ( 'NONE', *, *, #440, .T. ) ;
#706 = AXIS2_PLACEMENT_3D ( 'NONE', #285, #542, #65 ) ;
#707 = EDGE_CURVE ( 'NONE', #108, #690, #415, .T. ) ;
#708 = CARTESIAN_POINT ( 'NONE',  ( -57.20000000000000284, 26.00000000000000711, 0.000000000000000000 ) ) ;
#709 = CARTESIAN_POINT ( 'NONE',  ( -77.18477631085022495, 18.38477631085024555, 0.000000000000000000 ) ) ;
#710 = ORIENTED_EDGE ( 'NONE', *, *, #34, .F. ) ;
#711 = EDGE_CURVE ( 'NONE', #406, #146, #259, .T. ) ;
#712 = DIRECTION ( 'NONE',  ( 1.000000000000000000, 0.000000000000000000, 0.000000000000000000 ) ) ;
#713 = EDGE_LOOP ( 'NONE', ( #356, #420 ) ) ;
#714 = DIRECTION ( 'NONE',  ( -0.000000000000000000, -0.000000000000000000, -1.000000000000000000 ) ) ;
#715 = CYLINDRICAL_SURFACE ( 'NONE', #103, 1.600000000000004086 ) ;
#716 = ORIENTED_EDGE ( 'NONE', *, *, #214, .F. ) ;
#717 = AXIS2_PLACEMENT_3D ( 'NONE', #543, #812, #416 ) ;
#718 = VECTOR ( 'NONE', #743, 1000.000000000000000 ) ;
#719 = PLANE ( 'NONE',  #394 ) ;
#720 = CYLINDRICAL_SURFACE ( 'NONE', #624, 1.600000000000004086 ) ;
#721 = ADVANCED_FACE ( 'NONE', ( #783 ), #458, .F. ) ;
#722 = VERTEX_POINT ( 'NONE', #831 ) ;
#723 = DIRECTION ( 'NONE',  ( 0.000000000000000000, 0.000000000000000000, 1.000000000000000000 ) ) ;
#724 = CARTESIAN_POINT ( 'NONE',  ( -46.25863997096080027, 14.40570333659616331, 2.000000000000000000 ) ) ;
#725 = ORIENTED_EDGE ( 'NONE', *, *, #392, .T. ) ;
#726 = CARTESIAN_POINT ( 'NONE',  ( -40.41522368914976227, -18.38477631085023134, 0.000000000000000000 ) ) ;
#727 = FACE_BOUND ( 'NONE', #686, .T. ) ;
#728 = EDGE_CURVE ( 'NONE', #43, #191, #830, .T. ) ;
#729 = ORIENTED_EDGE ( 'NONE', *, *, #765, .F. ) ;
#730 = AXIS2_PLACEMENT_3D ( 'NONE', #388, #404, #587 ) ;
#731 = ORIENTED_EDGE ( 'NONE', *, *, #711, .T. ) ;
#732 = VECTOR ( 'NONE', #316, 1000.000000000000000 ) ;
#733 = FACE_BOUND ( 'NONE', #11, .T. ) ;
#734 = CARTESIAN_POINT ( 'NONE',  ( -81.34136002903926510, 14.40570333659612601, 0.000000000000000000 ) ) ;
#735 = EDGE_LOOP ( 'NONE', ( #229, #207, #213, #585 ) ) ;
#736 = EDGE_CURVE ( 'NONE', #641, #108, #412, .T. ) ;
#737 = DIRECTION ( 'NONE',  ( -0.000000000000000000, -0.000000000000000000, 1.000000000000000000 ) ) ;
#738 = CARTESIAN_POINT ( 'NONE',  ( -81.34136002903926510, 18.40372484148879906, 0.000000000000000000 ) ) ;
#739 = ORIENTED_EDGE ( 'NONE', *, *, #523, .F. ) ;
#740 = EDGE_CURVE ( 'NONE', #641, #645, #819, .T. ) ;
#741 = FACE_BOUND ( 'NONE', #302, .T. ) ;
#742 = LINE ( 'NONE', #826, #262 ) ;
#743 = DIRECTION ( 'NONE',  ( 0.000000000000000000, 0.000000000000000000, 1.000000000000000000 ) ) ;
#744 = AXIS2_PLACEMENT_3D ( 'NONE', #755, #295, #815 ) ;
#745 = FACE_BOUND ( 'NONE', #163, .T. ) ;
#746 = VECTOR ( 'NONE', #197, 1000.000000000000000 ) ;
#747 = AXIS2_PLACEMENT_3D ( 'NONE', #544, #220, #481 ) ;
#748 = CARTESIAN_POINT ( 'NONE',  ( -40.41522368914976227, -18.38477631085023134, 2.000000000000000000 ) ) ;
#749 = EDGE_CURVE ( 'NONE', #33, #120, #51, .T. ) ;
#750 = ORIENTED_EDGE ( 'NONE', *, *, #457, .T. ) ;
#751 = FACE_BOUND ( 'NONE', #713, .T. ) ;
#752 = VERTEX_POINT ( 'NONE', #336 ) ;
#753 = ORIENTED_EDGE ( 'NONE', *, *, #330, .T. ) ;
#754 = CARTESIAN_POINT ( 'NONE',  ( -58.79999999999999716, -26.00000000000000711, 0.000000000000000000 ) ) ;
#755 = CARTESIAN_POINT ( 'NONE',  ( -77.18477631085022495, 18.38477631085024555, 0.000000000000000000 ) ) ;
#756 = VERTEX_POINT ( 'NONE', #473 ) ;
#757 = VECTOR ( 'NONE', #673, 1000.000000000000000 ) ;
#758 = CARTESIAN_POINT ( 'NONE',  ( -58.80000000000001137, -1.361020142258940230E-15, 0.000000000000000000 ) ) ;
#759 = DIRECTION ( 'NONE',  ( 0.000000000000000000, 0.000000000000000000, 1.000000000000000000 ) ) ;
#760 = LINE ( 'NONE', #556, #633 ) ;
#761 = VERTEX_POINT ( 'NONE', #609 ) ;
#762 = DIRECTION ( 'NONE',  ( 0.000000000000000000, 0.000000000000000000, 1.000000000000000000 ) ) ;
#763 = LINE ( 'NONE', #379, #408 ) ;
#764 = ORIENTED_EDGE ( 'NONE', *, *, #505, .T. ) ;
#765 = EDGE_CURVE ( 'NONE', #341, #450, #525, .T. ) ;
#766 = DIRECTION ( 'NONE',  ( 0.000000000000000000, 0.000000000000000000, -1.000000000000000000 ) ) ;
#767 = SURFACE_STYLE_FILL_AREA ( #644 ) ;
#768 = ADVANCED_FACE ( 'NONE', ( #454 ), #17, .T. ) ;
#769 = VERTEX_POINT ( 'NONE', #389 ) ;
#770 = LINE ( 'NONE', #708, #21 ) ;
#771 = CIRCLE ( 'NONE', #47, 1.600000000000004086 ) ;
#772 = CARTESIAN_POINT ( 'NONE',  ( -78.78477631085023347, 18.38477631085024555, 0.000000000000000000 ) ) ;
#773 = VECTOR ( 'NONE', #150, 1000.000000000000000 ) ;
#774 = VECTOR ( 'NONE', #1, 1000.000000000000000 ) ;
#775 = ORIENTED_EDGE ( 'NONE', *, *, #631, .F. ) ;
#776 = VECTOR ( 'NONE', #600, 1000.000000000000000 ) ;
#777 = LINE ( 'NONE', #506, #693 ) ;
#778 = DIRECTION ( 'NONE',  ( 0.000000000000000000, 0.000000000000000000, 1.000000000000000000 ) ) ;
#779 = VERTEX_POINT ( 'NONE', #323 ) ;
#780 = DIRECTION ( 'NONE',  ( -1.000000000000000000, 0.000000000000000000, 0.000000000000000000 ) ) ;
#781 = DIRECTION ( 'NONE',  ( -1.000000000000000000, 0.000000000000000000, 0.000000000000000000 ) ) ;
#782 = VERTEX_POINT ( 'NONE', #10 ) ;
#783 = FACE_OUTER_BOUND ( 'NONE', #568, .T. ) ;
#784 = EDGE_CURVE ( 'NONE', #843, #108, #277, .T. ) ;
#785 = FACE_OUTER_BOUND ( 'NONE', #271, .T. ) ;
#786 = ORIENTED_EDGE ( 'NONE', *, *, #523, .T. ) ;
#787 = CIRCLE ( 'NONE', #293, 1.600000000000004086 ) ;
#788 = AXIS2_PLACEMENT_3D ( 'NONE', #448, #714, #192 ) ;
#789 = VECTOR ( 'NONE', #629, 1000.000000000000000 ) ;
#790 = CARTESIAN_POINT ( 'NONE',  ( -36.25863997096080027, 14.40570333659616331, 2.000000000000000000 ) ) ;
#791 = DIRECTION ( 'NONE',  ( 0.000000000000000000, 0.000000000000000000, 1.000000000000000000 ) ) ;
#792 = VERTEX_POINT ( 'NONE', #332 ) ;
#793 = ADVANCED_FACE ( 'NONE', ( #148 ), #405, .T. ) ;
#794 = DIRECTION ( 'NONE',  ( -0.000000000000000000, -0.000000000000000000, 1.000000000000000000 ) ) ;
#795 = VERTEX_POINT ( 'NONE', #23 ) ;
#796 = EDGE_CURVE ( 'NONE', #463, #761, #470, .T. ) ;
#797 = DIRECTION ( 'NONE',  ( 1.000000000000000000, 0.000000000000000000, 0.000000000000000000 ) ) ;
#798 = CARTESIAN_POINT ( 'NONE',  ( -77.18477631085022495, 18.38477631085024555, 2.000000000000000000 ) ) ;
#799 = ORIENTED_EDGE ( 'NONE', *, *, #703, .F. ) ;
#800 = ADVANCED_FACE ( 'NONE', ( #274 ), #720, .F. ) ;
#801 = PRESENTATION_LAYER_ASSIGNMENT (  '', '', ( #153 ) ) ;
#802 = VECTOR ( 'NONE', #375, 1000.000000000000000 ) ;
#803 =( GEOMETRIC_REPRESENTATION_CONTEXT ( 3 ) GLOBAL_UNCERTAINTY_ASSIGNED_CONTEXT ( ( #432 ) ) GLOBAL_UNIT_ASSIGNED_CONTEXT ( ( #205, #270, #669 ) ) REPRESENTATION_CONTEXT ( 'NONE', 'WORKASPACE' ) );
#804 = CARTESIAN_POINT ( 'NONE',  ( -36.25863997096080027, 14.40570333659616509, 0.000000000000000000 ) ) ;
#805 = DIRECTION ( 'NONE',  ( -1.000000000000000000, 0.000000000000000000, 0.000000000000000000 ) ) ;
#806 = ORIENTED_EDGE ( 'NONE', *, *, #583, .T. ) ;
#807 = DIRECTION ( 'NONE',  ( -0.000000000000000000, -0.000000000000000000, 1.000000000000000000 ) ) ;
#808 = DIRECTION ( 'NONE',  ( 1.000000000000000000, 0.000000000000000000, 0.000000000000000000 ) ) ;
#809 = DIRECTION ( 'NONE',  ( 0.000000000000000000, 0.000000000000000000, 1.000000000000000000 ) ) ;
#810 = EDGE_LOOP ( 'NONE', ( #183, #681 ) ) ;
#811 = LINE ( 'NONE', #847, #718 ) ;
#812 = DIRECTION ( 'NONE',  ( 0.000000000000000000, 0.000000000000000000, 1.000000000000000000 ) ) ;
#813 = APPLICATION_PROTOCOL_DEFINITION ( 'draft international standard', 'automotive_design', 1998, #98 ) ;
#814 = EDGE_CURVE ( 'NONE', #667, #94, #37, .T. ) ;
#815 = DIRECTION ( 'NONE',  ( 1.000000000000000000, 0.000000000000000000, 0.000000000000000000 ) ) ;
#816 = ORIENTED_EDGE ( 'NONE', *, *, #175, .T. ) ;
#817 = AXIS2_PLACEMENT_3D ( 'NONE', #144, #794, #472 ) ;
#818 = AXIS2_PLACEMENT_3D ( 'NONE', #371, #313, #442 ) ;
#819 = CIRCLE ( 'NONE', #35, 29.10000000000000497 ) ;
#820 = CARTESIAN_POINT ( 'NONE',  ( -58.79999999999999716, -26.00000000000000711, 0.000000000000000000 ) ) ;
#821 = AXIS2_PLACEMENT_3D ( 'NONE', #724, #136, #660 ) ;
#822 = DIRECTION ( 'NONE',  ( 1.000000000000000000, 0.000000000000000000, 0.000000000000000000 ) ) ;
#823 = LINE ( 'NONE', #345, #496 ) ;
#824 = DIRECTION ( 'NONE',  ( -0.000000000000000000, -0.000000000000000000, 1.000000000000000000 ) ) ;
#825 = CYLINDRICAL_SURFACE ( 'NONE', #607, 1.600000000000004086 ) ;
#826 = CARTESIAN_POINT ( 'NONE',  ( -60.39999999999999858, 26.00000000000000711, 0.000000000000000000 ) ) ;
#827 = EDGE_CURVE ( 'NONE', #450, #792, #509, .T. ) ;
#828 = CARTESIAN_POINT ( 'NONE',  ( -38.81522368914976795, -18.38477631085023134, 2.000000000000000000 ) ) ;
#829 = CARTESIAN_POINT ( 'NONE',  ( -77.90751711230588228, -21.94795639240561513, 2.000000000000000000 ) ) ;
#830 = CIRCLE ( 'NONE', #397, 10.00000000000000178 ) ;
#831 = CARTESIAN_POINT ( 'NONE',  ( -39.69248288769420441, -21.94795639240567198, 2.000000000000000000 ) ) ;
#832 = EDGE_CURVE ( 'NONE', #756, #657, #252, .T. ) ;
#833 = CARTESIAN_POINT ( 'NONE',  ( -60.40000000000000568, -26.00000000000000711, 0.000000000000000000 ) ) ;
#834 = LINE ( 'NONE', #772, #480 ) ;
#835 = ORIENTED_EDGE ( 'NONE', *, *, #832, .T. ) ;
#836 = CARTESIAN_POINT ( 'NONE',  ( -39.69248288769419730, -21.94795639240567553, 2.000000000000000000 ) ) ;
#837 = ORIENTED_EDGE ( 'NONE', *, *, #728, .T. ) ;
#838 = DIRECTION ( 'NONE',  ( 1.000000000000000000, -1.734723475976806700E-15, 0.000000000000000000 ) ) ;
#839 = CYLINDRICAL_SURFACE ( 'NONE', #342, 19.00000000000001066 ) ;
#840 = CIRCLE ( 'NONE', #303, 1.599999999999990319 ) ;
#841 = CARTESIAN_POINT ( 'NONE',  ( -40.41522368914976227, -18.38477631085023134, 0.000000000000000000 ) ) ;
#842 = AXIS2_PLACEMENT_3D ( 'NONE', #841, #652, #251 ) ;
#843 = VERTEX_POINT ( 'NONE', #734 ) ;
#844 = CYLINDRICAL_SURFACE ( 'NONE', #315, 1.599999999999997202 ) ;
#845 = DIRECTION ( 'NONE',  ( -0.000000000000000000, -0.000000000000000000, -1.000000000000000000 ) ) ;
#846 = ORIENTED_EDGE ( 'NONE', *, *, #728, .F. ) ;
#847 = CARTESIAN_POINT ( 'NONE',  ( -77.90751711230588228, 21.94795639240561513, 2.000000000000000000 ) ) ;
#848 = FACE_OUTER_BOUND ( 'NONE', #666, .T. ) ;
#849 = ORIENTED_EDGE ( 'NONE', *, *, #740, .T. ) ;
ENDSEC;
END-ISO-10303-21;
