ISO-10303-21;
HEADER;
FILE_DESCRIPTION (( 'STEP AP214' ),
    '1' );
FILE_NAME ('camera_cover.STEP',
    '2026-05-14T08:20:21',
    ( '' ),
    ( '' ),
    'SwSTEP 2.0',
    'SolidWorks 2024',
    '' );
FILE_SCHEMA (( 'AUTOMOTIVE_DESIGN' ));
ENDSEC;

DATA;
#1 = DIRECTION ( 'NONE',  ( -1.000000000000000000, 0.000000000000000000, 0.000000000000000000 ) ) ;
#2 = ORIENTED_EDGE ( 'NONE', *, *, #473, .T. ) ;
#3 = DIRECTION ( 'NONE',  ( 1.000000000000000000, 0.000000000000000000, 0.000000000000000000 ) ) ;
#4 = ADVANCED_FACE ( 'NONE', ( #878 ), #963, .T. ) ;
#5 = CARTESIAN_POINT ( 'NONE',  ( -30.75786437626904046, -17.99999999999999645, 0.000000000000000000 ) ) ;
#6 = EDGE_LOOP ( 'NONE', ( #647, #954, #333, #181 ) ) ;
#7 = DIRECTION ( 'NONE',  ( -1.000000000000000000, 0.000000000000000000, 0.000000000000000000 ) ) ;
#8 = DIRECTION ( 'NONE',  ( -0.000000000000000000, -0.000000000000000000, -1.000000000000000000 ) ) ;
#9 = EDGE_CURVE ( 'NONE', #643, #618, #730, .T. ) ;
#10 = CIRCLE ( 'NONE', #146, 1.749999999999991118 ) ;
#11 = VERTEX_POINT ( 'NONE', #120 ) ;
#12 = VECTOR ( 'NONE', #451, 999.9999999999998863 ) ;
#13 = DIRECTION ( 'NONE',  ( 0.000000000000000000, 0.000000000000000000, 1.000000000000000000 ) ) ;
#14 = PLANE ( 'NONE',  #795 ) ;
#15 = CARTESIAN_POINT ( 'NONE',  ( 38.43553390593274344, 14.46446609406725869, 3.000000000000000000 ) ) ;
#16 = CARTESIAN_POINT ( 'NONE',  ( 34.90000000000000568, 10.92893218813451561, 3.000000000000000000 ) ) ;
#17 = ORIENTED_EDGE ( 'NONE', *, *, #117, .F. ) ;
#18 = FACE_OUTER_BOUND ( 'NONE', #285, .T. ) ;
#19 = ORIENTED_EDGE ( 'NONE', *, *, #663, .F. ) ;
#20 = ADVANCED_FACE ( 'NONE', ( #138 ), #126, .T. ) ;
#21 = DIRECTION ( 'NONE',  ( -0.7071067811865474617, 0.7071067811865474617, 0.000000000000000000 ) ) ;
#22 = DIRECTION ( 'NONE',  ( -0.000000000000000000, -0.000000000000000000, -1.000000000000000000 ) ) ;
#23 = VECTOR ( 'NONE', #839, 1000.000000000000000 ) ;
#24 = VERTEX_POINT ( 'NONE', #357 ) ;
#25 = CIRCLE ( 'NONE', #905, 1.750000000000005107 ) ;
#26 = CARTESIAN_POINT ( 'NONE',  ( 34.57893218813450886, 13.00000000000000000, 3.000000000000000000 ) ) ;
#27 = VECTOR ( 'NONE', #214, 1000.000000000000000 ) ;
#28 = ORIENTED_EDGE ( 'NONE', *, *, #501, .T. ) ;
#29 = CARTESIAN_POINT ( 'NONE',  ( 0.000000000000000000, 0.000000000000000000, 0.000000000000000000 ) ) ;
#30 = EDGE_CURVE ( 'NONE', #32, #82, #660, .T. ) ;
#31 = CARTESIAN_POINT ( 'NONE',  ( -30.75786437626904046, -17.99999999999999289, 3.000000000000000000 ) ) ;
#32 = VERTEX_POINT ( 'NONE', #47 ) ;
#33 = DIRECTION ( 'NONE',  ( -0.000000000000000000, -0.000000000000000000, -1.000000000000000000 ) ) ;
#34 = EDGE_CURVE ( 'NONE', #904, #728, #348, .T. ) ;
#35 = ORIENTED_EDGE ( 'NONE', *, *, #860, .F. ) ;
#36 = AXIS2_PLACEMENT_3D ( 'NONE', #768, #475, #178 ) ;
#37 = VERTEX_POINT ( 'NONE', #366 ) ;
#38 = CYLINDRICAL_SURFACE ( 'NONE', #192, 10.00000000000000178 ) ;
#39 = AXIS2_PLACEMENT_3D ( 'NONE', #940, #193, #440 ) ;
#40 = AXIS2_PLACEMENT_3D ( 'NONE', #672, #13, #527 ) ;
#41 = CARTESIAN_POINT ( 'NONE',  ( 38.43553390593273633, -14.46446609406725692, 0.000000000000000000 ) ) ;
#42 = ORIENTED_EDGE ( 'NONE', *, *, #945, .F. ) ;
#43 = ORIENTED_EDGE ( 'NONE', *, *, #424, .F. ) ;
#44 = CARTESIAN_POINT ( 'NONE',  ( 32.82893218813453018, 13.00000000000000000, 3.000000000000000000 ) ) ;
#45 = LINE ( 'NONE', #423, #903 ) ;
#46 = CARTESIAN_POINT ( 'NONE',  ( -39.89999999999999147, -10.92893218813451561, 3.000000000000000000 ) ) ;
#47 = CARTESIAN_POINT ( 'NONE',  ( -38.43553390593272923, -14.46446609406725337, 0.000000000000000000 ) ) ;
#48 = VERTEX_POINT ( 'NONE', #669 ) ;
#49 = CARTESIAN_POINT ( 'NONE',  ( -38.43553390593272923, -14.46446609406725337, 3.000000000000000000 ) ) ;
#50 = SURFACE_STYLE_FILL_AREA ( #329 ) ;
#51 = ORIENTED_EDGE ( 'NONE', *, *, #727, .F. ) ;
#52 = ORIENTED_EDGE ( 'NONE', *, *, #129, .T. ) ;
#53 = DIRECTION ( 'NONE',  ( 0.000000000000000000, 0.000000000000000000, -1.000000000000000000 ) ) ;
#54 = CIRCLE ( 'NONE', #610, 1.749999999999991118 ) ;
#55 = VECTOR ( 'NONE', #292, 1000.000000000000000 ) ;
#56 = VECTOR ( 'NONE', #215, 1000.000000000000000 ) ;
#57 = AXIS2_PLACEMENT_3D ( 'NONE', #808, #884, #140 ) ;
#58 = DIRECTION ( 'NONE',  ( 0.000000000000000000, 0.000000000000000000, -1.000000000000000000 ) ) ;
#59 = EDGE_LOOP ( 'NONE', ( #78, #627, #315, #94 ) ) ;
#60 = CARTESIAN_POINT ( 'NONE',  ( -30.75786437626904046, -7.999999999999992895, 0.000000000000000000 ) ) ;
#61 = LINE ( 'NONE', #290, #436 ) ;
#62 = DIRECTION ( 'NONE',  ( 1.000000000000000000, 0.000000000000000000, 0.000000000000000000 ) ) ;
#63 = VERTEX_POINT ( 'NONE', #189 ) ;
#64 = CARTESIAN_POINT ( 'NONE',  ( 36.36446609406726793, 16.53553390593273775, 3.000000000000000000 ) ) ;
#65 = CARTESIAN_POINT ( 'NONE',  ( 32.82893218813453018, 13.00000000000000000, 3.000000000000000000 ) ) ;
#66 = ORIENTED_EDGE ( 'NONE', *, *, #233, .T. ) ;
#67 = EDGE_LOOP ( 'NONE', ( #521, #922, #271, #349 ) ) ;
#68 = CARTESIAN_POINT ( 'NONE',  ( -10.00000000000000000, 0.000000000000000000, 0.000000000000000000 ) ) ;
#69 = LINE ( 'NONE', #377, #688 ) ;
#70 = VECTOR ( 'NONE', #241, 1000.000000000000000 ) ;
#71 = AXIS2_PLACEMENT_3D ( 'NONE', #651, #642, #938 ) ;
#72 = AXIS2_PLACEMENT_3D ( 'NONE', #534, #838, #157 ) ;
#73 = VERTEX_POINT ( 'NONE', #498 ) ;
#74 = CARTESIAN_POINT ( 'NONE',  ( 32.82893218813453018, 13.00000000000000000, 3.000000000000000000 ) ) ;
#75 = DIRECTION ( 'NONE',  ( 1.000000000000000000, 0.000000000000000000, 0.000000000000000000 ) ) ;
#76 = CARTESIAN_POINT ( 'NONE',  ( -37.82893218813451597, -15.07106781186547018, 3.000000000000000000 ) ) ;
#77 = EDGE_CURVE ( 'NONE', #648, #293, #420, .T. ) ;
#78 = ORIENTED_EDGE ( 'NONE', *, *, #909, .T. ) ;
#79 = DIRECTION ( 'NONE',  ( -1.000000000000000000, 0.000000000000000000, 0.000000000000000000 ) ) ;
#80 = EDGE_CURVE ( 'NONE', #728, #643, #388, .T. ) ;
#81 = LINE ( 'NONE', #912, #56 ) ;
#82 = VERTEX_POINT ( 'NONE', #599 ) ;
#83 = CYLINDRICAL_SURFACE ( 'NONE', #454, 4.999999999999997335 ) ;
#84 = DIRECTION ( 'NONE',  ( 0.000000000000000000, 0.000000000000000000, 1.000000000000000000 ) ) ;
#85 = CARTESIAN_POINT ( 'NONE',  ( -38.43553390593272923, -14.46446609406725337, 3.000000000000000000 ) ) ;
#86 = DIRECTION ( 'NONE',  ( 1.000000000000000000, 0.000000000000000000, 0.000000000000000000 ) ) ;
#87 = VECTOR ( 'NONE', #560, 1000.000000000000000 ) ;
#88 = VERTEX_POINT ( 'NONE', #525 ) ;
#89 = CIRCLE ( 'NONE', #372, 1.750000000000001554 ) ;
#90 = PRODUCT_CONTEXT ( 'NONE', #531, 'mechanical' ) ;
#91 = DIRECTION ( 'NONE',  ( 0.000000000000000000, 0.000000000000000000, 1.000000000000000000 ) ) ;
#92 = EDGE_CURVE ( 'NONE', #330, #567, #10, .T. ) ;
#93 = EDGE_CURVE ( 'NONE', #711, #32, #762, .T. ) ;
#94 = ORIENTED_EDGE ( 'NONE', *, *, #252, .T. ) ;
#95 = CARTESIAN_POINT ( 'NONE',  ( 38.43553390593274344, 14.46446609406725869, 3.000000000000000000 ) ) ;
#96 = CARTESIAN_POINT ( 'NONE',  ( -34.89999999999999147, 10.92893218813452805, 0.000000000000000000 ) ) ;
#97 = EDGE_LOOP ( 'NONE', ( #699, #926, #135, #318 ) ) ;
#98 = EDGE_CURVE ( 'NONE', #48, #950, #398, .T. ) ;
#99 = CARTESIAN_POINT ( 'NONE',  ( -38.43553390593272923, 14.46446609406726225, 0.000000000000000000 ) ) ;
#100 = FACE_OUTER_BOUND ( 'NONE', #916, .T. ) ;
#101 = CARTESIAN_POINT ( 'NONE',  ( -34.89999999999999147, -17.99999999999999289, 3.000000000000000000 ) ) ;
#102 = EDGE_CURVE ( 'NONE', #711, #409, #948, .T. ) ;
#103 = ORIENTED_EDGE ( 'NONE', *, *, #956, .F. ) ;
#104 = EDGE_LOOP ( 'NONE', ( #327, #899, #187, #444 ) ) ;
#105 = CARTESIAN_POINT ( 'NONE',  ( 31.24999999999998224, -13.50000000000005329, 3.000000000000000000 ) ) ;
#106 = ORIENTED_EDGE ( 'NONE', *, *, #945, .T. ) ;
#107 = EDGE_CURVE ( 'NONE', #63, #800, #611, .T. ) ;
#108 = CARTESIAN_POINT ( 'NONE',  ( -34.89999999999999147, -10.92893218813451384, 0.000000000000000000 ) ) ;
#109 = CARTESIAN_POINT ( 'NONE',  ( -30.75786437626904046, -7.999999999999992895, 3.000000000000000000 ) ) ;
#110 = ORIENTED_EDGE ( 'NONE', *, *, #540, .T. ) ;
#111 = DIRECTION ( 'NONE',  ( 0.000000000000000000, 0.000000000000000000, 1.000000000000000000 ) ) ;
#112 = DIRECTION ( 'NONE',  ( -0.7071067811865474617, -0.7071067811865474617, -0.000000000000000000 ) ) ;
#113 = ORIENTED_EDGE ( 'NONE', *, *, #537, .F. ) ;
#114 = VECTOR ( 'NONE', #230, 1000.000000000000000 ) ;
#115 = ORIENTED_EDGE ( 'NONE', *, *, #30, .F. ) ;
#116 = DIRECTION ( 'NONE',  ( 0.000000000000000000, 0.000000000000000000, 1.000000000000000000 ) ) ;
#117 = EDGE_CURVE ( 'NONE', #609, #330, #731, .T. ) ;
#118 =( GEOMETRIC_REPRESENTATION_CONTEXT ( 3 ) GLOBAL_UNCERTAINTY_ASSIGNED_CONTEXT ( ( #952 ) ) GLOBAL_UNIT_ASSIGNED_CONTEXT ( ( #539, #556, #770 ) ) REPRESENTATION_CONTEXT ( 'NONE', 'WORKASPACE' ) );
#119 = PLANE ( 'NONE',  #400 ) ;
#120 = CARTESIAN_POINT ( 'NONE',  ( -39.89999999999999147, 10.92893218813452627, 0.000000000000000000 ) ) ;
#121 = CARTESIAN_POINT ( 'NONE',  ( 36.36446609406726793, 16.53553390593273775, 3.000000000000000000 ) ) ;
#122 = SURFACE_SIDE_STYLE ('',( #50 ) ) ;
#123 = ORIENTED_EDGE ( 'NONE', *, *, #704, .F. ) ;
#124 = EDGE_LOOP ( 'NONE', ( #28, #640, #243, #758 ) ) ;
#125 = FACE_OUTER_BOUND ( 'NONE', #97, .T. ) ;
#126 = CYLINDRICAL_SURFACE ( 'NONE', #826, 9.999999999999998224 ) ;
#127 = ORIENTED_EDGE ( 'NONE', *, *, #442, .F. ) ;
#128 = DIRECTION ( 'NONE',  ( 1.000000000000000000, 0.000000000000000000, 0.000000000000000000 ) ) ;
#129 = EDGE_CURVE ( 'NONE', #167, #88, #774, .T. ) ;
#130 = AXIS2_PLACEMENT_3D ( 'NONE', #16, #763, #86 ) ;
#131 = CIRCLE ( 'NONE', #686, 1.750000000000005107 ) ;
#132 = DIRECTION ( 'NONE',  ( -0.000000000000000000, -0.000000000000000000, -1.000000000000000000 ) ) ;
#133 = DIRECTION ( 'NONE',  ( -0.000000000000000000, -0.000000000000000000, -1.000000000000000000 ) ) ;
#134 = DIRECTION ( 'NONE',  ( 0.7071067811865474617, -0.7071067811865474617, -0.000000000000000000 ) ) ;
#135 = ORIENTED_EDGE ( 'NONE', *, *, #356, .F. ) ;
#136 = DIRECTION ( 'NONE',  ( -0.000000000000000000, -0.000000000000000000, -1.000000000000000000 ) ) ;
#137 = CARTESIAN_POINT ( 'NONE',  ( -34.57893218813451597, 13.00000000000000711, 3.000000000000000000 ) ) ;
#138 = FACE_OUTER_BOUND ( 'NONE', #67, .T. ) ;
#139 = ORIENTED_EDGE ( 'NONE', *, *, #308, .T. ) ;
#140 = DIRECTION ( 'NONE',  ( 0.7071067811865474617, 0.7071067811865474617, 0.000000000000000000 ) ) ;
#141 = DIRECTION ( 'NONE',  ( -0.000000000000000000, -0.000000000000000000, -1.000000000000000000 ) ) ;
#142 = DIRECTION ( 'NONE',  ( 0.000000000000000000, 0.000000000000000000, 1.000000000000000000 ) ) ;
#143 = EDGE_LOOP ( 'NONE', ( #343, #258, #405, #581 ) ) ;
#144 = CARTESIAN_POINT ( 'NONE',  ( -34.89999999999999147, -10.92893218813451384, 3.000000000000000000 ) ) ;
#145 = FACE_OUTER_BOUND ( 'NONE', #856, .T. ) ;
#146 = AXIS2_PLACEMENT_3D ( 'NONE', #893, #464, #216 ) ;
#147 = EDGE_CURVE ( 'NONE', #471, #680, #721, .T. ) ;
#148 = AXIS2_PLACEMENT_3D ( 'NONE', #852, #313, #382 ) ;
#149 = EDGE_CURVE ( 'NONE', #618, #835, #195, .T. ) ;
#150 = VECTOR ( 'NONE', #615, 1000.000000000000000 ) ;
#151 = ORIENTED_EDGE ( 'NONE', *, *, #209, .F. ) ;
#152 = DIRECTION ( 'NONE',  ( -0.7071067811865479058, 0.7071067811865472397, -0.000000000000000000 ) ) ;
#153 = EDGE_CURVE ( 'NONE', #841, #32, #844, .T. ) ;
#154 = DIRECTION ( 'NONE',  ( -1.000000000000000000, 0.000000000000000000, 0.000000000000000000 ) ) ;
#155 = ORIENTED_EDGE ( 'NONE', *, *, #869, .F. ) ;
#156 = CARTESIAN_POINT ( 'NONE',  ( -32.82893218813451597, 18.00000000000000711, 3.000000000000000000 ) ) ;
#157 = DIRECTION ( 'NONE',  ( -0.7071067811865470176, -0.7071067811865480168, 0.000000000000000000 ) ) ;
#158 = CARTESIAN_POINT ( 'NONE',  ( 38.43553390593273633, -14.46446609406725869, 3.000000000000000000 ) ) ;
#159 = LINE ( 'NONE', #236, #190 ) ;
#160 = ORIENTED_EDGE ( 'NONE', *, *, #182, .F. ) ;
#161 = CYLINDRICAL_SURFACE ( 'NONE', #717, 1.750000000000001554 ) ;
#162 = ADVANCED_FACE ( 'NONE', ( #898 ), #812, .F. ) ;
#163 = DIRECTION ( 'NONE',  ( -1.000000000000000000, 0.000000000000000000, 0.000000000000000000 ) ) ;
#164 = STYLED_ITEM ( 'NONE', ( #404 ), #332 ) ;
#165 = CIRCLE ( 'NONE', #288, 1.749999999999980682 ) ;
#166 = VECTOR ( 'NONE', #536, 1000.000000000000000 ) ;
#167 = VERTEX_POINT ( 'NONE', #298 ) ;
#168 = AXIS2_PLACEMENT_3D ( 'NONE', #930, #238, #923 ) ;
#169 = CARTESIAN_POINT ( 'NONE',  ( 39.89999999999999858, -10.92893218813452272, 3.000000000000000000 ) ) ;
#170 = VERTEX_POINT ( 'NONE', #221 ) ;
#171 = CARTESIAN_POINT ( 'NONE',  ( 0.000000000000000000, 0.000000000000000000, 3.000000000000000000 ) ) ;
#172 = CARTESIAN_POINT ( 'NONE',  ( 39.89999999999999858, -10.92893218813452272, 3.000000000000000000 ) ) ;
#173 = LINE ( 'NONE', #101, #638 ) ;
#174 = DIRECTION ( 'NONE',  ( -0.000000000000000000, -0.000000000000000000, -1.000000000000000000 ) ) ;
#175 = EDGE_LOOP ( 'NONE', ( #247, #579, #66, #299 ) ) ;
#176 = APPLICATION_PROTOCOL_DEFINITION ( 'draft international standard', 'automotive_design', 1998, #531 ) ;
#177 = CARTESIAN_POINT ( 'NONE',  ( -30.75786437626904046, -7.999999999999992895, 3.000000000000000000 ) ) ;
#178 = DIRECTION ( 'NONE',  ( 1.000000000000000000, 0.000000000000000000, 0.000000000000000000 ) ) ;
#179 = CIRCLE ( 'NONE', #304, 1.750000000000005107 ) ;
#180 = AXIS2_PLACEMENT_3D ( 'NONE', #171, #419, #791 ) ;
#181 = ORIENTED_EDGE ( 'NONE', *, *, #93, .T. ) ;
#182 = EDGE_CURVE ( 'NONE', #835, #48, #530, .T. ) ;
#183 = DIRECTION ( 'NONE',  ( 1.000000000000000000, 0.000000000000000000, 0.000000000000000000 ) ) ;
#184 = CARTESIAN_POINT ( 'NONE',  ( 34.89999999999999858, -10.92893218813452272, 0.000000000000000000 ) ) ;
#185 = ORIENTED_EDGE ( 'NONE', *, *, #559, .F. ) ;
#186 = FACE_OUTER_BOUND ( 'NONE', #676, .T. ) ;
#187 = ORIENTED_EDGE ( 'NONE', *, *, #117, .T. ) ;
#188 = CARTESIAN_POINT ( 'NONE',  ( 0.000000000000000000, 0.000000000000000000, 3.000000000000000000 ) ) ;
#189 = CARTESIAN_POINT ( 'NONE',  ( -10.00000000000000000, 0.000000000000000000, 3.000000000000000000 ) ) ;
#190 = VECTOR ( 'NONE', #174, 1000.000000000000000 ) ;
#191 = ORIENTED_EDGE ( 'NONE', *, *, #351, .T. ) ;
#192 = AXIS2_PLACEMENT_3D ( 'NONE', #177, #481, #547 ) ;
#193 = DIRECTION ( 'NONE',  ( -0.000000000000000000, -0.000000000000000000, -1.000000000000000000 ) ) ;
#194 = CIRCLE ( 'NONE', #307, 10.00000000000000000 ) ;
#195 = LINE ( 'NONE', #881, #433 ) ;
#196 = ORIENTED_EDGE ( 'NONE', *, *, #356, .T. ) ;
#197 = EDGE_LOOP ( 'NONE', ( #828, #425, #396, #324 ) ) ;
#198 = FACE_OUTER_BOUND ( 'NONE', #383, .T. ) ;
#199 = DIRECTION ( 'NONE',  ( 0.000000000000000000, 0.000000000000000000, 1.000000000000000000 ) ) ;
#200 = EDGE_CURVE ( 'NONE', #555, #738, #754, .T. ) ;
#201 = ORIENTED_EDGE ( 'NONE', *, *, #698, .T. ) ;
#202 = ORIENTED_EDGE ( 'NONE', *, *, #306, .F. ) ;
#203 = CARTESIAN_POINT ( 'NONE',  ( -32.82893218813451597, 18.00000000000000711, 3.000000000000000000 ) ) ;
#204 = DIRECTION ( 'NONE',  ( 1.000000000000000000, 0.000000000000000000, 0.000000000000000000 ) ) ;
#205 = ORIENTED_EDGE ( 'NONE', *, *, #354, .F. ) ;
#206 = ORIENTED_EDGE ( 'NONE', *, *, #408, .F. ) ;
#207 = LINE ( 'NONE', #268, #715 ) ;
#208 = AXIS2_PLACEMENT_3D ( 'NONE', #108, #111, #406 ) ;
#209 = EDGE_CURVE ( 'NONE', #643, #310, #159, .T. ) ;
#210 =( GEOMETRIC_REPRESENTATION_CONTEXT ( 3 ) GLOBAL_UNCERTAINTY_ASSIGNED_CONTEXT ( ( #283 ) ) GLOBAL_UNIT_ASSIGNED_CONTEXT ( ( #569, #491, #714 ) ) REPRESENTATION_CONTEXT ( 'NONE', 'WORKASPACE' ) );
#211 = CIRCLE ( 'NONE', #415, 1.749999999999991118 ) ;
#212 = ORIENTED_EDGE ( 'NONE', *, *, #761, .F. ) ;
#213 = ORIENTED_EDGE ( 'NONE', *, *, #689, .T. ) ;
#214 = DIRECTION ( 'NONE',  ( 0.7071067811865470176, 0.7071067811865480168, -0.000000000000000000 ) ) ;
#215 = DIRECTION ( 'NONE',  ( 3.174552547521865467E-16, 1.000000000000000000, -0.000000000000000000 ) ) ;
#216 = DIRECTION ( 'NONE',  ( -1.000000000000000000, 0.000000000000000000, 0.000000000000000000 ) ) ;
#217 = EDGE_LOOP ( 'NONE', ( #639, #19, #103, #432 ) ) ;
#218 = DIRECTION ( 'NONE',  ( -0.000000000000000000, -0.000000000000000000, -1.000000000000000000 ) ) ;
#219 = LINE ( 'NONE', #523, #918 ) ;
#220 = PLANE ( 'NONE',  #148 ) ;
#221 = CARTESIAN_POINT ( 'NONE',  ( 34.74999999999997158, -13.50000000000005329, 3.000000000000000000 ) ) ;
#222 = ORIENTED_EDGE ( 'NONE', *, *, #727, .T. ) ;
#223 = CARTESIAN_POINT ( 'NONE',  ( -34.89999999999999147, 10.92893218813452805, 3.000000000000000000 ) ) ;
#224 = DIRECTION ( 'NONE',  ( -1.000000000000000000, 0.000000000000000000, 0.000000000000000000 ) ) ;
#225 = AXIS2_PLACEMENT_3D ( 'NONE', #342, #737, #62 ) ;
#226 = VECTOR ( 'NONE', #794, 1000.000000000000000 ) ;
#227 = VECTOR ( 'NONE', #33, 1000.000000000000000 ) ;
#228 = ORIENTED_EDGE ( 'NONE', *, *, #501, .F. ) ;
#229 = PLANE ( 'NONE',  #72 ) ;
#230 = DIRECTION ( 'NONE',  ( -0.000000000000000000, -0.000000000000000000, -1.000000000000000000 ) ) ;
#231 = EDGE_CURVE ( 'NONE', #835, #434, #240, .T. ) ;
#232 = EDGE_LOOP ( 'NONE', ( #861, #626 ) ) ;
#233 = EDGE_CURVE ( 'NONE', #63, #913, #253, .T. ) ;
#234 = CARTESIAN_POINT ( 'NONE',  ( -32.82893218813451597, 13.00000000000000711, 3.000000000000000000 ) ) ;
#235 = FACE_OUTER_BOUND ( 'NONE', #394, .T. ) ;
#236 = CARTESIAN_POINT ( 'NONE',  ( 38.43553390593273633, -14.46446609406725692, 3.000000000000000000 ) ) ;
#237 = EDGE_LOOP ( 'NONE', ( #191, #379, #127, #614 ) ) ;
#238 = DIRECTION ( 'NONE',  ( 0.000000000000000000, 0.000000000000000000, 1.000000000000000000 ) ) ;
#239 = CYLINDRICAL_SURFACE ( 'NONE', #964, 4.999999999999997335 ) ;
#240 = CIRCLE ( 'NONE', #130, 4.999999999999997335 ) ;
#241 = DIRECTION ( 'NONE',  ( 0.000000000000000000, 0.000000000000000000, -1.000000000000000000 ) ) ;
#242 = AXIS2_PLACEMENT_3D ( 'NONE', #697, #22, #412 ) ;
#243 = ORIENTED_EDGE ( 'NONE', *, *, #772, .F. ) ;
#244 = DIRECTION ( 'NONE',  ( 1.000000000000000000, 0.000000000000000000, 0.000000000000000000 ) ) ;
#245 = FACE_BOUND ( 'NONE', #515, .T. ) ;
#246 = EDGE_CURVE ( 'NONE', #24, #37, #635, .T. ) ;
#247 = ORIENTED_EDGE ( 'NONE', *, *, #514, .F. ) ;
#248 = DIRECTION ( 'NONE',  ( -0.000000000000000000, -0.000000000000000000, -1.000000000000000000 ) ) ;
#249 = FACE_OUTER_BOUND ( 'NONE', #6, .T. ) ;
#250 = ADVANCED_FACE ( 'NONE', ( #393 ), #317, .F. ) ;
#251 = DIRECTION ( 'NONE',  ( 1.000000000000000000, -1.294569758191648388E-16, 0.000000000000000000 ) ) ;
#252 = EDGE_CURVE ( 'NONE', #471, #11, #776, .T. ) ;
#253 = LINE ( 'NONE', #848, #87 ) ;
#254 = VERTEX_POINT ( 'NONE', #915 ) ;
#255 = FACE_BOUND ( 'NONE', #284, .T. ) ;
#256 = CIRCLE ( 'NONE', #387, 10.00000000000000000 ) ;
#257 = AXIS2_PLACEMENT_3D ( 'NONE', #360, #133, #1 ) ;
#258 = ORIENTED_EDGE ( 'NONE', *, *, #408, .T. ) ;
#259 = CIRCLE ( 'NONE', #733, 10.00000000000000178 ) ;
#260 = CARTESIAN_POINT ( 'NONE',  ( -32.82893218813451597, 13.00000000000000711, 0.000000000000000000 ) ) ;
#261 = LINE ( 'NONE', #417, #272 ) ;
#262 = EDGE_CURVE ( 'NONE', #728, #734, #683, .T. ) ;
#263 = ORIENTED_EDGE ( 'NONE', *, *, #689, .F. ) ;
#264 = EDGE_CURVE ( 'NONE', #88, #11, #746, .T. ) ;
#265 = CARTESIAN_POINT ( 'NONE',  ( -30.75786437626904046, -17.99999999999999645, 3.000000000000000000 ) ) ;
#266 = CARTESIAN_POINT ( 'NONE',  ( -31.24999999999999645, -13.50000000000000178, 0.000000000000000000 ) ) ;
#267 = EDGE_LOOP ( 'NONE', ( #336, #504 ) ) ;
#268 = CARTESIAN_POINT ( 'NONE',  ( -31.24999999999999645, -13.50000000000000178, 3.000000000000000000 ) ) ;
#269 = CYLINDRICAL_SURFACE ( 'NONE', #71, 10.00000000000000000 ) ;
#270 = ORIENTED_EDGE ( 'NONE', *, *, #264, .F. ) ;
#271 = ORIENTED_EDGE ( 'NONE', *, *, #279, .F. ) ;
#272 = VECTOR ( 'NONE', #866, 1000.000000000000000 ) ;
#273 = DIRECTION ( 'NONE',  ( -1.000000000000000000, 0.000000000000000000, 0.000000000000000000 ) ) ;
#274 = CIRCLE ( 'NONE', #335, 1.749999999999980682 ) ;
#275 = DIRECTION ( 'NONE',  ( 1.000000000000000000, 0.000000000000000000, 0.000000000000000000 ) ) ;
#276 = ORIENTED_EDGE ( 'NONE', *, *, #804, .T. ) ;
#277 = ORIENTED_EDGE ( 'NONE', *, *, #772, .T. ) ;
#278 = DIRECTION ( 'NONE',  ( 1.000000000000000000, 0.000000000000000000, 0.000000000000000000 ) ) ;
#279 = EDGE_CURVE ( 'NONE', #734, #693, #470, .T. ) ;
#280 = VERTEX_POINT ( 'NONE', #928 ) ;
#281 = ORIENTED_EDGE ( 'NONE', *, *, #80, .F. ) ;
#282 = CARTESIAN_POINT ( 'NONE',  ( -33.00000000000000000, -13.50000000000000178, 3.000000000000000000 ) ) ;
#283 = UNCERTAINTY_MEASURE_WITH_UNIT (LENGTH_MEASURE( 1.000000000000000082E-05 ), #569, 'distance_accuracy_value', 'NONE');
#284 = EDGE_LOOP ( 'NONE', ( #526, #2 ) ) ;
#285 = EDGE_LOOP ( 'NONE', ( #302, #263, #957, #875 ) ) ;
#286 = LINE ( 'NONE', #966, #691 ) ;
#287 = CIRCLE ( 'NONE', #782, 4.999999999999997335 ) ;
#288 = AXIS2_PLACEMENT_3D ( 'NONE', #44, #880, #273 ) ;
#289 = VECTOR ( 'NONE', #316, 1000.000000000000000 ) ;
#290 = CARTESIAN_POINT ( 'NONE',  ( -37.82893218813451597, -15.07106781186547018, 3.000000000000000000 ) ) ;
#291 = VECTOR ( 'NONE', #900, 1000.000000000000000 ) ;
#292 = DIRECTION ( 'NONE',  ( 0.7071067811865470176, 0.7071067811865480168, -0.000000000000000000 ) ) ;
#293 = VERTEX_POINT ( 'NONE', #572 ) ;
#294 = CARTESIAN_POINT ( 'NONE',  ( -32.82893218813451597, 13.00000000000000711, 3.000000000000000000 ) ) ;
#295 = EDGE_CURVE ( 'NONE', #741, #953, #45, .T. ) ;
#296 = DIRECTION ( 'NONE',  ( -1.000000000000000000, 0.000000000000000000, 0.000000000000000000 ) ) ;
#297 = FACE_BOUND ( 'NONE', #600, .T. ) ;
#298 = CARTESIAN_POINT ( 'NONE',  ( -36.36446609406725372, 16.53553390593274486, 0.000000000000000000 ) ) ;
#299 = ORIENTED_EDGE ( 'NONE', *, *, #650, .F. ) ;
#300 = CYLINDRICAL_SURFACE ( 'NONE', #486, 4.999999999999997335 ) ;
#301 = DIRECTION ( 'NONE',  ( 0.000000000000000000, 0.000000000000000000, 1.000000000000000000 ) ) ;
#302 = ORIENTED_EDGE ( 'NONE', *, *, #365, .T. ) ;
#303 = CARTESIAN_POINT ( 'NONE',  ( 8.099999999999996092, -18.00000000000000000, 3.000000000000000000 ) ) ;
#304 = AXIS2_PLACEMENT_3D ( 'NONE', #780, #914, #183 ) ;
#305 = VECTOR ( 'NONE', #112, 1000.000000000000114 ) ;
#306 = EDGE_CURVE ( 'NONE', #722, #24, #261, .T. ) ;
#307 = AXIS2_PLACEMENT_3D ( 'NONE', #441, #586, #204 ) ;
#308 = EDGE_CURVE ( 'NONE', #409, #358, #917, .T. ) ;
#309 = CARTESIAN_POINT ( 'NONE',  ( 37.82893218813453018, -15.07106781186546840, 3.000000000000000000 ) ) ;
#310 = VERTEX_POINT ( 'NONE', #41 ) ;
#311 = CARTESIAN_POINT ( 'NONE',  ( -39.89999999999999147, -10.92893218813451561, 0.000000000000000000 ) ) ;
#312 = CARTESIAN_POINT ( 'NONE',  ( -33.00000000000000000, -13.50000000000000178, 3.000000000000000000 ) ) ;
#313 = DIRECTION ( 'NONE',  ( 0.000000000000000000, 0.000000000000000000, 1.000000000000000000 ) ) ;
#314 = DIRECTION ( 'NONE',  ( -1.000000000000000000, 0.000000000000000000, 0.000000000000000000 ) ) ;
#315 = ORIENTED_EDGE ( 'NONE', *, *, #147, .F. ) ;
#316 = DIRECTION ( 'NONE',  ( -0.000000000000000000, -0.000000000000000000, -1.000000000000000000 ) ) ;
#317 = CYLINDRICAL_SURFACE ( 'NONE', #370, 1.749999999999991118 ) ;
#318 = ORIENTED_EDGE ( 'NONE', *, *, #718, .F. ) ;
#319 = CARTESIAN_POINT ( 'NONE',  ( -32.82893218813451597, 18.00000000000000711, 0.000000000000000000 ) ) ;
#320 = AXIS2_PLACEMENT_3D ( 'NONE', #438, #508, #816 ) ;
#321 = AXIS2_PLACEMENT_3D ( 'NONE', #545, #528, #901 ) ;
#322 = PRODUCT_DEFINITION_SHAPE ( 'NONE', 'NONE',  #921 ) ;
#323 = EDGE_LOOP ( 'NONE', ( #958, #222, #936, #493 ) ) ;
#324 = ORIENTED_EDGE ( 'NONE', *, *, #529, .T. ) ;
#325 = CARTESIAN_POINT ( 'NONE',  ( 34.74999999999997158, -13.50000000000005329, 0.000000000000000000 ) ) ;
#326 = ADVANCED_FACE ( 'NONE', ( #341 ), #119, .F. ) ;
#327 = ORIENTED_EDGE ( 'NONE', *, *, #407, .F. ) ;
#328 = DIRECTION ( 'NONE',  ( 1.000000000000000000, 0.000000000000000000, 0.000000000000000000 ) ) ;
#329 = FILL_AREA_STYLE ('',( #636 ) ) ;
#330 = VERTEX_POINT ( 'NONE', #863 ) ;
#331 = LINE ( 'NONE', #319, #781 ) ;
#332 = MANIFOLD_SOLID_BREP ( 'Fillet1', #931 ) ;
#333 = ORIENTED_EDGE ( 'NONE', *, *, #102, .F. ) ;
#334 = CIRCLE ( 'NONE', #885, 1.750000000000001554 ) ;
#335 = AXIS2_PLACEMENT_3D ( 'NONE', #65, #519, #608 ) ;
#336 = ORIENTED_EDGE ( 'NONE', *, *, #107, .F. ) ;
#337 = DIRECTION ( 'NONE',  ( -0.000000000000000000, -0.000000000000000000, -1.000000000000000000 ) ) ;
#338 = ORIENTED_EDGE ( 'NONE', *, *, #426, .F. ) ;
#339 = ADVANCED_FACE ( 'NONE', ( #646 ), #269, .F. ) ;
#340 = CARTESIAN_POINT ( 'NONE',  ( 36.36446609406726793, 16.53553390593273775, 3.000000000000000000 ) ) ;
#341 = FACE_OUTER_BOUND ( 'NONE', #59, .T. ) ;
#342 = CARTESIAN_POINT ( 'NONE',  ( 30.75786437626905112, -8.000000000000001776, 3.000000000000000000 ) ) ;
#343 = ORIENTED_EDGE ( 'NONE', *, *, #77, .F. ) ;
#344 = CARTESIAN_POINT ( 'NONE',  ( -32.82893218813451597, 13.00000000000000711, 0.000000000000000000 ) ) ;
#345 = SURFACE_STYLE_USAGE ( .BOTH. , #122 ) ;
#346 = CARTESIAN_POINT ( 'NONE',  ( 31.24999999999998224, -13.50000000000005329, 3.000000000000000000 ) ) ;
#347 = VERTEX_POINT ( 'NONE', #266 ) ;
#348 = CIRCLE ( 'NONE', #225, 9.999999999999998224 ) ;
#349 = ORIENTED_EDGE ( 'NONE', *, *, #262, .F. ) ;
#350 = DIRECTION ( 'NONE',  ( 0.000000000000000000, 0.000000000000000000, 1.000000000000000000 ) ) ;
#351 = EDGE_CURVE ( 'NONE', #487, #693, #495, .T. ) ;
#352 = VECTOR ( 'NONE', #132, 1000.000000000000000 ) ;
#353 = AXIS2_PLACEMENT_3D ( 'NONE', #260, #397, #478 ) ;
#354 = EDGE_CURVE ( 'NONE', #953, #167, #287, .T. ) ;
#355 = CIRCLE ( 'NONE', #908, 4.999999999999997335 ) ;
#356 = EDGE_CURVE ( 'NONE', #587, #788, #497, .T. ) ;
#357 = CARTESIAN_POINT ( 'NONE',  ( 36.36446609406726793, 16.53553390593273775, 0.000000000000000000 ) ) ;
#358 = VERTEX_POINT ( 'NONE', #31 ) ;
#359 = CARTESIAN_POINT ( 'NONE',  ( -34.89999999999999147, 10.92893218813452805, 3.000000000000000000 ) ) ;
#360 = CARTESIAN_POINT ( 'NONE',  ( -33.00000000000000000, -13.50000000000000178, 3.000000000000000000 ) ) ;
#361 = ORIENTED_EDGE ( 'NONE', *, *, #80, .T. ) ;
#362 = ORIENTED_EDGE ( 'NONE', *, *, #351, .F. ) ;
#363 = CARTESIAN_POINT ( 'NONE',  ( 39.90000000000000568, 10.92893218813450673, 3.000000000000000000 ) ) ;
#364 = CARTESIAN_POINT ( 'NONE',  ( -34.75000000000000000, -13.50000000000000178, 3.000000000000000000 ) ) ;
#365 = EDGE_CURVE ( 'NONE', #310, #538, #846, .T. ) ;
#366 = CARTESIAN_POINT ( 'NONE',  ( 32.82893218813453728, 18.00000000000000000, 0.000000000000000000 ) ) ;
#367 = EDGE_CURVE ( 'NONE', #693, #904, #453, .T. ) ;
#368 = ORIENTED_EDGE ( 'NONE', *, *, #246, .F. ) ;
#369 = DIRECTION ( 'NONE',  ( -1.056826013124967889E-16, -1.000000000000000000, 0.000000000000000000 ) ) ;
#370 = AXIS2_PLACEMENT_3D ( 'NONE', #399, #479, #314 ) ;
#371 = DIRECTION ( 'NONE',  ( -1.000000000000000000, 0.000000000000000000, 0.000000000000000000 ) ) ;
#372 = AXIS2_PLACEMENT_3D ( 'NONE', #744, #810, #679 ) ;
#373 = AXIS2_PLACEMENT_3D ( 'NONE', #607, #743, #224 ) ;
#374 = ORIENTED_EDGE ( 'NONE', *, *, #442, .T. ) ;
#375 = FACE_OUTER_BOUND ( 'NONE', #449, .T. ) ;
#376 = EDGE_CURVE ( 'NONE', #280, #591, #274, .T. ) ;
#377 = CARTESIAN_POINT ( 'NONE',  ( 10.00000000000000000, 1.224646799147353256E-15, 3.000000000000000000 ) ) ;
#378 = CARTESIAN_POINT ( 'NONE',  ( -38.43553390593272923, 14.46446609406726225, 3.000000000000000000 ) ) ;
#379 = ORIENTED_EDGE ( 'NONE', *, *, #367, .T. ) ;
#380 = CARTESIAN_POINT ( 'NONE',  ( 38.43553390593274344, 14.46446609406725869, 0.000000000000000000 ) ) ;
#381 = CARTESIAN_POINT ( 'NONE',  ( 36.36446609406726793, 16.53553390593273775, 0.000000000000000000 ) ) ;
#382 = DIRECTION ( 'NONE',  ( 1.000000000000000000, 0.000000000000000000, -0.000000000000000000 ) ) ;
#383 = EDGE_LOOP ( 'NONE', ( #52, #212, #813, #439 ) ) ;
#384 = DIRECTION ( 'NONE',  ( -1.000000000000000000, 0.000000000000000000, 0.000000000000000000 ) ) ;
#385 = EDGE_CURVE ( 'NONE', #680, #711, #499, .T. ) ;
#386 = CYLINDRICAL_SURFACE ( 'NONE', #452, 1.749999999999991118 ) ;
#387 = AXIS2_PLACEMENT_3D ( 'NONE', #29, #490, #328 ) ;
#388 = LINE ( 'NONE', #158, #55 ) ;
#389 = VECTOR ( 'NONE', #645, 1000.000000000000000 ) ;
#390 = PRESENTATION_LAYER_ASSIGNMENT (  '', '', ( #164 ) ) ;
#391 = ORIENTED_EDGE ( 'NONE', *, *, #761, .T. ) ;
#392 = LINE ( 'NONE', #673, #289 ) ;
#393 = FACE_OUTER_BOUND ( 'NONE', #695, .T. ) ;
#394 = EDGE_LOOP ( 'NONE', ( #281, #410, #457, #151 ) ) ;
#395 = DIRECTION ( 'NONE',  ( -3.174552547521865467E-16, -1.000000000000000000, 0.000000000000000000 ) ) ;
#396 = ORIENTED_EDGE ( 'NONE', *, *, #385, .F. ) ;
#397 = DIRECTION ( 'NONE',  ( 0.000000000000000000, 0.000000000000000000, 1.000000000000000000 ) ) ;
#398 = CIRCLE ( 'NONE', #902, 4.999999999999997335 ) ;
#399 = CARTESIAN_POINT ( 'NONE',  ( 32.99999999999997158, -13.50000000000005329, 3.000000000000000000 ) ) ;
#400 = AXIS2_PLACEMENT_3D ( 'NONE', #725, #275, #934 ) ;
#401 = ORIENTED_EDGE ( 'NONE', *, *, #944, .T. ) ;
#402 = APPLICATION_PROTOCOL_DEFINITION ( 'draft international standard', 'automotive_design', 1998, #659 ) ;
#403 = DIRECTION ( 'NONE',  ( -0.000000000000000000, -0.000000000000000000, -1.000000000000000000 ) ) ;
#404 = PRESENTATION_STYLE_ASSIGNMENT (( #345 ) ) ;
#405 = ORIENTED_EDGE ( 'NONE', *, *, #418, .T. ) ;
#406 = DIRECTION ( 'NONE',  ( 1.000000000000000000, 0.000000000000000000, -0.000000000000000000 ) ) ;
#407 = EDGE_CURVE ( 'NONE', #170, #567, #668, .T. ) ;
#408 = EDGE_CURVE ( 'NONE', #648, #740, #89, .T. ) ;
#409 = VERTEX_POINT ( 'NONE', #76 ) ;
#410 = ORIENTED_EDGE ( 'NONE', *, *, #262, .T. ) ;
#411 = DIRECTION ( 'NONE',  ( -0.000000000000000000, -0.000000000000000000, -1.000000000000000000 ) ) ;
#412 = DIRECTION ( 'NONE',  ( 1.000000000000000000, 0.000000000000000000, 0.000000000000000000 ) ) ;
#413 = VECTOR ( 'NONE', #248, 1000.000000000000000 ) ;
#414 = ORIENTED_EDGE ( 'NONE', *, *, #233, .F. ) ;
#415 = AXIS2_PLACEMENT_3D ( 'NONE', #459, #91, #371 ) ;
#416 = DIRECTION ( 'NONE',  ( -1.000000000000000000, 0.000000000000000000, 0.000000000000000000 ) ) ;
#417 = CARTESIAN_POINT ( 'NONE',  ( 36.36446609406726793, 16.53553390593273775, 3.000000000000000000 ) ) ;
#418 = EDGE_CURVE ( 'NONE', #740, #876, #897, .T. ) ;
#419 = DIRECTION ( 'NONE',  ( 0.000000000000000000, 0.000000000000000000, 1.000000000000000000 ) ) ;
#420 = LINE ( 'NONE', #690, #23 ) ;
#421 = VERTEX_POINT ( 'NONE', #364 ) ;
#422 = DIRECTION ( 'NONE',  ( 1.000000000000000000, 0.000000000000000000, 0.000000000000000000 ) ) ;
#423 = CARTESIAN_POINT ( 'NONE',  ( -32.82893218813451597, 18.00000000000000711, 3.000000000000000000 ) ) ;
#424 = EDGE_CURVE ( 'NONE', #913, #656, #194, .T. ) ;
#425 = ORIENTED_EDGE ( 'NONE', *, *, #93, .F. ) ;
#426 = EDGE_CURVE ( 'NONE', #82, #409, #61, .T. ) ;
#427 = ORIENTED_EDGE ( 'NONE', *, *, #745, .T. ) ;
#428 = CARTESIAN_POINT ( 'NONE',  ( 30.75786437626905112, -18.00000000000000355, 0.000000000000000000 ) ) ;
#429 = ADVANCED_FACE ( 'NONE', ( #598, #820, #447, #969, #297, #604 ), #220, .T. ) ;
#430 = DIRECTION ( 'NONE',  ( 0.000000000000000000, 0.000000000000000000, 1.000000000000000000 ) ) ;
#431 = CARTESIAN_POINT ( 'NONE',  ( -34.89999999999999147, -17.99999999999999289, 3.000000000000000000 ) ) ;
#432 = ORIENTED_EDGE ( 'NONE', *, *, #306, .T. ) ;
#433 = VECTOR ( 'NONE', #511, 1000.000000000000000 ) ;
#434 = VERTEX_POINT ( 'NONE', #15 ) ;
#435 = DIRECTION ( 'NONE',  ( -0.000000000000000000, -0.000000000000000000, -1.000000000000000000 ) ) ;
#436 = VECTOR ( 'NONE', #664, 1000.000000000000000 ) ;
#437 = CARTESIAN_POINT ( 'NONE',  ( -34.89999999999999147, -10.92893218813451384, 3.000000000000000000 ) ) ;
#438 = CARTESIAN_POINT ( 'NONE',  ( 32.82893218813453018, 13.00000000000000000, 3.000000000000000000 ) ) ;
#439 = ORIENTED_EDGE ( 'NONE', *, *, #890, .T. ) ;
#440 = DIRECTION ( 'NONE',  ( -1.000000000000000000, 0.000000000000000000, 0.000000000000000000 ) ) ;
#441 = CARTESIAN_POINT ( 'NONE',  ( 0.000000000000000000, 0.000000000000000000, 0.000000000000000000 ) ) ;
#442 = EDGE_CURVE ( 'NONE', #358, #904, #173, .T. ) ;
#443 = ORIENTED_EDGE ( 'NONE', *, *, #279, .T. ) ;
#444 = ORIENTED_EDGE ( 'NONE', *, *, #473, .F. ) ;
#445 = DIRECTION ( 'NONE',  ( 1.000000000000000000, -1.056826013124967889E-16, 0.000000000000000000 ) ) ;
#446 = CYLINDRICAL_SURFACE ( 'NONE', #373, 4.999999999999997335 ) ;
#447 = FACE_OUTER_BOUND ( 'NONE', #854, .T. ) ;
#448 = DIRECTION ( 'NONE',  ( 0.000000000000000000, 0.000000000000000000, 1.000000000000000000 ) ) ;
#449 = EDGE_LOOP ( 'NONE', ( #784, #712, #557, #887 ) ) ;
#450 = CARTESIAN_POINT ( 'NONE',  ( -32.82893218813451597, 18.00000000000000711, 0.000000000000000000 ) ) ;
#451 = DIRECTION ( 'NONE',  ( -0.7071067811865479058, 0.7071067811865472397, -0.000000000000000000 ) ) ;
#452 = AXIS2_PLACEMENT_3D ( 'NONE', #968, #141, #154 ) ;
#453 = LINE ( 'NONE', #753, #166 ) ;
#454 = AXIS2_PLACEMENT_3D ( 'NONE', #144, #742, #384 ) ;
#455 = DIRECTION ( 'NONE',  ( -0.000000000000000000, -0.000000000000000000, -1.000000000000000000 ) ) ;
#456 = EDGE_CURVE ( 'NONE', #950, #24, #819, .T. ) ;
#457 = ORIENTED_EDGE ( 'NONE', *, *, #869, .T. ) ;
#458 = CARTESIAN_POINT ( 'NONE',  ( -34.57893218813451597, 13.00000000000000711, 0.000000000000000000 ) ) ;
#459 = CARTESIAN_POINT ( 'NONE',  ( 32.99999999999997158, -13.50000000000005329, 0.000000000000000000 ) ) ;
#460 = ADVANCED_FACE ( 'NONE', ( #468 ), #752, .F. ) ;
#461 = ORIENTED_EDGE ( 'NONE', *, *, #308, .F. ) ;
#462 = PLANE ( 'NONE',  #796 ) ;
#463 = CARTESIAN_POINT ( 'NONE',  ( -32.82893218813451597, 13.00000000000000711, 3.000000000000000000 ) ) ;
#464 = DIRECTION ( 'NONE',  ( 0.000000000000000000, 0.000000000000000000, 1.000000000000000000 ) ) ;
#465 = DIRECTION ( 'NONE',  ( 1.000000000000000000, 0.000000000000000000, 0.000000000000000000 ) ) ;
#466 = ORIENTED_EDGE ( 'NONE', *, *, #252, .F. ) ;
#467 = DIRECTION ( 'NONE',  ( -1.000000000000000000, 0.000000000000000000, 0.000000000000000000 ) ) ;
#468 = FACE_OUTER_BOUND ( 'NONE', #665, .T. ) ;
#469 = CIRCLE ( 'NONE', #593, 10.00000000000000000 ) ;
#470 = CIRCLE ( 'NONE', #242, 9.999999999999998224 ) ;
#471 = VERTEX_POINT ( 'NONE', #891 ) ;
#472 = CARTESIAN_POINT ( 'NONE',  ( 39.90000000000000568, 10.92893218813450851, 3.000000000000000000 ) ) ;
#473 = EDGE_CURVE ( 'NONE', #567, #330, #211, .T. ) ;
#474 = EDGE_CURVE ( 'NONE', #591, #788, #392, .T. ) ;
#475 = DIRECTION ( 'NONE',  ( 0.000000000000000000, 0.000000000000000000, 1.000000000000000000 ) ) ;
#476 = ORIENTED_EDGE ( 'NONE', *, *, #407, .T. ) ;
#477 = PRODUCT ( 'camera_cover', 'camera_cover', '', ( #90 ) ) ;
#478 = DIRECTION ( 'NONE',  ( 1.000000000000000000, 0.000000000000000000, 0.000000000000000000 ) ) ;
#479 = DIRECTION ( 'NONE',  ( -0.000000000000000000, -0.000000000000000000, -1.000000000000000000 ) ) ;
#480 = ORIENTED_EDGE ( 'NONE', *, *, #956, .T. ) ;
#481 = DIRECTION ( 'NONE',  ( 0.000000000000000000, 0.000000000000000000, -1.000000000000000000 ) ) ;
#482 = VECTOR ( 'NONE', #578, 1000.000000000000114 ) ;
#483 = EDGE_CURVE ( 'NONE', #73, #347, #873, .T. ) ;
#484 = ORIENTED_EDGE ( 'NONE', *, *, #909, .F. ) ;
#485 = AXIS2_PLACEMENT_3D ( 'NONE', #359, #868, #422 ) ;
#486 = AXIS2_PLACEMENT_3D ( 'NONE', #223, #533, #7 ) ;
#487 = VERTEX_POINT ( 'NONE', #5 ) ;
#488 = PLANE ( 'NONE',  #870 ) ;
#489 = EDGE_LOOP ( 'NONE', ( #277, #509 ) ) ;
#490 = DIRECTION ( 'NONE',  ( 0.000000000000000000, 0.000000000000000000, 1.000000000000000000 ) ) ;
#491 =( NAMED_UNIT ( * ) PLANE_ANGLE_UNIT ( ) SI_UNIT ( $, .RADIAN. ) );
#492 = ADVANCED_BREP_SHAPE_REPRESENTATION ( 'camera_cover', ( #332, #168 ), #118 ) ;
#493 = ORIENTED_EDGE ( 'NONE', *, *, #944, .F. ) ;
#494 = DIRECTION ( 'NONE',  ( -1.000000000000000000, 0.000000000000000000, 0.000000000000000000 ) ) ;
#495 = LINE ( 'NONE', #707, #226 ) ;
#496 = VECTOR ( 'NONE', #613, 1000.000000000000114 ) ;
#497 = CIRCLE ( 'NONE', #625, 1.749999999999980682 ) ;
#498 = CARTESIAN_POINT ( 'NONE',  ( -34.75000000000000000, -13.50000000000000178, 0.000000000000000000 ) ) ;
#499 = CIRCLE ( 'NONE', #595, 4.999999999999997335 ) ;
#500 = CYLINDRICAL_SURFACE ( 'NONE', #39, 1.749999999999980682 ) ;
#501 = EDGE_CURVE ( 'NONE', #740, #648, #671, .T. ) ;
#502 = CARTESIAN_POINT ( 'NONE',  ( 32.82893218813453018, 13.00000000000000000, 0.000000000000000000 ) ) ;
#503 = ADVANCED_FACE ( 'NONE', ( #145 ), #760, .T. ) ;
#504 = ORIENTED_EDGE ( 'NONE', *, *, #779, .F. ) ;
#505 = ADVANCED_FACE ( 'NONE', ( #832 ), #386, .F. ) ;
#506 = ORIENTED_EDGE ( 'NONE', *, *, #540, .F. ) ;
#507 = FACE_OUTER_BOUND ( 'NONE', #942, .T. ) ;
#508 = DIRECTION ( 'NONE',  ( -0.000000000000000000, -0.000000000000000000, -1.000000000000000000 ) ) ;
#509 = ORIENTED_EDGE ( 'NONE', *, *, #588, .T. ) ;
#510 = PLANE ( 'NONE',  #57 ) ;
#511 = DIRECTION ( 'NONE',  ( 3.174552547521865467E-16, 1.000000000000000000, -0.000000000000000000 ) ) ;
#512 = DIRECTION ( 'NONE',  ( -1.000000000000000000, 0.000000000000000000, 0.000000000000000000 ) ) ;
#513 = VECTOR ( 'NONE', #455, 1000.000000000000000 ) ;
#514 = EDGE_CURVE ( 'NONE', #800, #656, #69, .T. ) ;
#515 = EDGE_LOOP ( 'NONE', ( #723, #605 ) ) ;
#516 = CYLINDRICAL_SURFACE ( 'NONE', #961, 10.00000000000000000 ) ;
#517 = VECTOR ( 'NONE', #524, 1000.000000000000000 ) ;
#518 = ADVANCED_FACE ( 'NONE', ( #757 ), #14, .F. ) ;
#519 = DIRECTION ( 'NONE',  ( 0.000000000000000000, 0.000000000000000000, 1.000000000000000000 ) ) ;
#520 = EDGE_LOOP ( 'NONE', ( #196, #532 ) ) ;
#521 = ORIENTED_EDGE ( 'NONE', *, *, #34, .F. ) ;
#522 = LINE ( 'NONE', #311, #150 ) ;
#523 = CARTESIAN_POINT ( 'NONE',  ( -39.89999999999999147, -10.92893218813451561, 3.000000000000000000 ) ) ;
#524 = DIRECTION ( 'NONE',  ( -0.000000000000000000, -0.000000000000000000, -1.000000000000000000 ) ) ;
#525 = CARTESIAN_POINT ( 'NONE',  ( -38.43553390593272923, 14.46446609406726225, 0.000000000000000000 ) ) ;
#526 = ORIENTED_EDGE ( 'NONE', *, *, #92, .T. ) ;
#527 = DIRECTION ( 'NONE',  ( -1.000000000000000000, 0.000000000000000000, 0.000000000000000000 ) ) ;
#528 = DIRECTION ( 'NONE',  ( -0.000000000000000000, -0.000000000000000000, -1.000000000000000000 ) ) ;
#529 = EDGE_CURVE ( 'NONE', #680, #841, #219, .T. ) ;
#530 = LINE ( 'NONE', #825, #513 ) ;
#531 = APPLICATION_CONTEXT ( 'automotive_design' ) ;
#532 = ORIENTED_EDGE ( 'NONE', *, *, #853, .T. ) ;
#533 = DIRECTION ( 'NONE',  ( -0.000000000000000000, -0.000000000000000000, -1.000000000000000000 ) ) ;
#534 = CARTESIAN_POINT ( 'NONE',  ( 38.43553390593273633, -14.46446609406725869, 3.000000000000000000 ) ) ;
#535 = AXIS2_PLACEMENT_3D ( 'NONE', #184, #142, #736 ) ;
#536 = DIRECTION ( 'NONE',  ( -0.000000000000000000, -0.000000000000000000, 1.000000000000000000 ) ) ;
#537 = EDGE_CURVE ( 'NONE', #347, #73, #25, .T. ) ;
#538 = VERTEX_POINT ( 'NONE', #678 ) ;
#539 =( LENGTH_UNIT ( ) NAMED_UNIT ( * ) SI_UNIT ( .MILLI., .METRE. ) );
#540 = EDGE_CURVE ( 'NONE', #538, #48, #81, .T. ) ;
#541 = CARTESIAN_POINT ( 'NONE',  ( 32.99999999999997158, -13.50000000000005329, 3.000000000000000000 ) ) ;
#542 = DIRECTION ( 'NONE',  ( 0.000000000000000000, 0.000000000000000000, 1.000000000000000000 ) ) ;
#543 = ORIENTED_EDGE ( 'NONE', *, *, #98, .T. ) ;
#544 = CARTESIAN_POINT ( 'NONE',  ( -32.82893218813451597, 18.00000000000000711, 3.000000000000000000 ) ) ;
#545 = CARTESIAN_POINT ( 'NONE',  ( 34.90000000000000568, 10.92893218813451561, 3.000000000000000000 ) ) ;
#546 = ORIENTED_EDGE ( 'NONE', *, *, #804, .F. ) ;
#547 = DIRECTION ( 'NONE',  ( -1.000000000000000000, 0.000000000000000000, 0.000000000000000000 ) ) ;
#548 = AXIS2_PLACEMENT_3D ( 'NONE', #121, #735, #574 ) ;
#549 = VECTOR ( 'NONE', #701, 1000.000000000000000 ) ;
#550 = AXIS2_PLACEMENT_3D ( 'NONE', #294, #818, #823 ) ;
#551 = ORIENTED_EDGE ( 'NONE', *, *, #34, .T. ) ;
#552 = DIRECTION ( 'NONE',  ( -0.000000000000000000, -0.000000000000000000, -1.000000000000000000 ) ) ;
#553 = LINE ( 'NONE', #709, #227 ) ;
#554 = ADVANCED_FACE ( 'NONE', ( #18 ), #446, .T. ) ;
#555 = VERTEX_POINT ( 'NONE', #682 ) ;
#556 =( NAMED_UNIT ( * ) PLANE_ANGLE_UNIT ( ) SI_UNIT ( $, .RADIAN. ) );
#557 = ORIENTED_EDGE ( 'NONE', *, *, #718, .T. ) ;
#558 = CARTESIAN_POINT ( 'NONE',  ( -34.89999999999999147, -17.99999999999999289, 3.000000000000000000 ) ) ;
#559 = EDGE_CURVE ( 'NONE', #609, #170, #54, .T. ) ;
#560 = DIRECTION ( 'NONE',  ( -0.000000000000000000, -0.000000000000000000, -1.000000000000000000 ) ) ;
#561 = EDGE_LOOP ( 'NONE', ( #461, #338, #666, #941 ) ) ;
#562 = SHAPE_DEFINITION_REPRESENTATION ( #322, #492 ) ;
#563 = FACE_BOUND ( 'NONE', #520, .T. ) ;
#564 = CIRCLE ( 'NONE', #580, 1.749999999999991118 ) ;
#565 = AXIS2_PLACEMENT_3D ( 'NONE', #109, #786, #710 ) ;
#566 = ADVANCED_FACE ( 'NONE', ( #235 ), #229, .F. ) ;
#567 = VERTEX_POINT ( 'NONE', #325 ) ;
#568 = DIRECTION ( 'NONE',  ( -1.000000000000000000, 3.174552547521865467E-16, 0.000000000000000000 ) ) ;
#569 =( LENGTH_UNIT ( ) NAMED_UNIT ( * ) SI_UNIT ( .MILLI., .METRE. ) );
#570 = EDGE_LOOP ( 'NONE', ( #949, #807 ) ) ;
#571 = CARTESIAN_POINT ( 'NONE',  ( 37.82893218813453018, -15.07106781186546840, 3.000000000000000000 ) ) ;
#572 = CARTESIAN_POINT ( 'NONE',  ( -31.07893218813451242, 13.00000000000000711, 0.000000000000000000 ) ) ;
#573 = DIRECTION ( 'NONE',  ( 1.000000000000000000, 0.000000000000000000, 0.000000000000000000 ) ) ;
#574 = DIRECTION ( 'NONE',  ( 0.7071067811865479058, -0.7071067811865472397, 0.000000000000000000 ) ) ;
#575 = ADVANCED_FACE ( 'NONE', ( #249 ), #847, .F. ) ;
#576 = CARTESIAN_POINT ( 'NONE',  ( -32.82893218813451597, 13.00000000000000711, 0.000000000000000000 ) ) ;
#577 = VECTOR ( 'NONE', #134, 1000.000000000000114 ) ;
#578 = DIRECTION ( 'NONE',  ( 0.7071067811865474617, -0.7071067811865474617, -0.000000000000000000 ) ) ;
#579 = ORIENTED_EDGE ( 'NONE', *, *, #779, .T. ) ;
#580 = AXIS2_PLACEMENT_3D ( 'NONE', #724, #582, #494 ) ;
#581 = ORIENTED_EDGE ( 'NONE', *, *, #588, .F. ) ;
#582 = DIRECTION ( 'NONE',  ( 0.000000000000000000, 0.000000000000000000, 1.000000000000000000 ) ) ;
#583 = ORIENTED_EDGE ( 'NONE', *, *, #663, .T. ) ;
#584 = ORIENTED_EDGE ( 'NONE', *, *, #295, .T. ) ;
#585 = LINE ( 'NONE', #793, #389 ) ;
#586 = DIRECTION ( 'NONE',  ( 0.000000000000000000, 0.000000000000000000, 1.000000000000000000 ) ) ;
#587 = VERTEX_POINT ( 'NONE', #862 ) ;
#588 = EDGE_CURVE ( 'NONE', #293, #876, #920, .T. ) ;
#589 = ORIENTED_EDGE ( 'NONE', *, *, #231, .F. ) ;
#590 = DIRECTION ( 'NONE',  ( -0.000000000000000000, -0.000000000000000000, -1.000000000000000000 ) ) ;
#591 = VERTEX_POINT ( 'NONE', #26 ) ;
#592 = ORIENTED_EDGE ( 'NONE', *, *, #365, .F. ) ;
#593 = AXIS2_PLACEMENT_3D ( 'NONE', #188, #350, #662 ) ;
#594 = CARTESIAN_POINT ( 'NONE',  ( -34.75000000000000000, -13.50000000000000178, 3.000000000000000000 ) ) ;
#595 = AXIS2_PLACEMENT_3D ( 'NONE', #437, #430, #674 ) ;
#596 = EDGE_CURVE ( 'NONE', #421, #705, #179, .T. ) ;
#597 = CIRCLE ( 'NONE', #550, 4.999999999999997335 ) ;
#598 = FACE_BOUND ( 'NONE', #570, .T. ) ;
#599 = CARTESIAN_POINT ( 'NONE',  ( -37.82893218813451597, -15.07106781186547018, 0.000000000000000000 ) ) ;
#600 = EDGE_LOOP ( 'NONE', ( #185, #123 ) ) ;
#601 = FACE_OUTER_BOUND ( 'NONE', #197, .T. ) ;
#602 = EDGE_CURVE ( 'NONE', #434, #950, #919, .T. ) ;
#603 = DIRECTION ( 'NONE',  ( -1.000000000000000000, 1.294569758191646909E-16, 0.000000000000000000 ) ) ;
#604 = FACE_BOUND ( 'NONE', #267, .T. ) ;
#605 = ORIENTED_EDGE ( 'NONE', *, *, #537, .T. ) ;
#606 = CYLINDRICAL_SURFACE ( 'NONE', #637, 1.749999999999980682 ) ;
#607 = CARTESIAN_POINT ( 'NONE',  ( 34.89999999999999858, -10.92893218813452272, 3.000000000000000000 ) ) ;
#608 = DIRECTION ( 'NONE',  ( -1.000000000000000000, 0.000000000000000000, 0.000000000000000000 ) ) ;
#609 = VERTEX_POINT ( 'NONE', #105 ) ;
#610 = AXIS2_PLACEMENT_3D ( 'NONE', #541, #301, #163 ) ;
#611 = CIRCLE ( 'NONE', #180, 10.00000000000000000 ) ;
#612 = DIRECTION ( 'NONE',  ( -0.000000000000000000, -0.000000000000000000, -1.000000000000000000 ) ) ;
#613 = DIRECTION ( 'NONE',  ( -0.7071067811865474617, -0.7071067811865474617, -0.000000000000000000 ) ) ;
#614 = ORIENTED_EDGE ( 'NONE', *, *, #692, .T. ) ;
#615 = DIRECTION ( 'NONE',  ( -0.000000000000000000, -1.000000000000000000, -0.000000000000000000 ) ) ;
#616 = DIRECTION ( 'NONE',  ( 1.294569758191646909E-16, 1.000000000000000000, -0.000000000000000000 ) ) ;
#617 = ADVANCED_FACE ( 'NONE', ( #186 ), #239, .T. ) ;
#618 = VERTEX_POINT ( 'NONE', #169 ) ;
#619 = ADVANCED_FACE ( 'NONE', ( #775 ), #38, .T. ) ;
#620 = CARTESIAN_POINT ( 'NONE',  ( -31.07893218813451242, 13.00000000000000711, 3.000000000000000000 ) ) ;
#621 = CARTESIAN_POINT ( 'NONE',  ( -39.89999999999999147, 10.92893218813452627, 3.000000000000000000 ) ) ;
#622 = ORIENTED_EDGE ( 'NONE', *, *, #149, .T. ) ;
#623 = VECTOR ( 'NONE', #552, 1000.000000000000000 ) ;
#624 = DIRECTION ( 'NONE',  ( -1.000000000000000000, 1.056826013124967889E-16, -0.000000000000000000 ) ) ;
#625 = AXIS2_PLACEMENT_3D ( 'NONE', #502, #199, #803 ) ;
#626 = ORIENTED_EDGE ( 'NONE', *, *, #745, .F. ) ;
#627 = ORIENTED_EDGE ( 'NONE', *, *, #529, .F. ) ;
#628 = FACE_OUTER_BOUND ( 'NONE', #143, .T. ) ;
#629 = ADVANCED_FACE ( 'NONE', ( #100 ), #488, .F. ) ;
#630 = ORIENTED_EDGE ( 'NONE', *, *, #107, .T. ) ;
#631 = FACE_OUTER_BOUND ( 'NONE', #787, .T. ) ;
#632 = ADVANCED_FACE ( 'NONE', ( #628 ), #925, .F. ) ;
#633 = ORIENTED_EDGE ( 'NONE', *, *, #602, .F. ) ;
#634 = LINE ( 'NONE', #172, #749 ) ;
#635 = CIRCLE ( 'NONE', #36, 4.999999999999997335 ) ;
#636 = FILL_AREA_STYLE_COLOUR ( '', #811 ) ;
#637 = AXIS2_PLACEMENT_3D ( 'NONE', #837, #830, #79 ) ;
#638 = VECTOR ( 'NONE', #251, 1000.000000000000000 ) ;
#639 = ORIENTED_EDGE ( 'NONE', *, *, #246, .T. ) ;
#640 = ORIENTED_EDGE ( 'NONE', *, *, #77, .T. ) ;
#641 = CARTESIAN_POINT ( 'NONE',  ( -31.24999999999999645, -13.50000000000000178, 3.000000000000000000 ) ) ;
#642 = DIRECTION ( 'NONE',  ( -0.000000000000000000, -0.000000000000000000, -1.000000000000000000 ) ) ;
#643 = VERTEX_POINT ( 'NONE', #706 ) ;
#644 = EDGE_CURVE ( 'NONE', #37, #953, #331, .T. ) ;
#645 = DIRECTION ( 'NONE',  ( -0.000000000000000000, -0.000000000000000000, -1.000000000000000000 ) ) ;
#646 = FACE_OUTER_BOUND ( 'NONE', #708, .T. ) ;
#647 = ORIENTED_EDGE ( 'NONE', *, *, #30, .T. ) ;
#648 = VERTEX_POINT ( 'NONE', #620 ) ;
#649 = DIRECTION ( 'NONE',  ( 1.000000000000000000, 0.000000000000000000, 0.000000000000000000 ) ) ;
#650 = EDGE_CURVE ( 'NONE', #656, #913, #256, .T. ) ;
#651 = CARTESIAN_POINT ( 'NONE',  ( 0.000000000000000000, 0.000000000000000000, 3.000000000000000000 ) ) ;
#652 = AXIS2_PLACEMENT_3D ( 'NONE', #798, #806, #573 ) ;
#653 = AXIS2_PLACEMENT_3D ( 'NONE', #771, #411, #696 ) ;
#654 = EDGE_LOOP ( 'NONE', ( #228, #206 ) ) ;
#655 = CIRCLE ( 'NONE', #485, 4.999999999999997335 ) ;
#656 = VERTEX_POINT ( 'NONE', #789 ) ;
#657 = CARTESIAN_POINT ( 'NONE',  ( 34.57893218813450886, 13.00000000000000000, 0.000000000000000000 ) ) ;
#658 = ADVANCED_FACE ( 'NONE', ( #631, #927, #245, #255, #563, #858 ), #785, .F. ) ;
#659 = APPLICATION_CONTEXT ( 'automotive_design' ) ;
#660 = LINE ( 'NONE', #867, #577 ) ;
#661 = ORIENTED_EDGE ( 'NONE', *, *, #860, .T. ) ;
#662 = DIRECTION ( 'NONE',  ( 1.000000000000000000, 0.000000000000000000, 0.000000000000000000 ) ) ;
#663 = EDGE_CURVE ( 'NONE', #254, #37, #553, .T. ) ;
#664 = DIRECTION ( 'NONE',  ( -0.000000000000000000, -0.000000000000000000, 1.000000000000000000 ) ) ;
#665 = EDGE_LOOP ( 'NONE', ( #51, #427, #401, #113 ) ) ;
#666 = ORIENTED_EDGE ( 'NONE', *, *, #698, .F. ) ;
#667 = LINE ( 'NONE', #959, #27 ) ;
#668 = LINE ( 'NONE', #892, #517 ) ;
#669 = CARTESIAN_POINT ( 'NONE',  ( 39.90000000000000568, 10.92893218813450673, 0.000000000000000000 ) ) ;
#670 = ORIENTED_EDGE ( 'NONE', *, *, #9, .T. ) ;
#671 = CIRCLE ( 'NONE', #947, 1.750000000000001554 ) ;
#672 = CARTESIAN_POINT ( 'NONE',  ( 32.82893218813453018, 13.00000000000000000, 0.000000000000000000 ) ) ;
#673 = CARTESIAN_POINT ( 'NONE',  ( 34.57893218813450886, 13.00000000000000000, 3.000000000000000000 ) ) ;
#674 = DIRECTION ( 'NONE',  ( 1.000000000000000000, 0.000000000000000000, 0.000000000000000000 ) ) ;
#675 = DIRECTION ( 'NONE',  ( 1.000000000000000000, 0.000000000000000000, 0.000000000000000000 ) ) ;
#676 = EDGE_LOOP ( 'NONE', ( #726, #845, #42, #584 ) ) ;
#677 = DIRECTION ( 'NONE',  ( 0.000000000000000000, 0.000000000000000000, 1.000000000000000000 ) ) ;
#678 = CARTESIAN_POINT ( 'NONE',  ( 39.89999999999999858, -10.92893218813452272, 0.000000000000000000 ) ) ;
#679 = DIRECTION ( 'NONE',  ( 1.000000000000000000, 0.000000000000000000, 0.000000000000000000 ) ) ;
#680 = VERTEX_POINT ( 'NONE', #850 ) ;
#681 = FACE_OUTER_BOUND ( 'NONE', #879, .T. ) ;
#682 = CARTESIAN_POINT ( 'NONE',  ( -36.36446609406725372, 16.53553390593274486, 3.000000000000000000 ) ) ;
#683 = LINE ( 'NONE', #309, #70 ) ;
#684 = EDGE_LOOP ( 'NONE', ( #939, #910 ) ) ;
#685 = LINE ( 'NONE', #64, #783 ) ;
#686 = AXIS2_PLACEMENT_3D ( 'NONE', #282, #116, #128 ) ;
#687 = DIRECTION ( 'NONE',  ( 1.000000000000000000, 0.000000000000000000, 0.000000000000000000 ) ) ;
#688 = VECTOR ( 'NONE', #8, 1000.000000000000000 ) ;
#689 = EDGE_CURVE ( 'NONE', #618, #538, #634, .T. ) ;
#690 = CARTESIAN_POINT ( 'NONE',  ( -31.07893218813451242, 13.00000000000000711, 3.000000000000000000 ) ) ;
#691 = VECTOR ( 'NONE', #218, 1000.000000000000000 ) ;
#692 = EDGE_CURVE ( 'NONE', #358, #487, #943, .T. ) ;
#693 = VERTEX_POINT ( 'NONE', #428 ) ;
#694 = CARTESIAN_POINT ( 'NONE',  ( -33.00000000000000000, -13.50000000000000178, 0.000000000000000000 ) ) ;
#695 = EDGE_LOOP ( 'NONE', ( #849, #476, #882, #17 ) ) ;
#696 = DIRECTION ( 'NONE',  ( -1.000000000000000000, 0.000000000000000000, 0.000000000000000000 ) ) ;
#697 = CARTESIAN_POINT ( 'NONE',  ( 30.75786437626905112, -8.000000000000001776, 0.000000000000000000 ) ) ;
#698 = EDGE_CURVE ( 'NONE', #487, #82, #259, .T. ) ;
#699 = ORIENTED_EDGE ( 'NONE', *, *, #376, .T. ) ;
#700 = ORIENTED_EDGE ( 'NONE', *, *, #149, .F. ) ;
#701 = DIRECTION ( 'NONE',  ( -0.000000000000000000, -0.000000000000000000, -1.000000000000000000 ) ) ;
#702 = VECTOR ( 'NONE', #889, 1000.000000000000000 ) ;
#703 = ORIENTED_EDGE ( 'NONE', *, *, #456, .F. ) ;
#704 = EDGE_CURVE ( 'NONE', #170, #609, #564, .T. ) ;
#705 = VERTEX_POINT ( 'NONE', #641 ) ;
#706 = CARTESIAN_POINT ( 'NONE',  ( 38.43553390593273633, -14.46446609406725692, 3.000000000000000000 ) ) ;
#707 = CARTESIAN_POINT ( 'NONE',  ( 8.099999999999996092, -18.00000000000000000, 0.000000000000000000 ) ) ;
#708 = EDGE_LOOP ( 'NONE', ( #630, #773, #43, #414 ) ) ;
#709 = CARTESIAN_POINT ( 'NONE',  ( 32.82893218813453728, 18.00000000000000000, 3.000000000000000000 ) ) ;
#710 = DIRECTION ( 'NONE',  ( 1.000000000000000000, 0.000000000000000000, 0.000000000000000000 ) ) ;
#711 = VERTEX_POINT ( 'NONE', #49 ) ;
#712 = ORIENTED_EDGE ( 'NONE', *, *, #790, .T. ) ;
#713 = DIRECTION ( 'NONE',  ( -1.000000000000000000, 0.000000000000000000, 0.000000000000000000 ) ) ;
#714 =( NAMED_UNIT ( * ) SI_UNIT ( $, .STERADIAN. ) SOLID_ANGLE_UNIT ( ) );
#715 = VECTOR ( 'NONE', #136, 1000.000000000000000 ) ;
#716 = AXIS2_PLACEMENT_3D ( 'NONE', #312, #612, #296 ) ;
#717 = AXIS2_PLACEMENT_3D ( 'NONE', #234, #750, #467 ) ;
#718 = EDGE_CURVE ( 'NONE', #280, #587, #585, .T. ) ;
#719 = ORIENTED_EDGE ( 'NONE', *, *, #295, .F. ) ;
#720 = CARTESIAN_POINT ( 'NONE',  ( -38.43553390593272923, 14.46446609406726225, 3.000000000000000000 ) ) ;
#721 = LINE ( 'NONE', #46, #857 ) ;
#722 = VERTEX_POINT ( 'NONE', #340 ) ;
#723 = ORIENTED_EDGE ( 'NONE', *, *, #483, .T. ) ;
#724 = CARTESIAN_POINT ( 'NONE',  ( 32.99999999999997158, -13.50000000000005329, 3.000000000000000000 ) ) ;
#725 = CARTESIAN_POINT ( 'NONE',  ( -39.89999999999999147, -10.92893218813451561, 3.000000000000000000 ) ) ;
#726 = ORIENTED_EDGE ( 'NONE', *, *, #354, .T. ) ;
#727 = EDGE_CURVE ( 'NONE', #705, #347, #207, .T. ) ;
#728 = VERTEX_POINT ( 'NONE', #571 ) ;
#729 = CARTESIAN_POINT ( 'NONE',  ( 37.82893218813453018, -15.07106781186546840, 0.000000000000000000 ) ) ;
#730 = CIRCLE ( 'NONE', #652, 4.999999999999997335 ) ;
#731 = LINE ( 'NONE', #346, #413 ) ;
#732 = CARTESIAN_POINT ( 'NONE',  ( 30.75786437626905112, -8.000000000000001776, 3.000000000000000000 ) ) ;
#733 = AXIS2_PLACEMENT_3D ( 'NONE', #60, #337, #278 ) ;
#734 = VERTEX_POINT ( 'NONE', #729 ) ;
#735 = DIRECTION ( 'NONE',  ( -0.7071067811865472397, -0.7071067811865479058, 0.000000000000000000 ) ) ;
#736 = DIRECTION ( 'NONE',  ( 1.000000000000000000, 0.000000000000000000, 0.000000000000000000 ) ) ;
#737 = DIRECTION ( 'NONE',  ( 0.000000000000000000, 0.000000000000000000, 1.000000000000000000 ) ) ;
#738 = VERTEX_POINT ( 'NONE', #815 ) ;
#739 = DIRECTION ( 'NONE',  ( 0.000000000000000000, 0.000000000000000000, 1.000000000000000000 ) ) ;
#740 = VERTEX_POINT ( 'NONE', #937 ) ;
#741 = VERTEX_POINT ( 'NONE', #203 ) ;
#742 = DIRECTION ( 'NONE',  ( -0.000000000000000000, -0.000000000000000000, -1.000000000000000000 ) ) ;
#743 = DIRECTION ( 'NONE',  ( -0.000000000000000000, -0.000000000000000000, -1.000000000000000000 ) ) ;
#744 = CARTESIAN_POINT ( 'NONE',  ( -32.82893218813451597, 13.00000000000000711, 3.000000000000000000 ) ) ;
#745 = EDGE_CURVE ( 'NONE', #705, #421, #131, .T. ) ;
#746 = CIRCLE ( 'NONE', #871, 4.999999999999997335 ) ;
#747 = ADVANCED_FACE ( 'NONE', ( #865 ), #516, .F. ) ;
#748 = ORIENTED_EDGE ( 'NONE', *, *, #102, .T. ) ;
#749 = VECTOR ( 'NONE', #951, 1000.000000000000000 ) ;
#750 = DIRECTION ( 'NONE',  ( -0.000000000000000000, -0.000000000000000000, -1.000000000000000000 ) ) ;
#751 = PRODUCT_RELATED_PRODUCT_CATEGORY ( 'part', '', ( #477 ) ) ;
#752 = CYLINDRICAL_SURFACE ( 'NONE', #716, 1.750000000000001554 ) ;
#753 = CARTESIAN_POINT ( 'NONE',  ( 30.75786437626905112, -18.00000000000000355, 3.000000000000000000 ) ) ;
#754 = LINE ( 'NONE', #378, #496 ) ;
#755 = ORIENTED_EDGE ( 'NONE', *, *, #129, .F. ) ;
#756 = CARTESIAN_POINT ( 'NONE',  ( -39.89999999999999147, -10.92893218813451561, 0.000000000000000000 ) ) ;
#757 = FACE_OUTER_BOUND ( 'NONE', #237, .T. ) ;
#758 = ORIENTED_EDGE ( 'NONE', *, *, #418, .F. ) ;
#759 = FACE_OUTER_BOUND ( 'NONE', #124, .T. ) ;
#760 = CYLINDRICAL_SURFACE ( 'NONE', #321, 5.000000000000000888 ) ;
#761 = EDGE_CURVE ( 'NONE', #738, #88, #802, .T. ) ;
#762 = LINE ( 'NONE', #85, #623 ) ;
#763 = DIRECTION ( 'NONE',  ( 0.000000000000000000, 0.000000000000000000, 1.000000000000000000 ) ) ;
#764 = ORIENTED_EDGE ( 'NONE', *, *, #644, .T. ) ;
#765 = VECTOR ( 'NONE', #590, 1000.000000000000000 ) ;
#766 = CARTESIAN_POINT ( 'NONE',  ( -33.00000000000000000, -13.50000000000000178, 0.000000000000000000 ) ) ;
#767 = PRODUCT_DEFINITION_FORMATION_WITH_SPECIFIED_SOURCE ( 'ANY', '', #477, .NOT_KNOWN. ) ;
#768 = CARTESIAN_POINT ( 'NONE',  ( 32.82893218813453018, 13.00000000000000000, 0.000000000000000000 ) ) ;
#769 = ORIENTED_EDGE ( 'NONE', *, *, #836, .T. ) ;
#770 =( NAMED_UNIT ( * ) SI_UNIT ( $, .STERADIAN. ) SOLID_ANGLE_UNIT ( ) );
#771 = CARTESIAN_POINT ( 'NONE',  ( -32.82893218813451597, 13.00000000000000711, 3.000000000000000000 ) ) ;
#772 = EDGE_CURVE ( 'NONE', #876, #293, #334, .T. ) ;
#773 = ORIENTED_EDGE ( 'NONE', *, *, #514, .T. ) ;
#774 = LINE ( 'NONE', #99, #305 ) ;
#775 = FACE_OUTER_BOUND ( 'NONE', #561, .T. ) ;
#776 = LINE ( 'NONE', #621, #114 ) ;
#777 = ADVANCED_FACE ( 'NONE', ( #125 ), #500, .F. ) ;
#778 = EDGE_LOOP ( 'NONE', ( #764, #719, #935, #583 ) ) ;
#779 = EDGE_CURVE ( 'NONE', #800, #63, #469, .T. ) ;
#780 = CARTESIAN_POINT ( 'NONE',  ( -33.00000000000000000, -13.50000000000000178, 3.000000000000000000 ) ) ;
#781 = VECTOR ( 'NONE', #624, 1000.000000000000000 ) ;
#782 = AXIS2_PLACEMENT_3D ( 'NONE', #576, #872, #859 ) ;
#783 = VECTOR ( 'NONE', #152, 999.9999999999998863 ) ;
#784 = ORIENTED_EDGE ( 'NONE', *, *, #474, .F. ) ;
#785 = PLANE ( 'NONE',  #208 ) ;
#786 = DIRECTION ( 'NONE',  ( 0.000000000000000000, 0.000000000000000000, 1.000000000000000000 ) ) ;
#787 = EDGE_LOOP ( 'NONE', ( #155, #443, #362, #201, #115, #822, #484, #270, #755, #205, #894, #368, #703, #801, #506, #592 ) ) ;
#788 = VERTEX_POINT ( 'NONE', #657 ) ;
#789 = CARTESIAN_POINT ( 'NONE',  ( 10.00000000000000000, 1.224646799147353256E-15, 0.000000000000000000 ) ) ;
#790 = EDGE_CURVE ( 'NONE', #591, #280, #165, .T. ) ;
#791 = DIRECTION ( 'NONE',  ( 1.000000000000000000, 0.000000000000000000, 0.000000000000000000 ) ) ;
#792 = ORIENTED_EDGE ( 'NONE', *, *, #147, .T. ) ;
#793 = CARTESIAN_POINT ( 'NONE',  ( 31.07893218813454794, 13.00000000000000000, 3.000000000000000000 ) ) ;
#794 = DIRECTION ( 'NONE',  ( 1.000000000000000000, -1.294569758191646909E-16, 0.000000000000000000 ) ) ;
#795 = AXIS2_PLACEMENT_3D ( 'NONE', #303, #616, #603 ) ;
#796 = AXIS2_PLACEMENT_3D ( 'NONE', #544, #369, #445 ) ;
#797 = ADVANCED_FACE ( 'NONE', ( #507 ), #799, .F. ) ;
#798 = CARTESIAN_POINT ( 'NONE',  ( 34.89999999999999858, -10.92893218813452272, 3.000000000000000000 ) ) ;
#799 = PLANE ( 'NONE',  #548 ) ;
#800 = VERTEX_POINT ( 'NONE', #877 ) ;
#801 = ORIENTED_EDGE ( 'NONE', *, *, #98, .F. ) ;
#802 = LINE ( 'NONE', #720, #765 ) ;
#803 = DIRECTION ( 'NONE',  ( -1.000000000000000000, 0.000000000000000000, 0.000000000000000000 ) ) ;
#804 = EDGE_CURVE ( 'NONE', #738, #471, #655, .T. ) ;
#805 = CARTESIAN_POINT ( 'NONE',  ( 34.90000000000000568, 10.92893218813451561, 0.000000000000000000 ) ) ;
#806 = DIRECTION ( 'NONE',  ( 0.000000000000000000, 0.000000000000000000, 1.000000000000000000 ) ) ;
#807 = ORIENTED_EDGE ( 'NONE', *, *, #790, .F. ) ;
#808 = CARTESIAN_POINT ( 'NONE',  ( -38.43553390593272923, 14.46446609406726225, 3.000000000000000000 ) ) ;
#809 = PRODUCT_DEFINITION_CONTEXT ( 'detailed design', #659, 'design' ) ;
#810 = DIRECTION ( 'NONE',  ( 0.000000000000000000, 0.000000000000000000, 1.000000000000000000 ) ) ;
#811 = COLOUR_RGB ( '',0.7921568627450980005, 0.8196078431372548767, 0.9333333333333333481 ) ;
#812 = CYLINDRICAL_SURFACE ( 'NONE', #257, 1.750000000000001554 ) ;
#813 = ORIENTED_EDGE ( 'NONE', *, *, #200, .F. ) ;
#814 = ORIENTED_EDGE ( 'NONE', *, *, #231, .T. ) ;
#815 = CARTESIAN_POINT ( 'NONE',  ( -38.43553390593272923, 14.46446609406726225, 3.000000000000000000 ) ) ;
#816 = DIRECTION ( 'NONE',  ( -1.000000000000000000, 0.000000000000000000, 0.000000000000000000 ) ) ;
#817 = ORIENTED_EDGE ( 'NONE', *, *, #385, .T. ) ;
#818 = DIRECTION ( 'NONE',  ( 0.000000000000000000, 0.000000000000000000, 1.000000000000000000 ) ) ;
#819 = LINE ( 'NONE', #381, #12 ) ;
#820 = FACE_BOUND ( 'NONE', #232, .T. ) ;
#821 = ADVANCED_FACE ( 'NONE', ( #198 ), #510, .F. ) ;
#822 = ORIENTED_EDGE ( 'NONE', *, *, #153, .F. ) ;
#823 = DIRECTION ( 'NONE',  ( 1.000000000000000000, 0.000000000000000000, 0.000000000000000000 ) ) ;
#824 = DIRECTION ( 'NONE',  ( -0.000000000000000000, -0.000000000000000000, -1.000000000000000000 ) ) ;
#825 = CARTESIAN_POINT ( 'NONE',  ( 39.90000000000000568, 10.92893218813450673, 3.000000000000000000 ) ) ;
#826 = AXIS2_PLACEMENT_3D ( 'NONE', #732, #58, #512 ) ;
#827 = ADVANCED_FACE ( 'NONE', ( #759 ), #161, .F. ) ;
#828 = ORIENTED_EDGE ( 'NONE', *, *, #153, .T. ) ;
#829 = VECTOR ( 'NONE', #53, 1000.000000000000000 ) ;
#830 = DIRECTION ( 'NONE',  ( -0.000000000000000000, -0.000000000000000000, -1.000000000000000000 ) ) ;
#831 = AXIS2_PLACEMENT_3D ( 'NONE', #558, #932, #21 ) ;
#832 = FACE_OUTER_BOUND ( 'NONE', #104, .T. ) ;
#833 = CIRCLE ( 'NONE', #40, 1.749999999999980682 ) ;
#834 = ADVANCED_FACE ( 'NONE', ( #375 ), #606, .F. ) ;
#835 = VERTEX_POINT ( 'NONE', #363 ) ;
#836 = EDGE_CURVE ( 'NONE', #254, #741, #911, .T. ) ;
#837 = CARTESIAN_POINT ( 'NONE',  ( 32.82893218813453018, 13.00000000000000000, 3.000000000000000000 ) ) ;
#838 = DIRECTION ( 'NONE',  ( -0.7071067811865480168, 0.7071067811865470176, 0.000000000000000000 ) ) ;
#839 = DIRECTION ( 'NONE',  ( -0.000000000000000000, -0.000000000000000000, -1.000000000000000000 ) ) ;
#840 = ADVANCED_FACE ( 'NONE', ( #906 ), #462, .F. ) ;
#841 = VERTEX_POINT ( 'NONE', #756 ) ;
#842 = LINE ( 'NONE', #594, #702 ) ;
#843 = DIRECTION ( 'NONE',  ( 0.000000000000000000, 0.000000000000000000, 1.000000000000000000 ) ) ;
#844 = CIRCLE ( 'NONE', #960, 4.999999999999997335 ) ;
#845 = ORIENTED_EDGE ( 'NONE', *, *, #890, .F. ) ;
#846 = CIRCLE ( 'NONE', #535, 4.999999999999997335 ) ;
#847 = PLANE ( 'NONE',  #831 ) ;
#848 = CARTESIAN_POINT ( 'NONE',  ( -10.00000000000000000, 0.000000000000000000, 3.000000000000000000 ) ) ;
#849 = ORIENTED_EDGE ( 'NONE', *, *, #559, .T. ) ;
#850 = CARTESIAN_POINT ( 'NONE',  ( -39.89999999999999147, -10.92893218813451561, 3.000000000000000000 ) ) ;
#851 = ADVANCED_FACE ( 'NONE', ( #601 ), #83, .T. ) ;
#852 = CARTESIAN_POINT ( 'NONE',  ( -34.89999999999999147, -10.92893218813451384, 3.000000000000000000 ) ) ;
#853 = EDGE_CURVE ( 'NONE', #788, #587, #833, .T. ) ;
#854 = EDGE_LOOP ( 'NONE', ( #374, #551, #361, #670, #622, #814, #661, #480, #769, #106, #864, #276, #792, #817, #748, #139 ) ) ;
#855 = CARTESIAN_POINT ( 'NONE',  ( -32.82893218813451597, 13.00000000000000711, 3.000000000000000000 ) ) ;
#856 = EDGE_LOOP ( 'NONE', ( #543, #633, #589, #888 ) ) ;
#857 = VECTOR ( 'NONE', #874, 1000.000000000000000 ) ;
#858 = FACE_BOUND ( 'NONE', #684, .T. ) ;
#859 = DIRECTION ( 'NONE',  ( 1.000000000000000000, 0.000000000000000000, 0.000000000000000000 ) ) ;
#860 = EDGE_CURVE ( 'NONE', #434, #722, #685, .T. ) ;
#861 = ORIENTED_EDGE ( 'NONE', *, *, #596, .F. ) ;
#862 = CARTESIAN_POINT ( 'NONE',  ( 31.07893218813454794, 13.00000000000000000, 0.000000000000000000 ) ) ;
#863 = CARTESIAN_POINT ( 'NONE',  ( 31.24999999999998224, -13.50000000000005329, 0.000000000000000000 ) ) ;
#864 = ORIENTED_EDGE ( 'NONE', *, *, #200, .T. ) ;
#865 = FACE_OUTER_BOUND ( 'NONE', #175, .T. ) ;
#866 = DIRECTION ( 'NONE',  ( -0.000000000000000000, -0.000000000000000000, -1.000000000000000000 ) ) ;
#867 = CARTESIAN_POINT ( 'NONE',  ( -34.89999999999999147, -17.99999999999999289, 0.000000000000000000 ) ) ;
#868 = DIRECTION ( 'NONE',  ( 0.000000000000000000, 0.000000000000000000, 1.000000000000000000 ) ) ;
#869 = EDGE_CURVE ( 'NONE', #734, #310, #667, .T. ) ;
#870 = AXIS2_PLACEMENT_3D ( 'NONE', #472, #568, #395 ) ;
#871 = AXIS2_PLACEMENT_3D ( 'NONE', #96, #542, #465 ) ;
#872 = DIRECTION ( 'NONE',  ( 0.000000000000000000, 0.000000000000000000, 1.000000000000000000 ) ) ;
#873 = CIRCLE ( 'NONE', #962, 1.750000000000005107 ) ;
#874 = DIRECTION ( 'NONE',  ( -0.000000000000000000, -1.000000000000000000, -0.000000000000000000 ) ) ;
#875 = ORIENTED_EDGE ( 'NONE', *, *, #209, .T. ) ;
#876 = VERTEX_POINT ( 'NONE', #458 ) ;
#877 = CARTESIAN_POINT ( 'NONE',  ( 10.00000000000000000, 1.224646799147353256E-15, 3.000000000000000000 ) ) ;
#878 = FACE_OUTER_BOUND ( 'NONE', #217, .T. ) ;
#879 = EDGE_LOOP ( 'NONE', ( #883, #466, #546, #391 ) ) ;
#880 = DIRECTION ( 'NONE',  ( 0.000000000000000000, 0.000000000000000000, 1.000000000000000000 ) ) ;
#881 = CARTESIAN_POINT ( 'NONE',  ( 39.90000000000000568, 10.92893218813450851, 3.000000000000000000 ) ) ;
#882 = ORIENTED_EDGE ( 'NONE', *, *, #92, .F. ) ;
#883 = ORIENTED_EDGE ( 'NONE', *, *, #264, .T. ) ;
#884 = DIRECTION ( 'NONE',  ( 0.7071067811865475727, -0.7071067811865475727, 0.000000000000000000 ) ) ;
#885 = AXIS2_PLACEMENT_3D ( 'NONE', #344, #739, #649 ) ;
#886 = CARTESIAN_POINT ( 'NONE',  ( -34.89999999999999147, -10.92893218813451384, 0.000000000000000000 ) ) ;
#887 = ORIENTED_EDGE ( 'NONE', *, *, #853, .F. ) ;
#888 = ORIENTED_EDGE ( 'NONE', *, *, #182, .T. ) ;
#889 = DIRECTION ( 'NONE',  ( -0.000000000000000000, -0.000000000000000000, -1.000000000000000000 ) ) ;
#890 = EDGE_CURVE ( 'NONE', #555, #167, #286, .T. ) ;
#891 = CARTESIAN_POINT ( 'NONE',  ( -39.89999999999999147, 10.92893218813452627, 3.000000000000000000 ) ) ;
#892 = CARTESIAN_POINT ( 'NONE',  ( 34.74999999999997158, -13.50000000000005329, 3.000000000000000000 ) ) ;
#893 = CARTESIAN_POINT ( 'NONE',  ( 32.99999999999997158, -13.50000000000005329, 0.000000000000000000 ) ) ;
#894 = ORIENTED_EDGE ( 'NONE', *, *, #644, .F. ) ;
#895 = CARTESIAN_POINT ( 'NONE',  ( 30.75786437626901915, -18.00000000000000000, 3.000000000000000000 ) ) ;
#896 = DIRECTION ( 'NONE',  ( 0.000000000000000000, 0.000000000000000000, 1.000000000000000000 ) ) ;
#897 = LINE ( 'NONE', #137, #352 ) ;
#898 = FACE_OUTER_BOUND ( 'NONE', #323, .T. ) ;
#899 = ORIENTED_EDGE ( 'NONE', *, *, #704, .T. ) ;
#900 = DIRECTION ( 'NONE',  ( -1.000000000000000000, 1.056826013124967889E-16, -0.000000000000000000 ) ) ;
#901 = DIRECTION ( 'NONE',  ( -1.000000000000000000, 0.000000000000000000, 0.000000000000000000 ) ) ;
#902 = AXIS2_PLACEMENT_3D ( 'NONE', #805, #924, #244 ) ;
#903 = VECTOR ( 'NONE', #946, 1000.000000000000000 ) ;
#904 = VERTEX_POINT ( 'NONE', #895 ) ;
#905 = AXIS2_PLACEMENT_3D ( 'NONE', #694, #843, #75 ) ;
#906 = FACE_OUTER_BOUND ( 'NONE', #778, .T. ) ;
#907 = DIRECTION ( 'NONE',  ( 1.000000000000000000, 0.000000000000000000, 0.000000000000000000 ) ) ;
#908 = AXIS2_PLACEMENT_3D ( 'NONE', #74, #677, #3 ) ;
#909 = EDGE_CURVE ( 'NONE', #11, #841, #522, .T. ) ;
#910 = ORIENTED_EDGE ( 'NONE', *, *, #650, .T. ) ;
#911 = LINE ( 'NONE', #156, #291 ) ;
#912 = CARTESIAN_POINT ( 'NONE',  ( 39.90000000000000568, 10.92893218813450851, 0.000000000000000000 ) ) ;
#913 = VERTEX_POINT ( 'NONE', #68 ) ;
#914 = DIRECTION ( 'NONE',  ( 0.000000000000000000, 0.000000000000000000, 1.000000000000000000 ) ) ;
#915 = CARTESIAN_POINT ( 'NONE',  ( 32.82893218813453728, 18.00000000000000000, 3.000000000000000000 ) ) ;
#916 = EDGE_LOOP ( 'NONE', ( #110, #160, #700, #213 ) ) ;
#917 = CIRCLE ( 'NONE', #565, 10.00000000000000178 ) ;
#918 = VECTOR ( 'NONE', #824, 1000.000000000000000 ) ;
#919 = LINE ( 'NONE', #95, #549 ) ;
#920 = CIRCLE ( 'NONE', #353, 1.750000000000001554 ) ;
#921 = PRODUCT_DEFINITION ( 'UNKNOWN', '', #767, #809 ) ;
#922 = ORIENTED_EDGE ( 'NONE', *, *, #367, .F. ) ;
#923 = DIRECTION ( 'NONE',  ( 1.000000000000000000, 0.000000000000000000, 0.000000000000000000 ) ) ;
#924 = DIRECTION ( 'NONE',  ( 0.000000000000000000, 0.000000000000000000, 1.000000000000000000 ) ) ;
#925 = CYLINDRICAL_SURFACE ( 'NONE', #653, 1.750000000000001554 ) ;
#926 = ORIENTED_EDGE ( 'NONE', *, *, #474, .T. ) ;
#927 = FACE_BOUND ( 'NONE', #489, .T. ) ;
#928 = CARTESIAN_POINT ( 'NONE',  ( 31.07893218813454794, 13.00000000000000000, 3.000000000000000000 ) ) ;
#929 = ORIENTED_EDGE ( 'NONE', *, *, #456, .T. ) ;
#930 = CARTESIAN_POINT ( 'NONE',  ( 0.000000000000000000, 0.000000000000000000, 0.000000000000000000 ) ) ;
#931 = CLOSED_SHELL ( 'NONE', ( #339, #777, #250, #162, #827, #429, #658, #851, #575, #518, #566, #554, #629, #503, #797, #4, #840, #617, #821, #967, #326, #632, #460, #505, #834, #747, #20, #619 ) ) ;
#932 = DIRECTION ( 'NONE',  ( 0.7071067811865475727, 0.7071067811865475727, -0.000000000000000000 ) ) ;
#933 = MECHANICAL_DESIGN_GEOMETRIC_PRESENTATION_REPRESENTATION (  '', ( #164 ), #210 ) ;
#934 = DIRECTION ( 'NONE',  ( 0.000000000000000000, 0.000000000000000000, -1.000000000000000000 ) ) ;
#935 = ORIENTED_EDGE ( 'NONE', *, *, #836, .F. ) ;
#936 = ORIENTED_EDGE ( 'NONE', *, *, #483, .F. ) ;
#937 = CARTESIAN_POINT ( 'NONE',  ( -34.57893218813451597, 13.00000000000000711, 3.000000000000000000 ) ) ;
#938 = DIRECTION ( 'NONE',  ( -1.000000000000000000, 0.000000000000000000, 0.000000000000000000 ) ) ;
#939 = ORIENTED_EDGE ( 'NONE', *, *, #424, .T. ) ;
#940 = CARTESIAN_POINT ( 'NONE',  ( 32.82893218813453018, 13.00000000000000000, 3.000000000000000000 ) ) ;
#941 = ORIENTED_EDGE ( 'NONE', *, *, #692, .F. ) ;
#942 = EDGE_LOOP ( 'NONE', ( #929, #202, #35, #965 ) ) ;
#943 = LINE ( 'NONE', #265, #829 ) ;
#944 = EDGE_CURVE ( 'NONE', #421, #73, #842, .T. ) ;
#945 = EDGE_CURVE ( 'NONE', #741, #555, #597, .T. ) ;
#946 = DIRECTION ( 'NONE',  ( -0.000000000000000000, -0.000000000000000000, -1.000000000000000000 ) ) ;
#947 = AXIS2_PLACEMENT_3D ( 'NONE', #463, #896, #907 ) ;
#948 = LINE ( 'NONE', #431, #482 ) ;
#949 = ORIENTED_EDGE ( 'NONE', *, *, #376, .F. ) ;
#950 = VERTEX_POINT ( 'NONE', #380 ) ;
#951 = DIRECTION ( 'NONE',  ( -0.000000000000000000, -0.000000000000000000, -1.000000000000000000 ) ) ;
#952 = UNCERTAINTY_MEASURE_WITH_UNIT (LENGTH_MEASURE( 1.000000000000000082E-05 ), #539, 'distance_accuracy_value', 'NONE');
#953 = VERTEX_POINT ( 'NONE', #450 ) ;
#954 = ORIENTED_EDGE ( 'NONE', *, *, #426, .T. ) ;
#955 = CARTESIAN_POINT ( 'NONE',  ( 0.000000000000000000, 0.000000000000000000, 3.000000000000000000 ) ) ;
#956 = EDGE_CURVE ( 'NONE', #722, #254, #355, .T. ) ;
#957 = ORIENTED_EDGE ( 'NONE', *, *, #9, .F. ) ;
#958 = ORIENTED_EDGE ( 'NONE', *, *, #596, .T. ) ;
#959 = CARTESIAN_POINT ( 'NONE',  ( 38.43553390593273633, -14.46446609406725869, 0.000000000000000000 ) ) ;
#960 = AXIS2_PLACEMENT_3D ( 'NONE', #886, #448, #675 ) ;
#961 = AXIS2_PLACEMENT_3D ( 'NONE', #955, #435, #416 ) ;
#962 = AXIS2_PLACEMENT_3D ( 'NONE', #766, #84, #687 ) ;
#963 = CYLINDRICAL_SURFACE ( 'NONE', #320, 4.999999999999997335 ) ;
#964 = AXIS2_PLACEMENT_3D ( 'NONE', #855, #403, #713 ) ;
#965 = ORIENTED_EDGE ( 'NONE', *, *, #602, .T. ) ;
#966 = CARTESIAN_POINT ( 'NONE',  ( -36.36446609406725372, 16.53553390593274486, 3.000000000000000000 ) ) ;
#967 = ADVANCED_FACE ( 'NONE', ( #681 ), #300, .T. ) ;
#968 = CARTESIAN_POINT ( 'NONE',  ( 32.99999999999997158, -13.50000000000005329, 3.000000000000000000 ) ) ;
#969 = FACE_BOUND ( 'NONE', #654, .T. ) ;
ENDSEC;
END-ISO-10303-21;
