ISO-10303-21;
HEADER;
FILE_DESCRIPTION (( 'STEP AP214' ),
    '1' );
FILE_NAME ('U_mount_testprint.STEP',
    '2026-05-15T02:04:37',
    ( '' ),
    ( '' ),
    'SwSTEP 2.0',
    'SolidWorks 2024',
    '' );
FILE_SCHEMA (( 'AUTOMOTIVE_DESIGN' ));
ENDSEC;

DATA;
#1 = LINE ( 'NONE', #302, #1058 ) ;
#2 = AXIS2_PLACEMENT_3D ( 'NONE', #846, #934, #129 ) ;
#3 = AXIS2_PLACEMENT_3D ( 'NONE', #322, #440, #933 ) ;
#4 = DIRECTION ( 'NONE',  ( 0.000000000000000000, 0.000000000000000000, -1.000000000000000000 ) ) ;
#5 = CARTESIAN_POINT ( 'NONE',  ( -19.60000000000001563, -17.60000000000000142, 18.00000000000000000 ) ) ;
#6 = ORIENTED_EDGE ( 'NONE', *, *, #675, .F. ) ;
#7 = CARTESIAN_POINT ( 'NONE',  ( -16.60000000000000142, -12.60000000000000142, 0.000000000000000000 ) ) ;
#8 = CARTESIAN_POINT ( 'NONE',  ( 16.60000000000000142, -12.59999999999999787, 18.00000000000000000 ) ) ;
#9 = DIRECTION ( 'NONE',  ( 0.000000000000000000, -1.000000000000000000, 0.000000000000000000 ) ) ;
#10 = ORIENTED_EDGE ( 'NONE', *, *, #532, .T. ) ;
#11 = ORIENTED_EDGE ( 'NONE', *, *, #443, .F. ) ;
#12 = ADVANCED_FACE ( 'NONE', ( #383 ), #369, .F. ) ;
#13 = CARTESIAN_POINT ( 'NONE',  ( -11.60000000000000142, 9.250000000000001776, 15.99999999999999645 ) ) ;
#14 = CARTESIAN_POINT ( 'NONE',  ( 18.59999999999992681, -18.60000000000005471, 23.00000000000000000 ) ) ;
#15 = DIRECTION ( 'NONE',  ( 0.7071067811865489050, 5.678864506234730534E-17, 0.7071067811865460184 ) ) ;
#16 = VECTOR ( 'NONE', #385, 1000.000000000000000 ) ;
#17 = ORIENTED_EDGE ( 'NONE', *, *, #1244, .F. ) ;
#18 = EDGE_CURVE ( 'NONE', #465, #738, #133, .T. ) ;
#19 = DIRECTION ( 'NONE',  ( -0.000000000000000000, -1.000000000000000000, -0.000000000000000000 ) ) ;
#20 = CARTESIAN_POINT ( 'NONE',  ( -19.59999999999999787, 9.250000000000001776, 15.99999999999999645 ) ) ;
#21 = DIRECTION ( 'NONE',  ( -1.000000000000000000, -0.000000000000000000, -0.000000000000000000 ) ) ;
#22 = VECTOR ( 'NONE', #316, 1000.000000000000000 ) ;
#23 = ORIENTED_EDGE ( 'NONE', *, *, #1096, .F. ) ;
#24 = ADVANCED_FACE ( 'NONE', ( #52 ), #340, .F. ) ;
#25 = VECTOR ( 'NONE', #758, 1000.000000000000000 ) ;
#26 = FACE_OUTER_BOUND ( 'NONE', #531, .T. ) ;
#27 = ADVANCED_FACE ( 'NONE', ( #656, #1054, #356 ), #32, .F. ) ;
#28 =( NAMED_UNIT ( * ) PLANE_ANGLE_UNIT ( ) SI_UNIT ( $, .RADIAN. ) );
#29 = CARTESIAN_POINT ( 'NONE',  ( 16.60000000000000142, 12.60000000000000142, 0.000000000000000000 ) ) ;
#30 = VECTOR ( 'NONE', #424, 1000.000000000000000 ) ;
#31 = CIRCLE ( 'NONE', #394, 2.000000000000000000 ) ;
#32 = PLANE ( 'NONE',  #771 ) ;
#33 = VERTEX_POINT ( 'NONE', #348 ) ;
#34 = EDGE_CURVE ( 'NONE', #64, #770, #1292, .T. ) ;
#35 = EDGE_LOOP ( 'NONE', ( #180, #912, #659, #517 ) ) ;
#36 = CARTESIAN_POINT ( 'NONE',  ( 11.59999999999999787, 10.00000000000000000, 15.99999999999998934 ) ) ;
#37 = CARTESIAN_POINT ( 'NONE',  ( 0.000000000000000000, 0.000000000000000000, 0.000000000000000000 ) ) ;
#38 = DIRECTION ( 'NONE',  ( 0.000000000000000000, -0.000000000000000000, 1.000000000000000000 ) ) ;
#39 = SURFACE_SIDE_STYLE ('',( #1124 ) ) ;
#40 = ORIENTED_EDGE ( 'NONE', *, *, #247, .F. ) ;
#41 = DIRECTION ( 'NONE',  ( 1.000000000000000000, -0.000000000000000000, -0.000000000000000000 ) ) ;
#42 = ADVANCED_FACE ( 'NONE', ( #236 ), #736, .F. ) ;
#43 = FACE_OUTER_BOUND ( 'NONE', #666, .T. ) ;
#44 = DIRECTION ( 'NONE',  ( 0.000000000000000000, -1.000000000000000000, 0.000000000000000000 ) ) ;
#45 = EDGE_CURVE ( 'NONE', #893, #486, #854, .T. ) ;
#46 = DIRECTION ( 'NONE',  ( -0.000000000000000000, -1.000000000000000000, -0.000000000000000000 ) ) ;
#47 = ORIENTED_EDGE ( 'NONE', *, *, #950, .T. ) ;
#48 = EDGE_LOOP ( 'NONE', ( #1153, #857, #708, #193 ) ) ;
#49 = CARTESIAN_POINT ( 'NONE',  ( 21.59999999999999787, -17.59999999999999787, 5.000000000000004441 ) ) ;
#50 = ORIENTED_EDGE ( 'NONE', *, *, #1082, .T. ) ;
#51 = DIRECTION ( 'NONE',  ( -1.000000000000000000, 0.000000000000000000, 0.000000000000000000 ) ) ;
#52 = FACE_OUTER_BOUND ( 'NONE', #170, .T. ) ;
#53 = VECTOR ( 'NONE', #275, 1000.000000000000000 ) ;
#54 = ORIENTED_EDGE ( 'NONE', *, *, #1091, .F. ) ;
#55 = AXIS2_PLACEMENT_3D ( 'NONE', #241, #640, #1129 ) ;
#56 = ORIENTED_EDGE ( 'NONE', *, *, #1107, .T. ) ;
#57 = ORIENTED_EDGE ( 'NONE', *, *, #269, .F. ) ;
#58 = DIRECTION ( 'NONE',  ( -1.000000000000000000, -9.856383386231858827E-17, -0.000000000000000000 ) ) ;
#59 = LINE ( 'NONE', #489, #422 ) ;
#60 = CARTESIAN_POINT ( 'NONE',  ( 21.59999999999999787, 10.00000000000000000, 13.99999999999998934 ) ) ;
#61 = ORIENTED_EDGE ( 'NONE', *, *, #140, .F. ) ;
#62 = MANIFOLD_SOLID_BREP ( 'Chamfer2', #142 ) ;
#63 = VECTOR ( 'NONE', #1276, 999.9999999999998863 ) ;
#64 = VERTEX_POINT ( 'NONE', #60 ) ;
#65 = ORIENTED_EDGE ( 'NONE', *, *, #491, .F. ) ;
#66 = CARTESIAN_POINT ( 'NONE',  ( 0.000000000000000000, 0.000000000000000000, 23.00000000000000000 ) ) ;
#67 = CARTESIAN_POINT ( 'NONE',  ( -18.59999999999999787, 9.099999999999997868, 0.000000000000000000 ) ) ;
#68 = PLANE ( 'NONE',  #624 ) ;
#69 = EDGE_LOOP ( 'NONE', ( #1089, #163 ) ) ;
#70 = ADVANCED_FACE ( 'NONE', ( #1034 ), #561, .T. ) ;
#71 = ORIENTED_EDGE ( 'NONE', *, *, #862, .F. ) ;
#72 = AXIS2_PLACEMENT_3D ( 'NONE', #810, #218, #713 ) ;
#73 = VECTOR ( 'NONE', #1288, 1000.000000000000000 ) ;
#74 = EDGE_LOOP ( 'NONE', ( #1173, #1131, #374, #17 ) ) ;
#75 = CARTESIAN_POINT ( 'NONE',  ( 18.59999999999999787, 10.00000000000000000, 13.99999999999998934 ) ) ;
#76 = EDGE_CURVE ( 'NONE', #806, #849, #847, .T. ) ;
#77 = LINE ( 'NONE', #686, #878 ) ;
#78 = DIRECTION ( 'NONE',  ( -1.000000000000000000, -5.225070710773516221E-17, 0.000000000000000000 ) ) ;
#79 = ORIENTED_EDGE ( 'NONE', *, *, #962, .F. ) ;
#80 = EDGE_CURVE ( 'NONE', #134, #579, #542, .T. ) ;
#81 = ADVANCED_FACE ( 'NONE', ( #628 ), #1157, .F. ) ;
#82 = ORIENTED_EDGE ( 'NONE', *, *, #210, .F. ) ;
#83 = ORIENTED_EDGE ( 'NONE', *, *, #1130, .F. ) ;
#84 = FACE_OUTER_BOUND ( 'NONE', #595, .T. ) ;
#85 = DIRECTION ( 'NONE',  ( -0.7071067811865456854, 0.7071067811865493491, -0.000000000000000000 ) ) ;
#86 = CARTESIAN_POINT ( 'NONE',  ( -16.60000000000000142, 9.099999999999997868, 0.000000000000000000 ) ) ;
#87 = ORIENTED_EDGE ( 'NONE', *, *, #1197, .T. ) ;
#88 = AXIS2_PLACEMENT_3D ( 'NONE', #1206, #702, #1202 ) ;
#89 = LINE ( 'NONE', #883, #1018 ) ;
#90 = ADVANCED_FACE ( 'NONE', ( #1046 ), #751, .F. ) ;
#91 = LINE ( 'NONE', #678, #315 ) ;
#92 = CARTESIAN_POINT ( 'NONE',  ( -21.60000000000000497, 15.60000000000000675, 5.000000000000087930 ) ) ;
#93 = EDGE_CURVE ( 'NONE', #486, #778, #967, .T. ) ;
#94 = VERTEX_POINT ( 'NONE', #1185 ) ;
#95 = DIRECTION ( 'NONE',  ( 1.000000000000000000, 0.000000000000000000, 0.000000000000000000 ) ) ;
#96 = VECTOR ( 'NONE', #932, 1000.000000000000000 ) ;
#97 = CARTESIAN_POINT ( 'NONE',  ( 16.60000000000000142, -10.00000000000000000, 15.99999999999998934 ) ) ;
#98 = LINE ( 'NONE', #1164, #601 ) ;
#99 = EDGE_LOOP ( 'NONE', ( #471, #6, #294, #47 ) ) ;
#100 = CIRCLE ( 'NONE', #498, 2.000000000000000000 ) ;
#101 = CIRCLE ( 'NONE', #721, 2.000000000000000000 ) ;
#102 = CARTESIAN_POINT ( 'NONE',  ( 21.59999999999999787, -10.00000000000000000, 17.99999999999998934 ) ) ;
#103 = DIRECTION ( 'NONE',  ( 0.7071067811865456854, -0.7071067811865493491, 0.000000000000000000 ) ) ;
#104 = FACE_OUTER_BOUND ( 'NONE', #695, .T. ) ;
#105 = EDGE_LOOP ( 'NONE', ( #784, #1040 ) ) ;
#106 = DIRECTION ( 'NONE',  ( 1.000000000000000000, 0.000000000000000000, 0.000000000000000000 ) ) ;
#107 = AXIS2_PLACEMENT_3D ( 'NONE', #551, #744, #456 ) ;
#108 = DIRECTION ( 'NONE',  ( 0.000000000000000000, -1.000000000000000000, 0.000000000000000000 ) ) ;
#109 = LINE ( 'NONE', #509, #800 ) ;
#110 = ORIENTED_EDGE ( 'NONE', *, *, #130, .F. ) ;
#111 = DIRECTION ( 'NONE',  ( -1.000000000000000000, -9.856383386231858827E-17, 0.000000000000000000 ) ) ;
#112 = AXIS2_PLACEMENT_3D ( 'NONE', #616, #1017, #124 ) ;
#113 = CARTESIAN_POINT ( 'NONE',  ( -16.60000000000000142, -12.60000000000000142, 0.000000000000000000 ) ) ;
#114 = DIRECTION ( 'NONE',  ( -1.000000000000000000, -9.856383386231858827E-17, -0.000000000000000000 ) ) ;
#115 = VERTEX_POINT ( 'NONE', #484 ) ;
#116 = ADVANCED_FACE ( 'NONE', ( #192 ), #68, .T. ) ;
#117 = CARTESIAN_POINT ( 'NONE',  ( 18.59999999999999787, 10.00000000000000000, 16.74999999999998934 ) ) ;
#118 = CIRCLE ( 'NONE', #187, 0.7500000000000006661 ) ;
#119 = CARTESIAN_POINT ( 'NONE',  ( -16.60000000000000142, -9.100000000000003197, 0.000000000000000000 ) ) ;
#120 = CYLINDRICAL_SURFACE ( 'NONE', #632, 2.000000000000000000 ) ;
#121 = EDGE_CURVE ( 'NONE', #849, #486, #490, .T. ) ;
#122 = ORIENTED_EDGE ( 'NONE', *, *, #962, .T. ) ;
#123 = CYLINDRICAL_SURFACE ( 'NONE', #654, 2.000000000000000000 ) ;
#124 = DIRECTION ( 'NONE',  ( 0.000000000000000000, 0.000000000000000000, -1.000000000000000000 ) ) ;
#125 = CIRCLE ( 'NONE', #524, 2.000000000000000000 ) ;
#126 = ORIENTED_EDGE ( 'NONE', *, *, #443, .T. ) ;
#127 = CARTESIAN_POINT ( 'NONE',  ( 11.59999999999999787, 10.00000000000000000, 15.24999999999998934 ) ) ;
#128 = FACE_OUTER_BOUND ( 'NONE', #510, .T. ) ;
#129 = DIRECTION ( 'NONE',  ( 0.000000000000000000, -0.000000000000000000, -1.000000000000000000 ) ) ;
#130 = EDGE_CURVE ( 'NONE', #727, #278, #282, .T. ) ;
#131 = VECTOR ( 'NONE', #541, 1000.000000000000000 ) ;
#132 = AXIS2_PLACEMENT_3D ( 'NONE', #345, #232, #1026 ) ;
#133 = LINE ( 'NONE', #949, #874 ) ;
#134 = VERTEX_POINT ( 'NONE', #679 ) ;
#135 = LINE ( 'NONE', #747, #388 ) ;
#136 = DIRECTION ( 'NONE',  ( -1.000000000000000000, 0.000000000000000000, 0.000000000000000000 ) ) ;
#137 = CARTESIAN_POINT ( 'NONE',  ( 11.59999999999999787, -10.00000000000000000, 15.99999999999998934 ) ) ;
#138 = VERTEX_POINT ( 'NONE', #582 ) ;
#139 = APPLICATION_CONTEXT ( 'automotive_design' ) ;
#140 = EDGE_CURVE ( 'NONE', #731, #342, #782, .T. ) ;
#141 = FACE_OUTER_BOUND ( 'NONE', #270, .T. ) ;
#142 = CLOSED_SHELL ( 'NONE', ( #1242, #344, #898, #549, #81, #636, #42, #1108, #116, #783, #12, #351, #90, #320, #1267, #909, #27, #902, #1039, #1183, #538, #501, #70, #419, #723, #408, #1140, #630, #487, #445, #598, #303, #540, #366, #978, #24, #1015, #1154, #1272, #1135, #1229, #856 ) ) ;
#143 = APPLICATION_PROTOCOL_DEFINITION ( 'draft international standard', 'automotive_design', 1998, #139 ) ;
#144 = PLANE ( 'NONE',  #576 ) ;
#145 = CARTESIAN_POINT ( 'NONE',  ( 16.60000000000000142, -12.59999999999999787, 0.000000000000000000 ) ) ;
#146 = EDGE_LOOP ( 'NONE', ( #1134, #364, #740, #79 ) ) ;
#147 = AXIS2_PLACEMENT_3D ( 'NONE', #191, #274, #1262 ) ;
#148 = VERTEX_POINT ( 'NONE', #871 ) ;
#149 = DIRECTION ( 'NONE',  ( 1.000000000000000000, 8.031127203596329369E-17, 0.000000000000000000 ) ) ;
#150 = VERTEX_POINT ( 'NONE', #1088 ) ;
#151 = PLANE ( 'NONE',  #132 ) ;
#152 = FACE_OUTER_BOUND ( 'NONE', #35, .T. ) ;
#153 = CARTESIAN_POINT ( 'NONE',  ( 16.60000000000000142, 12.60000000000000142, 18.00000000000000000 ) ) ;
#154 = ORIENTED_EDGE ( 'NONE', *, *, #18, .T. ) ;
#155 = VECTOR ( 'NONE', #1239, 1000.000000000000000 ) ;
#156 = ORIENTED_EDGE ( 'NONE', *, *, #1002, .T. ) ;
#157 = CARTESIAN_POINT ( 'NONE',  ( 16.59999999999997300, -15.60000000000000320, 0.000000000000000000 ) ) ;
#158 = ORIENTED_EDGE ( 'NONE', *, *, #807, .T. ) ;
#159 = LINE ( 'NONE', #354, #972 ) ;
#160 = CARTESIAN_POINT ( 'NONE',  ( -16.60000000000000142, -10.75000000000000000, 15.99999999999999645 ) ) ;
#161 = DIRECTION ( 'NONE',  ( 0.000000000000000000, 0.000000000000000000, -1.000000000000000000 ) ) ;
#162 = AXIS2_PLACEMENT_3D ( 'NONE', #1193, #1286, #614 ) ;
#163 = ORIENTED_EDGE ( 'NONE', *, *, #379, .F. ) ;
#164 = EDGE_LOOP ( 'NONE', ( #87, #225, #642, #173 ) ) ;
#165 = ORIENTED_EDGE ( 'NONE', *, *, #627, .F. ) ;
#166 = DIRECTION ( 'NONE',  ( 0.000000000000000000, 0.000000000000000000, 1.000000000000000000 ) ) ;
#167 = EDGE_CURVE ( 'NONE', #150, #617, #1117, .T. ) ;
#168 = DIRECTION ( 'NONE',  ( 0.5773502691896279515, 0.5773502691896238437, 0.5773502691896255090 ) ) ;
#169 = LINE ( 'NONE', #568, #266 ) ;
#170 = EDGE_LOOP ( 'NONE', ( #584, #1041, #126, #872 ) ) ;
#171 = AXIS2_PLACEMENT_3D ( 'NONE', #153, #935, #229 ) ;
#172 = VERTEX_POINT ( 'NONE', #1281 ) ;
#173 = ORIENTED_EDGE ( 'NONE', *, *, #823, .F. ) ;
#174 = EDGE_CURVE ( 'NONE', #1192, #473, #864, .T. ) ;
#175 = DIRECTION ( 'NONE',  ( -1.000000000000000000, 0.000000000000000000, 0.000000000000000000 ) ) ;
#176 = EDGE_CURVE ( 'NONE', #979, #684, #100, .T. ) ;
#177 = LINE ( 'NONE', #884, #25 ) ;
#178 = CARTESIAN_POINT ( 'NONE',  ( -21.60000000000000142, 10.00000000000000178, 15.99999999999999645 ) ) ;
#179 = VERTEX_POINT ( 'NONE', #372 ) ;
#180 = ORIENTED_EDGE ( 'NONE', *, *, #121, .F. ) ;
#181 = EDGE_LOOP ( 'NONE', ( #336, #375, #578, #674 ) ) ;
#182 = DIRECTION ( 'NONE',  ( -1.000000000000000000, -0.000000000000000000, -0.000000000000000000 ) ) ;
#183 = DIRECTION ( 'NONE',  ( 1.000000000000000000, 9.856383386231858827E-17, -0.000000000000000000 ) ) ;
#184 = CARTESIAN_POINT ( 'NONE',  ( -19.60000000000000142, 17.59999999999999787, 18.00000000000000000 ) ) ;
#185 = UNCERTAINTY_MEASURE_WITH_UNIT (LENGTH_MEASURE( 1.000000000000000082E-05 ), #1122, 'distance_accuracy_value', 'NONE');
#186 = ORIENTED_EDGE ( 'NONE', *, *, #1208, .F. ) ;
#187 = AXIS2_PLACEMENT_3D ( 'NONE', #468, #182, #775 ) ;
#188 = EDGE_CURVE ( 'NONE', #172, #278, #197, .T. ) ;
#189 = LINE ( 'NONE', #765, #742 ) ;
#190 = EDGE_CURVE ( 'NONE', #579, #806, #664, .T. ) ;
#191 = CARTESIAN_POINT ( 'NONE',  ( 18.59999999999999787, 10.00000000000000000, 15.99999999999998934 ) ) ;
#192 = FACE_OUTER_BOUND ( 'NONE', #994, .T. ) ;
#193 = ORIENTED_EDGE ( 'NONE', *, *, #313, .F. ) ;
#194 = VECTOR ( 'NONE', #987, 1000.000000000000000 ) ;
#195 = DIRECTION ( 'NONE',  ( 1.000000000000000000, 0.000000000000000000, 0.000000000000000000 ) ) ;
#196 = PLANE ( 'NONE',  #1133 ) ;
#197 = LINE ( 'NONE', #288, #619 ) ;
#198 = ORIENTED_EDGE ( 'NONE', *, *, #210, .T. ) ;
#199 = VECTOR ( 'NONE', #525, 1000.000000000000000 ) ;
#200 = CARTESIAN_POINT ( 'NONE',  ( 21.59999999999999787, 10.00000000000000000, 15.99999999999998934 ) ) ;
#201 = VECTOR ( 'NONE', #938, 1000.000000000000000 ) ;
#202 = CARTESIAN_POINT ( 'NONE',  ( -19.60000000000001563, -17.59999999999999787, 23.00000000000000000 ) ) ;
#203 = LINE ( 'NONE', #1203, #30 ) ;
#204 = VERTEX_POINT ( 'NONE', #671 ) ;
#205 = DIRECTION ( 'NONE',  ( 0.000000000000000000, 0.000000000000000000, 1.000000000000000000 ) ) ;
#206 = LINE ( 'NONE', #292, #22 ) ;
#207 = FACE_OUTER_BOUND ( 'NONE', #99, .T. ) ;
#208 = EDGE_CURVE ( 'NONE', #575, #704, #1284, .T. ) ;
#209 = VERTEX_POINT ( 'NONE', #92 ) ;
#210 = EDGE_CURVE ( 'NONE', #569, #1048, #789, .T. ) ;
#211 = CARTESIAN_POINT ( 'NONE',  ( -21.60000000000000497, 15.60000000000000675, 18.00000000000000000 ) ) ;
#212 = DIRECTION ( 'NONE',  ( 1.000000000000000000, -0.000000000000000000, -0.000000000000000000 ) ) ;
#213 = EDGE_CURVE ( 'NONE', #1029, #1230, #693, .T. ) ;
#214 = CARTESIAN_POINT ( 'NONE',  ( -21.60000000000000497, 17.59999999999999787, 23.00000000000000000 ) ) ;
#215 = VERTEX_POINT ( 'NONE', #992 ) ;
#216 = LINE ( 'NONE', #331, #931 ) ;
#217 = LINE ( 'NONE', #615, #801 ) ;
#218 = DIRECTION ( 'NONE',  ( 1.000000000000000000, 0.000000000000000000, 0.000000000000000000 ) ) ;
#219 = ORIENTED_EDGE ( 'NONE', *, *, #1137, .F. ) ;
#220 = CARTESIAN_POINT ( 'NONE',  ( 16.60000000000000142, -12.59999999999999787, 0.000000000000000000 ) ) ;
#221 = AXIS2_PLACEMENT_3D ( 'NONE', #1076, #1289, #982 ) ;
#222 = EDGE_CURVE ( 'NONE', #553, #748, #98, .T. ) ;
#223 = VECTOR ( 'NONE', #755, 1000.000000000000000 ) ;
#224 = CARTESIAN_POINT ( 'NONE',  ( 18.59999999999999787, -10.00000000000000000, 15.99999999999998934 ) ) ;
#225 = ORIENTED_EDGE ( 'NONE', *, *, #737, .T. ) ;
#226 = LINE ( 'NONE', #127, #1219 ) ;
#227 = DIRECTION ( 'NONE',  ( 1.000000000000000000, 0.000000000000000000, 0.000000000000000000 ) ) ;
#228 = CARTESIAN_POINT ( 'NONE',  ( 21.59999999999999787, -10.00000000000000000, 13.99999999999998934 ) ) ;
#229 = DIRECTION ( 'NONE',  ( 1.000000000000000000, 5.225070710773516837E-17, 0.000000000000000000 ) ) ;
#230 = EDGE_LOOP ( 'NONE', ( #968, #779 ) ) ;
#231 = DIRECTION ( 'NONE',  ( 1.000000000000000000, 9.856383386231858827E-17, -0.000000000000000000 ) ) ;
#232 = DIRECTION ( 'NONE',  ( -0.7071067811865512365, -6.969515530379010109E-17, -0.7071067811865437980 ) ) ;
#233 = PLANE ( 'NONE',  #1079 ) ;
#234 = CIRCLE ( 'NONE', #300, 2.000000000000000000 ) ;
#235 = VECTOR ( 'NONE', #1128, 1000.000000000000114 ) ;
#236 = FACE_OUTER_BOUND ( 'NONE', #623, .T. ) ;
#237 = ORIENTED_EDGE ( 'NONE', *, *, #763, .T. ) ;
#238 = ORIENTED_EDGE ( 'NONE', *, *, #272, .T. ) ;
#239 = CARTESIAN_POINT ( 'NONE',  ( -19.59999999999999787, 10.00000000000000178, 15.99999999999999645 ) ) ;
#240 = DIRECTION ( 'NONE',  ( 0.000000000000000000, 0.000000000000000000, 1.000000000000000000 ) ) ;
#241 = CARTESIAN_POINT ( 'NONE',  ( -19.59999999999999787, -9.999999999999998224, 15.99999999999999645 ) ) ;
#242 = ORIENTED_EDGE ( 'NONE', *, *, #965, .T. ) ;
#243 = ORIENTED_EDGE ( 'NONE', *, *, #80, .T. ) ;
#244 = DIRECTION ( 'NONE',  ( -8.031127203596329369E-17, 1.000000000000000000, 0.000000000000000000 ) ) ;
#245 = PRODUCT_CONTEXT ( 'NONE', #139, 'mechanical' ) ;
#246 = CARTESIAN_POINT ( 'NONE',  ( 21.59999999999999787, -15.60000000000000320, 5.000000000000004441 ) ) ;
#247 = EDGE_CURVE ( 'NONE', #335, #94, #889, .T. ) ;
#248 = DIRECTION ( 'NONE',  ( 0.000000000000000000, -1.000000000000000000, 0.000000000000000000 ) ) ;
#249 = ORIENTED_EDGE ( 'NONE', *, *, #845, .T. ) ;
#250 = VECTOR ( 'NONE', #168, 1000.000000000000000 ) ;
#251 = ORIENTED_EDGE ( 'NONE', *, *, #1036, .F. ) ;
#252 = DIRECTION ( 'NONE',  ( -9.856383386231858827E-17, 1.000000000000000000, 0.000000000000000000 ) ) ;
#253 = ORIENTED_EDGE ( 'NONE', *, *, #1187, .T. ) ;
#254 = EDGE_CURVE ( 'NONE', #1174, #1059, #169, .T. ) ;
#255 = DIRECTION ( 'NONE',  ( 0.000000000000000000, 0.000000000000000000, 1.000000000000000000 ) ) ;
#256 = DIRECTION ( 'NONE',  ( 0.7071067811865505703, 0.7071067811865444641, 0.000000000000000000 ) ) ;
#257 = PRESENTATION_STYLE_ASSIGNMENT (( #435 ) ) ;
#258 = VERTEX_POINT ( 'NONE', #1116 ) ;
#259 = VECTOR ( 'NONE', #252, 1000.000000000000000 ) ;
#260 = ORIENTED_EDGE ( 'NONE', *, *, #866, .F. ) ;
#261 = ORIENTED_EDGE ( 'NONE', *, *, #505, .F. ) ;
#262 = EDGE_CURVE ( 'NONE', #278, #115, #311, .T. ) ;
#263 = PLANE ( 'NONE',  #1168 ) ;
#264 = CARTESIAN_POINT ( 'NONE',  ( 18.59999999999999787, 10.00000000000000000, 15.24999999999998934 ) ) ;
#265 = DIRECTION ( 'NONE',  ( 1.000000000000000000, -0.000000000000000000, -0.000000000000000000 ) ) ;
#266 = VECTOR ( 'NONE', #975, 1000.000000000000000 ) ;
#267 = CIRCLE ( 'NONE', #661, 0.7500000000000006661 ) ;
#268 = EDGE_LOOP ( 'NONE', ( #110, #289, #969, #1120 ) ) ;
#269 = EDGE_CURVE ( 'NONE', #858, #1230, #787, .T. ) ;
#270 = EDGE_LOOP ( 'NONE', ( #1176, #665, #249, #186 ) ) ;
#271 = VERTEX_POINT ( 'NONE', #298 ) ;
#272 = EDGE_CURVE ( 'NONE', #172, #342, #718, .T. ) ;
#273 = CARTESIAN_POINT ( 'NONE',  ( -19.59999999999999787, 10.00000000000000178, 15.99999999999999645 ) ) ;
#274 = DIRECTION ( 'NONE',  ( 1.000000000000000000, 0.000000000000000000, 0.000000000000000000 ) ) ;
#275 = DIRECTION ( 'NONE',  ( -0.000000000000000000, -0.000000000000000000, -1.000000000000000000 ) ) ;
#276 = ORIENTED_EDGE ( 'NONE', *, *, #712, .T. ) ;
#277 = VECTOR ( 'NONE', #78, 1000.000000000000000 ) ;
#278 = VERTEX_POINT ( 'NONE', #1207 ) ;
#279 = ORIENTED_EDGE ( 'NONE', *, *, #190, .F. ) ;
#280 = CARTESIAN_POINT ( 'NONE',  ( -18.59999999999999787, 9.099999999999997868, 18.00000000000000000 ) ) ;
#281 = CARTESIAN_POINT ( 'NONE',  ( -19.59999999999999787, -9.999999999999996447, 15.99999999999999645 ) ) ;
#282 = LINE ( 'NONE', #184, #295 ) ;
#283 = EDGE_CURVE ( 'NONE', #1059, #1048, #203, .T. ) ;
#284 = ORIENTED_EDGE ( 'NONE', *, *, #272, .F. ) ;
#285 = ORIENTED_EDGE ( 'NONE', *, *, #769, .F. ) ;
#286 = PLANE ( 'NONE',  #620 ) ;
#287 = DIRECTION ( 'NONE',  ( 1.000000000000000000, -0.000000000000000000, -0.000000000000000000 ) ) ;
#288 = CARTESIAN_POINT ( 'NONE',  ( -21.60000000000000497, 17.59999999999999787, 23.00000000000000000 ) ) ;
#289 = ORIENTED_EDGE ( 'NONE', *, *, #862, .T. ) ;
#290 = AXIS2_PLACEMENT_3D ( 'NONE', #361, #985, #1278 ) ;
#291 = CARTESIAN_POINT ( 'NONE',  ( 16.60000000000000142, -12.59999999999999787, 18.00000000000000000 ) ) ;
#292 = CARTESIAN_POINT ( 'NONE',  ( 16.60000000000000142, 12.60000000000000142, 18.00000000000000000 ) ) ;
#293 = DIRECTION ( 'NONE',  ( -1.000000000000000000, -9.856383386231858827E-17, 0.000000000000000000 ) ) ;
#294 = ORIENTED_EDGE ( 'NONE', *, *, #773, .T. ) ;
#295 = VECTOR ( 'NONE', #470, 1000.000000000000000 ) ;
#296 = CARTESIAN_POINT ( 'NONE',  ( 18.59999999999999787, -10.00000000000000000, 15.99999999999998934 ) ) ;
#297 = DIRECTION ( 'NONE',  ( -1.000000000000000000, -0.000000000000000000, -0.000000000000000000 ) ) ;
#298 = CARTESIAN_POINT ( 'NONE',  ( -19.59999999999999787, 8.000000000000001776, 15.99999999999999645 ) ) ;
#299 = ORIENTED_EDGE ( 'NONE', *, *, #402, .F. ) ;
#300 = AXIS2_PLACEMENT_3D ( 'NONE', #1196, #1006, #915 ) ;
#301 = AXIS2_PLACEMENT_3D ( 'NONE', #891, #297, #697 ) ;
#302 = CARTESIAN_POINT ( 'NONE',  ( -21.60000000000000142, -15.59999999999999964, 18.00000000000000000 ) ) ;
#303 = ADVANCED_FACE ( 'NONE', ( #1105 ), #600, .F. ) ;
#304 = FACE_OUTER_BOUND ( 'NONE', #1101, .T. ) ;
#305 = CARTESIAN_POINT ( 'NONE',  ( 19.60000000000000142, 17.60000000000000142, 18.00000000000000000 ) ) ;
#306 = ORIENTED_EDGE ( 'NONE', *, *, #739, .F. ) ;
#307 = EDGE_CURVE ( 'NONE', #753, #382, #999, .T. ) ;
#308 = DIRECTION ( 'NONE',  ( -0.000000000000000000, -1.000000000000000000, -0.000000000000000000 ) ) ;
#309 = EDGE_CURVE ( 'NONE', #465, #1259, #1057, .T. ) ;
#310 = PLANE ( 'NONE',  #756 ) ;
#311 = LINE ( 'NONE', #922, #720 ) ;
#312 = ORIENTED_EDGE ( 'NONE', *, *, #262, .T. ) ;
#313 = EDGE_CURVE ( 'NONE', #115, #138, #698, .T. ) ;
#314 = CARTESIAN_POINT ( 'NONE',  ( -16.60000000000000142, -9.999999999999996447, 15.99999999999999645 ) ) ;
#315 = VECTOR ( 'NONE', #587, 1000.000000000000000 ) ;
#316 = DIRECTION ( 'NONE',  ( -1.000000000000000000, -5.225070710773516221E-17, 0.000000000000000000 ) ) ;
#317 = DIRECTION ( 'NONE',  ( 1.000000000000000000, 0.000000000000000000, 0.000000000000000000 ) ) ;
#318 = EDGE_LOOP ( 'NONE', ( #478, #243, #1169, #977 ) ) ;
#319 = EDGE_CURVE ( 'NONE', #1225, #430, #405, .T. ) ;
#320 = ADVANCED_FACE ( 'NONE', ( #417, #799 ), #612, .T. ) ;
#321 = CARTESIAN_POINT ( 'NONE',  ( 21.59999999999999787, 10.00000000000000000, 17.99999999999998934 ) ) ;
#322 = CARTESIAN_POINT ( 'NONE',  ( 19.60000000000000142, 17.60000000000000142, 18.00000000000000000 ) ) ;
#323 = CYLINDRICAL_SURFACE ( 'NONE', #112, 2.000000000000000000 ) ;
#324 = EDGE_LOOP ( 'NONE', ( #459, #944 ) ) ;
#325 = DIRECTION ( 'NONE',  ( -1.000000000000000000, -9.856383386231858827E-17, -0.000000000000000000 ) ) ;
#326 = VECTOR ( 'NONE', #816, 1000.000000000000000 ) ;
#327 = AXIS2_PLACEMENT_3D ( 'NONE', #1109, #591, #990 ) ;
#328 = PLANE ( 'NONE',  #3 ) ;
#329 = DIRECTION ( 'NONE',  ( 1.000000000000000000, 0.000000000000000000, 0.000000000000000000 ) ) ;
#330 = ORIENTED_EDGE ( 'NONE', *, *, #497, .T. ) ;
#331 = CARTESIAN_POINT ( 'NONE',  ( 18.59999999999999787, -10.00000000000000000, 13.99999999999998934 ) ) ;
#332 = PRESENTATION_LAYER_ASSIGNMENT (  '', '', ( #566 ) ) ;
#333 = CARTESIAN_POINT ( 'NONE',  ( -16.60000000000000142, 9.099999999999997868, 18.00000000000000000 ) ) ;
#334 =( NAMED_UNIT ( * ) PLANE_ANGLE_UNIT ( ) SI_UNIT ( $, .RADIAN. ) );
#335 = VERTEX_POINT ( 'NONE', #622 ) ;
#336 = ORIENTED_EDGE ( 'NONE', *, *, #943, .T. ) ;
#337 = CARTESIAN_POINT ( 'NONE',  ( 16.60000000000000142, 12.60000000000000142, 18.00000000000000000 ) ) ;
#338 = DIRECTION ( 'NONE',  ( 0.7071067811865437980, 0.000000000000000000, -0.7071067811865513475 ) ) ;
#339 = AXIS2_PLACEMENT_3D ( 'NONE', #504, #526, #896 ) ;
#340 = CYLINDRICAL_SURFACE ( 'NONE', #377, 2.000000000000000000 ) ;
#341 = EDGE_LOOP ( 'NONE', ( #56, #984 ) ) ;
#342 = VERTEX_POINT ( 'NONE', #1011 ) ;
#343 = CARTESIAN_POINT ( 'NONE',  ( 16.60000000000000142, -12.59999999999999787, 18.00000000000000000 ) ) ;
#344 = ADVANCED_FACE ( 'NONE', ( #104 ), #323, .F. ) ;
#345 = CARTESIAN_POINT ( 'NONE',  ( -21.60000000000000142, -17.60000000000000142, 5.000000000000087930 ) ) ;
#346 = FACE_OUTER_BOUND ( 'NONE', #359, .T. ) ;
#347 = AXIS2_PLACEMENT_3D ( 'NONE', #1268, #980, #1068 ) ;
#348 = CARTESIAN_POINT ( 'NONE',  ( -19.59999999999999787, 10.75000000000000533, 15.99999999999999645 ) ) ;
#349 = VERTEX_POINT ( 'NONE', #703 ) ;
#350 = VERTEX_POINT ( 'NONE', #607 ) ;
#351 = ADVANCED_FACE ( 'NONE', ( #1022 ), #1100, .F. ) ;
#352 = CARTESIAN_POINT ( 'NONE',  ( -19.59999999999999787, 10.00000000000000355, 15.99999999999999645 ) ) ;
#353 = ORIENTED_EDGE ( 'NONE', *, *, #1013, .F. ) ;
#354 = CARTESIAN_POINT ( 'NONE',  ( -21.60000000000000142, 9.099999999999997868, 5.000000000000086153 ) ) ;
#355 = PLANE ( 'NONE',  #918 ) ;
#356 = FACE_OUTER_BOUND ( 'NONE', #164, .T. ) ;
#357 = ORIENTED_EDGE ( 'NONE', *, *, #45, .F. ) ;
#358 = VECTOR ( 'NONE', #398, 1000.000000000000000 ) ;
#359 = EDGE_LOOP ( 'NONE', ( #54, #658, #450, #330 ) ) ;
#360 = EDGE_LOOP ( 'NONE', ( #260, #1083, #1126, #395 ) ) ;
#361 = CARTESIAN_POINT ( 'NONE',  ( -19.59999999999999787, -9.999999999999998224, 15.99999999999999645 ) ) ;
#362 = LINE ( 'NONE', #966, #16 ) ;
#363 = FILL_AREA_STYLE_COLOUR ( '', #401 ) ;
#364 = ORIENTED_EDGE ( 'NONE', *, *, #449, .T. ) ;
#365 = VECTOR ( 'NONE', #240, 1000.000000000000000 ) ;
#366 = ADVANCED_FACE ( 'NONE', ( #207 ), #120, .F. ) ;
#367 = AXIS2_PLACEMENT_3D ( 'NONE', #49, #819, #920 ) ;
#368 = ORIENTED_EDGE ( 'NONE', *, *, #812, .T. ) ;
#369 = CYLINDRICAL_SURFACE ( 'NONE', #1102, 0.7500000000000006661 ) ;
#370 = PLANE ( 'NONE',  #347 ) ;
#371 = DIRECTION ( 'NONE',  ( -0.000000000000000000, -0.000000000000000000, 1.000000000000000000 ) ) ;
#372 = CARTESIAN_POINT ( 'NONE',  ( -18.59999999999999787, 9.099999999999997868, 2.000000000000050626 ) ) ;
#373 = AXIS2_PLACEMENT_3D ( 'NONE', #296, #1003, #701 ) ;
#374 = ORIENTED_EDGE ( 'NONE', *, *, #1197, .F. ) ;
#375 = ORIENTED_EDGE ( 'NONE', *, *, #1226, .T. ) ;
#376 = ORIENTED_EDGE ( 'NONE', *, *, #309, .F. ) ;
#377 = AXIS2_PLACEMENT_3D ( 'NONE', #929, #464, #637 ) ;
#378 = FACE_OUTER_BOUND ( 'NONE', #835, .T. ) ;
#379 = EDGE_CURVE ( 'NONE', #738, #492, #234, .T. ) ;
#380 = CARTESIAN_POINT ( 'NONE',  ( -19.60000000000001563, -17.60000000000000142, 18.00000000000000000 ) ) ;
#381 = DIRECTION ( 'NONE',  ( 0.000000000000000000, 1.000000000000000000, 0.000000000000000000 ) ) ;
#382 = VERTEX_POINT ( 'NONE', #1294 ) ;
#383 = FACE_OUTER_BOUND ( 'NONE', #754, .T. ) ;
#384 = DIRECTION ( 'NONE',  ( -1.000000000000000000, -9.856383386231858827E-17, 0.000000000000000000 ) ) ;
#385 = DIRECTION ( 'NONE',  ( -0.000000000000000000, -0.000000000000000000, 1.000000000000000000 ) ) ;
#386 = DIRECTION ( 'NONE',  ( 0.000000000000000000, -1.000000000000000000, 0.000000000000000000 ) ) ;
#387 = ORIENTED_EDGE ( 'NONE', *, *, #93, .F. ) ;
#388 = VECTOR ( 'NONE', #533, 1000.000000000000000 ) ;
#389 = DIRECTION ( 'NONE',  ( -0.000000000000000000, 0.000000000000000000, 1.000000000000000000 ) ) ;
#390 = EDGE_CURVE ( 'NONE', #673, #1214, #109, .T. ) ;
#391 = FACE_OUTER_BOUND ( 'NONE', #500, .T. ) ;
#392 = DIRECTION ( 'NONE',  ( -0.000000000000000000, -0.000000000000000000, 1.000000000000000000 ) ) ;
#393 = AXIS2_PLACEMENT_3D ( 'NONE', #687, #759, #1081 ) ;
#394 = AXIS2_PLACEMENT_3D ( 'NONE', #200, #95, #421 ) ;
#395 = ORIENTED_EDGE ( 'NONE', *, *, #402, .T. ) ;
#396 = VECTOR ( 'NONE', #585, 1000.000000000000000 ) ;
#397 = DIRECTION ( 'NONE',  ( 0.000000000000000000, 1.000000000000000000, 0.000000000000000000 ) ) ;
#398 = DIRECTION ( 'NONE',  ( 0.000000000000000000, 1.000000000000000000, 0.000000000000000000 ) ) ;
#399 = CARTESIAN_POINT ( 'NONE',  ( 18.59999999999999787, -10.00000000000000000, 15.99999999999998934 ) ) ;
#400 = ORIENTED_EDGE ( 'NONE', *, *, #319, .T. ) ;
#401 = COLOUR_RGB ( '',0.7921568627450980005, 0.8196078431372548767, 0.9333333333333333481 ) ;
#402 = EDGE_CURVE ( 'NONE', #94, #335, #860, .T. ) ;
#403 = CARTESIAN_POINT ( 'NONE',  ( 21.59999999999999787, 15.59999999999999609, 5.000000000000004441 ) ) ;
#404 = DIRECTION ( 'NONE',  ( 1.000000000000000000, 0.000000000000000000, 0.000000000000000000 ) ) ;
#405 = LINE ( 'NONE', #5, #472 ) ;
#406 = EDGE_CURVE ( 'NONE', #553, #467, #1132, .T. ) ;
#407 = ORIENTED_EDGE ( 'NONE', *, *, #627, .T. ) ;
#408 = ADVANCED_FACE ( 'NONE', ( #1228 ), #144, .F. ) ;
#409 = AXIS2_PLACEMENT_3D ( 'NONE', #1038, #530, #548 ) ;
#410 = AXIS2_PLACEMENT_3D ( 'NONE', #97, #520, #1280 ) ;
#411 = LINE ( 'NONE', #1114, #997 ) ;
#412 = DIRECTION ( 'NONE',  ( 1.000000000000000000, 0.000000000000000000, 0.000000000000000000 ) ) ;
#413 = CARTESIAN_POINT ( 'NONE',  ( -19.59999999999999787, -9.999999999999996447, 15.99999999999999645 ) ) ;
#414 = ORIENTED_EDGE ( 'NONE', *, *, #283, .F. ) ;
#415 = LINE ( 'NONE', #797, #1224 ) ;
#416 = CARTESIAN_POINT ( 'NONE',  ( 0.000000000000000000, 0.000000000000000000, 18.00000000000000000 ) ) ;
#417 = FACE_BOUND ( 'NONE', #1072, .T. ) ;
#418 = EDGE_CURVE ( 'NONE', #179, #1192, #159, .T. ) ;
#419 = ADVANCED_FACE ( 'NONE', ( #346 ), #838, .F. ) ;
#420 = VERTEX_POINT ( 'NONE', #246 ) ;
#421 = DIRECTION ( 'NONE',  ( 0.000000000000000000, 0.000000000000000000, -1.000000000000000000 ) ) ;
#422 = VECTOR ( 'NONE', #766, 1000.000000000000000 ) ;
#423 = CARTESIAN_POINT ( 'NONE',  ( 18.59999999999999787, 10.00000000000000000, 17.99999999999998934 ) ) ;
#424 = DIRECTION ( 'NONE',  ( -0.000000000000000000, -0.000000000000000000, 1.000000000000000000 ) ) ;
#425 = ORIENTED_EDGE ( 'NONE', *, *, #737, .F. ) ;
#426 = PLANE ( 'NONE',  #993 ) ;
#427 = FACE_OUTER_BOUND ( 'NONE', #641, .T. ) ;
#428 = DIRECTION ( 'NONE',  ( 0.000000000000000000, 0.000000000000000000, -1.000000000000000000 ) ) ;
#429 = CIRCLE ( 'NONE', #596, 0.7500000000000024425 ) ;
#430 = VERTEX_POINT ( 'NONE', #833 ) ;
#431 = PLANE ( 'NONE',  #367 ) ;
#432 = VECTOR ( 'NONE', #1094, 1000.000000000000000 ) ;
#433 = VECTOR ( 'NONE', #308, 1000.000000000000000 ) ;
#434 = DIRECTION ( 'NONE',  ( 1.000000000000000000, -0.000000000000000000, -0.000000000000000000 ) ) ;
#435 = SURFACE_STYLE_USAGE ( .BOTH. , #39 ) ;
#436 = ORIENTED_EDGE ( 'NONE', *, *, #916, .T. ) ;
#437 = EDGE_LOOP ( 'NONE', ( #917, #689 ) ) ;
#438 = EDGE_CURVE ( 'NONE', #473, #569, #635, .T. ) ;
#439 = CARTESIAN_POINT ( 'NONE',  ( -19.59999999999999787, 10.00000000000000355, 15.99999999999999645 ) ) ;
#440 = DIRECTION ( 'NONE',  ( -0.7071067811865493491, -0.7071067811865456854, -0.000000000000000000 ) ) ;
#441 = FACE_OUTER_BOUND ( 'NONE', #457, .T. ) ;
#442 = DIRECTION ( 'NONE',  ( -1.000000000000000000, 0.000000000000000000, 0.000000000000000000 ) ) ;
#443 = EDGE_CURVE ( 'NONE', #543, #64, #730, .T. ) ;
#444 = ORIENTED_EDGE ( 'NONE', *, *, #497, .F. ) ;
#445 = ADVANCED_FACE ( 'NONE', ( #441 ), #928, .F. ) ;
#446 = CARTESIAN_POINT ( 'NONE',  ( -16.60000000000000142, -12.60000000000000142, 0.000000000000000000 ) ) ;
#447 = DIRECTION ( 'NONE',  ( 0.5773502691896220673, -0.5773502691896269523, -0.5773502691896282846 ) ) ;
#448 = DIRECTION ( 'NONE',  ( -1.000000000000000000, -9.856383386231858827E-17, -0.000000000000000000 ) ) ;
#449 = EDGE_CURVE ( 'NONE', #746, #430, #1155, .T. ) ;
#450 = ORIENTED_EDGE ( 'NONE', *, *, #283, .T. ) ;
#451 = ORIENTED_EDGE ( 'NONE', *, *, #449, .F. ) ;
#452 = CARTESIAN_POINT ( 'NONE',  ( -16.60000000000000142, -12.60000000000000142, 18.00000000000000000 ) ) ;
#453 = EDGE_LOOP ( 'NONE', ( #400, #1142, #829, #479, #466, #946 ) ) ;
#454 = CARTESIAN_POINT ( 'NONE',  ( 16.60000000000000142, -12.59999999999999787, 18.00000000000000000 ) ) ;
#455 = AXIS2_PLACEMENT_3D ( 'NONE', #1222, #329, #1123 ) ;
#456 = DIRECTION ( 'NONE',  ( 0.000000000000000000, 0.000000000000000000, -1.000000000000000000 ) ) ;
#457 = EDGE_LOOP ( 'NONE', ( #1165, #506, #276, #959 ) ) ;
#458 = EDGE_CURVE ( 'NONE', #382, #1064, #1238, .T. ) ;
#459 = ORIENTED_EDGE ( 'NONE', *, *, #586, .F. ) ;
#460 = ORIENTED_EDGE ( 'NONE', *, *, #916, .F. ) ;
#461 = DIRECTION ( 'NONE',  ( 9.856383386231858827E-17, -1.000000000000000000, 0.000000000000000000 ) ) ;
#462 = VECTOR ( 'NONE', #46, 1000.000000000000000 ) ;
#463 = FACE_OUTER_BOUND ( 'NONE', #48, .T. ) ;
#464 = DIRECTION ( 'NONE',  ( 1.000000000000000000, -0.000000000000000000, -0.000000000000000000 ) ) ;
#465 = VERTEX_POINT ( 'NONE', #735 ) ;
#466 = ORIENTED_EDGE ( 'NONE', *, *, #1000, .T. ) ;
#467 = VERTEX_POINT ( 'NONE', #1139 ) ;
#468 = CARTESIAN_POINT ( 'NONE',  ( 18.59999999999999787, -10.00000000000000000, 15.99999999999998934 ) ) ;
#469 = LINE ( 'NONE', #1163, #194 ) ;
#470 = DIRECTION ( 'NONE',  ( 0.000000000000000000, 0.000000000000000000, 1.000000000000000000 ) ) ;
#471 = ORIENTED_EDGE ( 'NONE', *, *, #18, .F. ) ;
#472 = VECTOR ( 'NONE', #805, 1000.000000000000000 ) ;
#473 = VERTEX_POINT ( 'NONE', #333 ) ;
#474 = ORIENTED_EDGE ( 'NONE', *, *, #1232, .F. ) ;
#475 = CARTESIAN_POINT ( 'NONE',  ( -21.60000000000000497, 17.59999999999999432, 5.000000000000087930 ) ) ;
#476 = DIRECTION ( 'NONE',  ( 0.000000000000000000, 0.000000000000000000, -1.000000000000000000 ) ) ;
#477 = CARTESIAN_POINT ( 'NONE',  ( 24.59999999999997300, 12.60000000000000675, 7.999999999999967137 ) ) ;
#478 = ORIENTED_EDGE ( 'NONE', *, *, #1091, .T. ) ;
#479 = ORIENTED_EDGE ( 'NONE', *, *, #390, .T. ) ;
#480 = ORIENTED_EDGE ( 'NONE', *, *, #438, .F. ) ;
#481 = PRODUCT_DEFINITION_FORMATION_WITH_SPECIFIED_SOURCE ( 'ANY', '', #1175, .NOT_KNOWN. ) ;
#482 = LINE ( 'NONE', #852, #559 ) ;
#483 = DIRECTION ( 'NONE',  ( 0.000000000000000000, 0.000000000000000000, -1.000000000000000000 ) ) ;
#484 = CARTESIAN_POINT ( 'NONE',  ( -21.60000000000000497, 15.60000000000000675, 23.00000000000000000 ) ) ;
#485 = AXIS2_PLACEMENT_3D ( 'NONE', #781, #692, #108 ) ;
#486 = VERTEX_POINT ( 'NONE', #29 ) ;
#487 = ADVANCED_FACE ( 'NONE', ( #1249, #1240 ), #821, .T. ) ;
#488 = CARTESIAN_POINT ( 'NONE',  ( 16.60000000000000142, 10.00000000000000000, 15.99999999999998934 ) ) ;
#489 = CARTESIAN_POINT ( 'NONE',  ( -21.60000000000000142, -15.59999999999999964, 5.000000000000087930 ) ) ;
#490 = LINE ( 'NONE', #885, #851 ) ;
#491 = EDGE_CURVE ( 'NONE', #1029, #204, #955, .T. ) ;
#492 = VERTEX_POINT ( 'NONE', #228 ) ;
#493 = CIRCLE ( 'NONE', #757, 0.7500000000000024425 ) ;
#494 = CARTESIAN_POINT ( 'NONE',  ( -19.59999999999999787, -11.99999999999999822, 15.99999999999999645 ) ) ;
#495 = CARTESIAN_POINT ( 'NONE',  ( -21.60000000000000497, 15.60000000000000675, 18.00000000000000000 ) ) ;
#496 = DIRECTION ( 'NONE',  ( -1.000000000000000000, -9.856383386231858827E-17, -0.000000000000000000 ) ) ;
#497 = EDGE_CURVE ( 'NONE', #1048, #134, #647, .T. ) ;
#498 = AXIS2_PLACEMENT_3D ( 'NONE', #1263, #293, #386 ) ;
#499 = CIRCLE ( 'NONE', #764, 0.7500000000000024425 ) ;
#500 = EDGE_LOOP ( 'NONE', ( #1008, #563, #904, #762 ) ) ;
#501 = ADVANCED_FACE ( 'NONE', ( #725, #1045, #152 ), #233, .T. ) ;
#502 = LINE ( 'NONE', #211, #557 ) ;
#503 = CARTESIAN_POINT ( 'NONE',  ( 18.59999999999999787, 10.00000000000000000, 15.99999999999998934 ) ) ;
#504 = CARTESIAN_POINT ( 'NONE',  ( -11.60000000000000142, 10.00000000000000355, 15.99999999999999645 ) ) ;
#505 = EDGE_CURVE ( 'NONE', #579, #537, #653, .T. ) ;
#506 = ORIENTED_EDGE ( 'NONE', *, *, #514, .F. ) ;
#507 = DIRECTION ( 'NONE',  ( 0.000000000000000000, 0.000000000000000000, -1.000000000000000000 ) ) ;
#508 = DIRECTION ( 'NONE',  ( 0.000000000000000000, 0.000000000000000000, -1.000000000000000000 ) ) ;
#509 = CARTESIAN_POINT ( 'NONE',  ( 21.59999999999999787, -17.59999999999999787, 5.000000000000004441 ) ) ;
#510 = EDGE_LOOP ( 'NONE', ( #1209, #841, #1266, #451, #353, #71, #719, #919, #657, #960, #306, #714 ) ) ;
#511 = AXIS2_PLACEMENT_3D ( 'NONE', #1235, #827, #44 ) ;
#512 = EDGE_CURVE ( 'NONE', #1225, #215, #482, .T. ) ;
#513 = FACE_OUTER_BOUND ( 'NONE', #1282, .T. ) ;
#514 = EDGE_CURVE ( 'NONE', #684, #979, #910, .T. ) ;
#515 = DIRECTION ( 'NONE',  ( 0.000000000000000000, 0.000000000000000000, -1.000000000000000000 ) ) ;
#516 = CARTESIAN_POINT ( 'NONE',  ( 11.59999999999999787, -10.00000000000000000, 16.74999999999998934 ) ) ;
#517 = ORIENTED_EDGE ( 'NONE', *, *, #45, .T. ) ;
#518 = AXIS2_PLACEMENT_3D ( 'NONE', #786, #58, #971 ) ;
#519 = DIRECTION ( 'NONE',  ( 0.000000000000000000, -1.000000000000000000, 0.000000000000000000 ) ) ;
#520 = DIRECTION ( 'NONE',  ( -1.000000000000000000, 0.000000000000000000, 0.000000000000000000 ) ) ;
#521 = DIRECTION ( 'NONE',  ( 0.000000000000000000, 0.000000000000000000, -1.000000000000000000 ) ) ;
#522 = ORIENTED_EDGE ( 'NONE', *, *, #583, .F. ) ;
#523 = PLANE ( 'NONE',  #818 ) ;
#524 = AXIS2_PLACEMENT_3D ( 'NONE', #981, #581, #560 ) ;
#525 = DIRECTION ( 'NONE',  ( -1.000000000000000000, -9.856383386231858827E-17, -0.000000000000000000 ) ) ;
#526 = DIRECTION ( 'NONE',  ( -1.000000000000000000, -9.856383386231858827E-17, -0.000000000000000000 ) ) ;
#527 = ORIENTED_EDGE ( 'NONE', *, *, #76, .T. ) ;
#528 = CARTESIAN_POINT ( 'NONE',  ( -16.59999999999995879, 17.59999999999999787, 0.000000000000000000 ) ) ;
#529 = CARTESIAN_POINT ( 'NONE',  ( -19.59999999999999787, -10.75000000000000000, 15.99999999999999645 ) ) ;
#530 = DIRECTION ( 'NONE',  ( -1.000000000000000000, -9.856383386231858827E-17, 0.000000000000000000 ) ) ;
#531 = EDGE_LOOP ( 'NONE', ( #1246, #460, #165, #61, #425, #855, #936, #522 ) ) ;
#532 = EDGE_CURVE ( 'NONE', #979, #575, #1074, .T. ) ;
#533 = DIRECTION ( 'NONE',  ( -0.000000000000000000, 1.000000000000000000, -0.000000000000000000 ) ) ;
#534 = EDGE_CURVE ( 'NONE', #850, #727, #662, .T. ) ;
#535 =( NAMED_UNIT ( * ) SI_UNIT ( $, .STERADIAN. ) SOLID_ANGLE_UNIT ( ) );
#536 = DIRECTION ( 'NONE',  ( -0.000000000000000000, 1.000000000000000000, 0.000000000000000000 ) ) ;
#537 = VERTEX_POINT ( 'NONE', #291 ) ;
#538 = ADVANCED_FACE ( 'NONE', ( #378 ), #956, .T. ) ;
#539 = DIRECTION ( 'NONE',  ( 1.000000000000000000, -0.000000000000000000, -0.000000000000000000 ) ) ;
#540 = ADVANCED_FACE ( 'NONE', ( #964, #1170 ), #370, .T. ) ;
#541 = DIRECTION ( 'NONE',  ( -1.000000000000000000, -0.000000000000000000, -0.000000000000000000 ) ) ;
#542 = LINE ( 'NONE', #941, #462 ) ;
#543 = VERTEX_POINT ( 'NONE', #75 ) ;
#544 = ORIENTED_EDGE ( 'NONE', *, *, #609, .T. ) ;
#545 = LINE ( 'NONE', #452, #1051 ) ;
#546 = ORIENTED_EDGE ( 'NONE', *, *, #618, .F. ) ;
#547 = EDGE_CURVE ( 'NONE', #1064, #382, #118, .T. ) ;
#548 = DIRECTION ( 'NONE',  ( 0.000000000000000000, -1.000000000000000000, 0.000000000000000000 ) ) ;
#549 = ADVANCED_FACE ( 'NONE', ( #84 ), #580, .F. ) ;
#550 = CIRCLE ( 'NONE', #1279, 2.000000000000000000 ) ;
#551 = CARTESIAN_POINT ( 'NONE',  ( 21.59999999999999787, 10.00000000000000000, 15.99999999999998934 ) ) ;
#552 = ORIENTED_EDGE ( 'NONE', *, *, #1002, .F. ) ;
#553 = VERTEX_POINT ( 'NONE', #1177 ) ;
#554 = DIRECTION ( 'NONE',  ( 0.000000000000000000, -1.000000000000000000, 0.000000000000000000 ) ) ;
#555 = ORIENTED_EDGE ( 'NONE', *, *, #458, .T. ) ;
#556 = VECTOR ( 'NONE', #1191, 1000.000000000000000 ) ;
#557 = VECTOR ( 'NONE', #1009, 1000.000000000000000 ) ;
#558 = CARTESIAN_POINT ( 'NONE',  ( 16.60000000000000142, 10.00000000000000000, 15.99999999999998934 ) ) ;
#559 = VECTOR ( 'NONE', #195, 1000.000000000000000 ) ;
#560 = DIRECTION ( 'NONE',  ( 0.000000000000000000, -1.000000000000000000, 0.000000000000000000 ) ) ;
#561 = PLANE ( 'NONE',  #171 ) ;
#562 = EDGE_LOOP ( 'NONE', ( #1252, #1077 ) ) ;
#563 = ORIENTED_EDGE ( 'NONE', *, *, #222, .T. ) ;
#564 = ORIENTED_EDGE ( 'NONE', *, *, #167, .T. ) ;
#565 = FACE_OUTER_BOUND ( 'NONE', #700, .T. ) ;
#566 = STYLED_ITEM ( 'NONE', ( #257 ), #62 ) ;
#567 = CARTESIAN_POINT ( 'NONE',  ( 18.59999999999999787, -10.00000000000000000, 15.24999999999998934 ) ) ;
#568 = CARTESIAN_POINT ( 'NONE',  ( -21.60000000000000142, -9.100000000000003197, 5.000000000000087930 ) ) ;
#569 = VERTEX_POINT ( 'NONE', #280 ) ;
#570 = ORIENTED_EDGE ( 'NONE', *, *, #379, .T. ) ;
#571 = EDGE_LOOP ( 'NONE', ( #387, #357, #761, #253 ) ) ;
#572 = DIRECTION ( 'NONE',  ( -1.000000000000000000, -8.031127203596329369E-17, 0.000000000000000000 ) ) ;
#573 = CARTESIAN_POINT ( 'NONE',  ( 25.93333333333334423, -11.26666666666668526, 9.333333333333330373 ) ) ;
#574 = DIRECTION ( 'NONE',  ( -1.000000000000000000, -9.856383386231858827E-17, 0.000000000000000000 ) ) ;
#575 = VERTEX_POINT ( 'NONE', #1188 ) ;
#576 = AXIS2_PLACEMENT_3D ( 'NONE', #1033, #536, #38 ) ;
#577 = AXIS2_PLACEMENT_3D ( 'NONE', #37, #1234, #927 ) ;
#578 = ORIENTED_EDGE ( 'NONE', *, *, #877, .F. ) ;
#579 = VERTEX_POINT ( 'NONE', #1084 ) ;
#580 = CYLINDRICAL_SURFACE ( 'NONE', #518, 2.000000000000000000 ) ;
#581 = DIRECTION ( 'NONE',  ( -1.000000000000000000, -9.856383386231858827E-17, 0.000000000000000000 ) ) ;
#582 = CARTESIAN_POINT ( 'NONE',  ( -21.60000000000000497, -15.59999999999999609, 23.00000000000000000 ) ) ;
#583 = EDGE_CURVE ( 'NONE', #849, #673, #189, .T. ) ;
#584 = ORIENTED_EDGE ( 'NONE', *, *, #1082, .F. ) ;
#585 = DIRECTION ( 'NONE',  ( -1.000000000000000000, -9.856383386231858827E-17, -0.000000000000000000 ) ) ;
#586 = EDGE_CURVE ( 'NONE', #467, #553, #844, .T. ) ;
#587 = DIRECTION ( 'NONE',  ( 0.7071067811865437980, 5.678864506234689859E-17, -0.7071067811865513475 ) ) ;
#588 = DIRECTION ( 'NONE',  ( -1.000000000000000000, 0.000000000000000000, 0.000000000000000000 ) ) ;
#589 = CIRCLE ( 'NONE', #1213, 0.7500000000000006661 ) ;
#590 = ORIENTED_EDGE ( 'NONE', *, *, #1244, .T. ) ;
#591 = DIRECTION ( 'NONE',  ( -1.000000000000000000, 0.000000000000000000, 0.000000000000000000 ) ) ;
#592 = CARTESIAN_POINT ( 'NONE',  ( 21.59999999999999787, -15.60000000000000320, 18.00000000000000000 ) ) ;
#593 = CARTESIAN_POINT ( 'NONE',  ( -11.60000000000000142, -10.75000000000000000, 15.99999999999999645 ) ) ;
#594 = VECTOR ( 'NONE', #606, 1000.000000000000000 ) ;
#595 = EDGE_LOOP ( 'NONE', ( #1019, #10, #1066, #1050 ) ) ;
#596 = AXIS2_PLACEMENT_3D ( 'NONE', #843, #863, #483 ) ;
#597 = PLANE ( 'NONE',  #327 ) ;
#598 = ADVANCED_FACE ( 'NONE', ( #565, #1274 ), #286, .T. ) ;
#599 = DIRECTION ( 'NONE',  ( 0.000000000000000000, 0.000000000000000000, -1.000000000000000000 ) ) ;
#600 = CYLINDRICAL_SURFACE ( 'NONE', #1167, 2.000000000000000000 ) ;
#601 = VECTOR ( 'NONE', #265, 1000.000000000000000 ) ;
#602 = CIRCLE ( 'NONE', #373, 2.000000000000000000 ) ;
#603 = ORIENTED_EDGE ( 'NONE', *, *, #583, .T. ) ;
#604 = DIRECTION ( 'NONE',  ( 1.000000000000000000, 8.031127203596329369E-17, -0.000000000000000000 ) ) ;
#605 = AXIS2_PLACEMENT_3D ( 'NONE', #939, #1138, #227 ) ;
#606 = DIRECTION ( 'NONE',  ( -0.000000000000000000, -1.000000000000000000, -0.000000000000000000 ) ) ;
#607 = CARTESIAN_POINT ( 'NONE',  ( -19.59999999999999787, 12.00000000000000178, 15.99999999999999645 ) ) ;
#608 = ORIENTED_EDGE ( 'NONE', *, *, #965, .F. ) ;
#609 = EDGE_CURVE ( 'NONE', #1158, #850, #676, .T. ) ;
#610 = CARTESIAN_POINT ( 'NONE',  ( 21.59999999999999787, -17.59999999999999787, 0.000000000000000000 ) ) ;
#611 = PLANE ( 'NONE',  #861 ) ;
#612 = PLANE ( 'NONE',  #72 ) ;
#613 = ORIENTED_EDGE ( 'NONE', *, *, #188, .T. ) ;
#614 = DIRECTION ( 'NONE',  ( 0.000000000000000000, -1.000000000000000000, 0.000000000000000000 ) ) ;
#615 = CARTESIAN_POINT ( 'NONE',  ( 21.59999999999999787, -15.60000000000000320, 18.00000000000000000 ) ) ;
#616 = CARTESIAN_POINT ( 'NONE',  ( 18.59999999999999787, -10.00000000000000000, 15.99999999999998934 ) ) ;
#617 = VERTEX_POINT ( 'NONE', #780 ) ;
#618 = EDGE_CURVE ( 'NONE', #204, #858, #685, .T. ) ;
#619 = VECTOR ( 'NONE', #767, 1000.000000000000000 ) ;
#620 = AXIS2_PLACEMENT_3D ( 'NONE', #273, #384, #461 ) ;
#621 = FACE_OUTER_BOUND ( 'NONE', #867, .T. ) ;
#622 = CARTESIAN_POINT ( 'NONE',  ( -21.60000000000000142, 12.00000000000000178, 15.99999999999999645 ) ) ;
#623 = EDGE_LOOP ( 'NONE', ( #237, #1198, #897, #1143 ) ) ;
#624 = AXIS2_PLACEMENT_3D ( 'NONE', #1270, #880, #588 ) ;
#625 = DIRECTION ( 'NONE',  ( 0.000000000000000000, -1.000000000000000000, 0.000000000000000000 ) ) ;
#626 = CARTESIAN_POINT ( 'NONE',  ( -18.59999999999999787, -9.100000000000003197, 18.00000000000000000 ) ) ;
#627 = EDGE_CURVE ( 'NONE', #342, #1158, #89, .T. ) ;
#628 = FACE_OUTER_BOUND ( 'NONE', #650, .T. ) ;
#629 = ORIENTED_EDGE ( 'NONE', *, *, #140, .T. ) ;
#630 = ADVANCED_FACE ( 'NONE', ( #690 ), #263, .T. ) ;
#631 = FACE_OUTER_BOUND ( 'NONE', #976, .T. ) ;
#632 = AXIS2_PLACEMENT_3D ( 'NONE', #399, #794, #521 ) ;
#633 = CIRCLE ( 'NONE', #301, 0.7500000000000006661 ) ;
#634 = PLANE ( 'NONE',  #577 ) ;
#635 = LINE ( 'NONE', #948, #131 ) ;
#636 = ADVANCED_FACE ( 'NONE', ( #792 ), #913, .F. ) ;
#637 = DIRECTION ( 'NONE',  ( 0.000000000000000000, 0.000000000000000000, -1.000000000000000000 ) ) ;
#638 = EDGE_LOOP ( 'NONE', ( #772, #817 ) ) ;
#639 = DIRECTION ( 'NONE',  ( -0.5773502691896246208, -0.5773502691896216232, 0.5773502691896309491 ) ) ;
#640 = DIRECTION ( 'NONE',  ( -1.000000000000000000, -9.856383386231858827E-17, 0.000000000000000000 ) ) ;
#641 = EDGE_LOOP ( 'NONE', ( #923, #1248, #1056, #436 ) ) ;
#642 = ORIENTED_EDGE ( 'NONE', *, *, #1232, .T. ) ;
#643 = EDGE_CURVE ( 'NONE', #349, #673, #1014, .T. ) ;
#644 = DIRECTION ( 'NONE',  ( -1.000000000000000000, -8.031127203596329369E-17, 0.000000000000000000 ) ) ;
#645 = EDGE_CURVE ( 'NONE', #115, #209, #502, .T. ) ;
#646 = APPLICATION_PROTOCOL_DEFINITION ( 'draft international standard', 'automotive_design', 1998, #1061 ) ;
#647 = LINE ( 'NONE', #626, #1119 ) ;
#648 = VECTOR ( 'NONE', #287, 1000.000000000000000 ) ;
#649 = ORIENTED_EDGE ( 'NONE', *, *, #505, .T. ) ;
#650 = EDGE_LOOP ( 'NONE', ( #970, #942, #1166, #811 ) ) ;
#651 = LINE ( 'NONE', #1152, #259 ) ;
#652 = ORIENTED_EDGE ( 'NONE', *, *, #1187, .F. ) ;
#653 = LINE ( 'NONE', #1052, #1189 ) ;
#654 = AXIS2_PLACEMENT_3D ( 'NONE', #239, #325, #1136 ) ;
#655 = DIRECTION ( 'NONE',  ( 0.000000000000000000, 0.000000000000000000, -1.000000000000000000 ) ) ;
#656 = FACE_BOUND ( 'NONE', #1243, .T. ) ;
#657 = ORIENTED_EDGE ( 'NONE', *, *, #1150, .T. ) ;
#658 = ORIENTED_EDGE ( 'NONE', *, *, #254, .T. ) ;
#659 = ORIENTED_EDGE ( 'NONE', *, *, #1130, .T. ) ;
#660 = VECTOR ( 'NONE', #392, 1000.000000000000000 ) ;
#661 = AXIS2_PLACEMENT_3D ( 'NONE', #710, #808, #205 ) ;
#662 = LINE ( 'NONE', #475, #223 ) ;
#663 = FACE_BOUND ( 'NONE', #954, .T. ) ;
#664 = LINE ( 'NONE', #1172, #53 ) ;
#665 = ORIENTED_EDGE ( 'NONE', *, *, #406, .T. ) ;
#666 = EDGE_LOOP ( 'NONE', ( #474, #629, #284, #552 ) ) ;
#667 = ORIENTED_EDGE ( 'NONE', *, *, #167, .F. ) ;
#668 = DIRECTION ( 'NONE',  ( -0.7071067811865489050, -5.678864506234730534E-17, -0.7071067811865460184 ) ) ;
#669 = EDGE_CURVE ( 'NONE', #617, #1258, #717, .T. ) ;
#670 = CARTESIAN_POINT ( 'NONE',  ( -21.60000000000000142, -17.60000000000000142, 18.00000000000000000 ) ) ;
#671 = CARTESIAN_POINT ( 'NONE',  ( -16.60000000000000142, -9.249999999999994671, 15.99999999999999645 ) ) ;
#672 = ORIENTED_EDGE ( 'NONE', *, *, #208, .F. ) ;
#673 = VERTEX_POINT ( 'NONE', #894 ) ;
#674 = ORIENTED_EDGE ( 'NONE', *, *, #669, .F. ) ;
#675 = EDGE_CURVE ( 'NONE', #1259, #465, #602, .T. ) ;
#676 = LINE ( 'NONE', #1162, #688 ) ;
#677 = EDGE_CURVE ( 'NONE', #349, #806, #411, .T. ) ;
#678 = CARTESIAN_POINT ( 'NONE',  ( -21.60000000000000142, -17.60000000000000142, 5.000000000000087930 ) ) ;
#679 = CARTESIAN_POINT ( 'NONE',  ( -16.60000000000000142, -9.100000000000003197, 18.00000000000000000 ) ) ;
#680 = AXIS2_PLACEMENT_3D ( 'NONE', #558, #136, #1027 ) ;
#681 = UNCERTAINTY_MEASURE_WITH_UNIT (LENGTH_MEASURE( 1.000000000000000082E-05 ), #834, 'distance_accuracy_value', 'NONE');
#682 = ORIENTED_EDGE ( 'NONE', *, *, #773, .F. ) ;
#683 = EDGE_CURVE ( 'NONE', #746, #138, #1, .T. ) ;
#684 = VERTEX_POINT ( 'NONE', #494 ) ;
#685 = LINE ( 'NONE', #1078, #396 ) ;
#686 = CARTESIAN_POINT ( 'NONE',  ( 18.60000000000005116, 18.59999999999995168, 23.00000000000000000 ) ) ;
#687 = CARTESIAN_POINT ( 'NONE',  ( -21.60000000000000142, -9.999999999999998224, 15.99999999999999645 ) ) ;
#688 = VECTOR ( 'NONE', #572, 1000.000000000000000 ) ;
#689 = ORIENTED_EDGE ( 'NONE', *, *, #269, .T. ) ;
#690 = FACE_OUTER_BOUND ( 'NONE', #1160, .T. ) ;
#691 = PRODUCT_RELATED_PRODUCT_CATEGORY ( 'part', '', ( #1175 ) ) ;
#692 = DIRECTION ( 'NONE',  ( -1.000000000000000000, -9.856383386231858827E-17, 0.000000000000000000 ) ) ;
#693 = LINE ( 'NONE', #593, #953 ) ;
#694 = AXIS2_PLACEMENT_3D ( 'NONE', #495, #103, #508 ) ;
#695 = EDGE_LOOP ( 'NONE', ( #376, #154, #570, #682 ) ) ;
#696 = DIRECTION ( 'NONE',  ( 0.000000000000000000, 0.000000000000000000, 1.000000000000000000 ) ) ;
#697 = DIRECTION ( 'NONE',  ( 0.000000000000000000, 0.000000000000000000, -1.000000000000000000 ) ) ;
#698 = LINE ( 'NONE', #214, #1030 ) ;
#699 =( GEOMETRIC_REPRESENTATION_CONTEXT ( 3 ) GLOBAL_UNCERTAINTY_ASSIGNED_CONTEXT ( ( #185 ) ) GLOBAL_UNIT_ASSIGNED_CONTEXT ( ( #1122, #28, #535 ) ) REPRESENTATION_CONTEXT ( 'NONE', 'WORKASPACE' ) );
#700 = EDGE_LOOP ( 'NONE', ( #961, #1231 ) ) ;
#701 = DIRECTION ( 'NONE',  ( 0.000000000000000000, 0.000000000000000000, -1.000000000000000000 ) ) ;
#702 = DIRECTION ( 'NONE',  ( 1.000000000000000000, 0.000000000000000000, 0.000000000000000000 ) ) ;
#703 = CARTESIAN_POINT ( 'NONE',  ( -16.59999999999995168, -17.60000000000000142, 0.000000000000000000 ) ) ;
#704 = VERTEX_POINT ( 'NONE', #803 ) ;
#705 = CARTESIAN_POINT ( 'NONE',  ( -19.60000000000000142, 17.59999999999999787, 3.000000000000063505 ) ) ;
#706 = CARTESIAN_POINT ( 'NONE',  ( -16.60000000000000142, -12.60000000000000142, 18.00000000000000000 ) ) ;
#707 = DIRECTION ( 'NONE',  ( -0.7071067811865493491, -0.7071067811865456854, -0.000000000000000000 ) ) ;
#708 = ORIENTED_EDGE ( 'NONE', *, *, #683, .T. ) ;
#709 = CIRCLE ( 'NONE', #1151, 0.7500000000000024425 ) ;
#710 = CARTESIAN_POINT ( 'NONE',  ( 16.60000000000000142, -10.00000000000000000, 15.99999999999998934 ) ) ;
#711 = CARTESIAN_POINT ( 'NONE',  ( -16.60000000000000142, 12.59999999999999964, 18.00000000000000000 ) ) ;
#712 = EDGE_CURVE ( 'NONE', #684, #704, #1205, .T. ) ;
#713 = DIRECTION ( 'NONE',  ( 0.000000000000000000, 0.000000000000000000, -1.000000000000000000 ) ) ;
#714 = ORIENTED_EDGE ( 'NONE', *, *, #254, .F. ) ;
#715 = CIRCLE ( 'NONE', #886, 0.7500000000000024425 ) ;
#716 = EDGE_CURVE ( 'NONE', #271, #350, #101, .T. ) ;
#717 = LINE ( 'NONE', #13, #1285 ) ;
#718 = LINE ( 'NONE', #305, #432 ) ;
#719 = ORIENTED_EDGE ( 'NONE', *, *, #534, .F. ) ;
#720 = VECTOR ( 'NONE', #707, 1000.000000000000000 ) ;
#721 = AXIS2_PLACEMENT_3D ( 'NONE', #906, #111, #519 ) ;
#722 = AXIS2_PLACEMENT_3D ( 'NONE', #876, #859, #1261 ) ;
#723 = ADVANCED_FACE ( 'NONE', ( #513 ), #597, .F. ) ;
#724 = DIRECTION ( 'NONE',  ( 8.031127203596329369E-17, -1.000000000000000000, 0.000000000000000000 ) ) ;
#725 = FACE_BOUND ( 'NONE', #562, .T. ) ;
#726 = EDGE_CURVE ( 'NONE', #1174, #806, #1090, .T. ) ;
#727 = VERTEX_POINT ( 'NONE', #705 ) ;
#728 = EDGE_CURVE ( 'NONE', #770, #64, #31, .T. ) ;
#729 = LINE ( 'NONE', #926, #201 ) ;
#730 = LINE ( 'NONE', #940, #734 ) ;
#731 = VERTEX_POINT ( 'NONE', #1210 ) ;
#732 = ORIENTED_EDGE ( 'NONE', *, *, #188, .F. ) ;
#733 = LINE ( 'NONE', #1127, #96 ) ;
#734 = VECTOR ( 'NONE', #434, 1000.000000000000000 ) ;
#735 = CARTESIAN_POINT ( 'NONE',  ( 18.59999999999999787, -10.00000000000000000, 17.99999999999998934 ) ) ;
#736 = CYLINDRICAL_SURFACE ( 'NONE', #1194, 0.7500000000000006661 ) ;
#737 = EDGE_CURVE ( 'NONE', #420, #731, #888, .T. ) ;
#738 = VERTEX_POINT ( 'NONE', #102 ) ;
#739 = EDGE_CURVE ( 'NONE', #1059, #179, #415, .T. ) ;
#740 = ORIENTED_EDGE ( 'NONE', *, *, #319, .F. ) ;
#741 = FACE_OUTER_BOUND ( 'NONE', #453, .T. ) ;
#742 = VECTOR ( 'NONE', #1060, 1000.000000000000000 ) ;
#743 = CARTESIAN_POINT ( 'NONE',  ( -24.59999999999998010, -12.59999999999999609, 8.000000000000095923 ) ) ;
#744 = DIRECTION ( 'NONE',  ( 1.000000000000000000, 0.000000000000000000, 0.000000000000000000 ) ) ;
#745 = ORIENTED_EDGE ( 'NONE', *, *, #534, .T. ) ;
#746 = VERTEX_POINT ( 'NONE', #1200 ) ;
#747 = CARTESIAN_POINT ( 'NONE',  ( 21.59999999999999787, 17.59999999999999787, 23.00000000000000000 ) ) ;
#748 = VERTEX_POINT ( 'NONE', #117 ) ;
#749 = CARTESIAN_POINT ( 'NONE',  ( 18.59999999999999787, -10.00000000000000000, 15.99999999999998934 ) ) ;
#750 = CARTESIAN_POINT ( 'NONE',  ( -19.59999999999999787, -7.999999999999998224, 15.99999999999999645 ) ) ;
#751 = CYLINDRICAL_SURFACE ( 'NONE', #795, 0.7500000000000024425 ) ;
#752 = ORIENTED_EDGE ( 'NONE', *, *, #130, .T. ) ;
#753 = VERTEX_POINT ( 'NONE', #814 ) ;
#754 = EDGE_LOOP ( 'NONE', ( #873, #1204, #865, #1095 ) ) ;
#755 = DIRECTION ( 'NONE',  ( -0.7071067811865437980, -5.678864506234689859E-17, 0.7071067811865513475 ) ) ;
#756 = AXIS2_PLACEMENT_3D ( 'NONE', #706, #991, #515 ) ;
#757 = AXIS2_PLACEMENT_3D ( 'NONE', #439, #1247, #625 ) ;
#758 = DIRECTION ( 'NONE',  ( 0.7071067811865444641, -0.7071067811865505703, 0.000000000000000000 ) ) ;
#759 = DIRECTION ( 'NONE',  ( -1.000000000000000000, -9.856383386231858827E-17, 0.000000000000000000 ) ) ;
#760 = ORIENTED_EDGE ( 'NONE', *, *, #905, .T. ) ;
#761 = ORIENTED_EDGE ( 'NONE', *, *, #1137, .T. ) ;
#762 = ORIENTED_EDGE ( 'NONE', *, *, #845, .F. ) ;
#763 = EDGE_CURVE ( 'NONE', #1035, #753, #267, .T. ) ;
#764 = AXIS2_PLACEMENT_3D ( 'NONE', #314, #1215, #507 ) ;
#765 = CARTESIAN_POINT ( 'NONE',  ( 16.59999999999997300, -15.60000000000000320, 0.000000000000000000 ) ) ;
#766 = DIRECTION ( 'NONE',  ( 9.856383386231858827E-17, -1.000000000000000000, 0.000000000000000000 ) ) ;
#767 = DIRECTION ( 'NONE',  ( -1.000000000000000000, -0.000000000000000000, -0.000000000000000000 ) ) ;
#768 = EDGE_LOOP ( 'NONE', ( #1260, #158 ) ) ;
#769 = EDGE_CURVE ( 'NONE', #204, #1029, #499, .T. ) ;
#770 = VERTEX_POINT ( 'NONE', #321 ) ;
#771 = AXIS2_PLACEMENT_3D ( 'NONE', #1241, #442, #1257 ) ;
#772 = ORIENTED_EDGE ( 'NONE', *, *, #1098, .T. ) ;
#773 = EDGE_CURVE ( 'NONE', #1259, #492, #216, .T. ) ;
#774 = PRODUCT_DEFINITION_SHAPE ( 'NONE', 'NONE',  #1283 ) ;
#775 = DIRECTION ( 'NONE',  ( 0.000000000000000000, 0.000000000000000000, -1.000000000000000000 ) ) ;
#776 = DIRECTION ( 'NONE',  ( 1.000000000000000000, 9.856383386231858827E-17, -0.000000000000000000 ) ) ;
#777 = CARTESIAN_POINT ( 'NONE',  ( -11.60000000000000142, -9.999999999999996447, 15.99999999999999645 ) ) ;
#778 = VERTEX_POINT ( 'NONE', #1121 ) ;
#779 = ORIENTED_EDGE ( 'NONE', *, *, #309, .T. ) ;
#780 = CARTESIAN_POINT ( 'NONE',  ( -16.60000000000000142, 9.250000000000001776, 15.99999999999999645 ) ) ;
#781 = CARTESIAN_POINT ( 'NONE',  ( -19.59999999999999787, 10.00000000000000178, 15.99999999999999645 ) ) ;
#782 = LINE ( 'NONE', #477, #63 ) ;
#783 = ADVANCED_FACE ( 'NONE', ( #141 ), #1031, .F. ) ;
#784 = ORIENTED_EDGE ( 'NONE', *, *, #514, .T. ) ;
#785 = EDGE_CURVE ( 'NONE', #1035, #1064, #729, .T. ) ;
#786 = CARTESIAN_POINT ( 'NONE',  ( -19.59999999999999787, -9.999999999999998224, 15.99999999999999645 ) ) ;
#787 = CIRCLE ( 'NONE', #996, 0.7500000000000024425 ) ;
#788 = FACE_OUTER_BOUND ( 'NONE', #74, .T. ) ;
#789 = LINE ( 'NONE', #1070, #556 ) ;
#790 = AXIS2_PLACEMENT_3D ( 'NONE', #749, #21, #428 ) ;
#791 = ORIENTED_EDGE ( 'NONE', *, *, #76, .F. ) ;
#792 = FACE_OUTER_BOUND ( 'NONE', #181, .T. ) ;
#793 = CARTESIAN_POINT ( 'NONE',  ( 11.59999999999999787, 10.00000000000000000, 15.99999999999998934 ) ) ;
#794 = DIRECTION ( 'NONE',  ( 1.000000000000000000, -0.000000000000000000, -0.000000000000000000 ) ) ;
#795 = AXIS2_PLACEMENT_3D ( 'NONE', #777, #988, #892 ) ;
#796 = ORIENTED_EDGE ( 'NONE', *, *, #669, .T. ) ;
#797 = CARTESIAN_POINT ( 'NONE',  ( -18.59999999999999787, -17.60000000000000142, 2.000000000000052847 ) ) ;
#798 = CARTESIAN_POINT ( 'NONE',  ( 18.59999999999999787, 10.00000000000000000, 15.99999999999998934 ) ) ;
#799 = FACE_OUTER_BOUND ( 'NONE', #318, .T. ) ;
#800 = VECTOR ( 'NONE', #15, 1000.000000000000114 ) ;
#801 = VECTOR ( 'NONE', #1016, 1000.000000000000000 ) ;
#802 = VERTEX_POINT ( 'NONE', #1025 ) ;
#803 = CARTESIAN_POINT ( 'NONE',  ( -21.60000000000000142, -11.99999999999999822, 15.99999999999999645 ) ) ;
#804 = FACE_BOUND ( 'NONE', #1251, .T. ) ;
#805 = DIRECTION ( 'NONE',  ( 0.000000000000000000, 0.000000000000000000, -1.000000000000000000 ) ) ;
#806 = VERTEX_POINT ( 'NONE', #446 ) ;
#807 = EDGE_CURVE ( 'NONE', #33, #1258, #493, .T. ) ;
#808 = DIRECTION ( 'NONE',  ( -1.000000000000000000, 0.000000000000000000, 0.000000000000000000 ) ) ;
#809 = DIRECTION ( 'NONE',  ( -0.7071067811865451302, 0.7071067811865500152, 0.000000000000000000 ) ) ;
#810 = CARTESIAN_POINT ( 'NONE',  ( -16.60000000000000142, -12.60000000000000142, 18.00000000000000000 ) ) ;
#811 = ORIENTED_EDGE ( 'NONE', *, *, #213, .F. ) ;
#812 = EDGE_CURVE ( 'NONE', #802, #473, #545, .T. ) ;
#813 = CIRCLE ( 'NONE', #88, 2.000000000000000000 ) ;
#814 = CARTESIAN_POINT ( 'NONE',  ( 16.60000000000000142, -10.00000000000000000, 16.74999999999998934 ) ) ;
#815 = CARTESIAN_POINT ( 'NONE',  ( 18.59999999999999787, -10.00000000000000000, 13.99999999999998934 ) ) ;
#816 = DIRECTION ( 'NONE',  ( 1.000000000000000000, -0.000000000000000000, -0.000000000000000000 ) ) ;
#817 = ORIENTED_EDGE ( 'NONE', *, *, #1208, .T. ) ;
#818 = AXIS2_PLACEMENT_3D ( 'NONE', #1145, #244, #644 ) ;
#819 = DIRECTION ( 'NONE',  ( 0.7071067811865461294, 0.000000000000000000, -0.7071067811865490160 ) ) ;
#820 = DIRECTION ( 'NONE',  ( 1.000000000000000000, -0.000000000000000000, -0.000000000000000000 ) ) ;
#821 = PLANE ( 'NONE',  #55 ) ;
#822 = ORIENTED_EDGE ( 'NONE', *, *, #174, .T. ) ;
#823 = EDGE_CURVE ( 'NONE', #258, #148, #135, .T. ) ;
#824 = AXIS2_PLACEMENT_3D ( 'NONE', #178, #574, #1063 ) ;
#825 = VECTOR ( 'NONE', #397, 1000.000000000000000 ) ;
#826 = CARTESIAN_POINT ( 'NONE',  ( -19.59999999999999787, -9.249999999999994671, 15.99999999999999645 ) ) ;
#827 = DIRECTION ( 'NONE',  ( -1.000000000000000000, -9.856383386231858827E-17, -0.000000000000000000 ) ) ;
#828 = DIRECTION ( 'NONE',  ( 1.000000000000000000, -0.000000000000000000, -0.000000000000000000 ) ) ;
#829 = ORIENTED_EDGE ( 'NONE', *, *, #643, .T. ) ;
#830 = MECHANICAL_DESIGN_GEOMETRIC_PRESENTATION_REPRESENTATION (  '', ( #566 ), #1125 ) ;
#831 = DIRECTION ( 'NONE',  ( 0.000000000000000000, -1.000000000000000000, 0.000000000000000000 ) ) ;
#832 = CARTESIAN_POINT ( 'NONE',  ( 18.59999999999999787, 10.00000000000000000, 15.99999999999998934 ) ) ;
#833 = CARTESIAN_POINT ( 'NONE',  ( -19.60000000000001563, -17.60000000000000142, 3.000000000000080824 ) ) ;
#834 =( LENGTH_UNIT ( ) NAMED_UNIT ( * ) SI_UNIT ( .MILLI., .METRE. ) );
#835 = EDGE_LOOP ( 'NONE', ( #791, #279, #649, #760 ) ) ;
#836 = LINE ( 'NONE', #842, #155 ) ;
#837 = SHAPE_DEFINITION_REPRESENTATION ( #774, #1004 ) ;
#838 = PLANE ( 'NONE',  #2 ) ;
#839 = FILL_AREA_STYLE ('',( #363 ) ) ;
#840 = ORIENTED_EDGE ( 'NONE', *, *, #881, .F. ) ;
#841 = ORIENTED_EDGE ( 'NONE', *, *, #677, .F. ) ;
#842 = CARTESIAN_POINT ( 'NONE',  ( -19.59999999999999787, 8.000000000000001776, 15.99999999999999645 ) ) ;
#843 = CARTESIAN_POINT ( 'NONE',  ( -16.60000000000000142, 10.00000000000000355, 15.99999999999999645 ) ) ;
#844 = CIRCLE ( 'NONE', #1245, 0.7500000000000006661 ) ;
#845 = EDGE_CURVE ( 'NONE', #467, #1001, #226, .T. ) ;
#846 = CARTESIAN_POINT ( 'NONE',  ( -18.59999999999999787, -9.100000000000003197, 0.000000000000000000 ) ) ;
#847 = LINE ( 'NONE', #145, #1067 ) ;
#848 = ORIENTED_EDGE ( 'NONE', *, *, #213, .T. ) ;
#849 = VERTEX_POINT ( 'NONE', #220 ) ;
#850 = VERTEX_POINT ( 'NONE', #528 ) ;
#851 = VECTOR ( 'NONE', #381, 1000.000000000000000 ) ;
#852 = CARTESIAN_POINT ( 'NONE',  ( -21.60000000000000497, -17.59999999999999787, 23.00000000000000000 ) ) ;
#853 = LINE ( 'NONE', #573, #250 ) ;
#854 = LINE ( 'NONE', #1141, #963 ) ;
#855 = ORIENTED_EDGE ( 'NONE', *, *, #1044, .F. ) ;
#856 = ADVANCED_FACE ( 'NONE', ( #26 ), #431, .T. ) ;
#857 = ORIENTED_EDGE ( 'NONE', *, *, #1013, .T. ) ;
#858 = VERTEX_POINT ( 'NONE', #826 ) ;
#859 = DIRECTION ( 'NONE',  ( -1.045014142154703367E-16, 1.000000000000000000, 0.000000000000000000 ) ) ;
#860 = CIRCLE ( 'NONE', #409, 2.000000000000000000 ) ;
#861 = AXIS2_PLACEMENT_3D ( 'NONE', #592, #809, #1211 ) ;
#862 = EDGE_CURVE ( 'NONE', #727, #209, #1233, .T. ) ;
#863 = DIRECTION ( 'NONE',  ( 1.000000000000000000, 0.000000000000000000, 0.000000000000000000 ) ) ;
#864 = LINE ( 'NONE', #86, #660 ) ;
#865 = ORIENTED_EDGE ( 'NONE', *, *, #785, .T. ) ;
#866 = EDGE_CURVE ( 'NONE', #350, #335, #733, .T. ) ;
#867 = EDGE_LOOP ( 'NONE', ( #544, #745, #752, #732, #238, #407 ) ) ;
#868 = ORIENTED_EDGE ( 'NONE', *, *, #823, .T. ) ;
#869 = DIRECTION ( 'NONE',  ( -1.000000000000000000, -9.856383386231858827E-17, -0.000000000000000000 ) ) ;
#870 = PLANE ( 'NONE',  #147 ) ;
#871 = CARTESIAN_POINT ( 'NONE',  ( 21.59999999999999787, 15.59999999999999609, 23.00000000000000000 ) ) ;
#872 = ORIENTED_EDGE ( 'NONE', *, *, #34, .T. ) ;
#873 = ORIENTED_EDGE ( 'NONE', *, *, #307, .F. ) ;
#874 = VECTOR ( 'NONE', #1028, 1000.000000000000000 ) ;
#875 = CARTESIAN_POINT ( 'NONE',  ( 11.59999999999999787, -10.00000000000000000, 15.99999999999998934 ) ) ;
#876 = CARTESIAN_POINT ( 'NONE',  ( 16.60000000000000142, -12.59999999999999787, 18.00000000000000000 ) ) ;
#877 = EDGE_CURVE ( 'NONE', #1258, #33, #715, .T. ) ;
#878 = VECTOR ( 'NONE', #85, 1000.000000000000000 ) ;
#879 = CARTESIAN_POINT ( 'NONE',  ( 18.59999999999999787, 10.00000000000000000, 17.99999999999998934 ) ) ;
#880 = DIRECTION ( 'NONE',  ( 0.000000000000000000, 0.000000000000000000, -1.000000000000000000 ) ) ;
#881 = EDGE_CURVE ( 'NONE', #271, #94, #836, .T. ) ;
#882 = ORIENTED_EDGE ( 'NONE', *, *, #34, .F. ) ;
#883 = CARTESIAN_POINT ( 'NONE',  ( 21.59999999999999787, 17.59999999999999787, 5.000000000000002665 ) ) ;
#884 = CARTESIAN_POINT ( 'NONE',  ( -18.60000000000009379, -18.59999999999993392, 23.00000000000000000 ) ) ;
#885 = CARTESIAN_POINT ( 'NONE',  ( 16.60000000000000142, -12.59999999999999787, 0.000000000000000000 ) ) ;
#886 = AXIS2_PLACEMENT_3D ( 'NONE', #352, #231, #831 ) ;
#887 = EDGE_LOOP ( 'NONE', ( #1295, #444, #82, #480, #1180, #219, #83, #261 ) ) ;
#888 = LINE ( 'NONE', #403, #825 ) ;
#889 = CIRCLE ( 'NONE', #824, 2.000000000000000000 ) ;
#890 = VECTOR ( 'NONE', #604, 1000.000000000000000 ) ;
#891 = CARTESIAN_POINT ( 'NONE',  ( 18.59999999999999787, 10.00000000000000000, 15.99999999999998934 ) ) ;
#892 = DIRECTION ( 'NONE',  ( 0.000000000000000000, -1.000000000000000000, 0.000000000000000000 ) ) ;
#893 = VERTEX_POINT ( 'NONE', #337 ) ;
#894 = CARTESIAN_POINT ( 'NONE',  ( 16.59999999999997655, -17.59999999999999787, 0.000000000000000000 ) ) ;
#895 = DIRECTION ( 'NONE',  ( -1.000000000000000000, -0.000000000000000000, -0.000000000000000000 ) ) ;
#896 = DIRECTION ( 'NONE',  ( 0.000000000000000000, -1.000000000000000000, 0.000000000000000000 ) ) ;
#897 = ORIENTED_EDGE ( 'NONE', *, *, #547, .F. ) ;
#898 = ADVANCED_FACE ( 'NONE', ( #631 ), #123, .F. ) ;
#899 = DIRECTION ( 'NONE',  ( -1.000000000000000000, -9.856383386231858827E-17, -0.000000000000000000 ) ) ;
#900 = FACE_OUTER_BOUND ( 'NONE', #268, .T. ) ;
#901 = CARTESIAN_POINT ( 'NONE',  ( -19.59999999999999787, 10.00000000000000178, 15.99999999999999645 ) ) ;
#902 = ADVANCED_FACE ( 'NONE', ( #621 ), #426, .F. ) ;
#903 = VECTOR ( 'NONE', #447, 1000.000000000000114 ) ;
#904 = ORIENTED_EDGE ( 'NONE', *, *, #1098, .F. ) ;
#905 = EDGE_CURVE ( 'NONE', #537, #849, #1043, .T. ) ;
#906 = CARTESIAN_POINT ( 'NONE',  ( -19.59999999999999787, 10.00000000000000178, 15.99999999999999645 ) ) ;
#907 = LINE ( 'NONE', #711, #73 ) ;
#908 = DIRECTION ( 'NONE',  ( 0.000000000000000000, -1.000000000000000000, 0.000000000000000000 ) ) ;
#909 = ADVANCED_FACE ( 'NONE', ( #741 ), #523, .F. ) ;
#910 = CIRCLE ( 'NONE', #290, 2.000000000000000000 ) ;
#911 = ORIENTED_EDGE ( 'NONE', *, *, #677, .T. ) ;
#912 = ORIENTED_EDGE ( 'NONE', *, *, #905, .F. ) ;
#913 = CYLINDRICAL_SURFACE ( 'NONE', #162, 0.7500000000000024425 ) ;
#914 = DIRECTION ( 'NONE',  ( 0.000000000000000000, 0.000000000000000000, -1.000000000000000000 ) ) ;
#915 = DIRECTION ( 'NONE',  ( 0.000000000000000000, 0.000000000000000000, -1.000000000000000000 ) ) ;
#916 = EDGE_CURVE ( 'NONE', #1158, #486, #1049, .T. ) ;
#917 = ORIENTED_EDGE ( 'NONE', *, *, #1085, .T. ) ;
#918 = AXIS2_PLACEMENT_3D ( 'NONE', #380, #256, #655 ) ;
#919 = ORIENTED_EDGE ( 'NONE', *, *, #937, .F. ) ;
#920 = DIRECTION ( 'NONE',  ( 0.000000000000000000, -1.000000000000000000, 0.000000000000000000 ) ) ;
#921 = CARTESIAN_POINT ( 'NONE',  ( 21.59999999999999787, 15.59999999999999609, 18.00000000000000000 ) ) ;
#922 = CARTESIAN_POINT ( 'NONE',  ( -18.59999999999994813, 18.60000000000004405, 23.00000000000000000 ) ) ;
#923 = ORIENTED_EDGE ( 'NONE', *, *, #93, .T. ) ;
#924 = CIRCLE ( 'NONE', #1201, 2.000000000000000000 ) ;
#925 = AXIS2_PLACEMENT_3D ( 'NONE', #36, #539, #1220 ) ;
#926 = CARTESIAN_POINT ( 'NONE',  ( 11.59999999999999787, -10.00000000000000000, 15.24999999999998934 ) ) ;
#927 = DIRECTION ( 'NONE',  ( -1.000000000000000000, 0.000000000000000000, 0.000000000000000000 ) ) ;
#928 = CYLINDRICAL_SURFACE ( 'NONE', #511, 2.000000000000000000 ) ;
#929 = CARTESIAN_POINT ( 'NONE',  ( 18.59999999999999787, 10.00000000000000000, 15.99999999999998934 ) ) ;
#930 = ORIENTED_EDGE ( 'NONE', *, *, #728, .F. ) ;
#931 = VECTOR ( 'NONE', #41, 1000.000000000000000 ) ;
#932 = DIRECTION ( 'NONE',  ( -1.000000000000000000, -9.856383386231858827E-17, -0.000000000000000000 ) ) ;
#933 = DIRECTION ( 'NONE',  ( 0.000000000000000000, 0.000000000000000000, -1.000000000000000000 ) ) ;
#934 = DIRECTION ( 'NONE',  ( 0.000000000000000000, -1.000000000000000000, 0.000000000000000000 ) ) ;
#935 = DIRECTION ( 'NONE',  ( 5.225070710773516837E-17, -1.000000000000000000, 0.000000000000000000 ) ) ;
#936 = ORIENTED_EDGE ( 'NONE', *, *, #390, .F. ) ;
#937 = EDGE_CURVE ( 'NONE', #778, #850, #651, .T. ) ;
#938 = DIRECTION ( 'NONE',  ( 1.000000000000000000, -0.000000000000000000, -0.000000000000000000 ) ) ;
#939 = CARTESIAN_POINT ( 'NONE',  ( 0.000000000000000000, 0.000000000000000000, 0.000000000000000000 ) ) ;
#940 = CARTESIAN_POINT ( 'NONE',  ( 18.59999999999999787, 10.00000000000000000, 13.99999999999998934 ) ) ;
#941 = CARTESIAN_POINT ( 'NONE',  ( -16.60000000000000142, -12.60000000000000142, 18.00000000000000000 ) ) ;
#942 = ORIENTED_EDGE ( 'NONE', *, *, #618, .T. ) ;
#943 = EDGE_CURVE ( 'NONE', #617, #150, #429, .T. ) ;
#944 = ORIENTED_EDGE ( 'NONE', *, *, #406, .F. ) ;
#945 = DIRECTION ( 'NONE',  ( 1.000000000000000000, -0.000000000000000000, -0.000000000000000000 ) ) ;
#946 = ORIENTED_EDGE ( 'NONE', *, *, #512, .F. ) ;
#947 = VECTOR ( 'NONE', #639, 1000.000000000000114 ) ;
#948 = CARTESIAN_POINT ( 'NONE',  ( -18.59999999999999787, 9.099999999999997868, 18.00000000000000000 ) ) ;
#949 = CARTESIAN_POINT ( 'NONE',  ( 18.59999999999999787, -10.00000000000000000, 17.99999999999998934 ) ) ;
#950 = EDGE_CURVE ( 'NONE', #492, #738, #550, .T. ) ;
#951 = EDGE_LOOP ( 'NONE', ( #546, #1271, #848, #57 ) ) ;
#952 = EDGE_LOOP ( 'NONE', ( #608, #1148, #822, #1186 ) ) ;
#953 = VECTOR ( 'NONE', #496, 1000.000000000000000 ) ;
#954 = EDGE_LOOP ( 'NONE', ( #299, #40 ) ) ;
#955 = CIRCLE ( 'NONE', #455, 0.7500000000000024425 ) ;
#956 = PLANE ( 'NONE',  #722 ) ;
#957 = FACE_BOUND ( 'NONE', #1277, .T. ) ;
#958 = DIRECTION ( 'NONE',  ( -0.000000000000000000, -0.000000000000000000, -1.000000000000000000 ) ) ;
#959 = ORIENTED_EDGE ( 'NONE', *, *, #1036, .T. ) ;
#960 = ORIENTED_EDGE ( 'NONE', *, *, #418, .F. ) ;
#961 = ORIENTED_EDGE ( 'NONE', *, *, #716, .T. ) ;
#962 = EDGE_CURVE ( 'NONE', #138, #1225, #177, .T. ) ;
#963 = VECTOR ( 'NONE', #958, 1000.000000000000000 ) ;
#964 = FACE_OUTER_BOUND ( 'NONE', #230, .T. ) ;
#965 = EDGE_CURVE ( 'NONE', #179, #569, #1171, .T. ) ;
#966 = CARTESIAN_POINT ( 'NONE',  ( -16.60000000000000142, -9.100000000000003197, 0.000000000000000000 ) ) ;
#967 = LINE ( 'NONE', #1179, #277 ) ;
#968 = ORIENTED_EDGE ( 'NONE', *, *, #675, .T. ) ;
#969 = ORIENTED_EDGE ( 'NONE', *, *, #645, .F. ) ;
#970 = ORIENTED_EDGE ( 'NONE', *, *, #491, .T. ) ;
#971 = DIRECTION ( 'NONE',  ( 0.000000000000000000, -1.000000000000000000, 0.000000000000000000 ) ) ;
#972 = VECTOR ( 'NONE', #338, 1000.000000000000000 ) ;
#973 = CIRCLE ( 'NONE', #410, 0.7500000000000006661 ) ;
#974 = CARTESIAN_POINT ( 'NONE',  ( -18.59999999999999787, -9.100000000000003197, 18.00000000000000000 ) ) ;
#975 = DIRECTION ( 'NONE',  ( -0.7071067811865437980, 0.000000000000000000, 0.7071067811865513475 ) ) ;
#976 = EDGE_LOOP ( 'NONE', ( #23, #1264, #1055, #840 ) ) ;
#977 = ORIENTED_EDGE ( 'NONE', *, *, #726, .F. ) ;
#978 = ADVANCED_FACE ( 'NONE', ( #1156, #1080 ), #870, .T. ) ;
#979 = VERTEX_POINT ( 'NONE', #750 ) ;
#980 = DIRECTION ( 'NONE',  ( 1.000000000000000000, 0.000000000000000000, 0.000000000000000000 ) ) ;
#981 = CARTESIAN_POINT ( 'NONE',  ( -21.60000000000000142, -9.999999999999998224, 15.99999999999999645 ) ) ;
#982 = DIRECTION ( 'NONE',  ( 0.000000000000000000, 0.000000000000000000, -1.000000000000000000 ) ) ;
#983 = PRODUCT_DEFINITION_CONTEXT ( 'detailed design', #1061, 'design' ) ;
#984 = ORIENTED_EDGE ( 'NONE', *, *, #1144, .T. ) ;
#985 = DIRECTION ( 'NONE',  ( -1.000000000000000000, -9.856383386231858827E-17, 0.000000000000000000 ) ) ;
#986 = VECTOR ( 'NONE', #371, 1000.000000000000000 ) ;
#987 = DIRECTION ( 'NONE',  ( 0.000000000000000000, 0.000000000000000000, 1.000000000000000000 ) ) ;
#988 = DIRECTION ( 'NONE',  ( -1.000000000000000000, -9.856383386231858827E-17, -0.000000000000000000 ) ) ;
#989 = ORIENTED_EDGE ( 'NONE', *, *, #728, .T. ) ;
#990 = DIRECTION ( 'NONE',  ( 0.000000000000000000, 0.000000000000000000, 1.000000000000000000 ) ) ;
#991 = DIRECTION ( 'NONE',  ( 1.000000000000000000, 0.000000000000000000, 0.000000000000000000 ) ) ;
#992 = CARTESIAN_POINT ( 'NONE',  ( 19.59999999999997655, -17.59999999999999787, 23.00000000000000000 ) ) ;
#993 = AXIS2_PLACEMENT_3D ( 'NONE', #1037, #724, #149 ) ;
#994 = EDGE_LOOP ( 'NONE', ( #1159, #911, #527, #603 ) ) ;
#995 = DIRECTION ( 'NONE',  ( -9.856383386231858827E-17, 1.000000000000000000, 0.000000000000000000 ) ) ;
#996 = AXIS2_PLACEMENT_3D ( 'NONE', #413, #1212, #908 ) ;
#997 = VECTOR ( 'NONE', #995, 1000.000000000000000 ) ;
#998 = LINE ( 'NONE', #1021, #199 ) ;
#999 = LINE ( 'NONE', #516, #326 ) ;
#1000 = EDGE_CURVE ( 'NONE', #1214, #215, #469, .T. ) ;
#1001 = VERTEX_POINT ( 'NONE', #264 ) ;
#1002 = EDGE_CURVE ( 'NONE', #148, #172, #77, .T. ) ;
#1003 = DIRECTION ( 'NONE',  ( 1.000000000000000000, 0.000000000000000000, 0.000000000000000000 ) ) ;
#1004 = ADVANCED_BREP_SHAPE_REPRESENTATION ( 'U_mount_testprint', ( #62, #605 ), #699 ) ;
#1005 = PLANE ( 'NONE',  #694 ) ;
#1006 = DIRECTION ( 'NONE',  ( 1.000000000000000000, 0.000000000000000000, 0.000000000000000000 ) ) ;
#1007 = EDGE_CURVE ( 'NONE', #430, #349, #91, .T. ) ;
#1008 = ORIENTED_EDGE ( 'NONE', *, *, #586, .T. ) ;
#1009 = DIRECTION ( 'NONE',  ( 0.000000000000000000, 0.000000000000000000, -1.000000000000000000 ) ) ;
#1010 = CARTESIAN_POINT ( 'NONE',  ( 16.59999999999997655, 17.60000000000000142, 0.000000000000000000 ) ) ;
#1011 = CARTESIAN_POINT ( 'NONE',  ( 19.60000000000000142, 17.60000000000000142, 3.000000000000016431 ) ) ;
#1012 = EDGE_LOOP ( 'NONE', ( #1065, #50, #989, #11 ) ) ;
#1013 = EDGE_CURVE ( 'NONE', #209, #746, #59, .T. ) ;
#1014 = LINE ( 'NONE', #610, #890 ) ;
#1015 = ADVANCED_FACE ( 'NONE', ( #1269 ), #355, .F. ) ;
#1016 = DIRECTION ( 'NONE',  ( 0.000000000000000000, 0.000000000000000000, -1.000000000000000000 ) ) ;
#1017 = DIRECTION ( 'NONE',  ( 1.000000000000000000, -0.000000000000000000, -0.000000000000000000 ) ) ;
#1018 = VECTOR ( 'NONE', #668, 1000.000000000000114 ) ;
#1019 = ORIENTED_EDGE ( 'NONE', *, *, #176, .F. ) ;
#1020 = DIRECTION ( 'NONE',  ( -0.000000000000000000, -0.000000000000000000, -1.000000000000000000 ) ) ;
#1021 = CARTESIAN_POINT ( 'NONE',  ( -11.60000000000000142, 10.75000000000000533, 15.99999999999999645 ) ) ;
#1022 = FACE_OUTER_BOUND ( 'NONE', #1112, .T. ) ;
#1023 = AXIS2_PLACEMENT_3D ( 'NONE', #1147, #448, #248 ) ;
#1024 = ORIENTED_EDGE ( 'NONE', *, *, #943, .F. ) ;
#1025 = CARTESIAN_POINT ( 'NONE',  ( -16.60000000000000142, 12.59999999999999964, 18.00000000000000000 ) ) ;
#1026 = DIRECTION ( 'NONE',  ( -9.856383386231858827E-17, 1.000000000000000000, 0.000000000000000000 ) ) ;
#1027 = DIRECTION ( 'NONE',  ( 0.000000000000000000, 0.000000000000000000, 1.000000000000000000 ) ) ;
#1028 = DIRECTION ( 'NONE',  ( 1.000000000000000000, -0.000000000000000000, -0.000000000000000000 ) ) ;
#1029 = VERTEX_POINT ( 'NONE', #160 ) ;
#1030 = VECTOR ( 'NONE', #9, 1000.000000000000000 ) ;
#1031 = CYLINDRICAL_SURFACE ( 'NONE', #925, 0.7500000000000006661 ) ;
#1032 = CYLINDRICAL_SURFACE ( 'NONE', #1092, 2.000000000000000000 ) ;
#1033 = CARTESIAN_POINT ( 'NONE',  ( -18.59999999999999787, 9.099999999999997868, 0.000000000000000000 ) ) ;
#1034 = FACE_OUTER_BOUND ( 'NONE', #571, .T. ) ;
#1035 = VERTEX_POINT ( 'NONE', #1256 ) ;
#1036 = EDGE_CURVE ( 'NONE', #704, #575, #125, .T. ) ;
#1037 = CARTESIAN_POINT ( 'NONE',  ( 21.59999999999999787, 17.60000000000000142, 18.00000000000000000 ) ) ;
#1038 = CARTESIAN_POINT ( 'NONE',  ( -21.60000000000000142, 10.00000000000000178, 15.99999999999999645 ) ) ;
#1039 = ADVANCED_FACE ( 'NONE', ( #957, #663, #463 ), #1062, .F. ) ;
#1040 = ORIENTED_EDGE ( 'NONE', *, *, #176, .T. ) ;
#1041 = ORIENTED_EDGE ( 'NONE', *, *, #1107, .F. ) ;
#1042 = CIRCLE ( 'NONE', #485, 2.000000000000000000 ) ;
#1043 = LINE ( 'NONE', #343, #1113 ) ;
#1044 = EDGE_CURVE ( 'NONE', #1214, #420, #853, .T. ) ;
#1045 = FACE_BOUND ( 'NONE', #324, .T. ) ;
#1046 = FACE_OUTER_BOUND ( 'NONE', #951, .T. ) ;
#1047 = ORIENTED_EDGE ( 'NONE', *, *, #1150, .F. ) ;
#1048 = VERTEX_POINT ( 'NONE', #974 ) ;
#1049 = LINE ( 'NONE', #157, #1161 ) ;
#1050 = ORIENTED_EDGE ( 'NONE', *, *, #712, .F. ) ;
#1051 = VECTOR ( 'NONE', #19, 1000.000000000000000 ) ;
#1052 = CARTESIAN_POINT ( 'NONE',  ( 16.60000000000000142, -12.59999999999999787, 18.00000000000000000 ) ) ;
#1053 = DIRECTION ( 'NONE',  ( 1.000000000000000000, 0.000000000000000000, 0.000000000000000000 ) ) ;
#1054 = FACE_BOUND ( 'NONE', #69, .T. ) ;
#1055 = ORIENTED_EDGE ( 'NONE', *, *, #247, .T. ) ;
#1056 = ORIENTED_EDGE ( 'NONE', *, *, #609, .F. ) ;
#1057 = CIRCLE ( 'NONE', #1223, 2.000000000000000000 ) ;
#1058 = VECTOR ( 'NONE', #696, 1000.000000000000000 ) ;
#1059 = VERTEX_POINT ( 'NONE', #1178 ) ;
#1060 = DIRECTION ( 'NONE',  ( 0.000000000000000000, -1.000000000000000000, 0.000000000000000000 ) ) ;
#1061 = APPLICATION_CONTEXT ( 'automotive_design' ) ;
#1062 = PLANE ( 'NONE',  #1253 ) ;
#1063 = DIRECTION ( 'NONE',  ( 0.000000000000000000, -1.000000000000000000, 0.000000000000000000 ) ) ;
#1064 = VERTEX_POINT ( 'NONE', #567 ) ;
#1065 = ORIENTED_EDGE ( 'NONE', *, *, #1144, .F. ) ;
#1066 = ORIENTED_EDGE ( 'NONE', *, *, #208, .T. ) ;
#1067 = VECTOR ( 'NONE', #1250, 1000.000000000000000 ) ;
#1068 = DIRECTION ( 'NONE',  ( 0.000000000000000000, 0.000000000000000000, -1.000000000000000000 ) ) ;
#1069 = DIRECTION ( 'NONE',  ( -9.856383386231858827E-17, 1.000000000000000000, 0.000000000000000000 ) ) ;
#1070 = CARTESIAN_POINT ( 'NONE',  ( -18.59999999999999787, -9.100000000000003197, 18.00000000000000000 ) ) ;
#1071 = ORIENTED_EDGE ( 'NONE', *, *, #739, .T. ) ;
#1072 = EDGE_LOOP ( 'NONE', ( #65, #285 ) ) ;
#1073 = DIRECTION ( 'NONE',  ( 1.000000000000000000, -0.000000000000000000, -0.000000000000000000 ) ) ;
#1074 = LINE ( 'NONE', #1255, #1287 ) ;
#1075 = LINE ( 'NONE', #879, #648 ) ;
#1076 = CARTESIAN_POINT ( 'NONE',  ( -16.60000000000000142, 10.00000000000000355, 15.99999999999999645 ) ) ;
#1077 = ORIENTED_EDGE ( 'NONE', *, *, #1199, .F. ) ;
#1078 = CARTESIAN_POINT ( 'NONE',  ( -11.60000000000000142, -9.249999999999994671, 15.99999999999999645 ) ) ;
#1079 = AXIS2_PLACEMENT_3D ( 'NONE', #454, #51, #255 ) ;
#1080 = FACE_BOUND ( 'NONE', #638, .T. ) ;
#1081 = DIRECTION ( 'NONE',  ( 0.000000000000000000, -1.000000000000000000, 0.000000000000000000 ) ) ;
#1082 = EDGE_CURVE ( 'NONE', #1254, #770, #1075, .T. ) ;
#1083 = ORIENTED_EDGE ( 'NONE', *, *, #716, .F. ) ;
#1084 = CARTESIAN_POINT ( 'NONE',  ( -16.60000000000000142, -12.60000000000000142, 18.00000000000000000 ) ) ;
#1085 = EDGE_CURVE ( 'NONE', #1230, #858, #709, .T. ) ;
#1086 = AXIS2_PLACEMENT_3D ( 'NONE', #793, #212, #1195 ) ;
#1087 = FACE_OUTER_BOUND ( 'NONE', #887, .T. ) ;
#1088 = CARTESIAN_POINT ( 'NONE',  ( -16.60000000000000142, 10.75000000000000533, 15.99999999999999645 ) ) ;
#1089 = ORIENTED_EDGE ( 'NONE', *, *, #950, .F. ) ;
#1090 = LINE ( 'NONE', #7, #433 ) ;
#1091 = EDGE_CURVE ( 'NONE', #1174, #134, #362, .T. ) ;
#1092 = AXIS2_PLACEMENT_3D ( 'NONE', #832, #820, #914 ) ;
#1093 = CARTESIAN_POINT ( 'NONE',  ( 19.59999999999998721, -17.59999999999999787, 3.000000000000002665 ) ) ;
#1094 = DIRECTION ( 'NONE',  ( 0.000000000000000000, 0.000000000000000000, -1.000000000000000000 ) ) ;
#1095 = ORIENTED_EDGE ( 'NONE', *, *, #458, .F. ) ;
#1096 = EDGE_CURVE ( 'NONE', #350, #271, #1042, .T. ) ;
#1097 = DIRECTION ( 'NONE',  ( 0.000000000000000000, 1.000000000000000000, -9.856383386231963598E-17 ) ) ;
#1098 = EDGE_CURVE ( 'NONE', #1001, #748, #589, .T. ) ;
#1099 = CYLINDRICAL_SURFACE ( 'NONE', #1086, 0.7500000000000006661 ) ;
#1100 = CYLINDRICAL_SURFACE ( 'NONE', #339, 0.7500000000000024425 ) ;
#1101 = EDGE_LOOP ( 'NONE', ( #1290, #1047, #652, #368 ) ) ;
#1102 = AXIS2_PLACEMENT_3D ( 'NONE', #875, #1073, #1273 ) ;
#1103 = DIRECTION ( 'NONE',  ( -1.000000000000000000, -9.856383386231858827E-17, -0.000000000000000000 ) ) ;
#1104 = LINE ( 'NONE', #8, #358 ) ;
#1105 = FACE_OUTER_BOUND ( 'NONE', #360, .T. ) ;
#1106 = EDGE_LOOP ( 'NONE', ( #1149, #555 ) ) ;
#1107 = EDGE_CURVE ( 'NONE', #543, #1254, #813, .T. ) ;
#1108 = ADVANCED_FACE ( 'NONE', ( #391 ), #1099, .F. ) ;
#1109 = CARTESIAN_POINT ( 'NONE',  ( -18.59999999999999787, -9.100000000000003197, 0.000000000000000000 ) ) ;
#1110 = CARTESIAN_POINT ( 'NONE',  ( -16.60000000000000142, 9.099999999999996092, 0.000000000000000000 ) ) ;
#1111 = DIRECTION ( 'NONE',  ( 0.000000000000000000, -1.000000000000000000, 0.000000000000000000 ) ) ;
#1112 = EDGE_LOOP ( 'NONE', ( #1237, #564, #796, #1218 ) ) ;
#1113 = VECTOR ( 'NONE', #1020, 1000.000000000000000 ) ;
#1114 = CARTESIAN_POINT ( 'NONE',  ( -16.59999999999996945, 15.60000000000000675, 0.000000000000000000 ) ) ;
#1115 = LINE ( 'NONE', #921, #365 ) ;
#1116 = CARTESIAN_POINT ( 'NONE',  ( 21.59999999999999787, -15.60000000000000320, 23.00000000000000000 ) ) ;
#1117 = CIRCLE ( 'NONE', #221, 0.7500000000000024425 ) ;
#1118 = VECTOR ( 'NONE', #1103, 1000.000000000000000 ) ;
#1119 = VECTOR ( 'NONE', #1146, 1000.000000000000000 ) ;
#1120 = ORIENTED_EDGE ( 'NONE', *, *, #262, .F. ) ;
#1121 = CARTESIAN_POINT ( 'NONE',  ( -16.60000000000000142, 12.59999999999999787, 0.000000000000000000 ) ) ;
#1122 =( LENGTH_UNIT ( ) NAMED_UNIT ( * ) SI_UNIT ( .MILLI., .METRE. ) );
#1123 = DIRECTION ( 'NONE',  ( 0.000000000000000000, 0.000000000000000000, -1.000000000000000000 ) ) ;
#1124 = SURFACE_STYLE_FILL_AREA ( #839 ) ;
#1125 =( GEOMETRIC_REPRESENTATION_CONTEXT ( 3 ) GLOBAL_UNCERTAINTY_ASSIGNED_CONTEXT ( ( #681 ) ) GLOBAL_UNIT_ASSIGNED_CONTEXT ( ( #834, #334, #1236 ) ) REPRESENTATION_CONTEXT ( 'NONE', 'WORKASPACE' ) );
#1126 = ORIENTED_EDGE ( 'NONE', *, *, #881, .T. ) ;
#1127 = CARTESIAN_POINT ( 'NONE',  ( -19.59999999999999787, 12.00000000000000178, 15.99999999999999645 ) ) ;
#1128 = DIRECTION ( 'NONE',  ( 0.7071067811865500152, 0.7071067811865451302, -0.000000000000000000 ) ) ;
#1129 = DIRECTION ( 'NONE',  ( 9.856383386231858827E-17, -1.000000000000000000, 0.000000000000000000 ) ) ;
#1130 = EDGE_CURVE ( 'NONE', #537, #893, #1104, .T. ) ;
#1131 = ORIENTED_EDGE ( 'NONE', *, *, #1044, .T. ) ;
#1132 = CIRCLE ( 'NONE', #680, 0.7500000000000006661 ) ;
#1133 = AXIS2_PLACEMENT_3D ( 'NONE', #416, #1293, #404 ) ;
#1134 = ORIENTED_EDGE ( 'NONE', *, *, #683, .F. ) ;
#1135 = ADVANCED_FACE ( 'NONE', ( #900 ), #1005, .F. ) ;
#1136 = DIRECTION ( 'NONE',  ( 0.000000000000000000, -1.000000000000000000, 0.000000000000000000 ) ) ;
#1137 = EDGE_CURVE ( 'NONE', #893, #802, #206, .T. ) ;
#1138 = DIRECTION ( 'NONE',  ( 0.000000000000000000, 0.000000000000000000, 1.000000000000000000 ) ) ;
#1139 = CARTESIAN_POINT ( 'NONE',  ( 16.60000000000000142, 10.00000000000000000, 15.24999999999998934 ) ) ;
#1140 = ADVANCED_FACE ( 'NONE', ( #1087 ), #196, .F. ) ;
#1141 = CARTESIAN_POINT ( 'NONE',  ( 16.60000000000000142, 12.60000000000000142, 18.00000000000000000 ) ) ;
#1142 = ORIENTED_EDGE ( 'NONE', *, *, #1007, .T. ) ;
#1143 = ORIENTED_EDGE ( 'NONE', *, *, #785, .F. ) ;
#1144 = EDGE_CURVE ( 'NONE', #1254, #543, #924, .T. ) ;
#1145 = CARTESIAN_POINT ( 'NONE',  ( 21.59999999999999787, -17.59999999999999787, 18.00000000000000000 ) ) ;
#1146 = DIRECTION ( 'NONE',  ( 1.000000000000000000, 0.000000000000000000, 0.000000000000000000 ) ) ;
#1147 = CARTESIAN_POINT ( 'NONE',  ( -11.60000000000000142, -9.999999999999996447, 15.99999999999999645 ) ) ;
#1148 = ORIENTED_EDGE ( 'NONE', *, *, #418, .T. ) ;
#1149 = ORIENTED_EDGE ( 'NONE', *, *, #547, .T. ) ;
#1150 = EDGE_CURVE ( 'NONE', #778, #1192, #1190, .T. ) ;
#1151 = AXIS2_PLACEMENT_3D ( 'NONE', #281, #183, #1275 ) ;
#1152 = CARTESIAN_POINT ( 'NONE',  ( -16.59999999999996945, 15.60000000000000675, 0.000000000000000000 ) ) ;
#1153 = ORIENTED_EDGE ( 'NONE', *, *, #645, .T. ) ;
#1154 = ADVANCED_FACE ( 'NONE', ( #788 ), #611, .F. ) ;
#1155 = LINE ( 'NONE', #743, #903 ) ;
#1156 = FACE_OUTER_BOUND ( 'NONE', #341, .T. ) ;
#1157 = CYLINDRICAL_SURFACE ( 'NONE', #1023, 0.7500000000000024425 ) ;
#1158 = VERTEX_POINT ( 'NONE', #1010 ) ;
#1159 = ORIENTED_EDGE ( 'NONE', *, *, #643, .F. ) ;
#1160 = EDGE_LOOP ( 'NONE', ( #1265, #122, #1181, #590, #868, #156, #613, #312 ) ) ;
#1161 = VECTOR ( 'NONE', #554, 1000.000000000000000 ) ;
#1162 = CARTESIAN_POINT ( 'NONE',  ( 21.59999999999999787, 17.60000000000000142, 0.000000000000000000 ) ) ;
#1163 = CARTESIAN_POINT ( 'NONE',  ( 19.59999999999998721, -17.59999999999999787, 18.00000000000000000 ) ) ;
#1164 = CARTESIAN_POINT ( 'NONE',  ( 11.59999999999999787, 10.00000000000000000, 16.74999999999998934 ) ) ;
#1165 = ORIENTED_EDGE ( 'NONE', *, *, #532, .F. ) ;
#1166 = ORIENTED_EDGE ( 'NONE', *, *, #1085, .F. ) ;
#1167 = AXIS2_PLACEMENT_3D ( 'NONE', #901, #114, #1111 ) ;
#1168 = AXIS2_PLACEMENT_3D ( 'NONE', #66, #389, #106 ) ;
#1169 = ORIENTED_EDGE ( 'NONE', *, *, #190, .T. ) ;
#1170 = FACE_BOUND ( 'NONE', #1106, .T. ) ;
#1171 = LINE ( 'NONE', #67, #986 ) ;
#1172 = CARTESIAN_POINT ( 'NONE',  ( -16.60000000000000142, -12.60000000000000142, 18.00000000000000000 ) ) ;
#1173 = ORIENTED_EDGE ( 'NONE', *, *, #1000, .F. ) ;
#1174 = VERTEX_POINT ( 'NONE', #119 ) ;
#1175 = PRODUCT ( 'U_mount_testprint', 'U_mount_testprint', '', ( #245 ) ) ;
#1176 = ORIENTED_EDGE ( 'NONE', *, *, #222, .F. ) ;
#1177 = CARTESIAN_POINT ( 'NONE',  ( 16.60000000000000142, 10.00000000000000000, 16.74999999999998934 ) ) ;
#1178 = CARTESIAN_POINT ( 'NONE',  ( -18.59999999999999787, -9.100000000000003197, 2.000000000000052847 ) ) ;
#1179 = CARTESIAN_POINT ( 'NONE',  ( 16.60000000000000142, 12.60000000000000142, 0.000000000000000000 ) ) ;
#1180 = ORIENTED_EDGE ( 'NONE', *, *, #812, .F. ) ;
#1181 = ORIENTED_EDGE ( 'NONE', *, *, #512, .T. ) ;
#1182 = DIRECTION ( 'NONE',  ( 1.000000000000000000, 1.045014142154703244E-16, -0.000000000000000000 ) ) ;
#1183 = ADVANCED_FACE ( 'NONE', ( #804, #304 ), #310, .T. ) ;
#1184 = CARTESIAN_POINT ( 'NONE',  ( 21.59999999999999787, -10.00000000000000000, 15.99999999999998934 ) ) ;
#1185 = CARTESIAN_POINT ( 'NONE',  ( -21.60000000000000142, 8.000000000000001776, 15.99999999999999645 ) ) ;
#1186 = ORIENTED_EDGE ( 'NONE', *, *, #438, .T. ) ;
#1187 = EDGE_CURVE ( 'NONE', #802, #778, #907, .T. ) ;
#1188 = CARTESIAN_POINT ( 'NONE',  ( -21.60000000000000142, -7.999999999999998224, 15.99999999999999645 ) ) ;
#1189 = VECTOR ( 'NONE', #1182, 1000.000000000000000 ) ;
#1190 = LINE ( 'NONE', #113, #594 ) ;
#1191 = DIRECTION ( 'NONE',  ( -0.000000000000000000, -1.000000000000000000, -0.000000000000000000 ) ) ;
#1192 = VERTEX_POINT ( 'NONE', #1110 ) ;
#1193 = CARTESIAN_POINT ( 'NONE',  ( -11.60000000000000142, 10.00000000000000355, 15.99999999999999645 ) ) ;
#1194 = AXIS2_PLACEMENT_3D ( 'NONE', #137, #828, #161 ) ;
#1195 = DIRECTION ( 'NONE',  ( 0.000000000000000000, 0.000000000000000000, -1.000000000000000000 ) ) ;
#1196 = CARTESIAN_POINT ( 'NONE',  ( 21.59999999999999787, -10.00000000000000000, 15.99999999999998934 ) ) ;
#1197 = EDGE_CURVE ( 'NONE', #258, #420, #217, .T. ) ;
#1198 = ORIENTED_EDGE ( 'NONE', *, *, #307, .T. ) ;
#1199 = EDGE_CURVE ( 'NONE', #753, #1035, #973, .T. ) ;
#1200 = CARTESIAN_POINT ( 'NONE',  ( -21.60000000000000142, -15.59999999999999964, 5.000000000000087930 ) ) ;
#1201 = AXIS2_PLACEMENT_3D ( 'NONE', #798, #412, #599 ) ;
#1202 = DIRECTION ( 'NONE',  ( 0.000000000000000000, 0.000000000000000000, -1.000000000000000000 ) ) ;
#1203 = CARTESIAN_POINT ( 'NONE',  ( -18.59999999999999787, -9.100000000000003197, 0.000000000000000000 ) ) ;
#1204 = ORIENTED_EDGE ( 'NONE', *, *, #1199, .T. ) ;
#1205 = LINE ( 'NONE', #1291, #1118 ) ;
#1206 = CARTESIAN_POINT ( 'NONE',  ( 18.59999999999999787, 10.00000000000000000, 15.99999999999998934 ) ) ;
#1207 = CARTESIAN_POINT ( 'NONE',  ( -19.60000000000000142, 17.59999999999999787, 23.00000000000000000 ) ) ;
#1208 = EDGE_CURVE ( 'NONE', #748, #1001, #633, .T. ) ;
#1209 = ORIENTED_EDGE ( 'NONE', *, *, #726, .T. ) ;
#1210 = CARTESIAN_POINT ( 'NONE',  ( 21.59999999999999787, 15.59999999999999609, 5.000000000000004441 ) ) ;
#1211 = DIRECTION ( 'NONE',  ( 0.000000000000000000, 0.000000000000000000, -1.000000000000000000 ) ) ;
#1212 = DIRECTION ( 'NONE',  ( 1.000000000000000000, 9.856383386231858827E-17, -0.000000000000000000 ) ) ;
#1213 = AXIS2_PLACEMENT_3D ( 'NONE', #503, #895, #4 ) ;
#1214 = VERTEX_POINT ( 'NONE', #1093 ) ;
#1215 = DIRECTION ( 'NONE',  ( 1.000000000000000000, 0.000000000000000000, 0.000000000000000000 ) ) ;
#1216 = FACE_OUTER_BOUND ( 'NONE', #1012, .T. ) ;
#1217 = DIRECTION ( 'NONE',  ( 0.000000000000000000, 0.000000000000000000, -1.000000000000000000 ) ) ;
#1218 = ORIENTED_EDGE ( 'NONE', *, *, #807, .F. ) ;
#1219 = VECTOR ( 'NONE', #945, 1000.000000000000000 ) ;
#1220 = DIRECTION ( 'NONE',  ( 0.000000000000000000, 0.000000000000000000, -1.000000000000000000 ) ) ;
#1221 = LINE ( 'NONE', #14, #235 ) ;
#1222 = CARTESIAN_POINT ( 'NONE',  ( -16.60000000000000142, -9.999999999999996447, 15.99999999999999645 ) ) ;
#1223 = AXIS2_PLACEMENT_3D ( 'NONE', #224, #317, #1217 ) ;
#1224 = VECTOR ( 'NONE', #1097, 1000.000000000000000 ) ;
#1225 = VERTEX_POINT ( 'NONE', #202 ) ;
#1226 = EDGE_CURVE ( 'NONE', #150, #33, #998, .T. ) ;
#1227 = CARTESIAN_POINT ( 'NONE',  ( -25.93333333333334068, 11.26666666666669414, 9.333333333333468929 ) ) ;
#1228 = FACE_OUTER_BOUND ( 'NONE', #952, .T. ) ;
#1229 = ADVANCED_FACE ( 'NONE', ( #128 ), #151, .T. ) ;
#1230 = VERTEX_POINT ( 'NONE', #529 ) ;
#1231 = ORIENTED_EDGE ( 'NONE', *, *, #1096, .T. ) ;
#1232 = EDGE_CURVE ( 'NONE', #731, #148, #1115, .T. ) ;
#1233 = LINE ( 'NONE', #1227, #947 ) ;
#1234 = DIRECTION ( 'NONE',  ( 0.000000000000000000, 0.000000000000000000, -1.000000000000000000 ) ) ;
#1235 = CARTESIAN_POINT ( 'NONE',  ( -19.59999999999999787, -9.999999999999998224, 15.99999999999999645 ) ) ;
#1236 =( NAMED_UNIT ( * ) SI_UNIT ( $, .STERADIAN. ) SOLID_ANGLE_UNIT ( ) );
#1237 = ORIENTED_EDGE ( 'NONE', *, *, #1226, .F. ) ;
#1238 = CIRCLE ( 'NONE', #790, 0.7500000000000006661 ) ;
#1239 = DIRECTION ( 'NONE',  ( -1.000000000000000000, -9.856383386231858827E-17, -0.000000000000000000 ) ) ;
#1240 = FACE_BOUND ( 'NONE', #437, .T. ) ;
#1241 = CARTESIAN_POINT ( 'NONE',  ( 21.59999999999999787, -17.59999999999999787, 18.00000000000000000 ) ) ;
#1242 = ADVANCED_FACE ( 'NONE', ( #1216 ), #1032, .F. ) ;
#1243 = EDGE_LOOP ( 'NONE', ( #882, #930 ) ) ;
#1244 = EDGE_CURVE ( 'NONE', #215, #258, #1221, .T. ) ;
#1245 = AXIS2_PLACEMENT_3D ( 'NONE', #488, #175, #166 ) ;
#1246 = ORIENTED_EDGE ( 'NONE', *, *, #121, .T. ) ;
#1247 = DIRECTION ( 'NONE',  ( 1.000000000000000000, 9.856383386231858827E-17, -0.000000000000000000 ) ) ;
#1248 = ORIENTED_EDGE ( 'NONE', *, *, #937, .T. ) ;
#1249 = FACE_OUTER_BOUND ( 'NONE', #105, .T. ) ;
#1250 = DIRECTION ( 'NONE',  ( 1.000000000000000000, 1.045014142154703244E-16, -0.000000000000000000 ) ) ;
#1251 = EDGE_LOOP ( 'NONE', ( #1024, #667 ) ) ;
#1252 = ORIENTED_EDGE ( 'NONE', *, *, #763, .F. ) ;
#1253 = AXIS2_PLACEMENT_3D ( 'NONE', #670, #776, #1069 ) ;
#1254 = VERTEX_POINT ( 'NONE', #423 ) ;
#1255 = CARTESIAN_POINT ( 'NONE',  ( -19.59999999999999787, -7.999999999999998224, 15.99999999999999645 ) ) ;
#1256 = CARTESIAN_POINT ( 'NONE',  ( 16.60000000000000142, -10.00000000000000000, 15.24999999999998934 ) ) ;
#1257 = DIRECTION ( 'NONE',  ( 0.000000000000000000, 0.000000000000000000, 1.000000000000000000 ) ) ;
#1258 = VERTEX_POINT ( 'NONE', #20 ) ;
#1259 = VERTEX_POINT ( 'NONE', #815 ) ;
#1260 = ORIENTED_EDGE ( 'NONE', *, *, #877, .T. ) ;
#1261 = DIRECTION ( 'NONE',  ( -1.000000000000000000, -1.045014142154703367E-16, 0.000000000000000000 ) ) ;
#1262 = DIRECTION ( 'NONE',  ( 0.000000000000000000, 0.000000000000000000, -1.000000000000000000 ) ) ;
#1263 = CARTESIAN_POINT ( 'NONE',  ( -19.59999999999999787, -9.999999999999998224, 15.99999999999999645 ) ) ;
#1264 = ORIENTED_EDGE ( 'NONE', *, *, #866, .T. ) ;
#1265 = ORIENTED_EDGE ( 'NONE', *, *, #313, .T. ) ;
#1266 = ORIENTED_EDGE ( 'NONE', *, *, #1007, .F. ) ;
#1267 = ADVANCED_FACE ( 'NONE', ( #427 ), #634, .T. ) ;
#1268 = CARTESIAN_POINT ( 'NONE',  ( 18.59999999999999787, -10.00000000000000000, 15.99999999999998934 ) ) ;
#1269 = FACE_OUTER_BOUND ( 'NONE', #146, .T. ) ;
#1270 = CARTESIAN_POINT ( 'NONE',  ( 0.000000000000000000, 0.000000000000000000, 0.000000000000000000 ) ) ;
#1271 = ORIENTED_EDGE ( 'NONE', *, *, #769, .T. ) ;
#1272 = ADVANCED_FACE ( 'NONE', ( #43 ), #328, .F. ) ;
#1273 = DIRECTION ( 'NONE',  ( 0.000000000000000000, 0.000000000000000000, -1.000000000000000000 ) ) ;
#1274 = FACE_BOUND ( 'NONE', #768, .T. ) ;
#1275 = DIRECTION ( 'NONE',  ( 0.000000000000000000, -1.000000000000000000, 0.000000000000000000 ) ) ;
#1276 = DIRECTION ( 'NONE',  ( -0.5773502691896256200, 0.5773502691896286176, -0.5773502691896231775 ) ) ;
#1277 = EDGE_LOOP ( 'NONE', ( #251, #672 ) ) ;
#1278 = DIRECTION ( 'NONE',  ( 0.000000000000000000, -1.000000000000000000, 0.000000000000000000 ) ) ;
#1279 = AXIS2_PLACEMENT_3D ( 'NONE', #1184, #1053, #476 ) ;
#1280 = DIRECTION ( 'NONE',  ( 0.000000000000000000, 0.000000000000000000, 1.000000000000000000 ) ) ;
#1281 = CARTESIAN_POINT ( 'NONE',  ( 19.59999999999998721, 17.59999999999999787, 23.00000000000000000 ) ) ;
#1282 = EDGE_LOOP ( 'NONE', ( #414, #1071, #242, #198 ) ) ;
#1283 = PRODUCT_DEFINITION ( 'UNKNOWN', '', #481, #983 ) ;
#1284 = CIRCLE ( 'NONE', #393, 2.000000000000000000 ) ;
#1285 = VECTOR ( 'NONE', #899, 1000.000000000000000 ) ;
#1286 = DIRECTION ( 'NONE',  ( -1.000000000000000000, -9.856383386231858827E-17, -0.000000000000000000 ) ) ;
#1287 = VECTOR ( 'NONE', #869, 1000.000000000000000 ) ;
#1288 = DIRECTION ( 'NONE',  ( -0.000000000000000000, -0.000000000000000000, -1.000000000000000000 ) ) ;
#1289 = DIRECTION ( 'NONE',  ( 1.000000000000000000, 0.000000000000000000, 0.000000000000000000 ) ) ;
#1290 = ORIENTED_EDGE ( 'NONE', *, *, #174, .F. ) ;
#1291 = CARTESIAN_POINT ( 'NONE',  ( -19.59999999999999787, -11.99999999999999822, 15.99999999999999645 ) ) ;
#1292 = CIRCLE ( 'NONE', #107, 2.000000000000000000 ) ;
#1293 = DIRECTION ( 'NONE',  ( -0.000000000000000000, 0.000000000000000000, 1.000000000000000000 ) ) ;
#1294 = CARTESIAN_POINT ( 'NONE',  ( 18.59999999999999787, -10.00000000000000000, 16.74999999999998934 ) ) ;
#1295 = ORIENTED_EDGE ( 'NONE', *, *, #80, .F. ) ;
ENDSEC;
END-ISO-10303-21;
