ISO-10303-21;
HEADER;
FILE_DESCRIPTION (( 'STEP AP214' ),
    '1' );
FILE_NAME ('base_bearing_cover.STEP',
    '2026-05-19T08:48:22',
    ( '' ),
    ( '' ),
    'SwSTEP 2.0',
    'SolidWorks 2024',
    '' );
FILE_SCHEMA (( 'AUTOMOTIVE_DESIGN' ));
ENDSEC;

DATA;
#1 = CARTESIAN_POINT ( 'NONE',  ( 0.000000000000000000, 3.000000000000000000, -14.00000000000000000 ) ) ;
#2 = CARTESIAN_POINT ( 'NONE',  ( 2.204364238465235428E-15, 3.000000000000000000, 18.00000000000000000 ) ) ;
#3 = CIRCLE ( 'NONE', #368, 18.00000000000000000 ) ;
#4 = CIRCLE ( 'NONE', #284, 1.600000000000000089 ) ;
#5 = VECTOR ( 'NONE', #421, 1000.000000000000000 ) ;
#6 = ADVANCED_FACE ( 'NONE', ( #205 ), #323, .F. ) ;
#7 = CARTESIAN_POINT ( 'NONE',  ( 1.212400331155879505E-15, 0.000000000000000000, 9.899999999999998579 ) ) ;
#8 = CARTESIAN_POINT ( 'NONE',  ( 12.40000000000000036, 0.000000000000000000, 4.336808689942017736E-14 ) ) ;
#9 = DIRECTION ( 'NONE',  ( -0.000000000000000000, -1.000000000000000000, -0.000000000000000000 ) ) ;
#10 = EDGE_CURVE ( 'NONE', #486, #374, #466, .T. ) ;
#11 = FACE_OUTER_BOUND ( 'NONE', #83, .T. ) ;
#12 = DIRECTION ( 'NONE',  ( -0.000000000000000000, -1.000000000000000000, -0.000000000000000000 ) ) ;
#13 = CIRCLE ( 'NONE', #95, 1.600000000000000755 ) ;
#14 = AXIS2_PLACEMENT_3D ( 'NONE', #303, #262, #411 ) ;
#15 = ORIENTED_EDGE ( 'NONE', *, *, #115, .F. ) ;
#16 = LINE ( 'NONE', #474, #457 ) ;
#17 = FILL_AREA_STYLE ('',( #106 ) ) ;
#18 = EDGE_CURVE ( 'NONE', #341, #214, #277, .T. ) ;
#19 = DIRECTION ( 'NONE',  ( -0.000000000000000000, -1.000000000000000000, -0.000000000000000000 ) ) ;
#20 = SHAPE_DEFINITION_REPRESENTATION ( #130, #480 ) ;
#21 = EDGE_CURVE ( 'NONE', #400, #454, #314, .T. ) ;
#22 = ORIENTED_EDGE ( 'NONE', *, *, #378, .F. ) ;
#23 = EDGE_CURVE ( 'NONE', #374, #486, #326, .T. ) ;
#24 = EDGE_LOOP ( 'NONE', ( #229, #256, #296, #153 ) ) ;
#25 = LINE ( 'NONE', #99, #465 ) ;
#26 = ORIENTED_EDGE ( 'NONE', *, *, #337, .F. ) ;
#27 = VECTOR ( 'NONE', #123, 1000.000000000000000 ) ;
#28 = DIRECTION ( 'NONE',  ( 0.000000000000000000, 0.000000000000000000, 1.000000000000000000 ) ) ;
#29 = EDGE_LOOP ( 'NONE', ( #151, #336 ) ) ;
#30 = LINE ( 'NONE', #156, #442 ) ;
#31 = ORIENTED_EDGE ( 'NONE', *, *, #105, .T. ) ;
#32 = ADVANCED_FACE ( 'NONE', ( #85 ), #47, .T. ) ;
#33 = CARTESIAN_POINT ( 'NONE',  ( 0.000000000000000000, 3.000000000000000000, 0.000000000000000000 ) ) ;
#34 = EDGE_LOOP ( 'NONE', ( #281, #62, #385, #390 ) ) ;
#35 = DIRECTION ( 'NONE',  ( 0.000000000000000000, 1.000000000000000000, 0.000000000000000000 ) ) ;
#36 = VERTEX_POINT ( 'NONE', #352 ) ;
#37 = DIRECTION ( 'NONE',  ( -0.000000000000000000, -1.000000000000000000, -0.000000000000000000 ) ) ;
#38 = DIRECTION ( 'NONE',  ( 0.000000000000000000, 0.000000000000000000, 1.000000000000000000 ) ) ;
#39 = ADVANCED_FACE ( 'NONE', ( #11 ), #210, .F. ) ;
#40 = FACE_OUTER_BOUND ( 'NONE', #220, .T. ) ;
#41 = UNCERTAINTY_MEASURE_WITH_UNIT (LENGTH_MEASURE( 1.000000000000000082E-05 ), #322, 'distance_accuracy_value', 'NONE');
#42 = ORIENTED_EDGE ( 'NONE', *, *, #105, .F. ) ;
#43 = EDGE_CURVE ( 'NONE', #302, #36, #418, .T. ) ;
#44 = DIRECTION ( 'NONE',  ( 0.000000000000000000, 1.000000000000000000, 0.000000000000000000 ) ) ;
#45 = DIRECTION ( 'NONE',  ( -0.000000000000000000, -1.000000000000000000, -0.000000000000000000 ) ) ;
#46 = DIRECTION ( 'NONE',  ( -0.000000000000000000, -1.000000000000000000, -0.000000000000000000 ) ) ;
#47 = CYLINDRICAL_SURFACE ( 'NONE', #170, 18.00000000000000000 ) ;
#48 = CIRCLE ( 'NONE', #333, 9.899999999999998579 ) ;
#49 = ORIENTED_EDGE ( 'NONE', *, *, #195, .F. ) ;
#50 = AXIS2_PLACEMENT_3D ( 'NONE', #134, #185, #440 ) ;
#51 = AXIS2_PLACEMENT_3D ( 'NONE', #450, #190, #455 ) ;
#52 = ADVANCED_FACE ( 'NONE', ( #358, #363, #436, #247, #138, #432 ), #331, .T. ) ;
#53 = DIRECTION ( 'NONE',  ( -0.000000000000000000, -1.000000000000000000, -0.000000000000000000 ) ) ;
#54 = EDGE_CURVE ( 'NONE', #341, #232, #144, .T. ) ;
#55 = APPLICATION_PROTOCOL_DEFINITION ( 'draft international standard', 'automotive_design', 1998, #96 ) ;
#56 = CARTESIAN_POINT ( 'NONE',  ( -12.40000000000004121, 3.000000000000000000, -1.067201882419566285E-15 ) ) ;
#57 = VERTEX_POINT ( 'NONE', #221 ) ;
#58 =( GEOMETRIC_REPRESENTATION_CONTEXT ( 3 ) GLOBAL_UNCERTAINTY_ASSIGNED_CONTEXT ( ( #127 ) ) GLOBAL_UNIT_ASSIGNED_CONTEXT ( ( #63, #365, #327 ) ) REPRESENTATION_CONTEXT ( 'NONE', 'WORKASPACE' ) );
#59 = ADVANCED_FACE ( 'NONE', ( #101 ), #293, .F. ) ;
#60 = FACE_OUTER_BOUND ( 'NONE', #184, .T. ) ;
#61 = CARTESIAN_POINT ( 'NONE',  ( 0.000000000000000000, 3.000000000000000000, 0.000000000000000000 ) ) ;
#62 = ORIENTED_EDGE ( 'NONE', *, *, #478, .T. ) ;
#63 =( LENGTH_UNIT ( ) NAMED_UNIT ( * ) SI_UNIT ( .MILLI., .METRE. ) );
#64 = ORIENTED_EDGE ( 'NONE', *, *, #308, .T. ) ;
#65 = DIRECTION ( 'NONE',  ( 0.000000000000000000, 1.000000000000000000, 0.000000000000000000 ) ) ;
#66 = EDGE_LOOP ( 'NONE', ( #404, #142, #316, #109 ) ) ;
#67 = VECTOR ( 'NONE', #338, 1000.000000000000000 ) ;
#68 = MANIFOLD_SOLID_BREP ( 'Boss-Extrude1', #213 ) ;
#69 = AXIS2_PLACEMENT_3D ( 'NONE', #315, #126, #276 ) ;
#70 = CARTESIAN_POINT ( 'NONE',  ( 12.40000000000000036, 3.000000000000000000, -1.599999999999956790 ) ) ;
#71 = ORIENTED_EDGE ( 'NONE', *, *, #54, .T. ) ;
#72 = ORIENTED_EDGE ( 'NONE', *, *, #81, .T. ) ;
#73 = DIRECTION ( 'NONE',  ( 0.000000000000000000, 0.000000000000000000, -1.000000000000000000 ) ) ;
#74 = DIRECTION ( 'NONE',  ( 0.000000000000000000, 0.000000000000000000, 1.000000000000000000 ) ) ;
#75 = EDGE_CURVE ( 'NONE', #446, #420, #25, .T. ) ;
#76 = ORIENTED_EDGE ( 'NONE', *, *, #495, .T. ) ;
#77 = FACE_OUTER_BOUND ( 'NONE', #444, .T. ) ;
#78 = CARTESIAN_POINT ( 'NONE',  ( -8.651933336434325383E-14, 3.000000000000000000, 12.40000000000000036 ) ) ;
#79 = VECTOR ( 'NONE', #287, 1000.000000000000000 ) ;
#80 = AXIS2_PLACEMENT_3D ( 'NONE', #386, #242, #244 ) ;
#81 = EDGE_CURVE ( 'NONE', #232, #461, #317, .T. ) ;
#82 = CYLINDRICAL_SURFACE ( 'NONE', #396, 1.600000000000000089 ) ;
#83 = EDGE_LOOP ( 'NONE', ( #64, #71, #117, #252 ) ) ;
#84 = DIRECTION ( 'NONE',  ( 0.000000000000000000, 0.000000000000000000, 1.000000000000000000 ) ) ;
#85 = FACE_OUTER_BOUND ( 'NONE', #349, .T. ) ;
#86 = AXIS2_PLACEMENT_3D ( 'NONE', #8, #431, #114 ) ;
#87 = CARTESIAN_POINT ( 'NONE',  ( -12.40000000000004121, 0.000000000000000000, -1.067201882419566285E-15 ) ) ;
#88 = DIRECTION ( 'NONE',  ( 0.000000000000000000, 0.000000000000000000, -1.000000000000000000 ) ) ;
#89 = ADVANCED_FACE ( 'NONE', ( #97 ), #398, .F. ) ;
#90 = DIRECTION ( 'NONE',  ( 0.000000000000000000, 1.000000000000000000, 0.000000000000000000 ) ) ;
#91 = ORIENTED_EDGE ( 'NONE', *, *, #351, .T. ) ;
#92 = CARTESIAN_POINT ( 'NONE',  ( 0.000000000000000000, 0.000000000000000000, 0.000000000000000000 ) ) ;
#93 = CIRCLE ( 'NONE', #211, 1.600000000000000755 ) ;
#94 = DIRECTION ( 'NONE',  ( 0.000000000000000000, 1.000000000000000000, 0.000000000000000000 ) ) ;
#95 = AXIS2_PLACEMENT_3D ( 'NONE', #178, #469, #360 ) ;
#96 = APPLICATION_CONTEXT ( 'automotive_design' ) ;
#97 = FACE_OUTER_BOUND ( 'NONE', #259, .T. ) ;
#98 = FACE_BOUND ( 'NONE', #107, .T. ) ;
#99 = CARTESIAN_POINT ( 'NONE',  ( 1.959434878635765477E-16, 3.000000000000000000, -10.79999999999999893 ) ) ;
#100 = CARTESIAN_POINT ( 'NONE',  ( 12.40000000000000036, 0.000000000000000000, 1.600000000000043388 ) ) ;
#101 = FACE_OUTER_BOUND ( 'NONE', #34, .T. ) ;
#102 = AXIS2_PLACEMENT_3D ( 'NONE', #249, #285, #218 ) ;
#103 = ORIENTED_EDGE ( 'NONE', *, *, #173, .T. ) ;
#104 =( NAMED_UNIT ( * ) SI_UNIT ( $, .STERADIAN. ) SOLID_ANGLE_UNIT ( ) );
#105 = EDGE_CURVE ( 'NONE', #420, #488, #13, .T. ) ;
#106 = FILL_AREA_STYLE_COLOUR ( '', #179 ) ;
#107 = EDGE_LOOP ( 'NONE', ( #380, #304 ) ) ;
#108 = CYLINDRICAL_SURFACE ( 'NONE', #172, 1.600000000000000089 ) ;
#109 = ORIENTED_EDGE ( 'NONE', *, *, #279, .T. ) ;
#110 = CARTESIAN_POINT ( 'NONE',  ( 0.000000000000000000, 3.000000000000000000, -14.00000000000000000 ) ) ;
#111 = ORIENTED_EDGE ( 'NONE', *, *, #381, .T. ) ;
#112 = ORIENTED_EDGE ( 'NONE', *, *, #290, .T. ) ;
#113 = CARTESIAN_POINT ( 'NONE',  ( -8.651933336434325383E-14, 0.000000000000000000, 12.40000000000000036 ) ) ;
#114 = DIRECTION ( 'NONE',  ( 0.000000000000000000, 0.000000000000000000, 1.000000000000000000 ) ) ;
#115 = EDGE_CURVE ( 'NONE', #330, #302, #475, .T. ) ;
#116 = LINE ( 'NONE', #199, #67 ) ;
#117 = ORIENTED_EDGE ( 'NONE', *, *, #177, .F. ) ;
#118 = DIRECTION ( 'NONE',  ( 0.000000000000000000, 0.000000000000000000, 1.000000000000000000 ) ) ;
#119 = CIRCLE ( 'NONE', #189, 9.899999999999998579 ) ;
#120 = CYLINDRICAL_SURFACE ( 'NONE', #215, 9.899999999999998579 ) ;
#121 = ORIENTED_EDGE ( 'NONE', *, *, #181, .F. ) ;
#122 = CARTESIAN_POINT ( 'NONE',  ( -8.651933336434325383E-14, 0.000000000000000000, 10.79999999999999893 ) ) ;
#123 = DIRECTION ( 'NONE',  ( -0.000000000000000000, -1.000000000000000000, -0.000000000000000000 ) ) ;
#124 = EDGE_CURVE ( 'NONE', #214, #461, #329, .T. ) ;
#125 = EDGE_CURVE ( 'NONE', #330, #128, #145, .T. ) ;
#126 = DIRECTION ( 'NONE',  ( -0.000000000000000000, -1.000000000000000000, -0.000000000000000000 ) ) ;
#127 = UNCERTAINTY_MEASURE_WITH_UNIT (LENGTH_MEASURE( 1.000000000000000082E-05 ), #63, 'distance_accuracy_value', 'NONE');
#128 = VERTEX_POINT ( 'NONE', #235 ) ;
#129 = CARTESIAN_POINT ( 'NONE',  ( 0.000000000000000000, 3.000000000000000000, 0.000000000000000000 ) ) ;
#130 = PRODUCT_DEFINITION_SHAPE ( 'NONE', 'NONE',  #203 ) ;
#131 = ORIENTED_EDGE ( 'NONE', *, *, #115, .T. ) ;
#132 = EDGE_CURVE ( 'NONE', #454, #406, #394, .T. ) ;
#133 =( NAMED_UNIT ( * ) PLANE_ANGLE_UNIT ( ) SI_UNIT ( $, .RADIAN. ) );
#134 = CARTESIAN_POINT ( 'NONE',  ( -12.40000000000004121, 0.000000000000000000, -1.067201882419566285E-15 ) ) ;
#135 = DIRECTION ( 'NONE',  ( -0.000000000000000000, -1.000000000000000000, -0.000000000000000000 ) ) ;
#136 = ADVANCED_FACE ( 'NONE', ( #489 ), #260, .F. ) ;
#137 = VECTOR ( 'NONE', #135, 1000.000000000000000 ) ;
#138 = FACE_BOUND ( 'NONE', #197, .T. ) ;
#139 = AXIS2_PLACEMENT_3D ( 'NONE', #129, #458, #239 ) ;
#140 = CARTESIAN_POINT ( 'NONE',  ( -12.40000000000004121, 3.000000000000000000, 1.599999999999998979 ) ) ;
#141 = DIRECTION ( 'NONE',  ( 0.000000000000000000, 1.000000000000000000, 0.000000000000000000 ) ) ;
#142 = ORIENTED_EDGE ( 'NONE', *, *, #375, .F. ) ;
#143 = DIRECTION ( 'NONE',  ( 0.000000000000000000, -0.000000000000000000, 1.000000000000000000 ) ) ;
#144 = LINE ( 'NONE', #438, #492 ) ;
#145 = CIRCLE ( 'NONE', #484, 1.600000000000000089 ) ;
#146 = VERTEX_POINT ( 'NONE', #70 ) ;
#147 = DIRECTION ( 'NONE',  ( 0.000000000000000000, 1.000000000000000000, 0.000000000000000000 ) ) ;
#148 = ORIENTED_EDGE ( 'NONE', *, *, #75, .T. ) ;
#149 = APPLICATION_CONTEXT ( 'automotive_design' ) ;
#150 = CARTESIAN_POINT ( 'NONE',  ( -12.40000000000004121, 3.000000000000000000, -1.067201882419566285E-15 ) ) ;
#151 = ORIENTED_EDGE ( 'NONE', *, *, #337, .T. ) ;
#152 = DIRECTION ( 'NONE',  ( 0.000000000000000000, 1.000000000000000000, 0.000000000000000000 ) ) ;
#153 = ORIENTED_EDGE ( 'NONE', *, *, #81, .F. ) ;
#154 = AXIS2_PLACEMENT_3D ( 'NONE', #263, #165, #74 ) ;
#155 = EDGE_LOOP ( 'NONE', ( #343, #131, #26, #257 ) ) ;
#156 = CARTESIAN_POINT ( 'NONE',  ( 12.40000000000000036, 3.000000000000000000, -1.599999999999956790 ) ) ;
#157 = EDGE_CURVE ( 'NONE', #128, #330, #4, .T. ) ;
#158 = CARTESIAN_POINT ( 'NONE',  ( 0.000000000000000000, 0.000000000000000000, -9.899999999999998579 ) ) ;
#159 = VECTOR ( 'NONE', #9, 1000.000000000000000 ) ;
#160 = CARTESIAN_POINT ( 'NONE',  ( 0.000000000000000000, 0.000000000000000000, 0.000000000000000000 ) ) ;
#161 = STYLED_ITEM ( 'NONE', ( #397 ), #68 ) ;
#162 =( GEOMETRIC_REPRESENTATION_CONTEXT ( 3 ) GLOBAL_UNCERTAINTY_ASSIGNED_CONTEXT ( ( #41 ) ) GLOBAL_UNIT_ASSIGNED_CONTEXT ( ( #322, #133, #104 ) ) REPRESENTATION_CONTEXT ( 'NONE', 'WORKASPACE' ) );
#163 = DIRECTION ( 'NONE',  ( 0.000000000000000000, 0.000000000000000000, 1.000000000000000000 ) ) ;
#164 = CARTESIAN_POINT ( 'NONE',  ( 1.959434878635764984E-16, 0.000000000000000000, -10.79999999999999893 ) ) ;
#165 = DIRECTION ( 'NONE',  ( 0.000000000000000000, 1.000000000000000000, 0.000000000000000000 ) ) ;
#166 = CYLINDRICAL_SURFACE ( 'NONE', #69, 1.600000000000000089 ) ;
#167 = ORIENTED_EDGE ( 'NONE', *, *, #173, .F. ) ;
#168 = ADVANCED_FACE ( 'NONE', ( #77 ), #305, .F. ) ;
#169 = CARTESIAN_POINT ( 'NONE',  ( -8.651933336434325383E-14, 3.000000000000000000, 12.40000000000000036 ) ) ;
#170 = AXIS2_PLACEMENT_3D ( 'NONE', #241, #45, #207 ) ;
#171 = ORIENTED_EDGE ( 'NONE', *, *, #351, .F. ) ;
#172 = AXIS2_PLACEMENT_3D ( 'NONE', #307, #373, #73 ) ;
#173 = EDGE_CURVE ( 'NONE', #488, #420, #246, .T. ) ;
#174 = DIRECTION ( 'NONE',  ( 0.000000000000000000, 0.000000000000000000, 1.000000000000000000 ) ) ;
#175 = ORIENTED_EDGE ( 'NONE', *, *, #462, .F. ) ;
#176 = DIRECTION ( 'NONE',  ( 0.000000000000000000, 0.000000000000000000, 1.000000000000000000 ) ) ;
#177 = EDGE_CURVE ( 'NONE', #461, #232, #234, .T. ) ;
#178 = CARTESIAN_POINT ( 'NONE',  ( 0.000000000000000000, 0.000000000000000000, -12.40000000000000036 ) ) ;
#179 = COLOUR_RGB ( '',0.7921568627450980005, 0.8196078431372548767, 0.9333333333333333481 ) ;
#180 = DIRECTION ( 'NONE',  ( -0.000000000000000000, -1.000000000000000000, -0.000000000000000000 ) ) ;
#181 = EDGE_CURVE ( 'NONE', #57, #425, #267, .T. ) ;
#182 = EDGE_LOOP ( 'NONE', ( #264, #392 ) ) ;
#183 = CARTESIAN_POINT ( 'NONE',  ( 0.000000000000000000, 3.000000000000000000, -12.40000000000000036 ) ) ;
#184 = EDGE_LOOP ( 'NONE', ( #428, #459 ) ) ;
#185 = DIRECTION ( 'NONE',  ( 0.000000000000000000, 1.000000000000000000, 0.000000000000000000 ) ) ;
#186 = AXIS2_PLACEMENT_3D ( 'NONE', #202, #467, #430 ) ;
#187 = AXIS2_PLACEMENT_3D ( 'NONE', #78, #37, #408 ) ;
#188 = ORIENTED_EDGE ( 'NONE', *, *, #18, .F. ) ;
#189 = AXIS2_PLACEMENT_3D ( 'NONE', #328, #439, #174 ) ;
#190 = DIRECTION ( 'NONE',  ( 0.000000000000000000, 1.000000000000000000, 0.000000000000000000 ) ) ;
#191 = ORIENTED_EDGE ( 'NONE', *, *, #23, .F. ) ;
#192 = DIRECTION ( 'NONE',  ( -0.000000000000000000, -1.000000000000000000, -0.000000000000000000 ) ) ;
#193 = ORIENTED_EDGE ( 'NONE', *, *, #437, .F. ) ;
#194 = ORIENTED_EDGE ( 'NONE', *, *, #308, .F. ) ;
#195 = EDGE_CURVE ( 'NONE', #423, #406, #116, .T. ) ;
#196 = DIRECTION ( 'NONE',  ( -0.000000000000000000, -1.000000000000000000, -0.000000000000000000 ) ) ;
#197 = EDGE_LOOP ( 'NONE', ( #171, #22 ) ) ;
#198 = AXIS2_PLACEMENT_3D ( 'NONE', #468, #275, #88 ) ;
#199 = CARTESIAN_POINT ( 'NONE',  ( 0.000000000000000000, 3.000000000000000000, -18.00000000000000000 ) ) ;
#200 = EDGE_CURVE ( 'NONE', #410, #488, #379, .T. ) ;
#201 = DIRECTION ( 'NONE',  ( 0.000000000000000000, 1.000000000000000000, 0.000000000000000000 ) ) ;
#202 = CARTESIAN_POINT ( 'NONE',  ( 12.40000000000000036, 3.000000000000000000, 4.336808689942017736E-14 ) ) ;
#203 = PRODUCT_DEFINITION ( 'UNKNOWN', '', #407, #387 ) ;
#204 = CARTESIAN_POINT ( 'NONE',  ( 0.000000000000000000, 0.000000000000000000, 0.000000000000000000 ) ) ;
#205 = FACE_OUTER_BOUND ( 'NONE', #320, .T. ) ;
#206 = CARTESIAN_POINT ( 'NONE',  ( 0.000000000000000000, 3.000000000000000000, 0.000000000000000000 ) ) ;
#207 = DIRECTION ( 'NONE',  ( 0.000000000000000000, 0.000000000000000000, -1.000000000000000000 ) ) ;
#208 = DIRECTION ( 'NONE',  ( 0.000000000000000000, 1.000000000000000000, 0.000000000000000000 ) ) ;
#209 = ADVANCED_FACE ( 'NONE', ( #233 ), #108, .F. ) ;
#210 = CYLINDRICAL_SURFACE ( 'NONE', #240, 1.600000000000000755 ) ;
#211 = AXIS2_PLACEMENT_3D ( 'NONE', #169, #208, #84 ) ;
#212 = LINE ( 'NONE', #401, #137 ) ;
#213 = CLOSED_SHELL ( 'NONE', ( #209, #39, #470, #89, #361, #32, #52, #476, #299, #59, #6, #453, #136, #168 ) ) ;
#214 = VERTEX_POINT ( 'NONE', #445 ) ;
#215 = AXIS2_PLACEMENT_3D ( 'NONE', #206, #46, #318 ) ;
#216 = DIRECTION ( 'NONE',  ( 0.000000000000000000, 0.000000000000000000, -1.000000000000000000 ) ) ;
#217 = PRODUCT_CONTEXT ( 'NONE', #96, 'mechanical' ) ;
#218 = DIRECTION ( 'NONE',  ( 0.000000000000000000, 0.000000000000000000, 1.000000000000000000 ) ) ;
#219 = ORIENTED_EDGE ( 'NONE', *, *, #478, .F. ) ;
#220 = EDGE_LOOP ( 'NONE', ( #222, #76, #413, #175 ) ) ;
#221 = CARTESIAN_POINT ( 'NONE',  ( 0.000000000000000000, 3.000000000000000000, -9.899999999999998579 ) ) ;
#222 = ORIENTED_EDGE ( 'NONE', *, *, #181, .T. ) ;
#223 = DIRECTION ( 'NONE',  ( 0.000000000000000000, 0.000000000000000000, 1.000000000000000000 ) ) ;
#224 = AXIS2_PLACEMENT_3D ( 'NONE', #113, #35, #28 ) ;
#225 = AXIS2_PLACEMENT_3D ( 'NONE', #265, #487, #485 ) ;
#226 = ORIENTED_EDGE ( 'NONE', *, *, #290, .F. ) ;
#227 = AXIS2_PLACEMENT_3D ( 'NONE', #266, #152, #258 ) ;
#228 = DIRECTION ( 'NONE',  ( -0.000000000000000000, -1.000000000000000000, -0.000000000000000000 ) ) ;
#229 = ORIENTED_EDGE ( 'NONE', *, *, #54, .F. ) ;
#230 = EDGE_LOOP ( 'NONE', ( #111, #278 ) ) ;
#231 = FACE_OUTER_BOUND ( 'NONE', #66, .T. ) ;
#232 = VERTEX_POINT ( 'NONE', #369 ) ;
#233 = FACE_OUTER_BOUND ( 'NONE', #155, .T. ) ;
#234 = CIRCLE ( 'NONE', #224, 1.600000000000000755 ) ;
#235 = CARTESIAN_POINT ( 'NONE',  ( -12.40000000000004121, 3.000000000000000000, -1.600000000000001199 ) ) ;
#236 = CARTESIAN_POINT ( 'NONE',  ( 12.40000000000000036, 3.000000000000000000, 1.600000000000043388 ) ) ;
#237 = CARTESIAN_POINT ( 'NONE',  ( 12.40000000000000036, 3.000000000000000000, 4.336808689942017736E-14 ) ) ;
#238 = ORIENTED_EDGE ( 'NONE', *, *, #437, .T. ) ;
#239 = DIRECTION ( 'NONE',  ( 0.000000000000000000, 0.000000000000000000, 1.000000000000000000 ) ) ;
#240 = AXIS2_PLACEMENT_3D ( 'NONE', #354, #12, #282 ) ;
#241 = CARTESIAN_POINT ( 'NONE',  ( 0.000000000000000000, 3.000000000000000000, 0.000000000000000000 ) ) ;
#242 = DIRECTION ( 'NONE',  ( 0.000000000000000000, 1.000000000000000000, 0.000000000000000000 ) ) ;
#243 = CARTESIAN_POINT ( 'NONE',  ( 12.40000000000000036, 0.000000000000000000, 4.336808689942017736E-14 ) ) ;
#244 = DIRECTION ( 'NONE',  ( 0.000000000000000000, 0.000000000000000000, 1.000000000000000000 ) ) ;
#245 = ORIENTED_EDGE ( 'NONE', *, *, #200, .T. ) ;
#246 = CIRCLE ( 'NONE', #319, 1.600000000000000755 ) ;
#247 = FACE_BOUND ( 'NONE', #464, .T. ) ;
#248 = AXIS2_PLACEMENT_3D ( 'NONE', #300, #416, #452 ) ;
#249 = CARTESIAN_POINT ( 'NONE',  ( -8.651933336434325383E-14, 0.000000000000000000, 12.40000000000000036 ) ) ;
#250 = CARTESIAN_POINT ( 'NONE',  ( 0.000000000000000000, 0.000000000000000000, -14.00000000000000000 ) ) ;
#251 = CARTESIAN_POINT ( 'NONE',  ( -8.651933336434325383E-14, 3.000000000000000000, 10.79999999999999893 ) ) ;
#252 = ORIENTED_EDGE ( 'NONE', *, *, #124, .F. ) ;
#253 = EDGE_CURVE ( 'NONE', #146, #374, #30, .T. ) ;
#254 = FACE_BOUND ( 'NONE', #367, .T. ) ;
#255 = SURFACE_STYLE_FILL_AREA ( #17 ) ;
#256 = ORIENTED_EDGE ( 'NONE', *, *, #18, .T. ) ;
#257 = ORIENTED_EDGE ( 'NONE', *, *, #493, .F. ) ;
#258 = DIRECTION ( 'NONE',  ( 0.000000000000000000, 0.000000000000000000, 1.000000000000000000 ) ) ;
#259 = EDGE_LOOP ( 'NONE', ( #479, #148, #167, #261 ) ) ;
#260 = CYLINDRICAL_SURFACE ( 'NONE', #187, 1.600000000000000755 ) ;
#261 = ORIENTED_EDGE ( 'NONE', *, *, #200, .F. ) ;
#262 = DIRECTION ( 'NONE',  ( 0.000000000000000000, 1.000000000000000000, 0.000000000000000000 ) ) ;
#263 = CARTESIAN_POINT ( 'NONE',  ( -8.651933336434325383E-14, 3.000000000000000000, 12.40000000000000036 ) ) ;
#264 = ORIENTED_EDGE ( 'NONE', *, *, #375, .T. ) ;
#265 = CARTESIAN_POINT ( 'NONE',  ( 0.000000000000000000, 0.000000000000000000, 0.000000000000000000 ) ) ;
#266 = CARTESIAN_POINT ( 'NONE',  ( 0.000000000000000000, 3.000000000000000000, -12.40000000000000036 ) ) ;
#267 = CIRCLE ( 'NONE', #51, 9.899999999999998579 ) ;
#268 = CIRCLE ( 'NONE', #472, 18.00000000000000000 ) ;
#269 = ORIENTED_EDGE ( 'NONE', *, *, #10, .F. ) ;
#270 = CARTESIAN_POINT ( 'NONE',  ( 12.40000000000000036, 3.000000000000000000, 1.600000000000043388 ) ) ;
#271 = CARTESIAN_POINT ( 'NONE',  ( 0.000000000000000000, 3.000000000000000000, -18.00000000000000000 ) ) ;
#272 = ORIENTED_EDGE ( 'NONE', *, *, #321, .F. ) ;
#273 = EDGE_CURVE ( 'NONE', #410, #446, #286, .T. ) ;
#274 = LINE ( 'NONE', #350, #159 ) ;
#275 = DIRECTION ( 'NONE',  ( -0.000000000000000000, -1.000000000000000000, -0.000000000000000000 ) ) ;
#276 = DIRECTION ( 'NONE',  ( 0.000000000000000000, 0.000000000000000000, -1.000000000000000000 ) ) ;
#277 = CIRCLE ( 'NONE', #154, 1.600000000000000755 ) ;
#278 = ORIENTED_EDGE ( 'NONE', *, *, #383, .T. ) ;
#279 = EDGE_CURVE ( 'NONE', #406, #454, #3, .T. ) ;
#280 = CARTESIAN_POINT ( 'NONE',  ( -8.632338987647968012E-14, 3.000000000000000000, 14.00000000000000000 ) ) ;
#281 = ORIENTED_EDGE ( 'NONE', *, *, #495, .F. ) ;
#282 = DIRECTION ( 'NONE',  ( 0.000000000000000000, 0.000000000000000000, -1.000000000000000000 ) ) ;
#283 = VECTOR ( 'NONE', #228, 1000.000000000000000 ) ;
#284 = AXIS2_PLACEMENT_3D ( 'NONE', #150, #147, #491 ) ;
#285 = DIRECTION ( 'NONE',  ( 0.000000000000000000, 1.000000000000000000, 0.000000000000000000 ) ) ;
#286 = CIRCLE ( 'NONE', #227, 1.600000000000000755 ) ;
#287 = DIRECTION ( 'NONE',  ( -0.000000000000000000, -1.000000000000000000, -0.000000000000000000 ) ) ;
#288 = DIRECTION ( 'NONE',  ( 0.000000000000000000, 1.000000000000000000, 0.000000000000000000 ) ) ;
#289 = CARTESIAN_POINT ( 'NONE',  ( 0.000000000000000000, 3.000000000000000000, 0.000000000000000000 ) ) ;
#290 = EDGE_CURVE ( 'NONE', #446, #410, #347, .T. ) ;
#291 = ORIENTED_EDGE ( 'NONE', *, *, #273, .F. ) ;
#292 = FACE_BOUND ( 'NONE', #230, .T. ) ;
#293 = CYLINDRICAL_SURFACE ( 'NONE', #409, 9.899999999999998579 ) ;
#294 = AXIS2_PLACEMENT_3D ( 'NONE', #183, #53, #216 ) ;
#295 = CIRCLE ( 'NONE', #356, 1.600000000000000089 ) ;
#296 = ORIENTED_EDGE ( 'NONE', *, *, #124, .T. ) ;
#297 = DIRECTION ( 'NONE',  ( 0.000000000000000000, 1.000000000000000000, 0.000000000000000000 ) ) ;
#298 = EDGE_LOOP ( 'NONE', ( #403, #301 ) ) ;
#299 = ADVANCED_FACE ( 'NONE', ( #231 ), #376, .T. ) ;
#300 = CARTESIAN_POINT ( 'NONE',  ( -12.40000000000004121, 3.000000000000000000, -1.067201882419566285E-15 ) ) ;
#301 = ORIENTED_EDGE ( 'NONE', *, *, #125, .F. ) ;
#302 = VERTEX_POINT ( 'NONE', #345 ) ;
#303 = CARTESIAN_POINT ( 'NONE',  ( 0.000000000000000000, 3.000000000000000000, -12.40000000000000036 ) ) ;
#304 = ORIENTED_EDGE ( 'NONE', *, *, #10, .T. ) ;
#305 = CYLINDRICAL_SURFACE ( 'NONE', #248, 1.600000000000000089 ) ;
#306 = ORIENTED_EDGE ( 'NONE', *, *, #253, .T. ) ;
#307 = CARTESIAN_POINT ( 'NONE',  ( -12.40000000000004121, 3.000000000000000000, -1.067201882419566285E-15 ) ) ;
#308 = EDGE_CURVE ( 'NONE', #214, #341, #93, .T. ) ;
#309 = CARTESIAN_POINT ( 'NONE',  ( 0.000000000000000000, 0.000000000000000000, -18.00000000000000000 ) ) ;
#310 = AXIS2_PLACEMENT_3D ( 'NONE', #471, #288, #143 ) ;
#311 = FACE_OUTER_BOUND ( 'NONE', #490, .T. ) ;
#312 = VERTEX_POINT ( 'NONE', #7 ) ;
#313 = DIRECTION ( 'NONE',  ( 0.000000000000000000, 0.000000000000000000, -1.000000000000000000 ) ) ;
#314 = LINE ( 'NONE', #342, #27 ) ;
#315 = CARTESIAN_POINT ( 'NONE',  ( 12.40000000000000036, 3.000000000000000000, 4.336808689942017736E-14 ) ) ;
#316 = ORIENTED_EDGE ( 'NONE', *, *, #195, .T. ) ;
#317 = CIRCLE ( 'NONE', #102, 1.600000000000000755 ) ;
#318 = DIRECTION ( 'NONE',  ( 0.000000000000000000, 0.000000000000000000, -1.000000000000000000 ) ) ;
#319 = AXIS2_PLACEMENT_3D ( 'NONE', #447, #297, #334 ) ;
#320 = EDGE_LOOP ( 'NONE', ( #377, #112, #245, #42 ) ) ;
#321 = EDGE_CURVE ( 'NONE', #400, #423, #419, .T. ) ;
#322 =( LENGTH_UNIT ( ) NAMED_UNIT ( * ) SI_UNIT ( .MILLI., .METRE. ) );
#323 = CYLINDRICAL_SURFACE ( 'NONE', #198, 1.600000000000000755 ) ;
#324 = SURFACE_SIDE_STYLE ('',( #255 ) ) ;
#325 = FACE_BOUND ( 'NONE', #357, .T. ) ;
#326 = CIRCLE ( 'NONE', #433, 1.600000000000000089 ) ;
#327 =( NAMED_UNIT ( * ) SI_UNIT ( $, .STERADIAN. ) SOLID_ANGLE_UNIT ( ) );
#328 = CARTESIAN_POINT ( 'NONE',  ( 0.000000000000000000, 3.000000000000000000, 0.000000000000000000 ) ) ;
#329 = LINE ( 'NONE', #251, #355 ) ;
#330 = VERTEX_POINT ( 'NONE', #424 ) ;
#331 = PLANE ( 'NONE',  #370 ) ;
#332 = EDGE_LOOP ( 'NONE', ( #291, #226 ) ) ;
#333 = AXIS2_PLACEMENT_3D ( 'NONE', #204, #201, #344 ) ;
#334 = DIRECTION ( 'NONE',  ( 0.000000000000000000, 0.000000000000000000, 1.000000000000000000 ) ) ;
#335 = CIRCLE ( 'NONE', #393, 9.899999999999998579 ) ;
#336 = ORIENTED_EDGE ( 'NONE', *, *, #43, .T. ) ;
#337 = EDGE_CURVE ( 'NONE', #36, #302, #295, .T. ) ;
#338 = DIRECTION ( 'NONE',  ( -0.000000000000000000, -1.000000000000000000, -0.000000000000000000 ) ) ;
#339 = VERTEX_POINT ( 'NONE', #158 ) ;
#340 = EDGE_LOOP ( 'NONE', ( #194, #188 ) ) ;
#341 = VERTEX_POINT ( 'NONE', #280 ) ;
#342 = CARTESIAN_POINT ( 'NONE',  ( 2.204364238465235428E-15, 3.000000000000000000, 18.00000000000000000 ) ) ;
#343 = ORIENTED_EDGE ( 'NONE', *, *, #157, .T. ) ;
#344 = DIRECTION ( 'NONE',  ( 0.000000000000000000, 0.000000000000000000, 1.000000000000000000 ) ) ;
#345 = CARTESIAN_POINT ( 'NONE',  ( -12.40000000000004121, 0.000000000000000000, 1.599999999999998979 ) ) ;
#346 = CIRCLE ( 'NONE', #186, 1.600000000000000089 ) ;
#347 = CIRCLE ( 'NONE', #14, 1.600000000000000755 ) ;
#348 = CARTESIAN_POINT ( 'NONE',  ( 12.40000000000000036, 0.000000000000000000, -1.599999999999956790 ) ) ;
#349 = EDGE_LOOP ( 'NONE', ( #272, #372, #412, #49 ) ) ;
#350 = CARTESIAN_POINT ( 'NONE',  ( 0.000000000000000000, 3.000000000000000000, -9.899999999999998579 ) ) ;
#351 = EDGE_CURVE ( 'NONE', #146, #441, #417, .T. ) ;
#352 = CARTESIAN_POINT ( 'NONE',  ( -12.40000000000004121, 0.000000000000000000, -1.600000000000001199 ) ) ;
#353 = CARTESIAN_POINT ( 'NONE',  ( 1.212400331155879505E-15, 3.000000000000000000, 9.899999999999998579 ) ) ;
#354 = CARTESIAN_POINT ( 'NONE',  ( -8.651933336434325383E-14, 3.000000000000000000, 12.40000000000000036 ) ) ;
#355 = VECTOR ( 'NONE', #399, 1000.000000000000000 ) ;
#356 = AXIS2_PLACEMENT_3D ( 'NONE', #87, #90, #118 ) ;
#357 = EDGE_LOOP ( 'NONE', ( #449, #72 ) ) ;
#358 = FACE_BOUND ( 'NONE', #340, .T. ) ;
#359 = PLANE ( 'NONE',  #310 ) ;
#360 = DIRECTION ( 'NONE',  ( 0.000000000000000000, 0.000000000000000000, 1.000000000000000000 ) ) ;
#361 = ADVANCED_FACE ( 'NONE', ( #40 ), #120, .F. ) ;
#362 = APPLICATION_PROTOCOL_DEFINITION ( 'draft international standard', 'automotive_design', 1998, #149 ) ;
#363 = FACE_BOUND ( 'NONE', #332, .T. ) ;
#364 = ORIENTED_EDGE ( 'NONE', *, *, #43, .F. ) ;
#365 =( NAMED_UNIT ( * ) PLANE_ANGLE_UNIT ( ) SI_UNIT ( $, .RADIAN. ) );
#366 = ORIENTED_EDGE ( 'NONE', *, *, #253, .F. ) ;
#367 = EDGE_LOOP ( 'NONE', ( #103, #31 ) ) ;
#368 = AXIS2_PLACEMENT_3D ( 'NONE', #405, #65, #223 ) ;
#369 = CARTESIAN_POINT ( 'NONE',  ( -8.632338987647968012E-14, 0.000000000000000000, 14.00000000000000000 ) ) ;
#370 = AXIS2_PLACEMENT_3D ( 'NONE', #61, #94, #482 ) ;
#371 = AXIS2_PLACEMENT_3D ( 'NONE', #33, #196, #389 ) ;
#372 = ORIENTED_EDGE ( 'NONE', *, *, #21, .T. ) ;
#373 = DIRECTION ( 'NONE',  ( -0.000000000000000000, -1.000000000000000000, -0.000000000000000000 ) ) ;
#374 = VERTEX_POINT ( 'NONE', #348 ) ;
#375 = EDGE_CURVE ( 'NONE', #423, #400, #268, .T. ) ;
#376 = CYLINDRICAL_SURFACE ( 'NONE', #371, 18.00000000000000000 ) ;
#377 = ORIENTED_EDGE ( 'NONE', *, *, #75, .F. ) ;
#378 = EDGE_CURVE ( 'NONE', #441, #146, #346, .T. ) ;
#379 = LINE ( 'NONE', #110, #283 ) ;
#380 = ORIENTED_EDGE ( 'NONE', *, *, #23, .T. ) ;
#381 = EDGE_CURVE ( 'NONE', #339, #312, #48, .T. ) ;
#382 = CARTESIAN_POINT ( 'NONE',  ( 1.959434878635764984E-16, 3.000000000000000000, -10.79999999999999893 ) ) ;
#383 = EDGE_CURVE ( 'NONE', #312, #339, #335, .T. ) ;
#384 = DIRECTION ( 'NONE',  ( -0.000000000000000000, -1.000000000000000000, -0.000000000000000000 ) ) ;
#385 = ORIENTED_EDGE ( 'NONE', *, *, #462, .T. ) ;
#386 = CARTESIAN_POINT ( 'NONE',  ( 12.40000000000000036, 3.000000000000000000, 4.336808689942017736E-14 ) ) ;
#387 = PRODUCT_DEFINITION_CONTEXT ( 'detailed design', #149, 'design' ) ;
#388 = ORIENTED_EDGE ( 'NONE', *, *, #493, .T. ) ;
#389 = DIRECTION ( 'NONE',  ( 0.000000000000000000, 0.000000000000000000, -1.000000000000000000 ) ) ;
#390 = ORIENTED_EDGE ( 'NONE', *, *, #383, .F. ) ;
#391 = DIRECTION ( 'NONE',  ( 0.000000000000000000, 1.000000000000000000, 0.000000000000000000 ) ) ;
#392 = ORIENTED_EDGE ( 'NONE', *, *, #321, .T. ) ;
#393 = AXIS2_PLACEMENT_3D ( 'NONE', #160, #44, #38 ) ;
#394 = CIRCLE ( 'NONE', #225, 18.00000000000000000 ) ;
#395 = DIRECTION ( 'NONE',  ( -0.000000000000000000, -1.000000000000000000, -0.000000000000000000 ) ) ;
#396 = AXIS2_PLACEMENT_3D ( 'NONE', #237, #384, #313 ) ;
#397 = PRESENTATION_STYLE_ASSIGNMENT (( #402 ) ) ;
#398 = CYLINDRICAL_SURFACE ( 'NONE', #294, 1.600000000000000755 ) ;
#399 = DIRECTION ( 'NONE',  ( -0.000000000000000000, -1.000000000000000000, -0.000000000000000000 ) ) ;
#400 = VERTEX_POINT ( 'NONE', #2 ) ;
#401 = CARTESIAN_POINT ( 'NONE',  ( -12.40000000000004121, 3.000000000000000000, -1.600000000000001199 ) ) ;
#402 = SURFACE_STYLE_USAGE ( .BOTH. , #324 ) ;
#403 = ORIENTED_EDGE ( 'NONE', *, *, #157, .F. ) ;
#404 = ORIENTED_EDGE ( 'NONE', *, *, #21, .F. ) ;
#405 = CARTESIAN_POINT ( 'NONE',  ( 0.000000000000000000, 0.000000000000000000, 0.000000000000000000 ) ) ;
#406 = VERTEX_POINT ( 'NONE', #309 ) ;
#407 = PRODUCT_DEFINITION_FORMATION_WITH_SPECIFIED_SOURCE ( 'ANY', '', #415, .NOT_KNOWN. ) ;
#408 = DIRECTION ( 'NONE',  ( 0.000000000000000000, 0.000000000000000000, -1.000000000000000000 ) ) ;
#409 = AXIS2_PLACEMENT_3D ( 'NONE', #289, #477, #443 ) ;
#410 = VERTEX_POINT ( 'NONE', #1 ) ;
#411 = DIRECTION ( 'NONE',  ( 0.000000000000000000, 0.000000000000000000, 1.000000000000000000 ) ) ;
#412 = ORIENTED_EDGE ( 'NONE', *, *, #132, .T. ) ;
#413 = ORIENTED_EDGE ( 'NONE', *, *, #381, .F. ) ;
#414 = DIRECTION ( 'NONE',  ( 0.000000000000000000, 0.000000000000000000, 1.000000000000000000 ) ) ;
#415 = PRODUCT ( 'base_bearing_cover', 'base_bearing_cover', '', ( #217 ) ) ;
#416 = DIRECTION ( 'NONE',  ( -0.000000000000000000, -1.000000000000000000, -0.000000000000000000 ) ) ;
#417 = CIRCLE ( 'NONE', #80, 1.600000000000000089 ) ;
#418 = CIRCLE ( 'NONE', #50, 1.600000000000000089 ) ;
#419 = CIRCLE ( 'NONE', #139, 18.00000000000000000 ) ;
#420 = VERTEX_POINT ( 'NONE', #164 ) ;
#421 = DIRECTION ( 'NONE',  ( -0.000000000000000000, -1.000000000000000000, -0.000000000000000000 ) ) ;
#422 = DIRECTION ( 'NONE',  ( 0.000000000000000000, 0.000000000000000000, 1.000000000000000000 ) ) ;
#423 = VERTEX_POINT ( 'NONE', #271 ) ;
#424 = CARTESIAN_POINT ( 'NONE',  ( -12.40000000000004121, 3.000000000000000000, 1.599999999999998979 ) ) ;
#425 = VERTEX_POINT ( 'NONE', #353 ) ;
#426 = MECHANICAL_DESIGN_GEOMETRIC_PRESENTATION_REPRESENTATION (  '', ( #161 ), #58 ) ;
#427 = FACE_OUTER_BOUND ( 'NONE', #451, .T. ) ;
#428 = ORIENTED_EDGE ( 'NONE', *, *, #279, .F. ) ;
#429 = PRODUCT_RELATED_PRODUCT_CATEGORY ( 'part', '', ( #415 ) ) ;
#430 = DIRECTION ( 'NONE',  ( 0.000000000000000000, 0.000000000000000000, 1.000000000000000000 ) ) ;
#431 = DIRECTION ( 'NONE',  ( 0.000000000000000000, 1.000000000000000000, 0.000000000000000000 ) ) ;
#432 = FACE_BOUND ( 'NONE', #298, .T. ) ;
#433 = AXIS2_PLACEMENT_3D ( 'NONE', #243, #494, #163 ) ;
#434 = DIRECTION ( 'NONE',  ( 1.000000000000000000, 0.000000000000000000, 0.000000000000000000 ) ) ;
#435 = AXIS2_PLACEMENT_3D ( 'NONE', #92, #176, #434 ) ;
#436 = FACE_OUTER_BOUND ( 'NONE', #182, .T. ) ;
#437 = EDGE_CURVE ( 'NONE', #441, #486, #456, .T. ) ;
#438 = CARTESIAN_POINT ( 'NONE',  ( -8.632338987647968012E-14, 3.000000000000000000, 14.00000000000000000 ) ) ;
#439 = DIRECTION ( 'NONE',  ( 0.000000000000000000, 1.000000000000000000, 0.000000000000000000 ) ) ;
#440 = DIRECTION ( 'NONE',  ( 0.000000000000000000, 0.000000000000000000, 1.000000000000000000 ) ) ;
#441 = VERTEX_POINT ( 'NONE', #236 ) ;
#442 = VECTOR ( 'NONE', #192, 1000.000000000000000 ) ;
#443 = DIRECTION ( 'NONE',  ( 0.000000000000000000, 0.000000000000000000, -1.000000000000000000 ) ) ;
#444 = EDGE_LOOP ( 'NONE', ( #15, #448, #388, #364 ) ) ;
#445 = CARTESIAN_POINT ( 'NONE',  ( -8.651933336434325383E-14, 3.000000000000000000, 10.79999999999999893 ) ) ;
#446 = VERTEX_POINT ( 'NONE', #382 ) ;
#447 = CARTESIAN_POINT ( 'NONE',  ( 0.000000000000000000, 0.000000000000000000, -12.40000000000000036 ) ) ;
#448 = ORIENTED_EDGE ( 'NONE', *, *, #125, .T. ) ;
#449 = ORIENTED_EDGE ( 'NONE', *, *, #177, .T. ) ;
#450 = CARTESIAN_POINT ( 'NONE',  ( 0.000000000000000000, 3.000000000000000000, 0.000000000000000000 ) ) ;
#451 = EDGE_LOOP ( 'NONE', ( #91, #238, #191, #366 ) ) ;
#452 = DIRECTION ( 'NONE',  ( 0.000000000000000000, 0.000000000000000000, -1.000000000000000000 ) ) ;
#453 = ADVANCED_FACE ( 'NONE', ( #311 ), #82, .F. ) ;
#454 = VERTEX_POINT ( 'NONE', #460 ) ;
#455 = DIRECTION ( 'NONE',  ( 0.000000000000000000, 0.000000000000000000, 1.000000000000000000 ) ) ;
#456 = LINE ( 'NONE', #270, #5 ) ;
#457 = VECTOR ( 'NONE', #395, 1000.000000000000000 ) ;
#458 = DIRECTION ( 'NONE',  ( 0.000000000000000000, 1.000000000000000000, 0.000000000000000000 ) ) ;
#459 = ORIENTED_EDGE ( 'NONE', *, *, #132, .F. ) ;
#460 = CARTESIAN_POINT ( 'NONE',  ( 2.204364238465235428E-15, 0.000000000000000000, 18.00000000000000000 ) ) ;
#461 = VERTEX_POINT ( 'NONE', #122 ) ;
#462 = EDGE_CURVE ( 'NONE', #57, #339, #274, .T. ) ;
#463 = CARTESIAN_POINT ( 'NONE',  ( 0.000000000000000000, 3.000000000000000000, 0.000000000000000000 ) ) ;
#464 = EDGE_LOOP ( 'NONE', ( #121, #219 ) ) ;
#465 = VECTOR ( 'NONE', #180, 1000.000000000000000 ) ;
#466 = CIRCLE ( 'NONE', #86, 1.600000000000000089 ) ;
#467 = DIRECTION ( 'NONE',  ( 0.000000000000000000, 1.000000000000000000, 0.000000000000000000 ) ) ;
#468 = CARTESIAN_POINT ( 'NONE',  ( 0.000000000000000000, 3.000000000000000000, -12.40000000000000036 ) ) ;
#469 = DIRECTION ( 'NONE',  ( 0.000000000000000000, 1.000000000000000000, 0.000000000000000000 ) ) ;
#470 = ADVANCED_FACE ( 'NONE', ( #427 ), #166, .F. ) ;
#471 = CARTESIAN_POINT ( 'NONE',  ( 0.000000000000000000, 0.000000000000000000, 0.000000000000000000 ) ) ;
#472 = AXIS2_PLACEMENT_3D ( 'NONE', #463, #391, #422 ) ;
#473 = PRESENTATION_LAYER_ASSIGNMENT (  '', '', ( #161 ) ) ;
#474 = CARTESIAN_POINT ( 'NONE',  ( 1.212400331155879505E-15, 3.000000000000000000, 9.899999999999998579 ) ) ;
#475 = LINE ( 'NONE', #140, #79 ) ;
#476 = ADVANCED_FACE ( 'NONE', ( #60, #292, #254, #98, #325, #481 ), #359, .F. ) ;
#477 = DIRECTION ( 'NONE',  ( -0.000000000000000000, -1.000000000000000000, -0.000000000000000000 ) ) ;
#478 = EDGE_CURVE ( 'NONE', #425, #57, #119, .T. ) ;
#479 = ORIENTED_EDGE ( 'NONE', *, *, #273, .T. ) ;
#480 = ADVANCED_BREP_SHAPE_REPRESENTATION ( 'base_bearing_cover', ( #68, #435 ), #162 ) ;
#481 = FACE_BOUND ( 'NONE', #29, .T. ) ;
#482 = DIRECTION ( 'NONE',  ( 0.000000000000000000, -0.000000000000000000, 1.000000000000000000 ) ) ;
#483 = ORIENTED_EDGE ( 'NONE', *, *, #378, .T. ) ;
#484 = AXIS2_PLACEMENT_3D ( 'NONE', #56, #141, #414 ) ;
#485 = DIRECTION ( 'NONE',  ( 0.000000000000000000, 0.000000000000000000, 1.000000000000000000 ) ) ;
#486 = VERTEX_POINT ( 'NONE', #100 ) ;
#487 = DIRECTION ( 'NONE',  ( 0.000000000000000000, 1.000000000000000000, 0.000000000000000000 ) ) ;
#488 = VERTEX_POINT ( 'NONE', #250 ) ;
#489 = FACE_OUTER_BOUND ( 'NONE', #24, .T. ) ;
#490 = EDGE_LOOP ( 'NONE', ( #193, #483, #306, #269 ) ) ;
#491 = DIRECTION ( 'NONE',  ( 0.000000000000000000, 0.000000000000000000, 1.000000000000000000 ) ) ;
#492 = VECTOR ( 'NONE', #19, 1000.000000000000000 ) ;
#493 = EDGE_CURVE ( 'NONE', #128, #36, #212, .T. ) ;
#494 = DIRECTION ( 'NONE',  ( 0.000000000000000000, 1.000000000000000000, 0.000000000000000000 ) ) ;
#495 = EDGE_CURVE ( 'NONE', #425, #312, #16, .T. ) ;
ENDSEC;
END-ISO-10303-21;
