ISO-10303-21;
HEADER;
FILE_DESCRIPTION (( 'STEP AP214' ),
    '1' );
FILE_NAME ('camer_tracker_base_cover.STEP',
    '2026-05-19T08:48:03',
    ( '' ),
    ( '' ),
    'SwSTEP 2.0',
    'SolidWorks 2024',
    '' );
FILE_SCHEMA (( 'AUTOMOTIVE_DESIGN' ));
ENDSEC;

DATA;
#1 = DIRECTION ( 'NONE',  ( 1.000000000000000000, -1.734723475976806700E-15, 0.000000000000000000 ) ) ;
#2 = DIRECTION ( 'NONE',  ( 0.000000000000000000, 0.000000000000000000, 1.000000000000000000 ) ) ;
#3 = ORIENTED_EDGE ( 'NONE', *, *, #273, .T. ) ;
#4 = DIRECTION ( 'NONE',  ( 1.000000000000000000, 0.000000000000000000, 0.000000000000000000 ) ) ;
#5 = CARTESIAN_POINT ( 'NONE',  ( -39.80000000000000426, 9.658087761210321212E-16, 0.000000000000000000 ) ) ;
#6 = ADVANCED_FACE ( 'NONE', ( #456 ), #791, .F. ) ;
#7 = AXIS2_PLACEMENT_3D ( 'NONE', #249, #771, #515 ) ;
#8 = ORIENTED_EDGE ( 'NONE', *, *, #209, .T. ) ;
#9 = CIRCLE ( 'NONE', #226, 19.00000000000001066 ) ;
#10 = ORIENTED_EDGE ( 'NONE', *, *, #712, .T. ) ;
#11 = CARTESIAN_POINT ( 'NONE',  ( -46.25863997096080027, 14.40570333659616331, 2.000000000000000000 ) ) ;
#12 = DIRECTION ( 'NONE',  ( -0.000000000000000000, -0.000000000000000000, 1.000000000000000000 ) ) ;
#13 = ORIENTED_EDGE ( 'NONE', *, *, #273, .F. ) ;
#14 = AXIS2_PLACEMENT_3D ( 'NONE', #118, #460, #260 ) ;
#15 = CIRCLE ( 'NONE', #234, 1.600000000000004086 ) ;
#16 = CARTESIAN_POINT ( 'NONE',  ( -40.41522368914974805, 18.38477631085023845, 0.000000000000000000 ) ) ;
#17 = DIRECTION ( 'NONE',  ( -0.000000000000000000, -0.000000000000000000, 1.000000000000000000 ) ) ;
#18 = ORIENTED_EDGE ( 'NONE', *, *, #507, .T. ) ;
#19 = DIRECTION ( 'NONE',  ( -0.000000000000000000, -0.000000000000000000, -1.000000000000000000 ) ) ;
#20 = DIRECTION ( 'NONE',  ( 0.000000000000000000, 0.000000000000000000, 1.000000000000000000 ) ) ;
#21 = EDGE_CURVE ( 'NONE', #496, #732, #204, .T. ) ;
#22 = ORIENTED_EDGE ( 'NONE', *, *, #54, .F. ) ;
#23 = AXIS2_PLACEMENT_3D ( 'NONE', #521, #61, #49 ) ;
#24 = PRODUCT_RELATED_PRODUCT_CATEGORY ( 'part', '', ( #140 ) ) ;
#25 = LINE ( 'NONE', #288, #497 ) ;
#26 = EDGE_LOOP ( 'NONE', ( #47, #213, #13, #612 ) ) ;
#27 = EDGE_CURVE ( 'NONE', #70, #283, #641, .T. ) ;
#28 = AXIS2_PLACEMENT_3D ( 'NONE', #666, #211, #216 ) ;
#29 = FACE_OUTER_BOUND ( 'NONE', #835, .T. ) ;
#30 = ORIENTED_EDGE ( 'NONE', *, *, #203, .F. ) ;
#31 = ADVANCED_FACE ( 'NONE', ( #131 ), #596, .F. ) ;
#32 = LINE ( 'NONE', #757, #543 ) ;
#33 =( GEOMETRIC_REPRESENTATION_CONTEXT ( 3 ) GLOBAL_UNCERTAINTY_ASSIGNED_CONTEXT ( ( #437 ) ) GLOBAL_UNIT_ASSIGNED_CONTEXT ( ( #337, #75, #458 ) ) REPRESENTATION_CONTEXT ( 'NONE', 'WORKASPACE' ) );
#34 = ORIENTED_EDGE ( 'NONE', *, *, #503, .F. ) ;
#35 = CIRCLE ( 'NONE', #48, 29.10000000000000497 ) ;
#36 = AXIS2_PLACEMENT_3D ( 'NONE', #120, #66, #4 ) ;
#37 = FACE_BOUND ( 'NONE', #804, .T. ) ;
#38 = DIRECTION ( 'NONE',  ( 1.000000000000000000, 0.000000000000000000, 0.000000000000000000 ) ) ;
#39 = ORIENTED_EDGE ( 'NONE', *, *, #233, .T. ) ;
#40 = DIRECTION ( 'NONE',  ( -1.000000000000000000, 0.000000000000000000, 0.000000000000000000 ) ) ;
#41 = CARTESIAN_POINT ( 'NONE',  ( -77.80000000000002558, -1.361020142258940230E-15, 2.000000000000000000 ) ) ;
#42 = CIRCLE ( 'NONE', #454, 10.00000000000000178 ) ;
#43 = VERTEX_POINT ( 'NONE', #470 ) ;
#44 = CARTESIAN_POINT ( 'NONE',  ( -77.90751711230588228, 21.94795639240561513, 0.000000000000000000 ) ) ;
#45 = CARTESIAN_POINT ( 'NONE',  ( -58.79999999999999716, -26.00000000000000711, 0.000000000000000000 ) ) ;
#46 = APPLICATION_PROTOCOL_DEFINITION ( 'draft international standard', 'automotive_design', 1998, #169 ) ;
#47 = ORIENTED_EDGE ( 'NONE', *, *, #69, .F. ) ;
#48 = AXIS2_PLACEMENT_3D ( 'NONE', #665, #726, #800 ) ;
#49 = DIRECTION ( 'NONE',  ( 1.000000000000000000, 0.000000000000000000, 0.000000000000000000 ) ) ;
#50 = DIRECTION ( 'NONE',  ( -0.000000000000000000, -0.000000000000000000, -1.000000000000000000 ) ) ;
#51 = ORIENTED_EDGE ( 'NONE', *, *, #473, .F. ) ;
#52 = DIRECTION ( 'NONE',  ( 1.000000000000000000, 0.000000000000000000, 0.000000000000000000 ) ) ;
#53 = CARTESIAN_POINT ( 'NONE',  ( -36.25863997096080027, -14.40570333659615265, 2.000000000000000000 ) ) ;
#54 = EDGE_CURVE ( 'NONE', #650, #70, #526, .T. ) ;
#55 = VECTOR ( 'NONE', #400, 1000.000000000000000 ) ;
#56 = EDGE_LOOP ( 'NONE', ( #813, #446 ) ) ;
#57 = CARTESIAN_POINT ( 'NONE',  ( -58.80000000000001137, -1.361020142258940230E-15, 0.000000000000000000 ) ) ;
#58 = DIRECTION ( 'NONE',  ( 1.000000000000000000, 0.000000000000000000, 0.000000000000000000 ) ) ;
#59 = DIRECTION ( 'NONE',  ( -0.000000000000000000, -0.000000000000000000, 1.000000000000000000 ) ) ;
#60 = VERTEX_POINT ( 'NONE', #465 ) ;
#61 = DIRECTION ( 'NONE',  ( 0.000000000000000000, 0.000000000000000000, 1.000000000000000000 ) ) ;
#62 = AXIS2_PLACEMENT_3D ( 'NONE', #607, #148, #285 ) ;
#63 = DIRECTION ( 'NONE',  ( -0.000000000000000000, -0.000000000000000000, 1.000000000000000000 ) ) ;
#64 = ORIENTED_EDGE ( 'NONE', *, *, #203, .T. ) ;
#65 = VERTEX_POINT ( 'NONE', #653 ) ;
#66 = DIRECTION ( 'NONE',  ( 0.000000000000000000, 0.000000000000000000, 1.000000000000000000 ) ) ;
#67 = DIRECTION ( 'NONE',  ( 1.000000000000000000, 0.000000000000000000, 0.000000000000000000 ) ) ;
#68 = CARTESIAN_POINT ( 'NONE',  ( -46.25863997096080027, -14.40570333659616686, 2.000000000000000000 ) ) ;
#69 = EDGE_CURVE ( 'NONE', #392, #387, #42, .T. ) ;
#70 = VERTEX_POINT ( 'NONE', #330 ) ;
#71 = AXIS2_PLACEMENT_3D ( 'NONE', #556, #806, #797 ) ;
#72 = CARTESIAN_POINT ( 'NONE',  ( -81.34136002903926510, -14.40570333659613134, 0.000000000000000000 ) ) ;
#73 = ORIENTED_EDGE ( 'NONE', *, *, #691, .T. ) ;
#74 = ORIENTED_EDGE ( 'NONE', *, *, #507, .F. ) ;
#75 =( NAMED_UNIT ( * ) PLANE_ANGLE_UNIT ( ) SI_UNIT ( $, .RADIAN. ) );
#76 = AXIS2_PLACEMENT_3D ( 'NONE', #268, #393, #532 ) ;
#77 = DIRECTION ( 'NONE',  ( -0.000000000000000000, -0.000000000000000000, -1.000000000000000000 ) ) ;
#78 = CARTESIAN_POINT ( 'NONE',  ( -40.41522368914976227, -18.38477631085023134, 0.000000000000000000 ) ) ;
#79 = EDGE_LOOP ( 'NONE', ( #536, #128, #715, #351 ) ) ;
#80 = FACE_BOUND ( 'NONE', #290, .T. ) ;
#81 = CARTESIAN_POINT ( 'NONE',  ( -58.80000000000001137, -1.361020142258940230E-15, 2.000000000000000000 ) ) ;
#82 = VERTEX_POINT ( 'NONE', #198 ) ;
#83 = CIRCLE ( 'NONE', #28, 1.599999999999997202 ) ;
#84 = LINE ( 'NONE', #805, #646 ) ;
#85 = DIRECTION ( 'NONE',  ( 1.000000000000000000, 0.000000000000000000, 0.000000000000000000 ) ) ;
#86 = ADVANCED_BREP_SHAPE_REPRESENTATION ( 'camer_tracker_base_cover', ( #790, #406 ), #704 ) ;
#87 = ORIENTED_EDGE ( 'NONE', *, *, #792, .F. ) ;
#88 = DIRECTION ( 'NONE',  ( 0.000000000000000000, 0.000000000000000000, 1.000000000000000000 ) ) ;
#89 = CARTESIAN_POINT ( 'NONE',  ( -58.79999999999999716, -26.00000000000000711, 0.000000000000000000 ) ) ;
#90 = EDGE_LOOP ( 'NONE', ( #183, #39, #764, #554 ) ) ;
#91 = CARTESIAN_POINT ( 'NONE',  ( -81.34136002903926510, 18.40372484148879906, 2.000000000000000000 ) ) ;
#92 = EDGE_LOOP ( 'NONE', ( #326, #476, #705, #287 ) ) ;
#93 = EDGE_CURVE ( 'NONE', #43, #585, #266, .T. ) ;
#94 = EDGE_CURVE ( 'NONE', #650, #325, #658, .T. ) ;
#95 = AXIS2_PLACEMENT_3D ( 'NONE', #744, #159, #611 ) ;
#96 = DIRECTION ( 'NONE',  ( 1.000000000000000000, 0.000000000000000000, 0.000000000000000000 ) ) ;
#97 = ORIENTED_EDGE ( 'NONE', *, *, #631, .F. ) ;
#98 = EDGE_CURVE ( 'NONE', #632, #60, #614, .T. ) ;
#99 = DIRECTION ( 'NONE',  ( -0.000000000000000000, -0.000000000000000000, 1.000000000000000000 ) ) ;
#100 = ORIENTED_EDGE ( 'NONE', *, *, #209, .F. ) ;
#101 = AXIS2_PLACEMENT_3D ( 'NONE', #345, #232, #218 ) ;
#102 = CARTESIAN_POINT ( 'NONE',  ( -58.79999999999999716, 26.00000000000000711, 0.000000000000000000 ) ) ;
#103 = FACE_OUTER_BOUND ( 'NONE', #824, .T. ) ;
#104 = ORIENTED_EDGE ( 'NONE', *, *, #425, .T. ) ;
#105 = CYLINDRICAL_SURFACE ( 'NONE', #743, 1.599999999999997202 ) ;
#106 = CARTESIAN_POINT ( 'NONE',  ( -71.34136002903926510, 14.40570333659612601, 0.000000000000000000 ) ) ;
#107 = AXIS2_PLACEMENT_3D ( 'NONE', #225, #408, #605 ) ;
#108 = ORIENTED_EDGE ( 'NONE', *, *, #301, .F. ) ;
#109 = DIRECTION ( 'NONE',  ( 0.000000000000000000, 0.000000000000000000, 1.000000000000000000 ) ) ;
#110 = DIRECTION ( 'NONE',  ( -0.000000000000000000, -0.000000000000000000, -1.000000000000000000 ) ) ;
#111 = ADVANCED_FACE ( 'NONE', ( #29 ), #480, .F. ) ;
#112 = DIRECTION ( 'NONE',  ( 1.000000000000000000, 0.000000000000000000, 0.000000000000000000 ) ) ;
#113 = ORIENTED_EDGE ( 'NONE', *, *, #212, .T. ) ;
#114 = EDGE_CURVE ( 'NONE', #82, #742, #811, .T. ) ;
#115 = DIRECTION ( 'NONE',  ( 1.000000000000000000, 0.000000000000000000, 0.000000000000000000 ) ) ;
#116 = CIRCLE ( 'NONE', #101, 1.600000000000004086 ) ;
#117 = EDGE_CURVE ( 'NONE', #627, #240, #681, .T. ) ;
#118 = CARTESIAN_POINT ( 'NONE',  ( -77.18477631085022495, 18.38477631085024555, 0.000000000000000000 ) ) ;
#119 = EDGE_LOOP ( 'NONE', ( #842, #593 ) ) ;
#120 = CARTESIAN_POINT ( 'NONE',  ( -46.25863997096080027, 14.40570333659616331, 2.000000000000000000 ) ) ;
#121 = CYLINDRICAL_SURFACE ( 'NONE', #14, 1.600000000000004086 ) ;
#122 = VECTOR ( 'NONE', #420, 1000.000000000000000 ) ;
#123 = CARTESIAN_POINT ( 'NONE',  ( -71.34136002903926510, -14.40570333659612956, 2.000000000000000000 ) ) ;
#124 = ORIENTED_EDGE ( 'NONE', *, *, #573, .F. ) ;
#125 = DIRECTION ( 'NONE',  ( 1.000000000000000000, 0.000000000000000000, 0.000000000000000000 ) ) ;
#126 = DIRECTION ( 'NONE',  ( -0.000000000000000000, -0.000000000000000000, -1.000000000000000000 ) ) ;
#127 = EDGE_LOOP ( 'NONE', ( #192, #124, #592, #481 ) ) ;
#128 = ORIENTED_EDGE ( 'NONE', *, *, #208, .T. ) ;
#129 = AXIS2_PLACEMENT_3D ( 'NONE', #245, #707, #115 ) ;
#130 = CARTESIAN_POINT ( 'NONE',  ( -77.18477631085022495, -18.38477631085024555, 0.000000000000000000 ) ) ;
#131 = FACE_OUTER_BOUND ( 'NONE', #274, .T. ) ;
#132 = CARTESIAN_POINT ( 'NONE',  ( -36.25863997096080027, -14.40570333659616686, 2.000000000000000000 ) ) ;
#133 = CYLINDRICAL_SURFACE ( 'NONE', #680, 19.00000000000001066 ) ;
#134 = EDGE_CURVE ( 'NONE', #396, #43, #738, .T. ) ;
#135 = DIRECTION ( 'NONE',  ( -0.000000000000000000, -0.000000000000000000, 1.000000000000000000 ) ) ;
#136 = AXIS2_PLACEMENT_3D ( 'NONE', #45, #827, #444 ) ;
#137 = ORIENTED_EDGE ( 'NONE', *, *, #537, .F. ) ;
#138 = SURFACE_STYLE_USAGE ( .BOTH. , #594 ) ;
#139 = DIRECTION ( 'NONE',  ( 1.000000000000000000, 0.000000000000000000, 0.000000000000000000 ) ) ;
#140 = PRODUCT ( 'camer_tracker_base_cover', 'camer_tracker_base_cover', '', ( #762 ) ) ;
#141 = CARTESIAN_POINT ( 'NONE',  ( -60.39999999999999858, 26.00000000000000711, 0.000000000000000000 ) ) ;
#142 = VERTEX_POINT ( 'NONE', #418 ) ;
#143 = CIRCLE ( 'NONE', #76, 29.10000000000000497 ) ;
#144 = EDGE_CURVE ( 'NONE', #283, #325, #849, .T. ) ;
#145 = DIRECTION ( 'NONE',  ( 0.000000000000000000, 0.000000000000000000, 1.000000000000000000 ) ) ;
#146 = CARTESIAN_POINT ( 'NONE',  ( -75.58477631085023063, -18.38477631085024555, 0.000000000000000000 ) ) ;
#147 = VERTEX_POINT ( 'NONE', #613 ) ;
#148 = DIRECTION ( 'NONE',  ( 0.000000000000000000, 0.000000000000000000, 1.000000000000000000 ) ) ;
#149 = ADVANCED_FACE ( 'NONE', ( #342 ), #411, .F. ) ;
#150 = DIRECTION ( 'NONE',  ( -0.000000000000000000, 0.000000000000000000, -1.000000000000000000 ) ) ;
#151 = ORIENTED_EDGE ( 'NONE', *, *, #435, .T. ) ;
#152 = EDGE_CURVE ( 'NONE', #742, #142, #819, .T. ) ;
#153 = CARTESIAN_POINT ( 'NONE',  ( -78.78477631085023347, 18.38477631085024555, 2.000000000000000000 ) ) ;
#154 = EDGE_CURVE ( 'NONE', #786, #206, #801, .T. ) ;
#155 = DIRECTION ( 'NONE',  ( -0.000000000000000000, -0.000000000000000000, -1.000000000000000000 ) ) ;
#156 = ORIENTED_EDGE ( 'NONE', *, *, #488, .F. ) ;
#157 = CARTESIAN_POINT ( 'NONE',  ( -60.40000000000000568, -26.00000000000000711, 0.000000000000000000 ) ) ;
#158 = EDGE_LOOP ( 'NONE', ( #222, #419, #750, #821 ) ) ;
#159 = DIRECTION ( 'NONE',  ( 0.000000000000000000, 0.000000000000000000, 1.000000000000000000 ) ) ;
#160 = EDGE_CURVE ( 'NONE', #142, #742, #15, .T. ) ;
#161 = EDGE_LOOP ( 'NONE', ( #524, #10, #359, #312 ) ) ;
#162 = AXIS2_PLACEMENT_3D ( 'NONE', #620, #508, #38 ) ;
#163 = DIRECTION ( 'NONE',  ( -0.000000000000000000, 1.000000000000000000, -0.000000000000000000 ) ) ;
#164 = ORIENTED_EDGE ( 'NONE', *, *, #789, .T. ) ;
#165 = EDGE_CURVE ( 'NONE', #735, #598, #83, .T. ) ;
#166 = CARTESIAN_POINT ( 'NONE',  ( -39.69248288769420441, 21.94795639240567198, 2.000000000000000000 ) ) ;
#167 = DIRECTION ( 'NONE',  ( -0.000000000000000000, -0.000000000000000000, -1.000000000000000000 ) ) ;
#168 = VERTEX_POINT ( 'NONE', #550 ) ;
#169 = APPLICATION_CONTEXT ( 'automotive_design' ) ;
#170 = CARTESIAN_POINT ( 'NONE',  ( -38.81522368914976795, -18.38477631085023134, 0.000000000000000000 ) ) ;
#171 = PLANE ( 'NONE',  #205 ) ;
#172 = ORIENTED_EDGE ( 'NONE', *, *, #752, .T. ) ;
#173 = FACE_OUTER_BOUND ( 'NONE', #660, .T. ) ;
#174 = ADVANCED_FACE ( 'NONE', ( #277 ), #282, .T. ) ;
#175 = LINE ( 'NONE', #500, #553 ) ;
#176 = AXIS2_PLACEMENT_3D ( 'NONE', #357, #167, #366 ) ;
#177 =( NAMED_UNIT ( * ) PLANE_ANGLE_UNIT ( ) SI_UNIT ( $, .RADIAN. ) );
#178 = VERTEX_POINT ( 'NONE', #348 ) ;
#179 = ADVANCED_FACE ( 'NONE', ( #544 ), #475, .F. ) ;
#180 = DIRECTION ( 'NONE',  ( -0.000000000000000000, -0.000000000000000000, 1.000000000000000000 ) ) ;
#181 = DIRECTION ( 'NONE',  ( 0.000000000000000000, 0.000000000000000000, 1.000000000000000000 ) ) ;
#182 = ADVANCED_FACE ( 'NONE', ( #416 ), #675, .F. ) ;
#183 = ORIENTED_EDGE ( 'NONE', *, *, #752, .F. ) ;
#184 = AXIS2_PLACEMENT_3D ( 'NONE', #640, #591, #1 ) ;
#185 = CARTESIAN_POINT ( 'NONE',  ( -78.78477631085023347, -18.38477631085024555, 0.000000000000000000 ) ) ;
#186 = CARTESIAN_POINT ( 'NONE',  ( -78.78477631085023347, 18.38477631085024555, 0.000000000000000000 ) ) ;
#187 = CARTESIAN_POINT ( 'NONE',  ( -36.25863997096080027, 18.40372484148884880, 2.000000000000000000 ) ) ;
#188 = EDGE_CURVE ( 'NONE', #240, #501, #694, .T. ) ;
#189 = CARTESIAN_POINT ( 'NONE',  ( -60.39999999999999858, 26.00000000000000711, 0.000000000000000000 ) ) ;
#190 = CYLINDRICAL_SURFACE ( 'NONE', #623, 1.600000000000004086 ) ;
#191 = AXIS2_PLACEMENT_3D ( 'NONE', #563, #235, #566 ) ;
#192 = ORIENTED_EDGE ( 'NONE', *, *, #228, .F. ) ;
#193 = FACE_OUTER_BOUND ( 'NONE', #344, .T. ) ;
#194 = DIRECTION ( 'NONE',  ( 1.000000000000000000, 0.000000000000000000, 0.000000000000000000 ) ) ;
#195 = ORIENTED_EDGE ( 'NONE', *, *, #94, .F. ) ;
#196 = CARTESIAN_POINT ( 'NONE',  ( -58.79999999999999716, -26.00000000000000711, 0.000000000000000000 ) ) ;
#197 = DIRECTION ( 'NONE',  ( -0.000000000000000000, -0.000000000000000000, 1.000000000000000000 ) ) ;
#198 = CARTESIAN_POINT ( 'NONE',  ( -75.58477631085023063, -18.38477631085024555, 0.000000000000000000 ) ) ;
#199 = ORIENTED_EDGE ( 'NONE', *, *, #362, .T. ) ;
#200 = DIRECTION ( 'NONE',  ( 1.000000000000000000, 0.000000000000000000, 0.000000000000000000 ) ) ;
#201 = DIRECTION ( 'NONE',  ( 1.000000000000000000, 0.000000000000000000, 0.000000000000000000 ) ) ;
#202 = ORIENTED_EDGE ( 'NONE', *, *, #117, .F. ) ;
#203 = EDGE_CURVE ( 'NONE', #387, #621, #25, .T. ) ;
#204 = CIRCLE ( 'NONE', #412, 10.00000000000000178 ) ;
#205 = AXIS2_PLACEMENT_3D ( 'NONE', #436, #181, #692 ) ;
#206 = VERTEX_POINT ( 'NONE', #489 ) ;
#207 = DIRECTION ( 'NONE',  ( 1.000000000000000000, 0.000000000000000000, 0.000000000000000000 ) ) ;
#208 = EDGE_CURVE ( 'NONE', #294, #147, #741, .T. ) ;
#209 = EDGE_CURVE ( 'NONE', #367, #501, #32, .T. ) ;
#210 = DIRECTION ( 'NONE',  ( 0.000000000000000000, 0.000000000000000000, 1.000000000000000000 ) ) ;
#211 = DIRECTION ( 'NONE',  ( 0.000000000000000000, 0.000000000000000000, 1.000000000000000000 ) ) ;
#212 = EDGE_CURVE ( 'NONE', #206, #745, #440, .T. ) ;
#213 = ORIENTED_EDGE ( 'NONE', *, *, #434, .F. ) ;
#214 = AXIS2_PLACEMENT_3D ( 'NONE', #196, #720, #200 ) ;
#215 = CARTESIAN_POINT ( 'NONE',  ( -77.90751711230588228, -21.94795639240561869, 2.000000000000000000 ) ) ;
#216 = DIRECTION ( 'NONE',  ( 1.000000000000000000, 0.000000000000000000, 0.000000000000000000 ) ) ;
#217 = ORIENTED_EDGE ( 'NONE', *, *, #426, .F. ) ;
#218 = DIRECTION ( 'NONE',  ( 1.000000000000000000, 0.000000000000000000, 0.000000000000000000 ) ) ;
#219 = ADVANCED_FACE ( 'NONE', ( #560 ), #634, .T. ) ;
#220 = DIRECTION ( 'NONE',  ( 0.000000000000000000, 0.000000000000000000, -1.000000000000000000 ) ) ;
#221 = AXIS2_PLACEMENT_3D ( 'NONE', #251, #582, #772 ) ;
#222 = ORIENTED_EDGE ( 'NONE', *, *, #93, .F. ) ;
#223 = DIRECTION ( 'NONE',  ( -0.000000000000000000, 1.000000000000000000, -0.000000000000000000 ) ) ;
#224 = ORIENTED_EDGE ( 'NONE', *, *, #499, .T. ) ;
#225 = CARTESIAN_POINT ( 'NONE',  ( -40.41522368914974805, 18.38477631085023845, 0.000000000000000000 ) ) ;
#226 = AXIS2_PLACEMENT_3D ( 'NONE', #57, #774, #452 ) ;
#227 = ORIENTED_EDGE ( 'NONE', *, *, #659, .F. ) ;
#228 = EDGE_CURVE ( 'NONE', #421, #786, #343, .T. ) ;
#229 = LINE ( 'NONE', #495, #725 ) ;
#230 = EDGE_CURVE ( 'NONE', #627, #367, #671, .T. ) ;
#231 = ORIENTED_EDGE ( 'NONE', *, *, #648, .F. ) ;
#232 = DIRECTION ( 'NONE',  ( 0.000000000000000000, 0.000000000000000000, 1.000000000000000000 ) ) ;
#233 = EDGE_CURVE ( 'NONE', #782, #142, #175, .T. ) ;
#234 = AXIS2_PLACEMENT_3D ( 'NONE', #600, #346, #739 ) ;
#235 = DIRECTION ( 'NONE',  ( -0.000000000000000000, -0.000000000000000000, -1.000000000000000000 ) ) ;
#236 = ORIENTED_EDGE ( 'NONE', *, *, #760, .T. ) ;
#237 = FACE_BOUND ( 'NONE', #382, .T. ) ;
#238 = ADVANCED_FACE ( 'NONE', ( #429 ), #299, .T. ) ;
#239 = FACE_BOUND ( 'NONE', #574, .T. ) ;
#240 = VERTEX_POINT ( 'NONE', #441 ) ;
#241 = ADVANCED_FACE ( 'NONE', ( #103 ), #304, .T. ) ;
#242 = LINE ( 'NONE', #844, #358 ) ;
#243 = DIRECTION ( 'NONE',  ( -1.000000000000000000, 0.000000000000000000, 0.000000000000000000 ) ) ;
#244 = ORIENTED_EDGE ( 'NONE', *, *, #21, .T. ) ;
#245 = CARTESIAN_POINT ( 'NONE',  ( -40.41522368914974805, 18.38477631085023845, 2.000000000000000000 ) ) ;
#246 = AXIS2_PLACEMENT_3D ( 'NONE', #361, #50, #243 ) ;
#247 = FACE_BOUND ( 'NONE', #787, .T. ) ;
#248 = ORIENTED_EDGE ( 'NONE', *, *, #54, .T. ) ;
#249 = CARTESIAN_POINT ( 'NONE',  ( -71.34136002903926510, -14.40570333659612956, 2.000000000000000000 ) ) ;
#250 = EDGE_CURVE ( 'NONE', #396, #262, #353, .T. ) ;
#251 = CARTESIAN_POINT ( 'NONE',  ( -40.41522368914976227, -18.38477631085023134, 2.000000000000000000 ) ) ;
#252 = ORIENTED_EDGE ( 'NONE', *, *, #691, .F. ) ;
#253 = DIRECTION ( 'NONE',  ( 0.000000000000000000, -1.000000000000000000, 0.000000000000000000 ) ) ;
#254 = VECTOR ( 'NONE', #618, 1000.000000000000000 ) ;
#255 = DIRECTION ( 'NONE',  ( -0.000000000000000000, -0.000000000000000000, -1.000000000000000000 ) ) ;
#256 = ORIENTED_EDGE ( 'NONE', *, *, #233, .F. ) ;
#257 = ORIENTED_EDGE ( 'NONE', *, *, #528, .T. ) ;
#258 = DIRECTION ( 'NONE',  ( 0.000000000000000000, 0.000000000000000000, -1.000000000000000000 ) ) ;
#259 = VECTOR ( 'NONE', #837, 1000.000000000000000 ) ;
#260 = DIRECTION ( 'NONE',  ( 1.000000000000000000, 0.000000000000000000, 0.000000000000000000 ) ) ;
#261 = AXIS2_PLACEMENT_3D ( 'NONE', #672, #20, #96 ) ;
#262 = VERTEX_POINT ( 'NONE', #616 ) ;
#263 = ORIENTED_EDGE ( 'NONE', *, *, #684, .T. ) ;
#264 = CARTESIAN_POINT ( 'NONE',  ( -58.79999999999999716, -26.00000000000000711, 2.000000000000000000 ) ) ;
#265 = DIRECTION ( 'NONE',  ( 0.000000000000000000, 0.000000000000000000, 1.000000000000000000 ) ) ;
#266 = LINE ( 'NONE', #534, #422 ) ;
#267 = EDGE_LOOP ( 'NONE', ( #617, #252, #531, #156 ) ) ;
#268 = CARTESIAN_POINT ( 'NONE',  ( -58.80000000000001137, -1.361020142258940230E-15, 2.000000000000000000 ) ) ;
#269 = EDGE_CURVE ( 'NONE', #65, #487, #311, .T. ) ;
#270 = AXIS2_PLACEMENT_3D ( 'NONE', #16, #410, #670 ) ;
#271 = CIRCLE ( 'NONE', #214, 1.600000000000004086 ) ;
#272 = CARTESIAN_POINT ( 'NONE',  ( -58.80000000000001137, -1.361020142258940230E-15, 2.000000000000000000 ) ) ;
#273 = EDGE_CURVE ( 'NONE', #178, #401, #527, .T. ) ;
#274 = EDGE_LOOP ( 'NONE', ( #34, #615, #339, #589 ) ) ;
#275 = FACE_OUTER_BOUND ( 'NONE', #79, .T. ) ;
#276 = DIRECTION ( 'NONE',  ( 0.000000000000000000, 0.000000000000000000, 1.000000000000000000 ) ) ;
#277 = FACE_OUTER_BOUND ( 'NONE', #127, .T. ) ;
#278 = AXIS2_PLACEMENT_3D ( 'NONE', #81, #155, #678 ) ;
#279 = ORIENTED_EDGE ( 'NONE', *, *, #228, .T. ) ;
#280 = FACE_BOUND ( 'NONE', #579, .T. ) ;
#281 = ADVANCED_FACE ( 'NONE', ( #823, #247, #239, #513, #746, #769, #569, #308 ), #171, .F. ) ;
#282 = CYLINDRICAL_SURFACE ( 'NONE', #71, 9.999999999999994671 ) ;
#283 = VERTEX_POINT ( 'NONE', #630 ) ;
#284 = AXIS2_PLACEMENT_3D ( 'NONE', #730, #145, #407 ) ;
#285 = DIRECTION ( 'NONE',  ( 1.000000000000000000, 0.000000000000000000, -0.000000000000000000 ) ) ;
#286 = CARTESIAN_POINT ( 'NONE',  ( -77.18477631085022495, -18.38477631085024555, 2.000000000000000000 ) ) ;
#287 = ORIENTED_EDGE ( 'NONE', *, *, #331, .T. ) ;
#288 = CARTESIAN_POINT ( 'NONE',  ( -36.25863997096080027, 18.40372484148884880, 2.000000000000000000 ) ) ;
#289 = AXIS2_PLACEMENT_3D ( 'NONE', #318, #265, #717 ) ;
#290 = EDGE_LOOP ( 'NONE', ( #227, #770 ) ) ;
#291 = AXIS2_PLACEMENT_3D ( 'NONE', #78, #731, #485 ) ;
#292 = EDGE_CURVE ( 'NONE', #294, #610, #763, .T. ) ;
#293 = CARTESIAN_POINT ( 'NONE',  ( -77.18477631085022495, 18.38477631085024555, 0.000000000000000000 ) ) ;
#294 = VERTEX_POINT ( 'NONE', #703 ) ;
#295 = AXIS2_PLACEMENT_3D ( 'NONE', #466, #590, #541 ) ;
#296 = DIRECTION ( 'NONE',  ( 1.000000000000000000, 0.000000000000000000, 0.000000000000000000 ) ) ;
#297 = ORIENTED_EDGE ( 'NONE', *, *, #820, .T. ) ;
#298 = DIRECTION ( 'NONE',  ( 1.000000000000000000, 0.000000000000000000, 0.000000000000000000 ) ) ;
#299 = CYLINDRICAL_SURFACE ( 'NONE', #191, 29.10000000000000853 ) ;
#300 = ORIENTED_EDGE ( 'NONE', *, *, #269, .T. ) ;
#301 = EDGE_CURVE ( 'NONE', #178, #683, #229, .T. ) ;
#302 = CARTESIAN_POINT ( 'NONE',  ( -57.19999999999999574, -26.00000000000000711, 0.000000000000000000 ) ) ;
#303 = VECTOR ( 'NONE', #696, 1000.000000000000000 ) ;
#304 = CYLINDRICAL_SURFACE ( 'NONE', #246, 29.10000000000000853 ) ;
#305 = ADVANCED_FACE ( 'NONE', ( #423 ), #685, .F. ) ;
#306 = EDGE_LOOP ( 'NONE', ( #798, #679 ) ) ;
#307 = DIRECTION ( 'NONE',  ( 1.000000000000000000, 0.000000000000000000, 0.000000000000000000 ) ) ;
#308 = FACE_BOUND ( 'NONE', #564, .T. ) ;
#309 = ORIENTED_EDGE ( 'NONE', *, *, #789, .F. ) ;
#310 = FACE_OUTER_BOUND ( 'NONE', #709, .T. ) ;
#311 = LINE ( 'NONE', #41, #780 ) ;
#312 = ORIENTED_EDGE ( 'NONE', *, *, #754, .F. ) ;
#313 = LINE ( 'NONE', #571, #755 ) ;
#314 = VECTOR ( 'NONE', #126, 1000.000000000000000 ) ;
#315 = CARTESIAN_POINT ( 'NONE',  ( -39.69248288769420441, -21.94795639240567198, 2.000000000000000000 ) ) ;
#316 = ORIENTED_EDGE ( 'NONE', *, *, #488, .T. ) ;
#317 = CARTESIAN_POINT ( 'NONE',  ( -58.79999999999999716, 26.00000000000000711, 0.000000000000000000 ) ) ;
#318 = CARTESIAN_POINT ( 'NONE',  ( -58.80000000000001137, -1.361020142258940230E-15, 0.000000000000000000 ) ) ;
#319 = EDGE_LOOP ( 'NONE', ( #567, #320 ) ) ;
#320 = ORIENTED_EDGE ( 'NONE', *, *, #292, .T. ) ;
#321 = CARTESIAN_POINT ( 'NONE',  ( -40.41522368914976227, -18.38477631085023134, 0.000000000000000000 ) ) ;
#322 = EDGE_CURVE ( 'NONE', #786, #496, #636, .T. ) ;
#323 = FACE_OUTER_BOUND ( 'NONE', #457, .T. ) ;
#324 = EDGE_CURVE ( 'NONE', #683, #621, #781, .T. ) ;
#325 = VERTEX_POINT ( 'NONE', #375 ) ;
#326 = ORIENTED_EDGE ( 'NONE', *, *, #712, .F. ) ;
#327 = CYLINDRICAL_SURFACE ( 'NONE', #295, 1.600000000000004086 ) ;
#328 = PRODUCT_DEFINITION ( 'UNKNOWN', '', #432, #828 ) ;
#329 = DIRECTION ( 'NONE',  ( -0.000000000000000000, -0.000000000000000000, 1.000000000000000000 ) ) ;
#330 = CARTESIAN_POINT ( 'NONE',  ( -57.20000000000000284, 26.00000000000000711, 0.000000000000000000 ) ) ;
#331 = EDGE_CURVE ( 'NONE', #598, #735, #577, .T. ) ;
#332 = EDGE_LOOP ( 'NONE', ( #217, #151, #300, #557 ) ) ;
#333 = FILL_AREA_STYLE_COLOUR ( '', #840 ) ;
#334 = DIRECTION ( 'NONE',  ( 0.000000000000000000, 0.000000000000000000, 1.000000000000000000 ) ) ;
#335 = ORIENTED_EDGE ( 'NONE', *, *, #426, .T. ) ;
#336 = AXIS2_PLACEMENT_3D ( 'NONE', #794, #651, #207 ) ;
#337 =( LENGTH_UNIT ( ) NAMED_UNIT ( * ) SI_UNIT ( .MILLI., .METRE. ) );
#338 = DIRECTION ( 'NONE',  ( 1.000000000000000000, 0.000000000000000000, 0.000000000000000000 ) ) ;
#339 = ORIENTED_EDGE ( 'NONE', *, *, #706, .T. ) ;
#340 = ORIENTED_EDGE ( 'NONE', *, *, #434, .T. ) ;
#341 = FACE_BOUND ( 'NONE', #689, .T. ) ;
#342 = FACE_OUTER_BOUND ( 'NONE', #463, .T. ) ;
#343 = CIRCLE ( 'NONE', #162, 10.00000000000000178 ) ;
#344 = EDGE_LOOP ( 'NONE', ( #431, #335, #231, #442 ) ) ;
#345 = CARTESIAN_POINT ( 'NONE',  ( -77.18477631085022495, 18.38477631085024555, 0.000000000000000000 ) ) ;
#346 = DIRECTION ( 'NONE',  ( 0.000000000000000000, 0.000000000000000000, 1.000000000000000000 ) ) ;
#347 = VERTEX_POINT ( 'NONE', #72 ) ;
#348 = CARTESIAN_POINT ( 'NONE',  ( -36.25863997096080027, -14.40570333659615265, 0.000000000000000000 ) ) ;
#349 = ORIENTED_EDGE ( 'NONE', *, *, #537, .T. ) ;
#350 = DIRECTION ( 'NONE',  ( 1.000000000000000000, 0.000000000000000000, 0.000000000000000000 ) ) ;
#351 = ORIENTED_EDGE ( 'NONE', *, *, #425, .F. ) ;
#352 = AXIS2_PLACEMENT_3D ( 'NONE', #516, #63, #58 ) ;
#353 = LINE ( 'NONE', #761, #303 ) ;
#354 = VERTEX_POINT ( 'NONE', #522 ) ;
#355 = CARTESIAN_POINT ( 'NONE',  ( -77.90751711230588228, 21.94795639240561513, 2.000000000000000000 ) ) ;
#356 = AXIS2_PLACEMENT_3D ( 'NONE', #264, #525, #779 ) ;
#357 = CARTESIAN_POINT ( 'NONE',  ( -46.25863997096080027, -14.40570333659616686, 2.000000000000000000 ) ) ;
#358 = VECTOR ( 'NONE', #180, 1000.000000000000000 ) ;
#359 = ORIENTED_EDGE ( 'NONE', *, *, #165, .T. ) ;
#360 = CARTESIAN_POINT ( 'NONE',  ( -40.41522368914976227, -18.38477631085023134, 0.000000000000000000 ) ) ;
#361 = CARTESIAN_POINT ( 'NONE',  ( -58.80000000000001137, -1.361020142258940230E-15, 2.000000000000000000 ) ) ;
#362 = EDGE_CURVE ( 'NONE', #325, #283, #453, .T. ) ;
#363 = ORIENTED_EDGE ( 'NONE', *, *, #684, .F. ) ;
#364 = DIRECTION ( 'NONE',  ( -0.000000000000000000, -0.000000000000000000, 1.000000000000000000 ) ) ;
#365 = AXIS2_PLACEMENT_3D ( 'NONE', #293, #17, #85 ) ;
#366 = DIRECTION ( 'NONE',  ( -1.000000000000000000, 0.000000000000000000, 0.000000000000000000 ) ) ;
#367 = VERTEX_POINT ( 'NONE', #186 ) ;
#368 = CARTESIAN_POINT ( 'NONE',  ( -40.41522368914976227, -18.38477631085023134, 0.000000000000000000 ) ) ;
#369 = DIRECTION ( 'NONE',  ( -0.000000000000000000, -0.000000000000000000, -1.000000000000000000 ) ) ;
#370 = ORIENTED_EDGE ( 'NONE', *, *, #301, .T. ) ;
#371 = STYLED_ITEM ( 'NONE', ( #398 ), #790 ) ;
#372 = EDGE_CURVE ( 'NONE', #376, #487, #765, .T. ) ;
#373 = AXIS2_PLACEMENT_3D ( 'NONE', #399, #276, #542 ) ;
#374 = DIRECTION ( 'NONE',  ( 1.000000000000000000, 0.000000000000000000, 0.000000000000000000 ) ) ;
#375 = CARTESIAN_POINT ( 'NONE',  ( -60.39999999999999858, 26.00000000000000711, 2.000000000000000000 ) ) ;
#376 = VERTEX_POINT ( 'NONE', #5 ) ;
#377 = CARTESIAN_POINT ( 'NONE',  ( -81.34136002903926510, 18.40372484148879906, 0.000000000000000000 ) ) ;
#378 = VECTOR ( 'NONE', #59, 1000.000000000000000 ) ;
#379 = CYLINDRICAL_SURFACE ( 'NONE', #677, 1.599999999999990319 ) ;
#380 = ADVANCED_FACE ( 'NONE', ( #193 ), #133, .F. ) ;
#381 = ORIENTED_EDGE ( 'NONE', *, *, #154, .T. ) ;
#382 = EDGE_LOOP ( 'NONE', ( #414, #676 ) ) ;
#383 = CYLINDRICAL_SURFACE ( 'NONE', #597, 1.599999999999997202 ) ;
#384 = DIRECTION ( 'NONE',  ( 0.000000000000000000, -1.000000000000000000, 0.000000000000000000 ) ) ;
#385 = APPLICATION_PROTOCOL_DEFINITION ( 'draft international standard', 'automotive_design', 1998, #832 ) ;
#386 = ORIENTED_EDGE ( 'NONE', *, *, #230, .T. ) ;
#387 = VERTEX_POINT ( 'NONE', #53 ) ;
#388 = VECTOR ( 'NONE', #253, 1000.000000000000000 ) ;
#389 = ADVANCED_FACE ( 'NONE', ( #841 ), #190, .F. ) ;
#390 = CARTESIAN_POINT ( 'NONE',  ( -39.80000000000000426, 9.658087761210321212E-16, 2.000000000000000000 ) ) ;
#391 = DIRECTION ( 'NONE',  ( 1.000000000000000000, 0.000000000000000000, 0.000000000000000000 ) ) ;
#392 = VERTEX_POINT ( 'NONE', #315 ) ;
#393 = DIRECTION ( 'NONE',  ( 0.000000000000000000, 0.000000000000000000, 1.000000000000000000 ) ) ;
#394 = LINE ( 'NONE', #722, #314 ) ;
#395 = AXIS2_PLACEMENT_3D ( 'NONE', #286, #734, #350 ) ;
#396 = VERTEX_POINT ( 'NONE', #578 ) ;
#397 = ORIENTED_EDGE ( 'NONE', *, *, #324, .T. ) ;
#398 = PRESENTATION_STYLE_ASSIGNMENT (( #138 ) ) ;
#399 = CARTESIAN_POINT ( 'NONE',  ( -58.80000000000001137, -1.361020142258940230E-15, 2.000000000000000000 ) ) ;
#400 = DIRECTION ( 'NONE',  ( -0.000000000000000000, -0.000000000000000000, 1.000000000000000000 ) ) ;
#401 = VERTEX_POINT ( 'NONE', #455 ) ;
#402 = CIRCLE ( 'NONE', #356, 1.600000000000004086 ) ;
#403 = CIRCLE ( 'NONE', #184, 10.00000000000000178 ) ;
#404 = CIRCLE ( 'NONE', #519, 1.599999999999997202 ) ;
#405 = CIRCLE ( 'NONE', #36, 10.00000000000000178 ) ;
#406 = AXIS2_PLACEMENT_3D ( 'NONE', #445, #776, #112 ) ;
#407 = DIRECTION ( 'NONE',  ( 1.000000000000000000, 0.000000000000000000, 0.000000000000000000 ) ) ;
#408 = DIRECTION ( 'NONE',  ( 0.000000000000000000, 0.000000000000000000, 1.000000000000000000 ) ) ;
#409 = ORIENTED_EDGE ( 'NONE', *, *, #847, .F. ) ;
#410 = DIRECTION ( 'NONE',  ( 0.000000000000000000, 0.000000000000000000, 1.000000000000000000 ) ) ;
#411 = CYLINDRICAL_SURFACE ( 'NONE', #365, 1.600000000000004086 ) ;
#412 = AXIS2_PLACEMENT_3D ( 'NONE', #123, #773, #194 ) ;
#413 = VECTOR ( 'NONE', #384, 1000.000000000000000 ) ;
#414 = ORIENTED_EDGE ( 'NONE', *, *, #152, .F. ) ;
#415 = CARTESIAN_POINT ( 'NONE',  ( -58.80000000000001137, -1.361020142258940230E-15, 0.000000000000000000 ) ) ;
#416 = FACE_OUTER_BOUND ( 'NONE', #570, .T. ) ;
#417 = ORIENTED_EDGE ( 'NONE', *, *, #114, .T. ) ;
#418 = CARTESIAN_POINT ( 'NONE',  ( -78.78477631085023347, -18.38477631085024555, 2.000000000000000000 ) ) ;
#419 = ORIENTED_EDGE ( 'NONE', *, *, #134, .F. ) ;
#420 = DIRECTION ( 'NONE',  ( -0.000000000000000000, -0.000000000000000000, 1.000000000000000000 ) ) ;
#421 = VERTEX_POINT ( 'NONE', #713 ) ;
#422 = VECTOR ( 'NONE', #135, 1000.000000000000000 ) ;
#423 = FACE_OUTER_BOUND ( 'NONE', #664, .T. ) ;
#424 = EDGE_LOOP ( 'NONE', ( #518, #248 ) ) ;
#425 = EDGE_CURVE ( 'NONE', #610, #168, #657, .T. ) ;
#426 = EDGE_CURVE ( 'NONE', #451, #376, #394, .T. ) ;
#427 = CARTESIAN_POINT ( 'NONE',  ( -77.18477631085022495, 18.38477631085024555, 2.000000000000000000 ) ) ;
#428 = AXIS2_PLACEMENT_3D ( 'NONE', #427, #88, #817 ) ;
#429 = FACE_OUTER_BOUND ( 'NONE', #778, .T. ) ;
#430 = AXIS2_PLACEMENT_3D ( 'NONE', #839, #439, #52 ) ;
#431 = ORIENTED_EDGE ( 'NONE', *, *, #631, .T. ) ;
#432 = PRODUCT_DEFINITION_FORMATION_WITH_SPECIFIED_SOURCE ( 'ANY', '', #140, .NOT_KNOWN. ) ;
#433 = DIRECTION ( 'NONE',  ( 1.000000000000000000, 0.000000000000000000, 0.000000000000000000 ) ) ;
#434 = EDGE_CURVE ( 'NONE', #401, #392, #450, .T. ) ;
#435 = EDGE_CURVE ( 'NONE', #451, #65, #625, .T. ) ;
#436 = CARTESIAN_POINT ( 'NONE',  ( -58.80000000000001137, -1.361020142258940230E-15, 0.000000000000000000 ) ) ;
#437 = UNCERTAINTY_MEASURE_WITH_UNIT (LENGTH_MEASURE( 1.000000000000000082E-05 ), #337, 'distance_accuracy_value', 'NONE');
#438 = ORIENTED_EDGE ( 'NONE', *, *, #484, .T. ) ;
#439 = DIRECTION ( 'NONE',  ( 0.000000000000000000, 0.000000000000000000, 1.000000000000000000 ) ) ;
#440 = CIRCLE ( 'NONE', #604, 10.00000000000000178 ) ;
#441 = CARTESIAN_POINT ( 'NONE',  ( -75.58477631085023063, 18.38477631085024555, 2.000000000000000000 ) ) ;
#442 = ORIENTED_EDGE ( 'NONE', *, *, #269, .F. ) ;
#443 = CARTESIAN_POINT ( 'NONE',  ( -42.01522368914976369, -18.38477631085023134, 2.000000000000000000 ) ) ;
#444 = DIRECTION ( 'NONE',  ( 1.000000000000000000, 0.000000000000000000, 0.000000000000000000 ) ) ;
#445 = CARTESIAN_POINT ( 'NONE',  ( 0.000000000000000000, 0.000000000000000000, 0.000000000000000000 ) ) ;
#446 = ORIENTED_EDGE ( 'NONE', *, *, #503, .T. ) ;
#447 = ADVANCED_FACE ( 'NONE', ( #323 ), #121, .F. ) ;
#448 = CIRCLE ( 'NONE', #430, 1.599999999999990319 ) ;
#449 = CARTESIAN_POINT ( 'NONE',  ( -81.34136002903926510, 14.40570333659612601, 2.000000000000000000 ) ) ;
#450 = LINE ( 'NONE', #645, #736 ) ;
#451 = VERTEX_POINT ( 'NONE', #390 ) ;
#452 = DIRECTION ( 'NONE',  ( 1.000000000000000000, 0.000000000000000000, 0.000000000000000000 ) ) ;
#453 = CIRCLE ( 'NONE', #482, 1.599999999999997202 ) ;
#454 = AXIS2_PLACEMENT_3D ( 'NONE', #68, #2, #723 ) ;
#455 = CARTESIAN_POINT ( 'NONE',  ( -39.69248288769420441, -21.94795639240567198, 0.000000000000000000 ) ) ;
#456 = FACE_OUTER_BOUND ( 'NONE', #514, .T. ) ;
#457 = EDGE_LOOP ( 'NONE', ( #100, #647, #654, #642 ) ) ;
#458 =( NAMED_UNIT ( * ) SI_UNIT ( $, .STERADIAN. ) SOLID_ANGLE_UNIT ( ) );
#459 = ADVANCED_FACE ( 'NONE', ( #652 ), #379, .F. ) ;
#460 = DIRECTION ( 'NONE',  ( -0.000000000000000000, -0.000000000000000000, 1.000000000000000000 ) ) ;
#461 = DIRECTION ( 'NONE',  ( 1.000000000000000000, 0.000000000000000000, 0.000000000000000000 ) ) ;
#462 = CIRCLE ( 'NONE', #785, 29.10000000000000497 ) ;
#463 = EDGE_LOOP ( 'NONE', ( #846, #8, #438, #202 ) ) ;
#464 = DIRECTION ( 'NONE',  ( -1.000000000000000000, 0.000000000000000000, 0.000000000000000000 ) ) ;
#465 = CARTESIAN_POINT ( 'NONE',  ( -42.01522368914976369, -18.38477631085023134, 0.000000000000000000 ) ) ;
#466 = CARTESIAN_POINT ( 'NONE',  ( -58.79999999999999716, -26.00000000000000711, 0.000000000000000000 ) ) ;
#467 = EDGE_CURVE ( 'NONE', #530, #347, #403, .T. ) ;
#468 = DIRECTION ( 'NONE',  ( -0.000000000000000000, -0.000000000000000000, 1.000000000000000000 ) ) ;
#469 = AXIS2_PLACEMENT_3D ( 'NONE', #89, #493, #809 ) ;
#470 = CARTESIAN_POINT ( 'NONE',  ( -42.01522368914974237, 18.38477631085023845, 0.000000000000000000 ) ) ;
#471 = ORIENTED_EDGE ( 'NONE', *, *, #144, .F. ) ;
#472 = SURFACE_STYLE_FILL_AREA ( #724 ) ;
#473 = EDGE_CURVE ( 'NONE', #354, #745, #35, .T. ) ;
#474 = DIRECTION ( 'NONE',  ( 0.000000000000000000, 0.000000000000000000, 1.000000000000000000 ) ) ;
#475 = CYLINDRICAL_SURFACE ( 'NONE', #278, 19.00000000000001066 ) ;
#476 = ORIENTED_EDGE ( 'NONE', *, *, #98, .F. ) ;
#477 = PRESENTATION_LAYER_ASSIGNMENT (  '', '', ( #371 ) ) ;
#478 = AXIS2_PLACEMENT_3D ( 'NONE', #586, #766, #580 ) ;
#479 = FACE_BOUND ( 'NONE', #119, .T. ) ;
#480 = PLANE ( 'NONE',  #628 ) ;
#481 = ORIENTED_EDGE ( 'NONE', *, *, #154, .F. ) ;
#482 = AXIS2_PLACEMENT_3D ( 'NONE', #775, #587, #595 ) ;
#483 = CARTESIAN_POINT ( 'NONE',  ( -77.90751711230588228, -21.94795639240561513, 0.000000000000000000 ) ) ;
#484 = EDGE_CURVE ( 'NONE', #501, #240, #802, .T. ) ;
#485 = DIRECTION ( 'NONE',  ( 1.000000000000000000, 0.000000000000000000, 0.000000000000000000 ) ) ;
#486 = VECTOR ( 'NONE', #220, 1000.000000000000000 ) ;
#487 = VERTEX_POINT ( 'NONE', #562 ) ;
#488 = EDGE_CURVE ( 'NONE', #732, #530, #549, .T. ) ;
#489 = CARTESIAN_POINT ( 'NONE',  ( -81.34136002903926510, 14.40570333659612601, 0.000000000000000000 ) ) ;
#490 = ADVANCED_FACE ( 'NONE', ( #280, #479, #237, #546, #37, #80, #603, #341 ), #733, .T. ) ;
#491 = ORIENTED_EDGE ( 'NONE', *, *, #165, .F. ) ;
#492 = MECHANICAL_DESIGN_GEOMETRIC_PRESENTATION_REPRESENTATION (  '', ( #371 ), #33 ) ;
#493 = DIRECTION ( 'NONE',  ( -0.000000000000000000, -0.000000000000000000, 1.000000000000000000 ) ) ;
#494 = ORIENTED_EDGE ( 'NONE', *, *, #668, .T. ) ;
#495 = CARTESIAN_POINT ( 'NONE',  ( -36.25863997096080027, 18.40372484148884880, 0.000000000000000000 ) ) ;
#496 = VERTEX_POINT ( 'NONE', #737 ) ;
#497 = VECTOR ( 'NONE', #223, 1000.000000000000000 ) ;
#498 = LINE ( 'NONE', #355, #254 ) ;
#499 = EDGE_CURVE ( 'NONE', #82, #782, #644, .T. ) ;
#500 = CARTESIAN_POINT ( 'NONE',  ( -78.78477631085023347, -18.38477631085024555, 0.000000000000000000 ) ) ;
#501 = VERTEX_POINT ( 'NONE', #153 ) ;
#502 = CARTESIAN_POINT ( 'NONE',  ( -77.90751711230588228, -21.94795639240561513, 2.000000000000000000 ) ) ;
#503 = EDGE_CURVE ( 'NONE', #43, #396, #751, .T. ) ;
#504 = CARTESIAN_POINT ( 'NONE',  ( -77.18477631085022495, 18.38477631085024555, 0.000000000000000000 ) ) ;
#505 = ORIENTED_EDGE ( 'NONE', *, *, #322, .T. ) ;
#506 = CARTESIAN_POINT ( 'NONE',  ( -77.18477631085022495, -18.38477631085024555, 0.000000000000000000 ) ) ;
#507 = EDGE_CURVE ( 'NONE', #601, #354, #84, .T. ) ;
#508 = DIRECTION ( 'NONE',  ( 0.000000000000000000, 0.000000000000000000, 1.000000000000000000 ) ) ;
#509 = UNCERTAINTY_MEASURE_WITH_UNIT (LENGTH_MEASURE( 1.000000000000000082E-05 ), #716, 'distance_accuracy_value', 'NONE');
#510 = ORIENTED_EDGE ( 'NONE', *, *, #668, .F. ) ;
#511 = DIRECTION ( 'NONE',  ( -0.000000000000000000, -0.000000000000000000, 1.000000000000000000 ) ) ;
#512 = VECTOR ( 'NONE', #12, 1000.000000000000000 ) ;
#513 = FACE_BOUND ( 'NONE', #319, .T. ) ;
#514 = EDGE_LOOP ( 'NONE', ( #30, #297, #370, #397 ) ) ;
#515 = DIRECTION ( 'NONE',  ( -1.000000000000000000, 0.000000000000000000, 0.000000000000000000 ) ) ;
#516 = CARTESIAN_POINT ( 'NONE',  ( -58.79999999999999716, 26.00000000000000711, 0.000000000000000000 ) ) ;
#517 = VECTOR ( 'NONE', #599, 1000.000000000000000 ) ;
#518 = ORIENTED_EDGE ( 'NONE', *, *, #555, .T. ) ;
#519 = AXIS2_PLACEMENT_3D ( 'NONE', #102, #674, #338 ) ;
#520 = CIRCLE ( 'NONE', #373, 19.00000000000001066 ) ;
#521 = CARTESIAN_POINT ( 'NONE',  ( -58.80000000000001137, -1.361020142258940230E-15, 2.000000000000000000 ) ) ;
#522 = CARTESIAN_POINT ( 'NONE',  ( -39.69248288769420441, 21.94795639240567198, 0.000000000000000000 ) ) ;
#523 = ORIENTED_EDGE ( 'NONE', *, *, #208, .F. ) ;
#524 = ORIENTED_EDGE ( 'NONE', *, *, #581, .F. ) ;
#525 = DIRECTION ( 'NONE',  ( 0.000000000000000000, 0.000000000000000000, 1.000000000000000000 ) ) ;
#526 = CIRCLE ( 'NONE', #682, 1.599999999999997202 ) ;
#527 = CIRCLE ( 'NONE', #656, 10.00000000000000178 ) ;
#528 = EDGE_CURVE ( 'NONE', #367, #627, #116, .T. ) ;
#529 = CARTESIAN_POINT ( 'NONE',  ( -81.34136002903926510, 18.40372484148879906, 2.000000000000000000 ) ) ;
#530 = VERTEX_POINT ( 'NONE', #483 ) ;
#531 = ORIENTED_EDGE ( 'NONE', *, *, #467, .F. ) ;
#532 = DIRECTION ( 'NONE',  ( 1.000000000000000000, 0.000000000000000000, 0.000000000000000000 ) ) ;
#533 = DIRECTION ( 'NONE',  ( 1.000000000000000000, 0.000000000000000000, 0.000000000000000000 ) ) ;
#534 = CARTESIAN_POINT ( 'NONE',  ( -42.01522368914974237, 18.38477631085023845, 0.000000000000000000 ) ) ;
#535 = CIRCLE ( 'NONE', #719, 1.600000000000004086 ) ;
#536 = ORIENTED_EDGE ( 'NONE', *, *, #292, .F. ) ;
#537 = EDGE_CURVE ( 'NONE', #530, #401, #462, .T. ) ;
#538 = CARTESIAN_POINT ( 'NONE',  ( -58.80000000000001137, -1.361020142258940230E-15, 2.000000000000000000 ) ) ;
#539 = CARTESIAN_POINT ( 'NONE',  ( -57.20000000000000284, 26.00000000000000711, 0.000000000000000000 ) ) ;
#540 = ORIENTED_EDGE ( 'NONE', *, *, #94, .T. ) ;
#541 = DIRECTION ( 'NONE',  ( 1.000000000000000000, 0.000000000000000000, 0.000000000000000000 ) ) ;
#542 = DIRECTION ( 'NONE',  ( 1.000000000000000000, 0.000000000000000000, 0.000000000000000000 ) ) ;
#543 = VECTOR ( 'NONE', #624, 1000.000000000000000 ) ;
#544 = FACE_OUTER_BOUND ( 'NONE', #332, .T. ) ;
#545 = ORIENTED_EDGE ( 'NONE', *, *, #573, .T. ) ;
#546 = FACE_BOUND ( 'NONE', #728, .T. ) ;
#547 = CARTESIAN_POINT ( 'NONE',  ( -81.34136002903926510, 14.40570333659612601, 2.000000000000000000 ) ) ;
#548 = ORIENTED_EDGE ( 'NONE', *, *, #324, .F. ) ;
#549 = LINE ( 'NONE', #215, #517 ) ;
#550 = CARTESIAN_POINT ( 'NONE',  ( -57.19999999999999574, -26.00000000000000711, 2.000000000000000000 ) ) ;
#551 = ORIENTED_EDGE ( 'NONE', *, *, #499, .F. ) ;
#552 = DIRECTION ( 'NONE',  ( 1.000000000000000000, 0.000000000000000000, -0.000000000000000000 ) ) ;
#553 = VECTOR ( 'NONE', #818, 1000.000000000000000 ) ;
#554 = ORIENTED_EDGE ( 'NONE', *, *, #114, .F. ) ;
#555 = EDGE_CURVE ( 'NONE', #70, #650, #404, .T. ) ;
#556 = CARTESIAN_POINT ( 'NONE',  ( -71.34136002903926510, 14.40570333659612601, 2.000000000000000000 ) ) ;
#557 = ORIENTED_EDGE ( 'NONE', *, *, #372, .F. ) ;
#558 = VECTOR ( 'NONE', #258, 1000.000000000000000 ) ;
#559 = VECTOR ( 'NONE', #700, 1000.000000000000000 ) ;
#560 = FACE_OUTER_BOUND ( 'NONE', #26, .T. ) ;
#561 = ORIENTED_EDGE ( 'NONE', *, *, #69, .T. ) ;
#562 = CARTESIAN_POINT ( 'NONE',  ( -77.80000000000002558, -1.361020142258940230E-15, 0.000000000000000000 ) ) ;
#563 = CARTESIAN_POINT ( 'NONE',  ( -58.80000000000001137, -1.361020142258940230E-15, 2.000000000000000000 ) ) ;
#564 = EDGE_LOOP ( 'NONE', ( #637, #663 ) ) ;
#565 = CARTESIAN_POINT ( 'NONE',  ( -36.25863997096080027, 14.40570333659616509, 2.000000000000000000 ) ) ;
#566 = DIRECTION ( 'NONE',  ( -1.000000000000000000, 0.000000000000000000, 0.000000000000000000 ) ) ;
#567 = ORIENTED_EDGE ( 'NONE', *, *, #792, .T. ) ;
#568 = LINE ( 'NONE', #377, #388 ) ;
#569 = FACE_OUTER_BOUND ( 'NONE', #758, .T. ) ;
#570 = EDGE_LOOP ( 'NONE', ( #523, #87, #104, #236 ) ) ;
#571 = CARTESIAN_POINT ( 'NONE',  ( -81.34136002903926510, -14.40570333659613134, 2.000000000000000000 ) ) ;
#572 = CARTESIAN_POINT ( 'NONE',  ( -46.25863997096080027, -14.40570333659616686, 0.000000000000000000 ) ) ;
#573 = EDGE_CURVE ( 'NONE', #745, #421, #498, .T. ) ;
#574 = EDGE_LOOP ( 'NONE', ( #224, #172 ) ) ;
#575 = CLOSED_SHELL ( 'NONE', ( #305, #149, #389, #799, #698, #31, #380, #490, #281, #238, #6, #241, #111, #179, #459, #767, #182, #639, #447, #661, #768, #174, #219, #608 ) ) ;
#576 = FACE_OUTER_BOUND ( 'NONE', #161, .T. ) ;
#577 = CIRCLE ( 'NONE', #221, 1.599999999999997202 ) ;
#578 = CARTESIAN_POINT ( 'NONE',  ( -38.81522368914976084, 18.38477631085023845, 0.000000000000000000 ) ) ;
#579 = EDGE_LOOP ( 'NONE', ( #471, #673 ) ) ;
#580 = DIRECTION ( 'NONE',  ( 1.000000000000000000, 0.000000000000000000, 0.000000000000000000 ) ) ;
#581 = EDGE_CURVE ( 'NONE', #60, #632, #803, .T. ) ;
#582 = DIRECTION ( 'NONE',  ( 0.000000000000000000, 0.000000000000000000, 1.000000000000000000 ) ) ;
#583 = CARTESIAN_POINT ( 'NONE',  ( -40.41522368914974805, 18.38477631085023845, 0.000000000000000000 ) ) ;
#584 = AXIS2_PLACEMENT_3D ( 'NONE', #360, #210, #139 ) ;
#585 = VERTEX_POINT ( 'NONE', #662 ) ;
#586 = CARTESIAN_POINT ( 'NONE',  ( -77.18477631085022495, -18.38477631085024555, 0.000000000000000000 ) ) ;
#587 = DIRECTION ( 'NONE',  ( 0.000000000000000000, 0.000000000000000000, 1.000000000000000000 ) ) ;
#588 = DIRECTION ( 'NONE',  ( -1.000000000000000000, 0.000000000000000000, 0.000000000000000000 ) ) ;
#589 = ORIENTED_EDGE ( 'NONE', *, *, #250, .F. ) ;
#590 = DIRECTION ( 'NONE',  ( -0.000000000000000000, -0.000000000000000000, 1.000000000000000000 ) ) ;
#591 = DIRECTION ( 'NONE',  ( -0.000000000000000000, -0.000000000000000000, -1.000000000000000000 ) ) ;
#592 = ORIENTED_EDGE ( 'NONE', *, *, #212, .F. ) ;
#593 = ORIENTED_EDGE ( 'NONE', *, *, #484, .F. ) ;
#594 = SURFACE_SIDE_STYLE ('',( #472 ) ) ;
#595 = DIRECTION ( 'NONE',  ( 1.000000000000000000, 0.000000000000000000, 0.000000000000000000 ) ) ;
#596 = CYLINDRICAL_SURFACE ( 'NONE', #626, 1.599999999999990319 ) ;
#597 = AXIS2_PLACEMENT_3D ( 'NONE', #321, #831, #643 ) ;
#598 = VERTEX_POINT ( 'NONE', #748 ) ;
#599 = DIRECTION ( 'NONE',  ( -0.000000000000000000, -0.000000000000000000, -1.000000000000000000 ) ) ;
#600 = CARTESIAN_POINT ( 'NONE',  ( -77.18477631085022495, -18.38477631085024555, 2.000000000000000000 ) ) ;
#601 = VERTEX_POINT ( 'NONE', #166 ) ;
#602 = AXIS2_PLACEMENT_3D ( 'NONE', #272, #708, #67 ) ;
#603 = FACE_OUTER_BOUND ( 'NONE', #686, .T. ) ;
#604 = AXIS2_PLACEMENT_3D ( 'NONE', #106, #369, #815 ) ;
#605 = DIRECTION ( 'NONE',  ( 1.000000000000000000, 0.000000000000000000, 0.000000000000000000 ) ) ;
#606 = ORIENTED_EDGE ( 'NONE', *, *, #812, .F. ) ;
#607 = CARTESIAN_POINT ( 'NONE',  ( -58.80000000000001137, -1.361020142258940230E-15, 2.000000000000000000 ) ) ;
#608 = ADVANCED_FACE ( 'NONE', ( #687 ), #622, .T. ) ;
#609 = CARTESIAN_POINT ( 'NONE',  ( -75.58477631085023063, 18.38477631085024555, 0.000000000000000000 ) ) ;
#610 = VERTEX_POINT ( 'NONE', #302 ) ;
#611 = DIRECTION ( 'NONE',  ( 1.000000000000000000, 0.000000000000000000, 0.000000000000000000 ) ) ;
#612 = ORIENTED_EDGE ( 'NONE', *, *, #820, .F. ) ;
#613 = CARTESIAN_POINT ( 'NONE',  ( -60.40000000000000568, -26.00000000000000711, 2.000000000000000000 ) ) ;
#614 = CIRCLE ( 'NONE', #291, 1.599999999999997202 ) ;
#615 = ORIENTED_EDGE ( 'NONE', *, *, #93, .T. ) ;
#616 = CARTESIAN_POINT ( 'NONE',  ( -38.81522368914976084, 18.38477631085023845, 2.000000000000000000 ) ) ;
#617 = ORIENTED_EDGE ( 'NONE', *, *, #21, .F. ) ;
#618 = DIRECTION ( 'NONE',  ( 0.000000000000000000, 0.000000000000000000, 1.000000000000000000 ) ) ;
#619 = CIRCLE ( 'NONE', #23, 29.10000000000000497 ) ;
#620 = CARTESIAN_POINT ( 'NONE',  ( -71.34136002903926510, 14.40570333659612601, 2.000000000000000000 ) ) ;
#621 = VERTEX_POINT ( 'NONE', #565 ) ;
#622 = CYLINDRICAL_SURFACE ( 'NONE', #756, 10.00000000000000178 ) ;
#623 = AXIS2_PLACEMENT_3D ( 'NONE', #130, #468, #533 ) ;
#624 = DIRECTION ( 'NONE',  ( -0.000000000000000000, -0.000000000000000000, 1.000000000000000000 ) ) ;
#625 = CIRCLE ( 'NONE', #602, 19.00000000000001066 ) ;
#626 = AXIS2_PLACEMENT_3D ( 'NONE', #583, #777, #461 ) ;
#627 = VERTEX_POINT ( 'NONE', #822 ) ;
#628 = AXIS2_PLACEMENT_3D ( 'NONE', #91, #552, #150 ) ;
#629 = CARTESIAN_POINT ( 'NONE',  ( -36.25863997096080027, 14.40570333659616509, 0.000000000000000000 ) ) ;
#630 = CARTESIAN_POINT ( 'NONE',  ( -57.20000000000000284, 26.00000000000000711, 2.000000000000000000 ) ) ;
#631 = EDGE_CURVE ( 'NONE', #65, #451, #520, .T. ) ;
#632 = VERTEX_POINT ( 'NONE', #795 ) ;
#633 = CYLINDRICAL_SURFACE ( 'NONE', #649, 1.599999999999997202 ) ;
#634 = CYLINDRICAL_SURFACE ( 'NONE', #176, 10.00000000000000178 ) ;
#635 = FACE_OUTER_BOUND ( 'NONE', #267, .T. ) ;
#636 = LINE ( 'NONE', #529, #413 ) ;
#637 = ORIENTED_EDGE ( 'NONE', *, *, #648, .T. ) ;
#638 = CARTESIAN_POINT ( 'NONE',  ( -58.79999999999999716, -26.00000000000000711, 2.000000000000000000 ) ) ;
#639 = ADVANCED_FACE ( 'NONE', ( #310 ), #759, .F. ) ;
#640 = CARTESIAN_POINT ( 'NONE',  ( -71.34136002903926510, -14.40570333659612956, 0.000000000000000000 ) ) ;
#641 = LINE ( 'NONE', #539, #378 ) ;
#642 = ORIENTED_EDGE ( 'NONE', *, *, #188, .T. ) ;
#643 = DIRECTION ( 'NONE',  ( 1.000000000000000000, 0.000000000000000000, 0.000000000000000000 ) ) ;
#644 = CIRCLE ( 'NONE', #284, 1.600000000000004086 ) ;
#645 = CARTESIAN_POINT ( 'NONE',  ( -39.69248288769419730, -21.94795639240567553, 2.000000000000000000 ) ) ;
#646 = VECTOR ( 'NONE', #19, 1000.000000000000000 ) ;
#647 = ORIENTED_EDGE ( 'NONE', *, *, #230, .F. ) ;
#648 = EDGE_CURVE ( 'NONE', #487, #376, #9, .T. ) ;
#649 = AXIS2_PLACEMENT_3D ( 'NONE', #317, #711, #125 ) ;
#650 = VERTEX_POINT ( 'NONE', #189 ) ;
#651 = DIRECTION ( 'NONE',  ( -0.000000000000000000, -0.000000000000000000, -1.000000000000000000 ) ) ;
#652 = FACE_OUTER_BOUND ( 'NONE', #158, .T. ) ;
#653 = CARTESIAN_POINT ( 'NONE',  ( -77.80000000000002558, -1.361020142258940230E-15, 2.000000000000000000 ) ) ;
#654 = ORIENTED_EDGE ( 'NONE', *, *, #117, .T. ) ;
#655 = AXIS2_PLACEMENT_3D ( 'NONE', #504, #749, #688 ) ;
#656 = AXIS2_PLACEMENT_3D ( 'NONE', #572, #833, #296 ) ;
#657 = LINE ( 'NONE', #845, #259 ) ;
#658 = LINE ( 'NONE', #141, #55 ) ;
#659 = EDGE_CURVE ( 'NONE', #262, #585, #448, .T. ) ;
#660 = EDGE_LOOP ( 'NONE', ( #195, #740, #783, #830 ) ) ;
#661 = ADVANCED_FACE ( 'NONE', ( #173 ), #633, .F. ) ;
#662 = CARTESIAN_POINT ( 'NONE',  ( -42.01522368914974237, 18.38477631085023845, 2.000000000000000000 ) ) ;
#663 = ORIENTED_EDGE ( 'NONE', *, *, #372, .T. ) ;
#664 = EDGE_LOOP ( 'NONE', ( #22, #540, #199, #843 ) ) ;
#665 = CARTESIAN_POINT ( 'NONE',  ( -58.80000000000001137, -1.361020142258940230E-15, 0.000000000000000000 ) ) ;
#666 = CARTESIAN_POINT ( 'NONE',  ( -40.41522368914976227, -18.38477631085023134, 2.000000000000000000 ) ) ;
#667 = EDGE_LOOP ( 'NONE', ( #309, #548, #606, #74 ) ) ;
#668 = EDGE_CURVE ( 'NONE', #601, #421, #619, .T. ) ;
#669 = AXIS2_PLACEMENT_3D ( 'NONE', #187, #588, #714 ) ;
#670 = DIRECTION ( 'NONE',  ( 1.000000000000000000, 0.000000000000000000, 0.000000000000000000 ) ) ;
#671 = CIRCLE ( 'NONE', #655, 1.600000000000004086 ) ;
#672 = CARTESIAN_POINT ( 'NONE',  ( -58.79999999999999716, 26.00000000000000711, 2.000000000000000000 ) ) ;
#673 = ORIENTED_EDGE ( 'NONE', *, *, #362, .F. ) ;
#674 = DIRECTION ( 'NONE',  ( 0.000000000000000000, 0.000000000000000000, 1.000000000000000000 ) ) ;
#675 = CYLINDRICAL_SURFACE ( 'NONE', #469, 1.600000000000004086 ) ;
#676 = ORIENTED_EDGE ( 'NONE', *, *, #160, .F. ) ;
#677 = AXIS2_PLACEMENT_3D ( 'NONE', #788, #329, #201 ) ;
#678 = DIRECTION ( 'NONE',  ( -1.000000000000000000, 0.000000000000000000, 0.000000000000000000 ) ) ;
#679 = ORIENTED_EDGE ( 'NONE', *, *, #581, .T. ) ;
#680 = AXIS2_PLACEMENT_3D ( 'NONE', #538, #255, #464 ) ;
#681 = LINE ( 'NONE', #609, #512 ) ;
#682 = AXIS2_PLACEMENT_3D ( 'NONE', #727, #718, #391 ) ;
#683 = VERTEX_POINT ( 'NONE', #629 ) ;
#684 = EDGE_CURVE ( 'NONE', #206, #347, #568, .T. ) ;
#685 = CYLINDRICAL_SURFACE ( 'NONE', #352, 1.599999999999997202 ) ;
#686 = EDGE_LOOP ( 'NONE', ( #505, #244, #848, #561, #64, #164, #494, #279 ) ) ;
#687 = FACE_OUTER_BOUND ( 'NONE', #667, .T. ) ;
#688 = DIRECTION ( 'NONE',  ( 1.000000000000000000, 0.000000000000000000, 0.000000000000000000 ) ) ;
#689 = EDGE_LOOP ( 'NONE', ( #97, #699 ) ) ;
#690 = FACE_OUTER_BOUND ( 'NONE', #92, .T. ) ;
#691 = EDGE_CURVE ( 'NONE', #347, #496, #313, .T. ) ;
#692 = DIRECTION ( 'NONE',  ( 1.000000000000000000, 0.000000000000000000, -0.000000000000000000 ) ) ;
#693 = ORIENTED_EDGE ( 'NONE', *, *, #152, .T. ) ;
#694 = CIRCLE ( 'NONE', #95, 1.600000000000004086 ) ;
#695 = LINE ( 'NONE', #170, #559 ) ;
#696 = DIRECTION ( 'NONE',  ( -0.000000000000000000, -0.000000000000000000, 1.000000000000000000 ) ) ;
#697 =( NAMED_UNIT ( * ) SI_UNIT ( $, .STERADIAN. ) SOLID_ANGLE_UNIT ( ) );
#698 = ADVANCED_FACE ( 'NONE', ( #576 ), #383, .F. ) ;
#699 = ORIENTED_EDGE ( 'NONE', *, *, #435, .F. ) ;
#700 = DIRECTION ( 'NONE',  ( -0.000000000000000000, -0.000000000000000000, 1.000000000000000000 ) ) ;
#701 = CIRCLE ( 'NONE', #336, 10.00000000000000178 ) ;
#702 = AXIS2_PLACEMENT_3D ( 'NONE', #638, #109, #433 ) ;
#703 = CARTESIAN_POINT ( 'NONE',  ( -60.40000000000000568, -26.00000000000000711, 0.000000000000000000 ) ) ;
#704 =( GEOMETRIC_REPRESENTATION_CONTEXT ( 3 ) GLOBAL_UNCERTAINTY_ASSIGNED_CONTEXT ( ( #509 ) ) GLOBAL_UNIT_ASSIGNED_CONTEXT ( ( #716, #177, #697 ) ) REPRESENTATION_CONTEXT ( 'NONE', 'WORKASPACE' ) );
#705 = ORIENTED_EDGE ( 'NONE', *, *, #754, .T. ) ;
#706 = EDGE_CURVE ( 'NONE', #585, #262, #814, .T. ) ;
#707 = DIRECTION ( 'NONE',  ( 0.000000000000000000, 0.000000000000000000, 1.000000000000000000 ) ) ;
#708 = DIRECTION ( 'NONE',  ( 0.000000000000000000, 0.000000000000000000, 1.000000000000000000 ) ) ;
#709 = EDGE_LOOP ( 'NONE', ( #256, #551, #417, #693 ) ) ;
#710 = ORIENTED_EDGE ( 'NONE', *, *, #473, .T. ) ;
#711 = DIRECTION ( 'NONE',  ( -0.000000000000000000, -0.000000000000000000, 1.000000000000000000 ) ) ;
#712 = EDGE_CURVE ( 'NONE', #60, #735, #242, .T. ) ;
#713 = CARTESIAN_POINT ( 'NONE',  ( -77.90751711230588228, 21.94795639240561513, 2.000000000000000000 ) ) ;
#714 = DIRECTION ( 'NONE',  ( 0.000000000000000000, 0.000000000000000000, 1.000000000000000000 ) ) ;
#715 = ORIENTED_EDGE ( 'NONE', *, *, #847, .T. ) ;
#716 =( LENGTH_UNIT ( ) NAMED_UNIT ( * ) SI_UNIT ( .MILLI., .METRE. ) );
#717 = DIRECTION ( 'NONE',  ( 1.000000000000000000, 0.000000000000000000, 0.000000000000000000 ) ) ;
#718 = DIRECTION ( 'NONE',  ( 0.000000000000000000, 0.000000000000000000, 1.000000000000000000 ) ) ;
#719 = AXIS2_PLACEMENT_3D ( 'NONE', #506, #753, #307 ) ;
#720 = DIRECTION ( 'NONE',  ( 0.000000000000000000, 0.000000000000000000, 1.000000000000000000 ) ) ;
#721 = PRODUCT_DEFINITION_SHAPE ( 'NONE', 'NONE',  #328 ) ;
#722 = CARTESIAN_POINT ( 'NONE',  ( -39.80000000000000426, 9.658087761210321212E-16, 2.000000000000000000 ) ) ;
#723 = DIRECTION ( 'NONE',  ( 1.000000000000000000, 0.000000000000000000, 0.000000000000000000 ) ) ;
#724 = FILL_AREA_STYLE ('',( #333 ) ) ;
#725 = VECTOR ( 'NONE', #163, 1000.000000000000000 ) ;
#726 = DIRECTION ( 'NONE',  ( 0.000000000000000000, 0.000000000000000000, 1.000000000000000000 ) ) ;
#727 = CARTESIAN_POINT ( 'NONE',  ( -58.79999999999999716, 26.00000000000000711, 0.000000000000000000 ) ) ;
#728 = EDGE_LOOP ( 'NONE', ( #793, #409 ) ) ;
#729 = LINE ( 'NONE', #132, #558 ) ;
#730 = CARTESIAN_POINT ( 'NONE',  ( -77.18477631085022495, -18.38477631085024555, 0.000000000000000000 ) ) ;
#731 = DIRECTION ( 'NONE',  ( 0.000000000000000000, 0.000000000000000000, 1.000000000000000000 ) ) ;
#732 = VERTEX_POINT ( 'NONE', #502 ) ;
#733 = PLANE ( 'NONE',  #62 ) ;
#734 = DIRECTION ( 'NONE',  ( 0.000000000000000000, 0.000000000000000000, 1.000000000000000000 ) ) ;
#735 = VERTEX_POINT ( 'NONE', #443 ) ;
#736 = VECTOR ( 'NONE', #334, 1000.000000000000000 ) ;
#737 = CARTESIAN_POINT ( 'NONE',  ( -81.34136002903926510, -14.40570333659613134, 2.000000000000000000 ) ) ;
#738 = CIRCLE ( 'NONE', #107, 1.599999999999990319 ) ;
#739 = DIRECTION ( 'NONE',  ( 1.000000000000000000, 0.000000000000000000, 0.000000000000000000 ) ) ;
#740 = ORIENTED_EDGE ( 'NONE', *, *, #555, .F. ) ;
#741 = LINE ( 'NONE', #157, #808 ) ;
#742 = VERTEX_POINT ( 'NONE', #825 ) ;
#743 = AXIS2_PLACEMENT_3D ( 'NONE', #368, #511, #374 ) ;
#744 = CARTESIAN_POINT ( 'NONE',  ( -77.18477631085022495, 18.38477631085024555, 2.000000000000000000 ) ) ;
#745 = VERTEX_POINT ( 'NONE', #44 ) ;
#746 = FACE_BOUND ( 'NONE', #306, .T. ) ;
#747 = ORIENTED_EDGE ( 'NONE', *, *, #467, .T. ) ;
#748 = CARTESIAN_POINT ( 'NONE',  ( -38.81522368914976795, -18.38477631085023134, 2.000000000000000000 ) ) ;
#749 = DIRECTION ( 'NONE',  ( 0.000000000000000000, 0.000000000000000000, 1.000000000000000000 ) ) ;
#750 = ORIENTED_EDGE ( 'NONE', *, *, #250, .T. ) ;
#751 = CIRCLE ( 'NONE', #270, 1.599999999999990319 ) ;
#752 = EDGE_CURVE ( 'NONE', #782, #82, #535, .T. ) ;
#753 = DIRECTION ( 'NONE',  ( 0.000000000000000000, 0.000000000000000000, 1.000000000000000000 ) ) ;
#754 = EDGE_CURVE ( 'NONE', #632, #598, #695, .T. ) ;
#755 = VECTOR ( 'NONE', #364, 1000.000000000000000 ) ;
#756 = AXIS2_PLACEMENT_3D ( 'NONE', #11, #77, #40 ) ;
#757 = CARTESIAN_POINT ( 'NONE',  ( -78.78477631085023347, 18.38477631085024555, 0.000000000000000000 ) ) ;
#758 = EDGE_LOOP ( 'NONE', ( #137, #747, #363, #113, #51, #810, #108, #3 ) ) ;
#759 = CYLINDRICAL_SURFACE ( 'NONE', #478, 1.600000000000004086 ) ;
#760 = EDGE_CURVE ( 'NONE', #168, #147, #826, .T. ) ;
#761 = CARTESIAN_POINT ( 'NONE',  ( -38.81522368914976084, 18.38477631085023845, 0.000000000000000000 ) ) ;
#762 = PRODUCT_CONTEXT ( 'NONE', #169, 'mechanical' ) ;
#763 = CIRCLE ( 'NONE', #136, 1.600000000000004086 ) ;
#764 = ORIENTED_EDGE ( 'NONE', *, *, #160, .T. ) ;
#765 = CIRCLE ( 'NONE', #289, 19.00000000000001066 ) ;
#766 = DIRECTION ( 'NONE',  ( -0.000000000000000000, -0.000000000000000000, 1.000000000000000000 ) ) ;
#767 = ADVANCED_FACE ( 'NONE', ( #690 ), #105, .F. ) ;
#768 = ADVANCED_FACE ( 'NONE', ( #635 ), #836, .T. ) ;
#769 = FACE_BOUND ( 'NONE', #56, .T. ) ;
#770 = ORIENTED_EDGE ( 'NONE', *, *, #706, .F. ) ;
#771 = DIRECTION ( 'NONE',  ( -0.000000000000000000, -0.000000000000000000, -1.000000000000000000 ) ) ;
#772 = DIRECTION ( 'NONE',  ( 1.000000000000000000, 0.000000000000000000, 0.000000000000000000 ) ) ;
#773 = DIRECTION ( 'NONE',  ( 0.000000000000000000, 0.000000000000000000, 1.000000000000000000 ) ) ;
#774 = DIRECTION ( 'NONE',  ( 0.000000000000000000, 0.000000000000000000, 1.000000000000000000 ) ) ;
#775 = CARTESIAN_POINT ( 'NONE',  ( -58.79999999999999716, 26.00000000000000711, 2.000000000000000000 ) ) ;
#776 = DIRECTION ( 'NONE',  ( 0.000000000000000000, 0.000000000000000000, 1.000000000000000000 ) ) ;
#777 = DIRECTION ( 'NONE',  ( -0.000000000000000000, -0.000000000000000000, 1.000000000000000000 ) ) ;
#778 = EDGE_LOOP ( 'NONE', ( #816, #316, #349, #340 ) ) ;
#779 = DIRECTION ( 'NONE',  ( 1.000000000000000000, 0.000000000000000000, 0.000000000000000000 ) ) ;
#780 = VECTOR ( 'NONE', #110, 1000.000000000000000 ) ;
#781 = LINE ( 'NONE', #784, #834 ) ;
#782 = VERTEX_POINT ( 'NONE', #185 ) ;
#783 = ORIENTED_EDGE ( 'NONE', *, *, #27, .T. ) ;
#784 = CARTESIAN_POINT ( 'NONE',  ( -36.25863997096080027, 14.40570333659616331, 2.000000000000000000 ) ) ;
#785 = AXIS2_PLACEMENT_3D ( 'NONE', #415, #474, #298 ) ;
#786 = VERTEX_POINT ( 'NONE', #449 ) ;
#787 = EDGE_LOOP ( 'NONE', ( #386, #257 ) ) ;
#788 = CARTESIAN_POINT ( 'NONE',  ( -40.41522368914974805, 18.38477631085023845, 0.000000000000000000 ) ) ;
#789 = EDGE_CURVE ( 'NONE', #621, #601, #405, .T. ) ;
#790 = MANIFOLD_SOLID_BREP ( 'Fillet1', #575 ) ;
#791 = PLANE ( 'NONE',  #669 ) ;
#792 = EDGE_CURVE ( 'NONE', #610, #294, #271, .T. ) ;
#793 = ORIENTED_EDGE ( 'NONE', *, *, #760, .F. ) ;
#794 = CARTESIAN_POINT ( 'NONE',  ( -46.25863997096080027, 14.40570333659616331, 0.000000000000000000 ) ) ;
#795 = CARTESIAN_POINT ( 'NONE',  ( -38.81522368914976795, -18.38477631085023134, 0.000000000000000000 ) ) ;
#796 = EDGE_CURVE ( 'NONE', #732, #392, #143, .T. ) ;
#797 = DIRECTION ( 'NONE',  ( -1.000000000000000000, 0.000000000000000000, 0.000000000000000000 ) ) ;
#798 = ORIENTED_EDGE ( 'NONE', *, *, #98, .T. ) ;
#799 = ADVANCED_FACE ( 'NONE', ( #275 ), #327, .F. ) ;
#800 = DIRECTION ( 'NONE',  ( 1.000000000000000000, 0.000000000000000000, 0.000000000000000000 ) ) ;
#801 = LINE ( 'NONE', #547, #486 ) ;
#802 = CIRCLE ( 'NONE', #428, 1.600000000000004086 ) ;
#803 = CIRCLE ( 'NONE', #584, 1.599999999999997202 ) ;
#804 = EDGE_LOOP ( 'NONE', ( #807, #491 ) ) ;
#805 = CARTESIAN_POINT ( 'NONE',  ( -39.69248288769419730, 21.94795639240567553, 2.000000000000000000 ) ) ;
#806 = DIRECTION ( 'NONE',  ( -0.000000000000000000, -0.000000000000000000, -1.000000000000000000 ) ) ;
#807 = ORIENTED_EDGE ( 'NONE', *, *, #331, .F. ) ;
#808 = VECTOR ( 'NONE', #99, 1000.000000000000000 ) ;
#809 = DIRECTION ( 'NONE',  ( 1.000000000000000000, 0.000000000000000000, 0.000000000000000000 ) ) ;
#810 = ORIENTED_EDGE ( 'NONE', *, *, #812, .T. ) ;
#811 = LINE ( 'NONE', #146, #122 ) ;
#812 = EDGE_CURVE ( 'NONE', #354, #683, #701, .T. ) ;
#813 = ORIENTED_EDGE ( 'NONE', *, *, #134, .T. ) ;
#814 = CIRCLE ( 'NONE', #129, 1.599999999999990319 ) ;
#815 = DIRECTION ( 'NONE',  ( 1.000000000000000000, 0.000000000000000000, 0.000000000000000000 ) ) ;
#816 = ORIENTED_EDGE ( 'NONE', *, *, #796, .F. ) ;
#817 = DIRECTION ( 'NONE',  ( 1.000000000000000000, 0.000000000000000000, 0.000000000000000000 ) ) ;
#818 = DIRECTION ( 'NONE',  ( -0.000000000000000000, -0.000000000000000000, 1.000000000000000000 ) ) ;
#819 = CIRCLE ( 'NONE', #395, 1.600000000000004086 ) ;
#820 = EDGE_CURVE ( 'NONE', #387, #178, #729, .T. ) ;
#821 = ORIENTED_EDGE ( 'NONE', *, *, #659, .T. ) ;
#822 = CARTESIAN_POINT ( 'NONE',  ( -75.58477631085023063, 18.38477631085024555, 0.000000000000000000 ) ) ;
#823 = FACE_BOUND ( 'NONE', #424, .T. ) ;
#824 = EDGE_LOOP ( 'NONE', ( #710, #545, #510, #18 ) ) ;
#825 = CARTESIAN_POINT ( 'NONE',  ( -75.58477631085023063, -18.38477631085024555, 2.000000000000000000 ) ) ;
#826 = CIRCLE ( 'NONE', #702, 1.600000000000004086 ) ;
#827 = DIRECTION ( 'NONE',  ( 0.000000000000000000, 0.000000000000000000, 1.000000000000000000 ) ) ;
#828 = PRODUCT_DEFINITION_CONTEXT ( 'detailed design', #832, 'design' ) ;
#829 = SHAPE_DEFINITION_REPRESENTATION ( #721, #86 ) ;
#830 = ORIENTED_EDGE ( 'NONE', *, *, #144, .T. ) ;
#831 = DIRECTION ( 'NONE',  ( -0.000000000000000000, -0.000000000000000000, 1.000000000000000000 ) ) ;
#832 = APPLICATION_CONTEXT ( 'automotive_design' ) ;
#833 = DIRECTION ( 'NONE',  ( -0.000000000000000000, -0.000000000000000000, -1.000000000000000000 ) ) ;
#834 = VECTOR ( 'NONE', #197, 1000.000000000000000 ) ;
#835 = EDGE_LOOP ( 'NONE', ( #263, #73, #838, #381 ) ) ;
#836 = CYLINDRICAL_SURFACE ( 'NONE', #7, 9.999999999999994671 ) ;
#837 = DIRECTION ( 'NONE',  ( -0.000000000000000000, -0.000000000000000000, 1.000000000000000000 ) ) ;
#838 = ORIENTED_EDGE ( 'NONE', *, *, #322, .F. ) ;
#839 = CARTESIAN_POINT ( 'NONE',  ( -40.41522368914974805, 18.38477631085023845, 2.000000000000000000 ) ) ;
#840 = COLOUR_RGB ( '',0.7921568627450980005, 0.8196078431372548767, 0.9333333333333333481 ) ;
#841 = FACE_OUTER_BOUND ( 'NONE', #90, .T. ) ;
#842 = ORIENTED_EDGE ( 'NONE', *, *, #188, .F. ) ;
#843 = ORIENTED_EDGE ( 'NONE', *, *, #27, .F. ) ;
#844 = CARTESIAN_POINT ( 'NONE',  ( -42.01522368914976369, -18.38477631085023134, 0.000000000000000000 ) ) ;
#845 = CARTESIAN_POINT ( 'NONE',  ( -57.19999999999999574, -26.00000000000000711, 0.000000000000000000 ) ) ;
#846 = ORIENTED_EDGE ( 'NONE', *, *, #528, .F. ) ;
#847 = EDGE_CURVE ( 'NONE', #147, #168, #402, .T. ) ;
#848 = ORIENTED_EDGE ( 'NONE', *, *, #796, .T. ) ;
#849 = CIRCLE ( 'NONE', #261, 1.599999999999997202 ) ;
ENDSEC;
END-ISO-10303-21;
