ISO-10303-21;
HEADER;
FILE_DESCRIPTION (( 'STEP AP214' ),
    '1' );
FILE_NAME ('camera_cover.STEP',
    '2026-05-23T03:56:38',
    ( '' ),
    ( '' ),
    'SwSTEP 2.0',
    'SolidWorks 2024',
    '' );
FILE_SCHEMA (( 'AUTOMOTIVE_DESIGN' ));
ENDSEC;

DATA;
#1 = CARTESIAN_POINT ( 'NONE',  ( 37.82893218813453018, -15.07106781186546840, 3.000000000000000000 ) ) ;
#2 = DIRECTION ( 'NONE',  ( -0.000000000000000000, -0.000000000000000000, -1.000000000000000000 ) ) ;
#3 = DIRECTION ( 'NONE',  ( -0.7071067811865472397, -0.7071067811865479058, 0.000000000000000000 ) ) ;
#4 = ADVANCED_FACE ( 'NONE', ( #67 ), #440, .F. ) ;
#5 = VERTEX_POINT ( 'NONE', #445 ) ;
#6 = ADVANCED_FACE ( 'NONE', ( #59 ), #300, .F. ) ;
#7 = CARTESIAN_POINT ( 'NONE',  ( 38.43553390593273633, -14.46446609406725869, 0.000000000000000000 ) ) ;
#8 = DIRECTION ( 'NONE',  ( -0.7071067811865474617, -0.7071067811865474617, -0.000000000000000000 ) ) ;
#9 = EDGE_LOOP ( 'NONE', ( #354, #493, #420, #865 ) ) ;
#10 = CIRCLE ( 'NONE', #859, 1.749999999999991118 ) ;
#11 = VECTOR ( 'NONE', #705, 1000.000000000000000 ) ;
#12 = APPLICATION_PROTOCOL_DEFINITION ( 'draft international standard', 'automotive_design', 1998, #847 ) ;
#13 = CARTESIAN_POINT ( 'NONE',  ( -36.36446609406725372, 16.53553390593274486, 0.000000000000000000 ) ) ;
#14 = DIRECTION ( 'NONE',  ( 1.294569758191646909E-16, 1.000000000000000000, -0.000000000000000000 ) ) ;
#15 = ORIENTED_EDGE ( 'NONE', *, *, #319, .T. ) ;
#16 = ADVANCED_FACE ( 'NONE', ( #958 ), #359, .F. ) ;
#17 =( LENGTH_UNIT ( ) NAMED_UNIT ( * ) SI_UNIT ( .MILLI., .METRE. ) );
#18 = ORIENTED_EDGE ( 'NONE', *, *, #271, .F. ) ;
#19 = DIRECTION ( 'NONE',  ( 0.000000000000000000, 0.000000000000000000, 1.000000000000000000 ) ) ;
#20 = ORIENTED_EDGE ( 'NONE', *, *, #630, .T. ) ;
#21 = CARTESIAN_POINT ( 'NONE',  ( 36.36446609406726793, 16.53553390593273775, 3.000000000000000000 ) ) ;
#22 = EDGE_LOOP ( 'NONE', ( #644, #475, #186, #18 ) ) ;
#23 = AXIS2_PLACEMENT_3D ( 'NONE', #262, #279, #114 ) ;
#24 =( GEOMETRIC_REPRESENTATION_CONTEXT ( 3 ) GLOBAL_UNCERTAINTY_ASSIGNED_CONTEXT ( ( #768 ) ) GLOBAL_UNIT_ASSIGNED_CONTEXT ( ( #17, #251, #836 ) ) REPRESENTATION_CONTEXT ( 'NONE', 'WORKASPACE' ) );
#25 = AXIS2_PLACEMENT_3D ( 'NONE', #283, #821, #210 ) ;
#26 = FACE_OUTER_BOUND ( 'NONE', #451, .T. ) ;
#27 = DIRECTION ( 'NONE',  ( 1.000000000000000000, 0.000000000000000000, 0.000000000000000000 ) ) ;
#28 = ORIENTED_EDGE ( 'NONE', *, *, #736, .T. ) ;
#29 = DIRECTION ( 'NONE',  ( -0.000000000000000000, -0.000000000000000000, -1.000000000000000000 ) ) ;
#30 = VERTEX_POINT ( 'NONE', #805 ) ;
#31 = FACE_BOUND ( 'NONE', #79, .T. ) ;
#32 = ORIENTED_EDGE ( 'NONE', *, *, #214, .T. ) ;
#33 = EDGE_CURVE ( 'NONE', #759, #486, #232, .T. ) ;
#34 = DIRECTION ( 'NONE',  ( -1.000000000000000000, 1.056826013124967889E-16, -0.000000000000000000 ) ) ;
#35 = VERTEX_POINT ( 'NONE', #743 ) ;
#36 = EDGE_CURVE ( 'NONE', #486, #810, #64, .T. ) ;
#37 = ORIENTED_EDGE ( 'NONE', *, *, #36, .F. ) ;
#38 = VERTEX_POINT ( 'NONE', #506 ) ;
#39 = VERTEX_POINT ( 'NONE', #126 ) ;
#40 = DIRECTION ( 'NONE',  ( 0.7071067811865470176, 0.7071067811865480168, -0.000000000000000000 ) ) ;
#41 = CIRCLE ( 'NONE', #608, 1.750000000000005107 ) ;
#42 = CIRCLE ( 'NONE', #450, 4.999999999999997335 ) ;
#43 = EDGE_LOOP ( 'NONE', ( #909, #83 ) ) ;
#44 = DIRECTION ( 'NONE',  ( 1.000000000000000000, -1.294569758191648388E-16, 0.000000000000000000 ) ) ;
#45 = ORIENTED_EDGE ( 'NONE', *, *, #947, .F. ) ;
#46 = EDGE_CURVE ( 'NONE', #253, #454, #961, .T. ) ;
#47 = CARTESIAN_POINT ( 'NONE',  ( 36.36446609406726793, 16.53553390593273775, 3.000000000000000000 ) ) ;
#48 = ADVANCED_FACE ( 'NONE', ( #431 ), #590, .T. ) ;
#49 = DIRECTION ( 'NONE',  ( -0.000000000000000000, -0.000000000000000000, -1.000000000000000000 ) ) ;
#50 = CYLINDRICAL_SURFACE ( 'NONE', #965, 5.000000000000000888 ) ;
#51 = ORIENTED_EDGE ( 'NONE', *, *, #224, .T. ) ;
#52 = VERTEX_POINT ( 'NONE', #948 ) ;
#53 = DIRECTION ( 'NONE',  ( -0.000000000000000000, -0.000000000000000000, -1.000000000000000000 ) ) ;
#54 = CARTESIAN_POINT ( 'NONE',  ( 38.43553390593273633, -14.46446609406725869, 3.000000000000000000 ) ) ;
#55 = FACE_OUTER_BOUND ( 'NONE', #243, .T. ) ;
#56 = FACE_BOUND ( 'NONE', #632, .T. ) ;
#57 = CARTESIAN_POINT ( 'NONE',  ( 0.000000000000000000, 0.000000000000000000, 3.000000000000000000 ) ) ;
#58 = CIRCLE ( 'NONE', #825, 4.999999999999997335 ) ;
#59 = FACE_OUTER_BOUND ( 'NONE', #278, .T. ) ;
#60 = CIRCLE ( 'NONE', #657, 10.00000000000000000 ) ;
#61 = EDGE_CURVE ( 'NONE', #562, #551, #282, .T. ) ;
#62 = EDGE_CURVE ( 'NONE', #778, #793, #514, .T. ) ;
#63 = CYLINDRICAL_SURFACE ( 'NONE', #378, 10.00000000000000000 ) ;
#64 = LINE ( 'NONE', #799, #913 ) ;
#65 = EDGE_CURVE ( 'NONE', #562, #368, #935, .T. ) ;
#66 = FACE_BOUND ( 'NONE', #489, .T. ) ;
#67 = FACE_OUTER_BOUND ( 'NONE', #845, .T. ) ;
#68 = DIRECTION ( 'NONE',  ( 0.000000000000000000, 0.000000000000000000, 1.000000000000000000 ) ) ;
#69 = FACE_OUTER_BOUND ( 'NONE', #518, .T. ) ;
#70 = DIRECTION ( 'NONE',  ( -1.000000000000000000, 0.000000000000000000, 0.000000000000000000 ) ) ;
#71 = AXIS2_PLACEMENT_3D ( 'NONE', #89, #151, #309 ) ;
#72 = ORIENTED_EDGE ( 'NONE', *, *, #327, .T. ) ;
#73 = VECTOR ( 'NONE', #8, 1000.000000000000114 ) ;
#74 = VECTOR ( 'NONE', #133, 1000.000000000000000 ) ;
#75 = EDGE_CURVE ( 'NONE', #810, #212, #722, .T. ) ;
#76 = PLANE ( 'NONE',  #690 ) ;
#77 = DIRECTION ( 'NONE',  ( -1.000000000000000000, 0.000000000000000000, 0.000000000000000000 ) ) ;
#78 = FACE_OUTER_BOUND ( 'NONE', #316, .T. ) ;
#79 = EDGE_LOOP ( 'NONE', ( #943, #780 ) ) ;
#80 = LINE ( 'NONE', #683, #73 ) ;
#81 = ORIENTED_EDGE ( 'NONE', *, *, #495, .F. ) ;
#82 = FACE_BOUND ( 'NONE', #905, .T. ) ;
#83 = ORIENTED_EDGE ( 'NONE', *, *, #526, .T. ) ;
#84 = EDGE_CURVE ( 'NONE', #638, #725, #58, .T. ) ;
#85 = ORIENTED_EDGE ( 'NONE', *, *, #120, .F. ) ;
#86 = AXIS2_PLACEMENT_3D ( 'NONE', #615, #907, #240 ) ;
#87 = CIRCLE ( 'NONE', #169, 1.749999999999980682 ) ;
#88 = CARTESIAN_POINT ( 'NONE',  ( -38.43553390593272923, 14.46446609406726225, 3.000000000000000000 ) ) ;
#89 = CARTESIAN_POINT ( 'NONE',  ( 30.75786437626905112, -8.000000000000001776, 3.000000000000000000 ) ) ;
#90 = ORIENTED_EDGE ( 'NONE', *, *, #867, .F. ) ;
#91 = CARTESIAN_POINT ( 'NONE',  ( 39.90000000000000568, 10.92893218813450851, 0.000000000000000000 ) ) ;
#92 = DIRECTION ( 'NONE',  ( 1.000000000000000000, -1.056826013124967889E-16, 0.000000000000000000 ) ) ;
#93 = CARTESIAN_POINT ( 'NONE',  ( 32.99999999999997158, -13.50000000000005329, 0.000000000000000000 ) ) ;
#94 = ORIENTED_EDGE ( 'NONE', *, *, #195, .F. ) ;
#95 = ORIENTED_EDGE ( 'NONE', *, *, #62, .F. ) ;
#96 = CARTESIAN_POINT ( 'NONE',  ( -37.82893218813451597, -15.07106781186547018, 0.000000000000000000 ) ) ;
#97 = CARTESIAN_POINT ( 'NONE',  ( 30.75786437626905112, -8.000000000000001776, 0.000000000000000000 ) ) ;
#98 = CARTESIAN_POINT ( 'NONE',  ( -32.82893218813451597, 18.00000000000000711, 3.000000000000000000 ) ) ;
#99 = ORIENTED_EDGE ( 'NONE', *, *, #181, .T. ) ;
#100 = CARTESIAN_POINT ( 'NONE',  ( -30.75786437626904046, -17.99999999999999289, 3.000000000000000000 ) ) ;
#101 = ORIENTED_EDGE ( 'NONE', *, *, #601, .F. ) ;
#102 = CIRCLE ( 'NONE', #656, 1.750000000000001554 ) ;
#103 = AXIS2_PLACEMENT_3D ( 'NONE', #627, #920, #92 ) ;
#104 = CIRCLE ( 'NONE', #155, 1.749999999999991118 ) ;
#105 = CARTESIAN_POINT ( 'NONE',  ( -33.00000000000000000, -13.50000000000000178, 3.000000000000000000 ) ) ;
#106 = EDGE_CURVE ( 'NONE', #725, #393, #473, .T. ) ;
#107 = ADVANCED_FACE ( 'NONE', ( #78 ), #540, .F. ) ;
#108 = CARTESIAN_POINT ( 'NONE',  ( -31.24999999999999645, -13.50000000000000178, 3.000000000000000000 ) ) ;
#109 = VERTEX_POINT ( 'NONE', #146 ) ;
#110 = FACE_OUTER_BOUND ( 'NONE', #408, .T. ) ;
#111 = VERTEX_POINT ( 'NONE', #549 ) ;
#112 = DIRECTION ( 'NONE',  ( 1.000000000000000000, 0.000000000000000000, 0.000000000000000000 ) ) ;
#113 = ORIENTED_EDGE ( 'NONE', *, *, #439, .F. ) ;
#114 = DIRECTION ( 'NONE',  ( -1.000000000000000000, 0.000000000000000000, 0.000000000000000000 ) ) ;
#115 = EDGE_LOOP ( 'NONE', ( #792, #691, #795, #416, #296, #553, #534, #28, #128, #406, #834, #940, #595, #184, #922, #199 ) ) ;
#116 = EDGE_LOOP ( 'NONE', ( #134, #94, #267, #344 ) ) ;
#117 = CYLINDRICAL_SURFACE ( 'NONE', #249, 4.999999999999997335 ) ;
#118 = ORIENTED_EDGE ( 'NONE', *, *, #213, .T. ) ;
#119 = DIRECTION ( 'NONE',  ( -0.000000000000000000, -0.000000000000000000, -1.000000000000000000 ) ) ;
#120 = EDGE_CURVE ( 'NONE', #130, #503, #165, .T. ) ;
#121 = ORIENTED_EDGE ( 'NONE', *, *, #647, .F. ) ;
#122 = DIRECTION ( 'NONE',  ( -1.000000000000000000, 0.000000000000000000, 0.000000000000000000 ) ) ;
#123 = VECTOR ( 'NONE', #119, 1000.000000000000000 ) ;
#124 = AXIS2_PLACEMENT_3D ( 'NONE', #171, #264, #561 ) ;
#125 = CIRCLE ( 'NONE', #594, 4.999999999999997335 ) ;
#126 = CARTESIAN_POINT ( 'NONE',  ( -39.89999999999999147, -10.92893218813451561, 3.000000000000000000 ) ) ;
#127 = LINE ( 'NONE', #597, #522 ) ;
#128 = ORIENTED_EDGE ( 'NONE', *, *, #598, .T. ) ;
#129 = CARTESIAN_POINT ( 'NONE',  ( -32.82893218813451597, 18.00000000000000711, 3.000000000000000000 ) ) ;
#130 = VERTEX_POINT ( 'NONE', #545 ) ;
#131 = CARTESIAN_POINT ( 'NONE',  ( -32.82893218813451597, 13.00000000000000711, 3.000000000000000000 ) ) ;
#132 = DIRECTION ( 'NONE',  ( 0.000000000000000000, 0.000000000000000000, 1.000000000000000000 ) ) ;
#133 = DIRECTION ( 'NONE',  ( -0.000000000000000000, -0.000000000000000000, -1.000000000000000000 ) ) ;
#134 = ORIENTED_EDGE ( 'NONE', *, *, #241, .T. ) ;
#135 = ORIENTED_EDGE ( 'NONE', *, *, #106, .T. ) ;
#136 = CARTESIAN_POINT ( 'NONE',  ( -32.82893218813451597, 13.00000000000000711, 0.000000000000000000 ) ) ;
#137 = ADVANCED_FACE ( 'NONE', ( #764 ), #467, .T. ) ;
#138 = VECTOR ( 'NONE', #923, 1000.000000000000000 ) ;
#139 = DIRECTION ( 'NONE',  ( 1.000000000000000000, 0.000000000000000000, 0.000000000000000000 ) ) ;
#140 = EDGE_CURVE ( 'NONE', #212, #759, #382, .T. ) ;
#141 = AXIS2_PLACEMENT_3D ( 'NONE', #960, #677, #366 ) ;
#142 = DIRECTION ( 'NONE',  ( -0.000000000000000000, -0.000000000000000000, -1.000000000000000000 ) ) ;
#143 = ORIENTED_EDGE ( 'NONE', *, *, #438, .T. ) ;
#144 = DIRECTION ( 'NONE',  ( 1.000000000000000000, 0.000000000000000000, 0.000000000000000000 ) ) ;
#145 = DIRECTION ( 'NONE',  ( 0.000000000000000000, 0.000000000000000000, -1.000000000000000000 ) ) ;
#146 = CARTESIAN_POINT ( 'NONE',  ( -32.82893218813451597, 18.00000000000000711, 0.000000000000000000 ) ) ;
#147 = EDGE_CURVE ( 'NONE', #5, #179, #102, .T. ) ;
#148 = EDGE_CURVE ( 'NONE', #570, #895, #782, .T. ) ;
#149 = CARTESIAN_POINT ( 'NONE',  ( -38.43553390593272923, -14.46446609406725337, 3.000000000000000000 ) ) ;
#150 = CARTESIAN_POINT ( 'NONE',  ( 36.36446609406726793, 16.53553390593273775, 0.000000000000000000 ) ) ;
#151 = DIRECTION ( 'NONE',  ( 0.000000000000000000, 0.000000000000000000, -1.000000000000000000 ) ) ;
#152 = AXIS2_PLACEMENT_3D ( 'NONE', #204, #29, #787 ) ;
#153 = CIRCLE ( 'NONE', #840, 4.999999999999997335 ) ;
#154 = ORIENTED_EDGE ( 'NONE', *, *, #195, .T. ) ;
#155 = AXIS2_PLACEMENT_3D ( 'NONE', #93, #697, #329 ) ;
#156 = DIRECTION ( 'NONE',  ( 0.000000000000000000, 0.000000000000000000, 1.000000000000000000 ) ) ;
#157 = CARTESIAN_POINT ( 'NONE',  ( 32.82893218813453018, 13.00000000000000000, 0.000000000000000000 ) ) ;
#158 = ORIENTED_EDGE ( 'NONE', *, *, #886, .F. ) ;
#159 = CARTESIAN_POINT ( 'NONE',  ( 30.75786437626905112, -18.00000000000000355, 3.000000000000000000 ) ) ;
#160 = DIRECTION ( 'NONE',  ( 1.000000000000000000, 0.000000000000000000, 0.000000000000000000 ) ) ;
#161 = ADVANCED_BREP_SHAPE_REPRESENTATION ( 'camera_cover', ( #527, #189 ), #235 ) ;
#162 = VERTEX_POINT ( 'NONE', #926 ) ;
#163 = CARTESIAN_POINT ( 'NONE',  ( 39.89999999999999858, -10.92893218813452272, 0.000000000000000000 ) ) ;
#164 = FACE_OUTER_BOUND ( 'NONE', #115, .T. ) ;
#165 = LINE ( 'NONE', #457, #314 ) ;
#166 = EDGE_LOOP ( 'NONE', ( #118, #500 ) ) ;
#167 = CIRCLE ( 'NONE', #299, 10.00000000000000000 ) ;
#168 = CIRCLE ( 'NONE', #724, 1.749999999999980682 ) ;
#169 = AXIS2_PLACEMENT_3D ( 'NONE', #596, #735, #215 ) ;
#170 = CARTESIAN_POINT ( 'NONE',  ( 0.000000000000000000, 0.000000000000000000, 0.000000000000000000 ) ) ;
#171 = CARTESIAN_POINT ( 'NONE',  ( -32.82893218813451597, 13.00000000000000711, 3.000000000000000000 ) ) ;
#172 = DIRECTION ( 'NONE',  ( -1.000000000000000000, 0.000000000000000000, 0.000000000000000000 ) ) ;
#173 = EDGE_LOOP ( 'NONE', ( #717, #85, #284, #154 ) ) ;
#174 = ORIENTED_EDGE ( 'NONE', *, *, #373, .F. ) ;
#175 = ORIENTED_EDGE ( 'NONE', *, *, #613, .T. ) ;
#176 = DIRECTION ( 'NONE',  ( -0.000000000000000000, -1.000000000000000000, -0.000000000000000000 ) ) ;
#177 = EDGE_LOOP ( 'NONE', ( #263, #191, #567, #158 ) ) ;
#178 = CARTESIAN_POINT ( 'NONE',  ( 39.89999999999999858, -10.92893218813452272, 3.000000000000000000 ) ) ;
#179 = VERTEX_POINT ( 'NONE', #916 ) ;
#180 = EDGE_CURVE ( 'NONE', #503, #30, #842, .T. ) ;
#181 = EDGE_CURVE ( 'NONE', #895, #570, #458, .T. ) ;
#182 = FILL_AREA_STYLE ('',( #326 ) ) ;
#183 = CARTESIAN_POINT ( 'NONE',  ( -39.89999999999999147, -10.92893218813451561, 3.000000000000000000 ) ) ;
#184 = ORIENTED_EDGE ( 'NONE', *, *, #452, .T. ) ;
#185 = DIRECTION ( 'NONE',  ( 0.000000000000000000, 0.000000000000000000, 1.000000000000000000 ) ) ;
#186 = ORIENTED_EDGE ( 'NONE', *, *, #213, .F. ) ;
#187 = CIRCLE ( 'NONE', #568, 1.749999999999991118 ) ;
#188 = AXIS2_PLACEMENT_3D ( 'NONE', #752, #2, #77 ) ;
#189 = AXIS2_PLACEMENT_3D ( 'NONE', #170, #614, #941 ) ;
#190 = DIRECTION ( 'NONE',  ( -1.000000000000000000, 0.000000000000000000, 0.000000000000000000 ) ) ;
#191 = ORIENTED_EDGE ( 'NONE', *, *, #290, .T. ) ;
#192 = CYLINDRICAL_SURFACE ( 'NONE', #447, 1.750000000000001554 ) ;
#193 = VERTEX_POINT ( 'NONE', #480 ) ;
#194 = LINE ( 'NONE', #682, #860 ) ;
#195 = EDGE_CURVE ( 'NONE', #852, #109, #485, .T. ) ;
#196 = DIRECTION ( 'NONE',  ( 0.000000000000000000, 0.000000000000000000, 1.000000000000000000 ) ) ;
#197 = FACE_OUTER_BOUND ( 'NONE', #818, .T. ) ;
#198 = ADVANCED_FACE ( 'NONE', ( #384 ), #192, .F. ) ;
#199 = ORIENTED_EDGE ( 'NONE', *, *, #75, .T. ) ;
#200 = CARTESIAN_POINT ( 'NONE',  ( -38.43553390593272923, -14.46446609406725337, 3.000000000000000000 ) ) ;
#201 = VERTEX_POINT ( 'NONE', #851 ) ;
#202 = EDGE_LOOP ( 'NONE', ( #951, #850, #72, #796 ) ) ;
#203 = DIRECTION ( 'NONE',  ( -0.000000000000000000, -0.000000000000000000, 1.000000000000000000 ) ) ;
#204 = CARTESIAN_POINT ( 'NONE',  ( -32.82893218813451597, 13.00000000000000711, 3.000000000000000000 ) ) ;
#205 = CARTESIAN_POINT ( 'NONE',  ( -38.43553390593272923, 14.46446609406726225, 3.000000000000000000 ) ) ;
#206 = VECTOR ( 'NONE', #555, 1000.000000000000000 ) ;
#207 = VECTOR ( 'NONE', #529, 1000.000000000000000 ) ;
#208 = AXIS2_PLACEMENT_3D ( 'NONE', #756, #930, #268 ) ;
#209 = DIRECTION ( 'NONE',  ( -0.000000000000000000, -0.000000000000000000, -1.000000000000000000 ) ) ;
#210 = DIRECTION ( 'NONE',  ( 1.000000000000000000, 0.000000000000000000, 0.000000000000000000 ) ) ;
#211 = CARTESIAN_POINT ( 'NONE',  ( 0.000000000000000000, 0.000000000000000000, 3.000000000000000000 ) ) ;
#212 = VERTEX_POINT ( 'NONE', #100 ) ;
#213 = EDGE_CURVE ( 'NONE', #623, #551, #187, .T. ) ;
#214 = EDGE_CURVE ( 'NONE', #38, #310, #167, .T. ) ;
#215 = DIRECTION ( 'NONE',  ( -1.000000000000000000, 0.000000000000000000, 0.000000000000000000 ) ) ;
#216 = DIRECTION ( 'NONE',  ( -1.000000000000000000, 3.174552547521865467E-16, 0.000000000000000000 ) ) ;
#217 = ORIENTED_EDGE ( 'NONE', *, *, #241, .F. ) ;
#218 = CARTESIAN_POINT ( 'NONE',  ( 30.75786437626905112, -18.00000000000000355, 0.000000000000000000 ) ) ;
#219 = AXIS2_PLACEMENT_3D ( 'NONE', #415, #185, #723 ) ;
#220 = CARTESIAN_POINT ( 'NONE',  ( 32.82893218813453018, 13.00000000000000000, 3.000000000000000000 ) ) ;
#221 = DIRECTION ( 'NONE',  ( 0.000000000000000000, 0.000000000000000000, 1.000000000000000000 ) ) ;
#222 = CARTESIAN_POINT ( 'NONE',  ( -34.75000000000000000, -13.50000000000000178, 3.000000000000000000 ) ) ;
#223 = EDGE_CURVE ( 'NONE', #501, #924, #563, .T. ) ;
#224 = EDGE_CURVE ( 'NONE', #468, #111, #874, .T. ) ;
#225 = CARTESIAN_POINT ( 'NONE',  ( 34.57893218813450886, 13.00000000000000000, 0.000000000000000000 ) ) ;
#226 = DIRECTION ( 'NONE',  ( -1.000000000000000000, 0.000000000000000000, 0.000000000000000000 ) ) ;
#227 = CARTESIAN_POINT ( 'NONE',  ( 36.36446609406726793, 16.53553390593273775, 3.000000000000000000 ) ) ;
#228 = EDGE_LOOP ( 'NONE', ( #707, #487, #446, #650 ) ) ;
#229 = CARTESIAN_POINT ( 'NONE',  ( 0.000000000000000000, 0.000000000000000000, 3.000000000000000000 ) ) ;
#230 = DIRECTION ( 'NONE',  ( 0.000000000000000000, 0.000000000000000000, -1.000000000000000000 ) ) ;
#231 = DIRECTION ( 'NONE',  ( 0.000000000000000000, 0.000000000000000000, -1.000000000000000000 ) ) ;
#232 = CIRCLE ( 'NONE', #509, 10.00000000000000178 ) ;
#233 = VECTOR ( 'NONE', #639, 1000.000000000000000 ) ;
#234 = ORIENTED_EDGE ( 'NONE', *, *, #65, .T. ) ;
#235 =( GEOMETRIC_REPRESENTATION_CONTEXT ( 3 ) GLOBAL_UNCERTAINTY_ASSIGNED_CONTEXT ( ( #434 ) ) GLOBAL_UNIT_ASSIGNED_CONTEXT ( ( #645, #835, #830 ) ) REPRESENTATION_CONTEXT ( 'NONE', 'WORKASPACE' ) );
#236 = CARTESIAN_POINT ( 'NONE',  ( -10.00000000000000000, 0.000000000000000000, 3.000000000000000000 ) ) ;
#237 = ORIENTED_EDGE ( 'NONE', *, *, #949, .F. ) ;
#238 = PRODUCT_DEFINITION_CONTEXT ( 'detailed design', #847, 'design' ) ;
#239 = DIRECTION ( 'NONE',  ( -0.000000000000000000, -0.000000000000000000, -1.000000000000000000 ) ) ;
#240 = DIRECTION ( 'NONE',  ( 1.000000000000000000, 0.000000000000000000, 0.000000000000000000 ) ) ;
#241 = EDGE_CURVE ( 'NONE', #963, #109, #631, .T. ) ;
#242 = DIRECTION ( 'NONE',  ( -1.000000000000000000, 1.294569758191646909E-16, 0.000000000000000000 ) ) ;
#243 = EDGE_LOOP ( 'NONE', ( #175, #612, #424, #929 ) ) ;
#244 = DIRECTION ( 'NONE',  ( 0.000000000000000000, 0.000000000000000000, 1.000000000000000000 ) ) ;
#245 = DIRECTION ( 'NONE',  ( 0.7071067811865474617, 0.7071067811865474617, 0.000000000000000000 ) ) ;
#246 = DIRECTION ( 'NONE',  ( 1.000000000000000000, 0.000000000000000000, 0.000000000000000000 ) ) ;
#247 = ORIENTED_EDGE ( 'NONE', *, *, #536, .T. ) ;
#248 = VECTOR ( 'NONE', #355, 1000.000000000000000 ) ;
#249 = AXIS2_PLACEMENT_3D ( 'NONE', #804, #53, #190 ) ;
#250 = VECTOR ( 'NONE', #239, 1000.000000000000000 ) ;
#251 =( NAMED_UNIT ( * ) PLANE_ANGLE_UNIT ( ) SI_UNIT ( $, .RADIAN. ) );
#252 = CARTESIAN_POINT ( 'NONE',  ( 32.82893218813453018, 13.00000000000000000, 0.000000000000000000 ) ) ;
#253 = VERTEX_POINT ( 'NONE', #21 ) ;
#254 = EDGE_CURVE ( 'NONE', #212, #861, #331, .T. ) ;
#255 = LINE ( 'NONE', #200, #123 ) ;
#256 = ADVANCED_FACE ( 'NONE', ( #110 ), #873, .F. ) ;
#257 = ORIENTED_EDGE ( 'NONE', *, *, #495, .T. ) ;
#258 = ADVANCED_FACE ( 'NONE', ( #491 ), #709, .T. ) ;
#259 = CYLINDRICAL_SURFACE ( 'NONE', #826, 10.00000000000000178 ) ;
#260 = CARTESIAN_POINT ( 'NONE',  ( -39.89999999999999147, -10.92893218813451561, 3.000000000000000000 ) ) ;
#261 = ORIENTED_EDGE ( 'NONE', *, *, #566, .T. ) ;
#262 = CARTESIAN_POINT ( 'NONE',  ( 32.99999999999997158, -13.50000000000005329, 3.000000000000000000 ) ) ;
#263 = ORIENTED_EDGE ( 'NONE', *, *, #844, .T. ) ;
#264 = DIRECTION ( 'NONE',  ( 0.000000000000000000, 0.000000000000000000, 1.000000000000000000 ) ) ;
#265 = ORIENTED_EDGE ( 'NONE', *, *, #947, .T. ) ;
#266 = DIRECTION ( 'NONE',  ( -0.000000000000000000, -0.000000000000000000, -1.000000000000000000 ) ) ;
#267 = ORIENTED_EDGE ( 'NONE', *, *, #598, .F. ) ;
#268 = DIRECTION ( 'NONE',  ( 1.000000000000000000, 0.000000000000000000, 0.000000000000000000 ) ) ;
#269 = AXIS2_PLACEMENT_3D ( 'NONE', #728, #216, #666 ) ;
#270 = CIRCLE ( 'NONE', #25, 4.999999999999997335 ) ;
#271 = EDGE_CURVE ( 'NONE', #368, #623, #341, .T. ) ;
#272 = CIRCLE ( 'NONE', #765, 10.00000000000000000 ) ;
#273 = CARTESIAN_POINT ( 'NONE',  ( -32.82893218813451597, 13.00000000000000711, 3.000000000000000000 ) ) ;
#274 = ORIENTED_EDGE ( 'NONE', *, *, #373, .T. ) ;
#275 = DIRECTION ( 'NONE',  ( -0.000000000000000000, -0.000000000000000000, -1.000000000000000000 ) ) ;
#276 = ORIENTED_EDGE ( 'NONE', *, *, #224, .F. ) ;
#277 = CARTESIAN_POINT ( 'NONE',  ( -34.89999999999999147, -10.92893218813451384, 3.000000000000000000 ) ) ;
#278 = EDGE_LOOP ( 'NONE', ( #383, #667, #698, #856 ) ) ;
#279 = DIRECTION ( 'NONE',  ( -0.000000000000000000, -0.000000000000000000, -1.000000000000000000 ) ) ;
#280 = ORIENTED_EDGE ( 'NONE', *, *, #899, .F. ) ;
#281 = FACE_OUTER_BOUND ( 'NONE', #9, .T. ) ;
#282 = LINE ( 'NONE', #579, #374 ) ;
#283 = CARTESIAN_POINT ( 'NONE',  ( -34.89999999999999147, -10.92893218813451384, 3.000000000000000000 ) ) ;
#284 = ORIENTED_EDGE ( 'NONE', *, *, #358, .F. ) ;
#285 = CARTESIAN_POINT ( 'NONE',  ( 32.82893218813453018, 13.00000000000000000, 3.000000000000000000 ) ) ;
#286 = AXIS2_PLACEMENT_3D ( 'NONE', #288, #466, #230 ) ;
#287 = CARTESIAN_POINT ( 'NONE',  ( 32.99999999999997158, -13.50000000000005329, 3.000000000000000000 ) ) ;
#288 = CARTESIAN_POINT ( 'NONE',  ( -39.89999999999999147, -10.92893218813451561, 3.000000000000000000 ) ) ;
#289 = ADVANCED_FACE ( 'NONE', ( #636 ), #569, .T. ) ;
#290 = EDGE_CURVE ( 'NONE', #767, #733, #498, .T. ) ;
#291 = FACE_BOUND ( 'NONE', #504, .T. ) ;
#292 = DIRECTION ( 'NONE',  ( -1.000000000000000000, 0.000000000000000000, 0.000000000000000000 ) ) ;
#293 = ORIENTED_EDGE ( 'NONE', *, *, #476, .T. ) ;
#294 = DIRECTION ( 'NONE',  ( 0.000000000000000000, 0.000000000000000000, 1.000000000000000000 ) ) ;
#295 = CARTESIAN_POINT ( 'NONE',  ( 36.36446609406726793, 16.53553390593273775, 3.000000000000000000 ) ) ;
#296 = ORIENTED_EDGE ( 'NONE', *, *, #933, .T. ) ;
#297 = EDGE_CURVE ( 'NONE', #793, #501, #703, .T. ) ;
#298 = FACE_BOUND ( 'NONE', #412, .T. ) ;
#299 = AXIS2_PLACEMENT_3D ( 'NONE', #699, #714, #801 ) ;
#300 = CYLINDRICAL_SURFACE ( 'NONE', #800, 1.750000000000001554 ) ;
#301 = VECTOR ( 'NONE', #513, 999.9999999999998863 ) ;
#302 = LINE ( 'NONE', #91, #233 ) ;
#303 = DIRECTION ( 'NONE',  ( 1.000000000000000000, 0.000000000000000000, 0.000000000000000000 ) ) ;
#304 = DIRECTION ( 'NONE',  ( -0.000000000000000000, -0.000000000000000000, -1.000000000000000000 ) ) ;
#305 = DIRECTION ( 'NONE',  ( 0.7071067811865479058, -0.7071067811865472397, 0.000000000000000000 ) ) ;
#306 = EDGE_LOOP ( 'NONE', ( #20, #745, #855, #875 ) ) ;
#307 = CARTESIAN_POINT ( 'NONE',  ( 34.57893218813450886, 13.00000000000000000, 3.000000000000000000 ) ) ;
#308 = CARTESIAN_POINT ( 'NONE',  ( -39.89999999999999147, -10.92893218813451561, 0.000000000000000000 ) ) ;
#309 = DIRECTION ( 'NONE',  ( -1.000000000000000000, 0.000000000000000000, 0.000000000000000000 ) ) ;
#310 = VERTEX_POINT ( 'NONE', #649 ) ;
#311 = DIRECTION ( 'NONE',  ( -0.7071067811865474617, 0.7071067811865474617, 0.000000000000000000 ) ) ;
#312 = LINE ( 'NONE', #236, #474 ) ;
#313 = DIRECTION ( 'NONE',  ( 1.000000000000000000, 0.000000000000000000, 0.000000000000000000 ) ) ;
#314 = VECTOR ( 'NONE', #610, 1000.000000000000000 ) ;
#315 = VECTOR ( 'NONE', #324, 1000.000000000000000 ) ;
#316 = EDGE_LOOP ( 'NONE', ( #898, #336, #121, #265 ) ) ;
#317 = CIRCLE ( 'NONE', #477, 1.750000000000005107 ) ;
#318 = EDGE_CURVE ( 'NONE', #414, #963, #918, .T. ) ;
#319 = EDGE_CURVE ( 'NONE', #872, #111, #255, .T. ) ;
#320 = PLANE ( 'NONE',  #783 ) ;
#321 = CARTESIAN_POINT ( 'NONE',  ( -31.24999999999999645, -13.50000000000000178, 0.000000000000000000 ) ) ;
#322 = ORIENTED_EDGE ( 'NONE', *, *, #223, .F. ) ;
#323 = LINE ( 'NONE', #7, #541 ) ;
#324 = DIRECTION ( 'NONE',  ( -0.000000000000000000, -0.000000000000000000, 1.000000000000000000 ) ) ;
#325 = ORIENTED_EDGE ( 'NONE', *, *, #829, .F. ) ;
#326 = FILL_AREA_STYLE_COLOUR ( '', #739 ) ;
#327 = EDGE_CURVE ( 'NONE', #35, #570, #425, .T. ) ;
#328 = ADVANCED_FACE ( 'NONE', ( #585 ), #655, .F. ) ;
#329 = DIRECTION ( 'NONE',  ( -1.000000000000000000, 0.000000000000000000, 0.000000000000000000 ) ) ;
#330 = ORIENTED_EDGE ( 'NONE', *, *, #738, .F. ) ;
#331 = LINE ( 'NONE', #718, #761 ) ;
#332 = AXIS2_PLACEMENT_3D ( 'NONE', #157, #833, #70 ) ;
#333 = EDGE_LOOP ( 'NONE', ( #560, #463, #740, #564 ) ) ;
#334 = PLANE ( 'NONE',  #103 ) ;
#335 = DIRECTION ( 'NONE',  ( -0.000000000000000000, -0.000000000000000000, -1.000000000000000000 ) ) ;
#336 = ORIENTED_EDGE ( 'NONE', *, *, #46, .F. ) ;
#337 = CARTESIAN_POINT ( 'NONE',  ( 32.99999999999997158, -13.50000000000005329, 0.000000000000000000 ) ) ;
#338 = ORIENTED_EDGE ( 'NONE', *, *, #536, .F. ) ;
#339 = DIRECTION ( 'NONE',  ( 0.7071067811865475727, -0.7071067811865475727, 0.000000000000000000 ) ) ;
#340 = ORIENTED_EDGE ( 'NONE', *, *, #925, .T. ) ;
#341 = LINE ( 'NONE', #928, #839 ) ;
#342 = ORIENTED_EDGE ( 'NONE', *, *, #402, .F. ) ;
#343 = FACE_OUTER_BOUND ( 'NONE', #346, .T. ) ;
#344 = ORIENTED_EDGE ( 'NONE', *, *, #318, .T. ) ;
#345 = DIRECTION ( 'NONE',  ( 0.000000000000000000, 0.000000000000000000, 1.000000000000000000 ) ) ;
#346 = EDGE_LOOP ( 'NONE', ( #257, #946, #663, #15 ) ) ;
#347 = DIRECTION ( 'NONE',  ( -0.000000000000000000, -0.000000000000000000, -1.000000000000000000 ) ) ;
#348 = VERTEX_POINT ( 'NONE', #222 ) ;
#349 = VECTOR ( 'NONE', #505, 1000.000000000000114 ) ;
#350 = EDGE_CURVE ( 'NONE', #130, #638, #80, .T. ) ;
#351 = DIRECTION ( 'NONE',  ( 0.000000000000000000, 0.000000000000000000, 1.000000000000000000 ) ) ;
#352 = ORIENTED_EDGE ( 'NONE', *, *, #760, .T. ) ;
#353 = DIRECTION ( 'NONE',  ( -1.000000000000000000, 0.000000000000000000, 0.000000000000000000 ) ) ;
#354 = ORIENTED_EDGE ( 'NONE', *, *, #147, .T. ) ;
#355 = DIRECTION ( 'NONE',  ( -0.000000000000000000, -0.000000000000000000, -1.000000000000000000 ) ) ;
#356 = CARTESIAN_POINT ( 'NONE',  ( 39.90000000000000568, 10.92893218813450673, 3.000000000000000000 ) ) ;
#357 = LINE ( 'NONE', #794, #411 ) ;
#358 = EDGE_CURVE ( 'NONE', #852, #130, #153, .T. ) ;
#359 = CYLINDRICAL_SURFACE ( 'NONE', #953, 1.749999999999991118 ) ;
#360 = DIRECTION ( 'NONE',  ( 0.000000000000000000, 0.000000000000000000, 1.000000000000000000 ) ) ;
#361 = ORIENTED_EDGE ( 'NONE', *, *, #526, .F. ) ;
#362 = LINE ( 'NONE', #858, #349 ) ;
#363 = VECTOR ( 'NONE', #145, 1000.000000000000000 ) ;
#364 = DIRECTION ( 'NONE',  ( -0.000000000000000000, -0.000000000000000000, -1.000000000000000000 ) ) ;
#365 = DIRECTION ( 'NONE',  ( -0.000000000000000000, -0.000000000000000000, -1.000000000000000000 ) ) ;
#366 = DIRECTION ( 'NONE',  ( -1.000000000000000000, 0.000000000000000000, 0.000000000000000000 ) ) ;
#367 = ORIENTED_EDGE ( 'NONE', *, *, #565, .F. ) ;
#368 = VERTEX_POINT ( 'NONE', #806 ) ;
#369 = ADVANCED_FACE ( 'NONE', ( #55 ), #532, .F. ) ;
#370 = DIRECTION ( 'NONE',  ( 1.000000000000000000, 0.000000000000000000, 0.000000000000000000 ) ) ;
#371 = CARTESIAN_POINT ( 'NONE',  ( 32.99999999999997158, -13.50000000000005329, 3.000000000000000000 ) ) ;
#372 = CARTESIAN_POINT ( 'NONE',  ( -32.82893218813451597, 13.00000000000000711, 0.000000000000000000 ) ) ;
#373 = EDGE_CURVE ( 'NONE', #778, #511, #678, .T. ) ;
#374 = VECTOR ( 'NONE', #209, 1000.000000000000000 ) ;
#375 = PLANE ( 'NONE',  #377 ) ;
#376 = CARTESIAN_POINT ( 'NONE',  ( -32.82893218813451597, 13.00000000000000711, 3.000000000000000000 ) ) ;
#377 = AXIS2_PLACEMENT_3D ( 'NONE', #544, #876, #950 ) ;
#378 = AXIS2_PLACEMENT_3D ( 'NONE', #593, #587, #884 ) ;
#379 = ORIENTED_EDGE ( 'NONE', *, *, #899, .T. ) ;
#380 = DIRECTION ( 'NONE',  ( 1.000000000000000000, 0.000000000000000000, -0.000000000000000000 ) ) ;
#381 = CARTESIAN_POINT ( 'NONE',  ( 32.99999999999997158, -13.50000000000005329, 3.000000000000000000 ) ) ;
#382 = LINE ( 'NONE', #679, #814 ) ;
#383 = ORIENTED_EDGE ( 'NONE', *, *, #290, .F. ) ;
#384 = FACE_OUTER_BOUND ( 'NONE', #715, .T. ) ;
#385 = DIRECTION ( 'NONE',  ( -1.000000000000000000, 0.000000000000000000, 0.000000000000000000 ) ) ;
#386 = EDGE_CURVE ( 'NONE', #52, #310, #312, .T. ) ;
#387 = ORIENTED_EDGE ( 'NONE', *, *, #120, .T. ) ;
#388 = EDGE_CURVE ( 'NONE', #310, #38, #762, .T. ) ;
#389 = DIRECTION ( 'NONE',  ( 1.000000000000000000, 0.000000000000000000, 0.000000000000000000 ) ) ;
#390 = FACE_BOUND ( 'NONE', #883, .T. ) ;
#391 = VECTOR ( 'NONE', #654, 1000.000000000000000 ) ;
#392 = AXIS2_PLACEMENT_3D ( 'NONE', #277, #351, #871 ) ;
#393 = VERTEX_POINT ( 'NONE', #754 ) ;
#394 = AXIS2_PLACEMENT_3D ( 'NONE', #864, #617, #311 ) ;
#395 = ORIENTED_EDGE ( 'NONE', *, *, #535, .F. ) ;
#396 = PRESENTATION_STYLE_ASSIGNMENT (( #556 ) ) ;
#397 = CARTESIAN_POINT ( 'NONE',  ( -34.89999999999999147, 10.92893218813452805, 3.000000000000000000 ) ) ;
#398 = DIRECTION ( 'NONE',  ( 0.000000000000000000, 0.000000000000000000, 1.000000000000000000 ) ) ;
#399 = ORIENTED_EDGE ( 'NONE', *, *, #911, .T. ) ;
#400 = EDGE_CURVE ( 'NONE', #368, #562, #10, .T. ) ;
#401 = PRODUCT_CONTEXT ( 'NONE', #422, 'mechanical' ) ;
#402 = EDGE_CURVE ( 'NONE', #179, #162, #609, .T. ) ;
#403 = SURFACE_STYLE_FILL_AREA ( #182 ) ;
#404 = CARTESIAN_POINT ( 'NONE',  ( 10.00000000000000000, 1.224646799147353256E-15, 3.000000000000000000 ) ) ;
#405 = ORIENTED_EDGE ( 'NONE', *, *, #702, .F. ) ;
#406 = ORIENTED_EDGE ( 'NONE', *, *, #358, .T. ) ;
#407 = LINE ( 'NONE', #472, #914 ) ;
#408 = EDGE_LOOP ( 'NONE', ( #648, #234, #912, #330 ) ) ;
#409 = AXIS2_PLACEMENT_3D ( 'NONE', #625, #266, #353 ) ;
#410 = DIRECTION ( 'NONE',  ( -1.000000000000000000, 0.000000000000000000, 0.000000000000000000 ) ) ;
#411 = VECTOR ( 'NONE', #789, 999.9999999999998863 ) ;
#412 = EDGE_LOOP ( 'NONE', ( #885, #99 ) ) ;
#413 = CARTESIAN_POINT ( 'NONE',  ( 31.07893218813454794, 13.00000000000000000, 0.000000000000000000 ) ) ;
#414 = VERTEX_POINT ( 'NONE', #580 ) ;
#415 = CARTESIAN_POINT ( 'NONE',  ( -34.89999999999999147, -10.92893218813451384, 0.000000000000000000 ) ) ;
#416 = ORIENTED_EDGE ( 'NONE', *, *, #297, .T. ) ;
#417 = CARTESIAN_POINT ( 'NONE',  ( -34.57893218813451597, 13.00000000000000711, 0.000000000000000000 ) ) ;
#418 = ORIENTED_EDGE ( 'NONE', *, *, #452, .F. ) ;
#419 = CARTESIAN_POINT ( 'NONE',  ( 34.89999999999999858, -10.92893218813452272, 3.000000000000000000 ) ) ;
#420 = ORIENTED_EDGE ( 'NONE', *, *, #819, .F. ) ;
#421 = ADVANCED_FACE ( 'NONE', ( #69 ), #50, .T. ) ;
#422 = APPLICATION_CONTEXT ( 'automotive_design' ) ;
#423 = EDGE_LOOP ( 'NONE', ( #629, #37, #542, #868 ) ) ;
#424 = ORIENTED_EDGE ( 'NONE', *, *, #148, .F. ) ;
#425 = LINE ( 'NONE', #539, #670 ) ;
#426 = ORIENTED_EDGE ( 'NONE', *, *, #758, .F. ) ;
#427 = AXIS2_PLACEMENT_3D ( 'NONE', #419, #939, #869 ) ;
#428 = CIRCLE ( 'NONE', #86, 1.750000000000001554 ) ;
#429 = AXIS2_PLACEMENT_3D ( 'NONE', #727, #14, #242 ) ;
#430 = DIRECTION ( 'NONE',  ( 0.000000000000000000, 0.000000000000000000, 1.000000000000000000 ) ) ;
#431 = FACE_OUTER_BOUND ( 'NONE', #333, .T. ) ;
#432 = LINE ( 'NONE', #356, #492 ) ;
#433 = ORIENTED_EDGE ( 'NONE', *, *, #400, .F. ) ;
#434 = UNCERTAINTY_MEASURE_WITH_UNIT (LENGTH_MEASURE( 1.000000000000000082E-05 ), #645, 'distance_accuracy_value', 'NONE');
#435 = ADVANCED_FACE ( 'NONE', ( #732 ), #375, .F. ) ;
#436 = PRODUCT_DEFINITION_SHAPE ( 'NONE', 'NONE',  #959 ) ;
#437 = CARTESIAN_POINT ( 'NONE',  ( 34.89999999999999858, -10.92893218813452272, 0.000000000000000000 ) ) ;
#438 = EDGE_CURVE ( 'NONE', #759, #863, #127, .T. ) ;
#439 = EDGE_CURVE ( 'NONE', #843, #193, #432, .T. ) ;
#440 = PLANE ( 'NONE',  #269 ) ;
#441 = CARTESIAN_POINT ( 'NONE',  ( 34.90000000000000568, 10.92893218813451561, 3.000000000000000000 ) ) ;
#442 = ORIENTED_EDGE ( 'NONE', *, *, #180, .T. ) ;
#443 = DIRECTION ( 'NONE',  ( -0.000000000000000000, -0.000000000000000000, -1.000000000000000000 ) ) ;
#444 = DIRECTION ( 'NONE',  ( -0.000000000000000000, -0.000000000000000000, -1.000000000000000000 ) ) ;
#445 = CARTESIAN_POINT ( 'NONE',  ( -34.57893218813451597, 13.00000000000000711, 3.000000000000000000 ) ) ;
#446 = ORIENTED_EDGE ( 'NONE', *, *, #386, .T. ) ;
#447 = AXIS2_PLACEMENT_3D ( 'NONE', #559, #507, #410 ) ;
#448 = PRESENTATION_LAYER_ASSIGNMENT (  '', '', ( #750 ) ) ;
#449 = CARTESIAN_POINT ( 'NONE',  ( -37.82893218813451597, -15.07106781186547018, 3.000000000000000000 ) ) ;
#450 = AXIS2_PLACEMENT_3D ( 'NONE', #769, #244, #547 ) ;
#451 = EDGE_LOOP ( 'NONE', ( #442, #637, #824, #387 ) ) ;
#452 = EDGE_CURVE ( 'NONE', #39, #872, #270, .T. ) ;
#453 = CARTESIAN_POINT ( 'NONE',  ( -33.00000000000000000, -13.50000000000000178, 3.000000000000000000 ) ) ;
#454 = VERTEX_POINT ( 'NONE', #150 ) ;
#455 = CARTESIAN_POINT ( 'NONE',  ( 30.75786437626901915, -18.00000000000000000, 3.000000000000000000 ) ) ;
#456 = DIRECTION ( 'NONE',  ( -0.000000000000000000, -0.000000000000000000, -1.000000000000000000 ) ) ;
#457 = CARTESIAN_POINT ( 'NONE',  ( -36.36446609406725372, 16.53553390593274486, 3.000000000000000000 ) ) ;
#458 = CIRCLE ( 'NONE', #606, 1.749999999999980682 ) ;
#459 = LINE ( 'NONE', #817, #937 ) ;
#460 = AXIS2_PLACEMENT_3D ( 'NONE', #227, #3, #305 ) ;
#461 = CYLINDRICAL_SURFACE ( 'NONE', #188, 4.999999999999997335 ) ;
#462 = AXIS2_PLACEMENT_3D ( 'NONE', #882, #360, #748 ) ;
#463 = ORIENTED_EDGE ( 'NONE', *, *, #318, .F. ) ;
#464 = ADVANCED_FACE ( 'NONE', ( #515 ), #461, .T. ) ;
#465 = DIRECTION ( 'NONE',  ( 0.000000000000000000, 0.000000000000000000, 1.000000000000000000 ) ) ;
#466 = DIRECTION ( 'NONE',  ( 1.000000000000000000, 0.000000000000000000, 0.000000000000000000 ) ) ;
#467 = CYLINDRICAL_SURFACE ( 'NONE', #71, 9.999999999999998224 ) ;
#468 = VERTEX_POINT ( 'NONE', #308 ) ;
#469 = DIRECTION ( 'NONE',  ( 3.174552547521865467E-16, 1.000000000000000000, -0.000000000000000000 ) ) ;
#470 = DIRECTION ( 'NONE',  ( 0.000000000000000000, 0.000000000000000000, -1.000000000000000000 ) ) ;
#471 = VERTEX_POINT ( 'NONE', #603 ) ;
#472 = CARTESIAN_POINT ( 'NONE',  ( -34.89999999999999147, -17.99999999999999289, 0.000000000000000000 ) ) ;
#473 = LINE ( 'NONE', #530, #490 ) ;
#474 = VECTOR ( 'NONE', #456, 1000.000000000000000 ) ;
#475 = ORIENTED_EDGE ( 'NONE', *, *, #61, .T. ) ;
#476 = EDGE_CURVE ( 'NONE', #863, #861, #633, .T. ) ;
#477 = AXIS2_PLACEMENT_3D ( 'NONE', #453, #812, #370 ) ;
#478 = CARTESIAN_POINT ( 'NONE',  ( 38.43553390593274344, 14.46446609406725869, 3.000000000000000000 ) ) ;
#479 = CARTESIAN_POINT ( 'NONE',  ( 32.82893218813453018, 13.00000000000000000, 0.000000000000000000 ) ) ;
#480 = CARTESIAN_POINT ( 'NONE',  ( 39.90000000000000568, 10.92893218813450673, 0.000000000000000000 ) ) ;
#481 = ORIENTED_EDGE ( 'NONE', *, *, #566, .F. ) ;
#482 = ORIENTED_EDGE ( 'NONE', *, *, #832, .T. ) ;
#483 = CARTESIAN_POINT ( 'NONE',  ( -39.89999999999999147, -10.92893218813451561, 0.000000000000000000 ) ) ;
#484 = CARTESIAN_POINT ( 'NONE',  ( 38.43553390593273633, -14.46446609406725692, 3.000000000000000000 ) ) ;
#485 = LINE ( 'NONE', #98, #206 ) ;
#486 = VERTEX_POINT ( 'NONE', #96 ) ;
#487 = ORIENTED_EDGE ( 'NONE', *, *, #867, .T. ) ;
#488 = CARTESIAN_POINT ( 'NONE',  ( 37.82893218813453018, -15.07106781186546840, 0.000000000000000000 ) ) ;
#489 = EDGE_LOOP ( 'NONE', ( #700, #32 ) ) ;
#490 = VECTOR ( 'NONE', #533, 1000.000000000000000 ) ;
#491 = FACE_OUTER_BOUND ( 'NONE', #173, .T. ) ;
#492 = VECTOR ( 'NONE', #652, 1000.000000000000000 ) ;
#493 = ORIENTED_EDGE ( 'NONE', *, *, #402, .T. ) ;
#494 = DIRECTION ( 'NONE',  ( 1.000000000000000000, 0.000000000000000000, 0.000000000000000000 ) ) ;
#495 = EDGE_CURVE ( 'NONE', #111, #486, #407, .T. ) ;
#496 = EDGE_CURVE ( 'NONE', #767, #348, #41, .T. ) ;
#497 = ORIENTED_EDGE ( 'NONE', *, *, #140, .T. ) ;
#498 = LINE ( 'NONE', #862, #591 ) ;
#499 = CARTESIAN_POINT ( 'NONE',  ( -30.75786437626904046, -7.999999999999992895, 3.000000000000000000 ) ) ;
#500 = ORIENTED_EDGE ( 'NONE', *, *, #738, .T. ) ;
#501 = VERTEX_POINT ( 'NONE', #701 ) ;
#502 = CARTESIAN_POINT ( 'NONE',  ( 38.43553390593274344, 14.46446609406725869, 0.000000000000000000 ) ) ;
#503 = VERTEX_POINT ( 'NONE', #13 ) ;
#504 = EDGE_LOOP ( 'NONE', ( #521, #558 ) ) ;
#505 = DIRECTION ( 'NONE',  ( 0.7071067811865474617, -0.7071067811865474617, -0.000000000000000000 ) ) ;
#506 = CARTESIAN_POINT ( 'NONE',  ( 10.00000000000000000, 1.224646799147353256E-15, 0.000000000000000000 ) ) ;
#507 = DIRECTION ( 'NONE',  ( -0.000000000000000000, -0.000000000000000000, -1.000000000000000000 ) ) ;
#508 = ADVANCED_FACE ( 'NONE', ( #26 ), #320, .F. ) ;
#509 = AXIS2_PLACEMENT_3D ( 'NONE', #889, #365, #139 ) ;
#510 = ADVANCED_FACE ( 'NONE', ( #619 ), #334, .F. ) ;
#511 = VERTEX_POINT ( 'NONE', #488 ) ;
#512 = AXIS2_PLACEMENT_3D ( 'NONE', #97, #335, #784 ) ;
#513 = DIRECTION ( 'NONE',  ( -0.7071067811865479058, 0.7071067811865472397, -0.000000000000000000 ) ) ;
#514 = LINE ( 'NONE', #54, #391 ) ;
#515 = FACE_OUTER_BOUND ( 'NONE', #755, .T. ) ;
#516 = DIRECTION ( 'NONE',  ( -1.000000000000000000, 0.000000000000000000, 0.000000000000000000 ) ) ;
#517 = ORIENTED_EDGE ( 'NONE', *, *, #84, .F. ) ;
#518 = EDGE_LOOP ( 'NONE', ( #379, #45, #237, #719 ) ) ;
#519 = PRODUCT_RELATED_PRODUCT_CATEGORY ( 'part', '', ( #797 ) ) ;
#520 = CARTESIAN_POINT ( 'NONE',  ( 34.90000000000000568, 10.92893218813451561, 0.000000000000000000 ) ) ;
#521 = ORIENTED_EDGE ( 'NONE', *, *, #902, .T. ) ;
#522 = VECTOR ( 'NONE', #823, 1000.000000000000000 ) ;
#523 = DIRECTION ( 'NONE',  ( -1.000000000000000000, 0.000000000000000000, 0.000000000000000000 ) ) ;
#524 = AXIS2_PLACEMENT_3D ( 'NONE', #136, #822, #144 ) ;
#525 = DIRECTION ( 'NONE',  ( -1.000000000000000000, 0.000000000000000000, 0.000000000000000000 ) ) ;
#526 = EDGE_CURVE ( 'NONE', #162, #676, #428, .T. ) ;
#527 = MANIFOLD_SOLID_BREP ( 'Fillet1', #900 ) ;
#528 = CYLINDRICAL_SURFACE ( 'NONE', #915, 10.00000000000000000 ) ;
#529 = DIRECTION ( 'NONE',  ( -0.000000000000000000, -0.000000000000000000, -1.000000000000000000 ) ) ;
#530 = CARTESIAN_POINT ( 'NONE',  ( -39.89999999999999147, 10.92893218813452627, 3.000000000000000000 ) ) ;
#531 = DIRECTION ( 'NONE',  ( 0.000000000000000000, 0.000000000000000000, 1.000000000000000000 ) ) ;
#532 = CYLINDRICAL_SURFACE ( 'NONE', #622, 1.749999999999980682 ) ;
#533 = DIRECTION ( 'NONE',  ( -0.000000000000000000, -0.000000000000000000, -1.000000000000000000 ) ) ;
#534 = ORIENTED_EDGE ( 'NONE', *, *, #647, .T. ) ;
#535 = EDGE_CURVE ( 'NONE', #39, #468, #848, .T. ) ;
#536 = EDGE_CURVE ( 'NONE', #179, #5, #936, .T. ) ;
#537 = AXIS2_PLACEMENT_3D ( 'NONE', #689, #908, #837 ) ;
#538 = AXIS2_PLACEMENT_3D ( 'NONE', #808, #132, #112 ) ;
#539 = CARTESIAN_POINT ( 'NONE',  ( 31.07893218813454794, 13.00000000000000000, 3.000000000000000000 ) ) ;
#540 = PLANE ( 'NONE',  #460 ) ;
#541 = VECTOR ( 'NONE', #40, 1000.000000000000000 ) ;
#542 = ORIENTED_EDGE ( 'NONE', *, *, #33, .F. ) ;
#543 = PLANE ( 'NONE',  #394 ) ;
#544 = CARTESIAN_POINT ( 'NONE',  ( 38.43553390593273633, -14.46446609406725869, 3.000000000000000000 ) ) ;
#545 = CARTESIAN_POINT ( 'NONE',  ( -36.36446609406725372, 16.53553390593274486, 3.000000000000000000 ) ) ;
#546 = ORIENTED_EDGE ( 'NONE', *, *, #664, .F. ) ;
#547 = DIRECTION ( 'NONE',  ( 1.000000000000000000, 0.000000000000000000, 0.000000000000000000 ) ) ;
#548 = DIRECTION ( 'NONE',  ( 1.000000000000000000, 0.000000000000000000, 0.000000000000000000 ) ) ;
#549 = CARTESIAN_POINT ( 'NONE',  ( -38.43553390593272923, -14.46446609406725337, 0.000000000000000000 ) ) ;
#550 = DIRECTION ( 'NONE',  ( -0.7071067811865474617, -0.7071067811865474617, -0.000000000000000000 ) ) ;
#551 = VERTEX_POINT ( 'NONE', #781 ) ;
#552 = VECTOR ( 'NONE', #572, 1000.000000000000000 ) ;
#553 = ORIENTED_EDGE ( 'NONE', *, *, #949, .T. ) ;
#554 = CIRCLE ( 'NONE', #524, 1.750000000000001554 ) ;
#555 = DIRECTION ( 'NONE',  ( -0.000000000000000000, -0.000000000000000000, -1.000000000000000000 ) ) ;
#556 = SURFACE_STYLE_USAGE ( .BOTH. , #696 ) ;
#557 = DIRECTION ( 'NONE',  ( 0.000000000000000000, 0.000000000000000000, 1.000000000000000000 ) ) ;
#558 = ORIENTED_EDGE ( 'NONE', *, *, #675, .T. ) ;
#559 = CARTESIAN_POINT ( 'NONE',  ( -32.82893218813451597, 13.00000000000000711, 3.000000000000000000 ) ) ;
#560 = ORIENTED_EDGE ( 'NONE', *, *, #565, .T. ) ;
#561 = DIRECTION ( 'NONE',  ( 1.000000000000000000, 0.000000000000000000, 0.000000000000000000 ) ) ;
#562 = VERTEX_POINT ( 'NONE', #831 ) ;
#563 = LINE ( 'NONE', #178, #138 ) ;
#564 = ORIENTED_EDGE ( 'NONE', *, *, #46, .T. ) ;
#565 = EDGE_CURVE ( 'NONE', #454, #963, #581, .T. ) ;
#566 = EDGE_CURVE ( 'NONE', #393, #468, #757, .T. ) ;
#567 = ORIENTED_EDGE ( 'NONE', *, *, #902, .F. ) ;
#568 = AXIS2_PLACEMENT_3D ( 'NONE', #337, #574, #642 ) ;
#569 = CYLINDRICAL_SURFACE ( 'NONE', #409, 4.999999999999997335 ) ;
#570 = VERTEX_POINT ( 'NONE', #413 ) ;
#571 = CARTESIAN_POINT ( 'NONE',  ( 38.43553390593273633, -14.46446609406725692, 0.000000000000000000 ) ) ;
#572 = DIRECTION ( 'NONE',  ( -1.000000000000000000, 1.056826013124967889E-16, -0.000000000000000000 ) ) ;
#573 = ORIENTED_EDGE ( 'NONE', *, *, #746, .F. ) ;
#574 = DIRECTION ( 'NONE',  ( 0.000000000000000000, 0.000000000000000000, 1.000000000000000000 ) ) ;
#575 = ORIENTED_EDGE ( 'NONE', *, *, #297, .F. ) ;
#576 = ADVANCED_FACE ( 'NONE', ( #31, #763, #164, #82, #390, #56 ), #956, .T. ) ;
#577 = ORIENTED_EDGE ( 'NONE', *, *, #147, .F. ) ;
#578 = DIRECTION ( 'NONE',  ( -1.000000000000000000, 0.000000000000000000, 0.000000000000000000 ) ) ;
#579 = CARTESIAN_POINT ( 'NONE',  ( 34.74999999999997158, -13.50000000000005329, 3.000000000000000000 ) ) ;
#580 = CARTESIAN_POINT ( 'NONE',  ( 32.82893218813453728, 18.00000000000000000, 3.000000000000000000 ) ) ;
#581 = CIRCLE ( 'NONE', #688, 4.999999999999997335 ) ;
#582 = CIRCLE ( 'NONE', #208, 4.999999999999997335 ) ;
#583 = DIRECTION ( 'NONE',  ( -0.000000000000000000, -0.000000000000000000, -1.000000000000000000 ) ) ;
#584 = DIRECTION ( 'NONE',  ( 0.000000000000000000, 0.000000000000000000, 1.000000000000000000 ) ) ;
#585 = FACE_OUTER_BOUND ( 'NONE', #790, .T. ) ;
#586 = EDGE_CURVE ( 'NONE', #872, #810, #362, .T. ) ;
#587 = DIRECTION ( 'NONE',  ( -0.000000000000000000, -0.000000000000000000, -1.000000000000000000 ) ) ;
#588 = FACE_OUTER_BOUND ( 'NONE', #423, .T. ) ;
#589 = LINE ( 'NONE', #820, #624 ) ;
#590 = CYLINDRICAL_SURFACE ( 'NONE', #620, 4.999999999999997335 ) ;
#591 = VECTOR ( 'NONE', #791, 1000.000000000000000 ) ;
#592 = AXIS2_PLACEMENT_3D ( 'NONE', #437, #345, #866 ) ;
#593 = CARTESIAN_POINT ( 'NONE',  ( 0.000000000000000000, 0.000000000000000000, 3.000000000000000000 ) ) ;
#594 = AXIS2_PLACEMENT_3D ( 'NONE', #372, #294, #962 ) ;
#595 = ORIENTED_EDGE ( 'NONE', *, *, #746, .T. ) ;
#596 = CARTESIAN_POINT ( 'NONE',  ( 32.82893218813453018, 13.00000000000000000, 3.000000000000000000 ) ) ;
#597 = CARTESIAN_POINT ( 'NONE',  ( 8.099999999999996092, -18.00000000000000000, 0.000000000000000000 ) ) ;
#598 = EDGE_CURVE ( 'NONE', #414, #852, #880, .T. ) ;
#599 = ORIENTED_EDGE ( 'NONE', *, *, #496, .F. ) ;
#600 = ADVANCED_FACE ( 'NONE', ( #281 ), #934, .F. ) ;
#601 = EDGE_CURVE ( 'NONE', #917, #924, #877, .T. ) ;
#602 = LINE ( 'NONE', #888, #741 ) ;
#603 = CARTESIAN_POINT ( 'NONE',  ( -34.75000000000000000, -13.50000000000000178, 0.000000000000000000 ) ) ;
#604 = DIRECTION ( 'NONE',  ( 0.000000000000000000, 0.000000000000000000, 1.000000000000000000 ) ) ;
#605 = ORIENTED_EDGE ( 'NONE', *, *, #685, .T. ) ;
#606 = AXIS2_PLACEMENT_3D ( 'NONE', #252, #557, #172 ) ;
#607 = CARTESIAN_POINT ( 'NONE',  ( 32.82893218813453728, 18.00000000000000000, 0.000000000000000000 ) ) ;
#608 = AXIS2_PLACEMENT_3D ( 'NONE', #105, #776, #910 ) ;
#609 = LINE ( 'NONE', #897, #207 ) ;
#610 = DIRECTION ( 'NONE',  ( -0.000000000000000000, -0.000000000000000000, -1.000000000000000000 ) ) ;
#611 = CIRCLE ( 'NONE', #966, 4.999999999999997335 ) ;
#612 = ORIENTED_EDGE ( 'NONE', *, *, #807, .T. ) ;
#613 = EDGE_CURVE ( 'NONE', #35, #786, #168, .T. ) ;
#614 = DIRECTION ( 'NONE',  ( 0.000000000000000000, 0.000000000000000000, 1.000000000000000000 ) ) ;
#615 = CARTESIAN_POINT ( 'NONE',  ( -32.82893218813451597, 13.00000000000000711, 0.000000000000000000 ) ) ;
#616 = ORIENTED_EDGE ( 'NONE', *, *, #180, .F. ) ;
#617 = DIRECTION ( 'NONE',  ( 0.7071067811865475727, 0.7071067811865475727, -0.000000000000000000 ) ) ;
#618 = ORIENTED_EDGE ( 'NONE', *, *, #319, .F. ) ;
#619 = FACE_OUTER_BOUND ( 'NONE', #116, .T. ) ;
#620 = AXIS2_PLACEMENT_3D ( 'NONE', #220, #49, #651 ) ;
#621 = LINE ( 'NONE', #183, #841 ) ;
#622 = AXIS2_PLACEMENT_3D ( 'NONE', #955, #304, #968 ) ;
#623 = VERTEX_POINT ( 'NONE', #659 ) ;
#624 = VECTOR ( 'NONE', #364, 1000.000000000000000 ) ;
#625 = CARTESIAN_POINT ( 'NONE',  ( 34.89999999999999858, -10.92893218813452272, 3.000000000000000000 ) ) ;
#626 = VERTEX_POINT ( 'NONE', #502 ) ;
#627 = CARTESIAN_POINT ( 'NONE',  ( -32.82893218813451597, 18.00000000000000711, 3.000000000000000000 ) ) ;
#628 = CARTESIAN_POINT ( 'NONE',  ( -39.89999999999999147, 10.92893218813452627, 3.000000000000000000 ) ) ;
#629 = ORIENTED_EDGE ( 'NONE', *, *, #75, .F. ) ;
#630 = EDGE_CURVE ( 'NONE', #52, #710, #60, .T. ) ;
#631 = LINE ( 'NONE', #779, #686 ) ;
#632 = EDGE_LOOP ( 'NONE', ( #811, #90 ) ) ;
#633 = LINE ( 'NONE', #159, #315 ) ;
#634 = CARTESIAN_POINT ( 'NONE',  ( 30.75786437626905112, -8.000000000000001776, 3.000000000000000000 ) ) ;
#635 = ORIENTED_EDGE ( 'NONE', *, *, #911, .F. ) ;
#636 = FACE_OUTER_BOUND ( 'NONE', #838, .T. ) ;
#637 = ORIENTED_EDGE ( 'NONE', *, *, #832, .F. ) ;
#638 = VERTEX_POINT ( 'NONE', #205 ) ;
#639 = DIRECTION ( 'NONE',  ( 3.174552547521865467E-16, 1.000000000000000000, -0.000000000000000000 ) ) ;
#640 = ORIENTED_EDGE ( 'NONE', *, *, #925, .F. ) ;
#641 = AXIS2_PLACEMENT_3D ( 'NONE', #287, #584, #881 ) ;
#642 = DIRECTION ( 'NONE',  ( -1.000000000000000000, 0.000000000000000000, 0.000000000000000000 ) ) ;
#643 = MECHANICAL_DESIGN_GEOMETRIC_PRESENTATION_REPRESENTATION (  '', ( #750 ), #24 ) ;
#644 = ORIENTED_EDGE ( 'NONE', *, *, #400, .T. ) ;
#645 =( LENGTH_UNIT ( ) NAMED_UNIT ( * ) SI_UNIT ( .MILLI., .METRE. ) );
#646 = VECTOR ( 'NONE', #712, 1000.000000000000000 ) ;
#647 = EDGE_CURVE ( 'NONE', #201, #253, #734, .T. ) ;
#648 = ORIENTED_EDGE ( 'NONE', *, *, #61, .F. ) ;
#649 = CARTESIAN_POINT ( 'NONE',  ( -10.00000000000000000, 0.000000000000000000, 0.000000000000000000 ) ) ;
#650 = ORIENTED_EDGE ( 'NONE', *, *, #214, .F. ) ;
#651 = DIRECTION ( 'NONE',  ( -1.000000000000000000, 0.000000000000000000, 0.000000000000000000 ) ) ;
#652 = DIRECTION ( 'NONE',  ( -0.000000000000000000, -0.000000000000000000, -1.000000000000000000 ) ) ;
#653 = FACE_OUTER_BOUND ( 'NONE', #202, .T. ) ;
#654 = DIRECTION ( 'NONE',  ( 0.7071067811865470176, 0.7071067811865480168, -0.000000000000000000 ) ) ;
#655 = PLANE ( 'NONE',  #286 ) ;
#656 = AXIS2_PLACEMENT_3D ( 'NONE', #376, #604, #160 ) ;
#657 = AXIS2_PLACEMENT_3D ( 'NONE', #211, #430, #494 ) ;
#658 = CIRCLE ( 'NONE', #706, 4.999999999999997335 ) ;
#659 = CARTESIAN_POINT ( 'NONE',  ( 31.24999999999998224, -13.50000000000005329, 0.000000000000000000 ) ) ;
#660 = CARTESIAN_POINT ( 'NONE',  ( 38.43553390593273633, -14.46446609406725692, 3.000000000000000000 ) ) ;
#661 = DIRECTION ( 'NONE',  ( -0.000000000000000000, -0.000000000000000000, -1.000000000000000000 ) ) ;
#662 = ADVANCED_FACE ( 'NONE', ( #730 ), #117, .T. ) ;
#663 = ORIENTED_EDGE ( 'NONE', *, *, #586, .F. ) ;
#664 = EDGE_CURVE ( 'NONE', #626, #454, #357, .T. ) ;
#665 = CARTESIAN_POINT ( 'NONE',  ( -34.75000000000000000, -13.50000000000000178, 3.000000000000000000 ) ) ;
#666 = DIRECTION ( 'NONE',  ( -3.174552547521865467E-16, -1.000000000000000000, 0.000000000000000000 ) ) ;
#667 = ORIENTED_EDGE ( 'NONE', *, *, #496, .T. ) ;
#668 = CARTESIAN_POINT ( 'NONE',  ( -34.89999999999999147, -10.92893218813451384, 0.000000000000000000 ) ) ;
#669 = ORIENTED_EDGE ( 'NONE', *, *, #760, .F. ) ;
#670 = VECTOR ( 'NONE', #674, 1000.000000000000000 ) ;
#671 = CIRCLE ( 'NONE', #538, 1.750000000000005107 ) ;
#672 = ADVANCED_FACE ( 'NONE', ( #653 ), #952, .F. ) ;
#673 = CARTESIAN_POINT ( 'NONE',  ( 39.90000000000000568, 10.92893218813450673, 3.000000000000000000 ) ) ;
#674 = DIRECTION ( 'NONE',  ( -0.000000000000000000, -0.000000000000000000, -1.000000000000000000 ) ) ;
#675 = EDGE_CURVE ( 'NONE', #733, #471, #671, .T. ) ;
#676 = VERTEX_POINT ( 'NONE', #417 ) ;
#677 = DIRECTION ( 'NONE',  ( -0.000000000000000000, -0.000000000000000000, -1.000000000000000000 ) ) ;
#678 = LINE ( 'NONE', #729, #363 ) ;
#679 = CARTESIAN_POINT ( 'NONE',  ( -30.75786437626904046, -17.99999999999999645, 3.000000000000000000 ) ) ;
#680 = ORIENTED_EDGE ( 'NONE', *, *, #535, .T. ) ;
#681 = DIRECTION ( 'NONE',  ( -1.000000000000000000, 0.000000000000000000, 0.000000000000000000 ) ) ;
#682 = CARTESIAN_POINT ( 'NONE',  ( 39.90000000000000568, 10.92893218813450851, 3.000000000000000000 ) ) ;
#683 = CARTESIAN_POINT ( 'NONE',  ( -38.43553390593272923, 14.46446609406726225, 3.000000000000000000 ) ) ;
#684 = ORIENTED_EDGE ( 'NONE', *, *, #844, .F. ) ;
#685 = EDGE_CURVE ( 'NONE', #924, #193, #302, .T. ) ;
#686 = VECTOR ( 'NONE', #34, 1000.000000000000000 ) ;
#687 = CARTESIAN_POINT ( 'NONE',  ( -33.00000000000000000, -13.50000000000000178, 0.000000000000000000 ) ) ;
#688 = AXIS2_PLACEMENT_3D ( 'NONE', #479, #693, #548 ) ;
#689 = CARTESIAN_POINT ( 'NONE',  ( -30.75786437626904046, -7.999999999999992895, 3.000000000000000000 ) ) ;
#690 = AXIS2_PLACEMENT_3D ( 'NONE', #668, #221, #380 ) ;
#691 = ORIENTED_EDGE ( 'NONE', *, *, #702, .T. ) ;
#692 = ADVANCED_FACE ( 'NONE', ( #197 ), #942, .F. ) ;
#693 = DIRECTION ( 'NONE',  ( 0.000000000000000000, 0.000000000000000000, 1.000000000000000000 ) ) ;
#694 = DIRECTION ( 'NONE',  ( 0.000000000000000000, 0.000000000000000000, 1.000000000000000000 ) ) ;
#695 = EDGE_LOOP ( 'NONE', ( #95, #274, #399, #426 ) ) ;
#696 = SURFACE_SIDE_STYLE ('',( #403 ) ) ;
#697 = DIRECTION ( 'NONE',  ( 0.000000000000000000, 0.000000000000000000, 1.000000000000000000 ) ) ;
#698 = ORIENTED_EDGE ( 'NONE', *, *, #886, .T. ) ;
#699 = CARTESIAN_POINT ( 'NONE',  ( 0.000000000000000000, 0.000000000000000000, 0.000000000000000000 ) ) ;
#700 = ORIENTED_EDGE ( 'NONE', *, *, #388, .T. ) ;
#701 = CARTESIAN_POINT ( 'NONE',  ( 39.89999999999999858, -10.92893218813452272, 3.000000000000000000 ) ) ;
#702 = EDGE_CURVE ( 'NONE', #861, #778, #708, .T. ) ;
#703 = CIRCLE ( 'NONE', #427, 4.999999999999997335 ) ;
#704 = EDGE_CURVE ( 'NONE', #5, #676, #766, .T. ) ;
#705 = DIRECTION ( 'NONE',  ( -0.000000000000000000, -0.000000000000000000, -1.000000000000000000 ) ) ;
#706 = AXIS2_PLACEMENT_3D ( 'NONE', #520, #531, #389 ) ;
#707 = ORIENTED_EDGE ( 'NONE', *, *, #857, .F. ) ;
#708 = CIRCLE ( 'NONE', #803, 9.999999999999998224 ) ;
#709 = CYLINDRICAL_SURFACE ( 'NONE', #152, 4.999999999999997335 ) ;
#710 = VERTEX_POINT ( 'NONE', #404 ) ;
#711 = DIRECTION ( 'NONE',  ( -0.000000000000000000, -1.000000000000000000, -0.000000000000000000 ) ) ;
#712 = DIRECTION ( 'NONE',  ( -0.000000000000000000, -0.000000000000000000, -1.000000000000000000 ) ) ;
#713 = ORIENTED_EDGE ( 'NONE', *, *, #476, .F. ) ;
#714 = DIRECTION ( 'NONE',  ( 0.000000000000000000, 0.000000000000000000, 1.000000000000000000 ) ) ;
#715 = EDGE_LOOP ( 'NONE', ( #342, #247, #870, #361 ) ) ;
#716 = DIRECTION ( 'NONE',  ( 1.000000000000000000, 0.000000000000000000, 0.000000000000000000 ) ) ;
#717 = ORIENTED_EDGE ( 'NONE', *, *, #829, .T. ) ;
#718 = CARTESIAN_POINT ( 'NONE',  ( -34.89999999999999147, -17.99999999999999289, 3.000000000000000000 ) ) ;
#719 = ORIENTED_EDGE ( 'NONE', *, *, #439, .T. ) ;
#720 = APPLICATION_PROTOCOL_DEFINITION ( 'draft international standard', 'automotive_design', 1998, #422 ) ;
#721 = ORIENTED_EDGE ( 'NONE', *, *, #65, .F. ) ;
#722 = CIRCLE ( 'NONE', #537, 10.00000000000000178 ) ;
#723 = DIRECTION ( 'NONE',  ( 1.000000000000000000, 0.000000000000000000, 0.000000000000000000 ) ) ;
#724 = AXIS2_PLACEMENT_3D ( 'NONE', #798, #196, #122 ) ;
#725 = VERTEX_POINT ( 'NONE', #628 ) ;
#726 = CIRCLE ( 'NONE', #816, 1.750000000000005107 ) ;
#727 = CARTESIAN_POINT ( 'NONE',  ( 8.099999999999996092, -18.00000000000000000, 3.000000000000000000 ) ) ;
#728 = CARTESIAN_POINT ( 'NONE',  ( 39.90000000000000568, 10.92893218813450851, 3.000000000000000000 ) ) ;
#729 = CARTESIAN_POINT ( 'NONE',  ( 37.82893218813453018, -15.07106781186546840, 3.000000000000000000 ) ) ;
#730 = FACE_OUTER_BOUND ( 'NONE', #773, .T. ) ;
#731 = DIRECTION ( 'NONE',  ( -0.000000000000000000, -0.000000000000000000, -1.000000000000000000 ) ) ;
#732 = FACE_OUTER_BOUND ( 'NONE', #695, .T. ) ;
#733 = VERTEX_POINT ( 'NONE', #321 ) ;
#734 = LINE ( 'NONE', #47, #301 ) ;
#735 = DIRECTION ( 'NONE',  ( 0.000000000000000000, 0.000000000000000000, 1.000000000000000000 ) ) ;
#736 = EDGE_CURVE ( 'NONE', #253, #414, #611, .T. ) ;
#737 = EDGE_LOOP ( 'NONE', ( #405, #713, #669, #174 ) ) ;
#738 = EDGE_CURVE ( 'NONE', #551, #623, #104, .T. ) ;
#739 = COLOUR_RGB ( '',0.7921568627450980005, 0.8196078431372548767, 0.9333333333333333481 ) ;
#740 = ORIENTED_EDGE ( 'NONE', *, *, #736, .F. ) ;
#741 = VECTOR ( 'NONE', #896, 1000.000000000000000 ) ;
#742 = FACE_OUTER_BOUND ( 'NONE', #306, .T. ) ;
#743 = CARTESIAN_POINT ( 'NONE',  ( 31.07893218813454794, 13.00000000000000000, 3.000000000000000000 ) ) ;
#744 = FACE_BOUND ( 'NONE', #166, .T. ) ;
#745 = ORIENTED_EDGE ( 'NONE', *, *, #857, .T. ) ;
#746 = EDGE_CURVE ( 'NONE', #725, #39, #621, .T. ) ;
#747 = FACE_OUTER_BOUND ( 'NONE', #177, .T. ) ;
#748 = DIRECTION ( 'NONE',  ( 1.000000000000000000, 0.000000000000000000, 0.000000000000000000 ) ) ;
#749 = VECTOR ( 'NONE', #550, 1000.000000000000114 ) ;
#750 = STYLED_ITEM ( 'NONE', ( #396 ), #527 ) ;
#751 = CARTESIAN_POINT ( 'NONE',  ( -32.82893218813451597, 18.00000000000000711, 3.000000000000000000 ) ) ;
#752 = CARTESIAN_POINT ( 'NONE',  ( -34.89999999999999147, -10.92893218813451384, 3.000000000000000000 ) ) ;
#753 = ORIENTED_EDGE ( 'NONE', *, *, #254, .F. ) ;
#754 = CARTESIAN_POINT ( 'NONE',  ( -39.89999999999999147, 10.92893218813452627, 0.000000000000000000 ) ) ;
#755 = EDGE_LOOP ( 'NONE', ( #51, #618, #418, #680 ) ) ;
#756 = CARTESIAN_POINT ( 'NONE',  ( -34.89999999999999147, 10.92893218813452805, 0.000000000000000000 ) ) ;
#757 = LINE ( 'NONE', #483, #815 ) ;
#758 = EDGE_CURVE ( 'NONE', #793, #917, #854, .T. ) ;
#759 = VERTEX_POINT ( 'NONE', #777 ) ;
#760 = EDGE_CURVE ( 'NONE', #511, #863, #891, .T. ) ;
#761 = VECTOR ( 'NONE', #44, 1000.000000000000000 ) ;
#762 = CIRCLE ( 'NONE', #462, 10.00000000000000000 ) ;
#763 = FACE_BOUND ( 'NONE', #969, .T. ) ;
#764 = FACE_OUTER_BOUND ( 'NONE', #737, .T. ) ;
#765 = AXIS2_PLACEMENT_3D ( 'NONE', #229, #68, #303 ) ;
#766 = LINE ( 'NONE', #921, #11 ) ;
#767 = VERTEX_POINT ( 'NONE', #108 ) ;
#768 = UNCERTAINTY_MEASURE_WITH_UNIT (LENGTH_MEASURE( 1.000000000000000082E-05 ), #17, 'distance_accuracy_value', 'NONE');
#769 = CARTESIAN_POINT ( 'NONE',  ( 34.90000000000000568, 10.92893218813451561, 3.000000000000000000 ) ) ;
#770 = DIRECTION ( 'NONE',  ( 0.7071067811865474617, -0.7071067811865474617, -0.000000000000000000 ) ) ;
#771 = CARTESIAN_POINT ( 'NONE',  ( -38.43553390593272923, 14.46446609406726225, 0.000000000000000000 ) ) ;
#772 = ORIENTED_EDGE ( 'NONE', *, *, #33, .T. ) ;
#773 = EDGE_LOOP ( 'NONE', ( #340, #828, #517, #482 ) ) ;
#774 = ADVANCED_FACE ( 'NONE', ( #588 ), #259, .T. ) ;
#775 = ADVANCED_FACE ( 'NONE', ( #747 ), #809, .F. ) ;
#776 = DIRECTION ( 'NONE',  ( 0.000000000000000000, 0.000000000000000000, 1.000000000000000000 ) ) ;
#777 = CARTESIAN_POINT ( 'NONE',  ( -30.75786437626904046, -17.99999999999999645, 0.000000000000000000 ) ) ;
#778 = VERTEX_POINT ( 'NONE', #1 ) ;
#779 = CARTESIAN_POINT ( 'NONE',  ( -32.82893218813451597, 18.00000000000000711, 0.000000000000000000 ) ) ;
#780 = ORIENTED_EDGE ( 'NONE', *, *, #879, .F. ) ;
#781 = CARTESIAN_POINT ( 'NONE',  ( 34.74999999999997158, -13.50000000000005329, 0.000000000000000000 ) ) ;
#782 = CIRCLE ( 'NONE', #332, 1.749999999999980682 ) ;
#783 = AXIS2_PLACEMENT_3D ( 'NONE', #88, #339, #245 ) ;
#784 = DIRECTION ( 'NONE',  ( 1.000000000000000000, 0.000000000000000000, 0.000000000000000000 ) ) ;
#785 = PRODUCT_DEFINITION_FORMATION_WITH_SPECIFIED_SOURCE ( 'ANY', '', #797, .NOT_KNOWN. ) ;
#786 = VERTEX_POINT ( 'NONE', #307 ) ;
#787 = DIRECTION ( 'NONE',  ( -1.000000000000000000, 0.000000000000000000, 0.000000000000000000 ) ) ;
#788 = ORIENTED_EDGE ( 'NONE', *, *, #438, .F. ) ;
#789 = DIRECTION ( 'NONE',  ( -0.7071067811865479058, 0.7071067811865472397, -0.000000000000000000 ) ) ;
#790 = EDGE_LOOP ( 'NONE', ( #261, #395, #573, #135 ) ) ;
#791 = DIRECTION ( 'NONE',  ( -0.000000000000000000, -0.000000000000000000, -1.000000000000000000 ) ) ;
#792 = ORIENTED_EDGE ( 'NONE', *, *, #254, .T. ) ;
#793 = VERTEX_POINT ( 'NONE', #660 ) ;
#794 = CARTESIAN_POINT ( 'NONE',  ( 36.36446609406726793, 16.53553390593273775, 0.000000000000000000 ) ) ;
#795 = ORIENTED_EDGE ( 'NONE', *, *, #62, .T. ) ;
#796 = ORIENTED_EDGE ( 'NONE', *, *, #181, .F. ) ;
#797 = PRODUCT ( 'camera_cover', 'camera_cover', '', ( #401 ) ) ;
#798 = CARTESIAN_POINT ( 'NONE',  ( 32.82893218813453018, 13.00000000000000000, 3.000000000000000000 ) ) ;
#799 = CARTESIAN_POINT ( 'NONE',  ( -37.82893218813451597, -15.07106781186547018, 3.000000000000000000 ) ) ;
#800 = AXIS2_PLACEMENT_3D ( 'NONE', #813, #661, #525 ) ;
#801 = DIRECTION ( 'NONE',  ( 1.000000000000000000, 0.000000000000000000, 0.000000000000000000 ) ) ;
#802 = AXIS2_PLACEMENT_3D ( 'NONE', #285, #583, #516 ) ;
#803 = AXIS2_PLACEMENT_3D ( 'NONE', #634, #19, #27 ) ;
#804 = CARTESIAN_POINT ( 'NONE',  ( -34.89999999999999147, 10.92893218813452805, 3.000000000000000000 ) ) ;
#805 = CARTESIAN_POINT ( 'NONE',  ( -38.43553390593272923, 14.46446609406726225, 0.000000000000000000 ) ) ;
#806 = CARTESIAN_POINT ( 'NONE',  ( 31.24999999999998224, -13.50000000000005329, 3.000000000000000000 ) ) ;
#807 = EDGE_CURVE ( 'NONE', #786, #895, #459, .T. ) ;
#808 = CARTESIAN_POINT ( 'NONE',  ( -33.00000000000000000, -13.50000000000000178, 0.000000000000000000 ) ) ;
#809 = CYLINDRICAL_SURFACE ( 'NONE', #141, 1.750000000000001554 ) ;
#810 = VERTEX_POINT ( 'NONE', #449 ) ;
#811 = ORIENTED_EDGE ( 'NONE', *, *, #630, .F. ) ;
#812 = DIRECTION ( 'NONE',  ( 0.000000000000000000, 0.000000000000000000, 1.000000000000000000 ) ) ;
#813 = CARTESIAN_POINT ( 'NONE',  ( -33.00000000000000000, -13.50000000000000178, 3.000000000000000000 ) ) ;
#814 = VECTOR ( 'NONE', #231, 1000.000000000000000 ) ;
#815 = VECTOR ( 'NONE', #711, 1000.000000000000000 ) ;
#816 = AXIS2_PLACEMENT_3D ( 'NONE', #687, #465, #716 ) ;
#817 = CARTESIAN_POINT ( 'NONE',  ( 34.57893218813450886, 13.00000000000000000, 3.000000000000000000 ) ) ;
#818 = EDGE_LOOP ( 'NONE', ( #143, #293, #753, #497 ) ) ;
#819 = EDGE_CURVE ( 'NONE', #676, #162, #554, .T. ) ;
#820 = CARTESIAN_POINT ( 'NONE',  ( -38.43553390593272923, 14.46446609406726225, 3.000000000000000000 ) ) ;
#821 = DIRECTION ( 'NONE',  ( 0.000000000000000000, 0.000000000000000000, 1.000000000000000000 ) ) ;
#822 = DIRECTION ( 'NONE',  ( 0.000000000000000000, 0.000000000000000000, 1.000000000000000000 ) ) ;
#823 = DIRECTION ( 'NONE',  ( 1.000000000000000000, -1.294569758191646909E-16, 0.000000000000000000 ) ) ;
#824 = ORIENTED_EDGE ( 'NONE', *, *, #350, .F. ) ;
#825 = AXIS2_PLACEMENT_3D ( 'NONE', #397, #694, #313 ) ;
#826 = AXIS2_PLACEMENT_3D ( 'NONE', #499, #470, #681 ) ;
#827 = DIRECTION ( 'NONE',  ( 0.000000000000000000, 0.000000000000000000, 1.000000000000000000 ) ) ;
#828 = ORIENTED_EDGE ( 'NONE', *, *, #106, .F. ) ;
#829 = EDGE_CURVE ( 'NONE', #109, #503, #125, .T. ) ;
#830 =( NAMED_UNIT ( * ) SI_UNIT ( $, .STERADIAN. ) SOLID_ANGLE_UNIT ( ) );
#831 = CARTESIAN_POINT ( 'NONE',  ( 34.74999999999997158, -13.50000000000005329, 3.000000000000000000 ) ) ;
#832 = EDGE_CURVE ( 'NONE', #638, #30, #589, .T. ) ;
#833 = DIRECTION ( 'NONE',  ( 0.000000000000000000, 0.000000000000000000, 1.000000000000000000 ) ) ;
#834 = ORIENTED_EDGE ( 'NONE', *, *, #350, .T. ) ;
#835 =( NAMED_UNIT ( * ) PLANE_ANGLE_UNIT ( ) SI_UNIT ( $, .RADIAN. ) );
#836 =( NAMED_UNIT ( * ) SI_UNIT ( $, .STERADIAN. ) SOLID_ANGLE_UNIT ( ) );
#837 = DIRECTION ( 'NONE',  ( 1.000000000000000000, 0.000000000000000000, 0.000000000000000000 ) ) ;
#838 = EDGE_LOOP ( 'NONE', ( #927, #322, #575, #919 ) ) ;
#839 = VECTOR ( 'NONE', #347, 1000.000000000000000 ) ;
#840 = AXIS2_PLACEMENT_3D ( 'NONE', #131, #156, #894 ) ;
#841 = VECTOR ( 'NONE', #176, 1000.000000000000000 ) ;
#842 = LINE ( 'NONE', #771, #749 ) ;
#843 = VERTEX_POINT ( 'NONE', #673 ) ;
#844 = EDGE_CURVE ( 'NONE', #348, #767, #317, .T. ) ;
#845 = EDGE_LOOP ( 'NONE', ( #605, #113, #945, #938 ) ) ;
#846 = ADVANCED_FACE ( 'NONE', ( #957, #967, #291, #744, #298, #66 ), #76, .F. ) ;
#847 = APPLICATION_CONTEXT ( 'automotive_design' ) ;
#848 = LINE ( 'NONE', #260, #901 ) ;
#849 = CARTESIAN_POINT ( 'NONE',  ( 32.82893218813453018, 13.00000000000000000, 3.000000000000000000 ) ) ;
#850 = ORIENTED_EDGE ( 'NONE', *, *, #879, .T. ) ;
#851 = CARTESIAN_POINT ( 'NONE',  ( 38.43553390593274344, 14.46446609406725869, 3.000000000000000000 ) ) ;
#852 = VERTEX_POINT ( 'NONE', #751 ) ;
#853 = DIRECTION ( 'NONE',  ( -0.000000000000000000, -0.000000000000000000, -1.000000000000000000 ) ) ;
#854 = LINE ( 'NONE', #484, #646 ) ;
#855 = ORIENTED_EDGE ( 'NONE', *, *, #388, .F. ) ;
#856 = ORIENTED_EDGE ( 'NONE', *, *, #675, .F. ) ;
#857 = EDGE_CURVE ( 'NONE', #710, #38, #602, .T. ) ;
#858 = CARTESIAN_POINT ( 'NONE',  ( -34.89999999999999147, -17.99999999999999289, 3.000000000000000000 ) ) ;
#859 = AXIS2_PLACEMENT_3D ( 'NONE', #381, #827, #385 ) ;
#860 = VECTOR ( 'NONE', #469, 1000.000000000000000 ) ;
#861 = VERTEX_POINT ( 'NONE', #455 ) ;
#862 = CARTESIAN_POINT ( 'NONE',  ( -31.24999999999999645, -13.50000000000000178, 3.000000000000000000 ) ) ;
#863 = VERTEX_POINT ( 'NONE', #218 ) ;
#864 = CARTESIAN_POINT ( 'NONE',  ( -34.89999999999999147, -17.99999999999999289, 3.000000000000000000 ) ) ;
#865 = ORIENTED_EDGE ( 'NONE', *, *, #704, .F. ) ;
#866 = DIRECTION ( 'NONE',  ( 1.000000000000000000, 0.000000000000000000, 0.000000000000000000 ) ) ;
#867 = EDGE_CURVE ( 'NONE', #710, #52, #272, .T. ) ;
#868 = ORIENTED_EDGE ( 'NONE', *, *, #140, .F. ) ;
#869 = DIRECTION ( 'NONE',  ( 1.000000000000000000, 0.000000000000000000, 0.000000000000000000 ) ) ;
#870 = ORIENTED_EDGE ( 'NONE', *, *, #704, .T. ) ;
#871 = DIRECTION ( 'NONE',  ( 1.000000000000000000, 0.000000000000000000, -0.000000000000000000 ) ) ;
#872 = VERTEX_POINT ( 'NONE', #149 ) ;
#873 = CYLINDRICAL_SURFACE ( 'NONE', #23, 1.749999999999991118 ) ;
#874 = CIRCLE ( 'NONE', #219, 4.999999999999997335 ) ;
#875 = ORIENTED_EDGE ( 'NONE', *, *, #386, .F. ) ;
#876 = DIRECTION ( 'NONE',  ( -0.7071067811865480168, 0.7071067811865470176, 0.000000000000000000 ) ) ;
#877 = CIRCLE ( 'NONE', #592, 4.999999999999997335 ) ;
#878 = ADVANCED_FACE ( 'NONE', ( #742 ), #63, .F. ) ;
#879 = EDGE_CURVE ( 'NONE', #786, #35, #87, .T. ) ;
#880 = LINE ( 'NONE', #129, #552 ) ;
#881 = DIRECTION ( 'NONE',  ( -1.000000000000000000, 0.000000000000000000, 0.000000000000000000 ) ) ;
#882 = CARTESIAN_POINT ( 'NONE',  ( 0.000000000000000000, 0.000000000000000000, 0.000000000000000000 ) ) ;
#883 = EDGE_LOOP ( 'NONE', ( #433, #721 ) ) ;
#884 = DIRECTION ( 'NONE',  ( -1.000000000000000000, 0.000000000000000000, 0.000000000000000000 ) ) ;
#885 = ORIENTED_EDGE ( 'NONE', *, *, #148, .T. ) ;
#886 = EDGE_CURVE ( 'NONE', #348, #471, #893, .T. ) ;
#887 = ADVANCED_FACE ( 'NONE', ( #892 ), #528, .F. ) ;
#888 = CARTESIAN_POINT ( 'NONE',  ( 10.00000000000000000, 1.224646799147353256E-15, 3.000000000000000000 ) ) ;
#889 = CARTESIAN_POINT ( 'NONE',  ( -30.75786437626904046, -7.999999999999992895, 0.000000000000000000 ) ) ;
#890 = AXIS2_PLACEMENT_3D ( 'NONE', #273, #443, #578 ) ;
#891 = CIRCLE ( 'NONE', #512, 9.999999999999998224 ) ;
#892 = FACE_OUTER_BOUND ( 'NONE', #228, .T. ) ;
#893 = LINE ( 'NONE', #665, #74 ) ;
#894 = DIRECTION ( 'NONE',  ( 1.000000000000000000, 0.000000000000000000, 0.000000000000000000 ) ) ;
#895 = VERTEX_POINT ( 'NONE', #225 ) ;
#896 = DIRECTION ( 'NONE',  ( -0.000000000000000000, -0.000000000000000000, -1.000000000000000000 ) ) ;
#897 = CARTESIAN_POINT ( 'NONE',  ( -31.07893218813451242, 13.00000000000000711, 3.000000000000000000 ) ) ;
#898 = ORIENTED_EDGE ( 'NONE', *, *, #664, .T. ) ;
#899 = EDGE_CURVE ( 'NONE', #193, #626, #658, .T. ) ;
#900 = CLOSED_SHELL ( 'NONE', ( #878, #369, #16, #775, #600, #576, #846, #464, #931, #692, #435, #289, #4, #421, #107, #48, #510, #258, #508, #662, #328, #198, #6, #256, #672, #887, #137, #774 ) ) ;
#901 = VECTOR ( 'NONE', #853, 1000.000000000000000 ) ;
#902 = EDGE_CURVE ( 'NONE', #471, #733, #726, .T. ) ;
#903 = LINE ( 'NONE', #478, #250 ) ;
#904 = DIRECTION ( 'NONE',  ( -0.000000000000000000, -0.000000000000000000, -1.000000000000000000 ) ) ;
#905 = EDGE_LOOP ( 'NONE', ( #577, #338 ) ) ;
#906 = SHAPE_DEFINITION_REPRESENTATION ( #436, #161 ) ;
#907 = DIRECTION ( 'NONE',  ( 0.000000000000000000, 0.000000000000000000, 1.000000000000000000 ) ) ;
#908 = DIRECTION ( 'NONE',  ( 0.000000000000000000, 0.000000000000000000, 1.000000000000000000 ) ) ;
#909 = ORIENTED_EDGE ( 'NONE', *, *, #819, .T. ) ;
#910 = DIRECTION ( 'NONE',  ( 1.000000000000000000, 0.000000000000000000, 0.000000000000000000 ) ) ;
#911 = EDGE_CURVE ( 'NONE', #511, #917, #323, .T. ) ;
#912 = ORIENTED_EDGE ( 'NONE', *, *, #271, .T. ) ;
#913 = VECTOR ( 'NONE', #203, 1000.000000000000000 ) ;
#914 = VECTOR ( 'NONE', #770, 1000.000000000000114 ) ;
#915 = AXIS2_PLACEMENT_3D ( 'NONE', #57, #444, #523 ) ;
#916 = CARTESIAN_POINT ( 'NONE',  ( -31.07893218813451242, 13.00000000000000711, 3.000000000000000000 ) ) ;
#917 = VERTEX_POINT ( 'NONE', #571 ) ;
#918 = LINE ( 'NONE', #944, #964 ) ;
#919 = ORIENTED_EDGE ( 'NONE', *, *, #758, .T. ) ;
#920 = DIRECTION ( 'NONE',  ( -1.056826013124967889E-16, -1.000000000000000000, 0.000000000000000000 ) ) ;
#921 = CARTESIAN_POINT ( 'NONE',  ( -34.57893218813451597, 13.00000000000000711, 3.000000000000000000 ) ) ;
#922 = ORIENTED_EDGE ( 'NONE', *, *, #586, .T. ) ;
#923 = DIRECTION ( 'NONE',  ( -0.000000000000000000, -0.000000000000000000, -1.000000000000000000 ) ) ;
#924 = VERTEX_POINT ( 'NONE', #163 ) ;
#925 = EDGE_CURVE ( 'NONE', #30, #393, #582, .T. ) ;
#926 = CARTESIAN_POINT ( 'NONE',  ( -31.07893218813451242, 13.00000000000000711, 0.000000000000000000 ) ) ;
#927 = ORIENTED_EDGE ( 'NONE', *, *, #601, .T. ) ;
#928 = CARTESIAN_POINT ( 'NONE',  ( 31.24999999999998224, -13.50000000000005329, 3.000000000000000000 ) ) ;
#929 = ORIENTED_EDGE ( 'NONE', *, *, #327, .F. ) ;
#930 = DIRECTION ( 'NONE',  ( 0.000000000000000000, 0.000000000000000000, 1.000000000000000000 ) ) ;
#931 = ADVANCED_FACE ( 'NONE', ( #343 ), #543, .F. ) ;
#932 = ORIENTED_EDGE ( 'NONE', *, *, #685, .F. ) ;
#933 = EDGE_CURVE ( 'NONE', #501, #843, #194, .T. ) ;
#934 = CYLINDRICAL_SURFACE ( 'NONE', #890, 1.750000000000001554 ) ;
#935 = CIRCLE ( 'NONE', #641, 1.749999999999991118 ) ;
#936 = CIRCLE ( 'NONE', #124, 1.750000000000001554 ) ;
#937 = VECTOR ( 'NONE', #142, 1000.000000000000000 ) ;
#938 = ORIENTED_EDGE ( 'NONE', *, *, #223, .T. ) ;
#939 = DIRECTION ( 'NONE',  ( 0.000000000000000000, 0.000000000000000000, 1.000000000000000000 ) ) ;
#940 = ORIENTED_EDGE ( 'NONE', *, *, #84, .T. ) ;
#941 = DIRECTION ( 'NONE',  ( 1.000000000000000000, 0.000000000000000000, 0.000000000000000000 ) ) ;
#942 = PLANE ( 'NONE',  #429 ) ;
#943 = ORIENTED_EDGE ( 'NONE', *, *, #613, .F. ) ;
#944 = CARTESIAN_POINT ( 'NONE',  ( 32.82893218813453728, 18.00000000000000000, 3.000000000000000000 ) ) ;
#945 = ORIENTED_EDGE ( 'NONE', *, *, #933, .F. ) ;
#946 = ORIENTED_EDGE ( 'NONE', *, *, #36, .T. ) ;
#947 = EDGE_CURVE ( 'NONE', #201, #626, #903, .T. ) ;
#948 = CARTESIAN_POINT ( 'NONE',  ( -10.00000000000000000, 0.000000000000000000, 3.000000000000000000 ) ) ;
#949 = EDGE_CURVE ( 'NONE', #843, #201, #42, .T. ) ;
#950 = DIRECTION ( 'NONE',  ( -0.7071067811865470176, -0.7071067811865480168, 0.000000000000000000 ) ) ;
#951 = ORIENTED_EDGE ( 'NONE', *, *, #807, .F. ) ;
#952 = CYLINDRICAL_SURFACE ( 'NONE', #802, 1.749999999999980682 ) ;
#953 = AXIS2_PLACEMENT_3D ( 'NONE', #371, #731, #292 ) ;
#954 = EDGE_LOOP ( 'NONE', ( #635, #352, #788, #772, #81, #276, #481, #640, #616, #325, #217, #367, #546, #280, #932, #101 ) ) ;
#955 = CARTESIAN_POINT ( 'NONE',  ( 32.82893218813453018, 13.00000000000000000, 3.000000000000000000 ) ) ;
#956 = PLANE ( 'NONE',  #392 ) ;
#957 = FACE_OUTER_BOUND ( 'NONE', #954, .T. ) ;
#958 = FACE_OUTER_BOUND ( 'NONE', #22, .T. ) ;
#959 = PRODUCT_DEFINITION ( 'UNKNOWN', '', #785, #238 ) ;
#960 = CARTESIAN_POINT ( 'NONE',  ( -33.00000000000000000, -13.50000000000000178, 3.000000000000000000 ) ) ;
#961 = LINE ( 'NONE', #295, #248 ) ;
#962 = DIRECTION ( 'NONE',  ( 1.000000000000000000, 0.000000000000000000, 0.000000000000000000 ) ) ;
#963 = VERTEX_POINT ( 'NONE', #607 ) ;
#964 = VECTOR ( 'NONE', #275, 1000.000000000000000 ) ;
#965 = AXIS2_PLACEMENT_3D ( 'NONE', #441, #904, #226 ) ;
#966 = AXIS2_PLACEMENT_3D ( 'NONE', #849, #398, #246 ) ;
#967 = FACE_BOUND ( 'NONE', #43, .T. ) ;
#968 = DIRECTION ( 'NONE',  ( -1.000000000000000000, 0.000000000000000000, 0.000000000000000000 ) ) ;
#969 = EDGE_LOOP ( 'NONE', ( #684, #599 ) ) ;
ENDSEC;
END-ISO-10303-21;
