ISO-10303-21;
HEADER;
FILE_DESCRIPTION (( 'STEP AP214' ),
    '1' );
FILE_NAME ('camera_cover.STEP',
    '2026-05-19T08:49:09',
    ( '' ),
    ( '' ),
    'SwSTEP 2.0',
    'SolidWorks 2024',
    '' );
FILE_SCHEMA (( 'AUTOMOTIVE_DESIGN' ));
ENDSEC;

DATA;
#1 = CIRCLE ( 'NONE', #383, 4.999999999999997335 ) ;
#2 = LINE ( 'NONE', #658, #597 ) ;
#3 = EDGE_CURVE ( 'NONE', #854, #679, #642, .T. ) ;
#4 = LINE ( 'NONE', #578, #478 ) ;
#5 = AXIS2_PLACEMENT_3D ( 'NONE', #145, #681, #240 ) ;
#6 = ORIENTED_EDGE ( 'NONE', *, *, #810, .T. ) ;
#7 = DIRECTION ( 'NONE',  ( 0.000000000000000000, 0.000000000000000000, 1.000000000000000000 ) ) ;
#8 = DIRECTION ( 'NONE',  ( -0.000000000000000000, -0.000000000000000000, -1.000000000000000000 ) ) ;
#9 = DIRECTION ( 'NONE',  ( -1.000000000000000000, 0.000000000000000000, 0.000000000000000000 ) ) ;
#10 = ORIENTED_EDGE ( 'NONE', *, *, #104, .T. ) ;
#11 = CARTESIAN_POINT ( 'NONE',  ( 32.82893218813453018, 13.00000000000000000, 0.000000000000000000 ) ) ;
#12 = CARTESIAN_POINT ( 'NONE',  ( 38.43553390593273633, -14.46446609406725692, 0.000000000000000000 ) ) ;
#13 =( LENGTH_UNIT ( ) NAMED_UNIT ( * ) SI_UNIT ( .MILLI., .METRE. ) );
#14 = EDGE_LOOP ( 'NONE', ( #85, #389 ) ) ;
#15 = DIRECTION ( 'NONE',  ( 0.000000000000000000, 0.000000000000000000, -1.000000000000000000 ) ) ;
#16 = ADVANCED_FACE ( 'NONE', ( #859 ), #495, .F. ) ;
#17 = LINE ( 'NONE', #169, #638 ) ;
#18 = CARTESIAN_POINT ( 'NONE',  ( 32.82893218813453018, 13.00000000000000000, 3.000000000000000000 ) ) ;
#19 = EDGE_CURVE ( 'NONE', #844, #868, #140, .T. ) ;
#20 = ORIENTED_EDGE ( 'NONE', *, *, #840, .T. ) ;
#21 = VECTOR ( 'NONE', #271, 1000.000000000000000 ) ;
#22 = CLOSED_SHELL ( 'NONE', ( #293, #29, #219, #791, #73, #377, #592, #707, #16, #708, #451, #78, #186, #350, #326, #496, #203, #736, #598, #117, #485, #201, #822, #645, #632, #527, #721, #223 ) ) ;
#23 = CYLINDRICAL_SURFACE ( 'NONE', #939, 10.00000000000000178 ) ;
#24 = CARTESIAN_POINT ( 'NONE',  ( 34.89999999999999858, -10.92893218813452272, 0.000000000000000000 ) ) ;
#25 = ORIENTED_EDGE ( 'NONE', *, *, #298, .F. ) ;
#26 = LINE ( 'NONE', #92, #766 ) ;
#27 = DIRECTION ( 'NONE',  ( 1.000000000000000000, 0.000000000000000000, 0.000000000000000000 ) ) ;
#28 = EDGE_LOOP ( 'NONE', ( #53, #480, #247, #570 ) ) ;
#29 = ADVANCED_FACE ( 'NONE', ( #732 ), #50, .F. ) ;
#30 = CARTESIAN_POINT ( 'NONE',  ( -38.43553390593272923, 14.46446609406726225, 3.000000000000000000 ) ) ;
#31 = VERTEX_POINT ( 'NONE', #266 ) ;
#32 = VECTOR ( 'NONE', #883, 1000.000000000000000 ) ;
#33 = AXIS2_PLACEMENT_3D ( 'NONE', #535, #843, #175 ) ;
#34 = CIRCLE ( 'NONE', #656, 4.999999999999997335 ) ;
#35 = CARTESIAN_POINT ( 'NONE',  ( 39.89999999999999858, -10.92893218813452272, 0.000000000000000000 ) ) ;
#36 = ORIENTED_EDGE ( 'NONE', *, *, #879, .F. ) ;
#37 = ORIENTED_EDGE ( 'NONE', *, *, #969, .F. ) ;
#38 = DIRECTION ( 'NONE',  ( 0.000000000000000000, 0.000000000000000000, 1.000000000000000000 ) ) ;
#39 = ORIENTED_EDGE ( 'NONE', *, *, #362, .T. ) ;
#40 = EDGE_CURVE ( 'NONE', #930, #594, #946, .T. ) ;
#41 = FACE_OUTER_BOUND ( 'NONE', #515, .T. ) ;
#42 = DIRECTION ( 'NONE',  ( -0.000000000000000000, -0.000000000000000000, -1.000000000000000000 ) ) ;
#43 = ORIENTED_EDGE ( 'NONE', *, *, #567, .T. ) ;
#44 = EDGE_CURVE ( 'NONE', #583, #700, #651, .T. ) ;
#45 = VERTEX_POINT ( 'NONE', #564 ) ;
#46 = AXIS2_PLACEMENT_3D ( 'NONE', #680, #155, #674 ) ;
#47 = CARTESIAN_POINT ( 'NONE',  ( -30.75786437626904046, -7.999999999999992895, 3.000000000000000000 ) ) ;
#48 = CIRCLE ( 'NONE', #599, 1.749999999999991118 ) ;
#49 = DIRECTION ( 'NONE',  ( -0.000000000000000000, -0.000000000000000000, -1.000000000000000000 ) ) ;
#50 = CYLINDRICAL_SURFACE ( 'NONE', #690, 1.749999999999980682 ) ;
#51 = ORIENTED_EDGE ( 'NONE', *, *, #335, .T. ) ;
#52 = DIRECTION ( 'NONE',  ( 1.000000000000000000, 0.000000000000000000, 0.000000000000000000 ) ) ;
#53 = ORIENTED_EDGE ( 'NONE', *, *, #918, .F. ) ;
#54 = SURFACE_SIDE_STYLE ('',( #374 ) ) ;
#55 = ORIENTED_EDGE ( 'NONE', *, *, #394, .F. ) ;
#56 = FACE_BOUND ( 'NONE', #188, .T. ) ;
#57 = EDGE_LOOP ( 'NONE', ( #171, #589 ) ) ;
#58 = FACE_BOUND ( 'NONE', #621, .T. ) ;
#59 = ORIENTED_EDGE ( 'NONE', *, *, #662, .T. ) ;
#60 = CARTESIAN_POINT ( 'NONE',  ( 39.90000000000000568, 10.92893218813450851, 3.000000000000000000 ) ) ;
#61 = VECTOR ( 'NONE', #456, 1000.000000000000000 ) ;
#62 = VECTOR ( 'NONE', #929, 1000.000000000000000 ) ;
#63 = ORIENTED_EDGE ( 'NONE', *, *, #236, .F. ) ;
#64 = VECTOR ( 'NONE', #718, 1000.000000000000000 ) ;
#65 = DIRECTION ( 'NONE',  ( -1.000000000000000000, 0.000000000000000000, 0.000000000000000000 ) ) ;
#66 = ORIENTED_EDGE ( 'NONE', *, *, #668, .F. ) ;
#67 = DIRECTION ( 'NONE',  ( 0.000000000000000000, 0.000000000000000000, 1.000000000000000000 ) ) ;
#68 =( NAMED_UNIT ( * ) PLANE_ANGLE_UNIT ( ) SI_UNIT ( $, .RADIAN. ) );
#69 = DIRECTION ( 'NONE',  ( -0.000000000000000000, -0.000000000000000000, -1.000000000000000000 ) ) ;
#70 = DIRECTION ( 'NONE',  ( -0.000000000000000000, -0.000000000000000000, -1.000000000000000000 ) ) ;
#71 = ORIENTED_EDGE ( 'NONE', *, *, #19, .F. ) ;
#72 = FACE_BOUND ( 'NONE', #617, .T. ) ;
#73 = ADVANCED_FACE ( 'NONE', ( #949 ), #282, .F. ) ;
#74 =( NAMED_UNIT ( * ) SI_UNIT ( $, .STERADIAN. ) SOLID_ANGLE_UNIT ( ) );
#75 = CARTESIAN_POINT ( 'NONE',  ( 31.07893218813454794, 13.00000000000000000, 0.000000000000000000 ) ) ;
#76 = DIRECTION ( 'NONE',  ( -0.000000000000000000, -0.000000000000000000, -1.000000000000000000 ) ) ;
#77 = VERTEX_POINT ( 'NONE', #637 ) ;
#78 = ADVANCED_FACE ( 'NONE', ( #534 ), #88, .T. ) ;
#79 = CARTESIAN_POINT ( 'NONE',  ( 38.43553390593273633, -14.46446609406725869, 3.000000000000000000 ) ) ;
#80 = CIRCLE ( 'NONE', #622, 4.999999999999997335 ) ;
#81 = CARTESIAN_POINT ( 'NONE',  ( -38.43553390593272923, 14.46446609406726225, 3.000000000000000000 ) ) ;
#82 = AXIS2_PLACEMENT_3D ( 'NONE', #712, #106, #343 ) ;
#83 = CARTESIAN_POINT ( 'NONE',  ( 8.099999999999996092, -18.00000000000000000, 3.000000000000000000 ) ) ;
#84 = CIRCLE ( 'NONE', #208, 10.00000000000000000 ) ;
#85 = ORIENTED_EDGE ( 'NONE', *, *, #770, .T. ) ;
#86 = CIRCLE ( 'NONE', #331, 1.749999999999980682 ) ;
#87 = LINE ( 'NONE', #79, #828 ) ;
#88 = CYLINDRICAL_SURFACE ( 'NONE', #913, 4.999999999999997335 ) ;
#89 = EDGE_CURVE ( 'NONE', #844, #502, #34, .T. ) ;
#90 = ORIENTED_EDGE ( 'NONE', *, *, #132, .T. ) ;
#91 = DIRECTION ( 'NONE',  ( 0.000000000000000000, 0.000000000000000000, 1.000000000000000000 ) ) ;
#92 = CARTESIAN_POINT ( 'NONE',  ( -38.43553390593272923, 14.46446609406726225, 0.000000000000000000 ) ) ;
#93 = CARTESIAN_POINT ( 'NONE',  ( 32.82893218813453018, 13.00000000000000000, 3.000000000000000000 ) ) ;
#94 = VERTEX_POINT ( 'NONE', #12 ) ;
#95 = CARTESIAN_POINT ( 'NONE',  ( 32.99999999999997158, -13.50000000000005329, 3.000000000000000000 ) ) ;
#96 = CARTESIAN_POINT ( 'NONE',  ( 36.36446609406726793, 16.53553390593273775, 3.000000000000000000 ) ) ;
#97 = EDGE_LOOP ( 'NONE', ( #762, #325, #724, #193 ) ) ;
#98 = CIRCLE ( 'NONE', #304, 4.999999999999997335 ) ;
#99 = AXIS2_PLACEMENT_3D ( 'NONE', #95, #866, #100 ) ;
#100 = DIRECTION ( 'NONE',  ( -1.000000000000000000, 0.000000000000000000, 0.000000000000000000 ) ) ;
#101 = LINE ( 'NONE', #472, #61 ) ;
#102 = VERTEX_POINT ( 'NONE', #820 ) ;
#103 = EDGE_CURVE ( 'NONE', #930, #77, #587, .T. ) ;
#104 = EDGE_CURVE ( 'NONE', #425, #868, #444, .T. ) ;
#105 = DIRECTION ( 'NONE',  ( 1.000000000000000000, 0.000000000000000000, 0.000000000000000000 ) ) ;
#106 = DIRECTION ( 'NONE',  ( 0.000000000000000000, 0.000000000000000000, 1.000000000000000000 ) ) ;
#107 = ORIENTED_EDGE ( 'NONE', *, *, #499, .T. ) ;
#108 = DIRECTION ( 'NONE',  ( -1.000000000000000000, 0.000000000000000000, 0.000000000000000000 ) ) ;
#109 = VERTEX_POINT ( 'NONE', #230 ) ;
#110 = AXIS2_PLACEMENT_3D ( 'NONE', #817, #885, #65 ) ;
#111 = AXIS2_PLACEMENT_3D ( 'NONE', #406, #38, #699 ) ;
#112 = VECTOR ( 'NONE', #306, 1000.000000000000000 ) ;
#113 = EDGE_CURVE ( 'NONE', #109, #594, #591, .T. ) ;
#114 = LINE ( 'NONE', #563, #539 ) ;
#115 = EDGE_LOOP ( 'NONE', ( #190, #483, #697, #639 ) ) ;
#116 = ORIENTED_EDGE ( 'NONE', *, *, #398, .F. ) ;
#117 = ADVANCED_FACE ( 'NONE', ( #753 ), #294, .T. ) ;
#118 = CARTESIAN_POINT ( 'NONE',  ( 30.75786437626905112, -8.000000000000001776, 0.000000000000000000 ) ) ;
#119 = DIRECTION ( 'NONE',  ( 0.7071067811865474617, -0.7071067811865474617, -0.000000000000000000 ) ) ;
#120 = VERTEX_POINT ( 'NONE', #81 ) ;
#121 = DIRECTION ( 'NONE',  ( 1.000000000000000000, 0.000000000000000000, 0.000000000000000000 ) ) ;
#122 = CARTESIAN_POINT ( 'NONE',  ( -31.07893218813451242, 13.00000000000000711, 3.000000000000000000 ) ) ;
#123 = ORIENTED_EDGE ( 'NONE', *, *, #530, .F. ) ;
#124 = VERTEX_POINT ( 'NONE', #816 ) ;
#125 = CIRCLE ( 'NONE', #174, 4.999999999999997335 ) ;
#126 = CARTESIAN_POINT ( 'NONE',  ( -33.00000000000000000, -13.50000000000000178, 3.000000000000000000 ) ) ;
#127 = AXIS2_PLACEMENT_3D ( 'NONE', #448, #135, #443 ) ;
#128 = VECTOR ( 'NONE', #481, 1000.000000000000000 ) ;
#129 = VECTOR ( 'NONE', #741, 1000.000000000000000 ) ;
#130 = EDGE_LOOP ( 'NONE', ( #176, #228, #280, #571 ) ) ;
#131 = ORIENTED_EDGE ( 'NONE', *, *, #398, .T. ) ;
#132 = EDGE_CURVE ( 'NONE', #580, #216, #965, .T. ) ;
#133 = EDGE_CURVE ( 'NONE', #506, #291, #956, .T. ) ;
#134 = DIRECTION ( 'NONE',  ( -1.000000000000000000, 0.000000000000000000, 0.000000000000000000 ) ) ;
#135 = DIRECTION ( 'NONE',  ( 0.000000000000000000, 0.000000000000000000, 1.000000000000000000 ) ) ;
#136 = EDGE_LOOP ( 'NONE', ( #51, #730, #628, #490 ) ) ;
#137 = DIRECTION ( 'NONE',  ( 0.000000000000000000, 0.000000000000000000, 1.000000000000000000 ) ) ;
#138 = ORIENTED_EDGE ( 'NONE', *, *, #470, .T. ) ;
#139 = DIRECTION ( 'NONE',  ( 0.000000000000000000, 0.000000000000000000, 1.000000000000000000 ) ) ;
#140 = LINE ( 'NONE', #576, #64 ) ;
#141 = CYLINDRICAL_SURFACE ( 'NONE', #505, 1.749999999999980682 ) ;
#142 = VERTEX_POINT ( 'NONE', #225 ) ;
#143 = CYLINDRICAL_SURFACE ( 'NONE', #871, 5.000000000000000888 ) ;
#144 = AXIS2_PLACEMENT_3D ( 'NONE', #18, #256, #761 ) ;
#145 = CARTESIAN_POINT ( 'NONE',  ( 39.90000000000000568, 10.92893218813450851, 3.000000000000000000 ) ) ;
#146 = VECTOR ( 'NONE', #757, 1000.000000000000000 ) ;
#147 = DIRECTION ( 'NONE',  ( -0.000000000000000000, -0.000000000000000000, -1.000000000000000000 ) ) ;
#148 = ORIENTED_EDGE ( 'NONE', *, *, #3, .F. ) ;
#149 = EDGE_CURVE ( 'NONE', #706, #631, #796, .T. ) ;
#150 = CARTESIAN_POINT ( 'NONE',  ( 32.82893218813453728, 18.00000000000000000, 3.000000000000000000 ) ) ;
#151 = CARTESIAN_POINT ( 'NONE',  ( 39.90000000000000568, 10.92893218813450851, 0.000000000000000000 ) ) ;
#152 = EDGE_CURVE ( 'NONE', #393, #202, #315, .T. ) ;
#153 = LINE ( 'NONE', #450, #716 ) ;
#154 = ORIENTED_EDGE ( 'NONE', *, *, #133, .T. ) ;
#155 = DIRECTION ( 'NONE',  ( 0.000000000000000000, 0.000000000000000000, 1.000000000000000000 ) ) ;
#156 = CARTESIAN_POINT ( 'NONE',  ( 31.07893218813454794, 13.00000000000000000, 3.000000000000000000 ) ) ;
#157 = ORIENTED_EDGE ( 'NONE', *, *, #382, .F. ) ;
#158 = CARTESIAN_POINT ( 'NONE',  ( 0.000000000000000000, 0.000000000000000000, 3.000000000000000000 ) ) ;
#159 = AXIS2_PLACEMENT_3D ( 'NONE', #158, #609, #912 ) ;
#160 = DIRECTION ( 'NONE',  ( 1.000000000000000000, 0.000000000000000000, 0.000000000000000000 ) ) ;
#161 = CIRCLE ( 'NONE', #82, 1.749999999999991118 ) ;
#162 = CARTESIAN_POINT ( 'NONE',  ( -34.57893218813451597, 13.00000000000000711, 3.000000000000000000 ) ) ;
#163 = ORIENTED_EDGE ( 'NONE', *, *, #19, .T. ) ;
#164 = EDGE_CURVE ( 'NONE', #407, #385, #2, .T. ) ;
#165 = FACE_OUTER_BOUND ( 'NONE', #863, .T. ) ;
#166 = DIRECTION ( 'NONE',  ( -0.000000000000000000, -0.000000000000000000, 1.000000000000000000 ) ) ;
#167 = DIRECTION ( 'NONE',  ( -1.000000000000000000, 1.294569758191646909E-16, 0.000000000000000000 ) ) ;
#168 = ORIENTED_EDGE ( 'NONE', *, *, #470, .F. ) ;
#169 = CARTESIAN_POINT ( 'NONE',  ( 32.82893218813453728, 18.00000000000000000, 3.000000000000000000 ) ) ;
#170 = DIRECTION ( 'NONE',  ( 1.000000000000000000, 0.000000000000000000, 0.000000000000000000 ) ) ;
#171 = ORIENTED_EDGE ( 'NONE', *, *, #723, .F. ) ;
#172 = CARTESIAN_POINT ( 'NONE',  ( 36.36446609406726793, 16.53553390593273775, 3.000000000000000000 ) ) ;
#173 = EDGE_CURVE ( 'NONE', #583, #407, #748, .T. ) ;
#174 = AXIS2_PLACEMENT_3D ( 'NONE', #809, #669, #442 ) ;
#175 = DIRECTION ( 'NONE',  ( -1.000000000000000000, 0.000000000000000000, 0.000000000000000000 ) ) ;
#176 = ORIENTED_EDGE ( 'NONE', *, *, #788, .T. ) ;
#177 = AXIS2_PLACEMENT_3D ( 'NONE', #874, #344, #784 ) ;
#178 = ORIENTED_EDGE ( 'NONE', *, *, #113, .F. ) ;
#179 = EDGE_CURVE ( 'NONE', #814, #410, #960, .T. ) ;
#180 = AXIS2_PLACEMENT_3D ( 'NONE', #895, #803, #952 ) ;
#181 = FACE_OUTER_BOUND ( 'NONE', #136, .T. ) ;
#182 = DIRECTION ( 'NONE',  ( 0.000000000000000000, 0.000000000000000000, 1.000000000000000000 ) ) ;
#183 = ORIENTED_EDGE ( 'NONE', *, *, #276, .F. ) ;
#184 = CARTESIAN_POINT ( 'NONE',  ( 30.75786437626905112, -8.000000000000001776, 3.000000000000000000 ) ) ;
#185 = ORIENTED_EDGE ( 'NONE', *, *, #297, .T. ) ;
#186 = ADVANCED_FACE ( 'NONE', ( #387 ), #524, .F. ) ;
#187 = CARTESIAN_POINT ( 'NONE',  ( -33.00000000000000000, -13.50000000000000178, 3.000000000000000000 ) ) ;
#188 = EDGE_LOOP ( 'NONE', ( #418, #546 ) ) ;
#189 = CIRCLE ( 'NONE', #144, 1.749999999999980682 ) ;
#190 = ORIENTED_EDGE ( 'NONE', *, *, #723, .T. ) ;
#191 = EDGE_CURVE ( 'NONE', #416, #333, #581, .T. ) ;
#192 = CARTESIAN_POINT ( 'NONE',  ( -32.82893218813451597, 13.00000000000000711, 0.000000000000000000 ) ) ;
#193 = ORIENTED_EDGE ( 'NONE', *, *, #103, .T. ) ;
#194 = ORIENTED_EDGE ( 'NONE', *, *, #236, .T. ) ;
#195 = CARTESIAN_POINT ( 'NONE',  ( -34.89999999999999147, 10.92893218813452805, 3.000000000000000000 ) ) ;
#196 = CARTESIAN_POINT ( 'NONE',  ( 30.75786437626905112, -18.00000000000000355, 0.000000000000000000 ) ) ;
#197 = DIRECTION ( 'NONE',  ( -0.000000000000000000, -0.000000000000000000, -1.000000000000000000 ) ) ;
#198 = ORIENTED_EDGE ( 'NONE', *, *, #423, .T. ) ;
#199 = DIRECTION ( 'NONE',  ( -0.000000000000000000, -0.000000000000000000, -1.000000000000000000 ) ) ;
#200 = UNCERTAINTY_MEASURE_WITH_UNIT (LENGTH_MEASURE( 1.000000000000000082E-05 ), #13, 'distance_accuracy_value', 'NONE');
#201 = ADVANCED_FACE ( 'NONE', ( #664 ), #300, .F. ) ;
#202 = VERTEX_POINT ( 'NONE', #75 ) ;
#203 = ADVANCED_FACE ( 'NONE', ( #604 ), #324, .F. ) ;
#204 = ORIENTED_EDGE ( 'NONE', *, *, #132, .F. ) ;
#205 = CIRCLE ( 'NONE', #652, 4.999999999999997335 ) ;
#206 = EDGE_CURVE ( 'NONE', #432, #124, #568, .T. ) ;
#207 = DIRECTION ( 'NONE',  ( -0.7071067811865470176, -0.7071067811865480168, 0.000000000000000000 ) ) ;
#208 = AXIS2_PLACEMENT_3D ( 'NONE', #944, #274, #217 ) ;
#209 = CIRCLE ( 'NONE', #348, 1.750000000000005107 ) ;
#210 = ORIENTED_EDGE ( 'NONE', *, *, #335, .F. ) ;
#211 = DIRECTION ( 'NONE',  ( 1.000000000000000000, 0.000000000000000000, -0.000000000000000000 ) ) ;
#212 = ORIENTED_EDGE ( 'NONE', *, *, #897, .T. ) ;
#213 = CARTESIAN_POINT ( 'NONE',  ( -39.89999999999999147, 10.92893218813452627, 0.000000000000000000 ) ) ;
#214 = ORIENTED_EDGE ( 'NONE', *, *, #841, .T. ) ;
#215 = LINE ( 'NONE', #593, #953 ) ;
#216 = VERTEX_POINT ( 'NONE', #612 ) ;
#217 = DIRECTION ( 'NONE',  ( 1.000000000000000000, 0.000000000000000000, 0.000000000000000000 ) ) ;
#218 = DIRECTION ( 'NONE',  ( 3.174552547521865467E-16, 1.000000000000000000, -0.000000000000000000 ) ) ;
#219 = ADVANCED_FACE ( 'NONE', ( #402 ), #391, .F. ) ;
#220 = FILL_AREA_STYLE ('',( #745 ) ) ;
#221 = ORIENTED_EDGE ( 'NONE', *, *, #705, .F. ) ;
#222 = DIRECTION ( 'NONE',  ( -0.000000000000000000, -0.000000000000000000, -1.000000000000000000 ) ) ;
#223 = ADVANCED_FACE ( 'NONE', ( #768 ), #23, .T. ) ;
#224 = CIRCLE ( 'NONE', #424, 9.999999999999998224 ) ;
#225 = CARTESIAN_POINT ( 'NONE',  ( 10.00000000000000000, 1.224646799147353256E-15, 3.000000000000000000 ) ) ;
#226 = CIRCLE ( 'NONE', #243, 10.00000000000000000 ) ;
#227 = FACE_OUTER_BOUND ( 'NONE', #316, .T. ) ;
#228 = ORIENTED_EDGE ( 'NONE', *, *, #362, .F. ) ;
#229 = CARTESIAN_POINT ( 'NONE',  ( -10.00000000000000000, 0.000000000000000000, 3.000000000000000000 ) ) ;
#230 = CARTESIAN_POINT ( 'NONE',  ( -37.82893218813451597, -15.07106781186547018, 0.000000000000000000 ) ) ;
#231 = CARTESIAN_POINT ( 'NONE',  ( -31.24999999999999645, -13.50000000000000178, 3.000000000000000000 ) ) ;
#232 = ORIENTED_EDGE ( 'NONE', *, *, #864, .T. ) ;
#233 = CARTESIAN_POINT ( 'NONE',  ( -39.89999999999999147, -10.92893218813451561, 3.000000000000000000 ) ) ;
#234 = DIRECTION ( 'NONE',  ( 0.000000000000000000, 0.000000000000000000, 1.000000000000000000 ) ) ;
#235 = CYLINDRICAL_SURFACE ( 'NONE', #872, 4.999999999999997335 ) ;
#236 = EDGE_CURVE ( 'NONE', #469, #425, #17, .T. ) ;
#237 = ORIENTED_EDGE ( 'NONE', *, *, #89, .T. ) ;
#238 = DIRECTION ( 'NONE',  ( 1.000000000000000000, 0.000000000000000000, 0.000000000000000000 ) ) ;
#239 = VECTOR ( 'NONE', #397, 1000.000000000000000 ) ;
#240 = DIRECTION ( 'NONE',  ( -3.174552547521865467E-16, -1.000000000000000000, 0.000000000000000000 ) ) ;
#241 = PRODUCT_DEFINITION_FORMATION_WITH_SPECIFIED_SOURCE ( 'ANY', '', #830, .NOT_KNOWN. ) ;
#242 = CARTESIAN_POINT ( 'NONE',  ( -34.89999999999999147, -10.92893218813451384, 3.000000000000000000 ) ) ;
#243 = AXIS2_PLACEMENT_3D ( 'NONE', #915, #503, #550 ) ;
#244 = ORIENTED_EDGE ( 'NONE', *, *, #484, .T. ) ;
#245 = DIRECTION ( 'NONE',  ( -0.7071067811865474617, -0.7071067811865474617, -0.000000000000000000 ) ) ;
#246 = DIRECTION ( 'NONE',  ( 0.000000000000000000, 0.000000000000000000, 1.000000000000000000 ) ) ;
#247 = ORIENTED_EDGE ( 'NONE', *, *, #152, .T. ) ;
#248 = CARTESIAN_POINT ( 'NONE',  ( 39.89999999999999858, -10.92893218813452272, 3.000000000000000000 ) ) ;
#249 = DIRECTION ( 'NONE',  ( -0.000000000000000000, -0.000000000000000000, -1.000000000000000000 ) ) ;
#250 = EDGE_CURVE ( 'NONE', #655, #501, #836, .T. ) ;
#251 = EDGE_LOOP ( 'NONE', ( #869, #90, #123, #148 ) ) ;
#252 = EDGE_CURVE ( 'NONE', #142, #339, #226, .T. ) ;
#253 = PRODUCT_DEFINITION_CONTEXT ( 'detailed design', #513, 'design' ) ;
#254 = DIRECTION ( 'NONE',  ( -0.000000000000000000, -0.000000000000000000, -1.000000000000000000 ) ) ;
#255 =( GEOMETRIC_REPRESENTATION_CONTEXT ( 3 ) GLOBAL_UNCERTAINTY_ASSIGNED_CONTEXT ( ( #200 ) ) GLOBAL_UNIT_ASSIGNED_CONTEXT ( ( #13, #758, #553 ) ) REPRESENTATION_CONTEXT ( 'NONE', 'WORKASPACE' ) );
#256 = DIRECTION ( 'NONE',  ( 0.000000000000000000, 0.000000000000000000, 1.000000000000000000 ) ) ;
#257 = ORIENTED_EDGE ( 'NONE', *, *, #40, .T. ) ;
#258 = VECTOR ( 'NONE', #349, 1000.000000000000000 ) ;
#259 = VECTOR ( 'NONE', #355, 1000.000000000000000 ) ;
#260 = CARTESIAN_POINT ( 'NONE',  ( -39.89999999999999147, 10.92893218813452627, 3.000000000000000000 ) ) ;
#261 = ORIENTED_EDGE ( 'NONE', *, *, #206, .T. ) ;
#262 = ADVANCED_BREP_SHAPE_REPRESENTATION ( 'camera_cover', ( #676, #127 ), #654 ) ;
#263 = CARTESIAN_POINT ( 'NONE',  ( 31.24999999999998224, -13.50000000000005329, 0.000000000000000000 ) ) ;
#264 = ORIENTED_EDGE ( 'NONE', *, *, #901, .T. ) ;
#265 = LINE ( 'NONE', #569, #812 ) ;
#266 = CARTESIAN_POINT ( 'NONE',  ( -34.57893218813451597, 13.00000000000000711, 0.000000000000000000 ) ) ;
#267 = AXIS2_PLACEMENT_3D ( 'NONE', #933, #783, #500 ) ;
#268 = ORIENTED_EDGE ( 'NONE', *, *, #484, .F. ) ;
#270 = VECTOR ( 'NONE', #833, 1000.000000000000000 ) ;
#269 = DIRECTION ( 'NONE',  ( -1.000000000000000000, 0.000000000000000000, 0.000000000000000000 ) ) ;
#271 = DIRECTION ( 'NONE',  ( -0.000000000000000000, -0.000000000000000000, -1.000000000000000000 ) ) ;
#272 = ORIENTED_EDGE ( 'NONE', *, *, #323, .T. ) ;
#273 = VERTEX_POINT ( 'NONE', #319 ) ;
#274 = DIRECTION ( 'NONE',  ( 0.000000000000000000, 0.000000000000000000, 1.000000000000000000 ) ) ;
#275 = EDGE_CURVE ( 'NONE', #720, #273, #26, .T. ) ;
#276 = EDGE_CURVE ( 'NONE', #818, #313, #507, .T. ) ;
#277 = CARTESIAN_POINT ( 'NONE',  ( 32.82893218813453018, 13.00000000000000000, 0.000000000000000000 ) ) ;
#278 = CARTESIAN_POINT ( 'NONE',  ( -34.89999999999999147, -17.99999999999999289, 3.000000000000000000 ) ) ;
#279 = EDGE_CURVE ( 'NONE', #77, #109, #848, .T. ) ;
#280 = ORIENTED_EDGE ( 'NONE', *, *, #133, .F. ) ;
#281 = CARTESIAN_POINT ( 'NONE',  ( 32.82893218813453728, 18.00000000000000000, 0.000000000000000000 ) ) ;
#282 = CYLINDRICAL_SURFACE ( 'NONE', #177, 1.750000000000001554 ) ;
#283 = LINE ( 'NONE', #431, #595 ) ;
#284 = ORIENTED_EDGE ( 'NONE', *, *, #561, .F. ) ;
#285 = AXIS2_PLACEMENT_3D ( 'NONE', #435, #531, #439 ) ;
#286 = DIRECTION ( 'NONE',  ( -0.000000000000000000, -0.000000000000000000, -1.000000000000000000 ) ) ;
#287 = AXIS2_PLACEMENT_3D ( 'NONE', #192, #787, #717 ) ;
#288 = AXIS2_PLACEMENT_3D ( 'NONE', #381, #8, #312 ) ;
#289 = ORIENTED_EDGE ( 'NONE', *, *, #104, .F. ) ;
#290 = CARTESIAN_POINT ( 'NONE',  ( -31.07893218813451242, 13.00000000000000711, 3.000000000000000000 ) ) ;
#291 = VERTEX_POINT ( 'NONE', #248 ) ;
#292 = FACE_BOUND ( 'NONE', #726, .T. ) ;
#293 = ADVANCED_FACE ( 'NONE', ( #181 ), #620, .F. ) ;
#294 = CYLINDRICAL_SURFACE ( 'NONE', #847, 4.999999999999997335 ) ;
#295 = LINE ( 'NONE', #388, #378 ) ;
#296 = ORIENTED_EDGE ( 'NONE', *, *, #499, .F. ) ;
#297 = EDGE_CURVE ( 'NONE', #924, #45, #861, .T. ) ;
#298 = EDGE_CURVE ( 'NONE', #120, #102, #305, .T. ) ;
#299 = CARTESIAN_POINT ( 'NONE',  ( 36.36446609406726793, 16.53553390593273775, 0.000000000000000000 ) ) ;
#300 = CYLINDRICAL_SURFACE ( 'NONE', #288, 1.750000000000001554 ) ;
#301 = CARTESIAN_POINT ( 'NONE',  ( -30.75786437626904046, -17.99999999999999289, 3.000000000000000000 ) ) ;
#302 = ORIENTED_EDGE ( 'NONE', *, *, #897, .F. ) ;
#303 = LINE ( 'NONE', #437, #474 ) ;
#304 = AXIS2_PLACEMENT_3D ( 'NONE', #277, #873, #738 ) ;
#305 = CIRCLE ( 'NONE', #364, 4.999999999999997335 ) ;
#306 = DIRECTION ( 'NONE',  ( -0.000000000000000000, -0.000000000000000000, -1.000000000000000000 ) ) ;
#307 = AXIS2_PLACEMENT_3D ( 'NONE', #685, #606, #906 ) ;
#308 = SURFACE_STYLE_USAGE ( .BOTH. , #54 ) ;
#309 = ORIENTED_EDGE ( 'NONE', *, *, #867, .F. ) ;
#310 = CARTESIAN_POINT ( 'NONE',  ( 32.99999999999997158, -13.50000000000005329, 0.000000000000000000 ) ) ;
#311 = EDGE_CURVE ( 'NONE', #501, #109, #476, .T. ) ;
#312 = DIRECTION ( 'NONE',  ( -1.000000000000000000, 0.000000000000000000, 0.000000000000000000 ) ) ;
#313 = VERTEX_POINT ( 'NONE', #711 ) ;
#314 = CARTESIAN_POINT ( 'NONE',  ( 37.82893218813453018, -15.07106781186546840, 3.000000000000000000 ) ) ;
#315 = LINE ( 'NONE', #156, #112 ) ;
#316 = EDGE_LOOP ( 'NONE', ( #742, #660, #422, #585 ) ) ;
#317 = CARTESIAN_POINT ( 'NONE',  ( 32.82893218813453018, 13.00000000000000000, 3.000000000000000000 ) ) ;
#318 = CIRCLE ( 'NONE', #346, 4.999999999999997335 ) ;
#319 = CARTESIAN_POINT ( 'NONE',  ( -38.43553390593272923, 14.46446609406726225, 0.000000000000000000 ) ) ;
#320 = FACE_OUTER_BOUND ( 'NONE', #322, .T. ) ;
#321 = VECTOR ( 'NONE', #119, 1000.000000000000114 ) ;
#322 = EDGE_LOOP ( 'NONE', ( #400, #185, #549, #935 ) ) ;
#323 = EDGE_CURVE ( 'NONE', #526, #643, #936, .T. ) ;
#324 = PLANE ( 'NONE',  #552 ) ;
#325 = ORIENTED_EDGE ( 'NONE', *, *, #113, .T. ) ;
#326 = ADVANCED_FACE ( 'NONE', ( #41 ), #842, .F. ) ;
#327 = DIRECTION ( 'NONE',  ( 0.7071067811865474617, -0.7071067811865474617, -0.000000000000000000 ) ) ;
#328 = FACE_OUTER_BOUND ( 'NONE', #735, .T. ) ;
#329 = EDGE_LOOP ( 'NONE', ( #204, #962, #565, #790 ) ) ;
#330 = UNCERTAINTY_MEASURE_WITH_UNIT (LENGTH_MEASURE( 1.000000000000000082E-05 ), #794, 'distance_accuracy_value', 'NONE');
#331 = AXIS2_PLACEMENT_3D ( 'NONE', #11, #7, #831 ) ;
#332 = FACE_OUTER_BOUND ( 'NONE', #329, .T. ) ;
#333 = VERTEX_POINT ( 'NONE', #640 ) ;
#334 = AXIS2_PLACEMENT_3D ( 'NONE', #172, #420, #475 ) ;
#335 = EDGE_CURVE ( 'NONE', #339, #142, #84, .T. ) ;
#336 = EDGE_CURVE ( 'NONE', #580, #854, #461, .T. ) ;
#337 = DIRECTION ( 'NONE',  ( 1.000000000000000000, 0.000000000000000000, 0.000000000000000000 ) ) ;
#338 = ORIENTED_EDGE ( 'NONE', *, *, #765, .F. ) ;
#339 = VERTEX_POINT ( 'NONE', #229 ) ;
#340 = CARTESIAN_POINT ( 'NONE',  ( -32.82893218813451597, 18.00000000000000711, 0.000000000000000000 ) ) ;
#341 = ORIENTED_EDGE ( 'NONE', *, *, #252, .T. ) ;
#342 = DIRECTION ( 'NONE',  ( 0.000000000000000000, 0.000000000000000000, -1.000000000000000000 ) ) ;
#343 = DIRECTION ( 'NONE',  ( -1.000000000000000000, 0.000000000000000000, 0.000000000000000000 ) ) ;
#344 = DIRECTION ( 'NONE',  ( -0.000000000000000000, -0.000000000000000000, -1.000000000000000000 ) ) ;
#345 = PRESENTATION_LAYER_ASSIGNMENT (  '', '', ( #554 ) ) ;
#346 = AXIS2_PLACEMENT_3D ( 'NONE', #482, #182, #773 ) ;
#347 = ORIENTED_EDGE ( 'NONE', *, *, #810, .F. ) ;
#349 = DIRECTION ( 'NONE',  ( 0.000000000000000000, 0.000000000000000000, -1.000000000000000000 ) ) ;
#348 = AXIS2_PLACEMENT_3D ( 'NONE', #659, #801, #891 ) ;
#350 = ADVANCED_FACE ( 'NONE', ( #433 ), #143, .T. ) ;
#351 = CYLINDRICAL_SURFACE ( 'NONE', #491, 1.750000000000001554 ) ;
#352 = EDGE_LOOP ( 'NONE', ( #839, #886, #693, #543 ) ) ;
#353 = ORIENTED_EDGE ( 'NONE', *, *, #619, .F. ) ;
#354 = EDGE_CURVE ( 'NONE', #438, #31, #673, .T. ) ;
#355 = DIRECTION ( 'NONE',  ( 3.174552547521865467E-16, 1.000000000000000000, -0.000000000000000000 ) ) ;
#356 = ORIENTED_EDGE ( 'NONE', *, *, #938, .F. ) ;
#357 = EDGE_LOOP ( 'NONE', ( #10, #71, #284, #194 ) ) ;
#358 = LINE ( 'NONE', #963, #459 ) ;
#359 = DIRECTION ( 'NONE',  ( -1.000000000000000000, 0.000000000000000000, 0.000000000000000000 ) ) ;
#360 = LINE ( 'NONE', #584, #625 ) ;
#361 = ORIENTED_EDGE ( 'NONE', *, *, #311, .F. ) ;
#362 = EDGE_CURVE ( 'NONE', #291, #814, #358, .T. ) ;
#363 = DIRECTION ( 'NONE',  ( 1.000000000000000000, 0.000000000000000000, 0.000000000000000000 ) ) ;
#364 = AXIS2_PLACEMENT_3D ( 'NONE', #195, #772, #121 ) ;
#365 = DIRECTION ( 'NONE',  ( 1.000000000000000000, 0.000000000000000000, 0.000000000000000000 ) ) ;
#366 = CARTESIAN_POINT ( 'NONE',  ( 39.90000000000000568, 10.92893218813450673, 3.000000000000000000 ) ) ;
#367 = ORIENTED_EDGE ( 'NONE', *, *, #765, .T. ) ;
#368 = CARTESIAN_POINT ( 'NONE',  ( 32.82893218813453018, 13.00000000000000000, 3.000000000000000000 ) ) ;
#369 = DIRECTION ( 'NONE',  ( 1.000000000000000000, 0.000000000000000000, 0.000000000000000000 ) ) ;
#370 = PLANE ( 'NONE',  #763 ) ;
#371 = EDGE_LOOP ( 'NONE', ( #823, #178, #361, #452 ) ) ;
#372 = CARTESIAN_POINT ( 'NONE',  ( 38.43553390593274344, 14.46446609406725869, 0.000000000000000000 ) ) ;
#373 = CARTESIAN_POINT ( 'NONE',  ( -37.82893218813451597, -15.07106781186547018, 3.000000000000000000 ) ) ;
#374 = SURFACE_STYLE_FILL_AREA ( #220 ) ;
#375 = ORIENTED_EDGE ( 'NONE', *, *, #901, .F. ) ;
#376 = DIRECTION ( 'NONE',  ( 0.7071067811865470176, 0.7071067811865480168, -0.000000000000000000 ) ) ;
#377 = ADVANCED_FACE ( 'NONE', ( #428, #56, #743, #727, #72, #292 ), #650, .T. ) ;
#378 = VECTOR ( 'NONE', #392, 1000.000000000000114 ) ;
#379 = AXIS2_PLACEMENT_3D ( 'NONE', #687, #463, #9 ) ;
#380 = VECTOR ( 'NONE', #69, 1000.000000000000000 ) ;
#381 = CARTESIAN_POINT ( 'NONE',  ( -32.82893218813451597, 13.00000000000000711, 3.000000000000000000 ) ) ;
#382 = EDGE_CURVE ( 'NONE', #291, #666, #518, .T. ) ;
#383 = AXIS2_PLACEMENT_3D ( 'NONE', #522, #67, #363 ) ;
#384 = DIRECTION ( 'NONE',  ( -1.000000000000000000, 0.000000000000000000, 0.000000000000000000 ) ) ;
#385 = VERTEX_POINT ( 'NONE', #299 ) ;
#386 = FACE_OUTER_BOUND ( 'NONE', #536, .T. ) ;
#387 = FACE_OUTER_BOUND ( 'NONE', #714, .T. ) ;
#388 = CARTESIAN_POINT ( 'NONE',  ( -38.43553390593272923, 14.46446609406726225, 3.000000000000000000 ) ) ;
#389 = ORIENTED_EDGE ( 'NONE', *, *, #556, .T. ) ;
#390 = DIRECTION ( 'NONE',  ( 1.000000000000000000, 0.000000000000000000, 0.000000000000000000 ) ) ;
#391 = CYLINDRICAL_SURFACE ( 'NONE', #99, 1.749999999999991118 ) ;
#392 = DIRECTION ( 'NONE',  ( -0.7071067811865474617, -0.7071067811865474617, -0.000000000000000000 ) ) ;
#393 = VERTEX_POINT ( 'NONE', #722 ) ;
#394 = EDGE_CURVE ( 'NONE', #700, #469, #80, .T. ) ;
#395 = CIRCLE ( 'NONE', #829, 9.999999999999998224 ) ;
#396 = CARTESIAN_POINT ( 'NONE',  ( -34.89999999999999147, -17.99999999999999289, 0.000000000000000000 ) ) ;
#397 = DIRECTION ( 'NONE',  ( 0.7071067811865470176, 0.7071067811865480168, -0.000000000000000000 ) ) ;
#398 = EDGE_CURVE ( 'NONE', #410, #407, #1, .T. ) ;
#399 = VECTOR ( 'NONE', #405, 1000.000000000000000 ) ;
#400 = ORIENTED_EDGE ( 'NONE', *, *, #806, .T. ) ;
#401 = EDGE_LOOP ( 'NONE', ( #261, #605, #375, #212 ) ) ;
#402 = FACE_OUTER_BOUND ( 'NONE', #574, .T. ) ;
#403 = CARTESIAN_POINT ( 'NONE',  ( -30.75786437626904046, -7.999999999999992895, 3.000000000000000000 ) ) ;
#404 = EDGE_LOOP ( 'NONE', ( #880, #43 ) ) ;
#405 = DIRECTION ( 'NONE',  ( -0.000000000000000000, -1.000000000000000000, -0.000000000000000000 ) ) ;
#406 = CARTESIAN_POINT ( 'NONE',  ( 34.90000000000000568, 10.92893218813451561, 3.000000000000000000 ) ) ;
#407 = VERTEX_POINT ( 'NONE', #372 ) ;
#408 = AXIS2_PLACEMENT_3D ( 'NONE', #126, #799, #596 ) ;
#409 = DIRECTION ( 'NONE',  ( -0.000000000000000000, -1.000000000000000000, -0.000000000000000000 ) ) ;
#410 = VERTEX_POINT ( 'NONE', #586 ) ;
#411 = VECTOR ( 'NONE', #641, 1000.000000000000000 ) ;
#412 = VECTOR ( 'NONE', #955, 999.9999999999998863 ) ;
#413 = DIRECTION ( 'NONE',  ( -1.000000000000000000, 0.000000000000000000, 0.000000000000000000 ) ) ;
#414 = ORIENTED_EDGE ( 'NONE', *, *, #164, .T. ) ;
#415 = DIRECTION ( 'NONE',  ( 0.000000000000000000, 0.000000000000000000, 1.000000000000000000 ) ) ;
#416 = VERTEX_POINT ( 'NONE', #959 ) ;
#417 = EDGE_CURVE ( 'NONE', #124, #77, #125, .T. ) ;
#418 = ORIENTED_EDGE ( 'NONE', *, *, #914, .F. ) ;
#419 = EDGE_CURVE ( 'NONE', #655, #45, #644, .T. ) ;
#420 = DIRECTION ( 'NONE',  ( -0.7071067811865472397, -0.7071067811865479058, 0.000000000000000000 ) ) ;
#421 = DIRECTION ( 'NONE',  ( 1.000000000000000000, 0.000000000000000000, 0.000000000000000000 ) ) ;
#422 = ORIENTED_EDGE ( 'NONE', *, *, #694, .F. ) ;
#423 = EDGE_CURVE ( 'NONE', #493, #124, #303, .T. ) ;
#424 = AXIS2_PLACEMENT_3D ( 'NONE', #184, #931, #421 ) ;
#425 = VERTEX_POINT ( 'NONE', #281 ) ;
#426 = AXIS2_PLACEMENT_3D ( 'NONE', #825, #670, #889 ) ;
#428 = FACE_BOUND ( 'NONE', #57, .T. ) ;
#427 = AXIS2_PLACEMENT_3D ( 'NONE', #317, #819, #453 ) ;
#429 = APPLICATION_PROTOCOL_DEFINITION ( 'draft international standard', 'automotive_design', 1998, #513 ) ;
#430 = ORIENTED_EDGE ( 'NONE', *, *, #740, .T. ) ;
#431 = CARTESIAN_POINT ( 'NONE',  ( 39.90000000000000568, 10.92893218813450673, 3.000000000000000000 ) ) ;
#432 = VERTEX_POINT ( 'NONE', #213 ) ;
#433 = FACE_OUTER_BOUND ( 'NONE', #771, .T. ) ;
#434 = CARTESIAN_POINT ( 'NONE',  ( -34.75000000000000000, -13.50000000000000178, 3.000000000000000000 ) ) ;
#435 = CARTESIAN_POINT ( 'NONE',  ( -38.43553390593272923, 14.46446609406726225, 3.000000000000000000 ) ) ;
#436 = ORIENTED_EDGE ( 'NONE', *, *, #382, .T. ) ;
#437 = CARTESIAN_POINT ( 'NONE',  ( -39.89999999999999147, -10.92893218813451561, 3.000000000000000000 ) ) ;
#438 = VERTEX_POINT ( 'NONE', #737 ) ;
#439 = DIRECTION ( 'NONE',  ( 0.7071067811865474617, 0.7071067811865474617, 0.000000000000000000 ) ) ;
#440 = EDGE_LOOP ( 'NONE', ( #36, #214, #430, #932 ) ) ;
#441 = CIRCLE ( 'NONE', #954, 10.00000000000000178 ) ;
#442 = DIRECTION ( 'NONE',  ( 1.000000000000000000, 0.000000000000000000, 0.000000000000000000 ) ) ;
#443 = DIRECTION ( 'NONE',  ( 1.000000000000000000, 0.000000000000000000, 0.000000000000000000 ) ) ;
#444 = LINE ( 'NONE', #898, #270 ) ;
#445 = DIRECTION ( 'NONE',  ( -1.000000000000000000, 0.000000000000000000, 0.000000000000000000 ) ) ;
#446 = EDGE_LOOP ( 'NONE', ( #882, #755, #917, #198 ) ) ;
#447 = CARTESIAN_POINT ( 'NONE',  ( 34.90000000000000568, 10.92893218813451561, 3.000000000000000000 ) ) ;
#448 = CARTESIAN_POINT ( 'NONE',  ( 0.000000000000000000, 0.000000000000000000, 0.000000000000000000 ) ) ;
#449 = DIRECTION ( 'NONE',  ( -1.000000000000000000, 0.000000000000000000, 0.000000000000000000 ) ) ;
#450 = CARTESIAN_POINT ( 'NONE',  ( -36.36446609406725372, 16.53553390593274486, 3.000000000000000000 ) ) ;
#451 = ADVANCED_FACE ( 'NONE', ( #661 ), #792, .F. ) ;
#452 = ORIENTED_EDGE ( 'NONE', *, *, #250, .F. ) ;
#453 = DIRECTION ( 'NONE',  ( -1.000000000000000000, 0.000000000000000000, 0.000000000000000000 ) ) ;
#454 = EDGE_CURVE ( 'NONE', #493, #930, #894, .T. ) ;
#455 = DIRECTION ( 'NONE',  ( -0.7071067811865479058, 0.7071067811865472397, -0.000000000000000000 ) ) ;
#456 = DIRECTION ( 'NONE',  ( -0.000000000000000000, -0.000000000000000000, -1.000000000000000000 ) ) ;
#457 = EDGE_LOOP ( 'NONE', ( #947, #941, #602, #154, #436, #232, #614, #852, #560, #237, #473, #688, #264, #865, #257, #958 ) ) ;
#458 = CYLINDRICAL_SURFACE ( 'NONE', #427, 4.999999999999997335 ) ;
#459 = VECTOR ( 'NONE', #222, 1000.000000000000000 ) ;
#460 = CIRCLE ( 'NONE', #610, 4.999999999999997335 ) ;
#461 = CIRCLE ( 'NONE', #408, 1.750000000000005107 ) ;
#462 = CARTESIAN_POINT ( 'NONE',  ( 38.43553390593274344, 14.46446609406725869, 3.000000000000000000 ) ) ;
#463 = DIRECTION ( 'NONE',  ( -0.000000000000000000, -0.000000000000000000, -1.000000000000000000 ) ) ;
#464 = EDGE_LOOP ( 'NONE', ( #107, #302, #25, #905 ) ) ;
#465 = PLANE ( 'NONE',  #577 ) ;
#466 = DIRECTION ( 'NONE',  ( -0.000000000000000000, -0.000000000000000000, -1.000000000000000000 ) ) ;
#467 = CYLINDRICAL_SURFACE ( 'NONE', #33, 9.999999999999998224 ) ;
#468 = EDGE_CURVE ( 'NONE', #506, #94, #870, .T. ) ;
#469 = VERTEX_POINT ( 'NONE', #150 ) ;
#470 = EDGE_CURVE ( 'NONE', #313, #818, #793, .T. ) ;
#471 = CARTESIAN_POINT ( 'NONE',  ( 32.99999999999997158, -13.50000000000005329, 3.000000000000000000 ) ) ;
#472 = CARTESIAN_POINT ( 'NONE',  ( -34.57893218813451597, 13.00000000000000711, 3.000000000000000000 ) ) ;
#473 = ORIENTED_EDGE ( 'NONE', *, *, #694, .T. ) ;
#474 = VECTOR ( 'NONE', #878, 1000.000000000000000 ) ;
#475 = DIRECTION ( 'NONE',  ( 0.7071067811865479058, -0.7071067811865472397, 0.000000000000000000 ) ) ;
#476 = CIRCLE ( 'NONE', #492, 10.00000000000000178 ) ;
#477 = DIRECTION ( 'NONE',  ( 0.000000000000000000, 0.000000000000000000, 1.000000000000000000 ) ) ;
#478 = VECTOR ( 'NONE', #70, 1000.000000000000000 ) ;
#479 = ORIENTED_EDGE ( 'NONE', *, *, #275, .F. ) ;
#480 = ORIENTED_EDGE ( 'NONE', *, *, #752, .T. ) ;
#481 = DIRECTION ( 'NONE',  ( -0.000000000000000000, -0.000000000000000000, 1.000000000000000000 ) ) ;
#482 = CARTESIAN_POINT ( 'NONE',  ( -32.82893218813451597, 13.00000000000000711, 0.000000000000000000 ) ) ;
#483 = ORIENTED_EDGE ( 'NONE', *, *, #918, .T. ) ;
#484 = EDGE_CURVE ( 'NONE', #805, #626, #48, .T. ) ;
#485 = ADVANCED_FACE ( 'NONE', ( #528 ), #465, .F. ) ;
#486 = LINE ( 'NONE', #122, #411 ) ;
#487 = ORIENTED_EDGE ( 'NONE', *, *, #646, .F. ) ;
#488 = AXIS2_PLACEMENT_3D ( 'NONE', #93, #477, #923 ) ;
#489 = CARTESIAN_POINT ( 'NONE',  ( -33.00000000000000000, -13.50000000000000178, 3.000000000000000000 ) ) ;
#490 = ORIENTED_EDGE ( 'NONE', *, *, #662, .F. ) ;
#491 = AXIS2_PLACEMENT_3D ( 'NONE', #187, #494, #413 ) ;
#492 = AXIS2_PLACEMENT_3D ( 'NONE', #691, #547, #105 ) ;
#493 = VERTEX_POINT ( 'NONE', #233 ) ;
#494 = DIRECTION ( 'NONE',  ( -0.000000000000000000, -0.000000000000000000, -1.000000000000000000 ) ) ;
#495 = PLANE ( 'NONE',  #832 ) ;
#496 = ADVANCED_FACE ( 'NONE', ( #165 ), #458, .T. ) ;
#497 = ORIENTED_EDGE ( 'NONE', *, *, #969, .T. ) ;
#498 = CARTESIAN_POINT ( 'NONE',  ( -39.89999999999999147, -10.92893218813451561, 0.000000000000000000 ) ) ;
#499 = EDGE_CURVE ( 'NONE', #273, #432, #205, .T. ) ;
#500 = DIRECTION ( 'NONE',  ( 1.000000000000000000, 0.000000000000000000, 0.000000000000000000 ) ) ;
#501 = VERTEX_POINT ( 'NONE', #747 ) ;
#502 = VERTEX_POINT ( 'NONE', #533 ) ;
#503 = DIRECTION ( 'NONE',  ( 0.000000000000000000, 0.000000000000000000, 1.000000000000000000 ) ) ;
#504 = ORIENTED_EDGE ( 'NONE', *, *, #164, .F. ) ;
#505 = AXIS2_PLACEMENT_3D ( 'NONE', #511, #147, #445 ) ;
#506 = VERTEX_POINT ( 'NONE', #537 ) ;
#507 = CIRCLE ( 'NONE', #767, 1.749999999999991118 ) ;
#509 = AXIS2_PLACEMENT_3D ( 'NONE', #575, #139, #968 ) ;
#508 = CARTESIAN_POINT ( 'NONE',  ( 38.43553390593273633, -14.46446609406725692, 3.000000000000000000 ) ) ;
#510 = ORIENTED_EDGE ( 'NONE', *, *, #705, .T. ) ;
#511 = CARTESIAN_POINT ( 'NONE',  ( 32.82893218813453018, 13.00000000000000000, 3.000000000000000000 ) ) ;
#512 = ORIENTED_EDGE ( 'NONE', *, *, #840, .F. ) ;
#513 = APPLICATION_CONTEXT ( 'automotive_design' ) ;
#514 = CARTESIAN_POINT ( 'NONE',  ( 38.43553390593273633, -14.46446609406725869, 3.000000000000000000 ) ) ;
#515 = EDGE_LOOP ( 'NONE', ( #414, #338, #710, #776 ) ) ;
#516 = CARTESIAN_POINT ( 'NONE',  ( -37.82893218813451597, -15.07106781186547018, 3.000000000000000000 ) ) ;
#517 = ORIENTED_EDGE ( 'NONE', *, *, #468, .F. ) ;
#518 = LINE ( 'NONE', #60, #259 ) ;
#519 = CARTESIAN_POINT ( 'NONE',  ( -32.82893218813451597, 13.00000000000000711, 3.000000000000000000 ) ) ;
#520 = FACE_BOUND ( 'NONE', #404, .T. ) ;
#521 = ORIENTED_EDGE ( 'NONE', *, *, #149, .F. ) ;
#522 = CARTESIAN_POINT ( 'NONE',  ( 34.90000000000000568, 10.92893218813451561, 0.000000000000000000 ) ) ;
#523 = VECTOR ( 'NONE', #166, 1000.000000000000000 ) ;
#524 = PLANE ( 'NONE',  #5 ) ;
#525 = FACE_OUTER_BOUND ( 'NONE', #850, .T. ) ;
#526 = VERTEX_POINT ( 'NONE', #314 ) ;
#527 = ADVANCED_FACE ( 'NONE', ( #386 ), #603, .F. ) ;
#528 = FACE_OUTER_BOUND ( 'NONE', #401, .T. ) ;
#529 = CARTESIAN_POINT ( 'NONE',  ( -38.43553390593272923, -14.46446609406725337, 3.000000000000000000 ) ) ;
#530 = EDGE_CURVE ( 'NONE', #679, #216, #701, .T. ) ;
#531 = DIRECTION ( 'NONE',  ( 0.7071067811865475727, -0.7071067811865475727, 0.000000000000000000 ) ) ;
#532 = ORIENTED_EDGE ( 'NONE', *, *, #279, .F. ) ;
#533 = CARTESIAN_POINT ( 'NONE',  ( -36.36446609406725372, 16.53553390593274486, 3.000000000000000000 ) ) ;
#534 = FACE_OUTER_BOUND ( 'NONE', #130, .T. ) ;
#535 = CARTESIAN_POINT ( 'NONE',  ( 30.75786437626905112, -8.000000000000001776, 3.000000000000000000 ) ) ;
#536 = EDGE_LOOP ( 'NONE', ( #309, #341, #59, #221 ) ) ;
#537 = CARTESIAN_POINT ( 'NONE',  ( 38.43553390593273633, -14.46446609406725692, 3.000000000000000000 ) ) ;
#538 = MECHANICAL_DESIGN_GEOMETRIC_PRESENTATION_REPRESENTATION (  '', ( #554 ), #255 ) ;
#539 = VECTOR ( 'NONE', #853, 1000.000000000000000 ) ;
#540 = VECTOR ( 'NONE', #695, 1000.000000000000000 ) ;
#541 = CARTESIAN_POINT ( 'NONE',  ( 0.000000000000000000, 0.000000000000000000, 0.000000000000000000 ) ) ;
#542 = CARTESIAN_POINT ( 'NONE',  ( -34.75000000000000000, -13.50000000000000178, 0.000000000000000000 ) ) ;
#543 = ORIENTED_EDGE ( 'NONE', *, *, #323, .F. ) ;
#544 = DIRECTION ( 'NONE',  ( -1.000000000000000000, 0.000000000000000000, 0.000000000000000000 ) ) ;
#545 = DIRECTION ( 'NONE',  ( 1.000000000000000000, 0.000000000000000000, 0.000000000000000000 ) ) ;
#546 = ORIENTED_EDGE ( 'NONE', *, *, #336, .F. ) ;
#547 = DIRECTION ( 'NONE',  ( -0.000000000000000000, -0.000000000000000000, -1.000000000000000000 ) ) ;
#548 = CARTESIAN_POINT ( 'NONE',  ( -36.36446609406725372, 16.53553390593274486, 0.000000000000000000 ) ) ;
#549 = ORIENTED_EDGE ( 'NONE', *, *, #419, .F. ) ;
#550 = DIRECTION ( 'NONE',  ( 1.000000000000000000, 0.000000000000000000, 0.000000000000000000 ) ) ;
#551 = EDGE_CURVE ( 'NONE', #526, #506, #87, .T. ) ;
#552 = AXIS2_PLACEMENT_3D ( 'NONE', #572, #634, #715 ) ;
#553 =( NAMED_UNIT ( * ) SI_UNIT ( $, .STERADIAN. ) SOLID_ANGLE_UNIT ( ) );
#554 = STYLED_ITEM ( 'NONE', ( #601 ), #676 ) ;
#555 = ORIENTED_EDGE ( 'NONE', *, *, #179, .F. ) ;
#556 = EDGE_CURVE ( 'NONE', #608, #202, #86, .T. ) ;
#557 = CARTESIAN_POINT ( 'NONE',  ( 34.74999999999997158, -13.50000000000005329, 3.000000000000000000 ) ) ;
#558 = EDGE_LOOP ( 'NONE', ( #521, #921 ) ) ;
#559 = DIRECTION ( 'NONE',  ( -0.000000000000000000, -0.000000000000000000, -1.000000000000000000 ) ) ;
#560 = ORIENTED_EDGE ( 'NONE', *, *, #561, .T. ) ;
#561 = EDGE_CURVE ( 'NONE', #469, #844, #360, .T. ) ;
#562 = CIRCLE ( 'NONE', #267, 1.750000000000005107 ) ;
#563 = CARTESIAN_POINT ( 'NONE',  ( 8.099999999999996092, -18.00000000000000000, 0.000000000000000000 ) ) ;
#564 = CARTESIAN_POINT ( 'NONE',  ( 30.75786437626901915, -18.00000000000000000, 3.000000000000000000 ) ) ;
#565 = ORIENTED_EDGE ( 'NONE', *, *, #3, .T. ) ;
#566 = PRODUCT_DEFINITION ( 'UNKNOWN', '', #241, #253 ) ;
#567 = EDGE_CURVE ( 'NONE', #216, #679, #209, .T. ) ;
#568 = LINE ( 'NONE', #498, #399 ) ;
#569 = CARTESIAN_POINT ( 'NONE',  ( 34.57893218813450886, 13.00000000000000000, 3.000000000000000000 ) ) ;
#570 = ORIENTED_EDGE ( 'NONE', *, *, #556, .F. ) ;
#571 = ORIENTED_EDGE ( 'NONE', *, *, #468, .T. ) ;
#572 = CARTESIAN_POINT ( 'NONE',  ( -32.82893218813451597, 18.00000000000000711, 3.000000000000000000 ) ) ;
#573 = DIRECTION ( 'NONE',  ( -0.000000000000000000, -0.000000000000000000, -1.000000000000000000 ) ) ;
#574 = EDGE_LOOP ( 'NONE', ( #138, #798, #268, #353 ) ) ;
#575 = CARTESIAN_POINT ( 'NONE',  ( -34.89999999999999147, -10.92893218813451384, 3.000000000000000000 ) ) ;
#576 = CARTESIAN_POINT ( 'NONE',  ( -32.82893218813451597, 18.00000000000000711, 3.000000000000000000 ) ) ;
#577 = AXIS2_PLACEMENT_3D ( 'NONE', #824, #238, #15 ) ;
#578 = CARTESIAN_POINT ( 'NONE',  ( -10.00000000000000000, 0.000000000000000000, 3.000000000000000000 ) ) ;
#579 = CIRCLE ( 'NONE', #733, 1.749999999999980682 ) ;
#580 = VERTEX_POINT ( 'NONE', #231 ) ;
#581 = CIRCLE ( 'NONE', #926, 10.00000000000000000 ) ;
#582 = DIRECTION ( 'NONE',  ( 0.000000000000000000, 0.000000000000000000, 1.000000000000000000 ) ) ;
#583 = VERTEX_POINT ( 'NONE', #653 ) ;
#584 = CARTESIAN_POINT ( 'NONE',  ( -32.82893218813451597, 18.00000000000000711, 3.000000000000000000 ) ) ;
#585 = ORIENTED_EDGE ( 'NONE', *, *, #668, .T. ) ;
#586 = CARTESIAN_POINT ( 'NONE',  ( 39.90000000000000568, 10.92893218813450673, 0.000000000000000000 ) ) ;
#587 = LINE ( 'NONE', #529, #779 ) ;
#588 = DIRECTION ( 'NONE',  ( -0.000000000000000000, -0.000000000000000000, -1.000000000000000000 ) ) ;
#589 = ORIENTED_EDGE ( 'NONE', *, *, #752, .F. ) ;
#590 = DIRECTION ( 'NONE',  ( -0.7071067811865480168, 0.7071067811865470176, 0.000000000000000000 ) ) ;
#591 = LINE ( 'NONE', #373, #523 ) ;
#592 = ADVANCED_FACE ( 'NONE', ( #899, #876, #520, #821, #950, #58 ), #370, .F. ) ;
#593 = CARTESIAN_POINT ( 'NONE',  ( 31.24999999999998224, -13.50000000000005329, 3.000000000000000000 ) ) ;
#594 = VERTEX_POINT ( 'NONE', #516 ) ;
#595 = VECTOR ( 'NONE', #588, 1000.000000000000000 ) ;
#596 = DIRECTION ( 'NONE',  ( 1.000000000000000000, 0.000000000000000000, 0.000000000000000000 ) ) ;
#597 = VECTOR ( 'NONE', #455, 999.9999999999998863 ) ;
#598 = ADVANCED_FACE ( 'NONE', ( #227 ), #725, .F. ) ;
#599 = AXIS2_PLACEMENT_3D ( 'NONE', #310, #902, #751 ) ;
#600 = DIRECTION ( 'NONE',  ( -0.000000000000000000, -0.000000000000000000, -1.000000000000000000 ) ) ;
#601 = PRESENTATION_STYLE_ASSIGNMENT (( #308 ) ) ;
#602 = ORIENTED_EDGE ( 'NONE', *, *, #551, .T. ) ;
#603 = CYLINDRICAL_SURFACE ( 'NONE', #159, 10.00000000000000000 ) ;
#604 = FACE_OUTER_BOUND ( 'NONE', #357, .T. ) ;
#605 = ORIENTED_EDGE ( 'NONE', *, *, #423, .F. ) ;
#606 = DIRECTION ( 'NONE',  ( 0.000000000000000000, 0.000000000000000000, 1.000000000000000000 ) ) ;
#607 = CARTESIAN_POINT ( 'NONE',  ( 34.89999999999999858, -10.92893218813452272, 3.000000000000000000 ) ) ;
#608 = VERTEX_POINT ( 'NONE', #813 ) ;
#609 = DIRECTION ( 'NONE',  ( -0.000000000000000000, -0.000000000000000000, -1.000000000000000000 ) ) ;
#610 = AXIS2_PLACEMENT_3D ( 'NONE', #24, #696, #27 ) ;
#611 = VECTOR ( 'NONE', #197, 1000.000000000000000 ) ;
#612 = CARTESIAN_POINT ( 'NONE',  ( -31.24999999999999645, -13.50000000000000178, 0.000000000000000000 ) ) ;
#613 = DIRECTION ( 'NONE',  ( -1.000000000000000000, 0.000000000000000000, 0.000000000000000000 ) ) ;
#614 = ORIENTED_EDGE ( 'NONE', *, *, #44, .T. ) ;
#615 = DIRECTION ( 'NONE',  ( -1.000000000000000000, 0.000000000000000000, 0.000000000000000000 ) ) ;
#616 = CARTESIAN_POINT ( 'NONE',  ( 36.36446609406726793, 16.53553390593273775, 3.000000000000000000 ) ) ;
#617 = EDGE_LOOP ( 'NONE', ( #168, #183 ) ) ;
#618 = EDGE_CURVE ( 'NONE', #818, #626, #807, .T. ) ;
#619 = EDGE_CURVE ( 'NONE', #313, #805, #215, .T. ) ;
#620 = CYLINDRICAL_SURFACE ( 'NONE', #892, 10.00000000000000000 ) ;
#621 = EDGE_LOOP ( 'NONE', ( #764, #510 ) ) ;
#622 = AXIS2_PLACEMENT_3D ( 'NONE', #368, #582, #52 ) ;
#623 = VECTOR ( 'NONE', #749, 1000.000000000000000 ) ;
#624 = LINE ( 'NONE', #940, #62 ) ;
#625 = VECTOR ( 'NONE', #671, 1000.000000000000000 ) ;
#626 = VERTEX_POINT ( 'NONE', #729 ) ;
#627 = CARTESIAN_POINT ( 'NONE',  ( -32.82893218813451597, 18.00000000000000711, 3.000000000000000000 ) ) ;
#628 = ORIENTED_EDGE ( 'NONE', *, *, #191, .F. ) ;
#629 = VERTEX_POINT ( 'NONE', #665 ) ;
#630 = LINE ( 'NONE', #260, #21 ) ;
#631 = VERTEX_POINT ( 'NONE', #290 ) ;
#632 = ADVANCED_FACE ( 'NONE', ( #881 ), #141, .F. ) ;
#633 = ORIENTED_EDGE ( 'NONE', *, *, #206, .F. ) ;
#634 = DIRECTION ( 'NONE',  ( -1.056826013124967889E-16, -1.000000000000000000, 0.000000000000000000 ) ) ;
#635 = CIRCLE ( 'NONE', #287, 1.750000000000001554 ) ;
#636 = CARTESIAN_POINT ( 'NONE',  ( -32.82893218813451597, 13.00000000000000711, 3.000000000000000000 ) ) ;
#637 = CARTESIAN_POINT ( 'NONE',  ( -38.43553390593272923, -14.46446609406725337, 0.000000000000000000 ) ) ;
#638 = VECTOR ( 'NONE', #199, 1000.000000000000000 ) ;
#639 = ORIENTED_EDGE ( 'NONE', *, *, #152, .F. ) ;
#640 = CARTESIAN_POINT ( 'NONE',  ( 10.00000000000000000, 1.224646799147353256E-15, 0.000000000000000000 ) ) ;
#641 = DIRECTION ( 'NONE',  ( -0.000000000000000000, -0.000000000000000000, -1.000000000000000000 ) ) ;
#642 = LINE ( 'NONE', #434, #611 ) ;
#643 = VERTEX_POINT ( 'NONE', #648 ) ;
#644 = LINE ( 'NONE', #657, #32 ) ;
#645 = ADVANCED_FACE ( 'NONE', ( #525 ), #734, .F. ) ;
#646 = EDGE_CURVE ( 'NONE', #666, #410, #283, .T. ) ;
#647 = CARTESIAN_POINT ( 'NONE',  ( 32.82893218813453018, 13.00000000000000000, 3.000000000000000000 ) ) ;
#648 = CARTESIAN_POINT ( 'NONE',  ( 37.82893218813453018, -15.07106781186546840, 0.000000000000000000 ) ) ;
#649 = ORIENTED_EDGE ( 'NONE', *, *, #311, .T. ) ;
#650 = PLANE ( 'NONE',  #180 ) ;
#651 = LINE ( 'NONE', #713, #412 ) ;
#652 = AXIS2_PLACEMENT_3D ( 'NONE', #756, #91, #390 ) ;
#653 = CARTESIAN_POINT ( 'NONE',  ( 38.43553390593274344, 14.46446609406725869, 3.000000000000000000 ) ) ;
#654 =( GEOMETRIC_REPRESENTATION_CONTEXT ( 3 ) GLOBAL_UNCERTAINTY_ASSIGNED_CONTEXT ( ( #330 ) ) GLOBAL_UNIT_ASSIGNED_CONTEXT ( ( #794, #68, #74 ) ) REPRESENTATION_CONTEXT ( 'NONE', 'WORKASPACE' ) );
#655 = VERTEX_POINT ( 'NONE', #301 ) ;
#656 = AXIS2_PLACEMENT_3D ( 'NONE', #519, #884, #365 ) ;
#657 = CARTESIAN_POINT ( 'NONE',  ( -34.89999999999999147, -17.99999999999999289, 3.000000000000000000 ) ) ;
#658 = CARTESIAN_POINT ( 'NONE',  ( 36.36446609406726793, 16.53553390593273775, 0.000000000000000000 ) ) ;
#659 = CARTESIAN_POINT ( 'NONE',  ( -33.00000000000000000, -13.50000000000000178, 0.000000000000000000 ) ) ;
#660 = ORIENTED_EDGE ( 'NONE', *, *, #838, .F. ) ;
#661 = FACE_OUTER_BOUND ( 'NONE', #951, .T. ) ;
#662 = EDGE_CURVE ( 'NONE', #339, #416, #4, .T. ) ;
#663 = PRODUCT_CONTEXT ( 'NONE', #896, 'mechanical' ) ;
#664 = FACE_OUTER_BOUND ( 'NONE', #440, .T. ) ;
#665 = CARTESIAN_POINT ( 'NONE',  ( 34.57893218813450886, 13.00000000000000000, 3.000000000000000000 ) ) ;
#666 = VERTEX_POINT ( 'NONE', #366 ) ;
#667 = PRODUCT_RELATED_PRODUCT_CATEGORY ( 'part', '', ( #830 ) ) ;
#668 = EDGE_CURVE ( 'NONE', #502, #720, #153, .T. ) ;
#669 = DIRECTION ( 'NONE',  ( 0.000000000000000000, 0.000000000000000000, 1.000000000000000000 ) ) ;
#670 = DIRECTION ( 'NONE',  ( 0.000000000000000000, 0.000000000000000000, 1.000000000000000000 ) ) ;
#671 = DIRECTION ( 'NONE',  ( -1.000000000000000000, 1.056826013124967889E-16, -0.000000000000000000 ) ) ;
#672 = ORIENTED_EDGE ( 'NONE', *, *, #354, .T. ) ;
#673 = CIRCLE ( 'NONE', #797, 1.750000000000001554 ) ;
#674 = DIRECTION ( 'NONE',  ( 1.000000000000000000, 0.000000000000000000, 0.000000000000000000 ) ) ;
#675 = COLOUR_RGB ( '',0.7921568627450980005, 0.8196078431372548767, 0.9333333333333333481 ) ;
#676 = MANIFOLD_SOLID_BREP ( 'Fillet1', #22 ) ;
#677 = DIRECTION ( 'NONE',  ( -1.000000000000000000, 0.000000000000000000, 0.000000000000000000 ) ) ;
#678 = FACE_OUTER_BOUND ( 'NONE', #352, .T. ) ;
#679 = VERTEX_POINT ( 'NONE', #542 ) ;
#680 = CARTESIAN_POINT ( 'NONE',  ( -33.00000000000000000, -13.50000000000000178, 0.000000000000000000 ) ) ;
#681 = DIRECTION ( 'NONE',  ( -1.000000000000000000, 3.174552547521865467E-16, 0.000000000000000000 ) ) ;
#682 = PRODUCT_DEFINITION_SHAPE ( 'NONE', 'NONE',  #566 ) ;
#683 = LINE ( 'NONE', #920, #239 ) ;
#684 = ORIENTED_EDGE ( 'NONE', *, *, #149, .T. ) ;
#685 = CARTESIAN_POINT ( 'NONE',  ( 32.99999999999997158, -13.50000000000005329, 3.000000000000000000 ) ) ;
#686 = CARTESIAN_POINT ( 'NONE',  ( 0.000000000000000000, 0.000000000000000000, 3.000000000000000000 ) ) ;
#687 = CARTESIAN_POINT ( 'NONE',  ( -32.82893218813451597, 13.00000000000000711, 3.000000000000000000 ) ) ;
#688 = ORIENTED_EDGE ( 'NONE', *, *, #298, .T. ) ;
#689 = VECTOR ( 'NONE', #409, 1000.000000000000000 ) ;
#690 = AXIS2_PLACEMENT_3D ( 'NONE', #647, #573, #359 ) ;
#691 = CARTESIAN_POINT ( 'NONE',  ( -30.75786437626904046, -7.999999999999992895, 0.000000000000000000 ) ) ;
#692 = DIRECTION ( 'NONE',  ( 0.000000000000000000, 0.000000000000000000, 1.000000000000000000 ) ) ;
#693 = ORIENTED_EDGE ( 'NONE', *, *, #943, .F. ) ;
#694 = EDGE_CURVE ( 'NONE', #502, #120, #295, .T. ) ;
#695 = DIRECTION ( 'NONE',  ( 0.000000000000000000, 0.000000000000000000, -1.000000000000000000 ) ) ;
#696 = DIRECTION ( 'NONE',  ( 0.000000000000000000, 0.000000000000000000, 1.000000000000000000 ) ) ;
#697 = ORIENTED_EDGE ( 'NONE', *, *, #770, .F. ) ;
#698 = EDGE_CURVE ( 'NONE', #643, #94, #683, .T. ) ;
#699 = DIRECTION ( 'NONE',  ( 1.000000000000000000, 0.000000000000000000, 0.000000000000000000 ) ) ;
#700 = VERTEX_POINT ( 'NONE', #616 ) ;
#701 = CIRCLE ( 'NONE', #46, 1.750000000000005107 ) ;
#702 = VECTOR ( 'NONE', #42, 1000.000000000000000 ) ;
#703 = CYLINDRICAL_SURFACE ( 'NONE', #911, 1.750000000000001554 ) ;
#704 = ORIENTED_EDGE ( 'NONE', *, *, #740, .F. ) ;
#705 = EDGE_CURVE ( 'NONE', #333, #416, #925, .T. ) ;
#706 = VERTEX_POINT ( 'NONE', #162 ) ;
#707 = ADVANCED_FACE ( 'NONE', ( #908 ), #235, .T. ) ;
#708 = ADVANCED_FACE ( 'NONE', ( #320 ), #834, .F. ) ;
#709 = CARTESIAN_POINT ( 'NONE',  ( -34.75000000000000000, -13.50000000000000178, 3.000000000000000000 ) ) ;
#710 = ORIENTED_EDGE ( 'NONE', *, *, #44, .F. ) ;
#711 = CARTESIAN_POINT ( 'NONE',  ( 31.24999999999998224, -13.50000000000005329, 3.000000000000000000 ) ) ;
#712 = CARTESIAN_POINT ( 'NONE',  ( 32.99999999999997158, -13.50000000000005329, 0.000000000000000000 ) ) ;
#713 = CARTESIAN_POINT ( 'NONE',  ( 36.36446609406726793, 16.53553390593273775, 3.000000000000000000 ) ) ;
#714 = EDGE_LOOP ( 'NONE', ( #893, #487, #157, #39 ) ) ;
#715 = DIRECTION ( 'NONE',  ( 1.000000000000000000, -1.056826013124967889E-16, 0.000000000000000000 ) ) ;
#716 = VECTOR ( 'NONE', #961, 1000.000000000000000 ) ;
#717 = DIRECTION ( 'NONE',  ( 1.000000000000000000, 0.000000000000000000, 0.000000000000000000 ) ) ;
#718 = DIRECTION ( 'NONE',  ( -0.000000000000000000, -0.000000000000000000, -1.000000000000000000 ) ) ;
#719 = VECTOR ( 'NONE', #327, 1000.000000000000114 ) ;
#720 = VERTEX_POINT ( 'NONE', #548 ) ;
#721 = ADVANCED_FACE ( 'NONE', ( #678 ), #467, .T. ) ;
#722 = CARTESIAN_POINT ( 'NONE',  ( 31.07893218813454794, 13.00000000000000000, 3.000000000000000000 ) ) ;
#723 = EDGE_CURVE ( 'NONE', #393, #629, #937, .T. ) ;
#724 = ORIENTED_EDGE ( 'NONE', *, *, #40, .F. ) ;
#725 = PLANE ( 'NONE',  #285 ) ;
#726 = EDGE_LOOP ( 'NONE', ( #210, #835 ) ) ;
#727 = FACE_BOUND ( 'NONE', #558, .T. ) ;
#728 = CARTESIAN_POINT ( 'NONE',  ( -34.89999999999999147, -17.99999999999999289, 3.000000000000000000 ) ) ;
#729 = CARTESIAN_POINT ( 'NONE',  ( 34.74999999999997158, -13.50000000000005329, 0.000000000000000000 ) ) ;
#730 = ORIENTED_EDGE ( 'NONE', *, *, #867, .T. ) ;
#731 = DIRECTION ( 'NONE',  ( 1.000000000000000000, 0.000000000000000000, 0.000000000000000000 ) ) ;
#732 = FACE_OUTER_BOUND ( 'NONE', #115, .T. ) ;
#733 = AXIS2_PLACEMENT_3D ( 'NONE', #916, #692, #384 ) ;
#734 = CYLINDRICAL_SURFACE ( 'NONE', #110, 1.749999999999991118 ) ;
#735 = EDGE_LOOP ( 'NONE', ( #20, #66, #845, #163 ) ) ;
#736 = ADVANCED_FACE ( 'NONE', ( #328 ), #769, .T. ) ;
#737 = CARTESIAN_POINT ( 'NONE',  ( -31.07893218813451242, 13.00000000000000711, 0.000000000000000000 ) ) ;
#738 = DIRECTION ( 'NONE',  ( 1.000000000000000000, 0.000000000000000000, 0.000000000000000000 ) ) ;
#739 = DIRECTION ( 'NONE',  ( 0.000000000000000000, 0.000000000000000000, 1.000000000000000000 ) ) ;
#740 = EDGE_CURVE ( 'NONE', #706, #31, #101, .T. ) ;
#741 = DIRECTION ( 'NONE',  ( -0.000000000000000000, -0.000000000000000000, -1.000000000000000000 ) ) ;
#742 = ORIENTED_EDGE ( 'NONE', *, *, #275, .T. ) ;
#743 = FACE_OUTER_BOUND ( 'NONE', #457, .T. ) ;
#744 = CARTESIAN_POINT ( 'NONE',  ( -34.89999999999999147, 10.92893218813452805, 3.000000000000000000 ) ) ;
#745 = FILL_AREA_STYLE_COLOUR ( '', #675 ) ;
#746 = EDGE_LOOP ( 'NONE', ( #785, #672 ) ) ;
#747 = CARTESIAN_POINT ( 'NONE',  ( -30.75786437626904046, -17.99999999999999645, 0.000000000000000000 ) ) ;
#748 = LINE ( 'NONE', #462, #380 ) ;
#749 = DIRECTION ( 'NONE',  ( -0.000000000000000000, -0.000000000000000000, -1.000000000000000000 ) ) ;
#750 = EDGE_LOOP ( 'NONE', ( #244, #6 ) ) ;
#751 = DIRECTION ( 'NONE',  ( -1.000000000000000000, 0.000000000000000000, 0.000000000000000000 ) ) ;
#752 = EDGE_CURVE ( 'NONE', #629, #393, #189, .T. ) ;
#753 = FACE_OUTER_BOUND ( 'NONE', #464, .T. ) ;
#754 = DIRECTION ( 'NONE',  ( 1.294569758191646909E-16, 1.000000000000000000, -0.000000000000000000 ) ) ;
#755 = ORIENTED_EDGE ( 'NONE', *, *, #103, .F. ) ;
#756 = CARTESIAN_POINT ( 'NONE',  ( -34.89999999999999147, 10.92893218813452805, 0.000000000000000000 ) ) ;
#757 = DIRECTION ( 'NONE',  ( -0.000000000000000000, -0.000000000000000000, -1.000000000000000000 ) ) ;
#758 =( NAMED_UNIT ( * ) PLANE_ANGLE_UNIT ( ) SI_UNIT ( $, .RADIAN. ) );
#759 = ORIENTED_EDGE ( 'NONE', *, *, #417, .F. ) ;
#760 = CARTESIAN_POINT ( 'NONE',  ( 30.75786437626905112, -18.00000000000000355, 3.000000000000000000 ) ) ;
#761 = DIRECTION ( 'NONE',  ( -1.000000000000000000, 0.000000000000000000, 0.000000000000000000 ) ) ;
#762 = ORIENTED_EDGE ( 'NONE', *, *, #279, .T. ) ;
#763 = AXIS2_PLACEMENT_3D ( 'NONE', #957, #137, #211 ) ;
#764 = ORIENTED_EDGE ( 'NONE', *, *, #191, .T. ) ;
#765 = EDGE_CURVE ( 'NONE', #700, #385, #826, .T. ) ;
#766 = VECTOR ( 'NONE', #245, 1000.000000000000114 ) ;
#767 = AXIS2_PLACEMENT_3D ( 'NONE', #471, #786, #269 ) ;
#768 = FACE_OUTER_BOUND ( 'NONE', #371, .T. ) ;
#769 = CYLINDRICAL_SURFACE ( 'NONE', #379, 4.999999999999997335 ) ;
#770 = EDGE_CURVE ( 'NONE', #202, #608, #579, .T. ) ;
#771 = EDGE_LOOP ( 'NONE', ( #131, #808, #860, #802 ) ) ;
#772 = DIRECTION ( 'NONE',  ( 0.000000000000000000, 0.000000000000000000, 1.000000000000000000 ) ) ;
#773 = DIRECTION ( 'NONE',  ( 1.000000000000000000, 0.000000000000000000, 0.000000000000000000 ) ) ;
#774 = ORIENTED_EDGE ( 'NONE', *, *, #619, .T. ) ;
#775 = CARTESIAN_POINT ( 'NONE',  ( -39.89999999999999147, -10.92893218813451561, 3.000000000000000000 ) ) ;
#776 = ORIENTED_EDGE ( 'NONE', *, *, #173, .T. ) ;
#777 = EDGE_CURVE ( 'NONE', #594, #655, #441, .T. ) ;
#778 = AXIS2_PLACEMENT_3D ( 'NONE', #904, #837, #170 ) ;
#779 = VECTOR ( 'NONE', #600, 1000.000000000000000 ) ;
#780 = FACE_OUTER_BOUND ( 'NONE', #251, .T. ) ;
#781 = ORIENTED_EDGE ( 'NONE', *, *, #551, .F. ) ;
#782 = ORIENTED_EDGE ( 'NONE', *, *, #698, .T. ) ;
#783 = DIRECTION ( 'NONE',  ( 0.000000000000000000, 0.000000000000000000, 1.000000000000000000 ) ) ;
#784 = DIRECTION ( 'NONE',  ( -1.000000000000000000, 0.000000000000000000, 0.000000000000000000 ) ) ;
#785 = ORIENTED_EDGE ( 'NONE', *, *, #938, .T. ) ;
#786 = DIRECTION ( 'NONE',  ( 0.000000000000000000, 0.000000000000000000, 1.000000000000000000 ) ) ;
#787 = DIRECTION ( 'NONE',  ( 0.000000000000000000, 0.000000000000000000, 1.000000000000000000 ) ) ;
#788 = EDGE_CURVE ( 'NONE', #94, #814, #460, .T. ) ;
#789 = ORIENTED_EDGE ( 'NONE', *, *, #879, .T. ) ;
#790 = ORIENTED_EDGE ( 'NONE', *, *, #567, .F. ) ;
#791 = ADVANCED_FACE ( 'NONE', ( #780 ), #703, .F. ) ;
#792 = PLANE ( 'NONE',  #927 ) ;
#793 = CIRCLE ( 'NONE', #307, 1.749999999999991118 ) ;
#794 =( LENGTH_UNIT ( ) NAMED_UNIT ( * ) SI_UNIT ( .MILLI., .METRE. ) );
#795 = DIRECTION ( 'NONE',  ( 0.7071067811865475727, 0.7071067811865475727, -0.000000000000000000 ) ) ;
#796 = CIRCLE ( 'NONE', #875, 1.750000000000001554 ) ;
#797 = AXIS2_PLACEMENT_3D ( 'NONE', #815, #948, #731 ) ;
#798 = ORIENTED_EDGE ( 'NONE', *, *, #618, .T. ) ;
#799 = DIRECTION ( 'NONE',  ( 0.000000000000000000, 0.000000000000000000, 1.000000000000000000 ) ) ;
#800 = ORIENTED_EDGE ( 'NONE', *, *, #276, .T. ) ;
#801 = DIRECTION ( 'NONE',  ( 0.000000000000000000, 0.000000000000000000, 1.000000000000000000 ) ) ;
#802 = ORIENTED_EDGE ( 'NONE', *, *, #646, .T. ) ;
#803 = DIRECTION ( 'NONE',  ( 0.000000000000000000, 0.000000000000000000, 1.000000000000000000 ) ) ;
#804 = APPLICATION_PROTOCOL_DEFINITION ( 'draft international standard', 'automotive_design', 1998, #896 ) ;
#805 = VERTEX_POINT ( 'NONE', #263 ) ;
#806 = EDGE_CURVE ( 'NONE', #501, #924, #114, .T. ) ;
#807 = LINE ( 'NONE', #966, #129 ) ;
#808 = ORIENTED_EDGE ( 'NONE', *, *, #173, .F. ) ;
#809 = CARTESIAN_POINT ( 'NONE',  ( -34.89999999999999147, -10.92893218813451384, 0.000000000000000000 ) ) ;
#810 = EDGE_CURVE ( 'NONE', #626, #805, #161, .T. ) ;
#811 = DIRECTION ( 'NONE',  ( -0.000000000000000000, -0.000000000000000000, -1.000000000000000000 ) ) ;
#812 = VECTOR ( 'NONE', #862, 1000.000000000000000 ) ;
#813 = CARTESIAN_POINT ( 'NONE',  ( 34.57893218813450886, 13.00000000000000000, 0.000000000000000000 ) ) ;
#814 = VERTEX_POINT ( 'NONE', #35 ) ;
#815 = CARTESIAN_POINT ( 'NONE',  ( -32.82893218813451597, 13.00000000000000711, 0.000000000000000000 ) ) ;
#816 = CARTESIAN_POINT ( 'NONE',  ( -39.89999999999999147, -10.92893218813451561, 0.000000000000000000 ) ) ;
#817 = CARTESIAN_POINT ( 'NONE',  ( 32.99999999999997158, -13.50000000000005329, 3.000000000000000000 ) ) ;
#818 = VERTEX_POINT ( 'NONE', #557 ) ;
#819 = DIRECTION ( 'NONE',  ( -0.000000000000000000, -0.000000000000000000, -1.000000000000000000 ) ) ;
#820 = CARTESIAN_POINT ( 'NONE',  ( -39.89999999999999147, 10.92893218813452627, 3.000000000000000000 ) ) ;
#821 = FACE_BOUND ( 'NONE', #750, .T. ) ;
#822 = ADVANCED_FACE ( 'NONE', ( #332 ), #351, .F. ) ;
#823 = ORIENTED_EDGE ( 'NONE', *, *, #777, .F. ) ;
#824 = CARTESIAN_POINT ( 'NONE',  ( -39.89999999999999147, -10.92893218813451561, 3.000000000000000000 ) ) ;
#825 = CARTESIAN_POINT ( 'NONE',  ( 34.89999999999999858, -10.92893218813452272, 3.000000000000000000 ) ) ;
#826 = LINE ( 'NONE', #96, #623 ) ;
#827 = ORIENTED_EDGE ( 'NONE', *, *, #806, .F. ) ;
#828 = VECTOR ( 'NONE', #376, 1000.000000000000000 ) ;
#829 = AXIS2_PLACEMENT_3D ( 'NONE', #118, #49, #945 ) ;
#830 = PRODUCT ( 'camera_cover', 'camera_cover', '', ( #663 ) ) ;
#831 = DIRECTION ( 'NONE',  ( -1.000000000000000000, 0.000000000000000000, 0.000000000000000000 ) ) ;
#832 = AXIS2_PLACEMENT_3D ( 'NONE', #728, #795, #934 ) ;
#833 = DIRECTION ( 'NONE',  ( -1.000000000000000000, 1.056826013124967889E-16, -0.000000000000000000 ) ) ;
#834 = PLANE ( 'NONE',  #910 ) ;
#835 = ORIENTED_EDGE ( 'NONE', *, *, #252, .F. ) ;
#836 = LINE ( 'NONE', #922, #540 ) ;
#837 = DIRECTION ( 'NONE',  ( 0.000000000000000000, 0.000000000000000000, 1.000000000000000000 ) ) ;
#838 = EDGE_CURVE ( 'NONE', #120, #273, #849, .T. ) ;
#839 = ORIENTED_EDGE ( 'NONE', *, *, #928, .F. ) ;
#840 = EDGE_CURVE ( 'NONE', #868, #720, #318, .T. ) ;
#841 = EDGE_CURVE ( 'NONE', #631, #706, #856, .T. ) ;
#842 = PLANE ( 'NONE',  #334 ) ;
#843 = DIRECTION ( 'NONE',  ( 0.000000000000000000, 0.000000000000000000, -1.000000000000000000 ) ) ;
#844 = VERTEX_POINT ( 'NONE', #627 ) ;
#845 = ORIENTED_EDGE ( 'NONE', *, *, #89, .F. ) ;
#846 = CIRCLE ( 'NONE', #111, 4.999999999999997335 ) ;
#847 = AXIS2_PLACEMENT_3D ( 'NONE', #744, #466, #677 ) ;
#848 = LINE ( 'NONE', #396, #719 ) ;
#849 = LINE ( 'NONE', #30, #702 ) ;
#850 = EDGE_LOOP ( 'NONE', ( #877, #800, #774, #347 ) ) ;
#851 = LINE ( 'NONE', #775, #689 ) ;
#852 = ORIENTED_EDGE ( 'NONE', *, *, #394, .T. ) ;
#853 = DIRECTION ( 'NONE',  ( 1.000000000000000000, -1.294569758191646909E-16, 0.000000000000000000 ) ) ;
#854 = VERTEX_POINT ( 'NONE', #709 ) ;
#855 = ORIENTED_EDGE ( 'NONE', *, *, #943, .T. ) ;
#856 = CIRCLE ( 'NONE', #890, 1.750000000000001554 ) ;
#857 = VECTOR ( 'NONE', #218, 1000.000000000000000 ) ;
#858 = CARTESIAN_POINT ( 'NONE',  ( -38.43553390593272923, -14.46446609406725337, 3.000000000000000000 ) ) ;
#859 = FACE_OUTER_BOUND ( 'NONE', #97, .T. ) ;
#860 = ORIENTED_EDGE ( 'NONE', *, *, #864, .F. ) ;
#861 = LINE ( 'NONE', #760, #128 ) ;
#862 = DIRECTION ( 'NONE',  ( -0.000000000000000000, -0.000000000000000000, -1.000000000000000000 ) ) ;
#863 = EDGE_LOOP ( 'NONE', ( #497, #63, #55, #367 ) ) ;
#864 = EDGE_CURVE ( 'NONE', #666, #583, #846, .T. ) ;
#865 = ORIENTED_EDGE ( 'NONE', *, *, #454, .T. ) ;
#866 = DIRECTION ( 'NONE',  ( -0.000000000000000000, -0.000000000000000000, -1.000000000000000000 ) ) ;
#867 = EDGE_CURVE ( 'NONE', #142, #333, #624, .T. ) ;
#868 = VERTEX_POINT ( 'NONE', #340 ) ;
#869 = ORIENTED_EDGE ( 'NONE', *, *, #914, .T. ) ;
#870 = LINE ( 'NONE', #508, #888 ) ;
#871 = AXIS2_PLACEMENT_3D ( 'NONE', #447, #286, #134 ) ;
#872 = AXIS2_PLACEMENT_3D ( 'NONE', #242, #249, #613 ) ;
#873 = DIRECTION ( 'NONE',  ( 0.000000000000000000, 0.000000000000000000, 1.000000000000000000 ) ) ;
#874 = CARTESIAN_POINT ( 'NONE',  ( -32.82893218813451597, 13.00000000000000711, 3.000000000000000000 ) ) ;
#875 = AXIS2_PLACEMENT_3D ( 'NONE', #903, #234, #160 ) ;
#876 = FACE_BOUND ( 'NONE', #746, .T. ) ;
#877 = ORIENTED_EDGE ( 'NONE', *, *, #618, .F. ) ;
#878 = DIRECTION ( 'NONE',  ( -0.000000000000000000, -0.000000000000000000, -1.000000000000000000 ) ) ;
#879 = EDGE_CURVE ( 'NONE', #631, #438, #486, .T. ) ;
#880 = ORIENTED_EDGE ( 'NONE', *, *, #530, .T. ) ;
#881 = FACE_OUTER_BOUND ( 'NONE', #28, .T. ) ;
#882 = ORIENTED_EDGE ( 'NONE', *, *, #417, .T. ) ;
#883 = DIRECTION ( 'NONE',  ( 1.000000000000000000, -1.294569758191648388E-16, 0.000000000000000000 ) ) ;
#884 = DIRECTION ( 'NONE',  ( 0.000000000000000000, 0.000000000000000000, 1.000000000000000000 ) ) ;
#885 = DIRECTION ( 'NONE',  ( -0.000000000000000000, -0.000000000000000000, -1.000000000000000000 ) ) ;
#886 = ORIENTED_EDGE ( 'NONE', *, *, #297, .F. ) ;
#887 = DIRECTION ( 'NONE',  ( -0.000000000000000000, -0.000000000000000000, -1.000000000000000000 ) ) ;
#888 = VECTOR ( 'NONE', #887, 1000.000000000000000 ) ;
#889 = DIRECTION ( 'NONE',  ( 1.000000000000000000, 0.000000000000000000, 0.000000000000000000 ) ) ;
#890 = AXIS2_PLACEMENT_3D ( 'NONE', #636, #415, #337 ) ;
#891 = DIRECTION ( 'NONE',  ( 1.000000000000000000, 0.000000000000000000, 0.000000000000000000 ) ) ;
#892 = AXIS2_PLACEMENT_3D ( 'NONE', #686, #254, #544 ) ;
#893 = ORIENTED_EDGE ( 'NONE', *, *, #179, .T. ) ;
#894 = CIRCLE ( 'NONE', #509, 4.999999999999997335 ) ;
#895 = CARTESIAN_POINT ( 'NONE',  ( -34.89999999999999147, -10.92893218813451384, 3.000000000000000000 ) ) ;
#896 = APPLICATION_CONTEXT ( 'automotive_design' ) ;
#897 = EDGE_CURVE ( 'NONE', #102, #432, #630, .T. ) ;
#898 = CARTESIAN_POINT ( 'NONE',  ( -32.82893218813451597, 18.00000000000000711, 0.000000000000000000 ) ) ;
#899 = FACE_OUTER_BOUND ( 'NONE', #942, .T. ) ;
#900 = ORIENTED_EDGE ( 'NONE', *, *, #698, .F. ) ;
#901 = EDGE_CURVE ( 'NONE', #102, #493, #851, .T. ) ;
#902 = DIRECTION ( 'NONE',  ( 0.000000000000000000, 0.000000000000000000, 1.000000000000000000 ) ) ;
#903 = CARTESIAN_POINT ( 'NONE',  ( -32.82893218813451597, 13.00000000000000711, 3.000000000000000000 ) ) ;
#904 = CARTESIAN_POINT ( 'NONE',  ( 0.000000000000000000, 0.000000000000000000, 0.000000000000000000 ) ) ;
#905 = ORIENTED_EDGE ( 'NONE', *, *, #838, .T. ) ;
#906 = DIRECTION ( 'NONE',  ( -1.000000000000000000, 0.000000000000000000, 0.000000000000000000 ) ) ;
#907 = CARTESIAN_POINT ( 'NONE',  ( -31.24999999999999645, -13.50000000000000178, 3.000000000000000000 ) ) ;
#908 = FACE_OUTER_BOUND ( 'NONE', #446, .T. ) ;
#909 = ORIENTED_EDGE ( 'NONE', *, *, #788, .F. ) ;
#910 = AXIS2_PLACEMENT_3D ( 'NONE', #83, #754, #167 ) ;
#911 = AXIS2_PLACEMENT_3D ( 'NONE', #489, #559, #108 ) ;
#912 = DIRECTION ( 'NONE',  ( -1.000000000000000000, 0.000000000000000000, 0.000000000000000000 ) ) ;
#913 = AXIS2_PLACEMENT_3D ( 'NONE', #607, #811, #449 ) ;
#914 = EDGE_CURVE ( 'NONE', #854, #580, #562, .T. ) ;
#915 = CARTESIAN_POINT ( 'NONE',  ( 0.000000000000000000, 0.000000000000000000, 3.000000000000000000 ) ) ;
#916 = CARTESIAN_POINT ( 'NONE',  ( 32.82893218813453018, 13.00000000000000000, 0.000000000000000000 ) ) ;
#917 = ORIENTED_EDGE ( 'NONE', *, *, #454, .F. ) ;
#918 = EDGE_CURVE ( 'NONE', #629, #608, #265, .T. ) ;
#919 = CARTESIAN_POINT ( 'NONE',  ( 37.82893218813453018, -15.07106781186546840, 3.000000000000000000 ) ) ;
#920 = CARTESIAN_POINT ( 'NONE',  ( 38.43553390593273633, -14.46446609406725869, 0.000000000000000000 ) ) ;
#921 = ORIENTED_EDGE ( 'NONE', *, *, #841, .F. ) ;
#922 = CARTESIAN_POINT ( 'NONE',  ( -30.75786437626904046, -17.99999999999999645, 3.000000000000000000 ) ) ;
#923 = DIRECTION ( 'NONE',  ( -1.000000000000000000, 0.000000000000000000, 0.000000000000000000 ) ) ;
#924 = VERTEX_POINT ( 'NONE', #196 ) ;
#925 = CIRCLE ( 'NONE', #778, 10.00000000000000000 ) ;
#926 = AXIS2_PLACEMENT_3D ( 'NONE', #541, #739, #369 ) ;
#927 = AXIS2_PLACEMENT_3D ( 'NONE', #514, #590, #207 ) ;
#928 = EDGE_CURVE ( 'NONE', #45, #526, #224, .T. ) ;
#929 = DIRECTION ( 'NONE',  ( -0.000000000000000000, -0.000000000000000000, -1.000000000000000000 ) ) ;
#930 = VERTEX_POINT ( 'NONE', #858 ) ;
#931 = DIRECTION ( 'NONE',  ( 0.000000000000000000, 0.000000000000000000, 1.000000000000000000 ) ) ;
#932 = ORIENTED_EDGE ( 'NONE', *, *, #354, .F. ) ;
#933 = CARTESIAN_POINT ( 'NONE',  ( -33.00000000000000000, -13.50000000000000178, 3.000000000000000000 ) ) ;
#934 = DIRECTION ( 'NONE',  ( -0.7071067811865474617, 0.7071067811865474617, 0.000000000000000000 ) ) ;
#935 = ORIENTED_EDGE ( 'NONE', *, *, #250, .T. ) ;
#936 = LINE ( 'NONE', #919, #258 ) ;
#937 = CIRCLE ( 'NONE', #488, 1.749999999999980682 ) ;
#938 = EDGE_CURVE ( 'NONE', #31, #438, #635, .T. ) ;
#939 = AXIS2_PLACEMENT_3D ( 'NONE', #47, #342, #615 ) ;
#940 = CARTESIAN_POINT ( 'NONE',  ( 10.00000000000000000, 1.224646799147353256E-15, 3.000000000000000000 ) ) ;
#941 = ORIENTED_EDGE ( 'NONE', *, *, #928, .T. ) ;
#942 = EDGE_LOOP ( 'NONE', ( #900, #855, #827, #649, #532, #759, #633, #296, #479, #512, #289, #37, #504, #116, #555, #909 ) ) ;
#943 = EDGE_CURVE ( 'NONE', #643, #924, #395, .T. ) ;
#944 = CARTESIAN_POINT ( 'NONE',  ( 0.000000000000000000, 0.000000000000000000, 3.000000000000000000 ) ) ;
#945 = DIRECTION ( 'NONE',  ( 1.000000000000000000, 0.000000000000000000, 0.000000000000000000 ) ) ;
#946 = LINE ( 'NONE', #278, #321 ) ;
#947 = ORIENTED_EDGE ( 'NONE', *, *, #419, .T. ) ;
#948 = DIRECTION ( 'NONE',  ( 0.000000000000000000, 0.000000000000000000, 1.000000000000000000 ) ) ;
#949 = FACE_OUTER_BOUND ( 'NONE', #967, .T. ) ;
#950 = FACE_BOUND ( 'NONE', #14, .T. ) ;
#951 = EDGE_LOOP ( 'NONE', ( #781, #272, #782, #517 ) ) ;
#952 = DIRECTION ( 'NONE',  ( 1.000000000000000000, 0.000000000000000000, -0.000000000000000000 ) ) ;
#953 = VECTOR ( 'NONE', #76, 1000.000000000000000 ) ;
#954 = AXIS2_PLACEMENT_3D ( 'NONE', #403, #246, #545 ) ;
#955 = DIRECTION ( 'NONE',  ( -0.7071067811865479058, 0.7071067811865472397, -0.000000000000000000 ) ) ;
#956 = CIRCLE ( 'NONE', #426, 4.999999999999997335 ) ;
#957 = CARTESIAN_POINT ( 'NONE',  ( -34.89999999999999147, -10.92893218813451384, 0.000000000000000000 ) ) ;
#958 = ORIENTED_EDGE ( 'NONE', *, *, #777, .T. ) ;
#959 = CARTESIAN_POINT ( 'NONE',  ( -10.00000000000000000, 0.000000000000000000, 0.000000000000000000 ) ) ;
#960 = LINE ( 'NONE', #151, #857 ) ;
#961 = DIRECTION ( 'NONE',  ( -0.000000000000000000, -0.000000000000000000, -1.000000000000000000 ) ) ;
#962 = ORIENTED_EDGE ( 'NONE', *, *, #336, .T. ) ;
#963 = CARTESIAN_POINT ( 'NONE',  ( 39.89999999999999858, -10.92893218813452272, 3.000000000000000000 ) ) ;
#964 = SHAPE_DEFINITION_REPRESENTATION ( #682, #262 ) ;
#965 = LINE ( 'NONE', #907, #146 ) ;
#966 = CARTESIAN_POINT ( 'NONE',  ( 34.74999999999997158, -13.50000000000005329, 3.000000000000000000 ) ) ;
#967 = EDGE_LOOP ( 'NONE', ( #684, #789, #356, #704 ) ) ;
#968 = DIRECTION ( 'NONE',  ( 1.000000000000000000, 0.000000000000000000, 0.000000000000000000 ) ) ;
#969 = EDGE_CURVE ( 'NONE', #385, #425, #98, .T. ) ;
ENDSEC;
END-ISO-10303-21;
