ISO-10303-21;
HEADER;
FILE_DESCRIPTION (( 'STEP AP214' ),
    '1' );
FILE_NAME ('camera_cover.STEP',
    '2026-06-10T08:19:18',
    ( '' ),
    ( '' ),
    'SwSTEP 2.0',
    'SolidWorks 2024',
    '' );
FILE_SCHEMA (( 'AUTOMOTIVE_DESIGN' ));
ENDSEC;

DATA;
#1 = CARTESIAN_POINT ( 'NONE',  ( 39.90000000000000568, 10.92893218813450851, 3.000000000000000000 ) ) ;
#2 = DIRECTION ( 'NONE',  ( 1.000000000000000000, 0.000000000000000000, 0.000000000000000000 ) ) ;
#3 = VERTEX_POINT ( 'NONE', #313 ) ;
#4 = AXIS2_PLACEMENT_3D ( 'NONE', #330, #925, #768 ) ;
#5 = AXIS2_PLACEMENT_3D ( 'NONE', #640, #853, #494 ) ;
#6 = CYLINDRICAL_SURFACE ( 'NONE', #339, 1.749999999999991118 ) ;
#7 = AXIS2_PLACEMENT_3D ( 'NONE', #281, #277, #876 ) ;
#8 = LINE ( 'NONE', #683, #582 ) ;
#9 = ORIENTED_EDGE ( 'NONE', *, *, #44, .F. ) ;
#10 = ADVANCED_FACE ( 'NONE', ( #716 ), #864, .F. ) ;
#11 = ORIENTED_EDGE ( 'NONE', *, *, #713, .F. ) ;
#12 = FACE_OUTER_BOUND ( 'NONE', #786, .T. ) ;
#13 = DIRECTION ( 'NONE',  ( -3.174552547521865467E-16, -1.000000000000000000, 0.000000000000000000 ) ) ;
#14 = DIRECTION ( 'NONE',  ( 1.000000000000000000, 0.000000000000000000, 0.000000000000000000 ) ) ;
#15 = ORIENTED_EDGE ( 'NONE', *, *, #200, .T. ) ;
#16 = ORIENTED_EDGE ( 'NONE', *, *, #248, .F. ) ;
#17 = EDGE_CURVE ( 'NONE', #585, #323, #723, .T. ) ;
#18 = VECTOR ( 'NONE', #27, 1000.000000000000000 ) ;
#19 = DIRECTION ( 'NONE',  ( 0.000000000000000000, 0.000000000000000000, -1.000000000000000000 ) ) ;
#20 = DIRECTION ( 'NONE',  ( -0.000000000000000000, -0.000000000000000000, -1.000000000000000000 ) ) ;
#21 = ORIENTED_EDGE ( 'NONE', *, *, #550, .T. ) ;
#22 = VERTEX_POINT ( 'NONE', #703 ) ;
#23 = DIRECTION ( 'NONE',  ( -0.000000000000000000, -0.000000000000000000, -1.000000000000000000 ) ) ;
#24 = ADVANCED_FACE ( 'NONE', ( #502 ), #563, .T. ) ;
#25 = ADVANCED_FACE ( 'NONE', ( #942 ), #193, .F. ) ;
#26 = CARTESIAN_POINT ( 'NONE',  ( -38.43553390593272923, 14.46446609406726225, 0.000000000000000000 ) ) ;
#27 = DIRECTION ( 'NONE',  ( -0.000000000000000000, -0.000000000000000000, -1.000000000000000000 ) ) ;
#28 = EDGE_LOOP ( 'NONE', ( #617, #108 ) ) ;
#29 = ORIENTED_EDGE ( 'NONE', *, *, #643, .F. ) ;
#30 = CARTESIAN_POINT ( 'NONE',  ( -33.00000000000000000, -13.50000000000000178, 3.000000000000000000 ) ) ;
#31 = DIRECTION ( 'NONE',  ( -1.000000000000000000, 0.000000000000000000, 0.000000000000000000 ) ) ;
#32 = DIRECTION ( 'NONE',  ( -0.000000000000000000, -0.000000000000000000, -1.000000000000000000 ) ) ;
#33 = CARTESIAN_POINT ( 'NONE',  ( -39.89999999999999147, -10.92893218813451561, 0.000000000000000000 ) ) ;
#34 = ORIENTED_EDGE ( 'NONE', *, *, #526, .F. ) ;
#35 = CIRCLE ( 'NONE', #395, 1.750000000000005107 ) ;
#36 = LINE ( 'NONE', #336, #158 ) ;
#37 = CARTESIAN_POINT ( 'NONE',  ( 0.000000000000000000, 0.000000000000000000, 3.000000000000000000 ) ) ;
#38 = VERTEX_POINT ( 'NONE', #490 ) ;
#39 = AXIS2_PLACEMENT_3D ( 'NONE', #698, #845, #31 ) ;
#40 = CARTESIAN_POINT ( 'NONE',  ( 32.82893218813453728, 18.00000000000000000, 0.000000000000000000 ) ) ;
#41 = DIRECTION ( 'NONE',  ( -0.7071067811865472397, -0.7071067811865479058, 0.000000000000000000 ) ) ;
#42 = VERTEX_POINT ( 'NONE', #940 ) ;
#43 = PRODUCT_DEFINITION_SHAPE ( 'NONE', 'NONE',  #324 ) ;
#44 = EDGE_CURVE ( 'NONE', #425, #364, #561, .T. ) ;
#45 = DIRECTION ( 'NONE',  ( -1.000000000000000000, 0.000000000000000000, 0.000000000000000000 ) ) ;
#46 = FACE_BOUND ( 'NONE', #865, .T. ) ;
#47 = ORIENTED_EDGE ( 'NONE', *, *, #774, .F. ) ;
#48 = DIRECTION ( 'NONE',  ( -0.000000000000000000, -0.000000000000000000, -1.000000000000000000 ) ) ;
#49 = DIRECTION ( 'NONE',  ( 1.000000000000000000, 0.000000000000000000, 0.000000000000000000 ) ) ;
#50 = ORIENTED_EDGE ( 'NONE', *, *, #565, .T. ) ;
#51 = EDGE_CURVE ( 'NONE', #849, #747, #411, .T. ) ;
#52 = EDGE_CURVE ( 'NONE', #849, #898, #571, .T. ) ;
#53 = VECTOR ( 'NONE', #221, 1000.000000000000000 ) ;
#54 = DIRECTION ( 'NONE',  ( 0.000000000000000000, 0.000000000000000000, 1.000000000000000000 ) ) ;
#55 = CARTESIAN_POINT ( 'NONE',  ( -38.43553390593272923, 14.46446609406726225, 0.000000000000000000 ) ) ;
#56 = ORIENTED_EDGE ( 'NONE', *, *, #51, .T. ) ;
#57 = AXIS2_PLACEMENT_3D ( 'NONE', #260, #41, #197 ) ;
#58 = VECTOR ( 'NONE', #424, 1000.000000000000000 ) ;
#59 = CARTESIAN_POINT ( 'NONE',  ( -31.24999999999999645, -13.50000000000000178, 3.000000000000000000 ) ) ;
#60 = DIRECTION ( 'NONE',  ( -0.000000000000000000, -0.000000000000000000, -1.000000000000000000 ) ) ;
#61 = ORIENTED_EDGE ( 'NONE', *, *, #673, .T. ) ;
#62 = FACE_OUTER_BOUND ( 'NONE', #544, .T. ) ;
#63 = DIRECTION ( 'NONE',  ( 1.000000000000000000, 0.000000000000000000, 0.000000000000000000 ) ) ;
#64 = AXIS2_PLACEMENT_3D ( 'NONE', #635, #498, #781 ) ;
#65 = DIRECTION ( 'NONE',  ( 0.7071067811865475727, 0.7071067811865475727, -0.000000000000000000 ) ) ;
#66 = ORIENTED_EDGE ( 'NONE', *, *, #637, .T. ) ;
#67 = DIRECTION ( 'NONE',  ( 0.7071067811865470176, 0.7071067811865480168, -0.000000000000000000 ) ) ;
#68 = CARTESIAN_POINT ( 'NONE',  ( -36.36446609406725372, 16.53553390593274486, 3.000000000000000000 ) ) ;
#69 = EDGE_LOOP ( 'NONE', ( #162, #271, #212, #577 ) ) ;
#70 = AXIS2_PLACEMENT_3D ( 'NONE', #833, #311, #908 ) ;
#71 = EDGE_CURVE ( 'NONE', #948, #102, #629, .T. ) ;
#72 = PRODUCT_CONTEXT ( 'NONE', #438, 'mechanical' ) ;
#73 = CYLINDRICAL_SURFACE ( 'NONE', #484, 1.750000000000001554 ) ;
#74 = DIRECTION ( 'NONE',  ( 1.000000000000000000, 0.000000000000000000, 0.000000000000000000 ) ) ;
#75 = EDGE_LOOP ( 'NONE', ( #34, #255, #712, #564, #533, #450, #874, #825, #847, #421, #695, #470, #638, #373, #911, #396 ) ) ;
#76 = CARTESIAN_POINT ( 'NONE',  ( -34.89999999999999147, -10.92893218813451384, 0.000000000000000000 ) ) ;
#77 = LINE ( 'NONE', #249, #79 ) ;
#78 = ORIENTED_EDGE ( 'NONE', *, *, #888, .F. ) ;
#79 = VECTOR ( 'NONE', #322, 1000.000000000000000 ) ;
#80 = APPLICATION_PROTOCOL_DEFINITION ( 'draft international standard', 'automotive_design', 1998, #234 ) ;
#81 = FACE_OUTER_BOUND ( 'NONE', #685, .T. ) ;
#82 = EDGE_CURVE ( 'NONE', #898, #441, #135, .T. ) ;
#83 = CARTESIAN_POINT ( 'NONE',  ( 38.43553390593273633, -14.46446609406725692, 0.000000000000000000 ) ) ;
#84 = VERTEX_POINT ( 'NONE', #33 ) ;
#85 = EDGE_LOOP ( 'NONE', ( #631, #503, #393, #471 ) ) ;
#86 = MECHANICAL_DESIGN_GEOMETRIC_PRESENTATION_REPRESENTATION (  '', ( #275 ), #163 ) ;
#87 = CARTESIAN_POINT ( 'NONE',  ( -32.82893218813451597, 13.00000000000000711, 0.000000000000000000 ) ) ;
#88 = CIRCLE ( 'NONE', #229, 1.750000000000005107 ) ;
#89 = SURFACE_STYLE_FILL_AREA ( #155 ) ;
#90 = DIRECTION ( 'NONE',  ( -0.000000000000000000, -0.000000000000000000, -1.000000000000000000 ) ) ;
#91 = ORIENTED_EDGE ( 'NONE', *, *, #187, .F. ) ;
#92 = ORIENTED_EDGE ( 'NONE', *, *, #576, .F. ) ;
#93 = DIRECTION ( 'NONE',  ( 1.000000000000000000, 0.000000000000000000, 0.000000000000000000 ) ) ;
#94 = DIRECTION ( 'NONE',  ( -0.000000000000000000, -0.000000000000000000, -1.000000000000000000 ) ) ;
#95 = EDGE_LOOP ( 'NONE', ( #480, #368 ) ) ;
#96 = ORIENTED_EDGE ( 'NONE', *, *, #737, .T. ) ;
#97 = DIRECTION ( 'NONE',  ( 1.000000000000000000, 0.000000000000000000, 0.000000000000000000 ) ) ;
#98 = EDGE_CURVE ( 'NONE', #251, #879, #680, .T. ) ;
#99 =( NAMED_UNIT ( * ) PLANE_ANGLE_UNIT ( ) SI_UNIT ( $, .RADIAN. ) );
#100 = CARTESIAN_POINT ( 'NONE',  ( -34.75000000000000000, -13.50000000000000178, 0.000000000000000000 ) ) ;
#101 = VERTEX_POINT ( 'NONE', #415 ) ;
#102 = VERTEX_POINT ( 'NONE', #707 ) ;
#103 = DIRECTION ( 'NONE',  ( 0.000000000000000000, 0.000000000000000000, 1.000000000000000000 ) ) ;
#104 = AXIS2_PLACEMENT_3D ( 'NONE', #217, #147, #668 ) ;
#105 = DIRECTION ( 'NONE',  ( 1.000000000000000000, 0.000000000000000000, 0.000000000000000000 ) ) ;
#106 = AXIS2_PLACEMENT_3D ( 'NONE', #728, #54, #293 ) ;
#107 = DIRECTION ( 'NONE',  ( -0.000000000000000000, -0.000000000000000000, -1.000000000000000000 ) ) ;
#108 = ORIENTED_EDGE ( 'NONE', *, *, #921, .F. ) ;
#109 = CARTESIAN_POINT ( 'NONE',  ( -32.82893218813451597, 18.00000000000000711, 3.000000000000000000 ) ) ;
#110 = DIRECTION ( 'NONE',  ( -0.000000000000000000, -0.000000000000000000, -1.000000000000000000 ) ) ;
#111 = ORIENTED_EDGE ( 'NONE', *, *, #504, .T. ) ;
#112 = DIRECTION ( 'NONE',  ( -1.000000000000000000, 0.000000000000000000, 0.000000000000000000 ) ) ;
#113 = DIRECTION ( 'NONE',  ( 0.000000000000000000, 0.000000000000000000, 1.000000000000000000 ) ) ;
#114 = EDGE_CURVE ( 'NONE', #166, #928, #265, .T. ) ;
#115 = ORIENTED_EDGE ( 'NONE', *, *, #937, .T. ) ;
#116 = VECTOR ( 'NONE', #60, 1000.000000000000000 ) ;
#117 = ADVANCED_FACE ( 'NONE', ( #499, #636, #46, #935, #793, #270 ), #128, .F. ) ;
#118 = DIRECTION ( 'NONE',  ( 0.000000000000000000, 0.000000000000000000, 1.000000000000000000 ) ) ;
#119 = CARTESIAN_POINT ( 'NONE',  ( 34.90000000000000568, 10.92893218813451561, 3.000000000000000000 ) ) ;
#120 = ORIENTED_EDGE ( 'NONE', *, *, #451, .F. ) ;
#121 =( LENGTH_UNIT ( ) NAMED_UNIT ( * ) SI_UNIT ( .MILLI., .METRE. ) );
#122 = CARTESIAN_POINT ( 'NONE',  ( -31.24999999999999645, -13.50000000000000178, 3.000000000000000000 ) ) ;
#123 = CARTESIAN_POINT ( 'NONE',  ( 32.82893218813453018, 13.00000000000000000, 3.000000000000000000 ) ) ;
#124 = ORIENTED_EDGE ( 'NONE', *, *, #405, .F. ) ;
#125 = EDGE_CURVE ( 'NONE', #928, #747, #785, .T. ) ;
#126 = EDGE_CURVE ( 'NONE', #757, #380, #803, .T. ) ;
#127 = CIRCLE ( 'NONE', #953, 10.00000000000000000 ) ;
#128 = PLANE ( 'NONE',  #354 ) ;
#129 = CYLINDRICAL_SURFACE ( 'NONE', #181, 4.999999999999997335 ) ;
#130 = VERTEX_POINT ( 'NONE', #869 ) ;
#131 = VECTOR ( 'NONE', #367, 1000.000000000000000 ) ;
#132 = DIRECTION ( 'NONE',  ( 0.000000000000000000, 0.000000000000000000, 1.000000000000000000 ) ) ;
#133 = CARTESIAN_POINT ( 'NONE',  ( 32.99999999999997158, -13.50000000000005329, 3.000000000000000000 ) ) ;
#134 = ORIENTED_EDGE ( 'NONE', *, *, #394, .F. ) ;
#135 = CIRCLE ( 'NONE', #383, 10.00000000000000178 ) ;
#136 =( NAMED_UNIT ( * ) PLANE_ANGLE_UNIT ( ) SI_UNIT ( $, .RADIAN. ) );
#137 = CARTESIAN_POINT ( 'NONE',  ( -32.82893218813451597, 13.00000000000000711, 3.000000000000000000 ) ) ;
#138 = DIRECTION ( 'NONE',  ( 1.000000000000000000, 0.000000000000000000, 0.000000000000000000 ) ) ;
#139 = DIRECTION ( 'NONE',  ( -1.000000000000000000, 0.000000000000000000, 0.000000000000000000 ) ) ;
#140 = ORIENTED_EDGE ( 'NONE', *, *, #888, .T. ) ;
#141 = LINE ( 'NONE', #719, #513 ) ;
#142 = AXIS2_PLACEMENT_3D ( 'NONE', #599, #169, #14 ) ;
#143 = LINE ( 'NONE', #68, #53 ) ;
#144 = VERTEX_POINT ( 'NONE', #700 ) ;
#145 = EDGE_CURVE ( 'NONE', #144, #227, #626, .T. ) ;
#146 = CARTESIAN_POINT ( 'NONE',  ( -34.57893218813451597, 13.00000000000000711, 0.000000000000000000 ) ) ;
#147 = DIRECTION ( 'NONE',  ( 0.000000000000000000, 0.000000000000000000, 1.000000000000000000 ) ) ;
#148 = ORIENTED_EDGE ( 'NONE', *, *, #431, .F. ) ;
#149 = AXIS2_PLACEMENT_3D ( 'NONE', #820, #871, #353 ) ;
#150 = DIRECTION ( 'NONE',  ( -0.7071067811865479058, 0.7071067811865472397, -0.000000000000000000 ) ) ;
#151 = DIRECTION ( 'NONE',  ( -0.000000000000000000, -0.000000000000000000, 1.000000000000000000 ) ) ;
#152 = EDGE_LOOP ( 'NONE', ( #800, #549, #289, #124 ) ) ;
#153 = EDGE_CURVE ( 'NONE', #3, #203, #932, .T. ) ;
#154 = EDGE_CURVE ( 'NONE', #779, #3, #141, .T. ) ;
#155 = FILL_AREA_STYLE ('',( #240 ) ) ;
#156 = DIRECTION ( 'NONE',  ( 1.000000000000000000, 0.000000000000000000, 0.000000000000000000 ) ) ;
#157 = EDGE_LOOP ( 'NONE', ( #922, #359, #328, #408 ) ) ;
#158 = VECTOR ( 'NONE', #718, 1000.000000000000000 ) ;
#159 = ORIENTED_EDGE ( 'NONE', *, *, #71, .T. ) ;
#160 = LINE ( 'NONE', #26, #195 ) ;
#161 = CARTESIAN_POINT ( 'NONE',  ( 38.43553390593273633, -14.46446609406725692, 3.000000000000000000 ) ) ;
#162 = ORIENTED_EDGE ( 'NONE', *, *, #303, .T. ) ;
#163 =( GEOMETRIC_REPRESENTATION_CONTEXT ( 3 ) GLOBAL_UNCERTAINTY_ASSIGNED_CONTEXT ( ( #178 ) ) GLOBAL_UNIT_ASSIGNED_CONTEXT ( ( #386, #99, #460 ) ) REPRESENTATION_CONTEXT ( 'NONE', 'WORKASPACE' ) );
#164 = CARTESIAN_POINT ( 'NONE',  ( 32.99999999999997158, -13.50000000000005329, 3.000000000000000000 ) ) ;
#165 = DIRECTION ( 'NONE',  ( 1.000000000000000000, 0.000000000000000000, 0.000000000000000000 ) ) ;
#166 = VERTEX_POINT ( 'NONE', #516 ) ;
#167 = FACE_OUTER_BOUND ( 'NONE', #242, .T. ) ;
#168 = DIRECTION ( 'NONE',  ( -1.000000000000000000, 3.174552547521865467E-16, 0.000000000000000000 ) ) ;
#169 = DIRECTION ( 'NONE',  ( 0.000000000000000000, 0.000000000000000000, 1.000000000000000000 ) ) ;
#170 = ORIENTED_EDGE ( 'NONE', *, *, #704, .T. ) ;
#171 = EDGE_CURVE ( 'NONE', #488, #42, #725, .T. ) ;
#172 = VERTEX_POINT ( 'NONE', #146 ) ;
#173 = CARTESIAN_POINT ( 'NONE',  ( 38.43553390593273633, -14.46446609406725869, 3.000000000000000000 ) ) ;
#174 = CARTESIAN_POINT ( 'NONE',  ( -32.82893218813451597, 13.00000000000000711, 0.000000000000000000 ) ) ;
#175 = CYLINDRICAL_SURFACE ( 'NONE', #906, 10.00000000000000000 ) ;
#176 = ORIENTED_EDGE ( 'NONE', *, *, #937, .F. ) ;
#177 = EDGE_CURVE ( 'NONE', #522, #964, #895, .T. ) ;
#178 = UNCERTAINTY_MEASURE_WITH_UNIT (LENGTH_MEASURE( 1.000000000000000082E-05 ), #386, 'distance_accuracy_value', 'NONE');
#179 = ORIENTED_EDGE ( 'NONE', *, *, #834, .F. ) ;
#180 = DIRECTION ( 'NONE',  ( 1.000000000000000000, 0.000000000000000000, 0.000000000000000000 ) ) ;
#181 = AXIS2_PLACEMENT_3D ( 'NONE', #428, #720, #355 ) ;
#182 = VECTOR ( 'NONE', #67, 1000.000000000000000 ) ;
#183 = DIRECTION ( 'NONE',  ( -1.000000000000000000, 0.000000000000000000, 0.000000000000000000 ) ) ;
#184 = DIRECTION ( 'NONE',  ( 0.000000000000000000, 0.000000000000000000, 1.000000000000000000 ) ) ;
#185 = VERTEX_POINT ( 'NONE', #587 ) ;
#186 = AXIS2_PLACEMENT_3D ( 'NONE', #123, #575, #278 ) ;
#187 = EDGE_CURVE ( 'NONE', #409, #251, #734, .T. ) ;
#188 = DIRECTION ( 'NONE',  ( 0.000000000000000000, 0.000000000000000000, 1.000000000000000000 ) ) ;
#189 = DIRECTION ( 'NONE',  ( 1.000000000000000000, 0.000000000000000000, 0.000000000000000000 ) ) ;
#190 = VERTEX_POINT ( 'NONE', #448 ) ;
#191 = CIRCLE ( 'NONE', #686, 10.00000000000000000 ) ;
#192 = CYLINDRICAL_SURFACE ( 'NONE', #335, 4.999999999999997335 ) ;
#193 = PLANE ( 'NONE',  #57 ) ;
#194 = VERTEX_POINT ( 'NONE', #59 ) ;
#195 = VECTOR ( 'NONE', #913, 1000.000000000000114 ) ;
#196 = DIRECTION ( 'NONE',  ( -1.056826013124967889E-16, -1.000000000000000000, 0.000000000000000000 ) ) ;
#197 = DIRECTION ( 'NONE',  ( 0.7071067811865479058, -0.7071067811865472397, 0.000000000000000000 ) ) ;
#198 = EDGE_CURVE ( 'NONE', #964, #811, #297, .T. ) ;
#199 = ORIENTED_EDGE ( 'NONE', *, *, #673, .F. ) ;
#200 = EDGE_CURVE ( 'NONE', #842, #364, #809, .T. ) ;
#201 = PRODUCT ( 'camera_cover', 'camera_cover', '', ( #72 ) ) ;
#202 = CARTESIAN_POINT ( 'NONE',  ( -30.75786437626904046, -7.999999999999992895, 0.000000000000000000 ) ) ;
#203 = VERTEX_POINT ( 'NONE', #444 ) ;
#204 = VECTOR ( 'NONE', #48, 1000.000000000000000 ) ;
#205 = CARTESIAN_POINT ( 'NONE',  ( 0.000000000000000000, 0.000000000000000000, 0.000000000000000000 ) ) ;
#206 = CYLINDRICAL_SURFACE ( 'NONE', #404, 4.999999999999997335 ) ;
#207 = CARTESIAN_POINT ( 'NONE',  ( 34.74999999999997158, -13.50000000000005329, 3.000000000000000000 ) ) ;
#208 = ORIENTED_EDGE ( 'NONE', *, *, #248, .T. ) ;
#209 = CIRCLE ( 'NONE', #70, 4.999999999999997335 ) ;
#210 = CARTESIAN_POINT ( 'NONE',  ( -38.43553390593272923, 14.46446609406726225, 3.000000000000000000 ) ) ;
#211 = LINE ( 'NONE', #445, #832 ) ;
#212 = ORIENTED_EDGE ( 'NONE', *, *, #71, .F. ) ;
#213 = AXIS2_PLACEMENT_3D ( 'NONE', #87, #398, #844 ) ;
#214 = AXIS2_PLACEMENT_3D ( 'NONE', #427, #663, #63 ) ;
#215 = ADVANCED_FACE ( 'NONE', ( #592 ), #73, .F. ) ;
#216 = DIRECTION ( 'NONE',  ( 0.000000000000000000, 0.000000000000000000, 1.000000000000000000 ) ) ;
#217 = CARTESIAN_POINT ( 'NONE',  ( 32.99999999999997158, -13.50000000000005329, 3.000000000000000000 ) ) ;
#218 = ORIENTED_EDGE ( 'NONE', *, *, #461, .T. ) ;
#219 = EDGE_CURVE ( 'NONE', #589, #190, #88, .T. ) ;
#220 = FACE_BOUND ( 'NONE', #904, .T. ) ;
#221 = DIRECTION ( 'NONE',  ( -0.000000000000000000, -0.000000000000000000, -1.000000000000000000 ) ) ;
#222 = ORIENTED_EDGE ( 'NONE', *, *, #671, .F. ) ;
#223 = CARTESIAN_POINT ( 'NONE',  ( -34.89999999999999147, -10.92893218813451384, 3.000000000000000000 ) ) ;
#224 = VECTOR ( 'NONE', #358, 1000.000000000000000 ) ;
#225 = DIRECTION ( 'NONE',  ( -0.7071067811865474617, 0.7071067811865474617, 0.000000000000000000 ) ) ;
#226 = ADVANCED_FACE ( 'NONE', ( #887, #966, #579, #439, #658, #220 ), #653, .T. ) ;
#227 = VERTEX_POINT ( 'NONE', #945 ) ;
#228 = ADVANCED_FACE ( 'NONE', ( #302 ), #206, .T. ) ;
#229 = AXIS2_PLACEMENT_3D ( 'NONE', #366, #216, #138 ) ;
#230 = FACE_OUTER_BOUND ( 'NONE', #870, .T. ) ;
#231 = VECTOR ( 'NONE', #931, 999.9999999999998863 ) ;
#232 = DIRECTION ( 'NONE',  ( 0.000000000000000000, 0.000000000000000000, 1.000000000000000000 ) ) ;
#233 = ORIENTED_EDGE ( 'NONE', *, *, #154, .T. ) ;
#234 = APPLICATION_CONTEXT ( 'automotive_design' ) ;
#235 = CARTESIAN_POINT ( 'NONE',  ( 32.82893218813453018, 13.00000000000000000, 0.000000000000000000 ) ) ;
#236 = LINE ( 'NONE', #316, #238 ) ;
#237 = ORIENTED_EDGE ( 'NONE', *, *, #731, .F. ) ;
#238 = VECTOR ( 'NONE', #312, 1000.000000000000000 ) ;
#239 = ORIENTED_EDGE ( 'NONE', *, *, #578, .F. ) ;
#240 = FILL_AREA_STYLE_COLOUR ( '', #944 ) ;
#241 = LINE ( 'NONE', #764, #18 ) ;
#242 = EDGE_LOOP ( 'NONE', ( #464, #390, #476, #47 ) ) ;
#243 = ORIENTED_EDGE ( 'NONE', *, *, #126, .T. ) ;
#244 = AXIS2_PLACEMENT_3D ( 'NONE', #729, #65, #225 ) ;
#245 = DIRECTION ( 'NONE',  ( 0.000000000000000000, 0.000000000000000000, 1.000000000000000000 ) ) ;
#246 = AXIS2_PLACEMENT_3D ( 'NONE', #137, #657, #282 ) ;
#247 = FACE_OUTER_BOUND ( 'NONE', #85, .T. ) ;
#248 = EDGE_CURVE ( 'NONE', #748, #488, #891, .T. ) ;
#249 = CARTESIAN_POINT ( 'NONE',  ( 39.90000000000000568, 10.92893218813450673, 3.000000000000000000 ) ) ;
#250 = ORIENTED_EDGE ( 'NONE', *, *, #187, .T. ) ;
#251 = VERTEX_POINT ( 'NONE', #525 ) ;
#252 = EDGE_CURVE ( 'NONE', #194, #796, #573, .T. ) ;
#253 = CARTESIAN_POINT ( 'NONE',  ( 32.82893218813453018, 13.00000000000000000, 3.000000000000000000 ) ) ;
#254 = ORIENTED_EDGE ( 'NONE', *, *, #590, .F. ) ;
#255 = ORIENTED_EDGE ( 'NONE', *, *, #114, .T. ) ;
#256 = AXIS2_PLACEMENT_3D ( 'NONE', #387, #841, #606 ) ;
#257 = DIRECTION ( 'NONE',  ( -0.7071067811865470176, -0.7071067811865480168, 0.000000000000000000 ) ) ;
#258 = FACE_OUTER_BOUND ( 'NONE', #551, .T. ) ;
#259 = PLANE ( 'NONE',  #301 ) ;
#260 = CARTESIAN_POINT ( 'NONE',  ( 36.36446609406726793, 16.53553390593273775, 3.000000000000000000 ) ) ;
#261 = EDGE_CURVE ( 'NONE', #747, #409, #819, .T. ) ;
#262 = MANIFOLD_SOLID_BREP ( 'Fillet1', #341 ) ;
#263 = ADVANCED_FACE ( 'NONE', ( #81 ), #511, .F. ) ;
#264 = AXIS2_PLACEMENT_3D ( 'NONE', #174, #478, #105 ) ;
#265 = CIRCLE ( 'NONE', #279, 9.999999999999998224 ) ;
#266 = DIRECTION ( 'NONE',  ( -0.000000000000000000, -0.000000000000000000, -1.000000000000000000 ) ) ;
#267 = DIRECTION ( 'NONE',  ( -0.000000000000000000, -0.000000000000000000, -1.000000000000000000 ) ) ;
#268 = EDGE_LOOP ( 'NONE', ( #91, #509, #555, #239 ) ) ;
#269 = FACE_OUTER_BOUND ( 'NONE', #955, .T. ) ;
#270 = FACE_BOUND ( 'NONE', #568, .T. ) ;
#271 = ORIENTED_EDGE ( 'NONE', *, *, #637, .F. ) ;
#272 = VECTOR ( 'NONE', #20, 1000.000000000000000 ) ;
#273 = CARTESIAN_POINT ( 'NONE',  ( 30.75786437626901915, -18.00000000000000000, 3.000000000000000000 ) ) ;
#274 = DIRECTION ( 'NONE',  ( -0.000000000000000000, -0.000000000000000000, -1.000000000000000000 ) ) ;
#275 = STYLED_ITEM ( 'NONE', ( #682 ), #262 ) ;
#276 = ORIENTED_EDGE ( 'NONE', *, *, #331, .T. ) ;
#277 = DIRECTION ( 'NONE',  ( 0.000000000000000000, 0.000000000000000000, -1.000000000000000000 ) ) ;
#278 = DIRECTION ( 'NONE',  ( -1.000000000000000000, 0.000000000000000000, 0.000000000000000000 ) ) ;
#279 = AXIS2_PLACEMENT_3D ( 'NONE', #420, #350, #343 ) ;
#280 = ORIENTED_EDGE ( 'NONE', *, *, #921, .T. ) ;
#281 = CARTESIAN_POINT ( 'NONE',  ( 30.75786437626905112, -8.000000000000001776, 3.000000000000000000 ) ) ;
#282 = DIRECTION ( 'NONE',  ( -1.000000000000000000, 0.000000000000000000, 0.000000000000000000 ) ) ;
#283 = DIRECTION ( 'NONE',  ( -0.000000000000000000, -0.000000000000000000, -1.000000000000000000 ) ) ;
#284 = DIRECTION ( 'NONE',  ( -0.000000000000000000, -0.000000000000000000, -1.000000000000000000 ) ) ;
#285 = ORIENTED_EDGE ( 'NONE', *, *, #394, .T. ) ;
#286 = CIRCLE ( 'NONE', #938, 10.00000000000000178 ) ;
#287 = CARTESIAN_POINT ( 'NONE',  ( 30.75786437626905112, -8.000000000000001776, 3.000000000000000000 ) ) ;
#288 = CARTESIAN_POINT ( 'NONE',  ( -34.89999999999999147, -17.99999999999999289, 0.000000000000000000 ) ) ;
#289 = ORIENTED_EDGE ( 'NONE', *, *, #523, .F. ) ;
#290 = ADVANCED_FACE ( 'NONE', ( #618 ), #672, .F. ) ;
#291 = SHAPE_DEFINITION_REPRESENTATION ( #43, #634 ) ;
#292 = CARTESIAN_POINT ( 'NONE',  ( -10.00000000000000000, 0.000000000000000000, 3.000000000000000000 ) ) ;
#293 = DIRECTION ( 'NONE',  ( 1.000000000000000000, 0.000000000000000000, 0.000000000000000000 ) ) ;
#294 = CYLINDRICAL_SURFACE ( 'NONE', #722, 4.999999999999997335 ) ;
#295 = ORIENTED_EDGE ( 'NONE', *, *, #907, .F. ) ;
#296 = AXIS2_PLACEMENT_3D ( 'NONE', #173, #905, #257 ) ;
#297 = LINE ( 'NONE', #357, #647 ) ;
#298 = CARTESIAN_POINT ( 'NONE',  ( -10.00000000000000000, 0.000000000000000000, 3.000000000000000000 ) ) ;
#299 = ORIENTED_EDGE ( 'NONE', *, *, #252, .F. ) ;
#300 = EDGE_CURVE ( 'NONE', #380, #585, #540, .T. ) ;
#301 = AXIS2_PLACEMENT_3D ( 'NONE', #109, #196, #644 ) ;
#302 = FACE_OUTER_BOUND ( 'NONE', #560, .T. ) ;
#303 = EDGE_CURVE ( 'NONE', #203, #317, #901, .T. ) ;
#304 = CARTESIAN_POINT ( 'NONE',  ( 38.43553390593273633, -14.46446609406725869, 0.000000000000000000 ) ) ;
#305 = ORIENTED_EDGE ( 'NONE', *, *, #760, .F. ) ;
#306 = CIRCLE ( 'NONE', #851, 1.749999999999991118 ) ;
#307 = LINE ( 'NONE', #537, #442 ) ;
#308 = ORIENTED_EDGE ( 'NONE', *, *, #671, .T. ) ;
#309 = CYLINDRICAL_SURFACE ( 'NONE', #340, 1.750000000000001554 ) ;
#310 = VECTOR ( 'NONE', #857, 1000.000000000000000 ) ;
#311 = DIRECTION ( 'NONE',  ( 0.000000000000000000, 0.000000000000000000, 1.000000000000000000 ) ) ;
#312 = DIRECTION ( 'NONE',  ( -1.000000000000000000, 1.056826013124967889E-16, -0.000000000000000000 ) ) ;
#313 = CARTESIAN_POINT ( 'NONE',  ( 39.90000000000000568, 10.92893218813450673, 0.000000000000000000 ) ) ;
#314 = VERTEX_POINT ( 'NONE', #378 ) ;
#315 = SURFACE_STYLE_USAGE ( .BOTH. , #917 ) ;
#316 = CARTESIAN_POINT ( 'NONE',  ( -32.82893218813451597, 18.00000000000000711, 0.000000000000000000 ) ) ;
#317 = VERTEX_POINT ( 'NONE', #399 ) ;
#318 = VECTOR ( 'NONE', #342, 1000.000000000000000 ) ;
#319 = ORIENTED_EDGE ( 'NONE', *, *, #431, .T. ) ;
#320 = ADVANCED_FACE ( 'NONE', ( #230 ), #6, .F. ) ;
#321 = CARTESIAN_POINT ( 'NONE',  ( 34.57893218813450886, 13.00000000000000000, 3.000000000000000000 ) ) ;
#322 = DIRECTION ( 'NONE',  ( -0.000000000000000000, -0.000000000000000000, -1.000000000000000000 ) ) ;
#323 = VERTEX_POINT ( 'NONE', #452 ) ;
#324 = PRODUCT_DEFINITION ( 'UNKNOWN', '', #755, #881 ) ;
#325 = DIRECTION ( 'NONE',  ( 1.000000000000000000, 0.000000000000000000, 0.000000000000000000 ) ) ;
#326 = CARTESIAN_POINT ( 'NONE',  ( -30.75786437626904046, -7.999999999999992895, 3.000000000000000000 ) ) ;
#327 = CARTESIAN_POINT ( 'NONE',  ( -32.82893218813451597, 18.00000000000000711, 3.000000000000000000 ) ) ;
#328 = ORIENTED_EDGE ( 'NONE', *, *, #912, .F. ) ;
#329 = ORIENTED_EDGE ( 'NONE', *, *, #506, .T. ) ;
#330 = CARTESIAN_POINT ( 'NONE',  ( -33.00000000000000000, -13.50000000000000178, 3.000000000000000000 ) ) ;
#331 = EDGE_CURVE ( 'NONE', #84, #227, #801, .T. ) ;
#332 = CARTESIAN_POINT ( 'NONE',  ( -38.43553390593272923, 14.46446609406726225, 3.000000000000000000 ) ) ;
#333 = DIRECTION ( 'NONE',  ( -0.000000000000000000, -0.000000000000000000, 1.000000000000000000 ) ) ;
#334 = EDGE_CURVE ( 'NONE', #757, #323, #677, .T. ) ;
#335 = AXIS2_PLACEMENT_3D ( 'NONE', #253, #639, #183 ) ;
#336 = CARTESIAN_POINT ( 'NONE',  ( -32.82893218813451597, 18.00000000000000711, 3.000000000000000000 ) ) ;
#337 = CARTESIAN_POINT ( 'NONE',  ( -30.75786437626904046, -17.99999999999999645, 3.000000000000000000 ) ) ;
#338 = ORIENTED_EDGE ( 'NONE', *, *, #98, .F. ) ;
#339 = AXIS2_PLACEMENT_3D ( 'NONE', #164, #610, #531 ) ;
#340 = AXIS2_PLACEMENT_3D ( 'NONE', #900, #23, #749 ) ;
#341 = CLOSED_SHELL ( 'NONE', ( #10, #263, #848, #714, #215, #226, #117, #534, #477, #422, #918, #228, #290, #24, #25, #818, #776, #850, #547, #403, #666, #949, #397, #320, #389, #766, #965, #370 ) ) ;
#342 = DIRECTION ( 'NONE',  ( -0.000000000000000000, -0.000000000000000000, -1.000000000000000000 ) ) ;
#343 = DIRECTION ( 'NONE',  ( 1.000000000000000000, 0.000000000000000000, 0.000000000000000000 ) ) ;
#344 = ORIENTED_EDGE ( 'NONE', *, *, #632, .T. ) ;
#345 = DIRECTION ( 'NONE',  ( 1.000000000000000000, 0.000000000000000000, 0.000000000000000000 ) ) ;
#346 = DIRECTION ( 'NONE',  ( 0.000000000000000000, 0.000000000000000000, 1.000000000000000000 ) ) ;
#347 = ORIENTED_EDGE ( 'NONE', *, *, #44, .T. ) ;
#348 = EDGE_CURVE ( 'NONE', #613, #779, #209, .T. ) ;
#349 = CARTESIAN_POINT ( 'NONE',  ( 37.82893218813453018, -15.07106781186546840, 3.000000000000000000 ) ) ;
#350 = DIRECTION ( 'NONE',  ( -0.000000000000000000, -0.000000000000000000, -1.000000000000000000 ) ) ;
#351 = ORIENTED_EDGE ( 'NONE', *, *, #506, .F. ) ;
#352 = VECTOR ( 'NONE', #963, 1000.000000000000000 ) ;
#353 = DIRECTION ( 'NONE',  ( 1.000000000000000000, 0.000000000000000000, 0.000000000000000000 ) ) ;
#354 = AXIS2_PLACEMENT_3D ( 'NONE', #567, #346, #860 ) ;
#355 = DIRECTION ( 'NONE',  ( -1.000000000000000000, 0.000000000000000000, 0.000000000000000000 ) ) ;
#356 = EDGE_LOOP ( 'NONE', ( #690, #16, #237, #329 ) ) ;
#357 = CARTESIAN_POINT ( 'NONE',  ( -31.07893218813451242, 13.00000000000000711, 3.000000000000000000 ) ) ;
#358 = DIRECTION ( 'NONE',  ( -0.000000000000000000, -0.000000000000000000, -1.000000000000000000 ) ) ;
#359 = ORIENTED_EDGE ( 'NONE', *, *, #198, .T. ) ;
#360 = EDGE_CURVE ( 'NONE', #317, #759, #541, .T. ) ;
#361 = CIRCLE ( 'NONE', #794, 4.999999999999997335 ) ;
#362 = CARTESIAN_POINT ( 'NONE',  ( -32.82893218813451597, 13.00000000000000711, 3.000000000000000000 ) ) ;
#363 = CARTESIAN_POINT ( 'NONE',  ( -39.89999999999999147, -10.92893218813451561, 3.000000000000000000 ) ) ;
#364 = VERTEX_POINT ( 'NONE', #391 ) ;
#365 = PRESENTATION_LAYER_ASSIGNMENT (  '', '', ( #275 ) ) ;
#366 = CARTESIAN_POINT ( 'NONE',  ( -33.00000000000000000, -13.50000000000000178, 0.000000000000000000 ) ) ;
#367 = DIRECTION ( 'NONE',  ( -0.000000000000000000, -0.000000000000000000, -1.000000000000000000 ) ) ;
#368 = ORIENTED_EDGE ( 'NONE', *, *, #17, .T. ) ;
#369 = EDGE_CURVE ( 'NONE', #744, #488, #160, .T. ) ;
#370 = ADVANCED_FACE ( 'NONE', ( #536 ), #840, .T. ) ;
#371 = DIRECTION ( 'NONE',  ( -1.000000000000000000, 0.000000000000000000, 0.000000000000000000 ) ) ;
#372 = CARTESIAN_POINT ( 'NONE',  ( -34.89999999999999147, 10.92893218813452805, 3.000000000000000000 ) ) ;
#373 = ORIENTED_EDGE ( 'NONE', *, *, #153, .F. ) ;
#374 = VECTOR ( 'NONE', #628, 1000.000000000000000 ) ;
#375 = DIRECTION ( 'NONE',  ( -1.000000000000000000, 0.000000000000000000, 0.000000000000000000 ) ) ;
#376 = DIRECTION ( 'NONE',  ( 0.7071067811865475727, -0.7071067811865475727, 0.000000000000000000 ) ) ;
#377 = EDGE_LOOP ( 'NONE', ( #885, #92, #681, #941 ) ) ;
#378 = CARTESIAN_POINT ( 'NONE',  ( -32.82893218813451597, 18.00000000000000711, 3.000000000000000000 ) ) ;
#379 = CARTESIAN_POINT ( 'NONE',  ( 36.36446609406726793, 16.53553390593273775, 3.000000000000000000 ) ) ;
#380 = VERTEX_POINT ( 'NONE', #321 ) ;
#381 = ORIENTED_EDGE ( 'NONE', *, *, #692, .F. ) ;
#382 = FACE_OUTER_BOUND ( 'NONE', #268, .T. ) ;
#383 = AXIS2_PLACEMENT_3D ( 'NONE', #202, #267, #189 ) ;
#384 = CARTESIAN_POINT ( 'NONE',  ( -30.75786437626904046, -17.99999999999999289, 3.000000000000000000 ) ) ;
#385 = AXIS2_PLACEMENT_3D ( 'NONE', #545, #103, #97 ) ;
#386 =( LENGTH_UNIT ( ) NAMED_UNIT ( * ) SI_UNIT ( .MILLI., .METRE. ) );
#387 = CARTESIAN_POINT ( 'NONE',  ( -39.89999999999999147, -10.92893218813451561, 3.000000000000000000 ) ) ;
#388 = ORIENTED_EDGE ( 'NONE', *, *, #125, .T. ) ;
#389 = ADVANCED_FACE ( 'NONE', ( #247 ), #623, .F. ) ;
#390 = ORIENTED_EDGE ( 'NONE', *, *, #125, .F. ) ;
#391 = CARTESIAN_POINT ( 'NONE',  ( 31.24999999999998224, -13.50000000000005329, 0.000000000000000000 ) ) ;
#392 = LINE ( 'NONE', #835, #272 ) ;
#393 = ORIENTED_EDGE ( 'NONE', *, *, #334, .T. ) ;
#394 = EDGE_CURVE ( 'NONE', #811, #172, #510, .T. ) ;
#395 = AXIS2_PLACEMENT_3D ( 'NONE', #688, #453, #156 ) ;
#396 = ORIENTED_EDGE ( 'NONE', *, *, #348, .F. ) ;
#397 = ADVANCED_FACE ( 'NONE', ( #258 ), #406, .F. ) ;
#398 = DIRECTION ( 'NONE',  ( 0.000000000000000000, 0.000000000000000000, 1.000000000000000000 ) ) ;
#399 = CARTESIAN_POINT ( 'NONE',  ( 36.36446609406726793, 16.53553390593273775, 0.000000000000000000 ) ) ;
#400 = CARTESIAN_POINT ( 'NONE',  ( 32.82893218813453018, 13.00000000000000000, 3.000000000000000000 ) ) ;
#401 = VERTEX_POINT ( 'NONE', #207 ) ;
#402 = ORIENTED_EDGE ( 'NONE', *, *, #742, .F. ) ;
#403 = ADVANCED_FACE ( 'NONE', ( #664 ), #294, .T. ) ;
#404 = AXIS2_PLACEMENT_3D ( 'NONE', #814, #595, #583 ) ;
#405 = EDGE_CURVE ( 'NONE', #858, #101, #878, .T. ) ;
#406 = CYLINDRICAL_SURFACE ( 'NONE', #4, 1.750000000000001554 ) ;
#407 = CARTESIAN_POINT ( 'NONE',  ( 32.82893218813453018, 13.00000000000000000, 3.000000000000000000 ) ) ;
#408 = ORIENTED_EDGE ( 'NONE', *, *, #816, .F. ) ;
#409 = VERTEX_POINT ( 'NONE', #815 ) ;
#410 = DIRECTION ( 'NONE',  ( -0.000000000000000000, -1.000000000000000000, -0.000000000000000000 ) ) ;
#411 = LINE ( 'NONE', #645, #58 ) ;
#412 = ORIENTED_EDGE ( 'NONE', *, *, #495, .F. ) ;
#413 = AXIS2_PLACEMENT_3D ( 'NONE', #400, #914, #548 ) ;
#414 = DIRECTION ( 'NONE',  ( 0.000000000000000000, 0.000000000000000000, 1.000000000000000000 ) ) ;
#415 = CARTESIAN_POINT ( 'NONE',  ( -10.00000000000000000, 0.000000000000000000, 0.000000000000000000 ) ) ;
#416 = ORIENTED_EDGE ( 'NONE', *, *, #619, .F. ) ;
#417 = VECTOR ( 'NONE', #284, 1000.000000000000000 ) ;
#418 = CIRCLE ( 'NONE', #530, 1.750000000000005107 ) ;
#419 = CARTESIAN_POINT ( 'NONE',  ( -30.75786437626904046, -7.999999999999992895, 3.000000000000000000 ) ) ;
#420 = CARTESIAN_POINT ( 'NONE',  ( 30.75786437626905112, -8.000000000000001776, 0.000000000000000000 ) ) ;
#421 = ORIENTED_EDGE ( 'NONE', *, *, #946, .F. ) ;
#422 = ADVANCED_FACE ( 'NONE', ( #884 ), #508, .F. ) ;
#423 = CARTESIAN_POINT ( 'NONE',  ( 0.000000000000000000, 0.000000000000000000, 3.000000000000000000 ) ) ;
#424 = DIRECTION ( 'NONE',  ( 1.000000000000000000, -1.294569758191648388E-16, 0.000000000000000000 ) ) ;
#425 = VERTEX_POINT ( 'NONE', #584 ) ;
#426 = AXIS2_PLACEMENT_3D ( 'NONE', #620, #232, #165 ) ;
#427 = CARTESIAN_POINT ( 'NONE',  ( -32.82893218813451597, 13.00000000000000711, 3.000000000000000000 ) ) ;
#428 = CARTESIAN_POINT ( 'NONE',  ( -34.89999999999999147, -10.92893218813451384, 3.000000000000000000 ) ) ;
#429 = ORIENTED_EDGE ( 'NONE', *, *, #578, .T. ) ;
#430 = VECTOR ( 'NONE', #889, 1000.000000000000114 ) ;
#431 = EDGE_CURVE ( 'NONE', #401, #842, #306, .T. ) ;
#432 = EDGE_CURVE ( 'NONE', #948, #203, #211, .T. ) ;
#433 = CARTESIAN_POINT ( 'NONE',  ( 31.24999999999998224, -13.50000000000005329, 3.000000000000000000 ) ) ;
#434 = AXIS2_PLACEMENT_3D ( 'NONE', #782, #113, #49 ) ;
#435 = CIRCLE ( 'NONE', #837, 4.999999999999997335 ) ;
#436 = LINE ( 'NONE', #726, #352 ) ;
#437 = ORIENTED_EDGE ( 'NONE', *, *, #760, .T. ) ;
#438 = APPLICATION_CONTEXT ( 'automotive_design' ) ;
#439 = FACE_BOUND ( 'NONE', #28, .T. ) ;
#440 = DIRECTION ( 'NONE',  ( 0.000000000000000000, 0.000000000000000000, 1.000000000000000000 ) ) ;
#441 = VERTEX_POINT ( 'NONE', #958 ) ;
#442 = VECTOR ( 'NONE', #151, 1000.000000000000000 ) ;
#443 = DIRECTION ( 'NONE',  ( -0.000000000000000000, -0.000000000000000000, -1.000000000000000000 ) ) ;
#444 = CARTESIAN_POINT ( 'NONE',  ( 38.43553390593274344, 14.46446609406725869, 0.000000000000000000 ) ) ;
#445 = CARTESIAN_POINT ( 'NONE',  ( 38.43553390593274344, 14.46446609406725869, 3.000000000000000000 ) ) ;
#446 = ORIENTED_EDGE ( 'NONE', *, *, #475, .F. ) ;
#447 = CARTESIAN_POINT ( 'NONE',  ( 32.99999999999997158, -13.50000000000005329, 3.000000000000000000 ) ) ;
#448 = CARTESIAN_POINT ( 'NONE',  ( -31.24999999999999645, -13.50000000000000178, 0.000000000000000000 ) ) ;
#449 = CARTESIAN_POINT ( 'NONE',  ( 0.000000000000000000, 0.000000000000000000, 0.000000000000000000 ) ) ;
#450 = ORIENTED_EDGE ( 'NONE', *, *, #331, .F. ) ;
#451 = EDGE_CURVE ( 'NONE', #38, #84, #654, .T. ) ;
#452 = CARTESIAN_POINT ( 'NONE',  ( 31.07893218813454794, 13.00000000000000000, 0.000000000000000000 ) ) ;
#453 = DIRECTION ( 'NONE',  ( 0.000000000000000000, 0.000000000000000000, 1.000000000000000000 ) ) ;
#454 = EDGE_LOOP ( 'NONE', ( #218, #388, #783, #679 ) ) ;
#455 = VECTOR ( 'NONE', #94, 1000.000000000000000 ) ;
#456 = DIRECTION ( 'NONE',  ( -0.000000000000000000, -0.000000000000000000, -1.000000000000000000 ) ) ;
#457 = CARTESIAN_POINT ( 'NONE',  ( -38.43553390593272923, 14.46446609406726225, 3.000000000000000000 ) ) ;
#458 = ORIENTED_EDGE ( 'NONE', *, *, #875, .T. ) ;
#459 = EDGE_LOOP ( 'NONE', ( #115, #437, #675, #641 ) ) ;
#460 =( NAMED_UNIT ( * ) SI_UNIT ( $, .STERADIAN. ) SOLID_ANGLE_UNIT ( ) );
#461 = EDGE_CURVE ( 'NONE', #898, #928, #436, .T. ) ;
#462 = AXIS2_PLACEMENT_3D ( 'NONE', #326, #19, #375 ) ;
#463 = CARTESIAN_POINT ( 'NONE',  ( 34.57893218813450886, 13.00000000000000000, 0.000000000000000000 ) ) ;
#464 = ORIENTED_EDGE ( 'NONE', *, *, #261, .F. ) ;
#465 = ORIENTED_EDGE ( 'NONE', *, *, #632, .F. ) ;
#466 = DIRECTION ( 'NONE',  ( 0.000000000000000000, 0.000000000000000000, 1.000000000000000000 ) ) ;
#467 = CARTESIAN_POINT ( 'NONE',  ( 34.57893218813450886, 13.00000000000000000, 3.000000000000000000 ) ) ;
#468 = EDGE_CURVE ( 'NONE', #842, #401, #524, .T. ) ;
#469 = DIRECTION ( 'NONE',  ( 0.000000000000000000, 0.000000000000000000, 1.000000000000000000 ) ) ;
#470 = ORIENTED_EDGE ( 'NONE', *, *, #360, .F. ) ;
#471 = ORIENTED_EDGE ( 'NONE', *, *, #17, .F. ) ;
#472 = DIRECTION ( 'NONE',  ( 3.174552547521865467E-16, 1.000000000000000000, -0.000000000000000000 ) ) ;
#473 = DIRECTION ( 'NONE',  ( 1.000000000000000000, 0.000000000000000000, 0.000000000000000000 ) ) ;
#474 = EDGE_LOOP ( 'NONE', ( #754, #538, #402, #843 ) ) ;
#475 = EDGE_CURVE ( 'NONE', #185, #491, #514, .T. ) ;
#476 = ORIENTED_EDGE ( 'NONE', *, *, #114, .F. ) ;
#477 = ADVANCED_FACE ( 'NONE', ( #954 ), #588, .F. ) ;
#478 = DIRECTION ( 'NONE',  ( 0.000000000000000000, 0.000000000000000000, 1.000000000000000000 ) ) ;
#479 = LINE ( 'NONE', #349, #374 ) ;
#480 = ORIENTED_EDGE ( 'NONE', *, *, #834, .T. ) ;
#481 = VECTOR ( 'NONE', #150, 999.9999999999998863 ) ;
#482 = ORIENTED_EDGE ( 'NONE', *, *, #261, .T. ) ;
#483 = CARTESIAN_POINT ( 'NONE',  ( 38.43553390593274344, 14.46446609406725869, 3.000000000000000000 ) ) ;
#484 = AXIS2_PLACEMENT_3D ( 'NONE', #362, #283, #371 ) ;
#485 = DIRECTION ( 'NONE',  ( 0.000000000000000000, 0.000000000000000000, 1.000000000000000000 ) ) ;
#486 = DIRECTION ( 'NONE',  ( -1.000000000000000000, 0.000000000000000000, 0.000000000000000000 ) ) ;
#487 = AXIS2_PLACEMENT_3D ( 'NONE', #37, #110, #927 ) ;
#488 = VERTEX_POINT ( 'NONE', #55 ) ;
#489 = CARTESIAN_POINT ( 'NONE',  ( -38.43553390593272923, 14.46446609406726225, 3.000000000000000000 ) ) ;
#490 = CARTESIAN_POINT ( 'NONE',  ( -39.89999999999999147, -10.92893218813451561, 3.000000000000000000 ) ) ;
#491 = VERTEX_POINT ( 'NONE', #735 ) ;
#492 = VECTOR ( 'NONE', #821, 1000.000000000000000 ) ;
#493 = FACE_OUTER_BOUND ( 'NONE', #459, .T. ) ;
#494 = DIRECTION ( 'NONE',  ( -1.000000000000000000, 0.000000000000000000, 0.000000000000000000 ) ) ;
#495 = EDGE_CURVE ( 'NONE', #401, #425, #596, .T. ) ;
#496 = EDGE_LOOP ( 'NONE', ( #616, #689, #822, #66 ) ) ;
#497 = VECTOR ( 'NONE', #456, 1000.000000000000000 ) ;
#498 = DIRECTION ( 'NONE',  ( 0.000000000000000000, 0.000000000000000000, 1.000000000000000000 ) ) ;
#499 = FACE_OUTER_BOUND ( 'NONE', #75, .T. ) ;
#500 = ORIENTED_EDGE ( 'NONE', *, *, #468, .F. ) ;
#501 = APPLICATION_PROTOCOL_DEFINITION ( 'draft international standard', 'automotive_design', 1998, #438 ) ;
#502 = FACE_OUTER_BOUND ( 'NONE', #474, .T. ) ;
#503 = ORIENTED_EDGE ( 'NONE', *, *, #643, .T. ) ;
#504 = EDGE_CURVE ( 'NONE', #227, #441, #593, .T. ) ;
#505 = CIRCLE ( 'NONE', #64, 1.749999999999991118 ) ;
#506 = EDGE_CURVE ( 'NONE', #130, #744, #143, .T. ) ;
#507 = DIRECTION ( 'NONE',  ( -0.000000000000000000, -0.000000000000000000, -1.000000000000000000 ) ) ;
#508 = PLANE ( 'NONE',  #662 ) ;
#509 = ORIENTED_EDGE ( 'NONE', *, *, #774, .T. ) ;
#510 = CIRCLE ( 'NONE', #264, 1.750000000000001554 ) ;
#511 = CYLINDRICAL_SURFACE ( 'NONE', #630, 1.749999999999980682 ) ;
#512 = AXIS2_PLACEMENT_3D ( 'NONE', #447, #443, #961 ) ;
#513 = VECTOR ( 'NONE', #957, 1000.000000000000000 ) ;
#514 = LINE ( 'NONE', #807, #116 ) ;
#515 = ORIENTED_EDGE ( 'NONE', *, *, #875, .F. ) ;
#516 = CARTESIAN_POINT ( 'NONE',  ( 37.82893218813453018, -15.07106781186546840, 0.000000000000000000 ) ) ;
#517 = CARTESIAN_POINT ( 'NONE',  ( 34.74999999999997158, -13.50000000000005329, 3.000000000000000000 ) ) ;
#518 = ORIENTED_EDGE ( 'NONE', *, *, #576, .T. ) ;
#519 = CARTESIAN_POINT ( 'NONE',  ( 39.89999999999999858, -10.92893218813452272, 3.000000000000000000 ) ) ;
#520 = DIRECTION ( 'NONE',  ( 0.000000000000000000, 0.000000000000000000, 1.000000000000000000 ) ) ;
#521 = CARTESIAN_POINT ( 'NONE',  ( -34.57893218813451597, 13.00000000000000711, 3.000000000000000000 ) ) ;
#522 = VERTEX_POINT ( 'NONE', #521 ) ;
#523 = EDGE_CURVE ( 'NONE', #101, #491, #559, .T. ) ;
#524 = CIRCLE ( 'NONE', #104, 1.749999999999991118 ) ;
#525 = CARTESIAN_POINT ( 'NONE',  ( 38.43553390593273633, -14.46446609406725692, 3.000000000000000000 ) ) ;
#526 = EDGE_CURVE ( 'NONE', #166, #613, #967, .T. ) ;
#527 = CARTESIAN_POINT ( 'NONE',  ( -39.89999999999999147, -10.92893218813451561, 3.000000000000000000 ) ) ;
#528 = ORIENTED_EDGE ( 'NONE', *, *, #82, .F. ) ;
#529 = VECTOR ( 'NONE', #333, 1000.000000000000000 ) ;
#530 = AXIS2_PLACEMENT_3D ( 'NONE', #30, #245, #762 ) ;
#531 = DIRECTION ( 'NONE',  ( -1.000000000000000000, 0.000000000000000000, 0.000000000000000000 ) ) ;
#532 = CARTESIAN_POINT ( 'NONE',  ( 0.000000000000000000, 0.000000000000000000, 3.000000000000000000 ) ) ;
#533 = ORIENTED_EDGE ( 'NONE', *, *, #504, .F. ) ;
#534 = ADVANCED_FACE ( 'NONE', ( #795 ), #129, .T. ) ;
#535 = CIRCLE ( 'NONE', #142, 4.999999999999997335 ) ;
#536 = FACE_OUTER_BOUND ( 'NONE', #773, .T. ) ;
#537 = CARTESIAN_POINT ( 'NONE',  ( -37.82893218813451597, -15.07106781186547018, 3.000000000000000000 ) ) ;
#538 = ORIENTED_EDGE ( 'NONE', *, *, #432, .F. ) ;
#539 = ORIENTED_EDGE ( 'NONE', *, *, #704, .F. ) ;
#540 = LINE ( 'NONE', #467, #960 ) ;
#541 = CIRCLE ( 'NONE', #880, 4.999999999999997335 ) ;
#542 = PLANE ( 'NONE',  #256 ) ;
#543 = EDGE_LOOP ( 'NONE', ( #968, #120, #465, #708 ) ) ;
#544 = EDGE_LOOP ( 'NONE', ( #903, #791, #740, #684 ) ) ;
#545 = CARTESIAN_POINT ( 'NONE',  ( -32.82893218813451597, 13.00000000000000711, 3.000000000000000000 ) ) ;
#546 = DIRECTION ( 'NONE',  ( -0.000000000000000000, -0.000000000000000000, -1.000000000000000000 ) ) ;
#547 = ADVANCED_FACE ( 'NONE', ( #651 ), #919, .F. ) ;
#548 = DIRECTION ( 'NONE',  ( -1.000000000000000000, 0.000000000000000000, 0.000000000000000000 ) ) ;
#549 = ORIENTED_EDGE ( 'NONE', *, *, #475, .T. ) ;
#550 = EDGE_CURVE ( 'NONE', #796, #589, #392, .T. ) ;
#551 = EDGE_LOOP ( 'NONE', ( #305, #572, #21, #829 ) ) ;
#552 = DIRECTION ( 'NONE',  ( -1.000000000000000000, 0.000000000000000000, 0.000000000000000000 ) ) ;
#553 = VECTOR ( 'NONE', #824, 1000.000000000000000 ) ;
#554 = LINE ( 'NONE', #332, #827 ) ;
#555 = ORIENTED_EDGE ( 'NONE', *, *, #526, .T. ) ;
#556 = CARTESIAN_POINT ( 'NONE',  ( -32.82893218813451597, 13.00000000000000711, 0.000000000000000000 ) ) ;
#557 = CARTESIAN_POINT ( 'NONE',  ( 39.89999999999999858, -10.92893218813452272, 0.000000000000000000 ) ) ;
#558 = CARTESIAN_POINT ( 'NONE',  ( 32.99999999999997158, -13.50000000000005329, 0.000000000000000000 ) ) ;
#559 = CIRCLE ( 'NONE', #598, 10.00000000000000000 ) ;
#560 = EDGE_LOOP ( 'NONE', ( #830, #539, #338, #429 ) ) ;
#561 = CIRCLE ( 'NONE', #854, 1.749999999999991118 ) ;
#562 = CARTESIAN_POINT ( 'NONE',  ( -39.89999999999999147, 10.92893218813452627, 3.000000000000000000 ) ) ;
#563 = CYLINDRICAL_SURFACE ( 'NONE', #772, 5.000000000000000888 ) ;
#564 = ORIENTED_EDGE ( 'NONE', *, *, #82, .T. ) ;
#565 = EDGE_CURVE ( 'NONE', #441, #915, #307, .T. ) ;
#566 = DIRECTION ( 'NONE',  ( -0.7071067811865474617, -0.7071067811865474617, -0.000000000000000000 ) ) ;
#567 = CARTESIAN_POINT ( 'NONE',  ( -34.89999999999999147, -10.92893218813451384, 0.000000000000000000 ) ) ;
#568 = EDGE_LOOP ( 'NONE', ( #836, #893 ) ) ;
#569 = CIRCLE ( 'NONE', #872, 1.749999999999980682 ) ;
#570 = CARTESIAN_POINT ( 'NONE',  ( -36.36446609406725372, 16.53553390593274486, 0.000000000000000000 ) ) ;
#571 = LINE ( 'NONE', #337, #310 ) ;
#572 = ORIENTED_EDGE ( 'NONE', *, *, #252, .T. ) ;
#573 = CIRCLE ( 'NONE', #149, 1.750000000000005107 ) ;
#574 = CIRCLE ( 'NONE', #213, 1.750000000000001554 ) ;
#575 = DIRECTION ( 'NONE',  ( 0.000000000000000000, 0.000000000000000000, 1.000000000000000000 ) ) ;
#576 = EDGE_CURVE ( 'NONE', #314, #655, #678, .T. ) ;
#577 = ORIENTED_EDGE ( 'NONE', *, *, #432, .T. ) ;
#578 = EDGE_CURVE ( 'NONE', #251, #613, #828, .T. ) ;
#579 = FACE_OUTER_BOUND ( 'NONE', #761, .T. ) ;
#580 = DIRECTION ( 'NONE',  ( -0.000000000000000000, -0.000000000000000000, -1.000000000000000000 ) ) ;
#581 = ORIENTED_EDGE ( 'NONE', *, *, #600, .F. ) ;
#582 = VECTOR ( 'NONE', #611, 1000.000000000000000 ) ;
#583 = DIRECTION ( 'NONE',  ( -1.000000000000000000, 0.000000000000000000, 0.000000000000000000 ) ) ;
#584 = CARTESIAN_POINT ( 'NONE',  ( 34.74999999999997158, -13.50000000000005329, 0.000000000000000000 ) ) ;
#585 = VERTEX_POINT ( 'NONE', #463 ) ;
#586 = LINE ( 'NONE', #591, #804 ) ;
#587 = CARTESIAN_POINT ( 'NONE',  ( 10.00000000000000000, 1.224646799147353256E-15, 3.000000000000000000 ) ) ;
#588 = PLANE ( 'NONE',  #244 ) ;
#589 = VERTEX_POINT ( 'NONE', #100 ) ;
#590 = EDGE_CURVE ( 'NONE', #38, #144, #609, .T. ) ;
#591 = CARTESIAN_POINT ( 'NONE',  ( -34.89999999999999147, -17.99999999999999289, 3.000000000000000000 ) ) ;
#592 = FACE_OUTER_BOUND ( 'NONE', #157, .T. ) ;
#593 = LINE ( 'NONE', #288, #430 ) ;
#594 = ORIENTED_EDGE ( 'NONE', *, *, #642, .T. ) ;
#595 = DIRECTION ( 'NONE',  ( -0.000000000000000000, -0.000000000000000000, -1.000000000000000000 ) ) ;
#596 = LINE ( 'NONE', #517, #224 ) ;
#597 = ORIENTED_EDGE ( 'NONE', *, *, #126, .F. ) ;
#598 = AXIS2_PLACEMENT_3D ( 'NONE', #449, #739, #74 ) ;
#599 = CARTESIAN_POINT ( 'NONE',  ( -32.82893218813451597, 13.00000000000000711, 3.000000000000000000 ) ) ;
#600 = EDGE_CURVE ( 'NONE', #22, #3, #77, .T. ) ;
#601 = EDGE_LOOP ( 'NONE', ( #669, #347 ) ) ;
#602 = EDGE_CURVE ( 'NONE', #759, #655, #236, .T. ) ;
#603 = LINE ( 'NONE', #826, #882 ) ;
#604 = AXIS2_PLACEMENT_3D ( 'NONE', #724, #132, #650 ) ;
#605 = DIRECTION ( 'NONE',  ( -0.000000000000000000, -0.000000000000000000, -1.000000000000000000 ) ) ;
#606 = DIRECTION ( 'NONE',  ( 0.000000000000000000, 0.000000000000000000, -1.000000000000000000 ) ) ;
#607 = ORIENTED_EDGE ( 'NONE', *, *, #145, .T. ) ;
#608 = ORIENTED_EDGE ( 'NONE', *, *, #946, .T. ) ;
#609 = CIRCLE ( 'NONE', #426, 4.999999999999997335 ) ;
#610 = DIRECTION ( 'NONE',  ( -0.000000000000000000, -0.000000000000000000, -1.000000000000000000 ) ) ;
#611 = DIRECTION ( 'NONE',  ( -0.000000000000000000, -0.000000000000000000, -1.000000000000000000 ) ) ;
#612 = ORIENTED_EDGE ( 'NONE', *, *, #565, .F. ) ;
#613 = VERTEX_POINT ( 'NONE', #83 ) ;
#614 = CARTESIAN_POINT ( 'NONE',  ( -30.75786437626904046, -17.99999999999999645, 0.000000000000000000 ) ) ;
#615 = LINE ( 'NONE', #527, #492 ) ;
#616 = ORIENTED_EDGE ( 'NONE', *, *, #360, .T. ) ;
#617 = ORIENTED_EDGE ( 'NONE', *, *, #177, .F. ) ;
#618 = FACE_OUTER_BOUND ( 'NONE', #646, .T. ) ;
#619 = EDGE_CURVE ( 'NONE', #858, #185, #812, .T. ) ;
#620 = CARTESIAN_POINT ( 'NONE',  ( -34.89999999999999147, -10.92893218813451384, 3.000000000000000000 ) ) ;
#621 = EDGE_LOOP ( 'NONE', ( #176, #299 ) ) ;
#622 = ORIENTED_EDGE ( 'NONE', *, *, #219, .T. ) ;
#623 = CYLINDRICAL_SURFACE ( 'NONE', #39, 1.749999999999980682 ) ;
#624 = VECTOR ( 'NONE', #410, 1000.000000000000000 ) ;
#625 = CARTESIAN_POINT ( 'NONE',  ( 34.90000000000000568, 10.92893218813451561, 3.000000000000000000 ) ) ;
#626 = LINE ( 'NONE', #738, #633 ) ;
#627 = ORIENTED_EDGE ( 'NONE', *, *, #741, .T. ) ;
#628 = DIRECTION ( 'NONE',  ( 0.000000000000000000, 0.000000000000000000, -1.000000000000000000 ) ) ;
#629 = LINE ( 'NONE', #790, #231 ) ;
#630 = AXIS2_PLACEMENT_3D ( 'NONE', #896, #605, #552 ) ;
#631 = ORIENTED_EDGE ( 'NONE', *, *, #300, .F. ) ;
#632 = EDGE_CURVE ( 'NONE', #933, #38, #615, .T. ) ;
#633 = VECTOR ( 'NONE', #798, 1000.000000000000000 ) ;
#634 = ADVANCED_BREP_SHAPE_REPRESENTATION ( 'camera_cover', ( #262, #709 ), #802 ) ;
#635 = CARTESIAN_POINT ( 'NONE',  ( 32.99999999999997158, -13.50000000000005329, 0.000000000000000000 ) ) ;
#636 = FACE_BOUND ( 'NONE', #910, .T. ) ;
#637 = EDGE_CURVE ( 'NONE', #102, #317, #758, .T. ) ;
#638 = ORIENTED_EDGE ( 'NONE', *, *, #303, .F. ) ;
#639 = DIRECTION ( 'NONE',  ( -0.000000000000000000, -0.000000000000000000, -1.000000000000000000 ) ) ;
#640 = CARTESIAN_POINT ( 'NONE',  ( 32.82893218813453018, 13.00000000000000000, 0.000000000000000000 ) ) ;
#641 = ORIENTED_EDGE ( 'NONE', *, *, #550, .F. ) ;
#642 = EDGE_CURVE ( 'NONE', #190, #589, #35, .T. ) ;
#643 = EDGE_CURVE ( 'NONE', #380, #757, #924, .T. ) ;
#644 = DIRECTION ( 'NONE',  ( 1.000000000000000000, -1.056826013124967889E-16, 0.000000000000000000 ) ) ;
#645 = CARTESIAN_POINT ( 'NONE',  ( -34.89999999999999147, -17.99999999999999289, 3.000000000000000000 ) ) ;
#646 = EDGE_LOOP ( 'NONE', ( #233, #581, #295, #170 ) ) ;
#647 = VECTOR ( 'NONE', #667, 1000.000000000000000 ) ;
#648 = AXIS2_PLACEMENT_3D ( 'NONE', #813, #750, #325 ) ;
#649 = FACE_OUTER_BOUND ( 'NONE', #771, .T. ) ;
#650 = DIRECTION ( 'NONE',  ( 1.000000000000000000, 0.000000000000000000, 0.000000000000000000 ) ) ;
#651 = FACE_OUTER_BOUND ( 'NONE', #356, .T. ) ;
#652 = ORIENTED_EDGE ( 'NONE', *, *, #839, .T. ) ;
#653 = PLANE ( 'NONE',  #756 ) ;
#654 = LINE ( 'NONE', #363, #131 ) ;
#655 = VERTEX_POINT ( 'NONE', #743 ) ;
#656 = AXIS2_PLACEMENT_3D ( 'NONE', #532, #469, #753 ) ;
#657 = DIRECTION ( 'NONE',  ( -0.000000000000000000, -0.000000000000000000, -1.000000000000000000 ) ) ;
#658 = FACE_BOUND ( 'NONE', #721, .T. ) ;
#659 = DIRECTION ( 'NONE',  ( -1.000000000000000000, 0.000000000000000000, 0.000000000000000000 ) ) ;
#660 = ORIENTED_EDGE ( 'NONE', *, *, #742, .T. ) ;
#661 = EDGE_CURVE ( 'NONE', #736, #759, #8, .T. ) ;
#662 = AXIS2_PLACEMENT_3D ( 'NONE', #810, #947, #873 ) ;
#663 = DIRECTION ( 'NONE',  ( 0.000000000000000000, 0.000000000000000000, 1.000000000000000000 ) ) ;
#664 = FACE_OUTER_BOUND ( 'NONE', #855, .T. ) ;
#665 = EDGE_LOOP ( 'NONE', ( #111, #50, #515, #607 ) ) ;
#666 = ADVANCED_FACE ( 'NONE', ( #694 ), #542, .F. ) ;
#667 = DIRECTION ( 'NONE',  ( -0.000000000000000000, -0.000000000000000000, -1.000000000000000000 ) ) ;
#668 = DIRECTION ( 'NONE',  ( -1.000000000000000000, 0.000000000000000000, 0.000000000000000000 ) ) ;
#669 = ORIENTED_EDGE ( 'NONE', *, *, #792, .T. ) ;
#670 = CIRCLE ( 'NONE', #745, 4.999999999999997335 ) ;
#671 = EDGE_CURVE ( 'NONE', #185, #858, #127, .T. ) ;
#672 = PLANE ( 'NONE',  #751 ) ;
#673 = EDGE_CURVE ( 'NONE', #314, #130, #535, .T. ) ;
#674 = CARTESIAN_POINT ( 'NONE',  ( 0.000000000000000000, 0.000000000000000000, 3.000000000000000000 ) ) ;
#675 = ORIENTED_EDGE ( 'NONE', *, *, #219, .F. ) ;
#676 = CARTESIAN_POINT ( 'NONE',  ( -39.89999999999999147, 10.92893218813452627, 3.000000000000000000 ) ) ;
#677 = LINE ( 'NONE', #763, #497 ) ;
#678 = LINE ( 'NONE', #327, #455 ) ;
#679 = ORIENTED_EDGE ( 'NONE', *, *, #52, .T. ) ;
#680 = CIRCLE ( 'NONE', #434, 4.999999999999997335 ) ;
#681 = ORIENTED_EDGE ( 'NONE', *, *, #839, .F. ) ;
#682 = PRESENTATION_STYLE_ASSIGNMENT (( #315 ) ) ;
#683 = CARTESIAN_POINT ( 'NONE',  ( 32.82893218813453728, 18.00000000000000000, 3.000000000000000000 ) ) ;
#684 = ORIENTED_EDGE ( 'NONE', *, *, #200, .F. ) ;
#685 = EDGE_LOOP ( 'NONE', ( #243, #767, #179, #727 ) ) ;
#686 = AXIS2_PLACEMENT_3D ( 'NONE', #909, #746, #473 ) ;
#687 = CARTESIAN_POINT ( 'NONE',  ( 36.36446609406726793, 16.53553390593273775, 0.000000000000000000 ) ) ;
#688 = CARTESIAN_POINT ( 'NONE',  ( -33.00000000000000000, -13.50000000000000178, 0.000000000000000000 ) ) ;
#689 = ORIENTED_EDGE ( 'NONE', *, *, #661, .F. ) ;
#690 = ORIENTED_EDGE ( 'NONE', *, *, #369, .T. ) ;
#691 = CARTESIAN_POINT ( 'NONE',  ( -37.82893218813451597, -15.07106781186547018, 3.000000000000000000 ) ) ;
#692 = EDGE_CURVE ( 'NONE', #491, #101, #191, .T. ) ;
#693 = DIRECTION ( 'NONE',  ( 0.000000000000000000, 0.000000000000000000, 1.000000000000000000 ) ) ;
#694 = FACE_OUTER_BOUND ( 'NONE', #543, .T. ) ;
#695 = ORIENTED_EDGE ( 'NONE', *, *, #602, .F. ) ;
#696 = AXIS2_PLACEMENT_3D ( 'NONE', #287, #806, #877 ) ;
#697 = ORIENTED_EDGE ( 'NONE', *, *, #590, .T. ) ;
#698 = CARTESIAN_POINT ( 'NONE',  ( 32.82893218813453018, 13.00000000000000000, 3.000000000000000000 ) ) ;
#699 = CARTESIAN_POINT ( 'NONE',  ( -33.00000000000000000, -13.50000000000000178, 3.000000000000000000 ) ) ;
#700 = CARTESIAN_POINT ( 'NONE',  ( -38.43553390593272923, -14.46446609406725337, 3.000000000000000000 ) ) ;
#701 = ORIENTED_EDGE ( 'NONE', *, *, #912, .T. ) ;
#702 = CARTESIAN_POINT ( 'NONE',  ( 32.82893218813453018, 13.00000000000000000, 0.000000000000000000 ) ) ;
#703 = CARTESIAN_POINT ( 'NONE',  ( 39.90000000000000568, 10.92893218813450673, 3.000000000000000000 ) ) ;
#704 = EDGE_CURVE ( 'NONE', #879, #779, #241, .T. ) ;
#705 = ORIENTED_EDGE ( 'NONE', *, *, #52, .F. ) ;
#706 = DIRECTION ( 'NONE',  ( 1.000000000000000000, 0.000000000000000000, 0.000000000000000000 ) ) ;
#707 = CARTESIAN_POINT ( 'NONE',  ( 36.36446609406726793, 16.53553390593273775, 3.000000000000000000 ) ) ;
#708 = ORIENTED_EDGE ( 'NONE', *, *, #713, .T. ) ;
#709 = AXIS2_PLACEMENT_3D ( 'NONE', #205, #797, #950 ) ;
#710 = CARTESIAN_POINT ( 'NONE',  ( -34.57893218813451597, 13.00000000000000711, 3.000000000000000000 ) ) ;
#711 = CARTESIAN_POINT ( 'NONE',  ( 30.75786437626905112, -18.00000000000000355, 3.000000000000000000 ) ) ;
#712 = ORIENTED_EDGE ( 'NONE', *, *, #461, .F. ) ;
#713 = EDGE_CURVE ( 'NONE', #933, #42, #939, .T. ) ;
#714 = ADVANCED_FACE ( 'NONE', ( #493 ), #856, .F. ) ;
#715 = LINE ( 'NONE', #852, #624 ) ;
#716 = FACE_OUTER_BOUND ( 'NONE', #152, .T. ) ;
#717 = ORIENTED_EDGE ( 'NONE', *, *, #731, .T. ) ;
#718 = DIRECTION ( 'NONE',  ( -1.000000000000000000, 1.056826013124967889E-16, -0.000000000000000000 ) ) ;
#719 = CARTESIAN_POINT ( 'NONE',  ( 39.90000000000000568, 10.92893218813450851, 0.000000000000000000 ) ) ;
#720 = DIRECTION ( 'NONE',  ( -0.000000000000000000, -0.000000000000000000, -1.000000000000000000 ) ) ;
#721 = EDGE_LOOP ( 'NONE', ( #500, #148 ) ) ;
#722 = AXIS2_PLACEMENT_3D ( 'NONE', #372, #580, #139 ) ;
#723 = CIRCLE ( 'NONE', #5, 1.749999999999980682 ) ;
#724 = CARTESIAN_POINT ( 'NONE',  ( 34.90000000000000568, 10.92893218813451561, 0.000000000000000000 ) ) ;
#725 = CIRCLE ( 'NONE', #106, 4.999999999999997335 ) ;
#726 = CARTESIAN_POINT ( 'NONE',  ( 8.099999999999996092, -18.00000000000000000, 0.000000000000000000 ) ) ;
#727 = ORIENTED_EDGE ( 'NONE', *, *, #334, .F. ) ;
#728 = CARTESIAN_POINT ( 'NONE',  ( -34.89999999999999147, 10.92893218813452805, 0.000000000000000000 ) ) ;
#729 = CARTESIAN_POINT ( 'NONE',  ( -34.89999999999999147, -17.99999999999999289, 3.000000000000000000 ) ) ;
#730 = ORIENTED_EDGE ( 'NONE', *, *, #98, .T. ) ;
#731 = EDGE_CURVE ( 'NONE', #130, #748, #554, .T. ) ;
#732 = UNCERTAINTY_MEASURE_WITH_UNIT (LENGTH_MEASURE( 1.000000000000000082E-05 ), #121, 'distance_accuracy_value', 'NONE');
#733 = VECTOR ( 'NONE', #107, 1000.000000000000000 ) ;
#734 = LINE ( 'NONE', #962, #182 ) ;
#735 = CARTESIAN_POINT ( 'NONE',  ( 10.00000000000000000, 1.224646799147353256E-15, 0.000000000000000000 ) ) ;
#736 = VERTEX_POINT ( 'NONE', #789 ) ;
#737 = EDGE_CURVE ( 'NONE', #102, #736, #361, .T. ) ;
#738 = CARTESIAN_POINT ( 'NONE',  ( -38.43553390593272923, -14.46446609406725337, 3.000000000000000000 ) ) ;
#739 = DIRECTION ( 'NONE',  ( 0.000000000000000000, 0.000000000000000000, 1.000000000000000000 ) ) ;
#740 = ORIENTED_EDGE ( 'NONE', *, *, #792, .F. ) ;
#741 = EDGE_CURVE ( 'NONE', #915, #849, #286, .T. ) ;
#742 = EDGE_CURVE ( 'NONE', #22, #948, #670, .T. ) ;
#743 = CARTESIAN_POINT ( 'NONE',  ( -32.82893218813451597, 18.00000000000000711, 0.000000000000000000 ) ) ;
#744 = VERTEX_POINT ( 'NONE', #570 ) ;
#745 = AXIS2_PLACEMENT_3D ( 'NONE', #625, #414, #706 ) ;
#746 = DIRECTION ( 'NONE',  ( 0.000000000000000000, 0.000000000000000000, 1.000000000000000000 ) ) ;
#747 = VERTEX_POINT ( 'NONE', #273 ) ;
#748 = VERTEX_POINT ( 'NONE', #489 ) ;
#749 = DIRECTION ( 'NONE',  ( -1.000000000000000000, 0.000000000000000000, 0.000000000000000000 ) ) ;
#750 = DIRECTION ( 'NONE',  ( 0.000000000000000000, 0.000000000000000000, 1.000000000000000000 ) ) ;
#751 = AXIS2_PLACEMENT_3D ( 'NONE', #1, #168, #13 ) ;
#752 = DIRECTION ( 'NONE',  ( 0.000000000000000000, 0.000000000000000000, 1.000000000000000000 ) ) ;
#753 = DIRECTION ( 'NONE',  ( 1.000000000000000000, 0.000000000000000000, 0.000000000000000000 ) ) ;
#754 = ORIENTED_EDGE ( 'NONE', *, *, #153, .T. ) ;
#755 = PRODUCT_DEFINITION_FORMATION_WITH_SPECIFIED_SOURCE ( 'ANY', '', #201, .NOT_KNOWN. ) ;
#756 = AXIS2_PLACEMENT_3D ( 'NONE', #223, #520, #952 ) ;
#757 = VERTEX_POINT ( 'NONE', #926 ) ;
#758 = LINE ( 'NONE', #379, #780 ) ;
#759 = VERTEX_POINT ( 'NONE', #40 ) ;
#760 = EDGE_CURVE ( 'NONE', #194, #190, #863, .T. ) ;
#761 = EDGE_LOOP ( 'NONE', ( #56, #482, #250, #730, #890, #660, #159, #96, #652, #61, #717, #140, #344, #697, #458, #627 ) ) ;
#762 = DIRECTION ( 'NONE',  ( 1.000000000000000000, 0.000000000000000000, 0.000000000000000000 ) ) ;
#763 = CARTESIAN_POINT ( 'NONE',  ( 31.07893218813454794, 13.00000000000000000, 3.000000000000000000 ) ) ;
#764 = CARTESIAN_POINT ( 'NONE',  ( 39.89999999999999858, -10.92893218813452272, 3.000000000000000000 ) ) ;
#765 = ORIENTED_EDGE ( 'NONE', *, *, #198, .F. ) ;
#766 = ADVANCED_FACE ( 'NONE', ( #269 ), #175, .F. ) ;
#767 = ORIENTED_EDGE ( 'NONE', *, *, #300, .T. ) ;
#768 = DIRECTION ( 'NONE',  ( -1.000000000000000000, 0.000000000000000000, 0.000000000000000000 ) ) ;
#769 = VECTOR ( 'NONE', #892, 1000.000000000000000 ) ;
#770 = CARTESIAN_POINT ( 'NONE',  ( -34.75000000000000000, -13.50000000000000178, 3.000000000000000000 ) ) ;
#771 = EDGE_LOOP ( 'NONE', ( #608, #351, #199, #518 ) ) ;
#772 = AXIS2_PLACEMENT_3D ( 'NONE', #119, #274, #486 ) ;
#773 = EDGE_LOOP ( 'NONE', ( #936, #612, #528, #705 ) ) ;
#774 = EDGE_CURVE ( 'NONE', #409, #166, #479, .T. ) ;
#775 = VECTOR ( 'NONE', #883, 1000.000000000000000 ) ;
#776 = ADVANCED_FACE ( 'NONE', ( #859 ), #259, .F. ) ;
#777 = DIRECTION ( 'NONE',  ( -1.000000000000000000, 0.000000000000000000, 0.000000000000000000 ) ) ;
#778 = DIRECTION ( 'NONE',  ( -1.000000000000000000, 0.000000000000000000, 0.000000000000000000 ) ) ;
#779 = VERTEX_POINT ( 'NONE', #557 ) ;
#780 = VECTOR ( 'NONE', #90, 1000.000000000000000 ) ;
#781 = DIRECTION ( 'NONE',  ( -1.000000000000000000, 0.000000000000000000, 0.000000000000000000 ) ) ;
#782 = CARTESIAN_POINT ( 'NONE',  ( 34.89999999999999858, -10.92893218813452272, 3.000000000000000000 ) ) ;
#783 = ORIENTED_EDGE ( 'NONE', *, *, #51, .F. ) ;
#784 = FACE_OUTER_BOUND ( 'NONE', #496, .T. ) ;
#785 = LINE ( 'NONE', #711, #529 ) ;
#786 = EDGE_LOOP ( 'NONE', ( #765, #280, #943, #134 ) ) ;
#787 = CIRCLE ( 'NONE', #648, 4.999999999999997335 ) ;
#788 =( NAMED_UNIT ( * ) SI_UNIT ( $, .STERADIAN. ) SOLID_ANGLE_UNIT ( ) );
#789 = CARTESIAN_POINT ( 'NONE',  ( 32.82893218813453728, 18.00000000000000000, 3.000000000000000000 ) ) ;
#790 = CARTESIAN_POINT ( 'NONE',  ( 36.36446609406726793, 16.53553390593273775, 3.000000000000000000 ) ) ;
#791 = ORIENTED_EDGE ( 'NONE', *, *, #495, .T. ) ;
#792 = EDGE_CURVE ( 'NONE', #364, #425, #505, .T. ) ;
#793 = FACE_BOUND ( 'NONE', #95, .T. ) ;
#794 = AXIS2_PLACEMENT_3D ( 'NONE', #407, #188, #930 ) ;
#795 = FACE_OUTER_BOUND ( 'NONE', #817, .T. ) ;
#796 = VERTEX_POINT ( 'NONE', #770 ) ;
#797 = DIRECTION ( 'NONE',  ( 0.000000000000000000, 0.000000000000000000, 1.000000000000000000 ) ) ;
#798 = DIRECTION ( 'NONE',  ( -0.000000000000000000, -0.000000000000000000, -1.000000000000000000 ) ) ;
#799 = DIRECTION ( 'NONE',  ( -0.000000000000000000, -0.000000000000000000, -1.000000000000000000 ) ) ;
#800 = ORIENTED_EDGE ( 'NONE', *, *, #619, .T. ) ;
#801 = CIRCLE ( 'NONE', #929, 4.999999999999997335 ) ;
#802 =( GEOMETRIC_REPRESENTATION_CONTEXT ( 3 ) GLOBAL_UNCERTAINTY_ASSIGNED_CONTEXT ( ( #732 ) ) GLOBAL_UNIT_ASSIGNED_CONTEXT ( ( #121, #136, #788 ) ) REPRESENTATION_CONTEXT ( 'NONE', 'WORKASPACE' ) );
#803 = CIRCLE ( 'NONE', #186, 1.749999999999980682 ) ;
#804 = VECTOR ( 'NONE', #886, 1000.000000000000114 ) ;
#805 = EDGE_CURVE ( 'NONE', #42, #84, #715, .T. ) ;
#806 = DIRECTION ( 'NONE',  ( 0.000000000000000000, 0.000000000000000000, 1.000000000000000000 ) ) ;
#807 = CARTESIAN_POINT ( 'NONE',  ( 10.00000000000000000, 1.224646799147353256E-15, 3.000000000000000000 ) ) ;
#808 = ORIENTED_EDGE ( 'NONE', *, *, #171, .T. ) ;
#809 = LINE ( 'NONE', #433, #775 ) ;
#810 = CARTESIAN_POINT ( 'NONE',  ( 8.099999999999996092, -18.00000000000000000, 3.000000000000000000 ) ) ;
#811 = VERTEX_POINT ( 'NONE', #846 ) ;
#812 = CIRCLE ( 'NONE', #656, 10.00000000000000000 ) ;
#813 = CARTESIAN_POINT ( 'NONE',  ( -34.89999999999999147, 10.92893218813452805, 3.000000000000000000 ) ) ;
#814 = CARTESIAN_POINT ( 'NONE',  ( 34.89999999999999858, -10.92893218813452272, 3.000000000000000000 ) ) ;
#815 = CARTESIAN_POINT ( 'NONE',  ( 37.82893218813453018, -15.07106781186546840, 3.000000000000000000 ) ) ;
#816 = EDGE_CURVE ( 'NONE', #522, #172, #934, .T. ) ;
#817 = EDGE_LOOP ( 'NONE', ( #276, #861, #254, #916 ) ) ;
#818 = ADVANCED_FACE ( 'NONE', ( #784 ), #192, .T. ) ;
#819 = CIRCLE ( 'NONE', #696, 9.999999999999998224 ) ;
#820 = CARTESIAN_POINT ( 'NONE',  ( -33.00000000000000000, -13.50000000000000178, 3.000000000000000000 ) ) ;
#821 = DIRECTION ( 'NONE',  ( -0.000000000000000000, -1.000000000000000000, -0.000000000000000000 ) ) ;
#822 = ORIENTED_EDGE ( 'NONE', *, *, #737, .F. ) ;
#823 = DIRECTION ( 'NONE',  ( 1.000000000000000000, 0.000000000000000000, 0.000000000000000000 ) ) ;
#824 = DIRECTION ( 'NONE',  ( -0.000000000000000000, -0.000000000000000000, -1.000000000000000000 ) ) ;
#825 = ORIENTED_EDGE ( 'NONE', *, *, #171, .F. ) ;
#826 = CARTESIAN_POINT ( 'NONE',  ( 39.90000000000000568, 10.92893218813450851, 3.000000000000000000 ) ) ;
#827 = VECTOR ( 'NONE', #566, 1000.000000000000114 ) ;
#828 = LINE ( 'NONE', #161, #553 ) ;
#829 = ORIENTED_EDGE ( 'NONE', *, *, #642, .F. ) ;
#830 = ORIENTED_EDGE ( 'NONE', *, *, #348, .T. ) ;
#831 = CARTESIAN_POINT ( 'NONE',  ( 30.75786437626905112, -18.00000000000000355, 0.000000000000000000 ) ) ;
#832 = VECTOR ( 'NONE', #799, 1000.000000000000000 ) ;
#833 = CARTESIAN_POINT ( 'NONE',  ( 34.89999999999999858, -10.92893218813452272, 0.000000000000000000 ) ) ;
#834 = EDGE_CURVE ( 'NONE', #323, #585, #569, .T. ) ;
#835 = CARTESIAN_POINT ( 'NONE',  ( -34.75000000000000000, -13.50000000000000178, 3.000000000000000000 ) ) ;
#836 = ORIENTED_EDGE ( 'NONE', *, *, #523, .T. ) ;
#837 = AXIS2_PLACEMENT_3D ( 'NONE', #556, #466, #180 ) ;
#838 = CARTESIAN_POINT ( 'NONE',  ( -31.07893218813451242, 13.00000000000000711, 3.000000000000000000 ) ) ;
#839 = EDGE_CURVE ( 'NONE', #736, #314, #36, .T. ) ;
#840 = CYLINDRICAL_SURFACE ( 'NONE', #462, 10.00000000000000178 ) ;
#841 = DIRECTION ( 'NONE',  ( 1.000000000000000000, 0.000000000000000000, 0.000000000000000000 ) ) ;
#842 = VERTEX_POINT ( 'NONE', #951 ) ;
#843 = ORIENTED_EDGE ( 'NONE', *, *, #600, .T. ) ;
#844 = DIRECTION ( 'NONE',  ( 1.000000000000000000, 0.000000000000000000, 0.000000000000000000 ) ) ;
#845 = DIRECTION ( 'NONE',  ( -0.000000000000000000, -0.000000000000000000, -1.000000000000000000 ) ) ;
#846 = CARTESIAN_POINT ( 'NONE',  ( -31.07893218813451242, 13.00000000000000711, 0.000000000000000000 ) ) ;
#847 = ORIENTED_EDGE ( 'NONE', *, *, #369, .F. ) ;
#848 = ADVANCED_FACE ( 'NONE', ( #62 ), #868, .F. ) ;
#849 = VERTEX_POINT ( 'NONE', #384 ) ;
#850 = ADVANCED_FACE ( 'NONE', ( #649 ), #956, .T. ) ;
#851 = AXIS2_PLACEMENT_3D ( 'NONE', #133, #440, #659 ) ;
#852 = CARTESIAN_POINT ( 'NONE',  ( -39.89999999999999147, -10.92893218813451561, 0.000000000000000000 ) ) ;
#853 = DIRECTION ( 'NONE',  ( 0.000000000000000000, 0.000000000000000000, 1.000000000000000000 ) ) ;
#854 = AXIS2_PLACEMENT_3D ( 'NONE', #558, #184, #778 ) ;
#855 = EDGE_LOOP ( 'NONE', ( #808, #11, #78, #208 ) ) ;
#856 = CYLINDRICAL_SURFACE ( 'NONE', #969, 1.750000000000001554 ) ;
#857 = DIRECTION ( 'NONE',  ( 0.000000000000000000, 0.000000000000000000, -1.000000000000000000 ) ) ;
#858 = VERTEX_POINT ( 'NONE', #292 ) ;
#859 = FACE_OUTER_BOUND ( 'NONE', #377, .T. ) ;
#860 = DIRECTION ( 'NONE',  ( 1.000000000000000000, 0.000000000000000000, -0.000000000000000000 ) ) ;
#861 = ORIENTED_EDGE ( 'NONE', *, *, #145, .F. ) ;
#862 = CYLINDRICAL_SURFACE ( 'NONE', #7, 9.999999999999998224 ) ;
#863 = LINE ( 'NONE', #122, #318 ) ;
#864 = CYLINDRICAL_SURFACE ( 'NONE', #487, 10.00000000000000000 ) ;
#865 = EDGE_LOOP ( 'NONE', ( #622, #594 ) ) ;
#866 = CIRCLE ( 'NONE', #385, 1.750000000000001554 ) ;
#867 = PRODUCT_RELATED_PRODUCT_CATEGORY ( 'part', '', ( #201 ) ) ;
#868 = CYLINDRICAL_SURFACE ( 'NONE', #512, 1.749999999999991118 ) ;
#869 = CARTESIAN_POINT ( 'NONE',  ( -36.36446609406725372, 16.53553390593274486, 3.000000000000000000 ) ) ;
#870 = EDGE_LOOP ( 'NONE', ( #412, #319, #15, #9 ) ) ;
#871 = DIRECTION ( 'NONE',  ( 0.000000000000000000, 0.000000000000000000, 1.000000000000000000 ) ) ;
#872 = AXIS2_PLACEMENT_3D ( 'NONE', #702, #118, #45 ) ;
#873 = DIRECTION ( 'NONE',  ( -1.000000000000000000, 1.294569758191646909E-16, 0.000000000000000000 ) ) ;
#874 = ORIENTED_EDGE ( 'NONE', *, *, #805, .F. ) ;
#875 = EDGE_CURVE ( 'NONE', #144, #915, #586, .T. ) ;
#876 = DIRECTION ( 'NONE',  ( -1.000000000000000000, 0.000000000000000000, 0.000000000000000000 ) ) ;
#877 = DIRECTION ( 'NONE',  ( 1.000000000000000000, 0.000000000000000000, 0.000000000000000000 ) ) ;
#878 = LINE ( 'NONE', #298, #417 ) ;
#879 = VERTEX_POINT ( 'NONE', #519 ) ;
#880 = AXIS2_PLACEMENT_3D ( 'NONE', #235, #752, #93 ) ;
#881 = PRODUCT_DEFINITION_CONTEXT ( 'detailed design', #234, 'design' ) ;
#882 = VECTOR ( 'NONE', #472, 1000.000000000000000 ) ;
#883 = DIRECTION ( 'NONE',  ( -0.000000000000000000, -0.000000000000000000, -1.000000000000000000 ) ) ;
#884 = FACE_OUTER_BOUND ( 'NONE', #454, .T. ) ;
#885 = ORIENTED_EDGE ( 'NONE', *, *, #602, .T. ) ;
#886 = DIRECTION ( 'NONE',  ( 0.7071067811865474617, -0.7071067811865474617, -0.000000000000000000 ) ) ;
#887 = FACE_BOUND ( 'NONE', #959, .T. ) ;
#888 = EDGE_CURVE ( 'NONE', #748, #933, #787, .T. ) ;
#889 = DIRECTION ( 'NONE',  ( 0.7071067811865474617, -0.7071067811865474617, -0.000000000000000000 ) ) ;
#890 = ORIENTED_EDGE ( 'NONE', *, *, #907, .T. ) ;
#891 = LINE ( 'NONE', #210, #899 ) ;
#892 = DIRECTION ( 'NONE',  ( 0.7071067811865470176, 0.7071067811865480168, -0.000000000000000000 ) ) ;
#893 = ORIENTED_EDGE ( 'NONE', *, *, #692, .T. ) ;
#894 = AXIS2_PLACEMENT_3D ( 'NONE', #457, #376, #897 ) ;
#895 = CIRCLE ( 'NONE', #214, 1.750000000000001554 ) ;
#896 = CARTESIAN_POINT ( 'NONE',  ( 32.82893218813453018, 13.00000000000000000, 3.000000000000000000 ) ) ;
#897 = DIRECTION ( 'NONE',  ( 0.7071067811865474617, 0.7071067811865474617, 0.000000000000000000 ) ) ;
#898 = VERTEX_POINT ( 'NONE', #614 ) ;
#899 = VECTOR ( 'NONE', #507, 1000.000000000000000 ) ;
#900 = CARTESIAN_POINT ( 'NONE',  ( -32.82893218813451597, 13.00000000000000711, 3.000000000000000000 ) ) ;
#901 = LINE ( 'NONE', #687, #481 ) ;
#902 = DIRECTION ( 'NONE',  ( 0.000000000000000000, 0.000000000000000000, 1.000000000000000000 ) ) ;
#903 = ORIENTED_EDGE ( 'NONE', *, *, #468, .T. ) ;
#904 = EDGE_LOOP ( 'NONE', ( #416, #222 ) ) ;
#905 = DIRECTION ( 'NONE',  ( -0.7071067811865480168, 0.7071067811865470176, 0.000000000000000000 ) ) ;
#906 = AXIS2_PLACEMENT_3D ( 'NONE', #423, #266, #777 ) ;
#907 = EDGE_CURVE ( 'NONE', #879, #22, #603, .T. ) ;
#908 = DIRECTION ( 'NONE',  ( 1.000000000000000000, 0.000000000000000000, 0.000000000000000000 ) ) ;
#909 = CARTESIAN_POINT ( 'NONE',  ( 0.000000000000000000, 0.000000000000000000, 0.000000000000000000 ) ) ;
#910 = EDGE_LOOP ( 'NONE', ( #701, #285 ) ) ;
#911 = ORIENTED_EDGE ( 'NONE', *, *, #154, .F. ) ;
#912 = EDGE_CURVE ( 'NONE', #172, #811, #574, .T. ) ;
#913 = DIRECTION ( 'NONE',  ( -0.7071067811865474617, -0.7071067811865474617, -0.000000000000000000 ) ) ;
#914 = DIRECTION ( 'NONE',  ( 0.000000000000000000, 0.000000000000000000, 1.000000000000000000 ) ) ;
#915 = VERTEX_POINT ( 'NONE', #691 ) ;
#916 = ORIENTED_EDGE ( 'NONE', *, *, #451, .T. ) ;
#917 = SURFACE_SIDE_STYLE ('',( #89 ) ) ;
#918 = ADVANCED_FACE ( 'NONE', ( #382 ), #923, .F. ) ;
#919 = PLANE ( 'NONE',  #894 ) ;
#920 = ORIENTED_EDGE ( 'NONE', *, *, #405, .T. ) ;
#921 = EDGE_CURVE ( 'NONE', #964, #522, #866, .T. ) ;
#922 = ORIENTED_EDGE ( 'NONE', *, *, #177, .T. ) ;
#923 = PLANE ( 'NONE',  #296 ) ;
#924 = CIRCLE ( 'NONE', #413, 1.749999999999980682 ) ;
#925 = DIRECTION ( 'NONE',  ( -0.000000000000000000, -0.000000000000000000, -1.000000000000000000 ) ) ;
#926 = CARTESIAN_POINT ( 'NONE',  ( 31.07893218813454794, 13.00000000000000000, 3.000000000000000000 ) ) ;
#927 = DIRECTION ( 'NONE',  ( -1.000000000000000000, 0.000000000000000000, 0.000000000000000000 ) ) ;
#928 = VERTEX_POINT ( 'NONE', #831 ) ;
#929 = AXIS2_PLACEMENT_3D ( 'NONE', #76, #693, #823 ) ;
#930 = DIRECTION ( 'NONE',  ( 1.000000000000000000, 0.000000000000000000, 0.000000000000000000 ) ) ;
#931 = DIRECTION ( 'NONE',  ( -0.7071067811865479058, 0.7071067811865472397, -0.000000000000000000 ) ) ;
#932 = CIRCLE ( 'NONE', #604, 4.999999999999997335 ) ;
#933 = VERTEX_POINT ( 'NONE', #676 ) ;
#934 = LINE ( 'NONE', #710, #204 ) ;
#935 = FACE_BOUND ( 'NONE', #601, .T. ) ;
#936 = ORIENTED_EDGE ( 'NONE', *, *, #741, .F. ) ;
#937 = EDGE_CURVE ( 'NONE', #796, #194, #418, .T. ) ;
#938 = AXIS2_PLACEMENT_3D ( 'NONE', #419, #485, #345 ) ;
#939 = LINE ( 'NONE', #562, #733 ) ;
#940 = CARTESIAN_POINT ( 'NONE',  ( -39.89999999999999147, 10.92893218813452627, 0.000000000000000000 ) ) ;
#941 = ORIENTED_EDGE ( 'NONE', *, *, #661, .T. ) ;
#942 = FACE_OUTER_BOUND ( 'NONE', #69, .T. ) ;
#943 = ORIENTED_EDGE ( 'NONE', *, *, #816, .T. ) ;
#944 = COLOUR_RGB ( '',0.7921568627450980005, 0.8196078431372548767, 0.9333333333333333481 ) ;
#945 = CARTESIAN_POINT ( 'NONE',  ( -38.43553390593272923, -14.46446609406725337, 0.000000000000000000 ) ) ;
#946 = EDGE_CURVE ( 'NONE', #655, #744, #435, .T. ) ;
#947 = DIRECTION ( 'NONE',  ( 1.294569758191646909E-16, 1.000000000000000000, -0.000000000000000000 ) ) ;
#948 = VERTEX_POINT ( 'NONE', #483 ) ;
#949 = ADVANCED_FACE ( 'NONE', ( #12 ), #309, .F. ) ;
#950 = DIRECTION ( 'NONE',  ( 1.000000000000000000, 0.000000000000000000, 0.000000000000000000 ) ) ;
#951 = CARTESIAN_POINT ( 'NONE',  ( 31.24999999999998224, -13.50000000000005329, 3.000000000000000000 ) ) ;
#952 = DIRECTION ( 'NONE',  ( 1.000000000000000000, 0.000000000000000000, -0.000000000000000000 ) ) ;
#953 = AXIS2_PLACEMENT_3D ( 'NONE', #674, #902, #2 ) ;
#954 = FACE_OUTER_BOUND ( 'NONE', #665, .T. ) ;
#955 = EDGE_LOOP ( 'NONE', ( #446, #308, #920, #381 ) ) ;
#956 = CYLINDRICAL_SURFACE ( 'NONE', #246, 4.999999999999997335 ) ;
#957 = DIRECTION ( 'NONE',  ( 3.174552547521865467E-16, 1.000000000000000000, -0.000000000000000000 ) ) ;
#958 = CARTESIAN_POINT ( 'NONE',  ( -37.82893218813451597, -15.07106781186547018, 0.000000000000000000 ) ) ;
#959 = EDGE_LOOP ( 'NONE', ( #597, #29 ) ) ;
#960 = VECTOR ( 'NONE', #546, 1000.000000000000000 ) ;
#961 = DIRECTION ( 'NONE',  ( -1.000000000000000000, 0.000000000000000000, 0.000000000000000000 ) ) ;
#962 = CARTESIAN_POINT ( 'NONE',  ( 38.43553390593273633, -14.46446609406725869, 3.000000000000000000 ) ) ;
#963 = DIRECTION ( 'NONE',  ( 1.000000000000000000, -1.294569758191646909E-16, 0.000000000000000000 ) ) ;
#964 = VERTEX_POINT ( 'NONE', #838 ) ;
#965 = ADVANCED_FACE ( 'NONE', ( #167 ), #862, .T. ) ;
#966 = FACE_BOUND ( 'NONE', #621, .T. ) ;
#967 = LINE ( 'NONE', #304, #769 ) ;
#968 = ORIENTED_EDGE ( 'NONE', *, *, #805, .T. ) ;
#969 = AXIS2_PLACEMENT_3D ( 'NONE', #699, #32, #112 ) ;
ENDSEC;
END-ISO-10303-21;
