ISO-10303-21;
HEADER;
FILE_DESCRIPTION (( 'STEP AP214' ),
    '1' );
FILE_NAME ('ENGG1101_webcam.STEP',
    '2026-06-10T08:17:07',
    ( '' ),
    ( '' ),
    'SwSTEP 2.0',
    'SolidWorks 2024',
    '' );
FILE_SCHEMA (( 'AUTOMOTIVE_DESIGN' ));
ENDSEC;

DATA;
#1 = PRODUCT_CONTEXT ( 'NONE', #488, 'mechanical' ) ;
#2 = CARTESIAN_POINT ( 'NONE',  ( -34.89999999999999147, -6.938893903907228378E-15, 20.00000000000000000 ) ) ;
#3 = DIRECTION ( 'NONE',  ( 1.000000000000000000, 1.242638593106595353E-16, 0.000000000000000000 ) ) ;
#4 = CARTESIAN_POINT ( 'NONE',  ( 5.830460278856145802E-15, -19.00000000000000355, 10.00000000000000000 ) ) ;
#5 = ORIENTED_EDGE ( 'NONE', *, *, #534, .T. ) ;
#6 = ORIENTED_EDGE ( 'NONE', *, *, #973, .T. ) ;
#7 = CIRCLE ( 'NONE', #755, 13.00000000000000000 ) ;
#8 = ADVANCED_FACE ( 'NONE', ( #704 ), #304, .F. ) ;
#9 = VERTEX_POINT ( 'NONE', #385 ) ;
#10 = VECTOR ( 'NONE', #436, 1000.000000000000000 ) ;
#11 = CARTESIAN_POINT ( 'NONE',  ( 16.40000000000000924, -10.20000000000003304, 1.000000000000000000 ) ) ;
#12 = ADVANCED_FACE ( 'NONE', ( #681 ), #623, .T. ) ;
#13 = DIRECTION ( 'NONE',  ( 1.000000000000000000, 0.000000000000000000, 0.000000000000000000 ) ) ;
#14 = CARTESIAN_POINT ( 'NONE',  ( 32.10000000000004405, 1.734723475976807094E-15, 0.000000000000000000 ) ) ;
#15 = AXIS2_PLACEMENT_3D ( 'NONE', #381, #990, #605 ) ;
#16 = VERTEX_POINT ( 'NONE', #2 ) ;
#17 = EDGE_LOOP ( 'NONE', ( #789, #157, #185, #494 ) ) ;
#18 = ORIENTED_EDGE ( 'NONE', *, *, #198, .F. ) ;
#19 = LINE ( 'NONE', #809, #274 ) ;
#20 = LINE ( 'NONE', #90, #27 ) ;
#21 = DIRECTION ( 'NONE',  ( 0.000000000000000000, 0.000000000000000000, 1.000000000000000000 ) ) ;
#22 = DIRECTION ( 'NONE',  ( 0.000000000000000000, -0.000000000000000000, 1.000000000000000000 ) ) ;
#23 = ORIENTED_EDGE ( 'NONE', *, *, #264, .T. ) ;
#24 = VERTEX_POINT ( 'NONE', #11 ) ;
#25 = DIRECTION ( 'NONE',  ( -0.000000000000000000, -1.000000000000000000, -0.000000000000000000 ) ) ;
#26 = CARTESIAN_POINT ( 'NONE',  ( 7.000000000000005329, -13.00000000000000000, 10.00000000000000000 ) ) ;
#27 = VECTOR ( 'NONE', #386, 1000.000000000000000 ) ;
#28 = DIRECTION ( 'NONE',  ( -0.7071067811865463515, 0.000000000000000000, -0.7071067811865487940 ) ) ;
#29 = ORIENTED_EDGE ( 'NONE', *, *, #187, .T. ) ;
#30 = EDGE_LOOP ( 'NONE', ( #801, #443, #763, #327 ) ) ;
#31 = DIRECTION ( 'NONE',  ( 1.000000000000000000, 0.000000000000000000, 0.000000000000000000 ) ) ;
#32 = CARTESIAN_POINT ( 'NONE',  ( 18.90000000000000568, -8.000000000000003553, 1.000000000000000000 ) ) ;
#33 = CARTESIAN_POINT ( 'NONE',  ( 7.400000000000003908, 9.674709713264094059E-16, 23.19999999999999929 ) ) ;
#34 = ORIENTED_EDGE ( 'NONE', *, *, #736, .F. ) ;
#35 = ADVANCED_FACE ( 'NONE', ( #772 ), #931, .T. ) ;
#36 = FACE_OUTER_BOUND ( 'NONE', #30, .T. ) ;
#37 = EDGE_CURVE ( 'NONE', #254, #136, #689, .T. ) ;
#38 = CARTESIAN_POINT ( 'NONE',  ( 34.90000000000000568, -12.99999999999999645, 20.00000000000000000 ) ) ;
#39 = CARTESIAN_POINT ( 'NONE',  ( 21.40000000000000568, -10.20000000000003304, 1.000000000000000000 ) ) ;
#40 = CIRCLE ( 'NONE', #430, 5.000000000000000888 ) ;
#41 = CIRCLE ( 'NONE', #173, 5.000000000000000888 ) ;
#42 = CARTESIAN_POINT ( 'NONE',  ( 18.90000000000000568, -8.000000000000003553, -5.000000000000000000 ) ) ;
#43 = CARTESIAN_POINT ( 'NONE',  ( 34.90000000000000568, -1.734723475976807094E-15, 20.00000000000000000 ) ) ;
#44 = DIRECTION ( 'NONE',  ( -1.242638593106595353E-16, 1.000000000000000000, -0.000000000000000000 ) ) ;
#45 = FACE_BOUND ( 'NONE', #437, .T. ) ;
#46 = CARTESIAN_POINT ( 'NONE',  ( 18.90000000000000568, -8.000000000000003553, -5.000000000000000000 ) ) ;
#47 = CARTESIAN_POINT ( 'NONE',  ( 0.000000000000000000, 0.000000000000000000, 21.19999999999999929 ) ) ;
#48 = ORIENTED_EDGE ( 'NONE', *, *, #264, .F. ) ;
#49 = ADVANCED_FACE ( 'NONE', ( #858 ), #543, .T. ) ;
#50 = CARTESIAN_POINT ( 'NONE',  ( 21.40000000000000924, -10.20000000000003304, 0.000000000000000000 ) ) ;
#51 = ORIENTED_EDGE ( 'NONE', *, *, #316, .F. ) ;
#52 = ADVANCED_FACE ( 'NONE', ( #469 ), #685, .T. ) ;
#53 = LINE ( 'NONE', #287, #850 ) ;
#54 = EDGE_CURVE ( 'NONE', #731, #508, #377, .T. ) ;
#55 = ORIENTED_EDGE ( 'NONE', *, *, #460, .F. ) ;
#56 = VECTOR ( 'NONE', #360, 1000.000000000000000 ) ;
#57 = CARTESIAN_POINT ( 'NONE',  ( -4.999999999999994671, -19.00000000000000355, 10.00000000000000000 ) ) ;
#58 = VECTOR ( 'NONE', #273, 1000.000000000000000 ) ;
#59 = EDGE_LOOP ( 'NONE', ( #370, #493 ) ) ;
#60 = LINE ( 'NONE', #688, #579 ) ;
#61 = CARTESIAN_POINT ( 'NONE',  ( -21.89999999999999503, 12.99999999999999645, 2.799999999999962075 ) ) ;
#62 = VECTOR ( 'NONE', #886, 1000.000000000000000 ) ;
#63 = EDGE_CURVE ( 'NONE', #16, #206, #106, .T. ) ;
#64 = DIRECTION ( 'NONE',  ( 1.000000000000000000, 1.242638593106595353E-16, 0.000000000000000000 ) ) ;
#65 = DIRECTION ( 'NONE',  ( -0.000000000000000000, -0.000000000000000000, -1.000000000000000000 ) ) ;
#66 = ORIENTED_EDGE ( 'NONE', *, *, #860, .F. ) ;
#67 = AXIS2_PLACEMENT_3D ( 'NONE', #697, #81, #315 ) ;
#68 = AXIS2_PLACEMENT_3D ( 'NONE', #182, #854, #312 ) ;
#69 = CARTESIAN_POINT ( 'NONE',  ( -1.267491364968731293E-15, 10.20000000000003126, 0.000000000000000000 ) ) ;
#70 = LINE ( 'NONE', #375, #542 ) ;
#71 = DIRECTION ( 'NONE',  ( -0.000000000000000000, -0.000000000000000000, 1.000000000000000000 ) ) ;
#72 = VECTOR ( 'NONE', #307, 1000.000000000000000 ) ;
#73 = VERTEX_POINT ( 'NONE', #398 ) ;
#74 = LINE ( 'NONE', #535, #705 ) ;
#75 = DIRECTION ( 'NONE',  ( -1.000000000000000000, -2.478176394252581634E-16, 0.000000000000000000 ) ) ;
#76 = EDGE_CURVE ( 'NONE', #942, #482, #134, .T. ) ;
#77 = CARTESIAN_POINT ( 'NONE',  ( -21.89999999999999503, -10.20000000000004015, 0.000000000000000000 ) ) ;
#78 = CARTESIAN_POINT ( 'NONE',  ( 16.40000000000000924, -10.20000000000003304, 1.000000000000000000 ) ) ;
#79 = ORIENTED_EDGE ( 'NONE', *, *, #686, .F. ) ;
#80 = DIRECTION ( 'NONE',  ( 0.000000000000000000, 0.000000000000000000, 1.000000000000000000 ) ) ;
#81 = DIRECTION ( 'NONE',  ( -0.000000000000000000, -0.000000000000000000, -1.000000000000000000 ) ) ;
#82 = PLANE ( 'NONE',  #154 ) ;
#83 = ADVANCED_FACE ( 'NONE', ( #938 ), #915, .T. ) ;
#84 = CARTESIAN_POINT ( 'NONE',  ( -21.89999999999999503, -3.469446951953614189E-15, 2.799999999999962075 ) ) ;
#85 = ORIENTED_EDGE ( 'NONE', *, *, #348, .T. ) ;
#86 = AXIS2_PLACEMENT_3D ( 'NONE', #923, #631, #89 ) ;
#87 = EDGE_CURVE ( 'NONE', #595, #780, #865, .T. ) ;
#88 = ORIENTED_EDGE ( 'NONE', *, *, #737, .F. ) ;
#89 = DIRECTION ( 'NONE',  ( 1.000000000000000000, 0.000000000000000000, 0.000000000000000000 ) ) ;
#90 = CARTESIAN_POINT ( 'NONE',  ( 7.000000000000006217, -19.00000000000000355, 10.00000000000000000 ) ) ;
#91 = DIRECTION ( 'NONE',  ( 1.000000000000000000, 0.000000000000000000, 0.000000000000000000 ) ) ;
#92 = ORIENTED_EDGE ( 'NONE', *, *, #276, .F. ) ;
#93 = ORIENTED_EDGE ( 'NONE', *, *, #54, .T. ) ;
#94 = VECTOR ( 'NONE', #64, 1000.000000000000000 ) ;
#95 = ORIENTED_EDGE ( 'NONE', *, *, #161, .F. ) ;
#96 = DIRECTION ( 'NONE',  ( 0.000000000000000000, 0.000000000000000000, 1.000000000000000000 ) ) ;
#97 = FACE_OUTER_BOUND ( 'NONE', #168, .T. ) ;
#98 = DIRECTION ( 'NONE',  ( -0.000000000000000000, -0.000000000000000000, -1.000000000000000000 ) ) ;
#99 = EDGE_LOOP ( 'NONE', ( #746, #29, #232, #361 ) ) ;
#100 = ORIENTED_EDGE ( 'NONE', *, *, #460, .T. ) ;
#101 = CARTESIAN_POINT ( 'NONE',  ( 21.90000000000000924, 1.734723475976807094E-15, 2.799999999999962075 ) ) ;
#102 = CARTESIAN_POINT ( 'NONE',  ( 0.000000000000000000, 0.000000000000000000, 21.19999999999999929 ) ) ;
#103 = FACE_OUTER_BOUND ( 'NONE', #305, .T. ) ;
#104 = ORIENTED_EDGE ( 'NONE', *, *, #981, .F. ) ;
#105 = ORIENTED_EDGE ( 'NONE', *, *, #226, .F. ) ;
#106 = CIRCLE ( 'NONE', #86, 13.00000000000000000 ) ;
#107 = DIRECTION ( 'NONE',  ( -1.000000000000000000, -1.242638593106595353E-16, 0.000000000000000000 ) ) ;
#108 = DIRECTION ( 'NONE',  ( 0.000000000000000000, 0.000000000000000000, 1.000000000000000000 ) ) ;
#109 = CARTESIAN_POINT ( 'NONE',  ( 21.40000000000000568, -10.20000000000003304, 1.000000000000000000 ) ) ;
#110 = EDGE_CURVE ( 'NONE', #559, #366, #530, .T. ) ;
#111 = ORIENTED_EDGE ( 'NONE', *, *, #438, .T. ) ;
#112 = EDGE_CURVE ( 'NONE', #881, #403, #484, .T. ) ;
#113 = VECTOR ( 'NONE', #976, 1000.000000000000000 ) ;
#114 = ORIENTED_EDGE ( 'NONE', *, *, #516, .T. ) ;
#115 = DIRECTION ( 'NONE',  ( -0.000000000000000000, -0.000000000000000000, -1.000000000000000000 ) ) ;
#116 = COLOUR_RGB ( '',0.7921568627450980005, 0.8196078431372548767, 0.9333333333333333481 ) ;
#117 = FACE_OUTER_BOUND ( 'NONE', #248, .T. ) ;
#118 = DIRECTION ( 'NONE',  ( -1.000000000000000000, 0.000000000000000000, 0.000000000000000000 ) ) ;
#119 = VECTOR ( 'NONE', #65, 1000.000000000000000 ) ;
#120 = VECTOR ( 'NONE', #735, 1000.000000000000000 ) ;
#121 = CARTESIAN_POINT ( 'NONE',  ( 21.90000000000000924, 1.734723475976807094E-15, 20.00000000000000000 ) ) ;
#122 = CARTESIAN_POINT ( 'NONE',  ( 16.40000000000000924, -8.000000000000003553, 1.000000000000000000 ) ) ;
#123 = AXIS2_PLACEMENT_3D ( 'NONE', #376, #994, #842 ) ;
#124 = CIRCLE ( 'NONE', #822, 1.750000000000001554 ) ;
#125 = LINE ( 'NONE', #61, #456 ) ;
#126 = DIRECTION ( 'NONE',  ( -1.000000000000000000, 0.000000000000000000, 0.000000000000000000 ) ) ;
#127 = DIRECTION ( 'NONE',  ( -1.000000000000000000, 0.000000000000000000, 0.000000000000000000 ) ) ;
#128 = AXIS2_PLACEMENT_3D ( 'NONE', #698, #919, #311 ) ;
#129 = EDGE_LOOP ( 'NONE', ( #455, #147, #514, #51 ) ) ;
#130 = SURFACE_SIDE_STYLE ('',( #587 ) ) ;
#131 = ORIENTED_EDGE ( 'NONE', *, *, #191, .T. ) ;
#132 = DIRECTION ( 'NONE',  ( 0.7071067811865474617, 0.000000000000000000, 0.7071067811865474617 ) ) ;
#133 = ORIENTED_EDGE ( 'NONE', *, *, #686, .T. ) ;
#134 = CIRCLE ( 'NONE', #149, 10.20000000000003482 ) ;
#135 = FILL_AREA_STYLE ('',( #830 ) ) ;
#136 = VERTEX_POINT ( 'NONE', #343 ) ;
#137 = EDGE_CURVE ( 'NONE', #723, #565, #490, .T. ) ;
#138 = DIRECTION ( 'NONE',  ( 0.000000000000000000, -1.000000000000000000, 0.000000000000000000 ) ) ;
#139 = DIRECTION ( 'NONE',  ( -1.000000000000000000, 0.000000000000000000, -0.000000000000000000 ) ) ;
#140 = AXIS2_PLACEMENT_3D ( 'NONE', #228, #997, #457 ) ;
#141 = STYLED_ITEM ( 'NONE', ( #441 ), #396 ) ;
#142 = ADVANCED_FACE ( 'NONE', ( #36 ), #193, .T. ) ;
#143 = DIRECTION ( 'NONE',  ( -1.000000000000000000, 0.000000000000000000, 0.000000000000000000 ) ) ;
#144 = LINE ( 'NONE', #596, #202 ) ;
#145 = CONICAL_SURFACE ( 'NONE', #855, 10.20000000000003482, 0.7853981633974485010 ) ;
#146 = LINE ( 'NONE', #984, #162 ) ;
#147 = ORIENTED_EDGE ( 'NONE', *, *, #606, .F. ) ;
#148 = EDGE_CURVE ( 'NONE', #366, #403, #336, .T. ) ;
#149 = AXIS2_PLACEMENT_3D ( 'NONE', #609, #777, #323 ) ;
#150 = ORIENTED_EDGE ( 'NONE', *, *, #523, .F. ) ;
#151 = ADVANCED_FACE ( 'NONE', ( #884 ), #571, .F. ) ;
#152 = CARTESIAN_POINT ( 'NONE',  ( 21.90000000000000924, 10.20000000000003659, 0.000000000000000000 ) ) ;
#153 = ORIENTED_EDGE ( 'NONE', *, *, #651, .T. ) ;
#154 = AXIS2_PLACEMENT_3D ( 'NONE', #1004, #932, #707 ) ;
#155 = DIRECTION ( 'NONE',  ( 1.242638593106595353E-16, -1.000000000000000000, 0.000000000000000000 ) ) ;
#156 = DIRECTION ( 'NONE',  ( 1.000000000000000000, 0.000000000000000000, 0.000000000000000000 ) ) ;
#157 = ORIENTED_EDGE ( 'NONE', *, *, #882, .T. ) ;
#158 = CIRCLE ( 'NONE', #367, 8.400000000000000355 ) ;
#159 = DIRECTION ( 'NONE',  ( 0.000000000000000000, 0.000000000000000000, -1.000000000000000000 ) ) ;
#160 = ORIENTED_EDGE ( 'NONE', *, *, #736, .T. ) ;
#161 = EDGE_CURVE ( 'NONE', #864, #828, #19, .T. ) ;
#162 = VECTOR ( 'NONE', #203, 1000.000000000000000 ) ;
#163 = CARTESIAN_POINT ( 'NONE',  ( -9.400000000000000355, 0.000000000000000000, 21.19999999999999929 ) ) ;
#164 = EDGE_CURVE ( 'NONE', #334, #756, #963, .T. ) ;
#165 = CARTESIAN_POINT ( 'NONE',  ( -4.999999999999995559, -13.00000000000000178, 10.00000000000000000 ) ) ;
#166 = ORIENTED_EDGE ( 'NONE', *, *, #477, .F. ) ;
#167 = ORIENTED_EDGE ( 'NONE', *, *, #338, .T. ) ;
#168 = EDGE_LOOP ( 'NONE', ( #285, #826 ) ) ;
#169 = FACE_OUTER_BOUND ( 'NONE', #871, .T. ) ;
#170 = LINE ( 'NONE', #326, #992 ) ;
#171 = ORIENTED_EDGE ( 'NONE', *, *, #885, .T. ) ;
#172 = ORIENTED_EDGE ( 'NONE', *, *, #161, .T. ) ;
#173 = AXIS2_PLACEMENT_3D ( 'NONE', #505, #664, #573 ) ;
#174 = ORIENTED_EDGE ( 'NONE', *, *, #300, .F. ) ;
#175 = LINE ( 'NONE', #349, #470 ) ;
#176 = CYLINDRICAL_SURFACE ( 'NONE', #288, 8.400000000000000355 ) ;
#177 = FACE_OUTER_BOUND ( 'NONE', #1007, .T. ) ;
#178 = VERTEX_POINT ( 'NONE', #423 ) ;
#179 = AXIS2_PLACEMENT_3D ( 'NONE', #683, #1001, #372 ) ;
#180 = ORIENTED_EDGE ( 'NONE', *, *, #267, .F. ) ;
#181 = DIRECTION ( 'NONE',  ( 1.000000000000000000, 1.242638593106595353E-16, 0.000000000000000000 ) ) ;
#182 = CARTESIAN_POINT ( 'NONE',  ( 21.90000000000000924, 1.854016780915040674E-15, 20.00000000000000000 ) ) ;
#183 = LINE ( 'NONE', #896, #851 ) ;
#184 = EDGE_LOOP ( 'NONE', ( #489, #180, #996, #166 ) ) ;
#185 = ORIENTED_EDGE ( 'NONE', *, *, #694, .F. ) ;
#186 = LINE ( 'NONE', #109, #553 ) ;
#187 = EDGE_CURVE ( 'NONE', #565, #231, #945, .T. ) ;
#188 = LINE ( 'NONE', #653, #62 ) ;
#189 = DIRECTION ( 'NONE',  ( 1.242638593106595353E-16, -1.000000000000000000, 0.000000000000000000 ) ) ;
#190 = ORIENTED_EDGE ( 'NONE', *, *, #511, .F. ) ;
#191 = EDGE_CURVE ( 'NONE', #870, #977, #353, .T. ) ;
#192 = ORIENTED_EDGE ( 'NONE', *, *, #435, .T. ) ;
#193 = CYLINDRICAL_SURFACE ( 'NONE', #831, 12.99999999999999822 ) ;
#194 = DIRECTION ( 'NONE',  ( 1.000000000000000000, 0.000000000000000000, 0.000000000000000000 ) ) ;
#195 = FACE_OUTER_BOUND ( 'NONE', #245, .T. ) ;
#196 = CIRCLE ( 'NONE', #420, 9.400000000000000355 ) ;
#197 = AXIS2_PLACEMENT_3D ( 'NONE', #806, #642, #891 ) ;
#198 = EDGE_CURVE ( 'NONE', #870, #559, #175, .T. ) ;
#199 = DIRECTION ( 'NONE',  ( 1.000000000000000000, 0.000000000000000000, -0.000000000000000000 ) ) ;
#200 = CARTESIAN_POINT ( 'NONE',  ( 21.90000000000000924, -12.99999999999999822, 20.00000000000000000 ) ) ;
#201 = EDGE_CURVE ( 'NONE', #687, #876, #40, .T. ) ;
#202 = VECTOR ( 'NONE', #738, 1000.000000000000000 ) ;
#203 = DIRECTION ( 'NONE',  ( -1.242638593106595353E-16, 1.000000000000000000, -0.000000000000000000 ) ) ;
#204 = LINE ( 'NONE', #812, #640 ) ;
#205 = CARTESIAN_POINT ( 'NONE',  ( 5.084877122992188492E-15, -13.00000000000000178, 10.00000000000000000 ) ) ;
#206 = VERTEX_POINT ( 'NONE', #566 ) ;
#207 = AXIS2_PLACEMENT_3D ( 'NONE', #918, #784, #75 ) ;
#208 = VECTOR ( 'NONE', #583, 1000.000000000000000 ) ;
#209 = VECTOR ( 'NONE', #251, 1000.000000000000114 ) ;
#210 = ORIENTED_EDGE ( 'NONE', *, *, #598, .T. ) ;
#211 = DIRECTION ( 'NONE',  ( 1.000000000000000000, 0.000000000000000000, 0.000000000000000000 ) ) ;
#212 = ORIENTED_EDGE ( 'NONE', *, *, #426, .T. ) ;
#213 = EDGE_CURVE ( 'NONE', #557, #828, #638, .T. ) ;
#214 = DIRECTION ( 'NONE',  ( -0.000000000000000000, -1.000000000000000000, -0.000000000000000000 ) ) ;
#215 = ORIENTED_EDGE ( 'NONE', *, *, #316, .T. ) ;
#216 = DIRECTION ( 'NONE',  ( 1.000000000000000000, 0.000000000000000000, 0.000000000000000000 ) ) ;
#217 = CARTESIAN_POINT ( 'NONE',  ( -6.999999999999993783, -19.00000000000000355, 10.00000000000000000 ) ) ;
#218 = AXIS2_PLACEMENT_3D ( 'NONE', #552, #998, #306 ) ;
#219 = AXIS2_PLACEMENT_3D ( 'NONE', #356, #966, #199 ) ;
#220 = DIRECTION ( 'NONE',  ( -0.000000000000000000, -0.000000000000000000, 1.000000000000000000 ) ) ;
#221 = ORIENTED_EDGE ( 'NONE', *, *, #373, .T. ) ;
#222 = DIRECTION ( 'NONE',  ( 0.000000000000000000, -0.7071067811865477948, -0.7071067811865473507 ) ) ;
#223 = CARTESIAN_POINT ( 'NONE',  ( -21.89999999999999503, -3.469446951953614189E-15, 0.000000000000000000 ) ) ;
#224 = DIRECTION ( 'NONE',  ( 0.000000000000000000, 0.000000000000000000, -1.000000000000000000 ) ) ;
#225 = DIRECTION ( 'NONE',  ( -1.000000000000000000, 0.000000000000000000, 0.000000000000000000 ) ) ;
#226 = EDGE_CURVE ( 'NONE', #808, #403, #186, .T. ) ;
#227 = ORIENTED_EDGE ( 'NONE', *, *, #983, .T. ) ;
#228 = CARTESIAN_POINT ( 'NONE',  ( 21.90000000000000924, 1.734723475976807094E-15, 0.000000000000000000 ) ) ;
#229 = VERTEX_POINT ( 'NONE', #880 ) ;
#230 = CARTESIAN_POINT ( 'NONE',  ( 34.90000000000000568, 13.00000000000000355, 20.00000000000000000 ) ) ;
#231 = VERTEX_POINT ( 'NONE', #333 ) ;
#232 = ORIENTED_EDGE ( 'NONE', *, *, #369, .T. ) ;
#233 = CARTESIAN_POINT ( 'NONE',  ( -32.10000000000002984, -3.495140894555694673E-15, 0.000000000000000000 ) ) ;
#234 = PLANE ( 'NONE',  #929 ) ;
#235 = EDGE_CURVE ( 'NONE', #136, #16, #253, .T. ) ;
#236 = LINE ( 'NONE', #639, #72 ) ;
#237 = AXIS2_PLACEMENT_3D ( 'NONE', #799, #641, #556 ) ;
#238 = CARTESIAN_POINT ( 'NONE',  ( 9.400000000000000355, 1.151167991198511931E-15, 20.00000000000000000 ) ) ;
#239 = ORIENTED_EDGE ( 'NONE', *, *, #882, .F. ) ;
#240 = AXIS2_PLACEMENT_3D ( 'NONE', #261, #563, #967 ) ;
#241 = DIRECTION ( 'NONE',  ( -0.000000000000000000, -0.000000000000000000, 1.000000000000000000 ) ) ;
#242 = AXIS2_PLACEMENT_3D ( 'NONE', #42, #759, #139 ) ;
#243 = FACE_OUTER_BOUND ( 'NONE', #483, .T. ) ;
#244 = DIRECTION ( 'NONE',  ( 0.000000000000000000, 0.000000000000000000, -1.000000000000000000 ) ) ;
#245 = EDGE_LOOP ( 'NONE', ( #904, #999, #936, #629 ) ) ;
#246 = EDGE_CURVE ( 'NONE', #468, #533, #427, .T. ) ;
#247 = ORIENTED_EDGE ( 'NONE', *, *, #290, .F. ) ;
#248 = EDGE_LOOP ( 'NONE', ( #541, #335 ) ) ;
#249 = CIRCLE ( 'NONE', #549, 10.20000000000003482 ) ;
#250 = ORIENTED_EDGE ( 'NONE', *, *, #395, .T. ) ;
#251 = DIRECTION ( 'NONE',  ( 0.7071067811865474617, -6.488700374767567607E-18, -0.7071067811865474617 ) ) ;
#252 = LINE ( 'NONE', #474, #498 ) ;
#253 = CIRCLE ( 'NONE', #507, 13.00000000000000000 ) ;
#254 = VERTEX_POINT ( 'NONE', #414 ) ;
#255 = AXIS2_PLACEMENT_3D ( 'NONE', #794, #774, #848 ) ;
#256 = ORIENTED_EDGE ( 'NONE', *, *, #110, .T. ) ;
#257 = DIRECTION ( 'NONE',  ( -0.000000000000000000, -0.000000000000000000, -1.000000000000000000 ) ) ;
#258 = CIRCLE ( 'NONE', #337, 7.000000000000000000 ) ;
#259 = DIRECTION ( 'NONE',  ( 0.000000000000000000, 0.000000000000000000, -1.000000000000000000 ) ) ;
#260 = CARTESIAN_POINT ( 'NONE',  ( 0.000000000000000000, 0.000000000000000000, 22.19999999999999574 ) ) ;
#261 = CARTESIAN_POINT ( 'NONE',  ( 18.90000000000000568, -8.000000000000003553, -5.000000000000000000 ) ) ;
#262 = EDGE_LOOP ( 'NONE', ( #23, #167, #131, #221 ) ) ;
#263 = EDGE_LOOP ( 'NONE', ( #247, #289 ) ) ;
#264 = EDGE_CURVE ( 'NONE', #808, #24, #268, .T. ) ;
#265 = DIRECTION ( 'NONE',  ( 1.000000000000000000, 0.000000000000000000, 0.000000000000000000 ) ) ;
#266 = DIRECTION ( 'NONE',  ( 1.000000000000000000, 0.000000000000000000, 0.000000000000000000 ) ) ;
#267 = EDGE_CURVE ( 'NONE', #952, #528, #249, .T. ) ;
#268 = LINE ( 'NONE', #39, #120 ) ;
#269 = ORIENTED_EDGE ( 'NONE', *, *, #1005, .F. ) ;
#270 = VERTEX_POINT ( 'NONE', #814 ) ;
#271 = DIRECTION ( 'NONE',  ( -1.000000000000000000, 0.000000000000000000, 0.000000000000000000 ) ) ;
#272 = DIRECTION ( 'NONE',  ( 1.000000000000000000, 0.000000000000000000, 0.000000000000000000 ) ) ;
#273 = DIRECTION ( 'NONE',  ( -0.000000000000000000, 1.000000000000000000, -0.000000000000000000 ) ) ;
#274 = VECTOR ( 'NONE', #115, 1000.000000000000000 ) ;
#275 = ADVANCED_FACE ( 'NONE', ( #818 ), #660, .T. ) ;
#276 = EDGE_CURVE ( 'NONE', #752, #559, #568, .T. ) ;
#277 = PLANE ( 'NONE',  #302 ) ;
#278 = CARTESIAN_POINT ( 'NONE',  ( 16.40000000000000924, -8.000000000000003553, 0.000000000000000000 ) ) ;
#279 = VECTOR ( 'NONE', #387, 1000.000000000000000 ) ;
#280 = AXIS2_PLACEMENT_3D ( 'NONE', #840, #765, #524 ) ;
#281 = CARTESIAN_POINT ( 'NONE',  ( 18.90000000000000568, -8.000000000000003553, 1.000000000000000000 ) ) ;
#282 = DIRECTION ( 'NONE',  ( 1.000000000000000000, 0.000000000000000000, -0.000000000000000000 ) ) ;
#283 = DIRECTION ( 'NONE',  ( -1.000000000000000000, 0.000000000000000000, 0.000000000000000000 ) ) ;
#284 = SURFACE_STYLE_USAGE ( .BOTH. , #130 ) ;
#285 = ORIENTED_EDGE ( 'NONE', *, *, #753, .T. ) ;
#286 = AXIS2_PLACEMENT_3D ( 'NONE', #804, #872, #31 ) ;
#287 = CARTESIAN_POINT ( 'NONE',  ( 32.10000000000004405, 1.734723475976807094E-15, 0.000000000000000000 ) ) ;
#288 = AXIS2_PLACEMENT_3D ( 'NONE', #793, #407, #143 ) ;
#289 = ORIENTED_EDGE ( 'NONE', *, *, #213, .F. ) ;
#290 = EDGE_CURVE ( 'NONE', #828, #557, #320, .T. ) ;
#291 = VECTOR ( 'NONE', #578, 1000.000000000000000 ) ;
#292 = PRODUCT ( 'ENGG1101_webcam', 'ENGG1101_webcam', '', ( #1 ) ) ;
#293 = CARTESIAN_POINT ( 'NONE',  ( 34.90000000000000568, 1.734723475976807094E-15, 20.00000000000000000 ) ) ;
#294 = ORIENTED_EDGE ( 'NONE', *, *, #76, .F. ) ;
#295 = AXIS2_PLACEMENT_3D ( 'NONE', #32, #895, #126 ) ;
#296 = CARTESIAN_POINT ( 'NONE',  ( -6.999999999999994671, -13.00000000000000355, 10.00000000000000000 ) ) ;
#297 = DIRECTION ( 'NONE',  ( 0.000000000000000000, 0.000000000000000000, 1.000000000000000000 ) ) ;
#298 = ORIENTED_EDGE ( 'NONE', *, *, #54, .F. ) ;
#299 = LINE ( 'NONE', #69, #94 ) ;
#300 = EDGE_CURVE ( 'NONE', #73, #864, #813, .T. ) ;
#301 = PLANE ( 'NONE',  #242 ) ;
#302 = AXIS2_PLACEMENT_3D ( 'NONE', #419, #108, #282 ) ;
#303 = CARTESIAN_POINT ( 'NONE',  ( 34.90000000000000568, 13.00000000000000355, 2.799999999999962075 ) ) ;
#304 = PLANE ( 'NONE',  #123 ) ;
#305 = EDGE_LOOP ( 'NONE', ( #849, #411, #153, #630, #928, #636 ) ) ;
#306 = DIRECTION ( 'NONE',  ( -1.000000000000000000, 0.000000000000000000, 0.000000000000000000 ) ) ;
#307 = DIRECTION ( 'NONE',  ( -0.000000000000000000, -0.000000000000000000, -1.000000000000000000 ) ) ;
#308 = EDGE_LOOP ( 'NONE', ( #862, #795, #88, #628, #487, #478 ) ) ;
#309 =( NAMED_UNIT ( * ) SI_UNIT ( $, .STERADIAN. ) SOLID_ANGLE_UNIT ( ) );
#310 = DIRECTION ( 'NONE',  ( 1.000000000000000000, 0.000000000000000000, 0.000000000000000000 ) ) ;
#311 = DIRECTION ( 'NONE',  ( -1.000000000000000000, -1.242638593106595353E-16, 0.000000000000000000 ) ) ;
#312 = DIRECTION ( 'NONE',  ( -1.000000000000000000, 0.000000000000000000, 0.000000000000000000 ) ) ;
#313 = ORIENTED_EDGE ( 'NONE', *, *, #885, .F. ) ;
#314 = APPLICATION_PROTOCOL_DEFINITION ( 'draft international standard', 'automotive_design', 1998, #1002 ) ;
#315 = DIRECTION ( 'NONE',  ( -1.000000000000000000, 0.000000000000000000, 0.000000000000000000 ) ) ;
#316 = EDGE_CURVE ( 'NONE', #832, #952, #501, .T. ) ;
#317 = CARTESIAN_POINT ( 'NONE',  ( 21.90000000000000924, -10.20000000000003304, 0.000000000000000000 ) ) ;
#318 = CARTESIAN_POINT ( 'NONE',  ( 16.40000000000000924, -8.000000000000003553, 0.000000000000000000 ) ) ;
#319 = EDGE_LOOP ( 'NONE', ( #550, #645 ) ) ;
#320 = CIRCLE ( 'NONE', #580, 9.400000000000000355 ) ;
#321 = EDGE_LOOP ( 'NONE', ( #341, #105, #600, #111 ) ) ;
#322 = ORIENTED_EDGE ( 'NONE', *, *, #975, .T. ) ;
#323 = DIRECTION ( 'NONE',  ( 1.000000000000000000, 0.000000000000000000, 0.000000000000000000 ) ) ;
#324 = VECTOR ( 'NONE', #839, 1000.000000000000000 ) ;
#325 = FACE_OUTER_BOUND ( 'NONE', #902, .T. ) ;
#326 = CARTESIAN_POINT ( 'NONE',  ( 21.40000000000000568, -10.20000000000003304, 0.000000000000000000 ) ) ;
#327 = ORIENTED_EDGE ( 'NONE', *, *, #235, .F. ) ;
#328 = VERTEX_POINT ( 'NONE', #951 ) ;
#329 = EDGE_LOOP ( 'NONE', ( #710, #655, #160, #570 ) ) ;
#330 = DIRECTION ( 'NONE',  ( 1.000000000000000000, 0.000000000000000000, 0.000000000000000000 ) ) ;
#331 = LINE ( 'NONE', #317, #682 ) ;
#332 = DIRECTION ( 'NONE',  ( 0.000000000000000000, 0.000000000000000000, 1.000000000000000000 ) ) ;
#333 = CARTESIAN_POINT ( 'NONE',  ( 34.90000000000000568, 1.734723475976807094E-15, 2.799999999999962075 ) ) ;
#334 = VERTEX_POINT ( 'NONE', #33 ) ;
#335 = ORIENTED_EDGE ( 'NONE', *, *, #300, .T. ) ;
#336 = LINE ( 'NONE', #406, #574 ) ;
#337 = AXIS2_PLACEMENT_3D ( 'NONE', #778, #713, #690 ) ;
#338 = EDGE_CURVE ( 'NONE', #24, #870, #429, .T. ) ;
#339 = FACE_OUTER_BOUND ( 'NONE', #791, .T. ) ;
#340 = LINE ( 'NONE', #293, #626 ) ;
#341 = ORIENTED_EDGE ( 'NONE', *, *, #148, .T. ) ;
#342 = ORIENTED_EDGE ( 'NONE', *, *, #148, .F. ) ;
#343 = CARTESIAN_POINT ( 'NONE',  ( -21.89999999999999503, 12.99999999999999645, 20.00000000000000000 ) ) ;
#344 = FACE_OUTER_BOUND ( 'NONE', #845, .T. ) ;
#345 = DIRECTION ( 'NONE',  ( 1.000000000000000000, 0.000000000000000000, 0.000000000000000000 ) ) ;
#346 = EDGE_CURVE ( 'NONE', #756, #270, #183, .T. ) ;
#347 = VERTEX_POINT ( 'NONE', #200 ) ;
#348 = EDGE_CURVE ( 'NONE', #229, #178, #672, .T. ) ;
#349 = CARTESIAN_POINT ( 'NONE',  ( 16.40000000000000924, -8.000000000000003553, 1.000000000000000000 ) ) ;
#350 = PRODUCT_DEFINITION_CONTEXT ( 'detailed design', #1002, 'design' ) ;
#351 = DIRECTION ( 'NONE',  ( 0.000000000000000000, 0.000000000000000000, -1.000000000000000000 ) ) ;
#352 = DIRECTION ( 'NONE',  ( -0.000000000000000000, 0.000000000000000000, -1.000000000000000000 ) ) ;
#353 = CIRCLE ( 'NONE', #909, 2.499999999999998668 ) ;
#354 = ADVANCED_FACE ( 'NONE', ( #741 ), #961, .F. ) ;
#355 = DIRECTION ( 'NONE',  ( 0.000000000000000000, -0.000000000000000000, 1.000000000000000000 ) ) ;
#356 = CARTESIAN_POINT ( 'NONE',  ( 0.000000000000000000, 0.000000000000000000, 0.000000000000000000 ) ) ;
#357 = CARTESIAN_POINT ( 'NONE',  ( 0.000000000000000000, 0.000000000000000000, 20.00000000000000000 ) ) ;
#358 = CARTESIAN_POINT ( 'NONE',  ( 21.90000000000000924, 13.00000000000000178, 20.00000000000000000 ) ) ;
#359 = FACE_OUTER_BOUND ( 'NONE', #99, .T. ) ;
#360 = DIRECTION ( 'NONE',  ( -0.000000000000000000, -0.000000000000000000, -1.000000000000000000 ) ) ;
#361 = ORIENTED_EDGE ( 'NONE', *, *, #691, .F. ) ;
#362 = LINE ( 'NONE', #57, #113 ) ;
#363 = ADVANCED_FACE ( 'NONE', ( #195 ), #980, .T. ) ;
#364 = ORIENTED_EDGE ( 'NONE', *, *, #164, .F. ) ;
#365 = ADVANCED_FACE ( 'NONE', ( #499, #103 ), #425, .T. ) ;
#366 = VERTEX_POINT ( 'NONE', #721 ) ;
#367 = AXIS2_PLACEMENT_3D ( 'NONE', #47, #972, #211 ) ;
#368 = CARTESIAN_POINT ( 'NONE',  ( 17.15000000000000568, -8.000000000000003553, -5.000000000000000000 ) ) ;
#369 = EDGE_CURVE ( 'NONE', #231, #595, #340, .T. ) ;
#370 = ORIENTED_EDGE ( 'NONE', *, *, #246, .T. ) ;
#371 = AXIS2_PLACEMENT_3D ( 'NONE', #281, #355, #445 ) ;
#372 = DIRECTION ( 'NONE',  ( 1.000000000000000000, 0.000000000000000000, 0.000000000000000000 ) ) ;
#373 = EDGE_CURVE ( 'NONE', #977, #808, #668, .T. ) ;
#374 = CARTESIAN_POINT ( 'NONE',  ( 21.90000000000000924, 13.00000000000000178, 20.00000000000000000 ) ) ;
#375 = CARTESIAN_POINT ( 'NONE',  ( -21.89999999999999503, -10.20000000000004015, 0.000000000000000000 ) ) ;
#376 = CARTESIAN_POINT ( 'NONE',  ( 16.40000000000000924, -8.000000000000003553, 1.000000000000000000 ) ) ;
#377 = CIRCLE ( 'NONE', #207, 7.000000000000000000 ) ;
#378 = CIRCLE ( 'NONE', #947, 1.750000000000001554 ) ;
#379 = AXIS2_PLACEMENT_3D ( 'NONE', #833, #138, #612 ) ;
#380 = DIRECTION ( 'NONE',  ( 1.242638593106595353E-16, -1.000000000000000000, 0.000000000000000000 ) ) ;
#381 = CARTESIAN_POINT ( 'NONE',  ( 0.000000000000000000, 0.000000000000000000, 23.19999999999999929 ) ) ;
#382 = CARTESIAN_POINT ( 'NONE',  ( 0.000000000000000000, 0.000000000000000000, 21.19999999999999929 ) ) ;
#383 = ORIENTED_EDGE ( 'NONE', *, *, #835, .T. ) ;
#384 = CARTESIAN_POINT ( 'NONE',  ( 18.90000000000000568, -8.000000000000003553, 1.000000000000000000 ) ) ;
#385 = CARTESIAN_POINT ( 'NONE',  ( 21.90000000000000924, 13.00000000000000178, 2.799999999999962075 ) ) ;
#386 = DIRECTION ( 'NONE',  ( -1.242638593106595353E-16, 1.000000000000000000, -0.000000000000000000 ) ) ;
#387 = DIRECTION ( 'NONE',  ( -0.000000000000000000, -0.000000000000000000, 1.000000000000000000 ) ) ;
#388 = ORIENTED_EDGE ( 'NONE', *, *, #438, .F. ) ;
#389 = DIRECTION ( 'NONE',  ( 1.000000000000000000, 0.000000000000000000, 0.000000000000000000 ) ) ;
#390 = EDGE_CURVE ( 'NONE', #391, #921, #158, .T. ) ;
#391 = VERTEX_POINT ( 'NONE', #749 ) ;
#392 = FACE_OUTER_BOUND ( 'NONE', #937, .T. ) ;
#393 = FACE_OUTER_BOUND ( 'NONE', #17, .T. ) ;
#394 = ORIENTED_EDGE ( 'NONE', *, *, #137, .T. ) ;
#395 = EDGE_CURVE ( 'NONE', #687, #533, #517, .T. ) ;
#396 = MANIFOLD_SOLID_BREP ( 'Cut-Extrude1', #601 ) ;
#397 = ORIENTED_EDGE ( 'NONE', *, *, #338, .F. ) ;
#398 = CARTESIAN_POINT ( 'NONE',  ( 9.400000000000000355, 1.151167991198511931E-15, 21.19999999999999929 ) ) ;
#399 = DIRECTION ( 'NONE',  ( 0.000000000000000000, 0.000000000000000000, 1.000000000000000000 ) ) ;
#400 = CONICAL_SURFACE ( 'NONE', #978, 10.20000000000003482, 0.7853981633974485010 ) ;
#401 =( GEOMETRIC_REPRESENTATION_CONTEXT ( 3 ) GLOBAL_UNCERTAINTY_ASSIGNED_CONTEXT ( ( #496 ) ) GLOBAL_UNIT_ASSIGNED_CONTEXT ( ( #838, #917, #309 ) ) REPRESENTATION_CONTEXT ( 'NONE', 'WORKASPACE' ) );
#402 = CARTESIAN_POINT ( 'NONE',  ( 18.90000000000000568, -8.000000000000003553, -5.000000000000000000 ) ) ;
#403 = VERTEX_POINT ( 'NONE', #50 ) ;
#404 = EDGE_LOOP ( 'NONE', ( #174, #100, #635, #95 ) ) ;
#405 = ORIENTED_EDGE ( 'NONE', *, *, #346, .F. ) ;
#406 = CARTESIAN_POINT ( 'NONE',  ( 21.40000000000000568, -10.20000000000003304, 0.000000000000000000 ) ) ;
#407 = DIRECTION ( 'NONE',  ( -0.000000000000000000, -0.000000000000000000, -1.000000000000000000 ) ) ;
#408 = CYLINDRICAL_SURFACE ( 'NONE', #237, 5.000000000000000888 ) ;
#409 = ORIENTED_EDGE ( 'NONE', *, *, #1000, .F. ) ;
#410 = EDGE_CURVE ( 'NONE', #876, #468, #362, .T. ) ;
#411 = ORIENTED_EDGE ( 'NONE', *, *, #63, .T. ) ;
#412 = CARTESIAN_POINT ( 'NONE',  ( 0.000000000000000000, 0.000000000000000000, 20.00000000000000000 ) ) ;
#413 = DIRECTION ( 'NONE',  ( -1.000000000000000000, 0.000000000000000000, 0.000000000000000000 ) ) ;
#414 = CARTESIAN_POINT ( 'NONE',  ( -21.89999999999999503, 12.99999999999999645, 2.799999999999962075 ) ) ;
#415 = ORIENTED_EDGE ( 'NONE', *, *, #201, .T. ) ;
#416 = ORIENTED_EDGE ( 'NONE', *, *, #981, .T. ) ;
#417 = DIRECTION ( 'NONE',  ( 0.000000000000000000, -0.000000000000000000, 1.000000000000000000 ) ) ;
#418 = CIRCLE ( 'NONE', #995, 1.750000000000001554 ) ;
#419 = CARTESIAN_POINT ( 'NONE',  ( 0.000000000000000000, 0.000000000000000000, 21.19999999999999929 ) ) ;
#420 = AXIS2_PLACEMENT_3D ( 'NONE', #102, #949, #779 ) ;
#421 = DIRECTION ( 'NONE',  ( 1.000000000000000000, 0.000000000000000000, 0.000000000000000000 ) ) ;
#422 = ORIENTED_EDGE ( 'NONE', *, *, #973, .F. ) ;
#423 = CARTESIAN_POINT ( 'NONE',  ( 17.15000000000000568, -8.000000000000003553, 1.000000000000000000 ) ) ;
#424 = CARTESIAN_POINT ( 'NONE',  ( 5.000000000000007105, -19.00000000000000355, 10.00000000000000000 ) ) ;
#425 = PLANE ( 'NONE',  #446 ) ;
#426 = EDGE_CURVE ( 'NONE', #482, #231, #53, .T. ) ;
#427 = CIRCLE ( 'NONE', #988, 5.000000000000000888 ) ;
#428 = CARTESIAN_POINT ( 'NONE',  ( 0.000000000000000000, 0.000000000000000000, 21.19999999999999929 ) ) ;
#429 = LINE ( 'NONE', #122, #58 ) ;
#430 = AXIS2_PLACEMENT_3D ( 'NONE', #656, #962, #792 ) ;
#431 = AXIS2_PLACEMENT_3D ( 'NONE', #4, #627, #547 ) ;
#432 = DIRECTION ( 'NONE',  ( 1.000000000000000000, 0.000000000000000000, 0.000000000000000000 ) ) ;
#433 = CARTESIAN_POINT ( 'NONE',  ( 0.000000000000000000, 0.000000000000000000, 23.19999999999999929 ) ) ;
#434 = ORIENTED_EDGE ( 'NONE', *, *, #624, .T. ) ;
#435 = EDGE_CURVE ( 'NONE', #717, #178, #744, .T. ) ;
#436 = DIRECTION ( 'NONE',  ( -1.242638593106595353E-16, 1.000000000000000000, -0.000000000000000000 ) ) ;
#437 = EDGE_LOOP ( 'NONE', ( #769, #953 ) ) ;
#438 = EDGE_CURVE ( 'NONE', #977, #366, #590, .T. ) ;
#439 = VERTEX_POINT ( 'NONE', #900 ) ;
#440 = ADVANCED_FACE ( 'NONE', ( #674 ), #622, .T. ) ;
#441 = PRESENTATION_STYLE_ASSIGNMENT (( #284 ) ) ;
#442 = ADVANCED_FACE ( 'NONE', ( #908 ), #234, .F. ) ;
#443 = ORIENTED_EDGE ( 'NONE', *, *, #477, .T. ) ;
#444 = SHAPE_DEFINITION_REPRESENTATION ( #592, #604 ) ;
#445 = DIRECTION ( 'NONE',  ( 1.000000000000000000, 0.000000000000000000, -0.000000000000000000 ) ) ;
#446 = AXIS2_PLACEMENT_3D ( 'NONE', #715, #22, #486 ) ;
#447 = CONICAL_SURFACE ( 'NONE', #760, 7.400000000000003908, 0.7853981633974466137 ) ;
#448 = CARTESIAN_POINT ( 'NONE',  ( 5.084877122992188492E-15, -13.00000000000000178, 10.00000000000000000 ) ) ;
#449 = DIRECTION ( 'NONE',  ( -1.000000000000000000, -2.478176394252581634E-16, 0.000000000000000000 ) ) ;
#450 = DIRECTION ( 'NONE',  ( -1.242638593106595353E-16, 1.000000000000000000, -0.000000000000000000 ) ) ;
#451 = CARTESIAN_POINT ( 'NONE',  ( 8.400000000000000355, 1.028703311283776783E-15, 21.19999999999999929 ) ) ;
#452 = DIRECTION ( 'NONE',  ( 0.000000000000000000, -0.000000000000000000, 1.000000000000000000 ) ) ;
#453 = ORIENTED_EDGE ( 'NONE', *, *, #534, .F. ) ;
#454 = ORIENTED_EDGE ( 'NONE', *, *, #727, .T. ) ;
#455 = ORIENTED_EDGE ( 'NONE', *, *, #737, .T. ) ;
#456 = VECTOR ( 'NONE', #742, 1000.000000000000000 ) ;
#457 = DIRECTION ( 'NONE',  ( 1.000000000000000000, 0.000000000000000000, 0.000000000000000000 ) ) ;
#458 = DIRECTION ( 'NONE',  ( -1.000000000000000000, 0.000000000000000000, 0.000000000000000000 ) ) ;
#459 = CARTESIAN_POINT ( 'NONE',  ( 34.90000000000000568, 13.00000000000000355, 20.00000000000000000 ) ) ;
#460 = EDGE_CURVE ( 'NONE', #73, #557, #252, .T. ) ;
#461 = CARTESIAN_POINT ( 'NONE',  ( 34.90000000000000568, -12.99999999999999645, 2.799999999999962075 ) ) ;
#462 = EDGE_LOOP ( 'NONE', ( #150, #192, #944, #190 ) ) ;
#463 = APPLICATION_PROTOCOL_DEFINITION ( 'draft international standard', 'automotive_design', 1998, #488 ) ;
#464 = CARTESIAN_POINT ( 'NONE',  ( -21.89999999999999503, 12.99999999999999645, 20.00000000000000000 ) ) ;
#465 = DIRECTION ( 'NONE',  ( 1.000000000000000000, 0.000000000000000000, 0.000000000000000000 ) ) ;
#466 = FACE_OUTER_BOUND ( 'NONE', #129, .T. ) ;
#467 = EDGE_LOOP ( 'NONE', ( #212, #716, #569, #269 ) ) ;
#468 = VERTEX_POINT ( 'NONE', #165 ) ;
#469 = FACE_OUTER_BOUND ( 'NONE', #620, .T. ) ;
#470 = VECTOR ( 'NONE', #257, 1000.000000000000000 ) ;
#471 = LINE ( 'NONE', #459, #768 ) ;
#472 = AXIS2_PLACEMENT_3D ( 'NONE', #820, #970, #272 ) ;
#473 = EDGE_CURVE ( 'NONE', #864, #73, #196, .T. ) ;
#474 = CARTESIAN_POINT ( 'NONE',  ( 9.400000000000000355, 1.151167991198511931E-15, 21.19999999999999929 ) ) ;
#475 = ORIENTED_EDGE ( 'NONE', *, *, #410, .F. ) ;
#476 = ORIENTED_EDGE ( 'NONE', *, *, #598, .F. ) ;
#477 = EDGE_CURVE ( 'NONE', #254, #974, #7, .T. ) ;
#478 = ORIENTED_EDGE ( 'NONE', *, *, #112, .F. ) ;
#479 = DIRECTION ( 'NONE',  ( -1.000000000000000000, -1.242638593106595353E-16, 0.000000000000000000 ) ) ;
#480 = CARTESIAN_POINT ( 'NONE',  ( 16.40000000000000924, -8.000000000000003553, 1.000000000000000000 ) ) ;
#481 = CARTESIAN_POINT ( 'NONE',  ( 5.830460278856145802E-15, -19.00000000000000355, 10.00000000000000000 ) ) ;
#482 = VERTEX_POINT ( 'NONE', #14 ) ;
#483 = EDGE_LOOP ( 'NONE', ( #6, #104, #843, #877 ) ) ;
#484 = LINE ( 'NONE', #726, #519 ) ;
#485 = DIRECTION ( 'NONE',  ( -1.242638593106595353E-16, 1.000000000000000000, -0.000000000000000000 ) ) ;
#486 = DIRECTION ( 'NONE',  ( 1.000000000000000000, 0.000000000000000000, -0.000000000000000000 ) ) ;
#487 = ORIENTED_EDGE ( 'NONE', *, *, #586, .F. ) ;
#488 = APPLICATION_CONTEXT ( 'automotive_design' ) ;
#489 = ORIENTED_EDGE ( 'NONE', *, *, #811, .T. ) ;
#490 = LINE ( 'NONE', #560, #844 ) ;
#491 = DIRECTION ( 'NONE',  ( 0.000000000000000000, 0.000000000000000000, -1.000000000000000000 ) ) ;
#492 = DIRECTION ( 'NONE',  ( 0.000000000000000000, 0.000000000000000000, 1.000000000000000000 ) ) ;
#493 = ORIENTED_EDGE ( 'NONE', *, *, #907, .T. ) ;
#494 = ORIENTED_EDGE ( 'NONE', *, *, #87, .F. ) ;
#495 = CARTESIAN_POINT ( 'NONE',  ( 34.90000000000000568, -12.99999999999999645, 20.00000000000000000 ) ) ;
#496 = UNCERTAINTY_MEASURE_WITH_UNIT (LENGTH_MEASURE( 1.000000000000000082E-05 ), #838, 'distance_accuracy_value', 'NONE');
#497 = DIRECTION ( 'NONE',  ( -1.000000000000000000, 0.000000000000000000, 0.000000000000000000 ) ) ;
#498 = VECTOR ( 'NONE', #98, 1000.000000000000000 ) ;
#499 = FACE_BOUND ( 'NONE', #263, .T. ) ;
#500 = ADVANCED_FACE ( 'NONE', ( #339 ), #408, .F. ) ;
#501 = CIRCLE ( 'NONE', #197, 10.20000000000003482 ) ;
#502 = CYLINDRICAL_SURFACE ( 'NONE', #816, 13.00000000000000000 ) ;
#503 = CARTESIAN_POINT ( 'NONE',  ( -21.89999999999999503, -3.469446951953614189E-15, 0.000000000000000000 ) ) ;
#504 = LINE ( 'NONE', #762, #119 ) ;
#505 = CARTESIAN_POINT ( 'NONE',  ( 5.830460278856145802E-15, -19.00000000000000355, 10.00000000000000000 ) ) ;
#506 = DIRECTION ( 'NONE',  ( 0.000000000000000000, 0.000000000000000000, -1.000000000000000000 ) ) ;
#507 = AXIS2_PLACEMENT_3D ( 'NONE', #956, #648, #421 ) ;
#508 = VERTEX_POINT ( 'NONE', #26 ) ;
#509 = VECTOR ( 'NONE', #608, 1000.000000000000000 ) ;
#510 =( NAMED_UNIT ( * ) SI_UNIT ( $, .STERADIAN. ) SOLID_ANGLE_UNIT ( ) );
#511 = EDGE_CURVE ( 'NONE', #328, #229, #714, .T. ) ;
#512 = ORIENTED_EDGE ( 'NONE', *, *, #751, .T. ) ;
#513 = CARTESIAN_POINT ( 'NONE',  ( 5.000000000000007105, -19.00000000000000355, 10.00000000000000000 ) ) ;
#514 = ORIENTED_EDGE ( 'NONE', *, *, #829, .T. ) ;
#515 = ADVANCED_FACE ( 'NONE', ( #466 ), #400, .T. ) ;
#516 = EDGE_CURVE ( 'NONE', #916, #270, #703, .T. ) ;
#517 = LINE ( 'NONE', #513, #10 ) ;
#518 = ORIENTED_EDGE ( 'NONE', *, *, #586, .T. ) ;
#519 = VECTOR ( 'NONE', #107, 1000.000000000000000 ) ;
#520 = CYLINDRICAL_SURFACE ( 'NONE', #869, 12.99999999999999822 ) ;
#521 = CARTESIAN_POINT ( 'NONE',  ( 16.40000000000000924, -10.20000000000003304, 0.000000000000000000 ) ) ;
#522 = ORIENTED_EDGE ( 'NONE', *, *, #751, .F. ) ;
#523 = EDGE_CURVE ( 'NONE', #717, #328, #124, .T. ) ;
#524 = DIRECTION ( 'NONE',  ( 1.000000000000000000, 0.000000000000000000, 0.000000000000000000 ) ) ;
#525 = FACE_OUTER_BOUND ( 'NONE', #262, .T. ) ;
#526 = CARTESIAN_POINT ( 'NONE',  ( -21.89999999999999503, -13.00000000000000355, 2.799999999999962075 ) ) ;
#527 = CARTESIAN_POINT ( 'NONE',  ( 21.90000000000000924, 1.854016780915040674E-15, 20.00000000000000000 ) ) ;
#528 = VERTEX_POINT ( 'NONE', #633 ) ;
#529 = ORIENTED_EDGE ( 'NONE', *, *, #611, .F. ) ;
#530 = CIRCLE ( 'NONE', #286, 2.499999999999998668 ) ;
#531 = ADVANCED_FACE ( 'NONE', ( #562 ), #910, .T. ) ;
#532 = PLANE ( 'NONE',  #950 ) ;
#533 = VERTEX_POINT ( 'NONE', #933 ) ;
#534 = EDGE_CURVE ( 'NONE', #24, #752, #647, .T. ) ;
#535 = CARTESIAN_POINT ( 'NONE',  ( 21.90000000000000924, 13.00000000000000178, 2.799999999999962075 ) ) ;
#536 = VECTOR ( 'NONE', #754, 1000.000000000000000 ) ;
#537 = CARTESIAN_POINT ( 'NONE',  ( 18.90000000000000568, -8.000000000000003553, -5.000000000000000000 ) ) ;
#538 = LINE ( 'NONE', #867, #209 ) ;
#539 = VECTOR ( 'NONE', #214, 1000.000000000000000 ) ;
#540 = CARTESIAN_POINT ( 'NONE',  ( 21.90000000000000924, -12.99999999999999822, 2.799999999999962075 ) ) ;
#541 = ORIENTED_EDGE ( 'NONE', *, *, #473, .T. ) ;
#542 = VECTOR ( 'NONE', #906, 1000.000000000000114 ) ;
#543 = CYLINDRICAL_SURFACE ( 'NONE', #821, 9.400000000000000355 ) ;
#544 = ADVANCED_FACE ( 'NONE', ( #393 ), #699, .T. ) ;
#545 = PLANE ( 'NONE',  #589 ) ;
#546 = ADVANCED_FACE ( 'NONE', ( #619 ), #927, .T. ) ;
#547 = DIRECTION ( 'NONE',  ( 1.000000000000000000, 1.242638593106595353E-16, 0.000000000000000000 ) ) ;
#548 = ORIENTED_EDGE ( 'NONE', *, *, #290, .T. ) ;
#549 = AXIS2_PLACEMENT_3D ( 'NONE', #503, #352, #345 ) ;
#550 = ORIENTED_EDGE ( 'NONE', *, *, #621, .T. ) ;
#551 = ORIENTED_EDGE ( 'NONE', *, *, #798, .T. ) ;
#552 = CARTESIAN_POINT ( 'NONE',  ( 0.000000000000000000, 0.000000000000000000, 23.19999999999999929 ) ) ;
#553 = VECTOR ( 'NONE', #654, 1000.000000000000000 ) ;
#554 = DIRECTION ( 'NONE',  ( -1.000000000000000000, -1.242638593106595353E-16, 0.000000000000000000 ) ) ;
#555 = CIRCLE ( 'NONE', #603, 8.400000000000000355 ) ;
#556 = DIRECTION ( 'NONE',  ( -1.000000000000000000, 0.000000000000000000, 0.000000000000000000 ) ) ;
#557 = VERTEX_POINT ( 'NONE', #238 ) ;
#558 = AXIS2_PLACEMENT_3D ( 'NONE', #230, #155, #3 ) ;
#559 = VERTEX_POINT ( 'NONE', #318 ) ;
#560 = CARTESIAN_POINT ( 'NONE',  ( 34.90000000000000568, -12.99999999999999645, 2.799999999999962075 ) ) ;
#561 = CIRCLE ( 'NONE', #140, 10.20000000000003482 ) ;
#562 = FACE_OUTER_BOUND ( 'NONE', #467, .T. ) ;
#563 = DIRECTION ( 'NONE',  ( -0.000000000000000000, -0.000000000000000000, 1.000000000000000000 ) ) ;
#564 = ORIENTED_EDGE ( 'NONE', *, *, #511, .T. ) ;
#565 = VERTEX_POINT ( 'NONE', #540 ) ;
#566 = CARTESIAN_POINT ( 'NONE',  ( -21.89999999999999503, -13.00000000000000355, 20.00000000000000000 ) ) ;
#567 = DIRECTION ( 'NONE',  ( 0.000000000000000000, 0.000000000000000000, -1.000000000000000000 ) ) ;
#568 = LINE ( 'NONE', #278, #291 ) ;
#569 = ORIENTED_EDGE ( 'NONE', *, *, #857, .F. ) ;
#570 = ORIENTED_EDGE ( 'NONE', *, *, #722, .F. ) ;
#571 = PLANE ( 'NONE',  #696 ) ;
#572 = ADVANCED_FACE ( 'NONE', ( #177, #720 ), #955, .T. ) ;
#573 = DIRECTION ( 'NONE',  ( 1.000000000000000000, 0.000000000000000000, 0.000000000000000000 ) ) ;
#574 = VECTOR ( 'NONE', #25, 1000.000000000000000 ) ;
#575 = CARTESIAN_POINT ( 'NONE',  ( 18.90000000000000568, -8.000000000000003553, 1.000000000000000000 ) ) ;
#576 = LINE ( 'NONE', #38, #208 ) ;
#577 = AXIS2_PLACEMENT_3D ( 'NONE', #986, #297, #599 ) ;
#578 = DIRECTION ( 'NONE',  ( -0.000000000000000000, 1.000000000000000000, -0.000000000000000000 ) ) ;
#579 = VECTOR ( 'NONE', #912, 1000.000000000000000 ) ;
#580 = AXIS2_PLACEMENT_3D ( 'NONE', #357, #492, #800 ) ;
#581 = VECTOR ( 'NONE', #224, 1000.000000000000000 ) ;
#582 = LINE ( 'NONE', #358, #581 ) ;
#583 = DIRECTION ( 'NONE',  ( 1.000000000000000000, 1.242638593106595353E-16, -0.000000000000000000 ) ) ;
#584 = CARTESIAN_POINT ( 'NONE',  ( 0.000000000000000000, 0.000000000000000000, 23.19999999999999929 ) ) ;
#585 = EDGE_LOOP ( 'NONE', ( #256, #388, #700, #982 ) ) ;
#586 = EDGE_CURVE ( 'NONE', #403, #752, #170, .T. ) ;
#587 = SURFACE_STYLE_FILL_AREA ( #135 ) ;
#588 = ORIENTED_EDGE ( 'NONE', *, *, #835, .F. ) ;
#589 = AXIS2_PLACEMENT_3D ( 'NONE', #632, #940, #859 ) ;
#590 = LINE ( 'NONE', #979, #56 ) ;
#591 = ORIENTED_EDGE ( 'NONE', *, *, #426, .F. ) ;
#592 = PRODUCT_DEFINITION_SHAPE ( 'NONE', 'NONE',  #964 ) ;
#593 = CIRCLE ( 'NONE', #15, 7.400000000000003908 ) ;
#594 =( NAMED_UNIT ( * ) PLANE_ANGLE_UNIT ( ) SI_UNIT ( $, .RADIAN. ) );
#595 = VERTEX_POINT ( 'NONE', #43 ) ;
#596 = CARTESIAN_POINT ( 'NONE',  ( 21.90000000000000924, -12.99999999999999822, 20.00000000000000000 ) ) ;
#597 = ADVANCED_FACE ( 'NONE', ( #657 ), #739, .F. ) ;
#598 = EDGE_CURVE ( 'NONE', #921, #391, #555, .T. ) ;
#599 = DIRECTION ( 'NONE',  ( 1.000000000000000000, 0.000000000000000000, 0.000000000000000000 ) ) ;
#600 = ORIENTED_EDGE ( 'NONE', *, *, #373, .F. ) ;
#601 = CLOSED_SHELL ( 'NONE', ( #275, #500, #83, #662, #52, #49, #836, #827, #365, #597, #142, #924, #544, #673, #12, #615, #905, #892, #363, #572, #546, #354, #151, #440, #531, #901, #442, #706, #515, #965, #815, #661, #8, #790, #781, #35 ) ) ;
#602 = PLANE ( 'NONE',  #379 ) ;
#603 = AXIS2_PLACEMENT_3D ( 'NONE', #428, #960, #194 ) ;
#604 = ADVANCED_BREP_SHAPE_REPRESENTATION ( 'ENGG1101_webcam', ( #396, #666 ), #401 ) ;
#605 = DIRECTION ( 'NONE',  ( 1.000000000000000000, 0.000000000000000000, 0.000000000000000000 ) ) ;
#606 = EDGE_CURVE ( 'NONE', #974, #723, #679, .T. ) ;
#607 = CARTESIAN_POINT ( 'NONE',  ( 21.40000000000000568, -8.000000000000003553, 1.000000000000000000 ) ) ;
#608 = DIRECTION ( 'NONE',  ( -1.000000000000000000, -1.242638593106595353E-16, 0.000000000000000000 ) ) ;
#609 = CARTESIAN_POINT ( 'NONE',  ( 21.90000000000000924, 1.854016780915040674E-15, 0.000000000000000000 ) ) ;
#610 = EDGE_LOOP ( 'NONE', ( #298, #34 ) ) ;
#611 = EDGE_CURVE ( 'NONE', #876, #687, #41, .T. ) ;
#612 = DIRECTION ( 'NONE',  ( 0.000000000000000000, -0.000000000000000000, -1.000000000000000000 ) ) ;
#613 = DIRECTION ( 'NONE',  ( -0.000000000000000000, -0.000000000000000000, -1.000000000000000000 ) ) ;
#614 = PLANE ( 'NONE',  #558 ) ;
#615 = ADVANCED_FACE ( 'NONE', ( #734, #117 ), #277, .T. ) ;
#616 = EDGE_LOOP ( 'NONE', ( #434, #702, #79, #711 ) ) ;
#617 = EDGE_LOOP ( 'NONE', ( #55, #675, #172, #548 ) ) ;
#618 = PLANE ( 'NONE',  #128 ) ;
#619 = FACE_OUTER_BOUND ( 'NONE', #709, .T. ) ;
#620 = EDGE_LOOP ( 'NONE', ( #883, #512, #210, #588 ) ) ;
#621 = EDGE_CURVE ( 'NONE', #328, #717, #378, .T. ) ;
#622 = CONICAL_SURFACE ( 'NONE', #577, 10.20000000000003482, 0.7853981633974485010 ) ;
#623 = CYLINDRICAL_SURFACE ( 'NONE', #67, 9.400000000000000355 ) ;
#624 = EDGE_CURVE ( 'NONE', #16, #974, #204, .T. ) ;
#625 = CARTESIAN_POINT ( 'NONE',  ( -4.999999999999994671, -19.00000000000000355, 10.00000000000000000 ) ) ;
#626 = VECTOR ( 'NONE', #220, 1000.000000000000000 ) ;
#627 = DIRECTION ( 'NONE',  ( 1.242638593106595353E-16, -1.000000000000000000, 0.000000000000000000 ) ) ;
#628 = ORIENTED_EDGE ( 'NONE', *, *, #798, .F. ) ;
#629 = ORIENTED_EDGE ( 'NONE', *, *, #516, .F. ) ;
#630 = ORIENTED_EDGE ( 'NONE', *, *, #691, .T. ) ;
#631 = DIRECTION ( 'NONE',  ( 0.000000000000000000, -0.000000000000000000, 1.000000000000000000 ) ) ;
#632 = CARTESIAN_POINT ( 'NONE',  ( 34.90000000000000568, 13.00000000000000355, 2.799999999999962075 ) ) ;
#633 = CARTESIAN_POINT ( 'NONE',  ( -21.89999999999999503, 10.20000000000002949, 0.000000000000000000 ) ) ;
#634 = ORIENTED_EDGE ( 'NONE', *, *, #276, .T. ) ;
#635 = ORIENTED_EDGE ( 'NONE', *, *, #213, .T. ) ;
#636 = ORIENTED_EDGE ( 'NONE', *, *, #860, .T. ) ;
#637 = DIRECTION ( 'NONE',  ( 0.000000000000000000, 0.000000000000000000, 1.000000000000000000 ) ) ;
#638 = CIRCLE ( 'NONE', #991, 9.400000000000000355 ) ;
#639 = CARTESIAN_POINT ( 'NONE',  ( -8.400000000000000355, 0.000000000000000000, 23.19999999999999929 ) ) ;
#640 = VECTOR ( 'NONE', #567, 1000.000000000000000 ) ;
#641 = DIRECTION ( 'NONE',  ( -1.242638593106595353E-16, 1.000000000000000000, -0.000000000000000000 ) ) ;
#642 = DIRECTION ( 'NONE',  ( -0.000000000000000000, 0.000000000000000000, -1.000000000000000000 ) ) ;
#643 = ORIENTED_EDGE ( 'NONE', *, *, #76, .T. ) ;
#644 = CIRCLE ( 'NONE', #847, 12.99999999999999822 ) ;
#645 = ORIENTED_EDGE ( 'NONE', *, *, #523, .T. ) ;
#646 = CARTESIAN_POINT ( 'NONE',  ( 18.90000000000000568, -8.000000000000003553, 1.000000000000000000 ) ) ;
#647 = LINE ( 'NONE', #78, #740 ) ;
#648 = DIRECTION ( 'NONE',  ( 0.000000000000000000, -0.000000000000000000, 1.000000000000000000 ) ) ;
#649 = ORIENTED_EDGE ( 'NONE', *, *, #694, .T. ) ;
#650 = EDGE_LOOP ( 'NONE', ( #852, #863, #564, #85 ) ) ;
#651 = EDGE_CURVE ( 'NONE', #206, #347, #576, .T. ) ;
#652 = CARTESIAN_POINT ( 'NONE',  ( -21.89999999999999503, -3.469446951953614189E-15, 20.00000000000000000 ) ) ;
#653 = CARTESIAN_POINT ( 'NONE',  ( -21.89999999999999503, -13.00000000000000355, 20.00000000000000000 ) ) ;
#654 = DIRECTION ( 'NONE',  ( -0.000000000000000000, -0.000000000000000000, -1.000000000000000000 ) ) ;
#655 = ORIENTED_EDGE ( 'NONE', *, *, #874, .T. ) ;
#656 = CARTESIAN_POINT ( 'NONE',  ( 5.830460278856145802E-15, -19.00000000000000355, 10.00000000000000000 ) ) ;
#657 = FACE_OUTER_BOUND ( 'NONE', #957, .T. ) ;
#658 = AXIS2_PLACEMENT_3D ( 'NONE', #718, #946, #797 ) ;
#659 = AXIS2_PLACEMENT_3D ( 'NONE', #260, #873, #156 ) ;
#660 = CYLINDRICAL_SURFACE ( 'NONE', #240, 1.750000000000001554 ) ;
#661 = ADVANCED_FACE ( 'NONE', ( #889 ), #728, .F. ) ;
#662 = ADVANCED_FACE ( 'NONE', ( #344 ), #447, .T. ) ;
#663 = CARTESIAN_POINT ( 'NONE',  ( 21.40000000000000568, -10.20000000000003304, 1.000000000000000000 ) ) ;
#664 = DIRECTION ( 'NONE',  ( 1.242638593106595353E-16, -1.000000000000000000, 0.000000000000000000 ) ) ;
#665 = DIRECTION ( 'NONE',  ( 1.000000000000000000, 0.000000000000000000, 0.000000000000000000 ) ) ;
#666 = AXIS2_PLACEMENT_3D ( 'NONE', #776, #80, #389 ) ;
#667 = CARTESIAN_POINT ( 'NONE',  ( 17.15000000000000568, -8.000000000000003553, -5.000000000000000000 ) ) ;
#668 = LINE ( 'NONE', #903, #539 ) ;
#669 = ORIENTED_EDGE ( 'NONE', *, *, #651, .F. ) ;
#670 = ORIENTED_EDGE ( 'NONE', *, *, #110, .F. ) ;
#671 = EDGE_LOOP ( 'NONE', ( #634, #18, #397, #5 ) ) ;
#672 = CIRCLE ( 'NONE', #930, 1.750000000000001554 ) ;
#673 = ADVANCED_FACE ( 'NONE', ( #359 ), #502, .T. ) ;
#674 = FACE_OUTER_BOUND ( 'NONE', #958, .T. ) ;
#675 = ORIENTED_EDGE ( 'NONE', *, *, #473, .F. ) ;
#676 = FACE_OUTER_BOUND ( 'NONE', #616, .T. ) ;
#677 = FACE_OUTER_BOUND ( 'NONE', #321, .T. ) ;
#678 = CARTESIAN_POINT ( 'NONE',  ( -21.89999999999999503, -3.588740256891846980E-15, 20.00000000000000000 ) ) ;
#679 = CIRCLE ( 'NONE', #472, 13.00000000000000000 ) ;
#680 = PLANE ( 'NONE',  #371 ) ;
#681 = FACE_OUTER_BOUND ( 'NONE', #617, .T. ) ;
#682 = VECTOR ( 'NONE', #846, 1000.000000000000000 ) ;
#683 = CARTESIAN_POINT ( 'NONE',  ( 0.000000000000000000, 0.000000000000000000, 22.19999999999999574 ) ) ;
#684 = CARTESIAN_POINT ( 'NONE',  ( -7.400000000000003908, 0.000000000000000000, 23.19999999999999929 ) ) ;
#685 = CYLINDRICAL_SURFACE ( 'NONE', #218, 8.400000000000000355 ) ;
#686 = EDGE_CURVE ( 'NONE', #206, #723, #188, .T. ) ;
#687 = VERTEX_POINT ( 'NONE', #424 ) ;
#688 = CARTESIAN_POINT ( 'NONE',  ( 7.400000000000003908, 9.062386313690418318E-16, 23.19999999999999929 ) ) ;
#689 = LINE ( 'NONE', #464, #1008 ) ;
#690 = DIRECTION ( 'NONE',  ( 1.000000000000000000, 0.000000000000000000, 0.000000000000000000 ) ) ;
#691 = EDGE_CURVE ( 'NONE', #347, #595, #934, .T. ) ;
#692 = CARTESIAN_POINT ( 'NONE',  ( -21.89999999999999503, -3.588740256891846980E-15, 0.000000000000000000 ) ) ;
#693 = VERTEX_POINT ( 'NONE', #217 ) ;
#694 = EDGE_CURVE ( 'NONE', #780, #9, #582, .T. ) ;
#695 = DIRECTION ( 'NONE',  ( -1.000000000000000000, 0.000000000000000000, 0.000000000000000000 ) ) ;
#696 = AXIS2_PLACEMENT_3D ( 'NONE', #495, #712, #479 ) ;
#697 = CARTESIAN_POINT ( 'NONE',  ( 0.000000000000000000, 0.000000000000000000, 21.19999999999999929 ) ) ;
#698 = CARTESIAN_POINT ( 'NONE',  ( 34.90000000000000568, -12.99999999999999645, 20.00000000000000000 ) ) ;
#699 = CYLINDRICAL_SURFACE ( 'NONE', #68, 13.00000000000000000 ) ;
#700 = ORIENTED_EDGE ( 'NONE', *, *, #191, .F. ) ;
#701 = ORIENTED_EDGE ( 'NONE', *, *, #112, .T. ) ;
#702 = ORIENTED_EDGE ( 'NONE', *, *, #606, .T. ) ;
#703 = CIRCLE ( 'NONE', #659, 8.400000000000000355 ) ;
#704 = FACE_OUTER_BOUND ( 'NONE', #671, .T. ) ;
#705 = VECTOR ( 'NONE', #222, 1000.000000000000000 ) ;
#706 = ADVANCED_FACE ( 'NONE', ( #914 ), #145, .T. ) ;
#707 = DIRECTION ( 'NONE',  ( 1.000000000000000000, 0.000000000000000000, -0.000000000000000000 ) ) ;
#708 = DIRECTION ( 'NONE',  ( 1.000000000000000000, 1.242638593106595353E-16, 0.000000000000000000 ) ) ;
#709 = EDGE_LOOP ( 'NONE', ( #987, #313, #796, #93 ) ) ;
#710 = ORIENTED_EDGE ( 'NONE', *, *, #975, .F. ) ;
#711 = ORIENTED_EDGE ( 'NONE', *, *, #63, .F. ) ;
#712 = DIRECTION ( 'NONE',  ( -1.242638593106595353E-16, 1.000000000000000000, 0.000000000000000000 ) ) ;
#713 = DIRECTION ( 'NONE',  ( 1.242638593106595353E-16, -1.000000000000000000, 0.000000000000000000 ) ) ;
#714 = LINE ( 'NONE', #861, #279 ) ;
#715 = CARTESIAN_POINT ( 'NONE',  ( 0.000000000000000000, 0.000000000000000000, 20.00000000000000000 ) ) ;
#716 = ORIENTED_EDGE ( 'NONE', *, *, #187, .F. ) ;
#717 = VERTEX_POINT ( 'NONE', #667 ) ;
#718 = CARTESIAN_POINT ( 'NONE',  ( 0.000000000000000000, 0.000000000000000000, 23.19999999999999929 ) ) ;
#719 = AXIS2_PLACEMENT_3D ( 'NONE', #527, #417, #330 ) ;
#720 = FACE_BOUND ( 'NONE', #807, .T. ) ;
#721 = CARTESIAN_POINT ( 'NONE',  ( 21.40000000000000568, -8.000000000000003553, 0.000000000000000000 ) ) ;
#722 = EDGE_CURVE ( 'NONE', #693, #731, #146, .T. ) ;
#723 = VERTEX_POINT ( 'NONE', #526 ) ;
#724 = CIRCLE ( 'NONE', #825, 5.000000000000000888 ) ;
#725 = ORIENTED_EDGE ( 'NONE', *, *, #395, .F. ) ;
#726 = CARTESIAN_POINT ( 'NONE',  ( 1.267491364968731884E-15, -10.20000000000003659, 0.000000000000000000 ) ) ;
#727 = EDGE_CURVE ( 'NONE', #565, #347, #144, .T. ) ;
#728 = CYLINDRICAL_SURFACE ( 'NONE', #295, 2.499999999999998668 ) ;
#729 = AXIS2_PLACEMENT_3D ( 'NONE', #971, #730, #875 ) ;
#730 = DIRECTION ( 'NONE',  ( 0.000000000000000000, 0.000000000000000000, 1.000000000000000000 ) ) ;
#731 = VERTEX_POINT ( 'NONE', #296 ) ;
#732 = DIRECTION ( 'NONE',  ( 1.000000000000000000, 0.000000000000000000, 0.000000000000000000 ) ) ;
#733 = AXIS2_PLACEMENT_3D ( 'NONE', #121, #452, #834 ) ;
#734 = FACE_BOUND ( 'NONE', #920, .T. ) ;
#735 = DIRECTION ( 'NONE',  ( -1.000000000000000000, 0.000000000000000000, 0.000000000000000000 ) ) ;
#736 = EDGE_CURVE ( 'NONE', #508, #731, #985, .T. ) ;
#737 = EDGE_CURVE ( 'NONE', #832, #723, #70, .T. ) ;
#738 = DIRECTION ( 'NONE',  ( -0.000000000000000000, -0.000000000000000000, 1.000000000000000000 ) ) ;
#739 = PLANE ( 'NONE',  #219 ) ;
#740 = VECTOR ( 'NONE', #1006, 1000.000000000000000 ) ;
#741 = FACE_OUTER_BOUND ( 'NONE', #935, .T. ) ;
#742 = DIRECTION ( 'NONE',  ( 0.000000000000000000, -0.7071067811865479058, -0.7071067811865471286 ) ) ;
#743 = DIRECTION ( 'NONE',  ( -1.000000000000000000, 0.000000000000000000, 0.000000000000000000 ) ) ;
#744 = LINE ( 'NONE', #368, #536 ) ;
#745 = CIRCLE ( 'NONE', #280, 7.000000000000000000 ) ;
#746 = ORIENTED_EDGE ( 'NONE', *, *, #727, .F. ) ;
#747 =( LENGTH_UNIT ( ) NAMED_UNIT ( * ) SI_UNIT ( .MILLI., .METRE. ) );
#748 = ORIENTED_EDGE ( 'NONE', *, *, #201, .F. ) ;
#749 = CARTESIAN_POINT ( 'NONE',  ( -8.400000000000000355, 0.000000000000000000, 21.19999999999999929 ) ) ;
#750 = PRODUCT_RELATED_PRODUCT_CATEGORY ( 'part', '', ( #292 ) ) ;
#751 = EDGE_CURVE ( 'NONE', #916, #921, #504, .T. ) ;
#752 = VERTEX_POINT ( 'NONE', #521 ) ;
#753 = EDGE_CURVE ( 'NONE', #756, #334, #593, .T. ) ;
#754 = DIRECTION ( 'NONE',  ( -0.000000000000000000, -0.000000000000000000, 1.000000000000000000 ) ) ;
#755 = AXIS2_PLACEMENT_3D ( 'NONE', #84, #332, #266 ) ;
#756 = VERTEX_POINT ( 'NONE', #684 ) ;
#757 = AXIS2_PLACEMENT_3D ( 'NONE', #584, #823, #127 ) ;
#758 = CARTESIAN_POINT ( 'NONE',  ( 8.400000000000000355, 1.028703311283776783E-15, 22.19999999999999574 ) ) ;
#759 = DIRECTION ( 'NONE',  ( 0.000000000000000000, 0.000000000000000000, -1.000000000000000000 ) ) ;
#760 = AXIS2_PLACEMENT_3D ( 'NONE', #433, #351, #743 ) ;
#761 = DIRECTION ( 'NONE',  ( -1.000000000000000000, 0.000000000000000000, 0.000000000000000000 ) ) ;
#762 = CARTESIAN_POINT ( 'NONE',  ( 8.400000000000000355, 1.028703311283776783E-15, 23.19999999999999929 ) ) ;
#763 = ORIENTED_EDGE ( 'NONE', *, *, #624, .F. ) ;
#764 = AXIS2_PLACEMENT_3D ( 'NONE', #537, #241, #310 ) ;
#765 = DIRECTION ( 'NONE',  ( 1.242638593106595353E-16, -1.000000000000000000, 0.000000000000000000 ) ) ;
#766 = DIRECTION ( 'NONE',  ( 0.000000000000000000, 0.000000000000000000, 1.000000000000000000 ) ) ;
#767 = ORIENTED_EDGE ( 'NONE', *, *, #410, .T. ) ;
#768 = VECTOR ( 'NONE', #554, 1000.000000000000000 ) ;
#769 = ORIENTED_EDGE ( 'NONE', *, *, #348, .F. ) ;
#770 = UNCERTAINTY_MEASURE_WITH_UNIT (LENGTH_MEASURE( 1.000000000000000082E-05 ), #747, 'distance_accuracy_value', 'NONE');
#771 = CARTESIAN_POINT ( 'NONE',  ( -34.89999999999999147, -3.469446951953614189E-15, 2.799999999999962075 ) ) ;
#772 = FACE_OUTER_BOUND ( 'NONE', #650, .T. ) ;
#773 = CARTESIAN_POINT ( 'NONE',  ( 21.40000000000000568, -10.20000000000003304, 1.000000000000000000 ) ) ;
#774 = DIRECTION ( 'NONE',  ( 0.000000000000000000, 0.000000000000000000, 1.000000000000000000 ) ) ;
#775 = ORIENTED_EDGE ( 'NONE', *, *, #390, .T. ) ;
#776 = CARTESIAN_POINT ( 'NONE',  ( 0.000000000000000000, 0.000000000000000000, 0.000000000000000000 ) ) ;
#777 = DIRECTION ( 'NONE',  ( -0.000000000000000000, 0.000000000000000000, -1.000000000000000000 ) ) ;
#778 = CARTESIAN_POINT ( 'NONE',  ( 5.830460278856145802E-15, -19.00000000000000355, 10.00000000000000000 ) ) ;
#779 = DIRECTION ( 'NONE',  ( 1.000000000000000000, 0.000000000000000000, 0.000000000000000000 ) ) ;
#780 = VERTEX_POINT ( 'NONE', #374 ) ;
#781 = ADVANCED_FACE ( 'NONE', ( #913 ), #301, .T. ) ;
#782 = ORIENTED_EDGE ( 'NONE', *, *, #907, .F. ) ;
#783 = AXIS2_PLACEMENT_3D ( 'NONE', #101, #637, #732 ) ;
#784 = DIRECTION ( 'NONE',  ( 1.242638593106595353E-16, -1.000000000000000000, -0.000000000000000000 ) ) ;
#785 = AXIS2_PLACEMENT_3D ( 'NONE', #481, #485, #413 ) ;
#786 = CARTESIAN_POINT ( 'NONE',  ( 21.90000000000000924, -10.20000000000003304, 0.000000000000000000 ) ) ;
#787 = DIRECTION ( 'NONE',  ( -1.000000000000000000, 0.000000000000000000, 0.000000000000000000 ) ) ;
#788 = ORIENTED_EDGE ( 'NONE', *, *, #226, .T. ) ;
#789 = ORIENTED_EDGE ( 'NONE', *, *, #369, .F. ) ;
#790 = ADVANCED_FACE ( 'NONE', ( #45, #525 ), #680, .F. ) ;
#791 = EDGE_LOOP ( 'NONE', ( #803, #250, #899, #475 ) ) ;
#792 = DIRECTION ( 'NONE',  ( 1.000000000000000000, 0.000000000000000000, 0.000000000000000000 ) ) ;
#793 = CARTESIAN_POINT ( 'NONE',  ( 0.000000000000000000, 0.000000000000000000, 23.19999999999999929 ) ) ;
#794 = CARTESIAN_POINT ( 'NONE',  ( 21.90000000000000924, 1.734723475976807094E-15, 0.000000000000000000 ) ) ;
#795 = ORIENTED_EDGE ( 'NONE', *, *, #137, .F. ) ;
#796 = ORIENTED_EDGE ( 'NONE', *, *, #722, .T. ) ;
#797 = DIRECTION ( 'NONE',  ( 1.000000000000000000, 0.000000000000000000, 0.000000000000000000 ) ) ;
#798 = EDGE_CURVE ( 'NONE', #752, #832, #819, .T. ) ;
#799 = CARTESIAN_POINT ( 'NONE',  ( 5.830460278856145802E-15, -19.00000000000000355, 10.00000000000000000 ) ) ;
#800 = DIRECTION ( 'NONE',  ( 1.000000000000000000, 0.000000000000000000, 0.000000000000000000 ) ) ;
#801 = ORIENTED_EDGE ( 'NONE', *, *, #37, .F. ) ;
#802 = EDGE_CURVE ( 'NONE', #9, #254, #969, .T. ) ;
#803 = ORIENTED_EDGE ( 'NONE', *, *, #611, .T. ) ;
#804 = CARTESIAN_POINT ( 'NONE',  ( 18.90000000000000568, -8.000000000000003553, 0.000000000000000000 ) ) ;
#805 = DIRECTION ( 'NONE',  ( -1.000000000000000000, 0.000000000000000000, 0.000000000000000000 ) ) ;
#806 = CARTESIAN_POINT ( 'NONE',  ( -21.89999999999999503, -3.588740256891846980E-15, 0.000000000000000000 ) ) ;
#807 = EDGE_LOOP ( 'NONE', ( #529, #748 ) ) ;
#808 = VERTEX_POINT ( 'NONE', #663 ) ;
#809 = CARTESIAN_POINT ( 'NONE',  ( -9.400000000000000355, 0.000000000000000000, 21.19999999999999929 ) ) ;
#810 = MECHANICAL_DESIGN_GEOMETRIC_PRESENTATION_REPRESENTATION (  '', ( #141 ), #888 ) ;
#811 = EDGE_CURVE ( 'NONE', #254, #528, #125, .T. ) ;
#812 = CARTESIAN_POINT ( 'NONE',  ( -34.89999999999999147, -3.469446951953614189E-15, 20.00000000000000000 ) ) ;
#813 = CIRCLE ( 'NONE', #729, 9.400000000000000355 ) ;
#814 = CARTESIAN_POINT ( 'NONE',  ( -8.400000000000000355, 0.000000000000000000, 22.19999999999999574 ) ) ;
#815 = ADVANCED_FACE ( 'NONE', ( #677 ), #532, .F. ) ;
#816 = AXIS2_PLACEMENT_3D ( 'NONE', #817, #879, #497 ) ;
#817 = CARTESIAN_POINT ( 'NONE',  ( 21.90000000000000924, 1.734723475976807094E-15, 20.00000000000000000 ) ) ;
#818 = FACE_OUTER_BOUND ( 'NONE', #462, .T. ) ;
#819 = LINE ( 'NONE', #993, #324 ) ;
#820 = CARTESIAN_POINT ( 'NONE',  ( -21.89999999999999503, -3.588740256891846980E-15, 2.799999999999962075 ) ) ;
#821 = AXIS2_PLACEMENT_3D ( 'NONE', #382, #613, #458 ) ;
#822 = AXIS2_PLACEMENT_3D ( 'NONE', #402, #244, #787 ) ;
#823 = DIRECTION ( 'NONE',  ( 0.000000000000000000, 0.000000000000000000, -1.000000000000000000 ) ) ;
#824 = EDGE_LOOP ( 'NONE', ( #518, #453, #48, #788 ) ) ;
#825 = AXIS2_PLACEMENT_3D ( 'NONE', #448, #380, #216 ) ;
#826 = ORIENTED_EDGE ( 'NONE', *, *, #164, .T. ) ;
#827 = ADVANCED_FACE ( 'NONE', ( #325 ), #614, .F. ) ;
#828 = VERTEX_POINT ( 'NONE', #926 ) ;
#829 = EDGE_CURVE ( 'NONE', #974, #952, #538, .T. ) ;
#830 = FILL_AREA_STYLE_COLOUR ( '', #116 ) ;
#831 = AXIS2_PLACEMENT_3D ( 'NONE', #652, #959, #271 ) ;
#832 = VERTEX_POINT ( 'NONE', #77 ) ;
#833 = CARTESIAN_POINT ( 'NONE',  ( 21.40000000000000568, -10.20000000000003304, 1.000000000000000000 ) ) ;
#834 = DIRECTION ( 'NONE',  ( 1.000000000000000000, 0.000000000000000000, 0.000000000000000000 ) ) ;
#835 = EDGE_CURVE ( 'NONE', #270, #391, #236, .T. ) ;
#836 = ADVANCED_FACE ( 'NONE', ( #853, #392 ), #618, .F. ) ;
#837 = CIRCLE ( 'NONE', #179, 8.400000000000000355 ) ;
#838 =( LENGTH_UNIT ( ) NAMED_UNIT ( * ) SI_UNIT ( .MILLI., .METRE. ) );
#839 = DIRECTION ( 'NONE',  ( -1.000000000000000000, -1.242638593106595353E-16, 0.000000000000000000 ) ) ;
#840 = CARTESIAN_POINT ( 'NONE',  ( 5.830460278856145802E-15, -19.00000000000000355, 10.00000000000000000 ) ) ;
#841 = DIRECTION ( 'NONE',  ( 1.242638593106595353E-16, -1.000000000000000000, -0.000000000000000000 ) ) ;
#842 = DIRECTION ( 'NONE',  ( 0.000000000000000000, 0.000000000000000000, 1.000000000000000000 ) ) ;
#843 = ORIENTED_EDGE ( 'NONE', *, *, #811, .F. ) ;
#844 = VECTOR ( 'NONE', #181, 1000.000000000000000 ) ;
#845 = EDGE_LOOP ( 'NONE', ( #364, #227, #409, #405 ) ) ;
#846 = DIRECTION ( 'NONE',  ( 0.000000000000000000, -0.7071067811865477948, 0.7071067811865473507 ) ) ;
#847 = AXIS2_PLACEMENT_3D ( 'NONE', #948, #399, #465 ) ;
#848 = DIRECTION ( 'NONE',  ( 1.000000000000000000, 0.000000000000000000, 0.000000000000000000 ) ) ;
#849 = ORIENTED_EDGE ( 'NONE', *, *, #235, .T. ) ;
#850 = VECTOR ( 'NONE', #132, 1000.000000000000114 ) ;
#851 = VECTOR ( 'NONE', #28, 1000.000000000000000 ) ;
#852 = ORIENTED_EDGE ( 'NONE', *, *, #435, .F. ) ;
#853 = FACE_BOUND ( 'NONE', #610, .T. ) ;
#854 = DIRECTION ( 'NONE',  ( 0.000000000000000000, 0.000000000000000000, -1.000000000000000000 ) ) ;
#855 = AXIS2_PLACEMENT_3D ( 'NONE', #223, #766, #432 ) ;
#856 = ORIENTED_EDGE ( 'NONE', *, *, #37, .T. ) ;
#857 = EDGE_CURVE ( 'NONE', #881, #565, #331, .T. ) ;
#858 = FACE_OUTER_BOUND ( 'NONE', #404, .T. ) ;
#859 = DIRECTION ( 'NONE',  ( -1.000000000000000000, -1.242638593106595353E-16, 0.000000000000000000 ) ) ;
#860 = EDGE_CURVE ( 'NONE', #780, #136, #471, .T. ) ;
#861 = CARTESIAN_POINT ( 'NONE',  ( 20.65000000000000924, -8.000000000000003553, -5.000000000000000000 ) ) ;
#862 = ORIENTED_EDGE ( 'NONE', *, *, #857, .T. ) ;
#863 = ORIENTED_EDGE ( 'NONE', *, *, #621, .F. ) ;
#864 = VERTEX_POINT ( 'NONE', #163 ) ;
#865 = CIRCLE ( 'NONE', #719, 12.99999999999999822 ) ;
#866 = CARTESIAN_POINT ( 'NONE',  ( 5.830460278856145802E-15, -19.00000000000000355, 10.00000000000000000 ) ) ;
#867 = CARTESIAN_POINT ( 'NONE',  ( -34.89999999999999147, -3.469446951953614189E-15, 2.799999999999962075 ) ) ;
#868 = DIRECTION ( 'NONE',  ( -8.786781757497845273E-17, 0.7071067811865474617, 0.7071067811865476838 ) ) ;
#869 = AXIS2_PLACEMENT_3D ( 'NONE', #678, #159, #695 ) ;
#870 = VERTEX_POINT ( 'NONE', #480 ) ;
#871 = EDGE_LOOP ( 'NONE', ( #522, #114, #383, #775 ) ) ;
#872 = DIRECTION ( 'NONE',  ( -0.000000000000000000, 0.000000000000000000, -1.000000000000000000 ) ) ;
#873 = DIRECTION ( 'NONE',  ( 0.000000000000000000, 0.000000000000000000, -1.000000000000000000 ) ) ;
#874 = EDGE_CURVE ( 'NONE', #439, #508, #20, .T. ) ;
#875 = DIRECTION ( 'NONE',  ( 1.000000000000000000, 0.000000000000000000, 0.000000000000000000 ) ) ;
#876 = VERTEX_POINT ( 'NONE', #625 ) ;
#877 = ORIENTED_EDGE ( 'NONE', *, *, #802, .F. ) ;
#878 = DIRECTION ( 'NONE',  ( 1.000000000000000000, 0.000000000000000000, 0.000000000000000000 ) ) ;
#879 = DIRECTION ( 'NONE',  ( 0.000000000000000000, 0.000000000000000000, -1.000000000000000000 ) ) ;
#880 = CARTESIAN_POINT ( 'NONE',  ( 20.65000000000000924, -8.000000000000003553, 1.000000000000000000 ) ) ;
#881 = VERTEX_POINT ( 'NONE', #786 ) ;
#882 = EDGE_CURVE ( 'NONE', #231, #9, #644, .T. ) ;
#883 = ORIENTED_EDGE ( 'NONE', *, *, #1000, .T. ) ;
#884 = FACE_OUTER_BOUND ( 'NONE', #59, .T. ) ;
#885 = EDGE_CURVE ( 'NONE', #693, #439, #258, .T. ) ;
#886 = DIRECTION ( 'NONE',  ( 0.000000000000000000, 0.000000000000000000, -1.000000000000000000 ) ) ;
#887 = CARTESIAN_POINT ( 'NONE',  ( 5.830460278856145802E-15, -19.00000000000000355, 10.00000000000000000 ) ) ;
#888 =( GEOMETRIC_REPRESENTATION_CONTEXT ( 3 ) GLOBAL_UNCERTAINTY_ASSIGNED_CONTEXT ( ( #770 ) ) GLOBAL_UNIT_ASSIGNED_CONTEXT ( ( #747, #594, #510 ) ) REPRESENTATION_CONTEXT ( 'NONE', 'WORKASPACE' ) );
#889 = FACE_OUTER_BOUND ( 'NONE', #585, .T. ) ;
#890 = AXIS2_PLACEMENT_3D ( 'NONE', #887, #44, #118 ) ;
#891 = DIRECTION ( 'NONE',  ( 1.000000000000000000, 8.881784197001252323E-16, 0.000000000000000000 ) ) ;
#892 = ADVANCED_FACE ( 'NONE', ( #97 ), #82, .T. ) ;
#893 = AXIS2_PLACEMENT_3D ( 'NONE', #894, #841, #449 ) ;
#894 = CARTESIAN_POINT ( 'NONE',  ( 5.084877122992188492E-15, -13.00000000000000178, 10.00000000000000000 ) ) ;
#895 = DIRECTION ( 'NONE',  ( -0.000000000000000000, -0.000000000000000000, -1.000000000000000000 ) ) ;
#896 = CARTESIAN_POINT ( 'NONE',  ( -7.400000000000003908, 0.000000000000000000, 23.19999999999999929 ) ) ;
#897 = ORIENTED_EDGE ( 'NONE', *, *, #1005, .T. ) ;
#898 = AXIS2_PLACEMENT_3D ( 'NONE', #866, #450, #225 ) ;
#899 = ORIENTED_EDGE ( 'NONE', *, *, #246, .F. ) ;
#900 = CARTESIAN_POINT ( 'NONE',  ( 7.000000000000006217, -19.00000000000000355, 10.00000000000000000 ) ) ;
#901 = ADVANCED_FACE ( 'NONE', ( #243 ), #545, .F. ) ;
#902 = EDGE_LOOP ( 'NONE', ( #649, #911, #856, #66 ) ) ;
#903 = CARTESIAN_POINT ( 'NONE',  ( 21.40000000000000568, -10.20000000000003304, 1.000000000000000000 ) ) ;
#904 = ORIENTED_EDGE ( 'NONE', *, *, #983, .F. ) ;
#905 = ADVANCED_FACE ( 'NONE', ( #169 ), #176, .T. ) ;
#906 = DIRECTION ( 'NONE',  ( 0.000000000000000000, -0.7071067811865474617, 0.7071067811865474617 ) ) ;
#907 = EDGE_CURVE ( 'NONE', #533, #468, #724, .T. ) ;
#908 = FACE_OUTER_BOUND ( 'NONE', #308, .T. ) ;
#909 = AXIS2_PLACEMENT_3D ( 'NONE', #646, #954, #265 ) ;
#910 = CONICAL_SURFACE ( 'NONE', #255, 10.20000000000003482, 0.7853981633974485010 ) ;
#911 = ORIENTED_EDGE ( 'NONE', *, *, #802, .T. ) ;
#912 = DIRECTION ( 'NONE',  ( 0.7071067811865463515, 8.659560562354919300E-17, -0.7071067811865487940 ) ) ;
#913 = FACE_OUTER_BOUND ( 'NONE', #319, .T. ) ;
#914 = FACE_OUTER_BOUND ( 'NONE', #184, .T. ) ;
#915 = CYLINDRICAL_SURFACE ( 'NONE', #898, 7.000000000000000000 ) ;
#916 = VERTEX_POINT ( 'NONE', #758 ) ;
#917 =( NAMED_UNIT ( * ) PLANE_ANGLE_UNIT ( ) SI_UNIT ( $, .RADIAN. ) );
#918 = CARTESIAN_POINT ( 'NONE',  ( 5.084877122992188492E-15, -13.00000000000000178, 10.00000000000000000 ) ) ;
#919 = DIRECTION ( 'NONE',  ( -1.242638593106595353E-16, 1.000000000000000000, 0.000000000000000000 ) ) ;
#920 = EDGE_LOOP ( 'NONE', ( #1003, #476 ) ) ;
#921 = VERTEX_POINT ( 'NONE', #451 ) ;
#922 = DIRECTION ( 'NONE',  ( 0.000000000000000000, 0.000000000000000000, -1.000000000000000000 ) ) ;
#923 = CARTESIAN_POINT ( 'NONE',  ( -21.89999999999999503, -3.588740256891846980E-15, 20.00000000000000000 ) ) ;
#924 = ADVANCED_FACE ( 'NONE', ( #676 ), #520, .T. ) ;
#925 = EDGE_CURVE ( 'NONE', #178, #229, #418, .T. ) ;
#926 = CARTESIAN_POINT ( 'NONE',  ( -9.400000000000000355, 0.000000000000000000, 20.00000000000000000 ) ) ;
#927 = CYLINDRICAL_SURFACE ( 'NONE', #785, 7.000000000000000000 ) ;
#928 = ORIENTED_EDGE ( 'NONE', *, *, #87, .T. ) ;
#929 = AXIS2_PLACEMENT_3D ( 'NONE', #461, #868, #708 ) ;
#930 = AXIS2_PLACEMENT_3D ( 'NONE', #575, #506, #283 ) ;
#931 = CYLINDRICAL_SURFACE ( 'NONE', #764, 1.750000000000001554 ) ;
#932 = DIRECTION ( 'NONE',  ( 0.000000000000000000, 0.000000000000000000, 1.000000000000000000 ) ) ;
#933 = CARTESIAN_POINT ( 'NONE',  ( 5.000000000000006217, -13.00000000000000178, 10.00000000000000000 ) ) ;
#934 = CIRCLE ( 'NONE', #733, 12.99999999999999822 ) ;
#935 = EDGE_LOOP ( 'NONE', ( #725, #415, #767, #782 ) ) ;
#936 = ORIENTED_EDGE ( 'NONE', *, *, #346, .T. ) ;
#937 = EDGE_LOOP ( 'NONE', ( #133, #394, #454, #669 ) ) ;
#938 = FACE_OUTER_BOUND ( 'NONE', #329, .T. ) ;
#939 = PRESENTATION_LAYER_ASSIGNMENT (  '', '', ( #141 ) ) ;
#940 = DIRECTION ( 'NONE',  ( 8.786781757497842807E-17, -0.7071067811865472397, 0.7071067811865479058 ) ) ;
#941 = DIRECTION ( 'NONE',  ( -1.000000000000000000, 0.000000000000000000, 0.000000000000000000 ) ) ;
#942 = VERTEX_POINT ( 'NONE', #152 ) ;
#943 = ORIENTED_EDGE ( 'NONE', *, *, #267, .T. ) ;
#944 = ORIENTED_EDGE ( 'NONE', *, *, #925, .T. ) ;
#945 = CIRCLE ( 'NONE', #783, 12.99999999999999822 ) ;
#946 = DIRECTION ( 'NONE',  ( 0.000000000000000000, 0.000000000000000000, 1.000000000000000000 ) ) ;
#947 = AXIS2_PLACEMENT_3D ( 'NONE', #46, #491, #805 ) ;
#948 = CARTESIAN_POINT ( 'NONE',  ( 21.90000000000000924, 1.854016780915040674E-15, 2.799999999999962075 ) ) ;
#949 = DIRECTION ( 'NONE',  ( 0.000000000000000000, 0.000000000000000000, 1.000000000000000000 ) ) ;
#950 = AXIS2_PLACEMENT_3D ( 'NONE', #773, #13, #259 ) ;
#951 = CARTESIAN_POINT ( 'NONE',  ( 20.65000000000000924, -8.000000000000003553, -5.000000000000000000 ) ) ;
#952 = VERTEX_POINT ( 'NONE', #233 ) ;
#953 = ORIENTED_EDGE ( 'NONE', *, *, #925, .F. ) ;
#954 = DIRECTION ( 'NONE',  ( -0.000000000000000000, 0.000000000000000000, -1.000000000000000000 ) ) ;
#955 = PLANE ( 'NONE',  #431 ) ;
#956 = CARTESIAN_POINT ( 'NONE',  ( -21.89999999999999503, -3.469446951953614189E-15, 20.00000000000000000 ) ) ;
#957 = EDGE_LOOP ( 'NONE', ( #701, #342, #670, #92, #551, #215, #943, #416, #643, #897 ) ) ;
#958 = EDGE_LOOP ( 'NONE', ( #422, #239, #591, #294 ) ) ;
#959 = DIRECTION ( 'NONE',  ( 0.000000000000000000, 0.000000000000000000, -1.000000000000000000 ) ) ;
#960 = DIRECTION ( 'NONE',  ( 0.000000000000000000, 0.000000000000000000, 1.000000000000000000 ) ) ;
#961 = CYLINDRICAL_SURFACE ( 'NONE', #890, 5.000000000000000888 ) ;
#962 = DIRECTION ( 'NONE',  ( 1.242638593106595353E-16, -1.000000000000000000, 0.000000000000000000 ) ) ;
#963 = CIRCLE ( 'NONE', #658, 7.400000000000003908 ) ;
#964 = PRODUCT_DEFINITION ( 'UNKNOWN', '', #968, #350 ) ;
#965 = ADVANCED_FACE ( 'NONE', ( #989 ), #602, .F. ) ;
#966 = DIRECTION ( 'NONE',  ( 0.000000000000000000, -0.000000000000000000, 1.000000000000000000 ) ) ;
#967 = DIRECTION ( 'NONE',  ( 1.000000000000000000, 0.000000000000000000, 0.000000000000000000 ) ) ;
#968 = PRODUCT_DEFINITION_FORMATION_WITH_SPECIFIED_SOURCE ( 'ANY', '', #292, .NOT_KNOWN. ) ;
#969 = LINE ( 'NONE', #303, #509 ) ;
#970 = DIRECTION ( 'NONE',  ( 0.000000000000000000, 0.000000000000000000, 1.000000000000000000 ) ) ;
#971 = CARTESIAN_POINT ( 'NONE',  ( 0.000000000000000000, 0.000000000000000000, 21.19999999999999929 ) ) ;
#972 = DIRECTION ( 'NONE',  ( 0.000000000000000000, 0.000000000000000000, 1.000000000000000000 ) ) ;
#973 = EDGE_CURVE ( 'NONE', #9, #942, #74, .T. ) ;
#974 = VERTEX_POINT ( 'NONE', #771 ) ;
#975 = EDGE_CURVE ( 'NONE', #439, #693, #745, .T. ) ;
#976 = DIRECTION ( 'NONE',  ( -1.242638593106595353E-16, 1.000000000000000000, -0.000000000000000000 ) ) ;
#977 = VERTEX_POINT ( 'NONE', #607 ) ;
#978 = AXIS2_PLACEMENT_3D ( 'NONE', #692, #21, #91 ) ;
#979 = CARTESIAN_POINT ( 'NONE',  ( 21.40000000000000568, -8.000000000000003553, 1.000000000000000000 ) ) ;
#980 = CONICAL_SURFACE ( 'NONE', #757, 7.400000000000003908, 0.7853981633974466137 ) ;
#981 = EDGE_CURVE ( 'NONE', #528, #942, #299, .T. ) ;
#982 = ORIENTED_EDGE ( 'NONE', *, *, #198, .T. ) ;
#983 = EDGE_CURVE ( 'NONE', #334, #916, #60, .T. ) ;
#984 = CARTESIAN_POINT ( 'NONE',  ( -6.999999999999993783, -19.00000000000000355, 10.00000000000000000 ) ) ;
#985 = CIRCLE ( 'NONE', #893, 7.000000000000000000 ) ;
#986 = CARTESIAN_POINT ( 'NONE',  ( 21.90000000000000924, 1.854016780915040674E-15, 0.000000000000000000 ) ) ;
#987 = ORIENTED_EDGE ( 'NONE', *, *, #874, .F. ) ;
#988 = AXIS2_PLACEMENT_3D ( 'NONE', #205, #189, #665 ) ;
#989 = FACE_OUTER_BOUND ( 'NONE', #824, .T. ) ;
#990 = DIRECTION ( 'NONE',  ( 0.000000000000000000, 0.000000000000000000, 1.000000000000000000 ) ) ;
#991 = AXIS2_PLACEMENT_3D ( 'NONE', #412, #96, #878 ) ;
#992 = VECTOR ( 'NONE', #941, 1000.000000000000000 ) ;
#993 = CARTESIAN_POINT ( 'NONE',  ( 1.267491364968731884E-15, -10.20000000000003659, 0.000000000000000000 ) ) ;
#994 = DIRECTION ( 'NONE',  ( -1.000000000000000000, 0.000000000000000000, 0.000000000000000000 ) ) ;
#995 = AXIS2_PLACEMENT_3D ( 'NONE', #384, #922, #761 ) ;
#996 = ORIENTED_EDGE ( 'NONE', *, *, #829, .F. ) ;
#997 = DIRECTION ( 'NONE',  ( -0.000000000000000000, 0.000000000000000000, -1.000000000000000000 ) ) ;
#998 = DIRECTION ( 'NONE',  ( -0.000000000000000000, -0.000000000000000000, -1.000000000000000000 ) ) ;
#999 = ORIENTED_EDGE ( 'NONE', *, *, #753, .F. ) ;
#1000 = EDGE_CURVE ( 'NONE', #270, #916, #837, .T. ) ;
#1001 = DIRECTION ( 'NONE',  ( 0.000000000000000000, 0.000000000000000000, -1.000000000000000000 ) ) ;
#1002 = APPLICATION_CONTEXT ( 'automotive_design' ) ;
#1003 = ORIENTED_EDGE ( 'NONE', *, *, #390, .F. ) ;
#1004 = CARTESIAN_POINT ( 'NONE',  ( 0.000000000000000000, 0.000000000000000000, 23.19999999999999929 ) ) ;
#1005 = EDGE_CURVE ( 'NONE', #482, #881, #561, .T. ) ;
#1006 = DIRECTION ( 'NONE',  ( -0.000000000000000000, -0.000000000000000000, -1.000000000000000000 ) ) ;
#1007 = EDGE_LOOP ( 'NONE', ( #171, #322 ) ) ;
#1008 = VECTOR ( 'NONE', #71, 1000.000000000000000 ) ;
ENDSEC;
END-ISO-10303-21;
